<?xml version="1.0" encoding="UTF-8" standalone="no"?>
<svg
   xmlns:dc="http://purl.org/dc/elements/1.1/"
   xmlns:cc="http://creativecommons.org/ns#"
   xmlns:rdf="http://www.w3.org/1999/02/22-rdf-syntax-ns#"
   xmlns:svg="http://www.w3.org/2000/svg"
   xmlns="http://www.w3.org/2000/svg"
   xmlns:sodipodi="http://sodipodi.sourceforge.net/DTD/sodipodi-0.dtd"
   xmlns:inkscape="http://www.inkscape.org/namespaces/inkscape"
   id="svg199"
   height="112mm"
   width="112mm"
   version="1.0"
   sodipodi:docname="window_type_9.svg"
   inkscape:version="1.0 (4035a4fb49, 2020-05-01)">
  <sodipodi:namedview
     inkscape:document-rotation="0"
     pagecolor="#ffffff"
     bordercolor="#666666"
     borderopacity="1"
     objecttolerance="10"
     gridtolerance="10"
     guidetolerance="10"
     inkscape:pageopacity="0"
     inkscape:pageshadow="2"
     inkscape:window-width="1920"
     inkscape:window-height="1017"
     id="namedview78"
     showgrid="false"
     inkscape:zoom="1.3744347"
     inkscape:cx="250.58008"
     inkscape:cy="149.31905"
     inkscape:window-x="-8"
     inkscape:window-y="-8"
     inkscape:window-maximized="1"
     inkscape:current-layer="svg199" />
  <metadata
     id="metadata203">
    <rdf:RDF>
      <cc:Work
         rdf:about="">
        <dc:format>image/svg+xml</dc:format>
        <dc:type
           rdf:resource="http://purl.org/dc/dcmitype/StillImage" />
        <dc:title></dc:title>
      </cc:Work>
    </rdf:RDF>
  </metadata>
  <defs
     id="defs3" />
  <g
     transform="translate(-756.52476,-17.905281)"
     style="fill:#dcffff;fill-opacity:1"
     id="g1338">
    <rect
       style="fill:#dcffff;fill-opacity:1;stroke-width:1.00157"
       id="rect1329"
       width="83.176468"
       height="234.88235"
       x="784.17645"
       y="112.11765" />
    <rect
       style="fill:#dcffff;fill-opacity:1;stroke-width:1.00157"
       id="rect1331"
       width="78.399788"
       height="189.35294"
       x="928.76471"
       y="134.88235" />
    <rect
       style="fill:#dcffff;fill-opacity:1;stroke-width:1.00157"
       id="rect1333"
       width="83.588303"
       height="234.88235"
       x="1068.5883"
       y="112.11765" />
  </g>
  <g
     transform="translate(-756.52476,-17.905281)"
     style="fill:#d2d2d2;fill-opacity:1"
     id="g1325">
    <path
       style="fill:#d2d2d2;fill-opacity:1;stroke:#000000;stroke-width:1px;stroke-linecap:butt;stroke-linejoin:miter;stroke-opacity:1"
       d="M 757.94118,85.823529 V 373.29412 l 13.82353,-13.88236 V 99.705882 Z"
       id="path1126" />
    <path
       style="fill:#d2d2d2;fill-opacity:1;stroke:#000000;stroke-width:1px;stroke-linecap:butt;stroke-linejoin:miter;stroke-opacity:1"
       d="m 771.76471,99.705882 h 392.76469 l 13.8824,-13.882353 H 757.94118 Z"
       id="path1129" />
    <path
       style="fill:#d2d2d2;fill-opacity:1;stroke:#000000;stroke-width:1px;stroke-linecap:butt;stroke-linejoin:miter;stroke-opacity:1"
       d="M 1178.4118,85.823529 V 373.29412 l -13.8824,-13.88236 V 99.705882 Z"
       id="path1131" />
    <path
       style="fill:#d2d2d2;fill-opacity:1;stroke:#000000;stroke-width:1px;stroke-linecap:butt;stroke-linejoin:miter;stroke-opacity:1"
       d="m 757.94118,373.29412 h 420.47062 l -13.8824,-13.88236 H 771.76471 Z"
       id="path1133" />
    <path
       style="fill:#d2d2d2;fill-opacity:1;stroke:#000000;stroke-width:1px;stroke-linecap:butt;stroke-linejoin:miter;stroke-opacity:1"
       d="M 771.76471,112.11765 H 879.70588 V 99.705882 H 771.76471 Z"
       id="path1135" />
    <path
       style="fill:#d2d2d2;fill-opacity:1;stroke:#000000;stroke-width:1px;stroke-linecap:butt;stroke-linejoin:miter;stroke-opacity:1"
       d="M 784.17647,112.11765 V 347 H 771.76471 V 112.11765 Z"
       id="path1137" />
    <path
       style="fill:#d2d2d2;fill-opacity:1;stroke:#000000;stroke-width:1px;stroke-linecap:butt;stroke-linejoin:miter;stroke-opacity:1"
       d="m 867.35294,112.11765 h 12.35294 V 347 h -12.35294 z"
       id="path1139" />
    <path
       style="fill:#d2d2d2;fill-opacity:1;stroke:#000000;stroke-width:1px;stroke-linecap:butt;stroke-linejoin:miter;stroke-opacity:1"
       d="m 771.76471,347 h 107.94117 v 12.41176 H 771.76471 Z"
       id="path1141" />
    <path
       style="fill:#d2d2d2;fill-opacity:1;stroke:#000000;stroke-width:1px;stroke-linecap:butt;stroke-linejoin:miter;stroke-opacity:1"
       d="M 890.64706,359.41176 V 99.705882 H 879.70588 V 359.41176 Z"
       id="path1143" />
    <path
       style="fill:#d2d2d2;fill-opacity:1;stroke:#000000;stroke-width:1px;stroke-linecap:butt;stroke-linejoin:miter;stroke-opacity:1"
       d="M 1056.1765,99.705882 V 359.41176 h -10.8824 V 99.705882 Z"
       id="path1145" />
    <path
       style="fill:#d2d2d2;fill-opacity:1;stroke:#000000;stroke-width:1px;stroke-linecap:butt;stroke-linejoin:miter;stroke-opacity:1"
       d="m 890.64706,96.764706 h 154.64704 l -25.7647,25.764704 H 916.35294 Z"
       id="path1147" />
    <path
       style="fill:#d2d2d2;fill-opacity:1;stroke:#000000;stroke-width:1px;stroke-linecap:butt;stroke-linejoin:miter;stroke-opacity:1"
       d="M 890.64706,96.764706 V 362.35294 l 25.70588,-25.7647 V 122.52941 Z"
       id="path1149" />
    <path
       style="fill:#d2d2d2;fill-opacity:1;stroke:#000000;stroke-width:1px;stroke-linecap:butt;stroke-linejoin:miter;stroke-opacity:1"
       d="m 890.64706,362.35294 h 154.64704 l -25.7647,-25.7647 H 916.35294 Z"
       id="path1151" />
    <path
       style="fill:#d2d2d2;fill-opacity:1;stroke:#000000;stroke-width:1px;stroke-linecap:butt;stroke-linejoin:miter;stroke-opacity:1"
       d="M 1019.5294,336.58824 V 122.52941 l 25.7647,-25.764704 V 362.35294 Z"
       id="path1153" />
    <path
       style="fill:#d2d2d2;fill-opacity:1;stroke:#000000;stroke-width:1px;stroke-linecap:butt;stroke-linejoin:miter;stroke-opacity:1"
       d="M 916.35294,134.88235 H 1019.5294 V 122.52941 H 916.35294 Z"
       id="path1155" />
    <path
       style="fill:#d2d2d2;fill-opacity:1;stroke:#000000;stroke-width:1px;stroke-linecap:butt;stroke-linejoin:miter;stroke-opacity:1"
       d="M 928.76471,134.88235 V 324.23529 H 916.35294 V 134.88235 Z"
       id="path1157" />
    <path
       style="fill:#d2d2d2;fill-opacity:1;stroke:#000000;stroke-width:1px;stroke-linecap:butt;stroke-linejoin:miter;stroke-opacity:1"
       d="m 1007.1765,134.88235 -0.012,189.35294 h 12.3652 V 134.88235 Z"
       id="path1159" />
    <path
       style="fill:#d2d2d2;fill-opacity:1;stroke:#000000;stroke-width:1px;stroke-linecap:butt;stroke-linejoin:miter;stroke-opacity:1"
       d="m 916.35294,324.23529 h 103.17646 v 12.35295 H 916.35294 Z"
       id="path1161" />
    <path
       style="fill:#d2d2d2;fill-opacity:1;stroke:#000000;stroke-width:1px;stroke-linecap:butt;stroke-linejoin:miter;stroke-opacity:1"
       d="m 1056.1765,99.705882 v 12.411768 h 108.3529 V 99.705882 Z"
       id="path1169" />
    <path
       style="fill:#d2d2d2;fill-opacity:1;stroke:#000000;stroke-width:1px;stroke-linecap:butt;stroke-linejoin:miter;stroke-opacity:1"
       d="m 1056.1765,112.11765 h 12.4117 V 347 h -12.4117 z"
       id="path1171" />
    <path
       style="fill:#d2d2d2;fill-opacity:1;stroke:#000000;stroke-width:1px;stroke-linecap:butt;stroke-linejoin:miter;stroke-opacity:1"
       d="m 1152.1765,112.11765 h 12.3529 V 347 h -12.3529 z"
       id="path1173" />
    <path
       style="fill:#d2d2d2;fill-opacity:1;stroke:#000000;stroke-width:1px;stroke-linecap:butt;stroke-linejoin:miter;stroke-opacity:1"
       d="M 1056.1765,359.41176 V 347 h 108.3529 v 12.41176 z"
       id="path1175" />
  </g>
  <g
     transform="translate(-756.52476,-17.905281)"
     style="fill:#d2d2d2;fill-opacity:1"
     id="g1298">
    <path
       id="path1167"
       d="m 1049.2941,125.76471 h -4"
       style="fill:#d2d2d2;fill-opacity:1;stroke:#000000;stroke-width:1px;stroke-linecap:butt;stroke-linejoin:miter;stroke-opacity:1" />
    <path
       id="path1165"
       d="m 1045.2941,110.82353 h 4.0588"
       style="fill:#d2d2d2;fill-opacity:1;stroke:#000000;stroke-width:1px;stroke-linecap:butt;stroke-linejoin:miter;stroke-opacity:1" />
    <path
       id="path1163"
       d="m 1045.2941,96.764706 h 4.0588 v 45.588234 h -4.0588 z"
       style="fill:#d2d2d2;fill-opacity:1;stroke:#000000;stroke-width:1px;stroke-linecap:butt;stroke-linejoin:miter;stroke-opacity:1" />
    <path
       style="fill:#d2d2d2;fill-opacity:1;stroke:#000000;stroke-width:1px;stroke-linecap:butt;stroke-linejoin:miter;stroke-opacity:1"
       d="m 1045.2941,362.35294 h 4.0588 v -45.58823 h -4.0588 z"
       id="path1177" />
    <path
       style="fill:#d2d2d2;fill-opacity:1;stroke:#000000;stroke-width:1px;stroke-linecap:butt;stroke-linejoin:miter;stroke-opacity:1"
       d="m 1045.2941,348.29412 h 4.0588"
       id="path1179" />
    <path
       style="fill:#d2d2d2;fill-opacity:1;stroke:#000000;stroke-width:1px;stroke-linecap:butt;stroke-linejoin:miter;stroke-opacity:1"
       d="m 1045.2941,333.35294 h 4"
       id="path1181" />
  </g>
  <g
     transform="translate(-756.52476,-17.905281)"
     style="fill:none;fill-opacity:1;stroke:#00ff00;stroke-opacity:1"
     id="g1293">
    <path
       style="fill:none;fill-opacity:1;stroke:#00ff00;stroke-width:1px;stroke-linecap:butt;stroke-linejoin:miter;stroke-opacity:1"
       d="m 928.76471,324.23529 2,-9.7647"
       id="path1183" />
    <path
       style="fill:none;fill-opacity:1;stroke:#00ff00;stroke-width:1px;stroke-linecap:butt;stroke-linejoin:miter;stroke-opacity:1"
       d="m 932,308.41176 2.52941,-12.11764"
       id="path1185" />
    <path
       style="fill:none;fill-opacity:1;stroke:#00ff00;stroke-width:1px;stroke-linecap:butt;stroke-linejoin:miter;stroke-opacity:1"
       d="m 935.76471,290.23529 2.52941,-12.11764"
       id="path1187" />
    <path
       style="fill:none;fill-opacity:1;stroke:#00ff00;stroke-width:1px;stroke-linecap:butt;stroke-linejoin:miter;stroke-opacity:1"
       d="m 939.52941,272.05882 2.52941,-12.11764"
       id="path1189" />
    <path
       style="fill:none;fill-opacity:1;stroke:#00ff00;stroke-width:1px;stroke-linecap:butt;stroke-linejoin:miter;stroke-opacity:1"
       d="m 943.29412,253.88235 2.52941,-12.11764"
       id="path1191" />
    <path
       style="fill:none;fill-opacity:1;stroke:#00ff00;stroke-width:1px;stroke-linecap:butt;stroke-linejoin:miter;stroke-opacity:1"
       d="m 947.05882,235.70588 2.52942,-12.11764"
       id="path1193" />
    <path
       style="fill:none;fill-opacity:1;stroke:#00ff00;stroke-width:1px;stroke-linecap:butt;stroke-linejoin:miter;stroke-opacity:1"
       d="m 950.82353,217.52941 2.52941,-12.11765"
       id="path1195" />
    <path
       style="fill:none;fill-opacity:1;stroke:#00ff00;stroke-width:1px;stroke-linecap:butt;stroke-linejoin:miter;stroke-opacity:1"
       d="m 954.58824,199.35294 2.52941,-12.11765"
       id="path1197" />
    <path
       style="fill:none;fill-opacity:1;stroke:#00ff00;stroke-width:1px;stroke-linecap:butt;stroke-linejoin:miter;stroke-opacity:1"
       d="m 958.35294,181.17647 2.47059,-12.11765"
       id="path1199" />
    <path
       style="fill:none;fill-opacity:1;stroke:#00ff00;stroke-width:1px;stroke-linecap:butt;stroke-linejoin:miter;stroke-opacity:1"
       d="m 962.11765,163 2.47059,-12.11765"
       id="path1201" />
    <path
       style="fill:none;fill-opacity:1;stroke:#00ff00;stroke-width:1px;stroke-linecap:butt;stroke-linejoin:miter;stroke-opacity:1"
       d="m 965.88235,144.70588 2.05883,-9.82353 2,9.82353"
       id="path1203" />
    <path
       style="fill:none;fill-opacity:1;stroke:#00ff00;stroke-width:1px;stroke-linecap:butt;stroke-linejoin:miter;stroke-opacity:1"
       d="m 971.17647,150.76471 2.52941,12.11764"
       id="path1205" />
    <path
       style="fill:none;fill-opacity:1;stroke:#00ff00;stroke-width:1px;stroke-linecap:butt;stroke-linejoin:miter;stroke-opacity:1"
       d="m 974.94118,168.94118 2.52941,12.11764"
       id="path1207" />
    <path
       style="fill:none;fill-opacity:1;stroke:#00ff00;stroke-width:1px;stroke-linecap:butt;stroke-linejoin:miter;stroke-opacity:1"
       d="m 978.70588,187.11765 2.52941,12.11764"
       id="path1209" />
    <path
       style="fill:none;fill-opacity:1;stroke:#00ff00;stroke-width:1px;stroke-linecap:butt;stroke-linejoin:miter;stroke-opacity:1"
       d="M 982.47059,205.29412 985,217.41176"
       id="path1211" />
    <path
       style="fill:none;fill-opacity:1;stroke:#00ff00;stroke-width:1px;stroke-linecap:butt;stroke-linejoin:miter;stroke-opacity:1"
       d="m 986.23529,223.47059 2.52942,12.11765"
       id="path1213" />
    <path
       style="fill:none;fill-opacity:1;stroke:#00ff00;stroke-width:1px;stroke-linecap:butt;stroke-linejoin:miter;stroke-opacity:1"
       d="m 990,241.64706 2.52941,12.11765"
       id="path1215" />
    <path
       style="fill:none;fill-opacity:1;stroke:#00ff00;stroke-width:1px;stroke-linecap:butt;stroke-linejoin:miter;stroke-opacity:1"
       d="m 993.82353,259.82353 2.47059,12.11765"
       id="path1217" />
    <path
       style="fill:none;fill-opacity:1;stroke:#00ff00;stroke-width:1px;stroke-linecap:butt;stroke-linejoin:miter;stroke-opacity:1"
       d="m 997.58824,278 2.47056,12.11765"
       id="path1219" />
    <path
       style="fill:none;fill-opacity:1;stroke:#00ff00;stroke-width:1px;stroke-linecap:butt;stroke-linejoin:miter;stroke-opacity:1"
       d="m 1001.3529,296.17647 2.4706,12.11765"
       id="path1221" />
    <path
       style="fill:none;fill-opacity:1;stroke:#00ff00;stroke-width:1px;stroke-linecap:butt;stroke-linejoin:miter;stroke-opacity:1"
       d="m 1005.1176,314.35294 2.0589,9.88235 L 999.47059,315"
       id="path1223" />
    <path
       style="fill:none;fill-opacity:1;stroke:#00ff00;stroke-width:1px;stroke-linecap:butt;stroke-linejoin:miter;stroke-opacity:1"
       d="m 995.52941,310.23529 -7.88235,-9.52941"
       id="path1225" />
    <path
       style="fill:none;fill-opacity:1;stroke:#00ff00;stroke-width:1px;stroke-linecap:butt;stroke-linejoin:miter;stroke-opacity:1"
       d="m 983.70588,295.94118 -7.88235,-9.52942"
       id="path1227" />
    <path
       style="fill:none;fill-opacity:1;stroke:#00ff00;stroke-width:1px;stroke-linecap:butt;stroke-linejoin:miter;stroke-opacity:1"
       d="M 971.88235,281.64706 964,272.11765"
       id="path1229" />
    <path
       style="fill:none;fill-opacity:1;stroke:#00ff00;stroke-width:1px;stroke-linecap:butt;stroke-linejoin:miter;stroke-opacity:1"
       d="m 960,267.35294 -7.88235,-9.52941"
       id="path1231" />
    <path
       style="fill:none;fill-opacity:1;stroke:#00ff00;stroke-width:1px;stroke-linecap:butt;stroke-linejoin:miter;stroke-opacity:1"
       d="m 948.17647,253.05882 -7.88235,-9.52941"
       id="path1233" />
    <path
       style="fill:none;fill-opacity:1;stroke:#00ff00;stroke-width:1px;stroke-linecap:butt;stroke-linejoin:miter;stroke-opacity:1"
       d="m 936.35294,238.76471 -7.58823,-9.2353 7.58823,-9.17647"
       id="path1235" />
    <path
       style="fill:none;fill-opacity:1;stroke:#00ff00;stroke-width:1px;stroke-linecap:butt;stroke-linejoin:miter;stroke-opacity:1"
       d="m 940.29412,215.58824 7.88235,-9.52942"
       id="path1237" />
    <path
       style="fill:none;fill-opacity:1;stroke:#00ff00;stroke-width:1px;stroke-linecap:butt;stroke-linejoin:miter;stroke-opacity:1"
       d="m 952.17647,201.29412 7.88235,-9.52941"
       id="path1239" />
    <path
       style="fill:none;fill-opacity:1;stroke:#00ff00;stroke-width:1px;stroke-linecap:butt;stroke-linejoin:miter;stroke-opacity:1"
       d="m 964,187 7.88235,-9.52941"
       id="path1241" />
    <path
       style="fill:none;fill-opacity:1;stroke:#00ff00;stroke-width:1px;stroke-linecap:butt;stroke-linejoin:miter;stroke-opacity:1"
       d="m 975.73162,172.72794 8.03309,-9.55147"
       id="path1243" />
    <path
       style="fill:none;fill-opacity:1;stroke:#00ff00;stroke-width:1px;stroke-linecap:butt;stroke-linejoin:miter;stroke-opacity:1"
       d="m 987.70588,158.41176 7.88236,-9.52941"
       id="path1245" />
    <path
       style="fill:none;fill-opacity:1;stroke:#00ff00;stroke-width:1px;stroke-linecap:butt;stroke-linejoin:miter;stroke-opacity:1"
       d="m 999.52941,144.11765 7.64709,-9.2353"
       id="path1247" />
  </g>
  <g
     transform="translate(-756.52476,-17.905281)"
     style="fill:#d2d2d2;fill-opacity:1"
     id="g1258"
     inkscape:label="Ручка">
    <path
       style="fill:#d2d2d2;fill-opacity:1;stroke:#000000;stroke-width:1px;stroke-linecap:butt;stroke-linejoin:miter;stroke-opacity:1"
       d="m 893.11765,253.76471 c -10e-4,1.00784 0.81566,2.41176 1.82351,2.41176 12.17649,2e-5 0,0 12.17649,2e-5 0.83189,0 1.76372,-0.93282 1.7647,-1.76471 0.0588,-50.17649 0,0 0.0588,-50.17649 10e-4,-1.16463 -1.30593,-2.47056 -2.47056,-2.47056 -10.88235,-2e-5 3e-5,0 -10.88238,-0.0588 -1.01978,-0.006 -2.41058,0.86255 -2.41177,1.88234 -0.0588,50.17644 0,0 -0.0588,50.17644 z"
       id="path1253" />
    <path
       style="fill:#d2d2d2;fill-opacity:1;stroke:#000000;stroke-width:1px;stroke-linecap:butt;stroke-linejoin:miter;stroke-opacity:1"
       d="m 894.35294,223.41176 c 0,-0.3892 0.42253,-0.69689 0.76471,-0.88235 1.39207,-0.75449 3.52776,-0.64706 4.70588,-0.64706 2.35294,0 0,0 2.35294,0 1.58339,0 3.30015,-0.0817 4.70588,0.64706 0.35718,0.18516 0.82353,0.48003 0.82353,0.88235 0,11.29412 0,0 0,11.29412 0,0.58824 -0.98937,0.64943 -1.41176,1.05883 -0.45077,0.4369 -0.54871,1.47058 -1.17647,1.47058 -8.2353,0 0,0 -8.2353,0 -0.62776,0 -0.73021,-1.02907 -1.17647,-1.47058 -0.4071,-0.40277 -1.35294,-0.48616 -1.35294,-1.05883 0,-11.29412 0,0 0,-11.29412 z"
       id="path1249" />
    <path
       style="fill:#d2d2d2;fill-opacity:1;stroke:#000000;stroke-width:1px;stroke-linecap:butt;stroke-linejoin:miter;stroke-opacity:1"
       d="m 897.70588,224.58824 c 0.653,-0.3257 1.44675,-0.2353 2.17647,-0.2353 2.2353,0 0,0 2.2353,0 0.74921,0 1.5702,-0.10962 2.23529,0.2353 0.37006,0.19192 0.8264,0.52431 0.82353,0.94117 -0.41176,59.70588 0.0588,0 -0.41176,59.70588 -0.004,0.45774 -0.54228,0.93626 -1,0.94118 -5.47059,0.0588 0,0 -5.47059,0 -0.45775,0 -0.99639,-0.48344 -1,-0.94118 -0.47059,-59.70588 0,0 -0.47059,-59.70588 -0.003,-0.43002 0.49753,-0.74923 0.88235,-0.94117 z"
       id="path1251" />
  </g>
</svg>
