<?xml version="1.0" encoding="UTF-8" standalone="no"?>
<svg
   xmlns:dc="http://purl.org/dc/elements/1.1/"
   xmlns:cc="http://creativecommons.org/ns#"
   xmlns:rdf="http://www.w3.org/1999/02/22-rdf-syntax-ns#"
   xmlns:svg="http://www.w3.org/2000/svg"
   xmlns="http://www.w3.org/2000/svg"
   xmlns:sodipodi="http://sodipodi.sourceforge.net/DTD/sodipodi-0.dtd"
   xmlns:inkscape="http://www.inkscape.org/namespaces/inkscape"
   version="1.0"
   width="156mm"
   height="156mm"
   id="svg139"
   sodipodi:docname="window_type_6.svg"
   inkscape:version="1.0 (4035a4fb49, 2020-05-01)">
  <metadata
     id="metadata143">
    <rdf:RDF>
      <cc:Work
         rdf:about="">
        <dc:format>image/svg+xml</dc:format>
        <dc:type
           rdf:resource="http://purl.org/dc/dcmitype/StillImage" />
        <dc:title></dc:title>
      </cc:Work>
    </rdf:RDF>
  </metadata>
  <sodipodi:namedview
     inkscape:document-rotation="0"
     pagecolor="#ffffff"
     bordercolor="#666666"
     borderopacity="1"
     objecttolerance="10"
     gridtolerance="10"
     guidetolerance="10"
     inkscape:pageopacity="0"
     inkscape:pageshadow="2"
     inkscape:window-width="1920"
     inkscape:window-height="1017"
     id="namedview141"
     showgrid="false"
     inkscape:snap-intersection-paths="true"
     inkscape:zoom="0.9718721"
     inkscape:cx="160.18418"
     inkscape:cy="227.91014"
     inkscape:window-x="-8"
     inkscape:window-y="-8"
     inkscape:window-maximized="1"
     inkscape:current-layer="svg139" />
  <defs
     id="defs3" />
  <g
     transform="translate(-544.13956,-191.90273)"
     id="g1432"
     inkscape:label="Заполнения"
     style="fill:#d2ffff;fill-opacity:1;stroke:#000400;stroke-opacity:1">
    <rect
       y="344.88235"
       x="624.82355"
       height="283.64706"
       width="151.76471"
       id="rect1426"
       style="fill:#d2ffff;fill-opacity:1;stroke:#000400;stroke-width:1.00157;stroke-opacity:1" />
    <rect
       y="307.94119"
       x="876.11768"
       height="357.52939"
       width="213.82352"
       id="rect1428"
       style="fill:#d2ffff;fill-opacity:1;stroke:#000400;stroke-width:1.00157;stroke-opacity:1" />
  </g>
  <g
     transform="translate(-544.13956,-191.90273)"
     id="g1424"
     inkscape:label="Обозначение открывания"
     style="fill:none;stroke:#00ff00;stroke-opacity:1">
    <path
       id="path1385"
       d="m 624.82762,628.52942 17.2312,-16.11766"
       style="fill:none;stroke:#00ff00;stroke-width:1px;stroke-linecap:butt;stroke-linejoin:miter;stroke-opacity:1" />
    <path
       id="path1387"
       d="m 649.35294,605.58824 14.70588,-13.70589"
       style="fill:none;stroke:#00ff00;stroke-width:1px;stroke-linecap:butt;stroke-linejoin:miter;stroke-opacity:1" />
    <path
       id="path1389"
       d="m 671.35294,585 14.70588,-13.70588"
       style="fill:none;stroke:#00ff00;stroke-width:1px;stroke-linecap:butt;stroke-linejoin:miter;stroke-opacity:1" />
    <path
       id="path1391"
       d="m 693.35294,564.47059 14.70588,-13.70588"
       style="fill:none;stroke:#00ff00;stroke-width:1px;stroke-linecap:butt;stroke-linejoin:miter;stroke-opacity:1" />
    <path
       id="path1393"
       d="m 715.35294,543.88235 14.70588,-13.70588"
       style="fill:none;stroke:#00ff00;stroke-width:1px;stroke-linecap:butt;stroke-linejoin:miter;stroke-opacity:1" />
    <path
       id="path1395"
       d="m 737.41176,523.35294 14.64706,-13.70588"
       style="fill:none;stroke:#00ff00;stroke-width:1px;stroke-linecap:butt;stroke-linejoin:miter;stroke-opacity:1" />
    <path
       id="path1397"
       d="m 759.41176,502.76471 17.17648,-16.05883 -17.29412,-16.11764"
       style="fill:none;stroke:#00ff00;stroke-width:1px;stroke-linecap:butt;stroke-linejoin:miter;stroke-opacity:1" />
    <path
       id="path1399"
       d="M 752,463.76471 737.29412,450.05882"
       style="fill:none;stroke:#00ff00;stroke-width:1px;stroke-linecap:butt;stroke-linejoin:miter;stroke-opacity:1" />
    <path
       id="path1401"
       d="M 730,443.17647 715.29412,429.47059"
       style="fill:none;stroke:#00ff00;stroke-width:1px;stroke-linecap:butt;stroke-linejoin:miter;stroke-opacity:1" />
    <path
       id="path1403"
       d="m 708,422.64706 v 0 l -14.70588,-13.70588"
       style="fill:none;stroke:#00ff00;stroke-width:1px;stroke-linecap:butt;stroke-linejoin:miter;stroke-opacity:1" />
    <path
       id="path1405"
       d="M 686,402.05882 671.29412,388.35294"
       style="fill:none;stroke:#00ff00;stroke-width:1px;stroke-linecap:butt;stroke-linejoin:miter;stroke-opacity:1" />
    <path
       id="path1407"
       d="M 663.94118,381.52941 649.29412,367.82353"
       style="fill:none;stroke:#00ff00;stroke-width:1px;stroke-linecap:butt;stroke-linejoin:miter;stroke-opacity:1" />
    <path
       id="path1409"
       d="M 641.94118,360.94118 624.82353,344.88235"
       style="fill:none;stroke:#00ff00;stroke-width:1px;stroke-linecap:butt;stroke-linejoin:miter;stroke-opacity:1" />
  </g>
  <g
     transform="translate(-544.13956,-191.90273)"
     id="g1363"
     inkscape:label="Профили"
     style="fill:#d2d2d2;fill-opacity:1;stroke:#000000;stroke-opacity:1">
    <path
       id="path1312"
       d="M 545.35294,265.35294 H 1132.5294 L 1110,287.82353 H 567.80131 Z"
       style="fill:#d2d2d2;fill-opacity:1;stroke:#000000;stroke-width:1px;stroke-linecap:butt;stroke-linejoin:miter;stroke-opacity:1" />
    <path
       id="path1314"
       d="m 1110,287.82353 v 397.76471 l 22.5294,22.47058 V 265.35294 Z"
       style="fill:#d2d2d2;fill-opacity:1;stroke:#000000;stroke-width:1px;stroke-linecap:butt;stroke-linejoin:miter;stroke-opacity:1" />
    <path
       id="path1316"
       d="M 1110,685.58824 H 567.8013 l -22.44836,22.47058 h 587.17646 z"
       style="fill:#d2d2d2;fill-opacity:1;stroke:#000000;stroke-width:1px;stroke-linecap:butt;stroke-linejoin:miter;stroke-opacity:1" />
    <path
       id="path1318"
       d="m 567.8013,685.58824 10e-6,-397.76471 -22.44837,-22.47059 v 442.70588 z"
       style="fill:#d2d2d2;fill-opacity:1;stroke:#000000;stroke-width:1px;stroke-linecap:butt;stroke-linejoin:miter;stroke-opacity:1" />
    <rect
       y="287.82352"
       x="838.41174"
       height="397.76471"
       width="17.64706"
       id="rect1320"
       style="fill:#d2d2d2;fill-opacity:1;stroke:#000000;stroke-width:1.00157;stroke-opacity:1" />
    <rect
       y="287.82352"
       x="856.05884"
       height="20.117649"
       width="253.94118"
       id="rect1322"
       style="fill:#d2d2d2;fill-opacity:1;stroke:#000000;stroke-width:1.00157;stroke-opacity:1" />
    <rect
       y="665.47058"
       x="856.05884"
       height="20.117649"
       width="253.94118"
       id="rect1324"
       style="fill:#d2d2d2;fill-opacity:1;stroke:#000000;stroke-width:1.00157;stroke-opacity:1" />
    <rect
       y="307.94119"
       x="856.05884"
       height="357.52939"
       width="20.05883"
       id="rect1326"
       style="fill:#d2d2d2;fill-opacity:1;stroke:#000000;stroke-width:1.00157;stroke-opacity:1" />
    <rect
       y="307.94119"
       x="1089.9412"
       height="357.52942"
       width="20.0588"
       id="rect1328"
       style="fill:#d2d2d2;fill-opacity:1;stroke:#000000;stroke-width:1.00157;stroke-opacity:1" />
    <rect
       y="324.82352"
       x="604.76471"
       height="20.058821"
       width="191.88235"
       id="rect1330"
       style="fill:#d2d2d2;fill-opacity:1;stroke:#000000;stroke-width:1.00157;stroke-opacity:1" />
    <rect
       y="344.88232"
       x="604.76471"
       height="283.64706"
       width="20.058821"
       id="rect1332"
       style="fill:#d2d2d2;fill-opacity:1;stroke:#000000;stroke-width:1.00157;stroke-opacity:1" />
    <rect
       y="344.88235"
       x="776.58826"
       height="283.64706"
       width="20.058821"
       id="rect1334"
       style="fill:#d2d2d2;fill-opacity:1;stroke:#000000;stroke-width:1.00157;stroke-opacity:1" />
    <rect
       y="628.52942"
       x="604.76471"
       height="20.058851"
       width="191.88235"
       id="rect1336"
       style="fill:#d2d2d2;fill-opacity:1;stroke:#000000;stroke-width:1.00157;stroke-opacity:1" />
    <path
       id="path1338"
       d="M 796.64706,324.82353 838.41176,283 H 563 l 41.76471,41.82352 z"
       style="fill:#d2d2d2;fill-opacity:1;stroke:#000000;stroke-width:1px;stroke-linecap:butt;stroke-linejoin:miter;stroke-opacity:1" />
    <path
       id="path1340"
       d="m 838.41176,283 v 407.41176 l -41.7647,-41.82352 3e-5,-323.76472 z"
       style="fill:#d2d2d2;fill-opacity:1;stroke:#000000;stroke-width:1px;stroke-linecap:butt;stroke-linejoin:miter;stroke-opacity:1" />
    <path
       id="path1342"
       d="M 796.64706,648.58824 H 604.76471 L 563,690.41176 h 275.41176 z"
       style="fill:#d2d2d2;fill-opacity:1;stroke:#000000;stroke-width:1px;stroke-linecap:butt;stroke-linejoin:miter;stroke-opacity:1" />
    <path
       id="path1344"
       d="M 604.76471,648.58824 V 324.82352 L 563,283 v 407.41176 z"
       style="fill:#d2d2d2;fill-opacity:1;stroke:#000000;stroke-width:1px;stroke-linecap:butt;stroke-linejoin:miter;stroke-opacity:1" />
  </g>
  <g
     transform="translate(-544.13956,-191.90273)"
     id="g1383"
     inkscape:label="Петли"
     style="fill:#d2d2d2;fill-opacity:1;stroke:#000000;stroke-opacity:1">
    <rect
       y="283"
       x="556.35297"
       height="22.82353"
       width="6.6470599"
       id="rect1365"
       style="fill:#d2d2d2;fill-opacity:1;stroke:#000000;stroke-width:1.00157;stroke-opacity:1" />
    <rect
       y="305.82352"
       x="556.35297"
       height="24.294121"
       width="6.6470337"
       id="rect1367"
       style="fill:#d2d2d2;fill-opacity:1;stroke:#000000;stroke-width:1.00157;stroke-opacity:1" />
    <rect
       y="330.11765"
       x="556.35297"
       height="26.823534"
       width="6.6470337"
       id="rect1369"
       style="fill:#d2d2d2;fill-opacity:1;stroke:#000000;stroke-width:1.00157;stroke-opacity:1" />
    <rect
       y="616.47058"
       x="556.35297"
       height="26.82353"
       width="6.6470599"
       id="rect1371"
       style="fill:#d2d2d2;fill-opacity:1;stroke:#000000;stroke-width:1.00157;stroke-opacity:1" />
    <rect
       y="643.29413"
       x="556.35297"
       height="24.294111"
       width="6.6470337"
       id="rect1373"
       style="fill:#d2d2d2;fill-opacity:1;stroke:#000000;stroke-width:1.00157;stroke-opacity:1" />
    <rect
       y="667.58826"
       x="556.35297"
       height="22.823521"
       width="6.6470599"
       id="rect1375"
       style="fill:#d2d2d2;fill-opacity:1;stroke:#000000;stroke-width:1.00157;stroke-opacity:1" />
  </g>
  <g
     style="fill:#d2d2d2;fill-opacity:1;stroke:#000000;stroke-opacity:1"
     id="g1258"
     inkscape:label="Ручка"
     transform="matrix(1.619869,0,0,1.6214434,-1182.1522,-80.78097)">
    <path
       style="fill:#d2d2d2;fill-opacity:1;stroke:#000000;stroke-width:1px;stroke-linecap:butt;stroke-linejoin:miter;stroke-opacity:1"
       d="m 893.11765,253.76471 c -10e-4,1.00784 0.81566,2.41176 1.82351,2.41176 12.17649,2e-5 0,0 12.17649,2e-5 0.83189,0 1.76372,-0.93282 1.7647,-1.76471 0.0588,-50.17649 0,0 0.0588,-50.17649 10e-4,-1.16463 -1.30593,-2.47056 -2.47056,-2.47056 -10.88235,-2e-5 3e-5,0 -10.88238,-0.0588 -1.01978,-0.006 -2.41058,0.86255 -2.41177,1.88234 -0.0588,50.17644 0,0 -0.0588,50.17644 z"
       id="path1253" />
    <path
       style="fill:#d2d2d2;fill-opacity:1;stroke:#000000;stroke-width:1px;stroke-linecap:butt;stroke-linejoin:miter;stroke-opacity:1"
       d="m 894.35294,223.41176 c 0,-0.3892 0.42253,-0.69689 0.76471,-0.88235 1.39207,-0.75449 3.52776,-0.64706 4.70588,-0.64706 2.35294,0 0,0 2.35294,0 1.58339,0 3.30015,-0.0817 4.70588,0.64706 0.35718,0.18516 0.82353,0.48003 0.82353,0.88235 0,11.29412 0,0 0,11.29412 0,0.58824 -0.98937,0.64943 -1.41176,1.05883 -0.45077,0.4369 -0.54871,1.47058 -1.17647,1.47058 -8.2353,0 0,0 -8.2353,0 -0.62776,0 -0.73021,-1.02907 -1.17647,-1.47058 -0.4071,-0.40277 -1.35294,-0.48616 -1.35294,-1.05883 0,-11.29412 0,0 0,-11.29412 z"
       id="path1249" />
    <path
       style="fill:#d2d2d2;fill-opacity:1;stroke:#000000;stroke-width:1px;stroke-linecap:butt;stroke-linejoin:miter;stroke-opacity:1"
       d="m 897.70588,224.58824 c 0.653,-0.3257 1.44675,-0.2353 2.17647,-0.2353 2.2353,0 0,0 2.2353,0 0.74921,0 1.5702,-0.10962 2.23529,0.2353 0.37006,0.19192 0.8264,0.52431 0.82353,0.94117 -0.41176,59.70588 0.0588,0 -0.41176,59.70588 -0.004,0.45774 -0.54228,0.93626 -1,0.94118 -5.47059,0.0588 0,0 -5.47059,0 -0.45775,0 -0.99639,-0.48344 -1,-0.94118 -0.47059,-59.70588 0,0 -0.47059,-59.70588 -0.003,-0.43002 0.49753,-0.74923 0.88235,-0.94117 z"
       id="path1251" />
  </g>
</svg>
