<?xml version="1.0" encoding="UTF-8" standalone="no"?>
<svg
   xmlns:dc="http://purl.org/dc/elements/1.1/"
   xmlns:cc="http://creativecommons.org/ns#"
   xmlns:rdf="http://www.w3.org/1999/02/22-rdf-syntax-ns#"
   xmlns:svg="http://www.w3.org/2000/svg"
   xmlns="http://www.w3.org/2000/svg"
   xmlns:sodipodi="http://sodipodi.sourceforge.net/DTD/sodipodi-0.dtd"
   xmlns:inkscape="http://www.inkscape.org/namespaces/inkscape"
   version="1.0"
   width="73mm"
   height="73mm"
   id="svg161"
   sodipodi:docname="window_type_3.svg"
   inkscape:version="1.0 (4035a4fb49, 2020-05-01)">
  <metadata
     id="metadata165">
    <rdf:RDF>
      <cc:Work
         rdf:about="">
        <dc:format>image/svg+xml</dc:format>
        <dc:type
           rdf:resource="http://purl.org/dc/dcmitype/StillImage" />
        <dc:title></dc:title>
      </cc:Work>
    </rdf:RDF>
  </metadata>
  <sodipodi:namedview
     inkscape:document-rotation="0"
     pagecolor="#ffffff"
     bordercolor="#666666"
     borderopacity="1"
     objecttolerance="10"
     gridtolerance="10"
     guidetolerance="10"
     inkscape:pageopacity="0"
     inkscape:pageshadow="2"
     inkscape:window-width="1920"
     inkscape:window-height="1017"
     id="namedview163"
     showgrid="false"
     inkscape:zoom="1.9437442"
     inkscape:cx="12.245748"
     inkscape:cy="113.50484"
     inkscape:window-x="-8"
     inkscape:window-y="-8"
     inkscape:window-maximized="1"
     inkscape:current-layer="svg161" />
  <defs
     id="defs3" />
  <rect
     style="fill:#d2ffff;fill-opacity:1;stroke:#000000;stroke-width:1.00157;stroke-opacity:1"
     id="rect1235"
     width="93.882301"
     height="173.70587"
     x="91.043297"
     y="51.129234"
     inkscape:label="Заполнение" />
  <g
     transform="translate(-765.83909,-117.34136)"
     id="g1233"
     inkscape:label="Обозначение открывания"
     style="fill:none;stroke:#00ff00;stroke-opacity:1">
    <path
       id="path1140"
       d="m 856.88235,342.11765 2.88236,-10.76471"
       style="fill:none;stroke:#00ff00;stroke-width:1px;stroke-linecap:butt;stroke-linejoin:miter;stroke-opacity:1" />
    <path
       id="path1142"
       d="m 861.41176,325.29412 3.29412,-12.17647"
       style="fill:none;stroke:#00ff00;stroke-width:1px;stroke-linecap:butt;stroke-linejoin:miter;stroke-opacity:1" />
    <path
       id="path1144"
       d="m 940.76471,332.88235 9.99998,9.29412 -2.99998,-10.94118"
       style="fill:none;stroke:#00ff00;stroke-width:1px;stroke-linecap:butt;stroke-linejoin:miter;stroke-opacity:1" />
    <path
       id="path1146"
       d="M 946.11765,325.17647 942.88235,313"
       style="fill:none;stroke:#00ff00;stroke-width:1px;stroke-linecap:butt;stroke-linejoin:miter;stroke-opacity:1" />
    <path
       id="path1148"
       d="m 941.23529,306.94118 -3.29411,-12.17647"
       style="fill:none;stroke:#00ff00;stroke-width:1px;stroke-linecap:butt;stroke-linejoin:miter;stroke-opacity:1" />
    <path
       id="path1150"
       d="M 936.29412,288.70588 933,276.52941"
       style="fill:none;stroke:#00ff00;stroke-width:1px;stroke-linecap:butt;stroke-linejoin:miter;stroke-opacity:1" />
    <path
       id="path1152"
       d="m 931.35294,270.47059 -3.29412,-12.17647"
       style="fill:none;stroke:#00ff00;stroke-width:1px;stroke-linecap:butt;stroke-linejoin:miter;stroke-opacity:1" />
    <path
       id="path1154"
       d="m 926.41176,252.23529 -3.29411,-12.17647"
       style="fill:none;stroke:#00ff00;stroke-width:1px;stroke-linecap:butt;stroke-linejoin:miter;stroke-opacity:1" />
    <path
       id="path1156"
       d="m 921.47059,234 -3.2353,-12.17647"
       style="fill:none;stroke:#00ff00;stroke-width:1px;stroke-linecap:butt;stroke-linejoin:miter;stroke-opacity:1" />
    <path
       id="path1158"
       d="m 916.58824,215.76471 -3.29412,-12.17647"
       style="fill:none;stroke:#00ff00;stroke-width:1px;stroke-linecap:butt;stroke-linejoin:miter;stroke-opacity:1" />
    <path
       id="path1160"
       d="m 936.11765,328.64706 -9.2353,-8.58824"
       style="fill:none;stroke:#00ff00;stroke-width:1px;stroke-linecap:butt;stroke-linejoin:miter;stroke-opacity:1" />
    <path
       id="path1162"
       d="M 922.23529,315.82353 913,307.23529"
       style="fill:none;stroke:#00ff00;stroke-width:1px;stroke-linecap:butt;stroke-linejoin:miter;stroke-opacity:1" />
    <path
       id="path1164"
       d="m 908.41176,303 -9.29411,-8.58824"
       style="fill:none;stroke:#00ff00;stroke-width:1px;stroke-linecap:butt;stroke-linejoin:miter;stroke-opacity:1" />
    <path
       id="path1166"
       d="m 894.52941,290.17647 -9.23529,-8.58823"
       style="fill:none;stroke:#00ff00;stroke-width:1px;stroke-linecap:butt;stroke-linejoin:miter;stroke-opacity:1" />
    <path
       id="path1168"
       d="m 880.64706,277.35294 -9.2353,-8.58823"
       style="fill:none;stroke:#00ff00;stroke-width:1px;stroke-linecap:butt;stroke-linejoin:miter;stroke-opacity:1" />
    <path
       id="path1170"
       d="m 866.76471,264.52941 -9.94116,-9.1765 9.99998,-9.29409"
       style="fill:none;stroke:#00ff00;stroke-width:1px;stroke-linecap:butt;stroke-linejoin:miter;stroke-opacity:1" />
    <path
       id="path1172"
       d="m 871.47059,241.82353 9.23529,-8.58824"
       style="fill:none;stroke:#00ff00;stroke-width:1px;stroke-linecap:butt;stroke-linejoin:miter;stroke-opacity:1" />
    <path
       id="path1174"
       d="m 885.35294,229 9.2353,-8.58824"
       style="fill:none;stroke:#00ff00;stroke-width:1px;stroke-linecap:butt;stroke-linejoin:miter;stroke-opacity:1" />
    <path
       id="path1176"
       d="m 899.17647,216.17647 9.29412,-8.58823"
       style="fill:none;stroke:#00ff00;stroke-width:1px;stroke-linecap:butt;stroke-linejoin:miter;stroke-opacity:1" />
    <path
       id="path1178"
       d="m 866.35294,307.05882 3.29412,-12.17647"
       style="fill:none;stroke:#00ff00;stroke-width:1px;stroke-linecap:butt;stroke-linejoin:miter;stroke-opacity:1" />
    <path
       id="path1180"
       d="m 871.29412,288.82353 3.23529,-12.17647"
       style="fill:none;stroke:#00ff00;stroke-width:1px;stroke-linecap:butt;stroke-linejoin:miter;stroke-opacity:1" />
    <path
       id="path1182"
       d="m 876.17647,270.58824 3.29412,-12.17648"
       style="fill:none;stroke:#00ff00;stroke-width:1px;stroke-linecap:butt;stroke-linejoin:miter;stroke-opacity:1" />
    <path
       id="path1184"
       d="m 881.11765,252.35294 3.29411,-12.17647"
       style="fill:none;stroke:#00ff00;stroke-width:1px;stroke-linecap:butt;stroke-linejoin:miter;stroke-opacity:1" />
    <path
       id="path1186"
       d="m 886.05882,234.11765 3.29412,-12.17647"
       style="fill:none;stroke:#00ff00;stroke-width:1px;stroke-linecap:butt;stroke-linejoin:miter;stroke-opacity:1" />
    <path
       id="path1188"
       d="m 891,215.88235 3.29412,-12.17647"
       style="fill:none;stroke:#00ff00;stroke-width:1px;stroke-linecap:butt;stroke-linejoin:miter;stroke-opacity:1" />
    <path
       id="path1190"
       d="m 895.94118,197.64706 3.23529,-12.17647"
       style="fill:none;stroke:#00ff00;stroke-width:1px;stroke-linecap:butt;stroke-linejoin:miter;stroke-opacity:1" />
    <path
       id="path1192"
       d="m 900.88233,179.29412 2.94118,-10.82353 2.88235,10.82353"
       style="fill:none;stroke:#00ff00;stroke-width:1px;stroke-linecap:butt;stroke-linejoin:miter;stroke-opacity:1" />
    <path
       id="path1194"
       d="m 908.35294,185.35294 3.29412,12.17647"
       style="fill:none;stroke:#00ff00;stroke-width:1px;stroke-linecap:butt;stroke-linejoin:miter;stroke-opacity:1" />
    <path
       id="path1196"
       d="m 913.05882,203.35294 9.2353,-8.58823"
       style="fill:none;stroke:#00ff00;stroke-width:1px;stroke-linecap:butt;stroke-linejoin:miter;stroke-opacity:1" />
    <path
       id="path1198"
       d="m 926.94118,190.52941 9.23529,-8.58823"
       style="fill:none;stroke:#00ff00;stroke-width:1px;stroke-linecap:butt;stroke-linejoin:miter;stroke-opacity:1" />
    <path
       id="path1200"
       d="m 940.82353,177.70588 9.94118,-9.23528"
       style="fill:none;stroke:#00ff00;stroke-width:1px;stroke-linecap:butt;stroke-linejoin:miter;stroke-opacity:1" />
  </g>
  <g
     transform="translate(-765.83909,-117.34136)"
     id="g1118"
     inkscape:label="Профили"
     style="fill:#d2d2d2;fill-opacity:1;stroke:#000000;stroke-opacity:1">
    <path
       id="path1082"
       d="m 807,118.58824 h 193.5882 l -11.05879,11.11764 H 818.11765 Z"
       style="fill:#d2d2d2;fill-opacity:1;stroke:#000000;stroke-width:1px;stroke-linecap:butt;stroke-linejoin:miter;stroke-opacity:1" />
    <path
       id="path1084"
       d="M 807,118.58824 V 392 l 11.11765,-11.11765 V 129.70588 Z"
       style="fill:#d2d2d2;fill-opacity:1;stroke:#000000;stroke-width:1px;stroke-linecap:butt;stroke-linejoin:miter;stroke-opacity:1" />
    <path
       id="path1086"
       d="m 807,392 h 193.5882 L 989.52941,380.88235 H 818.11765 Z"
       style="fill:#d2d2d2;fill-opacity:1;stroke:#000000;stroke-width:1px;stroke-linecap:butt;stroke-linejoin:miter;stroke-opacity:1" />
    <path
       id="path1088"
       d="M 1000.5882,392 V 118.58824 l -11.05879,11.11764 v 251.17647 z"
       style="fill:#d2d2d2;fill-opacity:1;stroke:#000000;stroke-width:1px;stroke-linecap:butt;stroke-linejoin:miter;stroke-opacity:1" />
    <path
       id="path1090"
       d="m 844.29412,354.70588 -26.17647,26.17647 h 171.41176 l -26.17647,-26.17647 z"
       style="fill:#d2d2d2;fill-opacity:1;stroke:#000000;stroke-width:1px;stroke-linecap:butt;stroke-linejoin:miter;stroke-opacity:1" />
    <path
       id="path1092"
       d="M 844.29412,354.70588 V 155.88235 l -26.17647,-26.17647 v 251.17647 z"
       style="fill:#d2d2d2;fill-opacity:1;stroke:#000000;stroke-width:1px;stroke-linecap:butt;stroke-linejoin:miter;stroke-opacity:1" />
    <path
       id="path1094"
       d="M 963.35294,354.70588 V 155.88235 l 26.17647,-26.17647 v 251.17647 z"
       style="fill:#d2d2d2;fill-opacity:1;stroke:#000000;stroke-width:1px;stroke-linecap:butt;stroke-linejoin:miter;stroke-opacity:1" />
    <path
       id="path1096"
       d="m 818.11765,129.70588 h 171.41176 l -26.17647,26.17647 H 844.29412 Z"
       style="fill:#d2d2d2;fill-opacity:1;stroke:#000000;stroke-width:1px;stroke-linecap:butt;stroke-linejoin:miter;stroke-opacity:1" />
    <rect
       y="155.88235"
       x="844.29413"
       height="12.58824"
       width="119.05882"
       id="rect1098"
       style="fill:#d2d2d2;fill-opacity:1;stroke:#000000;stroke-width:1.00157;stroke-opacity:1" />
    <rect
       y="168.4706"
       x="844.29413"
       height="173.64706"
       width="12.58823"
       id="rect1100"
       style="fill:#d2d2d2;fill-opacity:1;stroke:#000000;stroke-width:1.00157;stroke-opacity:1" />
    <rect
       y="168.4706"
       x="950.76471"
       height="173.64706"
       width="12.58823"
       id="rect1102"
       style="fill:#d2d2d2;fill-opacity:1;stroke:#000000;stroke-width:1.00157;stroke-opacity:1" />
    <rect
       y="342.11765"
       x="844.29413"
       height="12.58823"
       width="119.05882"
       id="rect1104"
       style="fill:#d2d2d2;fill-opacity:1;stroke:#000000;stroke-width:1.00157;stroke-opacity:1" />
  </g>
  <g
     transform="translate(-765.83909,-117.34136)"
     id="g1138"
     inkscape:label="Петли"
     style="fill:#d2d2d2;fill-opacity:1;stroke:#000000;stroke-opacity:1">
    <rect
       y="129.70589"
       x="989.52942"
       height="14.29412"
       width="4.1764698"
       id="rect1120"
       style="fill:#d2d2d2;fill-opacity:1;stroke:#000000;stroke-width:1.00157;stroke-opacity:1" />
    <rect
       y="144"
       x="989.52942"
       height="15.23529"
       width="4.0588212"
       id="rect1122"
       style="fill:#d2d2d2;fill-opacity:1;stroke:#000000;stroke-width:1.00157;stroke-opacity:1" />
    <rect
       y="159.23529"
       x="989.52942"
       height="16.82353"
       width="4.1764612"
       id="rect1124"
       style="fill:#d2d2d2;fill-opacity:1;stroke:#000000;stroke-width:1.00157;stroke-opacity:1" />
    <rect
       y="334.52942"
       x="989.52942"
       height="16.82353"
       width="4.0588298"
       id="rect1126"
       style="fill:#d2d2d2;fill-opacity:1;stroke:#000000;stroke-width:1.00157;stroke-opacity:1" />
    <rect
       y="351.35294"
       x="989.52942"
       height="15.2353"
       width="4.1764698"
       id="rect1128"
       style="fill:#d2d2d2;fill-opacity:1;stroke:#000000;stroke-width:1.00157;stroke-opacity:1" />
    <rect
       y="366.58823"
       x="989.52942"
       height="14.29411"
       width="4.1764698"
       id="rect1130"
       style="fill:#d2d2d2;fill-opacity:1;stroke:#000000;stroke-width:1.00157;stroke-opacity:1" />
  </g>
  <g
     style="fill:#d2d2d2;fill-opacity:1;stroke:#000000;stroke-opacity:1"
     id="g1258"
     inkscape:label="Ручка"
     transform="translate(-838.25085,-91.282542)">
    <path
       style="fill:#d2d2d2;fill-opacity:1;stroke:#000000;stroke-width:1px;stroke-linecap:butt;stroke-linejoin:miter;stroke-opacity:1"
       d="m 893.11765,253.76471 c -10e-4,1.00784 0.81566,2.41176 1.82351,2.41176 12.17649,2e-5 0,0 12.17649,2e-5 0.83189,0 1.76372,-0.93282 1.7647,-1.76471 0.0588,-50.17649 0,0 0.0588,-50.17649 10e-4,-1.16463 -1.30593,-2.47056 -2.47056,-2.47056 -10.88235,-2e-5 3e-5,0 -10.88238,-0.0588 -1.01978,-0.006 -2.41058,0.86255 -2.41177,1.88234 -0.0588,50.17644 0,0 -0.0588,50.17644 z"
       id="path1253" />
    <path
       style="fill:#d2d2d2;fill-opacity:1;stroke:#000000;stroke-width:1px;stroke-linecap:butt;stroke-linejoin:miter;stroke-opacity:1"
       d="m 894.35294,223.41176 c 0,-0.3892 0.42253,-0.69689 0.76471,-0.88235 1.39207,-0.75449 3.52776,-0.64706 4.70588,-0.64706 2.35294,0 0,0 2.35294,0 1.58339,0 3.30015,-0.0817 4.70588,0.64706 0.35718,0.18516 0.82353,0.48003 0.82353,0.88235 0,11.29412 0,0 0,11.29412 0,0.58824 -0.98937,0.64943 -1.41176,1.05883 -0.45077,0.4369 -0.54871,1.47058 -1.17647,1.47058 -8.2353,0 0,0 -8.2353,0 -0.62776,0 -0.73021,-1.02907 -1.17647,-1.47058 -0.4071,-0.40277 -1.35294,-0.48616 -1.35294,-1.05883 0,-11.29412 0,0 0,-11.29412 z"
       id="path1249" />
    <path
       style="fill:#d2d2d2;fill-opacity:1;stroke:#000000;stroke-width:1px;stroke-linecap:butt;stroke-linejoin:miter;stroke-opacity:1"
       d="m 897.70588,224.58824 c 0.653,-0.3257 1.44675,-0.2353 2.17647,-0.2353 2.2353,0 0,0 2.2353,0 0.74921,0 1.5702,-0.10962 2.23529,0.2353 0.37006,0.19192 0.8264,0.52431 0.82353,0.94117 -0.41176,59.70588 0.0588,0 -0.41176,59.70588 -0.004,0.45774 -0.54228,0.93626 -1,0.94118 -5.47059,0.0588 0,0 -5.47059,0 -0.45775,0 -0.99639,-0.48344 -1,-0.94118 -0.47059,-59.70588 0,0 -0.47059,-59.70588 -0.003,-0.43002 0.49753,-0.74923 0.88235,-0.94117 z"
       id="path1251" />
  </g>
</svg>
