<?xml version="1.0" encoding="UTF-8" standalone="no"?>
<svg
   xmlns:dc="http://purl.org/dc/elements/1.1/"
   xmlns:cc="http://creativecommons.org/ns#"
   xmlns:rdf="http://www.w3.org/1999/02/22-rdf-syntax-ns#"
   xmlns:svg="http://www.w3.org/2000/svg"
   xmlns="http://www.w3.org/2000/svg"
   xmlns:sodipodi="http://sodipodi.sourceforge.net/DTD/sodipodi-0.dtd"
   xmlns:inkscape="http://www.inkscape.org/namespaces/inkscape"
   version="1.0"
   width="116mm"
   height="116mm"
   id="svg121"
   sodipodi:docname="window_type_4.svg"
   inkscape:version="1.0 (4035a4fb49, 2020-05-01)">
  <metadata
     id="metadata125">
    <rdf:RDF>
      <cc:Work
         rdf:about="">
        <dc:format>image/svg+xml</dc:format>
        <dc:type
           rdf:resource="http://purl.org/dc/dcmitype/StillImage" />
        <dc:title></dc:title>
      </cc:Work>
    </rdf:RDF>
  </metadata>
  <sodipodi:namedview
     inkscape:document-rotation="0"
     pagecolor="#ffffff"
     bordercolor="#666666"
     borderopacity="1"
     objecttolerance="10"
     gridtolerance="10"
     guidetolerance="10"
     inkscape:pageopacity="0"
     inkscape:pageshadow="2"
     inkscape:window-width="1920"
     inkscape:window-height="1017"
     id="namedview123"
     showgrid="false"
     inkscape:snap-intersection-paths="true"
     inkscape:zoom="0.68721735"
     inkscape:cx="47.070223"
     inkscape:cy="365.27137"
     inkscape:window-x="-8"
     inkscape:window-y="-8"
     inkscape:window-maximized="1"
     inkscape:current-layer="svg121" />
  <defs
     id="defs3" />
  <rect
     style="fill:#d2ffff;fill-opacity:1;stroke:#000000;stroke-width:1.00157;stroke-opacity:1"
     id="rect1000"
     width="276.534"
     height="149.76472"
     x="80.918472"
     y="144.33167"
     inkscape:label="Заполнение" />
  <g
     transform="translate(-727.25798,-184.19775)"
     id="g1041"
     inkscape:label="Обозначение открывания"
     style="fill:none;stroke:#00ff00;stroke-opacity:1">
    <path
       id="path1002"
       d="m 808.17645,478.29414 14.58826,-15.82355"
       style="fill:none;stroke:#00ff00;stroke-width:1px;stroke-linecap:butt;stroke-linejoin:miter;stroke-opacity:1" />
    <path
       id="path1004"
       d="m 829.58824,455.11765 13.64705,-14.76471"
       style="fill:none;stroke:#00ff00;stroke-width:1px;stroke-linecap:butt;stroke-linejoin:miter;stroke-opacity:1" />
    <path
       id="path1006"
       d="m 850,433 13.64706,-14.76471"
       style="fill:none;stroke:#00ff00;stroke-width:1px;stroke-linecap:butt;stroke-linejoin:miter;stroke-opacity:1" />
    <path
       id="path1008"
       d="m 870.47059,410.82353 13.58823,-14.70588"
       style="fill:none;stroke:#00ff00;stroke-width:1px;stroke-linecap:butt;stroke-linejoin:miter;stroke-opacity:1" />
    <path
       id="path1010"
       d="M 890.88235,388.70588 904.52941,374"
       style="fill:none;stroke:#00ff00;stroke-width:1px;stroke-linecap:butt;stroke-linejoin:miter;stroke-opacity:1" />
    <path
       id="path1012"
       d="m 911.29412,366.58824 13.64706,-14.76471"
       style="fill:none;stroke:#00ff00;stroke-width:1px;stroke-linecap:butt;stroke-linejoin:miter;stroke-opacity:1" />
    <path
       id="path1014"
       d="m 931.76471,344.47059 14.70587,-15.94117 14.58824,15.88234"
       style="fill:none;stroke:#00ff00;stroke-width:1px;stroke-linecap:butt;stroke-linejoin:miter;stroke-opacity:1" />
    <path
       id="path1016"
       d="m 967.88235,351.76471 13.64706,14.7647"
       style="fill:none;stroke:#00ff00;stroke-width:1px;stroke-linecap:butt;stroke-linejoin:miter;stroke-opacity:1" />
    <path
       id="path1018"
       d="m 988.29412,373.88235 13.64708,14.76471"
       style="fill:none;stroke:#00ff00;stroke-width:1px;stroke-linecap:butt;stroke-linejoin:miter;stroke-opacity:1" />
    <path
       id="path1020"
       d="m 1008.7647,396.05882 13.5882,14.70589"
       style="fill:none;stroke:#00ff00;stroke-width:1px;stroke-linecap:butt;stroke-linejoin:miter;stroke-opacity:1" />
    <path
       id="path1022"
       d="m 1029.1765,418.17647 13.647,14.70588"
       style="fill:none;stroke:#00ff00;stroke-width:1px;stroke-linecap:butt;stroke-linejoin:miter;stroke-opacity:1" />
    <path
       id="path1024"
       d="m 1049.5882,440.29412 13.6471,14.7647"
       style="fill:none;stroke:#00ff00;stroke-width:1px;stroke-linecap:butt;stroke-linejoin:miter;stroke-opacity:1" />
    <path
       id="path1026"
       d="m 1070.0588,462.41176 14.6516,15.88236"
       style="fill:none;stroke:#00ff00;stroke-width:1px;stroke-linecap:butt;stroke-linejoin:miter;stroke-opacity:1" />
  </g>
  <g
     transform="translate(-727.25798,-184.19775)"
     id="g998"
     inkscape:label="Профили"
     style="fill:#d2d2d2;fill-opacity:1;stroke:#000000;stroke-opacity:1">
    <path
       id="path962"
       d="m 728.64706,249 17.70588,17.70588 H 1146.5882 L 1164.2941,249 Z"
       style="fill:#d2d2d2;fill-opacity:1;stroke:#000000;stroke-width:1px;stroke-linecap:butt;stroke-linejoin:miter;stroke-opacity:1" />
    <path
       id="path964"
       d="m 728.64706,249 v 308.82353 l 17.70588,-17.64706 V 266.70588 Z"
       style="fill:#d2d2d2;fill-opacity:1;stroke:#000000;stroke-width:1px;stroke-linecap:butt;stroke-linejoin:miter;stroke-opacity:1" />
    <path
       id="path966"
       d="m 728.64706,557.82353 h 435.64704 l -17.7059,-17.64706 H 746.35294 Z"
       style="fill:#d2d2d2;fill-opacity:1;stroke:#000000;stroke-width:1px;stroke-linecap:butt;stroke-linejoin:miter;stroke-opacity:1" />
    <path
       id="path968"
       d="M 1164.2941,557.82353 V 249 l -17.7059,17.70588 v 273.47059 z"
       style="fill:#d2d2d2;fill-opacity:1;stroke:#000000;stroke-width:1px;stroke-linecap:butt;stroke-linejoin:miter;stroke-opacity:1" />
    <path
       id="path970"
       d="m 746.35294,266.70588 41.76471,41.76471 h 316.70585 l 41.7647,-41.76471 z"
       style="fill:#d2d2d2;fill-opacity:1;stroke:#000000;stroke-width:1px;stroke-linecap:butt;stroke-linejoin:miter;stroke-opacity:1" />
    <path
       id="path972"
       d="m 746.35294,266.70588 v 273.47059 l 41.76471,-41.82353 V 308.47059 Z"
       style="fill:#d2d2d2;fill-opacity:1;stroke:#000000;stroke-width:1px;stroke-linecap:butt;stroke-linejoin:miter;stroke-opacity:1" />
    <path
       id="path974"
       d="m 746.35294,540.17647 41.76471,-41.82353 h 316.70585 l 41.7647,41.82353 z"
       style="fill:#d2d2d2;fill-opacity:1;stroke:#000000;stroke-width:1px;stroke-linecap:butt;stroke-linejoin:miter;stroke-opacity:1" />
    <path
       id="path976"
       d="M 1104.8235,498.35294 V 308.47059 l 41.7647,-41.76471 v 273.47059 z"
       style="fill:#d2d2d2;fill-opacity:1;stroke:#000000;stroke-width:1px;stroke-linecap:butt;stroke-linejoin:miter;stroke-opacity:1" />
    <rect
       y="308.47058"
       x="788.11768"
       height="189.88235"
       width="20.058821"
       id="rect978"
       style="fill:#d2d2d2;fill-opacity:1;stroke:#000000;stroke-width:1.00157;stroke-opacity:1" />
    <rect
       y="308.47058"
       x="1084.7646"
       height="189.88235"
       width="20.0588"
       id="rect980"
       style="fill:#d2d2d2;fill-opacity:1;stroke:#000000;stroke-width:1.00157;stroke-opacity:1" />
    <rect
       y="478.29413"
       x="808.17645"
       height="20.058815"
       width="276.58823"
       id="rect982"
       style="fill:#d2d2d2;fill-opacity:1;stroke:#000000;stroke-width:1.00157;stroke-opacity:1" />
    <rect
       y="308.47058"
       x="808.17651"
       height="20.058821"
       width="276.5882"
       id="rect984"
       style="fill:#d2d2d2;fill-opacity:1;stroke:#000000;stroke-width:1.00157;stroke-opacity:1" />
  </g>
  <g
     transform="translate(-727.25798,-184.19775)"
     id="g1063"
     inkscape:label="Петли"
     style="fill:#d2d2d2;fill-opacity:1;stroke:#000000;stroke-opacity:1">
    <rect
       y="540.17645"
       x="746.35297"
       height="6.5882401"
       width="22.764709"
       id="rect1043"
       style="fill:#d2d2d2;fill-opacity:1;stroke:#000000;stroke-width:1.00157;stroke-opacity:1" />
    <rect
       y="540.17645"
       x="769.11768"
       height="6.4705901"
       width="24.294085"
       id="rect1045"
       style="fill:#d2d2d2;fill-opacity:1;stroke:#000000;stroke-width:1.00157;stroke-opacity:1" />
    <rect
       y="540.17645"
       x="793.41174"
       height="6.5882401"
       width="26.82353"
       id="rect1047"
       style="fill:#d2d2d2;fill-opacity:1;stroke:#000000;stroke-width:1.00157;stroke-opacity:1" />
    <rect
       y="540.17645"
       x="1123.8235"
       height="6.5882401"
       width="22.7647"
       id="rect1051"
       style="fill:#d2d2d2;fill-opacity:1;stroke:#000000;stroke-width:1.00157;stroke-opacity:1" />
    <rect
       y="540.17645"
       x="1099.5294"
       height="6.588223"
       width="24.2941"
       id="rect1053"
       style="fill:#d2d2d2;fill-opacity:1;stroke:#000000;stroke-width:1.00157;stroke-opacity:1" />
    <rect
       y="540.17645"
       x="1072.7059"
       height="6.4705901"
       width="26.8235"
       id="rect1055"
       style="fill:#d2d2d2;fill-opacity:1;stroke:#000000;stroke-width:1.00157;stroke-opacity:1" />
  </g>
  <g
     style="fill:#d2d2d2;fill-opacity:1;stroke:#000000;stroke-opacity:1"
     id="g1258"
     inkscape:label="Ручка"
     transform="matrix(0,-1.6074865,1.6207451,0,-153.52477,1547.843)">
    <path
       style="fill:#d2d2d2;fill-opacity:1;stroke:#000000;stroke-width:1px;stroke-linecap:butt;stroke-linejoin:miter;stroke-opacity:1"
       d="m 893.11765,253.76471 c -10e-4,1.00784 0.81566,2.41176 1.82351,2.41176 12.17649,2e-5 0,0 12.17649,2e-5 0.83189,0 1.76372,-0.93282 1.7647,-1.76471 0.0588,-50.17649 0,0 0.0588,-50.17649 10e-4,-1.16463 -1.30593,-2.47056 -2.47056,-2.47056 -10.88235,-2e-5 3e-5,0 -10.88238,-0.0588 -1.01978,-0.006 -2.41058,0.86255 -2.41177,1.88234 -0.0588,50.17644 0,0 -0.0588,50.17644 z"
       id="path1253" />
    <path
       style="fill:#d2d2d2;fill-opacity:1;stroke:#000000;stroke-width:1px;stroke-linecap:butt;stroke-linejoin:miter;stroke-opacity:1"
       d="m 894.35294,223.41176 c 0,-0.3892 0.42253,-0.69689 0.76471,-0.88235 1.39207,-0.75449 3.52776,-0.64706 4.70588,-0.64706 2.35294,0 0,0 2.35294,0 1.58339,0 3.30015,-0.0817 4.70588,0.64706 0.35718,0.18516 0.82353,0.48003 0.82353,0.88235 0,11.29412 0,0 0,11.29412 0,0.58824 -0.98937,0.64943 -1.41176,1.05883 -0.45077,0.4369 -0.54871,1.47058 -1.17647,1.47058 -8.2353,0 0,0 -8.2353,0 -0.62776,0 -0.73021,-1.02907 -1.17647,-1.47058 -0.4071,-0.40277 -1.35294,-0.48616 -1.35294,-1.05883 0,-11.29412 0,0 0,-11.29412 z"
       id="path1249" />
    <path
       style="fill:#d2d2d2;fill-opacity:1;stroke:#000000;stroke-width:1px;stroke-linecap:butt;stroke-linejoin:miter;stroke-opacity:1"
       d="m 897.70588,224.58824 c 0.653,-0.3257 1.44675,-0.2353 2.17647,-0.2353 2.2353,0 0,0 2.2353,0 0.74921,0 1.5702,-0.10962 2.23529,0.2353 0.37006,0.19192 0.8264,0.52431 0.82353,0.94117 -0.41176,59.70588 0.0588,0 -0.41176,59.70588 -0.004,0.45774 -0.54228,0.93626 -1,0.94118 -5.47059,0.0588 0,0 -5.47059,0 -0.45775,0 -0.99639,-0.48344 -1,-0.94118 -0.47059,-59.70588 0,0 -0.47059,-59.70588 -0.003,-0.43002 0.49753,-0.74923 0.88235,-0.94117 z"
       id="path1251" />
  </g>
</svg>
