<?xml version="1.0" encoding="UTF-8" standalone="no"?>
<svg
   xmlns:dc="http://purl.org/dc/elements/1.1/"
   xmlns:cc="http://creativecommons.org/ns#"
   xmlns:rdf="http://www.w3.org/1999/02/22-rdf-syntax-ns#"
   xmlns:svg="http://www.w3.org/2000/svg"
   xmlns="http://www.w3.org/2000/svg"
   xmlns:sodipodi="http://sodipodi.sourceforge.net/DTD/sodipodi-0.dtd"
   xmlns:inkscape="http://www.inkscape.org/namespaces/inkscape"
   version="1.0"
   width="117mm"
   height="117mm"
   id="svg123"
   sodipodi:docname="window_type_2.svg"
   inkscape:version="1.0 (4035a4fb49, 2020-05-01)">
  <metadata
     id="metadata127">
    <rdf:RDF>
      <cc:Work
         rdf:about="">
        <dc:format>image/svg+xml</dc:format>
        <dc:type
           rdf:resource="http://purl.org/dc/dcmitype/StillImage" />
        <dc:title></dc:title>
      </cc:Work>
    </rdf:RDF>
  </metadata>
  <sodipodi:namedview
     inkscape:document-rotation="0"
     pagecolor="#ffffff"
     bordercolor="#666666"
     borderopacity="1"
     objecttolerance="10"
     gridtolerance="10"
     guidetolerance="10"
     inkscape:pageopacity="0"
     inkscape:pageshadow="2"
     inkscape:window-width="1920"
     inkscape:window-height="1017"
     id="namedview125"
     showgrid="false"
     inkscape:snap-intersection-paths="true"
     inkscape:zoom="0.68721735"
     inkscape:cx="-11.601093"
     inkscape:cy="493.84192"
     inkscape:window-x="-8"
     inkscape:window-y="-8"
     inkscape:window-maximized="1"
     inkscape:current-layer="svg123" />
  <defs
     id="defs3" />
  <rect
     style="fill:#d2ffff;fill-opacity:1;stroke:#000000;stroke-width:1.00157;stroke-opacity:1"
     id="rect1002"
     width="150.64705"
     height="278.70587"
     x="145.77737"
     y="81.779243"
     inkscape:label="Запполнение" />
  <g
     transform="translate(-767.39908,-253.80898)"
     id="g1043"
     inkscape:label="Обозначение открывания"
     style="fill:none;stroke:#00ff00;stroke-opacity:1">
    <path
       id="path1004"
       d="m 1063.8235,614.2941 -16,-14.76469"
       style="fill:none;stroke:#00ff00;stroke-width:1px;stroke-linecap:butt;stroke-linejoin:miter;stroke-opacity:1" />
    <path
       id="path1006"
       d="m 1040.4118,592.64706 -14.8824,-13.70588"
       style="fill:none;stroke:#00ff00;stroke-width:1px;stroke-linecap:butt;stroke-linejoin:miter;stroke-opacity:1" />
    <path
       id="path1008"
       d="m 1018.1176,572.05882 -14.8235,-13.70588"
       style="fill:none;stroke:#00ff00;stroke-width:1px;stroke-linecap:butt;stroke-linejoin:miter;stroke-opacity:1" />
    <path
       id="path1010"
       d="M 995.88235,551.47059 981.05882,537.76471"
       style="fill:none;stroke:#00ff00;stroke-width:1px;stroke-linecap:butt;stroke-linejoin:miter;stroke-opacity:1" />
    <path
       id="path1012"
       d="M 973.58824,530.88235 958.76471,517.17647"
       style="fill:none;stroke:#00ff00;stroke-width:1px;stroke-linecap:butt;stroke-linejoin:miter;stroke-opacity:1" />
    <path
       id="path1014"
       d="M 951.35294,510.29412 936.52941,496.58824"
       style="fill:none;stroke:#00ff00;stroke-width:1px;stroke-linecap:butt;stroke-linejoin:miter;stroke-opacity:1" />
    <path
       id="path1016"
       d="m 929.11765,489.70588 -15.94118,-14.7647 15.94118,-14.70589"
       style="fill:none;stroke:#00ff00;stroke-width:1px;stroke-linecap:butt;stroke-linejoin:miter;stroke-opacity:1" />
    <path
       id="path1018"
       d="m 936.52941,453.29412 14.88235,-13.70588"
       style="fill:none;stroke:#00ff00;stroke-width:1px;stroke-linecap:butt;stroke-linejoin:miter;stroke-opacity:1" />
    <path
       id="path1020"
       d="M 958.82353,432.70588 973.64706,419"
       style="fill:none;stroke:#00ff00;stroke-width:1px;stroke-linecap:butt;stroke-linejoin:miter;stroke-opacity:1" />
    <path
       id="path1022"
       d="m 981.05882,412.11765 14.82353,-13.70589"
       style="fill:none;stroke:#00ff00;stroke-width:1px;stroke-linecap:butt;stroke-linejoin:miter;stroke-opacity:1" />
    <path
       id="path1024"
       d="m 1003.3529,391.52941 14.8236,-13.70588"
       style="fill:none;stroke:#00ff00;stroke-width:1px;stroke-linecap:butt;stroke-linejoin:miter;stroke-opacity:1" />
    <path
       id="path1026"
       d="m 1025.5882,370.94118 14.8236,-13.70589"
       style="fill:none;stroke:#00ff00;stroke-width:1px;stroke-linecap:butt;stroke-linejoin:miter;stroke-opacity:1" />
    <path
       id="path1028"
       d="m 1047.8235,350.35294 16,-14.76471"
       style="fill:none;stroke:#00ff00;stroke-width:1px;stroke-linecap:butt;stroke-linejoin:miter;stroke-opacity:1" />
  </g>
  <g
     transform="translate(-767.39908,-253.80898)"
     id="g1000"
     inkscape:label="Профили"
     style="fill:#d2d2d2;fill-opacity:1;stroke:#000000;stroke-opacity:1">
    <path
       id="path964"
       d="m 833.11765,694.35294 17.7647,-17.7647 h 275.17645 l 17.8236,17.7647 z"
       style="fill:#d2d2d2;fill-opacity:1;stroke:#000000;stroke-width:1px;stroke-linecap:butt;stroke-linejoin:miter;stroke-opacity:1" />
    <path
       id="path966"
       d="m 850.88235,676.58824 0.0413,-403.29412 -17.80602,-17.82353 v 438.88235 z"
       style="fill:#d2d2d2;fill-opacity:1;stroke:#000000;stroke-width:1px;stroke-linecap:butt;stroke-linejoin:miter;stroke-opacity:1" />
    <path
       id="path968"
       d="M 1126.0588,676.58824 V 273.29412 l 17.8236,-17.82353 v 438.88235 z"
       style="fill:#d2d2d2;fill-opacity:1;stroke:#000000;stroke-width:1px;stroke-linecap:butt;stroke-linejoin:miter;stroke-opacity:1" />
    <path
       id="path970"
       d="M 1126.0588,273.29412 H 850.92367 l -17.80602,-17.82353 h 310.76475 z"
       style="fill:#d2d2d2;fill-opacity:1;stroke:#000000;stroke-width:1px;stroke-linecap:butt;stroke-linejoin:miter;stroke-opacity:1" />
    <path
       id="path972"
       d="m 850.92365,273.29412 42.01753,42.05882 h 191.11762 l 42,-42.05882 z"
       style="fill:#d2d2d2;fill-opacity:1;stroke:#000000;stroke-width:1px;stroke-linecap:butt;stroke-linejoin:miter;stroke-opacity:1" />
    <path
       id="path974"
       d="m 892.94118,315.35294 v 319.11765 l -42.05883,42.11765 0.0413,-403.29412 z"
       style="fill:#d2d2d2;fill-opacity:1;stroke:#000000;stroke-width:1px;stroke-linecap:butt;stroke-linejoin:miter;stroke-opacity:1" />
    <path
       id="path976"
       d="m 1084.0588,315.35294 42,-42.05882 v 403.29412 l -42,-42.11765 z"
       style="fill:#d2d2d2;fill-opacity:1;stroke:#000000;stroke-width:1px;stroke-linecap:butt;stroke-linejoin:miter;stroke-opacity:1" />
    <path
       id="path978"
       d="m 892.94118,634.47059 h 191.11762 l 42,42.11765 H 850.88235 Z"
       style="fill:#d2d2d2;fill-opacity:1;stroke:#000000;stroke-width:1px;stroke-linecap:butt;stroke-linejoin:miter;stroke-opacity:1" />
    <rect
       y="315.35294"
       x="892.94116"
       height="20.2353"
       width="191.11761"
       id="rect980"
       style="fill:#d2d2d2;fill-opacity:1;stroke:#000000;stroke-width:1.00157;stroke-opacity:1" />
    <rect
       y="614.29413"
       x="892.94116"
       height="20.17647"
       width="191.11761"
       id="rect982"
       style="fill:#d2d2d2;fill-opacity:1;stroke:#000000;stroke-width:1.00157;stroke-opacity:1" />
    <rect
       y="335.58823"
       x="892.94116"
       height="278.70587"
       width="20.235291"
       id="rect984"
       style="fill:#d2d2d2;fill-opacity:1;stroke:#000000;stroke-width:1.00157;stroke-opacity:1" />
    <rect
       y="335.58823"
       x="1063.8235"
       height="278.70587"
       width="20.2353"
       id="rect986"
       style="fill:#d2d2d2;fill-opacity:1;stroke:#000000;stroke-width:1.00157;stroke-opacity:1" />
  </g>
  <g
     transform="translate(-767.39908,-253.80898)"
     id="g1063"
     inkscape:label="Петли"
     style="fill:#d2d2d2;fill-opacity:1;stroke:#000000;stroke-opacity:1">
    <rect
       y="273.29413"
       x="1126.0588"
       height="22.94117"
       width="6.7059002"
       id="rect1045"
       style="fill:#d2d2d2;fill-opacity:1;stroke:#000000;stroke-width:1.00157;stroke-opacity:1" />
    <rect
       y="296.23529"
       x="1126.0588"
       height="24.470591"
       width="6.5882621"
       id="rect1047"
       style="fill:#d2d2d2;fill-opacity:1;stroke:#000000;stroke-width:1.00157;stroke-opacity:1" />
    <rect
       y="320.70587"
       x="1126.0588"
       height="27.05883"
       width="6.705862"
       id="rect1049"
       style="fill:#d2d2d2;fill-opacity:1;stroke:#000000;stroke-width:1.00157;stroke-opacity:1" />
    <rect
       y="602.11768"
       x="1126.0588"
       height="27.058821"
       width="6.5883002"
       id="rect1051"
       style="fill:#d2d2d2;fill-opacity:1;stroke:#000000;stroke-width:1.00157;stroke-opacity:1" />
    <rect
       y="629.17645"
       x="1126.0588"
       height="24.41177"
       width="6.705862"
       id="rect1053"
       style="fill:#d2d2d2;fill-opacity:1;stroke:#000000;stroke-width:1.00157;stroke-opacity:1" />
    <rect
       y="653.58826"
       x="1126.0588"
       height="23"
       width="6.7059002"
       id="rect1055"
       style="fill:#d2d2d2;fill-opacity:1;stroke:#000000;stroke-width:1.00157;stroke-opacity:1" />
  </g>
  <g
     style="fill:#d2d2d2;fill-opacity:1;stroke:#000000;stroke-opacity:1"
     id="g1258"
     inkscape:label="Ручка"
     transform="matrix(1.6330744,0,0,1.6332788,-1370.944,-154.54508)">
    <path
       style="fill:#d2d2d2;fill-opacity:1;stroke:#000000;stroke-width:1px;stroke-linecap:butt;stroke-linejoin:miter;stroke-opacity:1"
       d="m 893.11765,253.76471 c -10e-4,1.00784 0.81566,2.41176 1.82351,2.41176 12.17649,2e-5 0,0 12.17649,2e-5 0.83189,0 1.76372,-0.93282 1.7647,-1.76471 0.0588,-50.17649 0,0 0.0588,-50.17649 10e-4,-1.16463 -1.30593,-2.47056 -2.47056,-2.47056 -10.88235,-2e-5 3e-5,0 -10.88238,-0.0588 -1.01978,-0.006 -2.41058,0.86255 -2.41177,1.88234 -0.0588,50.17644 0,0 -0.0588,50.17644 z"
       id="path1253" />
    <path
       style="fill:#d2d2d2;fill-opacity:1;stroke:#000000;stroke-width:1px;stroke-linecap:butt;stroke-linejoin:miter;stroke-opacity:1"
       d="m 894.35294,223.41176 c 0,-0.3892 0.42253,-0.69689 0.76471,-0.88235 1.39207,-0.75449 3.52776,-0.64706 4.70588,-0.64706 2.35294,0 0,0 2.35294,0 1.58339,0 3.30015,-0.0817 4.70588,0.64706 0.35718,0.18516 0.82353,0.48003 0.82353,0.88235 0,11.29412 0,0 0,11.29412 0,0.58824 -0.98937,0.64943 -1.41176,1.05883 -0.45077,0.4369 -0.54871,1.47058 -1.17647,1.47058 -8.2353,0 0,0 -8.2353,0 -0.62776,0 -0.73021,-1.02907 -1.17647,-1.47058 -0.4071,-0.40277 -1.35294,-0.48616 -1.35294,-1.05883 0,-11.29412 0,0 0,-11.29412 z"
       id="path1249" />
    <path
       style="fill:#d2d2d2;fill-opacity:1;stroke:#000000;stroke-width:1px;stroke-linecap:butt;stroke-linejoin:miter;stroke-opacity:1"
       d="m 897.70588,224.58824 c 0.653,-0.3257 1.44675,-0.2353 2.17647,-0.2353 2.2353,0 0,0 2.2353,0 0.74921,0 1.5702,-0.10962 2.23529,0.2353 0.37006,0.19192 0.8264,0.52431 0.82353,0.94117 -0.41176,59.70588 0.0588,0 -0.41176,59.70588 -0.004,0.45774 -0.54228,0.93626 -1,0.94118 -5.47059,0.0588 0,0 -5.47059,0 -0.45775,0 -0.99639,-0.48344 -1,-0.94118 -0.47059,-59.70588 0,0 -0.47059,-59.70588 -0.003,-0.43002 0.49753,-0.74923 0.88235,-0.94117 z"
       id="path1251" />
  </g>
</svg>
