<?xml version="1.0" encoding="UTF-8" standalone="no"?>
<svg
   xmlns:dc="http://purl.org/dc/elements/1.1/"
   xmlns:cc="http://creativecommons.org/ns#"
   xmlns:rdf="http://www.w3.org/1999/02/22-rdf-syntax-ns#"
   xmlns:svg="http://www.w3.org/2000/svg"
   xmlns="http://www.w3.org/2000/svg"
   id="svg951"
   height="181mm"
   width="181mm"
   version="1.0">
  <metadata
     id="metadata955">
    <rdf:RDF>
      <cc:Work
         rdf:about="">
        <dc:format>image/svg+xml</dc:format>
        <dc:type
           rdf:resource="http://purl.org/dc/dcmitype/StillImage" />
        <dc:title></dc:title>
      </cc:Work>
    </rdf:RDF>
  </metadata>
  <defs
     id="defs3" />
  <path
     id="path949"
     d="m 515.5473,368.07665 v 1 l 0.0588,1.05882 0.0588,1 0.0588,1 0.0588,1 0.11764,1 0.11765,1 0.17647,1 0.17647,1 0.17647,1 0.17647,1 0.2353,0.94118 0.23529,1 0.29412,1 0.23529,0.94118 0.35294,1 0.29412,0.94117 0.35294,0.94118 0.35294,0.94117 0.35295,0.94118 0.41176,0.94118 0.41176,0.94117 0.41177,0.88236 0.41176,0.94117 0.47059,0.88236 0.47059,0.88235 0.52941,0.88235 0.52941,0.88236 0.52942,0.82352 0.52941,0.88236 0.52941,0.82353 0.58823,0.82353 0.58824,0.82353 0.64706,0.82353 0.58823,0.7647 0.64706,0.76471 0.64706,0.7647 0.70588,0.76471 0.70589,0.7647 0.64706,0.70589 0.7647,0.70588 0.70588,0.70588 0.76471,0.70588 0.70588,0.64706 0.76471,0.70589 0.82353,0.58823 0.7647,0.64706 0.82353,0.58823 0.82353,0.64706 0.82353,0.52942 0.82353,0.58823 0.82353,0.52941 0.88235,0.52941 0.88236,0.52942 0.88235,0.47058 0.88235,0.52942 0.88235,0.41176 0.88236,0.47059 0.94117,0.41176 0.94118,0.41177 0.94118,0.41176 0.88235,0.35294 1,0.35295 0.94118,0.35294 0.94117,0.29411 0.94118,0.29412 1,0.29412 0.94118,0.29412 1,0.23529 1,0.2353 1,0.17647 1,0.17647 0.94117,0.17647 1,0.17647 1,0.11764 1.05883,0.11765 1,0.0588 1,0.0588 1,0.0588 1,0.0588 h 1 116.29409 V 322.95891 H 591.90024 V 263.90018 H 352.48848 l -0.0588,0.47059 v 0.47058 l -0.0588,0.41178 -0.0588,0.47059 -0.11765,0.47059 -0.11765,0.41176 -0.11764,0.41177 -0.11765,0.47058 -0.17647,0.41177 -0.17647,0.41176 -0.17647,0.41177 -0.2353,0.41176 -0.23529,0.35294 -0.29412,0.41177 -0.23529,0.35294 -0.29412,0.35294 -0.29412,0.35294 -0.29411,0.29412 -0.35295,0.35294 -0.35294,0.29412 -0.35294,0.29412 -0.35294,0.23529 -0.35294,0.29412 -0.41177,0.23529 -0.41176,0.17647 -0.41176,0.2353 -0.41177,0.17647 -0.41176,0.17647 -0.41177,0.11764 -0.47059,0.11765 -0.41176,0.11765 -0.47059,0.11765 -0.41176,0.0588 -0.47059,0.0588 h -0.47059 -0.41177 -0.47058 -0.47059 l -0.47059,-0.0588 -0.41177,-0.0588 -0.47058,-0.11765 -0.41177,-0.11765 -0.47059,-0.11765 -0.41176,-0.11764 -0.41177,-0.17647 -0.41176,-0.17647 -0.41177,-0.2353 -0.41183,-0.17647 -0.41176,-0.23529 -0.35295,-0.29412 -0.35294,-0.23529 -0.35294,-0.29412 -0.35294,-0.29412 -0.35294,-0.35294 -0.29412,-0.29412 -0.29412,-0.35294 -0.29411,-0.35294 -0.2353,-0.35294 -0.29412,-0.41177 -0.23529,-0.35294 -0.17647,-0.41176 -0.23529,-0.41177 -0.17647,-0.41176 -0.17648,-0.41177 -0.11764,-0.47058 -0.11765,-0.41177 -0.11765,-0.41176 -0.11764,-0.47059 -0.0588,-0.47059 -0.0588,-0.41178 v -0.47058 -0.47059 H 92.194365 v 59.05883 H 0.19436497 V 420.1943 H 116.48848 h 1 l 1,-0.0588 1,-0.0588 1,-0.0588 1,-0.0588 1.05882,-0.11765 1,-0.11764 1,-0.17647 0.94118,-0.17647 1,-0.17647 1,-0.17647 1,-0.2353 1,-0.23529 0.94118,-0.29412 1,-0.29412 0.94117,-0.29412 0.94118,-0.29411 0.94117,-0.35294 1,-0.35295 0.88236,-0.35294 0.94117,-0.41176 0.94118,-0.41177 0.94118,-0.41176 0.88235,-0.47059 0.88235,-0.41176 0.88236,-0.52942 0.88235,-0.47058 0.88235,-0.52942 0.88235,-0.52941 0.82353,-0.52941 0.82353,-0.58823 0.82353,-0.52942 0.82353,-0.64706 0.82353,-0.58823 0.76471,-0.64706 0.82353,-0.58823 0.7647,-0.70589 0.70589,-0.64706 0.7647,-0.70588 0.70588,-0.70588 0.76471,-0.70588 0.64706,-0.70589 0.70588,-0.7647 0.70588,-0.76471 0.64706,-0.7647 0.64706,-0.76471 0.58824,-0.7647 0.64705,-0.82353 0.58824,-0.82353 0.58824,-0.82353 0.52941,-0.82353 0.52941,-0.88236 0.52941,-0.82352 0.52941,-0.88236 0.52941,-0.88235 0.47059,-0.88235 0.47059,-0.88236 0.41177,-0.94117 0.41176,-0.88236 0.41176,-0.94117 0.41177,-0.94118 0.35294,-0.94118 0.35294,-0.94117 0.35294,-0.94118 0.29412,-0.94117 0.35294,-1 0.2353,-0.94118 0.29411,-1 0.2353,-1 0.23529,-0.94118 0.17647,-1 0.17647,-1 0.17647,-1 0.17647,-1 0.11765,-1 0.11765,-1 0.0588,-1 0.0588,-1 0.0588,-1 0.0588,-1.05882 v -1 z"
     style="fill:#212830;fill-opacity:1;stroke:#212830;stroke-width:0.0588235px;stroke-linecap:round;stroke-linejoin:round;stroke-miterlimit:4;stroke-dasharray:none;stroke-opacity:1" />
</svg>
