<?xml version="1.0" encoding="UTF-8" standalone="no"?>
<svg
   xmlns="http://www.w3.org/2000/svg"
   id="svg3161"
   height="141mm"
   width="141mm"
   version="1.0">
  <metadata
     id="metadata3165">
    <rdf:RDF>
      <cc:Work
         rdf:about="">
        <dc:format>image/svg+xml</dc:format>
        <dc:type
           rdf:resource="http://purl.org/dc/dcmitype/StillImage" />
        <dc:title></dc:title>
      </cc:Work>
    </rdf:RDF>
  </metadata>
  <defs
     id="defs3" />
  <path
     d="M 191.95669,1.3971388 V 531.51628 h 6 v -59.64843 h 137.05859 v 59.64843 h 5.94141 V 67.692069 h -7.94141 -0.35352 l -0.35351,0.05859 h -0.35156 l -0.35352,0.11719 -0.35352,0.0586 -0.35156,0.11914 -0.29492,0.11719 -0.35352,0.11719 -0.29296,0.17578 -0.35352,0.17773 -0.29492,0.17578 -0.29297,0.23633 -0.29492,0.23438 -0.23438,0.23632 -0.23633,0.23438 -0.23437,0.23438 -0.23633,0.29492 -0.23437,0.29492 -0.17579,0.29297 -0.17773,0.35351 -0.0586,0.11719 -0.0586,0.11719 v 0.11914 0.17578 0.11719 l 0.0586,0.11719 0.0586,0.11914 0.0586,0.11718 0.0586,0.11719 0.11914,0.11719 0.11719,0.0605 0.11718,0.0586 0.11719,0.0586 h 0.11914 0.17578 6.94141 v 9.94143 0.17578 l -0.0586,0.17578 v 0.17774 l -0.0586,0.17578 -0.11914,0.11718 -0.0586,0.17774 -0.11719,0.11719 -0.11719,0.11718 -0.17773,0.11719 -0.11719,0.11914 -0.17578,0.0586 -0.11719,0.0586 -0.17773,0.0586 h -0.17578 l -0.17579,0.0586 h -46.35351 v -9.94141 -0.17578 -0.17773 l 0.0586,-0.17579 0.0586,-0.17578 0.11718,-0.11719 0.0586,-0.17773 0.11914,-0.11719 0.11719,-0.11718 0.11718,-0.11914 0.17579,-0.11719 0.17773,-0.0586 0.11719,-0.0586 0.17578,-0.0586 h 0.17773 l 0.17578,-0.0586 h 4.29493 0.11718 0.17578 l 0.11914,-0.0586 0.11719,-0.0586 0.11719,-0.0605 0.11719,-0.11719 0.0586,-0.11719 0.0586,-0.11718 0.0605,-0.11914 0.0586,-0.11719 v -0.11722 -0.17578 -0.11914 l -0.0586,-0.11719 -0.0605,-0.11719 -0.17579,-0.35351 -0.17578,-0.29297 -0.23633,-0.29492 -0.23437,-0.29492 -0.23633,-0.23438 -0.23437,-0.23438 -0.29493,-0.23632 -0.23437,-0.23438 -0.29492,-0.23633 -0.29297,-0.17578 -0.35352,-0.17773 -0.29492,-0.17578 -0.35156,-0.11719 -0.29492,-0.11719 -0.35352,-0.11914 -0.35156,-0.0586 -0.35353,-0.11718 h -0.35351 l -0.35157,-0.0586 h -0.35351 -4.29492 -12 -0.11719 l -0.11719,0.0586 h -0.11719 l -0.11914,0.0586 -0.0586,0.11719 -0.11719,0.0586 -0.0586,0.11914 -0.0586,0.11718 -0.0586,0.11719 v 0.11719 0.11914 0.11719 l 0.0586,0.11718 0.0586,0.11719 0.0586,0.11914 0.0586,0.0586 0.11718,0.11718 0.35352,0.23438 0.29492,0.23633 0.29297,0.29297 0.29492,0.29492 0.23438,0.29492 0.29492,0.29297 0.23437,0.29492 0.17774,0.35351 0.23437,0.35157 0.17579,0.35351 0.17773,0.35352 0.17578,0.35156 0.11719,0.41211 0.11914,0.35352 0.11719,0.41211 0.0586,0.4121 0.0586,0.35157 0.0586,0.41211 v 0.41211 l 0.0586,0.41211 -0.0586,0.4121 v 0.17579 l 0.0586,0.17578 v 0.11719 l 0.0586,0.17773 0.0605,0.17578 0.11719,0.17773 0.11719,0.17579 0.11718,0.23437 0.0586,0.23633 0.11914,0.23437 0.0586,0.23633 v 0.23438 l 0.0586,0.29492 v 0.23437 l -0.0586,0.23633 v 0.23438 l -0.0586,0.29492 -0.11914,0.23437 -0.0586,0.23633 -0.11718,0.17578 -0.11719,0.23633 -0.11719,0.23438 -0.17773,0.17578 -0.17578,0.17773 -0.17579,0.17578 -0.17773,0.17579 -0.23437,0.11914 -0.23633,0.11718 -0.17578,0.11719 -0.23633,0.0586 -0.29297,0.11914 h -0.23633 l -0.23437,0.0586 h -0.23633 -0.23438 -0.17578 l -0.17773,0.0586 h -0.17578 l -0.17579,0.0586 -0.17773,0.0586 -0.11719,0.11719 -0.35351,0.23633 -0.35157,0.17578 -0.29492,0.17578 -0.41211,0.11914 -0.35351,0.17578 -0.35156,0.11719 -0.35352,0.11719 -0.41211,0.0605 -0.35351,0.11719 -0.41016,0.0586 h -0.35352 l -0.41211,0.0586 h -0.35351 l -0.41016,-0.0586 h -0.41211 l -0.35351,-0.0586 -0.41211,-0.11719 -0.35157,-0.0605 -0.35351,-0.11719 -0.41209,-0.11723 -0.35352,-0.17578 -0.35156,-0.11914 -0.35351,-0.17578 -0.35352,-0.17578 -0.29297,-0.23633 -0.17773,-0.11719 -0.11719,-0.05859 -0.17578,-0.0586 h -0.17774 l -0.17578,-0.0586 h -0.17578 -0.23633 -0.23437 l -0.29492,-0.0586 h -0.23438 l -0.23633,-0.11914 -0.23437,-0.0586 -0.23633,-0.11719 -0.17578,-0.11718 -0.23633,-0.11914 -0.17578,-0.17579 -0.17578,-0.17578 -0.17774,-0.17773 -0.17578,-0.17578 -0.11718,-0.23438 -0.11914,-0.23633 -0.11719,-0.17578 -0.11719,-0.23633 -0.0586,-0.23437 -0.0586,-0.29492 -0.0586,-0.23438 v -0.23633 -0.23437 -0.29492 l 0.0586,-0.23438 0.0586,-0.23633 0.0586,-0.23437 0.11719,-0.23633 0.11719,-0.23437 0.11914,-0.17579 0.0586,-0.17773 0.11719,-0.17578 0.0586,-0.17773 v -0.11719 -0.17578 -0.17579 -0.4121 -0.41211 l 0.0586,-0.41211 v -0.41211 l 0.0586,-0.35157 0.11914,-0.4121 0.0586,-0.41211 0.11719,-0.35352 0.17578,-0.41211 0.11914,-0.35156 0.17578,-0.35352 0.23438,-0.35351 0.17773,-0.35157 0.23438,-0.35351 0.23633,-0.29492 0.23437,-0.29297 0.29492,-0.29492 0.29297,-0.29492 0.29492,-0.29297 0.29492,-0.23633 0.35157,-0.23438 0.0586,-0.11718 0.11914,-0.0586 0.0586,-0.11914 0.0586,-0.11719 v -0.11718 l 0.0586,-0.11719 v -0.11914 l -0.0586,-0.11719 v -0.11719 l -0.0586,-0.11718 -0.11914,-0.11914 -0.0586,-0.0586 -0.11719,-0.11719 -0.11723,-0.05857 h -0.0586 l -0.17773,-0.0586 h -0.11719 -11.94141 -4.29296 -0.35352 l -0.35352,0.0586 h -0.35156 l -0.35351,0.11719 -0.35352,0.0586 -0.35351,0.11914 -0.35157,0.11719 -0.29492,0.11719 -0.35351,0.17578 -0.29297,0.17773 -0.29493,0.17578 -0.29296,0.23633 -0.29493,0.23438 -0.23437,0.23632 -0.29492,0.23438 -0.23438,0.23438 -0.23633,0.29492 -0.17578,0.29492 -0.17773,0.29297 -0.17578,0.35351 -0.0586,0.11719 -0.0586,0.11719 v 0.11914 0.17578 0.11719 l 0.0586,0.11719 v 0.11914 l 0.11719,0.11718 0.0586,0.11719 0.11914,0.11719 0.11719,0.0605 0.11719,0.0586 0.11719,0.0586 h 0.11719 0.17773 5.94141 v 11.64649 h -48 v -11.64649 h 6.9414 0.11719 0.11719 l 0.17578,-0.0586 0.11914,-0.0586 0.11719,-0.0605 0.0586,-0.11719 0.11719,-0.11719 0.0586,-0.11718 0.0586,-0.11914 v -0.11719 l 0.0605,-0.1172 v -0.17578 l -0.0605,-0.11914 v -0.11719 l -0.0586,-0.11719 -0.17578,-0.35351 -0.23438,-0.29297 -0.17773,-0.29492 -0.23437,-0.29492 -0.23633,-0.23438 -0.23438,-0.23438 -0.29492,-0.23632 -0.29297,-0.23438 -0.29492,-0.23633 -0.29492,-0.17578 -0.29297,-0.17773 -0.29492,-0.17578 -0.35157,-0.11719 -0.35351,-0.11719 -0.35352,-0.11914 -0.29297,-0.0586 -0.35355,-0.11718 h -0.35352 l -0.35351,-0.0586 h -0.41016 -0.29492 -0.17578 l -0.17774,-0.0586 h -0.17578 l -0.17578,-0.0586 -0.11914,-0.11914 -0.17578,-0.0586 -0.11719,-0.11718 -0.11719,-0.11719 -0.11914,-0.17773 -0.11718,-0.11719 -0.0586,-0.17578 -0.0586,-0.17579 -0.0586,-0.11914 v -0.17578 -0.17578 -24.88281 h 5.58789 0.17578 l 0.17773,0.0586 0.17578,0.0586 0.17578,0.0586 0.11914,0.0586 0.17579,0.11914 0.11718,0.11719 0.11719,0.11719 0.11914,0.11719 0.11719,0.11719 0.0586,0.17773 0.0586,0.17578 0.0586,0.17773 v 0.17579 0.17578 0.64843 l 0.0586,0.11719 v 0.11718 l 0.0586,0.11719 0.0605,0.11719 0.0586,0.11914 0.0586,0.11718 0.11719,0.0586 0.11719,0.0586 0.11719,0.0586 0.11914,0.0586 0.11718,0.0605 h 0.11719 3 0.11719 l 0.11914,-0.0605 0.11719,-0.0586 0.11718,-0.0586 0.11719,-0.0586 0.11914,-0.0586 0.0586,-0.11718 0.11718,-0.11914 0.0586,-0.11719 v -0.11719 l 0.0586,-0.11719 v -0.11719 -8.53124 -0.11719 l -0.0586,-0.11719 v -0.17578 l -0.11719,-0.11914 -0.0586,-0.11719 -0.11914,-0.0586 -2.93946,-2.76368 -0.11914,-0.11914 -0.11719,-0.0586 -0.11718,-0.0586 h -0.11719 l -0.17774,-0.0586 h -0.11718 l -0.11719,0.0586 h -0.11719 l -0.11914,0.0586 -0.11719,0.0586 -0.11718,0.11914 -0.11719,0.11719 -0.0586,0.11719 -0.0605,0.11719 -0.0586,0.11719 v 0.11914 l -0.0586,0.11718 v 2.35352 0.17578 0.17578 l -0.0586,0.11914 -0.0586,0.17578 -0.0586,0.17578 -0.11719,0.11914 -0.11914,0.17579 -0.11719,0.11718 -0.11718,0.0586 -0.17579,0.11719 -0.11914,0.0605 -0.17578,0.0586 -0.17578,0.0586 -0.17773,0.0586 h -0.17578 -6.58789 V 6.3971088 h 8.23437 v 4.0000002 l 0.0586,0.11914 v 0.11719 l 0.0586,0.11719 0.0605,0.11719 0.0586,0.11719 0.11719,0.11914 0.11718,0.0586 0.11719,0.11719 h 0.11914 l 0.11719,0.0586 h 0.11719 0.11718 0.17774 l 0.11719,-0.0586 h 0.11718 l 0.11719,-0.11719 0.11914,-0.0586 3.29297,-3.0586002 v -6.64844 z m 6,88.8242202 H 335.01528 V 461.92644 h -49.29492 -0.23438 -0.29492 l -0.23437,-0.0586 -0.23633,-0.0586 -0.23438,-0.11718 -0.23633,-0.0586 -0.23437,-0.11719 -0.17773,-0.17773 -0.23438,-0.11718 -0.17578,-0.17578 -0.17774,-0.17773 -0.17578,-0.17578 -0.11718,-0.23633 -0.11914,-0.23438 -0.11719,-0.17578 -0.11719,-0.23633 -0.0586,-0.23437 -0.0586,-0.29492 -0.0586,-0.23438 v -0.23633 -0.23437 -0.29492 -0.23438 l 0.0586,-0.23633 0.17578,-0.52929 0.0586,-0.58789 0.11719,-0.5293 0.0605,-0.58789 0.0586,-0.5293 0.0586,-0.58984 v -0.5293 -0.58789 -0.5293 l -0.0586,-0.58789 -0.0586,-0.52929 -0.0605,-0.58789 -0.11719,-0.5293 -0.11719,-0.58984 -0.11719,-0.5293 -0.17773,-0.5293 -0.11719,-0.5293 -0.23437,-0.52929 -0.17774,-0.5293 -0.23437,-0.5293 -0.23633,-0.4707 -0.23438,-0.5293 -0.29492,-0.4707 -0.29297,-0.4707 -0.29492,-0.47071 -0.35351,-0.4707 -0.35157,-0.4707 -0.35351,-0.41016 -0.35352,-0.4707 -0.35156,-0.41211 -0.41211,-0.35352 -0.41211,-0.41211 -0.41211,-0.35156 -0.4707,-0.35351 -0.41211,-0.35352 -0.17578,-0.11719 -0.11719,-0.0586 -0.17773,-0.0586 -0.17579,-0.0586 h -0.17578 l -0.17773,-0.0605 -0.17578,0.0605 h -0.17578 l -0.17774,0.0586 -0.11719,0.0586 -0.17578,0.0586 -0.11719,0.11719 -0.17773,0.11719 -0.11719,0.11914 -0.11718,0.11719 -0.0586,0.17578 -2.82422,4.82422 -0.0586,0.11718 -0.0586,0.11719 v 0.11914 0.11719 0.17578 l 0.0586,0.11719 v 0.11914 l 0.0586,0.11719 0.11719,0.11718 0.0586,0.11719 0.11914,0.0586 0.29297,0.23632 0.29493,0.23438 0.29296,0.29492 0.29493,0.29492 0.23437,0.29297 0.29492,0.29492 0.23438,0.29297 0.17773,0.35352 0.23438,0.35351 0.17773,0.35157 0.17578,0.35351 0.11719,0.35352 0.11719,0.35351 0.11914,0.41016 0.11719,0.35351 0.0586,0.41211 0.0586,0.41211 0.0586,0.35157 v 0.4121 l 0.0586,0.41211 -0.0586,0.41211 v 0.17578 l 0.0586,0.11914 v 0.17579 l 0.0586,0.17578 0.0605,0.17773 0.11719,0.17578 0.11719,0.17578 0.11718,0.23633 0.0586,0.23438 0.11914,0.23633 0.0586,0.23437 v 0.23633 l 0.0586,0.29297 v 0.23633 l -0.0586,0.23437 v 0.23633 l -0.0586,0.23437 -0.11914,0.23633 -0.0586,0.23438 -0.11718,0.23632 -0.11719,0.23438 -0.11719,0.17578 -0.17773,0.23633 -0.17578,0.17578 -0.17579,0.17773 -0.17773,0.11719 -0.23437,0.17578 -0.23633,0.11719 -0.17578,0.11914 -0.23633,0.0586 -0.29297,0.0586 -0.23633,0.0586 -0.23437,0.0586 h -0.23633 -0.23438 -0.17578 l -0.17773,0.0586 h -0.17578 l -0.17579,0.0586 -0.17773,0.0586 -0.11719,0.11914 -0.35351,0.17578 -0.35157,0.23438 -0.29492,0.17773 -0.41211,0.11719 -0.35351,0.17578 -0.35156,0.11914 -0.35351,0.11715 -0.41211,0.0586 -0.35351,0.11719 h -0.41016 l -0.35352,0.0586 h -0.41211 -0.35351 -0.41016 l -0.41211,-0.0586 h -0.35351 l -0.41211,-0.11719 -0.35157,-0.0586 -0.35351,-0.11719 -0.41211,-0.11914 -0.35352,-0.17578 -0.35156,-0.11719 -0.35351,-0.17773 -0.35352,-0.23438 -0.29297,-0.17578 -0.17773,-0.11914 -0.11719,-0.0586 -0.17578,-0.0586 h -0.17774 l -0.17578,-0.0586 h -0.17578 -0.23633 -0.23437 l -0.29492,-0.0586 -0.23438,-0.0586 -0.23633,-0.0586 -0.23437,-0.0586 -0.23633,-0.11914 -0.17578,-0.11719 -0.23633,-0.17578 -0.17578,-0.11719 -0.17578,-0.17773 -0.17774,-0.17578 -0.17578,-0.23633 -0.11718,-0.17573 -0.11914,-0.23438 -0.11719,-0.23632 -0.11719,-0.23438 -0.0586,-0.23633 -0.0586,-0.23437 -0.0586,-0.23633 v -0.23437 -0.23633 -0.29297 l 0.0586,-0.23633 0.0586,-0.23437 0.0586,-0.23633 0.11719,-0.23438 0.11719,-0.23633 0.11914,-0.17578 0.0586,-0.17578 0.11719,-0.17773 0.0586,-0.17578 v -0.17579 -0.11914 -0.17578 -0.41211 -0.41211 l 0.0586,-0.4121 v -0.35157 l 0.0586,-0.41211 0.11914,-0.41211 0.0586,-0.35351 0.11719,-0.41016 0.11719,-0.35351 0.17773,-0.35352 0.17578,-0.35351 0.17578,-0.35157 0.17774,-0.35351 0.23437,-0.35352 0.23633,-0.29297 0.23438,-0.29492 0.29492,-0.29297 0.23437,-0.29492 0.29493,-0.29492 0.29296,-0.23438 0.35352,-0.23632 0.11719,-0.0586 0.0586,-0.11719 0.0586,-0.11718 0.0605,-0.11719 0.0586,-0.11914 0.0586,-0.11719 v -0.17578 -0.11719 l -0.0586,-0.11914 -0.0586,-0.11719 -0.0605,-0.11718 -2.76368,-4.82422 -0.11718,-0.17578 -0.11914,-0.11719 -0.11719,-0.11914 -0.11719,-0.11719 -0.11719,-0.11719 -0.17773,-0.0586 -0.17578,-0.0586 -0.17578,-0.0586 H 257.779 l -0.17583,-0.0605 -0.11719,0.0605 h -0.17773 l -0.17578,0.0586 -0.17578,0.0586 -0.17774,0.0586 -0.11719,0.11719 -0.4707,0.35352 -0.41211,0.35351 -0.41016,0.35156 -0.4121,0.41211 -0.41211,0.35352 -0.41211,0.41211 -0.35352,0.4707 -0.35156,0.41016 -0.35352,0.4707 -0.29492,0.4707 -0.29297,0.47071 -0.29492,0.4707 -0.29297,0.4707 -0.23633,0.5293 -0.23437,0.4707 -0.23633,0.5293 -0.23437,0.5293 -0.17774,0.52929 -0.17578,0.5293 -0.11719,0.5293 -0.17773,0.5293 -0.11719,0.58984 -0.0586,0.5293 -0.11719,0.58789 -0.0586,0.52929 v 0.58789 l -0.0586,0.5293 v 0.58789 l 0.0586,0.5293 v 0.58984 l 0.0586,0.5293 0.11719,0.58789 0.0586,0.5293 0.11719,0.58789 0.11914,0.52929 0.0586,0.23633 0.0586,0.23438 v 0.29492 0.23437 0.23633 l -0.0586,0.23438 -0.0586,0.29492 -0.0586,0.23437 -0.11914,0.23633 -0.11718,0.17578 -0.11719,0.23438 -0.17773,0.23633 -0.11719,0.17578 -0.17578,0.17773 -0.23633,0.17578 -0.17578,0.11719 -0.23438,0.17773 -0.17773,0.11719 -0.23438,0.0586 -0.23633,0.11718 -0.23437,0.0586 -0.29492,0.0586 h -0.23438 -0.23633 -49.29296 z"
     style="fill:#212830;fill-opacity:1;stroke:#212830;stroke-width:0.0588235px;stroke-linecap:round;stroke-linejoin:round;stroke-miterlimit:4;stroke-dasharray:none;stroke-opacity:1"
     id="path3159" />
</svg>
