<?xml version="1.0" encoding="UTF-8" standalone="no"?>
<svg
   xmlns:dc="http://purl.org/dc/elements/1.1/"
   xmlns:cc="http://creativecommons.org/ns#"
   xmlns:rdf="http://www.w3.org/1999/02/22-rdf-syntax-ns#"
   xmlns:svg="http://www.w3.org/2000/svg"
   xmlns="http://www.w3.org/2000/svg"
   id="svg837"
   height="90mm"
   width="90mm"
   version="1.0">
  <metadata
     id="metadata841">
    <rdf:RDF>
      <cc:Work
         rdf:about="">
        <dc:format>image/svg+xml</dc:format>
        <dc:type
           rdf:resource="http://purl.org/dc/dcmitype/StillImage" />
        <dc:title></dc:title>
      </cc:Work>
    </rdf:RDF>
  </metadata>
  <defs
     id="defs3" />
  <path
     d="m 132.22639,1.667586 -0.7051,0.0586 -0.707,0.17578 -0.7051,0.29492 -0.5879,0.41211 -0.5312,0.5293001 -0.4102,0.58789 -0.2949,0.70507 -0.1758,0.70704 -0.1191,0.70507 V 28.608996 l 0.061,0.4707 0.1758,0.4707 0.2344,0.46876 0.2949,0.35351 0.4121,0.29492 0.4121,0.23438 0.4707,0.17773 0.4707,0.0586 h 11.8223 l 0.4121,-0.0586 0.4121,-0.11914 0.4121,-0.17578 0.3516,-0.23438 0.3535,-0.35351 0.2363,-0.35352 0.1758,-0.41211 0.1172,-0.4121 0.059,-0.41016 v -2.5293 l -0.059,-0.4707 -0.1172,-0.41211 -0.1758,-0.41211 -0.2363,-0.35352 -0.3535,-0.29296 -0.3516,-0.23633 -0.4121,-0.23438 -0.4121,-0.0586 -0.4121,-0.0586 h -6.7637 V 9.1968761 h 26.1172 v 115.1757839 0.41211 l 0.1172,0.41211 0.1172,0.35351 0.2363,0.35157 0.2344,0.29492 1.8242,1.76367 -1.8242,1.82422 -0.2344,0.29492 -0.2363,0.29297 -0.1172,0.41211 -0.1172,0.35352 v 0.4121 89.0586 l -12.6465,-12.64844 v -5.88086 l -0.061,-0.41211 -0.059,-0.4707 -0.2344,-0.35352 -0.2363,-0.41211 -0.293,-0.29296 -0.3535,-0.23633 -0.4121,-0.17578 -0.4121,-0.11719 -0.4688,-0.0586 h -7.5898 l -0.4707,0.0586 -0.4707,0.11719 -0.4102,0.23437 -0.4121,0.35352 -0.2949,0.35351 -0.2344,0.47071 -0.1777,0.4707 v 0.4707 5.29297 0.41211 l 0.1191,0.41211 0.1172,0.35351 0.2344,0.35157 0.2363,0.29492 24.5293,24.5293 v 97.17578 H 82.579491 v -17.64649 l -0.059,-0.76562 -0.2363,-0.70508 -0.2949,-0.64648 -0.4102,-0.5879 -0.5293,-0.53124 -0.5898,-0.41016 -0.6465,-0.29492 -0.7051,-0.23438 -0.7656,-0.0605 h -14.293 l -0.4707,0.0605 -0.4707,0.17578 -0.4707,0.17578 -0.3535,0.35352 -0.3535,0.35352 -0.2344,0.4707 -0.1172,0.4707 -0.059,0.4707 v 2.5293 l 0.059,0.5293 0.1172,0.4707 0.2344,0.41016 0.3535,0.41211 0.3535,0.29492 0.4707,0.23437 0.4707,0.11914 0.4707,0.0586 h 10.9395 v 14.29297 h -57.2336 v -14.29297 h 10.9414 l 0.4707,-0.0586 0.4121,-0.0605 0.4102,-0.23438 0.3535,-0.23632 0.2949,-0.29297 0.2344,-0.35352 0.1777,-0.41211 0.1172,-0.41016 0.059,-0.4707 v -2.5293 l -0.059,-0.4121 -0.1172,-0.41211 -0.1777,-0.41211 -0.2344,-0.35352 -0.2949,-0.35156 -0.3535,-0.23633 -0.4102,-0.17578 -0.4121,-0.11719 -0.4707,-0.0605 h -14.2949 l -0.7637,0.0605 -0.707,0.23438 -0.6465,0.29492 -0.5879,0.41016 -0.5293,0.53124 -0.4121,0.5879 -0.2949,0.64648 -0.2344,0.70508 -0.059,0.76562 v 21.0586 l 0.059,0.70508 0.2344,0.70703 0.2949,0.70507 0.4121,0.5879 0.5293,0.53124 0.5879,0.41016 0.6465,0.29492 0.707,0.17578 0.7637,0.0586 h 313.058599 0.4707 l 0.4121,-0.11719 0.4121,-0.17578 0.3535,-0.29492 0.293,-0.29297 0.2949,-0.35352 0.1758,-0.41211 0.1172,-0.41211 v -0.4707 -2.5293 -0.4121 l -0.1172,-0.41016 -0.1758,-0.41211 -0.2949,-0.35352 -0.293,-0.29297 -0.3535,-0.29492 -0.4121,-0.17578 -0.4121,-0.11914 -0.4707,-0.0586 h -29.4102 V 9.1968861 h 29.4102 0.4707 l 0.4121,-0.11719 0.4121,-0.17773 0.3535,-0.29297 0.293,-0.29492 0.2949,-0.35352 0.1758,-0.41016 0.1172,-0.4121 v -0.41211 -2.5293 -0.4707 l -0.1172,-0.41211 -0.1758,-0.41211 -0.2949,-0.3515701 -0.293,-0.29492 -0.3535,-0.29492 -0.4121,-0.17578 -0.4121,-0.11719 h -0.4707 z m 37.0586,7.5293001 h 47.9414 v 0.8828099 l 0.059,0.41016 0.1172,0.41211 0.1777,0.41211 0.2344,0.35351 0.2949,0.35157 0.4121,0.23632 0.3516,0.17578 0.4707,0.11914 0.4121,0.0586 h 20.1758 l 0.4707,-0.0586 0.4121,-0.11914 0.4121,-0.17578 0.3535,-0.23632 0.293,-0.35157 0.2949,-0.35351 0.1758,-0.41211 0.1172,-0.41211 v -0.41016 -0.8828099 h 48 V 330.90196 h -48 v -0.82227 -0.41211 l -0.1172,-0.4707 -0.1758,-0.35352 -0.2949,-0.35351 -0.293,-0.35156 -0.3535,-0.23633 -0.4121,-0.17578 -0.4121,-0.11719 -0.4707,-0.0586 h -20.1762 l -0.4707,0.0586 -0.4707,0.11719 -0.4707,0.23437 -0.3535,0.35352 -0.3516,0.35351 -0.2363,0.47071 -0.1172,0.4707 -0.059,0.4707 v 0.82227 h -47.9414 z"
     style="fill:#212830;fill-opacity:1;stroke:#212830;stroke-width:0.0588235px;stroke-linecap:round;stroke-linejoin:round;stroke-miterlimit:4;stroke-dasharray:none;stroke-opacity:1"
     id="path835" />
</svg>
