<?xml version="1.0" encoding="UTF-8" standalone="no"?>
<svg
   xmlns:dc="http://purl.org/dc/elements/1.1/"
   xmlns:cc="http://creativecommons.org/ns#"
   xmlns:rdf="http://www.w3.org/1999/02/22-rdf-syntax-ns#"
   xmlns:svg="http://www.w3.org/2000/svg"
   xmlns="http://www.w3.org/2000/svg"
   id="svg3195"
   height="156mm"
   width="156mm"
   version="1.0">
  <metadata
     id="metadata3199">
    <rdf:RDF>
      <cc:Work
         rdf:about="">
        <dc:format>image/svg+xml</dc:format>
        <dc:type
           rdf:resource="http://purl.org/dc/dcmitype/StillImage" />
        <dc:title></dc:title>
      </cc:Work>
    </rdf:RDF>
  </metadata>
  <defs
     id="defs3" />
  <path
     id="path3193"
     d="M 82.038246,5.0384755 69.214716,40.273772 h -44.05882 v 46.88235 h 27 L 2.4500055,223.92083 l -0.17647,0.47059 -0.11764,0.47058 -0.11765,0.47059 -0.11765,0.47059 -0.0588,0.47059 -0.0588,0.47059 -0.0588,0.47058 v 0.47059 0.47059 0.47059 l 0.0588,0.47059 0.0588,0.47059 0.0588,0.47058 0.0588,0.47059 0.11764,0.47059 0.17647,0.47059 0.11765,0.47059 0.17647,0.41176 0.17647,0.47059 0.2353,0.41176 0.23529,0.41177 0.23529,0.41176 0.2353,0.41177 0.29412,0.41176 0.29411,0.35294 0.29412,0.41177 0.35294,0.35294 0.29412,0.35294 0.35294,0.29412 0.35294,0.35294 0.41177,0.29412 0.35294,0.23529 0.41176,0.29412 0.41177,0.23529 0.41176,0.2353 0.41177,0.23529 0.47058,0.17647 0.41177,0.17647 0.47059,0.17647 0.4705905,0.17647 0.41176,0.11765 0.47059,0.11765 0.47059,0.0588 0.47059,0.0588 0.52941,0.0588 0.47059,0.0588 h 0.47058 5 0.47059 l 0.47059,-0.0588 0.47059,-0.0588 0.47059,-0.0588 0.47058,-0.0588 0.47059,-0.11765 0.47059,-0.11765 0.41177,-0.17647 0.47058,-0.17647 0.47059,-0.17647 0.41177,-0.17647 0.41176,-0.23529 0.41177,-0.2353 0.41176,-0.23529 0.41177,-0.23529 0.41176,-0.29412 0.35294,-0.29412 0.35294,-0.29412 0.35294,-0.35294 0.35295,-0.35294 0.29411,-0.35294 0.29412,-0.35294 0.29412,-0.41177 0.29412,-0.35294 0.23529,-0.41176 0.23529,-0.41177 0.2353,-0.41176 0.23529,-0.41177 0.17647,-0.47058 0.17647,-0.41177 69.47059,-191.058818 0.17647,-0.41177 0.17647,-0.47059 0.2353,-0.41176 0.23529,-0.41177 0.2353,-0.41176 0.235294,-0.41176 0.29412,-0.41177 0.29411,-0.35294 0.29412,-0.35294 0.29412,-0.35294 0.35293,-0.35294 0.35294,-0.35295 0.35294,-0.29411 0.41177,-0.29412 0.35294,-0.29412 0.41176,-0.23529 0.41177,-0.29412 0.41176,-0.23529 0.41177,-0.17647 0.41176,-0.2353 0.47059,-0.17647 0.47059,-0.17647 0.41176,-0.11765 0.47059,-0.11764 0.47059,-0.11765 0.47059,-0.0588 0.47059,-0.11765 h 0.47059 l 0.47058,-0.0588 h 0.47059 128.58824 0.47059 l 0.47058,0.0588 h 0.47059 l 0.47059,0.11765 0.47059,0.0588 0.47059,0.11765 0.47058,0.11764 0.41177,0.11765 0.47059,0.17647 0.41176,0.17647 0.47059,0.17647 0.41177,0.2353 0.41179,0.23529 0.41176,0.23529 0.35295,0.2353 0.41176,0.29412 0.35294,0.29411 0.35294,0.29412 0.35294,0.35294 0.35295,0.29412 0.29411,0.35294 0.35294,0.35294 0.29412,0.41177 0.2353,0.35294 0.29411,0.41176 0.2353,0.41177 0.23529,0.41176 0.17647,0.41177 0.2353,0.41176 0.17647,0.47059 0.11764,0.41176 0.17647,0.47059 0.11765,0.47059 0.11765,0.47059 0.0588,0.41176 0.0588,0.47059 0.0588,0.47059 v 0.47059 l 0.0588,0.47059 V 523.03847 l -20.7647,-12 -0.41177,-0.23529 -0.41176,-0.17647 -0.41177,-0.23529 -0.47059,-0.17648 -0.41167,-0.11764 -0.47059,-0.17647 -0.47059,-0.11765 -0.47058,-0.11765 -0.41177,-0.0588 -0.47059,-0.0588 -0.47059,-0.0588 h -0.47058 l -0.47059,-0.0588 h -8.58824 l -0.41176,0.0588 h -0.35294 l -0.35294,0.0588 -0.35295,0.0588 -0.35294,0.0588 -0.35294,0.11765 -0.35294,0.11765 -0.35294,0.17647 -0.35294,0.11764 -0.29412,0.17648 -0.29412,0.23529 -0.35294,0.17647 -0.29412,0.23529 -0.23529,0.2353 -0.29412,0.23529 -0.23529,0.29412 -0.2353,0.29412 -0.23529,0.29412 -0.23529,0.29411 -0.17647,0.29412 -0.17648,0.35294 -0.17647,0.29412 -0.11764,0.35294 -0.11765,0.35294 -0.11765,0.35294 -0.0588,0.35294 -0.0588,0.35295 -0.0588,0.41176 -0.0588,0.35294 v 0.35294 0.35294 l 0.0588,0.41177 0.0588,0.35294 0.0588,0.35294 0.0588,0.35294 0.11765,0.35294 0.11765,0.35294 0.11764,0.35295 0.17647,0.29411 0.17648,0.35294 31.7647,55.05883 0.35294,0.52941 0.29412,0.47059 0.35294,0.52941 0.35294,0.47059 0.41177,0.52941 0.35294,0.41176 0.41176,0.47059 0.47059,0.47059 0.41177,0.41177 0.47058,0.41176 0.47059,0.41176 0.47059,0.35295 0.47059,0.35294 0.47059,0.35294 0.52941,0.35294 0.52941,0.35294 0.52941,0.29412 0.52941,0.23529 0.58824,0.29412 0.52941,0.23529 0.58824,0.2353 0.58823,0.23529 0.52941,0.17647 0.58824,0.17647 0.58823,0.11765 0.64706,0.17647 0.58824,0.11765 0.58823,0.0588 0.58824,0.11765 0.64706,0.0588 h 0.58823 l 0.58824,0.0588 h 0.64706 l 0.58823,-0.0588 h 0.64706 l 0.58824,-0.11764 0.58823,-0.0588 0.58824,-0.11765 0.64706,-0.11764 0.58823,-0.11765 0.58824,-0.17647 0.58823,-0.17647 0.58824,-0.17647 0.52941,-0.2353 0.58823,-0.23529 0.52942,-0.23529 0.58823,-0.29412 0.52941,-0.2353 0.52941,-0.35294 0.52942,-0.29411 0.47058,-0.35295 0.52942,-0.35294 0.47058,-0.35294 0.47059,-0.41176 0.47059,-0.35294 0.47059,-0.41177 0.41176,-0.47059 0.41177,-0.41176 0.41176,-0.47059 0.41177,-0.47059 0.35294,-0.47059 0.35294,-0.52941 0.35294,-0.47059 0.35294,-0.52941 0.29412,-0.52941 0.29412,-0.52941 0.29412,-0.52941 0.23529,-0.58823 0.23529,-0.52941 0.2353,-0.58824 0.17647,-0.58823 0.17647,-0.58824 0.17647,-0.58823 0.17647,-0.58824 0.11765,-0.58823 0.11764,-0.58824 0.0588,-0.64706 0.0588,-0.58823 0.0588,-0.58824 0.0588,-0.64706 v -0.58823 -520.411768 -0.47058 l 0.0588,-0.47059 0.0588,-0.47059 0.0588,-0.47059 0.0588,-0.47059 0.11765,-0.47058 0.11765,-0.47059 0.17647,-0.47059 0.11764,-0.41177 0.17648,-0.47058 0.23529,-0.41177 0.23529,-0.47059 0.2353,-0.41176 0.23529,-0.41177 0.2353,-0.35294 0.29411,-0.41176 0.29412,-0.35294 0.35294,-0.35294 0.29412,-0.35295 0.35294,-0.35294 0.35294,-0.35294 0.35294,-0.29412 0.41177,-0.29411 0.41176,-0.2353 0.35294,-0.29412 0.47059,-0.23529 0.41177,-0.23529 0.41176,-0.17647 0.47059,-0.17647 0.41176,-0.17648 0.47059,-0.17647 0.47059,-0.11764 0.47059,-0.11765 0.47059,-0.11765 0.47059,-0.0588 0.47058,-0.0588 0.47059,-0.0588 h 0.47059 0.47059 l 231.05882,5.82353 h 0.88236 l 0.82352,0.0588 0.82353,0.0588 0.82353,0.11765 0.82353,0.11764 0.82353,0.11765 0.82353,0.17647 0.82353,0.17647 0.82353,0.17647 0.82353,0.2353 0.82353,0.17647 0.76471,0.29411 0.82352,0.2353 0.76471,0.29412 0.76471,0.29411 0.82353,0.35294 0.7647,0.35295 0.70588,0.35294 0.76471,0.35294 0.76471,0.41176 0.70588,0.41177 0.70588,0.41176 0.70588,0.47059 0.70589,0.47059 0.70588,0.47059 0.64706,0.52941 0.70588,0.47059 0.64706,0.52941 0.58823,0.58823 0.64706,0.52942 0.58824,0.58823 0.64706,0.58824 0.52941,0.58823 0.58823,0.64706 0.52941,0.58824 0.58824,0.64705 0.52941,0.64706 0.47059,0.70589 0.47059,0.64705 0.52941,0.70589 0.41176,0.70588 0.47059,0.70588 0.41177,0.70588 0.41176,0.76471 0.41177,0.76471 0.35294,0.70588 0.35294,0.7647 0.35294,0.76471 0.29412,0.76471 0.29412,0.82353 0.29411,0.7647 0.2353,0.82353 0.23529,0.76471 0.2353,0.82353 0.17647,0.82353 0.23529,0.82352 0.11765,0.82353 0.17647,0.82353 0.11765,0.82353 0.11764,0.82353 0.0588,0.82353 0.0588,0.88235 0.0588,0.82353 v 0.82353 l 6.05883,341.352938 v 0.64706 l -0.0588,0.70589 v 0.70588 l -0.0588,0.64706 -0.0588,0.64706 -0.11765,0.70588 -0.11765,0.64706 -0.11765,0.64706 -0.17647,0.70588 -0.17647,0.64706 -0.17647,0.64706 -0.23529,0.64705 -0.17647,0.64706 -0.29412,0.58824 -0.23529,0.64706 -0.29412,0.64706 -0.29412,0.58823 -0.29412,0.58824 -0.35294,0.58823 -0.35294,0.58824 -0.35294,0.58823 -0.41176,0.52941 -0.41177,0.52942 -0.41176,0.52941 -0.41158,0.52939 -0.47059,0.52941 -0.41176,0.47059 -0.52941,0.52941 -0.47059,0.47059 -0.47059,0.41176 -0.52941,0.47059 -0.52941,0.41177 -0.52942,0.41176 -0.58823,0.41177 -0.52941,0.35294 -0.58824,0.35294 -0.58823,0.35294 -0.58824,0.35294 -0.58823,0.29412 -0.58824,0.29412 -0.64706,0.29411 -0.64706,0.2353 -0.58823,0.23529 -0.64706,0.2353 -0.64706,0.17647 -0.64706,0.17647 -0.70588,0.17647 -0.64706,0.17647 -0.64706,0.11765 -0.64706,0.11764 -0.70588,0.0588 -0.64706,0.0588 -0.70588,0.0588 -0.64706,0.0588 h -0.70588 -27.70588 -0.94118 l -1,0.0588 h -0.94118 l -0.94117,0.11765 -0.94118,0.0588 -0.94118,0.11765 -0.94117,0.11765 -1,0.11764 -0.94118,0.17647 -0.94118,0.17647 -0.88235,0.2353 -0.94118,0.23529 -0.94117,0.2353 -0.94118,0.23529 -0.88235,0.29412 -0.94118,0.29412 -0.88235,0.29411 -0.88235,0.35294 -0.88236,0.35295 -0.88235,0.35294 -0.88235,0.41176 -0.88236,0.41177 -0.82352,0.41176 -0.88236,0.47059 -0.82353,0.41176 -0.82353,0.47059 -0.82353,0.52941 -0.82353,0.47059 -0.82352,0.52941 -0.76471,0.58824 -0.76471,0.52941 -0.7647,0.58824 -0.76471,0.58823 -0.7647,0.58824 -0.70589,0.64706 -0.70588,0.58823 -0.70588,0.64706 -0.70588,0.70588 -0.64706,0.64706 -0.70588,0.70588 -0.64706,0.70589 -0.58824,0.70588 -0.64706,0.7647 -0.58823,0.70589 -0.58824,0.7647 -0.58823,0.76471 -0.52942,0.7647 -0.58823,0.82353 -0.52941,0.76471 -0.47059,0.82353 -0.52941,0.82353 -0.47059,0.82353 -0.47059,0.82353 -0.41176,0.88235 -0.41177,0.82353 -0.41176,0.88235 -0.41177,0.88236 -0.35294,0.88235 -0.35294,0.88235 -0.35294,0.88235 -0.29412,0.94118 -0.29412,0.88235 -0.29411,0.94118 -0.2353,0.88235 -0.23529,0.94118 -0.2353,0.94118 -0.23529,0.94117 -0.17647,0.94118 -0.17647,0.94118 -0.11765,0.94117 -0.11765,0.94118 -0.11764,0.94117 -0.11765,1 -0.0588,0.94118 -0.0588,0.94118 v 0.94117 1 45.52942 0.47058 0.47059 l 0.0588,0.47059 0.0588,0.47059 0.11765,0.47059 0.11764,0.47059 0.11765,0.47058 0.11765,0.47059 0.17647,0.41177 0.17647,0.47058 0.17647,0.41177 0.23529,0.41176 0.2353,0.41177 0.23529,0.41176 0.29412,0.41177 0.23529,0.41176 0.29412,0.35294 0.35294,0.35295 0.29412,0.35294 0.35294,0.35294 0.35294,0.29412 0.35294,0.29411 0.41177,0.29412 0.35294,0.29412 0.41176,0.23529 0.41177,0.2353 0.41176,0.23529 0.41177,0.23529 0.47059,0.17648 0.41176,0.17647 0.47059,0.17647 0.47059,0.11764 0.47059,0.11765 0.47058,0.11765 0.47059,0.0588 0.47059,0.0588 0.47059,0.0588 h 0.47059 0.47059 0.47058 l 0.47059,-0.0588 0.47059,-0.0588 0.47059,-0.0588 0.47059,-0.0588 0.47059,-0.11764 0.47058,-0.17647 0.41177,-0.11765 0.47059,-0.17647 0.41176,-0.17647 0.47059,-0.2353 0.41176,-0.17647 0.41177,-0.23529 0.41176,-0.29412 0.35294,-0.23529 0.41177,-0.29412 0.35294,-0.29412 0.35294,-0.35294 0.35294,-0.29412 13.11765,-13.11753 0.23529,-0.2353 0.2353,-0.29412 0.23529,-0.29411 0.17647,-0.29412 0.2353,-0.35294 0.17647,-0.29412 0.11764,-0.35294 0.17648,-0.35294 0.11764,-0.35294 0.11765,-0.35294 0.0588,-0.35295 0.0588,-0.35294 0.0588,-0.35294 0.0588,-0.35294 v -0.41176 -0.35294 l -0.0587,-0.35295 -0.0588,-0.35294 -0.0588,-0.35294 -0.0588,-0.41176 -0.11765,-0.35294 -0.11764,-0.29412 -0.17648,-0.35294 -0.11764,-0.35294 -0.17647,-0.29412 -0.2353,-0.35294 -0.17647,-0.29412 -0.23529,-0.29412 -0.2353,-0.29412 -0.23536,-0.23529 -1.58824,-1.52941 -0.29411,-0.35294 -0.29412,-0.35294 -0.29412,-0.35295 -0.29412,-0.35294 -0.23529,-0.41176 -0.29412,-0.35294 -0.17647,-0.41177 -0.23529,-0.41176 -0.2353,-0.41177 -0.17647,-0.41176 -0.17647,-0.41177 -0.11764,-0.47058 -0.11765,-0.41177 -0.11765,-0.47059 -0.11765,-0.41176 -0.0588,-0.47059 -0.0588,-0.47059 -0.0588,-0.47059 -0.0589,-0.47058 v -0.41177 -16.29412 -0.64706 l 0.0588,-0.70588 0.0588,-0.64706 0.0588,-0.70588 0.0588,-0.70588 0.11765,-0.64706 0.11765,-0.64706 0.17647,-0.70588 0.17647,-0.64706 0.17647,-0.64706 0.17647,-0.64706 0.23529,-0.64706 0.2353,-0.64706 0.29412,-0.64705 0.23529,-0.58824 0.35294,-0.64706 0.29412,-0.58823 0.35294,-0.58824 0.29412,-0.58823 0.41176,-0.58824 0.35294,-0.52941 0.41177,-0.58824 0.41176,-0.52941 0.41177,-0.52941 0.47059,-0.52941 0.47058,-0.47059 0.47059,-0.52941 0.47059,-0.47059 0.52941,-0.47059 0.52941,-0.41176 0.47059,-0.47059 0.58824,-0.41177 0.52941,-0.35294 0.58824,-0.41176 0.52941,-0.35294 0.58823,-0.35294 0.64706,-0.35295 0.58824,-0.29411 0.58823,-0.29412 0.64706,-0.29412 0.64706,-0.23529 0.58823,-0.2353 0.64706,-0.23529 0.64706,-0.2353 0.70588,-0.17647 0.64706,-0.17647 0.64706,-0.11764 0.64706,-0.11765 0.70588,-0.11765 0.64706,-0.11764 0.70588,-0.0588 0.70589,-0.0588 h 0.64706 l 0.70588,-0.0588 h 46.88235 l 0.17647,0.47059 0.2353,0.41177 0.23529,0.41176 0.23529,0.41177 0.2353,0.35294 0.29412,0.41176 0.29411,0.35294 0.29412,0.35295 0.35294,0.35294 0.29412,0.29411 0.35294,0.35295 0.35294,0.29411 0.41177,0.29412 0.35294,0.23529 0.41176,0.29412 0.41177,0.2353 0.41176,0.23529 0.41177,0.17647 0.41176,0.17647 0.41177,0.17647 0.47058,0.17647 0.41177,0.11765 0.47059,0.11765 0.47059,0.11764 0.47058,0.11765 0.47059,0.0588 h 0.47059 l 0.47059,0.0588 h 0.47059 5.64705 0.4706 l 0.4706,-0.0588 h 0.4706 l 0.4706,-0.0588 0.4705,-0.11765 0.4706,-0.11764 0.41189,-0.11773 0.4706,-0.11765 0.4706,-0.17647 0.4117,-0.17647 0.4118,-0.17647 0.4706,-0.23529 0.4118,-0.2353 0.3529,-0.23529 0.4118,-0.2353 0.4117,-0.29411 0.353,-0.29412 0.3529,-0.29412 0.353,-0.29412 0.3529,-0.35294 0.2941,-0.35294 0.2941,-0.35294 0.2941,-0.41176 0.2942,-0.35295 0.2353,-0.41176 0.2353,-0.41176 0.2352,-0.41177 0.2353,-0.41176 0.1765,-0.41177 0.1765,-0.47059 0.1765,-0.41176 0.1176,-0.47059 0.1176,-0.47059 0.1177,-0.41176 0.1176,-0.47059 0.059,-0.47059 0.059,-0.47059 v -0.47059 -0.47058 -445.764708 -0.47059 -0.47059 l -0.059,-0.47058 -0.059,-0.47059 -0.1176,-0.47059 -0.1177,-0.47059 -0.1176,-0.47059 -0.1176,-0.41176 -0.1765,-0.470591 -0.1765,-0.411764 -0.1765,-0.470589 -0.2353,-0.411764 -0.2352,-0.411765 -0.2353,-0.411765 -0.2353,-0.352941 -0.2942,-0.4117655 -0.2941,-0.352941 -0.2941,-0.352941 -0.2941,-0.352941 -0.3529,-0.352941 -0.353,-0.294118 -0.3529,-0.352941 -0.353,-0.294118 -0.4117,-0.235294 -0.4118,-0.294117 -0.3529,-0.235295 -0.4118,-0.235294 -0.4706,-0.17647 -0.4118,-0.235294 -0.4117,-0.176471 -0.4706,-0.117647 -0.4706,-0.176471 -0.4118,-0.117647 -0.4706,-0.117647 -0.4705,-0.05882 -0.4706,-0.05882 -0.4706,-0.05882 h -0.4706 l -0.4706,-0.05882 z"
     style="fill:#212830;fill-opacity:1;stroke:#212830;stroke-width:0.0588235px;stroke-linecap:round;stroke-linejoin:round;stroke-miterlimit:4;stroke-dasharray:none;stroke-opacity:1" />
</svg>
