<?xml version="1.0" encoding="UTF-8" standalone="no"?>
<svg
   xmlns:dc="http://purl.org/dc/elements/1.1/"
   xmlns:cc="http://creativecommons.org/ns#"
   xmlns:rdf="http://www.w3.org/1999/02/22-rdf-syntax-ns#"
   xmlns:svg="http://www.w3.org/2000/svg"
   xmlns="http://www.w3.org/2000/svg"
   id="svg1137"
   height="116mm"
   width="116mm"
   version="1.0">
  <metadata
     id="metadata1141">
    <rdf:RDF>
      <cc:Work
         rdf:about="">
        <dc:format>image/svg+xml</dc:format>
        <dc:type
           rdf:resource="http://purl.org/dc/dcmitype/StillImage" />
        <dc:title></dc:title>
      </cc:Work>
    </rdf:RDF>
  </metadata>
  <defs
     id="defs3" />
  <path
     d="m 123.12585,51.918654 -0.7656,0.0586 -0.7051,0.17773 -0.6484,0.35157 -0.5879,0.41211 -0.5293,0.52929 -0.4121,0.58789 -0.293,0.64844 -0.1777,0.70508 -0.059,0.70508 v 22.589841 0.4707 l 0.1777,0.46876 0.2344,0.4707 0.2949,0.35351 0.4102,0.35352 0.4121,0.23437 0.4707,0.11914 0.4707,0.0586 h 11.707 l 0.4688,-0.0586 0.4121,-0.11914 0.4121,-0.17578 0.3535,-0.23632 0.293,-0.29297 0.2363,-0.41211 0.1758,-0.35352 0.1172,-0.41016 0.061,-0.4707 v -2.4707 l -0.061,-0.4707 -0.1172,-0.41211 -0.1758,-0.41211 -0.2363,-0.35352 -0.293,-0.29297 -0.3535,-0.23633 -0.4121,-0.23437 -0.4121,-0.0586 -0.4688,-0.0586 h -6.6484 V 59.447944 h 25.0586 v 114.412106 0.35352 l 0.1191,0.41016 0.1172,0.35351 0.2344,0.35352 0.2363,0.29297 1.7637,1.76562 -1.7637,1.76562 -0.2363,0.29297 -0.2344,0.35352 -0.1172,0.35351 -0.1191,0.41016 v 0.35352 88.4707 l -12.5293,-12.5293 v -5.88281 l -0.059,-0.41211 -0.1172,-0.41016 -0.1758,-0.4121 -0.2363,-0.35352 -0.3535,-0.29492 -0.3516,-0.29297 -0.3535,-0.17773 -0.4707,-0.11719 h -0.4121 -7.5293 -0.4707 l -0.4707,0.17773 -0.4707,0.23438 -0.3516,0.29492 -0.2949,0.41016 -0.2344,0.4121 -0.1777,0.47071 v 0.4707 5.29492 0.41211 l 0.1172,0.35156 0.1191,0.35352 0.2344,0.35352 0.2363,0.29296 24.3524,24.35352 v 96.58789 h -78.5879 v -17.58789 l -0.059,-0.70508 -0.1758,-0.70703 -0.2949,-0.64648 -0.4707,-0.64649 -0.4707,-0.4707 -0.5879,-0.41211 -0.7051,-0.35352 -0.707,-0.17578 -0.7051,-0.0586 h -14.2363 l -0.4707,0.0586 -0.4707,0.11719 -0.4102,0.23438 -0.4121,0.35351 -0.2949,0.35352 -0.2344,0.41211 -0.1172,0.4707 -0.061,0.5293 v 2.4707 l 0.061,0.5293 0.1172,0.4707 0.2344,0.41016 0.2949,0.4121 0.4121,0.29493 0.4102,0.23437 0.4707,0.11914 0.4707,0.0586 h 10.8828 v 14.23437 H 9.4184493 V 364.74287 H 20.30125 l 0.4121,-0.0586 0.4121,-0.11914 0.4102,-0.17578 0.3535,-0.23438 0.3535,-0.29492 0.2344,-0.35351 0.1777,-0.41211 0.1172,-0.41016 0.059,-0.4707 v -2.4707 l -0.059,-0.47071 -0.1172,-0.41211 -0.1777,-0.41211 -0.2344,-0.35351 -0.3535,-0.29297 -0.3535,-0.23633 -0.4102,-0.17578 -0.4121,-0.11719 -0.4121,-0.0586 H 6.0649493 l -0.7051,0.0586 -0.7051,0.17578 -0.6484,0.35352 -0.5879,0.41211 -0.5293,0.4707 -0.4121,0.64649 -0.293,0.64648 -0.2363,0.70703 -0.059,0.70508 v 20.94141 l 0.059,0.70507 0.2363,0.70704 0.293,0.64648 0.4121,0.58789 0.5293,0.5293 0.5879,0.41211 0.6484,0.29492 0.7051,0.23437 0.7051,0.0586 H 432.36025 l 0.7656,-0.0586 0.7051,-0.23437 0.6465,-0.29492 0.5879,-0.41211 0.5293,-0.5293 0.4121,-0.58789 0.2949,-0.64648 0.1758,-0.70704 0.059,-0.70507 v -20.94141 l -0.059,-0.70508 -0.1758,-0.70703 -0.2949,-0.64648 -0.4121,-0.64649 -0.5293,-0.4707 -0.5879,-0.41211 -0.6465,-0.35352 -0.7051,-0.17578 -0.7656,-0.0586 h -14.1758 l -0.5293,0.0586 -0.4707,0.11719 -0.4121,0.23438 -0.3535,0.35351 -0.3535,0.35352 -0.2344,0.41211 -0.1172,0.4707 -0.059,0.5293 v 2.4707 l 0.059,0.5293 0.1172,0.4707 0.2344,0.41016 0.3535,0.4121 0.3535,0.29493 0.4121,0.23437 0.4707,0.11914 0.5293,0.0586 h 10.8809 v 14.23437 h -56.0586 v -14.23437 h 10.8828 l 0.5293,-0.0586 0.4707,-0.11914 0.4121,-0.23437 0.3535,-0.29493 0.3516,-0.4121 0.2363,-0.41016 0.1172,-0.4707 0.059,-0.5293 v -2.4707 l -0.059,-0.5293 -0.1172,-0.4707 -0.2363,-0.41211 -0.3516,-0.35352 -0.3535,-0.35351 -0.4121,-0.23438 -0.4707,-0.11719 -0.5293,-0.0586 h -14.1758 l -0.7656,0.0586 -0.7051,0.17578 -0.6484,0.35352 -0.5879,0.41211 -0.5293,0.4707 -0.4121,0.64649 -0.293,0.64648 -0.1777,0.70703 -0.059,0.70508 v 17.58789 h -78.5879 v -96.58789 l 24.3535,-24.35352 0.293,-0.35156 0.2363,-0.4707 0.1172,-0.4707 0.059,-0.47071 v -5.29492 l -0.059,-0.4707 -0.1172,-0.47071 -0.2363,-0.4121 -0.293,-0.41016 -0.4121,-0.29492 -0.4121,-0.23438 -0.4707,-0.17773 h -0.4707 -7.5293 -0.5293 l -0.4707,0.17773 -0.4121,0.23438 -0.4102,0.29492 -0.2949,0.41016 -0.2344,0.4121 -0.1191,0.47071 -0.059,0.4707 v 5.88281 l -12.5285,12.5293 v -88.4707 l -0.059,-0.35352 -0.059,-0.41016 -0.1758,-0.35351 -0.1777,-0.35352 -0.293,-0.29297 -1.7656,-1.76562 1.7656,-1.76562 0.293,-0.29297 0.1777,-0.35352 0.1758,-0.35351 0.059,-0.41016 0.059,-0.35352 V 59.447944 h 25.0586 v 14.236331 h -6.7051 l -0.4121,0.0586 -0.4121,0.0586 -0.4121,0.23437 -0.3516,0.23633 -0.2949,0.29297 -0.2344,0.35352 -0.2363,0.41211 -0.1172,0.41211 v 0.4707 2.4707 l 0.059,0.4707 0.1172,0.46876 0.2363,0.4707 0.293,0.35351 0.4121,0.35352 0.4121,0.23437 0.4707,0.11914 0.4707,0.0586 h 11.7051 l 0.4707,-0.0586 0.4121,-0.11914 0.4121,-0.17578 0.3535,-0.23632 0.293,-0.29297 0.2363,-0.41211 0.1758,-0.35352 0.1172,-0.41016 0.059,-0.4707 V 56.094444 l -0.059,-0.70508 -0.1758,-0.70508 -0.2949,-0.64844 -0.4707,-0.58789 -0.4707,-0.52929 -0.5879,-0.41211 -0.7051,-0.35157 -0.707,-0.17773 -0.7051,-0.0586 z m 35.9395,7.52929 h 47.6484 v 0.82422 l 0.059,0.5293 0.1172,0.4707 0.2363,0.41211 0.293,0.410161 0.4121,0.29492 0.4121,0.23438 0.4707,0.11914 0.4707,0.0586 h 20.0586 l 0.4707,-0.0586 0.4121,-0.11914 0.4102,-0.17579 0.3535,-0.23437 0.2949,-0.29492 0.2344,-0.353521 0.1758,-0.41016 0.1191,-0.4121 0.059,-0.47071 v -0.82422 h 47.6465 V 378.97724 h -47.6465 v -0.82227 l -0.059,-0.4707 -0.1191,-0.41211 -0.1758,-0.41211 -0.2344,-0.35351 -0.2949,-0.29297 -0.3535,-0.23633 -0.4102,-0.23437 -0.4121,-0.0586 -0.4707,-0.0605 h -20.0586 l -0.4121,0.0605 -0.4121,0.0586 -0.4121,0.23437 -0.3535,0.23633 -0.293,0.29297 -0.2949,0.35351 -0.1758,0.41211 -0.1172,0.41211 v 0.4707 0.82227 h -47.6484 z"
     style="fill:#212830;fill-opacity:1;stroke:#212830;stroke-width:0.0588235px;stroke-linecap:round;stroke-linejoin:round;stroke-miterlimit:4;stroke-dasharray:none;stroke-opacity:1"
     id="path1135" />
</svg>
