<?xml version="1.0" encoding="UTF-8" standalone="no"?>
<svg
   xmlns:dc="http://purl.org/dc/elements/1.1/"
   xmlns:cc="http://creativecommons.org/ns#"
   xmlns:rdf="http://www.w3.org/1999/02/22-rdf-syntax-ns#"
   xmlns:svg="http://www.w3.org/2000/svg"
   xmlns="http://www.w3.org/2000/svg"
   id="svg2621"
   height="280mm"
   width="280mm"
   version="1.0">
  <metadata
     id="metadata2625">
    <rdf:RDF>
      <cc:Work
         rdf:about="">
        <dc:format>image/svg+xml</dc:format>
        <dc:type
           rdf:resource="http://purl.org/dc/dcmitype/StillImage" />
        <dc:title></dc:title>
      </cc:Work>
    </rdf:RDF>
  </metadata>
  <defs
     id="defs3" />
  <path
     d="m 0.92761415,249.30963 v 68.41211 h 23.23633185 0.23437 l 0.29492,-0.0586 h 0.23438 l 0.23633,-0.0586 0.23437,-0.11718 0.29492,-0.0586 0.17578,-0.11914 0.23633,-0.11719 0.23438,-0.17578 0.17578,-0.11719 0.23633,-0.17773 0.17578,-0.17578 10.29492,-11.23633 0.17578,-0.17578 0.17773,-0.23438 0.11719,-0.23632 0.17578,-0.23438 0.0586,-0.23633 0.11719,-0.23437 0.0605,-0.29492 0.0586,-0.23438 0.0586,-0.29492 v -0.23438 -0.29492 -0.23632 l -0.0586,-0.29297 -0.0586,-0.23633 -0.11914,-0.29297 -0.0586,-0.23633 -0.11719,-0.23437 -0.11719,-0.23633 -0.17773,-0.23438 -0.17578,-0.23632 -0.17578,-0.17579 -0.17774,-0.17578 -0.23437,-0.17773 -0.23633,-0.17578 -0.23438,-0.11719 -0.23632,-0.11719 -0.23433,-0.11913 -0.23438,-0.0586 -0.29492,-0.11719 h -0.23632 l -0.29297,-0.0586 h -0.23633 -14.93946 V 267.95806 H 131.4569 v 31.11719 h -14.9414 -0.23438 l -0.29492,0.0586 h -0.29297 l -0.23633,0.11719 -0.23437,0.0586 -0.29492,0.11914 -0.23438,0.11719 -0.23633,0.11719 -0.17578,0.17578 -0.23632,0.17773 -0.17579,0.17578 -0.17578,0.17579 -0.17773,0.23632 -0.17578,0.23438 -0.11719,0.23633 -0.11719,0.23437 -0.11914,0.23633 -0.0586,0.29297 -0.0586,0.23633 -0.0586,0.29297 v 0.23632 0.29492 0.23437 l 0.0586,0.29492 0.0586,0.23438 0.0586,0.29492 0.0586,0.23437 0.11914,0.23633 0.11718,0.23438 0.17578,0.23632 0.17774,0.23438 0.17578,0.17578 10.29492,11.23633 0.17578,0.17578 0.23438,0.17773 0.17773,0.11719 0.23438,0.17578 0.17773,0.11719 0.23438,0.11914 0.23632,0.0586 0.29297,0.11718 0.23633,0.0586 h 0.23438 l 0.23632,0.0586 h 0.29297 35.64649 v -18.64648 h -12.41016 v -27.35352 h 99.41016 v 7.4707 0.64649 0.70703 l 0.0605,0.70508 0.0586,0.70703 0.11719,0.64648 0.11718,0.70508 0.11719,0.64844 0.11914,0.70508 0.17578,0.64648 0.17578,0.64844 0.17774,0.70508 0.23437,0.64648 0.23633,0.64844 0.23438,0.64648 0.29492,0.58789 0.29297,0.64649 0.29492,0.64844 0.29297,0.58789 0.35351,0.58789 0.35352,0.58789 0.35351,0.58789 0.41016,0.58984 0.41211,0.5293 0.41211,0.58789 0.41211,0.5293 0.4707,0.52929 0.47071,0.47071 0.4707,0.52929 0.4707,0.47071 0.5293,0.4707 0.4707,0.4707 0.5293,0.41211 0.58789,0.4707 0.5293,0.41016 0.52929,0.41211 0.58789,0.35352 0.58789,0.35351 0.5879,0.35156 0.64843,0.35352 0.23438,0.11719 0.23633,0.0586 0.23437,0.11914 0.23633,0.0586 0.29297,0.0586 h 0.23633 0.29296 0.23633 0.29297 l 0.23633,-0.0586 0.29297,-0.0586 0.23633,-0.11914 0.23437,-0.11719 0.23633,-0.11718 0.23437,-0.11719 0.23633,-0.17774 0.17578,-0.11718 0.17579,-0.17578 0.17773,-0.23633 0.17578,-0.17578 0.17773,-0.23633 0.11719,-0.23438 0.11723,-0.23634 0.11719,-0.23438 0.0586,-0.23438 0.0586,-0.29492 0.0605,-0.23632 0.0586,-0.29297 v -0.23633 -26.11719 h 43.4707 v 180.29492 h -43.4707 v -22.35351 -0.29492 l -0.0586,-0.23438 -0.0605,-0.29492 -0.0586,-0.23438 -0.0586,-0.23632 -0.11722,-0.23438 -0.11719,-0.23438 -0.11719,-0.23632 -0.17773,-0.23438 -0.17578,-0.23633 -0.17773,-0.17578 -0.17579,-0.17773 -0.17578,-0.17578 -0.23633,-0.11719 -0.23437,-0.17773 -0.23633,-0.11719 -0.23437,-0.11719 -0.23633,-0.0586 -0.29297,-0.0586 -0.23633,-0.0586 h -0.29297 l -0.23633,-0.0586 h -0.29296 l -0.23633,0.0586 -0.29297,0.0586 -0.23633,0.0586 -0.23437,0.0586 -0.23633,0.11719 -0.23438,0.11719 -0.64843,0.29492 -0.5879,0.35351 -0.58789,0.41211 -0.58789,0.35156 -0.52929,0.41211 -0.5293,0.41211 -0.58789,0.41211 -0.5293,0.47071 -0.4707,0.4121 -0.5293,0.5293 -0.4707,0.4707 -0.4707,0.46876 -0.47071,0.53124 -0.4707,0.5293 -0.41211,0.5293 -0.41211,0.5293 -0.41211,0.58789 -0.41016,0.52929 -0.35351,0.58789 -0.35352,0.58789 -0.35351,0.64844 -0.29297,0.58789 -0.29492,0.64649 -0.29297,0.58789 -0.29492,0.64843 -0.23438,0.64649 -0.23633,0.64648 -0.23437,0.64649 -0.17774,0.64844 -0.17578,0.70507 -0.17578,0.64649 -0.11914,0.64844 -0.11719,0.70507 -0.11718,0.70703 -0.11719,0.64649 -0.0586,0.70508 -0.0605,0.64843 v 0.70508 0.70508 16.17774 0.64648 0.70508 l 0.0605,0.70703 0.0586,0.70508 0.11719,0.64843 0.11718,0.70508 0.11719,0.64649 0.11914,0.70703 0.17578,0.64648 0.17578,0.64649 0.17774,0.70703 0.23437,0.64648 0.23633,0.64649 0.23438,0.64843 0.29492,0.5879 0.29297,0.64648 0.29492,0.64648 0.29297,0.5879 0.35351,0.58984 0.35352,0.58789 0.35351,0.58789 0.41016,0.58789 0.41211,0.5293 0.41211,0.58789 0.41211,0.5293 0.4707,0.53124 0.47071,0.46876 0.4707,0.53124 0.4707,0.46876 0.5293,0.4707 0.4707,0.4707 0.5293,0.41211 0.58789,0.4707 0.5293,0.41211 0.52929,0.41211 0.58789,0.35157 0.58789,0.35351 0.5879,0.35352 0.64843,0.35351 0.23438,0.11719 0.23633,0.0586 0.23437,0.11719 0.23633,0.0586 0.29297,0.0586 h 0.23633 0.29296 0.23633 0.29297 l 0.23633,-0.0586 0.29297,-0.0586 0.23633,-0.11719 0.23437,-0.11718 0.23633,-0.11914 0.23437,-0.11719 0.23633,-0.17578 0.17578,-0.11719 0.17579,-0.17774 0.17773,-0.23437 0.17578,-0.17773 0.17773,-0.23438 0.11719,-0.23438 0.11719,-0.23632 0.11719,-0.23438 0.0586,-0.23633 0.0586,-0.29297 0.0605,-0.23632 0.0586,-0.29492 v -0.23439 -12.4707 h 43.4707 v 54.76562 h 0.29297 0.23633 l 0.29296,0.0586 0.23633,0.0586 0.29297,0.11719 0.23633,0.11718 0.23437,0.11914 0.23633,0.11719 0.23438,0.17578 0.17773,0.17579 0.23438,0.17773 0.17578,0.17578 0.17773,0.23633 0.11719,0.23437 0.17578,0.23633 0.11914,0.23438 0.0586,0.29492 0.11718,0.23437 0.0586,0.29493 v 0.23437 l 0.0586,0.29492 v 0.23438 l -0.0586,0.29492 v 0.29297 l -0.0586,0.23633 -0.11718,0.29297 -0.0586,0.23632 -0.11914,0.23438 -0.17578,0.23633 -0.11719,0.23437 -0.17773,0.23633 -0.17578,0.17578 -0.23438,0.17773 -0.17773,0.17579 -0.23438,0.17578 -0.23633,0.11719 -0.23437,0.11914 -0.23633,0.11718 -0.29297,0.11719 -0.23633,0.0586 -0.29296,0.0586 h -0.23633 -0.29297 v 54.76562 h -43.4707 v -12.47072 -0.23438 l -0.0586,-0.29492 -0.0605,-0.23632 -0.0586,-0.23438 -0.0586,-0.29492 -0.11719,-0.23438 -0.11719,-0.23632 -0.11719,-0.23438 -0.17773,-0.23438 -0.17578,-0.17773 -0.17773,-0.17578 -0.17579,-0.17773 -0.17578,-0.17579 -0.23633,-0.17578 -0.23437,-0.11719 -0.23633,-0.11914 -0.23437,-0.11718 -0.23633,-0.0586 -0.29297,-0.11718 h -0.2363 l -0.29297,-0.0586 h -0.23633 -0.29296 -0.23633 l -0.29297,0.0586 -0.23633,0.0586 -0.23437,0.11719 -0.23633,0.0586 -0.23438,0.11719 -0.64843,0.35351 -0.5879,0.35352 -0.58789,0.35351 -0.58789,0.41016 -0.52929,0.35352 -0.5293,0.41211 -0.58789,0.4707 -0.5293,0.41211 -0.4707,0.4707 -0.5293,0.4707 -0.4707,0.46876 -0.4707,0.53124 -0.47071,0.46876 -0.4707,0.53124 -0.41211,0.5293 -0.41211,0.58789 -0.41211,0.5293 -0.41016,0.58789 -0.35351,0.58789 -0.35352,0.58789 -0.35351,0.58984 -0.29297,0.5879 -0.29492,0.64648 -0.29297,0.64648 -0.29492,0.5879 -0.23438,0.64843 -0.23633,0.64649 -0.23437,0.64648 -0.17774,0.70703 -0.17578,0.64649 -0.17578,0.64648 -0.11914,0.70703 -0.11719,0.64649 -0.11718,0.70508 -0.11719,0.70703 -0.0586,0.64648 -0.0605,0.70703 v 0.70506 0.64648 16.17774 0.70508 0.70508 l 0.0605,0.64843 0.0586,0.70508 0.11719,0.70703 0.11718,0.64649 0.11719,0.70507 0.11914,0.64844 0.17578,0.70508 0.17578,0.64648 0.17774,0.64844 0.23437,0.64649 0.23633,0.64648 0.23438,0.64649 0.29492,0.64843 0.29297,0.64649 0.29492,0.58789 0.29297,0.64843 0.35351,0.5879 0.35352,0.58789 0.35351,0.58789 0.41016,0.52929 0.41211,0.58789 0.41211,0.5293 0.41211,0.5293 0.4707,0.5293 0.47071,0.53124 0.4707,0.46876 0.4707,0.53124 0.5293,0.46876 0.4707,0.4121 0.5293,0.47071 0.58789,0.41211 0.5293,0.41211 0.52929,0.41211 0.58789,0.35156 0.58789,0.41211 0.5879,0.35351 0.64843,0.29492 0.23438,0.11719 0.23633,0.11719 0.23437,0.0586 0.23633,0.0586 0.29297,0.0586 0.23633,0.0586 h 0.29296 0.23633 l 0.29297,-0.0586 0.23633,-0.0586 0.29297,-0.0586 0.23633,-0.0586 0.23437,-0.11719 0.23633,-0.11719 0.23437,-0.11914 0.23633,-0.17578 0.17578,-0.17578 0.17579,-0.17773 0.17773,-0.17578 0.17578,-0.23633 0.17773,-0.23438 0.11719,-0.17578 0.11719,-0.23633 0.11719,-0.29297 0.0586,-0.23632 0.0586,-0.23438 0.0605,-0.29492 0.0586,-0.23438 v -0.29492 -22.35351 h 43.4707 v 180.29492 h -43.4707 v -26.11719 -0.23633 l -0.0586,-0.29297 -0.0605,-0.23632 -0.0586,-0.23438 -0.0586,-0.29492 -0.11719,-0.23438 -0.11719,-0.23632 -0.11719,-0.23438 -0.17773,-0.23633 -0.17578,-0.17578 -0.17773,-0.17773 -0.17579,-0.17578 -0.17578,-0.17578 -0.23633,-0.17774 -0.23437,-0.11719 -0.23633,-0.11718 -0.23437,-0.11719 -0.23633,-0.0586 -0.29297,-0.11914 h -0.23633 l -0.29297,-0.0586 h -0.23633 -0.29296 -0.23633 l -0.29297,0.0586 -0.23633,0.0586 -0.23437,0.11914 -0.23633,0.0586 -0.23438,0.11719 -0.64843,0.35352 -0.5879,0.35156 -0.58789,0.35351 -0.58789,0.41211 -0.52929,0.35352 -0.5293,0.41016 -0.58789,0.4707 -0.5293,0.41211 -0.4707,0.4707 -0.5293,0.4707 -0.4707,0.47071 -0.4707,0.52929 -0.47071,0.47071 -0.4707,0.52929 -0.41211,0.5293 -0.41211,0.58789 -0.41211,0.5293 -0.41016,0.58984 -0.35351,0.58789 -0.35352,0.58789 -0.35351,0.58789 -0.29297,0.58789 -0.29492,0.64844 -0.29297,0.64649 -0.29492,0.58789 -0.23438,0.64648 -0.23633,0.64844 -0.23437,0.70508 -0.17774,0.64648 -0.17578,0.64844 -0.17578,0.64648 -0.11914,0.70508 -0.11719,0.64844 -0.11718,0.70508 -0.11719,0.70508 -0.0586,0.64843 -0.0605,0.70508 v 0.70703 0.64649 29.88281 H 783.92761 V 703.25104 H 908.16392 V 680.83893 H 870.92761 V 271.72174 h 37.23631 v 46 h 23.2344 0.2949 l 0.2344,-0.0586 h 0.2363 l 0.2344,-0.0586 0.2949,-0.11718 0.2344,-0.0586 0.2363,-0.11914 0.1758,-0.11719 0.2363,-0.17578 0.2344,-0.11719 0.1758,-0.17773 0.1777,-0.17578 10.293,-11.23633 0.1777,-0.17578 0.1758,-0.23438 0.1758,-0.23632 0.1191,-0.23438 0.1172,-0.23633 0.059,-0.23437 0.059,-0.29492 0.059,-0.23438 0.059,-0.29492 v -0.23438 -0.29492 -0.23632 l -0.059,-0.29297 -0.059,-0.23633 -0.059,-0.29297 -0.1172,-0.23633 -0.1191,-0.23437 -0.1172,-0.23633 -0.1758,-0.23438 -0.1758,-0.23632 -0.1777,-0.17579 -0.1758,-0.17578 -0.2363,-0.17773 -0.1758,-0.17578 -0.2344,-0.11719 -0.2363,-0.11719 -0.2949,-0.11914 -0.2348,-0.0586 -0.2344,-0.11719 h -0.2949 l -0.2949,-0.0586 h -0.2344 -14.9414 v -31.11719 h 111.88278 v 31.11719 h -14.9414 -0.2363 l -0.293,0.0586 h -0.2363 l -0.293,0.11719 -0.2363,0.0586 -0.2344,0.11914 -0.2363,0.11719 -0.2344,0.11719 -0.2363,0.17578 -0.2344,0.17773 -0.1758,0.17578 -0.1777,0.17579 -0.1758,0.23632 -0.1172,0.23438 -0.1777,0.23633 -0.1172,0.23437 -0.059,0.23633 -0.1172,0.29297 -0.059,0.23633 -0.061,0.29297 v 0.23632 0.29492 0.23437 l 0.061,0.29492 0.059,0.23438 0.059,0.29492 0.1172,0.23437 0.059,0.23633 0.1777,0.23438 0.1172,0.23632 0.1758,0.23438 0.1758,0.17578 10.2949,11.23633 0.1758,0.17578 0.2363,0.17773 0.1758,0.11719 0.2363,0.17578 0.2344,0.11719 0.2363,0.11914 0.2344,0.0586 0.2363,0.11718 0.2344,0.0586 h 0.2363 l 0.293,0.0586 h 0.2363 23.2344 V 249.30964 Z M 333.9862,271.72174 h 514.5293 v 409.11719 h -87 V 786.54596 H 333.9862 v -83.29492 h 24.88281 V 680.83893 H 333.9862 Z"
     style="fill:#212830;fill-opacity:1;stroke:#212830;stroke-width:0.0588235px;stroke-linecap:round;stroke-linejoin:round;stroke-miterlimit:4;stroke-dasharray:none;stroke-opacity:1"
     id="path2617" />
</svg>
