<?xml version="1.0" encoding="UTF-8" standalone="no"?>
<svg
   xmlns:dc="http://purl.org/dc/elements/1.1/"
   xmlns:cc="http://creativecommons.org/ns#"
   xmlns:rdf="http://www.w3.org/1999/02/22-rdf-syntax-ns#"
   xmlns:svg="http://www.w3.org/2000/svg"
   xmlns="http://www.w3.org/2000/svg"
   id="svg909"
   height="90mm"
   width="90mm"
   version="1.0">
  <metadata
     id="metadata913">
    <rdf:RDF>
      <cc:Work
         rdf:about="">
        <dc:format>image/svg+xml</dc:format>
        <dc:type
           rdf:resource="http://purl.org/dc/dcmitype/StillImage" />
        <dc:title></dc:title>
      </cc:Work>
    </rdf:RDF>
  </metadata>
  <defs
     id="defs3" />
  <path
     d="m 128.01917,1.667606 -0.76367,0.0586 -0.70703,0.17578 -0.64649,0.29492 -0.58789,0.41211 -0.52929,0.5293001 -0.41211,0.58789 -0.35352,0.70507 -0.17578,0.70704 -0.0586,0.70507 V 28.609016 l 0.0586,0.41016 0.11719,0.4121 0.17773,0.41211 0.23438,0.35352 0.29492,0.35351 0.41016,0.23438 0.35351,0.17578 0.4707,0.11914 0.41211,0.0586 h 11.76368 l 0.4707,-0.0586 0.41211,-0.11914 0.41211,-0.17578 0.35351,-0.23438 0.29297,-0.35351 0.29492,-0.35352 0.17578,-0.41211 0.11914,-0.4121 v -0.41016 -18.5293 h 16.82227 V 122.7262 l 0.0586,0.4707 0.17774,0.4707 0.23437,0.47071 0.29493,0.35156 3.4707,3.4707 -3.4707,3.4707 -0.29493,0.41211 -0.23437,0.41211 -0.17774,0.47071 -0.0586,0.52929 v 87.35352 l -2.17578,-0.17774 -2.11719,-0.58789 -2,-0.9414 -1.82422,-1.23438 -1.52929,-1.58789 -1.23633,-1.76562 -0.93946,-2 -0.58984,-2.11719 -0.17578,-2.23633 v -5.88086 l -0.0586,-0.41211 -0.11719,-0.4707 -0.17774,-0.35352 -0.23437,-0.41211 -0.35352,-0.29296 -0.35351,-0.23633 -0.35156,-0.17578 -0.47071,-0.11719 -0.41211,-0.0586 h -7.58789 l -0.41211,0.0586 -0.4707,0.11719 -0.35352,0.17578 -0.35156,0.23633 -0.35351,0.29296 -0.23633,0.41211 -0.17578,0.35352 -0.11719,0.4707 -0.0586,0.41211 v 25.29297 l 0.0586,0.70703 0.23437,0.70508 0.29493,0.64648 0.41211,0.64844 0.52929,0.4707 0.58789,0.46876 0.64649,0.29492 0.70703,0.17578 0.76367,0.0605 h 21 v 98.5293 H 78.372691 v -16.82418 l -0.11719,-0.76562 -0.17773,-0.70508 -0.29297,-0.64648 -0.41211,-0.5879 -0.5293,-0.53124 -0.58789,-0.41016 -0.70703,-0.29492 -0.70508,-0.23438 -0.70508,-0.0605 h -14.29492 l -0.4707,0.0605 -0.41211,0.11719 -0.41211,0.17578 -0.35156,0.23633 -0.29493,0.35156 -0.23437,0.35352 -0.23633,0.41211 -0.11719,0.41211 v 0.4121 3.35157 0.4707 l 0.11719,0.41211 0.23633,0.41211 0.23437,0.35351 0.29493,0.29297 0.35156,0.29493 0.41211,0.17578 0.41211,0.11718 h 0.4707 8.41211 v 12.64844 h -52.17773 v -12.64844 h 8.4121 0.41211 l 0.41211,-0.11718 0.41211,-0.17578 0.35157,-0.29493 0.35351,-0.29297 0.23633,-0.35351 0.17578,-0.41211 0.11719,-0.41211 0.0586,-0.4707 v -3.35157 l -0.0586,-0.4121 -0.11719,-0.41211 -0.17578,-0.41211 -0.23633,-0.35352 -0.35351,-0.35156 -0.35157,-0.23633 -0.41211,-0.17578 -0.41211,-0.11719 -0.41211,-0.0605 h -14.29296 l -0.7656299,0.0605 -0.70508,0.23438 -0.64843,0.29492 -0.5879,0.41016 -0.52929,0.53124 -0.4121101,0.5879 -0.35156,0.64648 -0.17774,0.70508 -0.0586,0.76562 v 21.0586 l 0.0586,0.70508 0.17774,0.70703 0.35156,0.70507 0.4121101,0.5879 0.52929,0.53124 0.5879,0.41016 0.64843,0.29492 0.70508,0.17578 0.7656299,0.0586 H 330.01917 l 0.70703,-0.0586 0.70508,-0.17578 0.64649,-0.29492 0.58984,-0.41016 0.5293,-0.53124 0.4121,-0.5879 0.35157,-0.70507 0.17773,-0.70703 0.0586,-0.70508 v -26.94141 l -0.0586,-0.4707 -0.11914,-0.41211 -0.17578,-0.41016 -0.23438,-0.35351 -0.29492,-0.29493 -0.35351,-0.29296 -0.41211,-0.17774 -0.41016,-0.11719 h -0.4707 -5.88281 -0.41211 l -0.47071,0.11719 -0.35351,0.17774 -0.41016,0.29296 -0.29492,0.29493 -0.23438,0.35351 -0.17773,0.41016 -0.11719,0.41211 -0.0586,0.4707 v 20.17773 H 300.54846 V 12.609016 h 22.70703 v 20.17578 l 0.0586,0.4707 0.11719,0.41211 0.17773,0.41211 0.23438,0.35156 0.29492,0.29493 0.41016,0.29297 0.35351,0.17773 0.47071,0.11719 h 0.41211 5.88281 0.4707 l 0.41016,-0.11719 0.41211,-0.17773 0.35351,-0.29297 0.29492,-0.29493 0.23438,-0.35156 0.17578,-0.41211 0.11914,-0.41211 0.0586,-0.4707 V 5.8433861 l -0.0586,-0.70507 -0.17773,-0.70704 -0.35157,-0.70507 -0.4121,-0.58789 -0.5293,-0.5293001 -0.58984,-0.41211 -0.64649,-0.29492 -0.70508,-0.17578 -0.70703,-0.0586 z m 37.88281,8.41211 h 126.23633 v 72.23438 l -1.82422,1.76562 -0.23632,0.35156 -0.23438,0.35352 -0.17578,0.41211 -0.0586,0.4707 v 0.41211 l 0.0586,0.41016 0.17578,0.41211 0.23438,0.41211 0.23632,0.35351 1.82422,1.76367 v 77.058594 l -1.82422,1.82422 -0.23632,0.29492 -0.23438,0.41016 -0.17578,0.4121 -0.0586,0.41211 v 0.47071 l 0.0586,0.41211 0.17578,0.41211 0.23438,0.4121 0.23632,0.29297 1.82422,1.82422 v 77.0586 l -1.82422,1.76367 -0.23632,0.35351 -0.23438,0.41211 -0.17578,0.41211 -0.0586,0.41211 v 0.41016 l 0.0586,0.4707 0.17578,0.41211 0.23438,0.35352 0.23632,0.35351 1.82422,1.76367 v 72.23633 H 165.90198 v -72.23633 l 1.76563,-1.76367 0.29297,-0.35351 0.17773,-0.35352 0.17578,-0.41211 0.0586,-0.4707 v -0.41016 l -0.0586,-0.41211 -0.17578,-0.41211 -0.17773,-0.41211 -0.29297,-0.35351 -1.76563,-1.76367 v -77.0586 l 1.76563,-1.82422 0.29297,-0.29297 0.17773,-0.4121 0.17578,-0.41211 0.0586,-0.41211 v -0.47071 l -0.0586,-0.41211 -0.17578,-0.4121 -0.17773,-0.41016 -0.29297,-0.29492 -1.76563,-1.82422 V 89.431276 l 1.76563,-1.76367 0.29297,-0.35351 0.17773,-0.41211 0.17578,-0.41211 0.0586,-0.41016 v -0.41211 l -0.0586,-0.4707 -0.17578,-0.41211 -0.17773,-0.35352 -0.29297,-0.35156 -1.76563,-1.76562 z"
     style="fill:#212830;fill-opacity:1;stroke:#212830;stroke-width:0.0588235px;stroke-linecap:round;stroke-linejoin:round;stroke-miterlimit:4;stroke-dasharray:none;stroke-opacity:1"
     id="path907" />
</svg>
