<?xml version="1.0" encoding="UTF-8" standalone="no"?>
<svg
   xmlns:dc="http://purl.org/dc/elements/1.1/"
   xmlns:cc="http://creativecommons.org/ns#"
   xmlns:rdf="http://www.w3.org/1999/02/22-rdf-syntax-ns#"
   xmlns:svg="http://www.w3.org/2000/svg"
   xmlns="http://www.w3.org/2000/svg"
   id="svg3185"
   height="152mm"
   width="152mm"
   version="1.0">
  <metadata
     id="metadata3189">
    <rdf:RDF>
      <cc:Work
         rdf:about="">
        <dc:format>image/svg+xml</dc:format>
        <dc:type
           rdf:resource="http://purl.org/dc/dcmitype/StillImage" />
        <dc:title></dc:title>
      </cc:Work>
    </rdf:RDF>
  </metadata>
  <defs
     id="defs3" />
  <path
     d="m 532.65485,0.36128037 -0.3535,0.05859 -0.3516,0.06055 -0.3535,0.117187 -0.3535,0.117188 -0.293,0.175781 -0.2949,0.23632803 -0.293,0.175782 -0.2363,0.236328 -0.2344,0.292968 -0.2363,0.294922 -0.1758,0.292969 -0.1777,0.294922 -0.1758,0.353515 -0.059,0.351563 -0.1172,0.294922 v 0.412109 l -0.059,0.353516 V 15.656202 l 0.059,0.294922 V 16.1855 l 0.059,0.234375 0.1172,0.236328 0.1172,0.234375 0.1191,0.236328 0.1758,0.175782 0.1758,0.177734 7.3535,6.822268 0.2344,0.17773 0.1777,0.11719 0.293,0.11719 0.2363,0.11718 0.2344,0.0586 0.2949,0.0605 h 0.2949 0.2344 l 0.2949,-0.0605 0.2344,-0.11719 0.2363,-0.11719 0.2344,-0.11718 0.2344,-0.17774 0.1777,-0.17578 0.1758,-0.17578 0.1777,-0.23633 0.1172,-0.23437 0.1172,-0.23633 0.059,-0.29297 0.059,-0.23633 v -0.29297 -9.824217 h 20.4707 V 86.41988 h -20.4707 v -9.82227 -0.29492 l -0.059,-0.23438 -0.059,-0.29492 -0.1172,-0.23437 -0.1172,-0.23633 -0.1777,-0.23438 -0.1758,-0.17773 -0.1777,-0.17578 -0.2344,-0.17578 -0.2344,-0.11914 -0.2363,-0.11719 -0.2344,-0.11719 -0.2949,-0.05859 h -0.2344 -0.2949 l -0.2949,0.0586 -0.2344,0.0586 -0.2363,0.11719 -0.293,0.11914 -0.1777,0.11719 -0.2344,0.17578 -7.3535,6.82422 -0.1758,0.17578 -0.1758,0.17773 -0.1191,0.23438 -0.1172,0.23438 -0.1172,0.23632 -0.059,0.23438 v 0.23633 l -0.059,0.29297 v 21.06054 l 0.059,0.23438 v 0.29492 l 0.1172,0.23437 0.059,0.29493 0.1758,0.23437 0.1191,0.23633 0.2344,0.17578 0.1777,0.17578 0.2344,0.17774 0.2344,0.11718 0.2363,0.11719 0.2949,0.0586 0.2344,0.0586 h 0.2949 7.3516 0.2949 l 0.293,-0.0586 0.2363,-0.0586 0.2949,-0.11719 0.2344,-0.11718 0.1758,-0.17774 0.2363,-0.17578 0.1758,-0.17578 0.1777,-0.23633 0.1172,-0.23437 0.1172,-0.29493 0.059,-0.23437 0.059,-0.29492 v -0.23438 -5.76562 h 18.0586 v 65.58789 h -4.9414 -0.7051 l -0.7051,0.0586 -0.707,0.0586 -0.7051,0.11914 -0.707,0.11718 -0.6465,0.17578 -0.7051,0.23633 -0.6484,0.17578 -0.7051,0.29493 -0.6465,0.23437 -0.6484,0.35352 -0.5879,0.35351 -0.5879,0.35156 -0.5879,0.35352 -0.5879,0.41211 -0.5879,0.4707 -0.5312,0.47071 -0.5293,0.4707 -0.4707,0.5293 -0.4688,0.52929 -0.4707,0.5293 -0.4121,0.58789 -0.4121,0.58789 -0.3535,0.58789 -0.3516,0.58984 -0.1191,0.29297 -0.059,0.23633 -0.059,0.23438 -0.059,0.29492 v 0.23437 l 0.059,0.29493 0.059,0.23437 0.059,0.23633 0.1191,0.29297 0.1758,0.17773 0.1172,0.23438 0.1758,0.17578 0.2363,0.17773 0.2344,0.17578 0.2363,0.11719 0.2344,0.11914 0.2363,0.0586 0.293,0.0586 h 0.2363 17.2344 v 28.70508 H 440.42047 v -28.70508 h 14.76367 0.23633 l 0.29296,-0.0586 0.23633,-0.0586 0.29299,-0.11914 0.2363,-0.11719 0.1758,-0.17578 0.2363,-0.17773 0.1758,-0.17578 0.1758,-0.23438 0.1191,-0.17773 0.1172,-0.29297 0.059,-0.23633 0.059,-0.23437 0.059,-0.29493 v -0.23437 l -0.059,-0.29492 -0.059,-0.23438 -0.059,-0.23633 -0.1172,-0.29297 -0.3535,-0.58984 -0.3535,-0.58789 -0.4121,-0.58789 -0.41018,-0.58789 -0.4707,-0.5293 -0.4707,-0.52929 -0.4707,-0.5293 -0.5293,-0.4707 -0.5293,-0.47071 -0.58984,-0.4707 -0.5293,-0.41211 -0.58789,-0.35352 -0.64648,-0.35156 -0.58789,-0.35351 -0.64844,-0.35352 -0.64649,-0.23437 -0.64648,-0.29493 -0.70703,-0.17578 -0.64649,-0.23633 -0.70507,-0.17578 -0.70704,-0.11718 -0.70507,-0.11914 -0.70703,-0.0586 -0.70508,-0.0586 h -0.70508 -10.64844 -0.70508 l -0.70508,0.0586 -0.70703,0.0586 -0.70507,0.11914 -0.70704,0.11718 -0.64648,0.17578 -0.70508,0.23633 -0.64844,0.17578 -0.70507,0.29493 -0.64649,0.23437 -0.58984,0.35352 -0.64649,0.35351 -0.58789,0.35156 -0.58789,0.35352 -0.58789,0.41211 -0.58984,0.4707 -0.5293,0.47071 -0.4707,0.4707 -0.5293,0.5293 -0.4707,0.52929 -0.41016,0.5293 -0.4707,0.58789 -0.35352,0.58789 -0.41211,0.58789 -0.35351,0.58984 -0.11719,0.29297 -0.0586,0.23633 -0.0586,0.23438 -0.0586,0.29492 v 0.23437 l 0.0586,0.29493 0.0586,0.23437 0.0586,0.23633 0.11719,0.29297 0.17773,0.17773 0.11719,0.23438 0.17578,0.17578 0.23633,0.17773 0.23437,0.17578 0.23633,0.11719 0.23438,0.11914 0.23633,0.0586 0.29296,0.0586 h 0.23633 8.17578 v 28.70508 h -34.23437 -0.23633 -0.23437 l -0.29493,0.11719 -0.23437,0.0605 -0.23633,0.11719 -0.17578,0.17578 -0.23633,0.11719 -0.17578,0.17773 -0.17578,0.23438 -0.11914,0.17773 -0.11719,0.23438 -0.17578,0.23632 -0.23633,0.17579 -0.17578,0.17578 -0.23438,0.11719 -0.23632,0.11914 -0.29492,0.11718 -0.23438,0.0586 h -0.29492 -0.23438 -0.29492 l -0.23437,-0.0586 -0.29493,-0.11718 -0.23437,-0.11914 -0.23633,-0.11719 -0.23437,-0.17578 -0.17579,-0.17579 -0.17773,-0.23632 -0.11719,-0.23438 -0.17578,-0.17773 -0.11914,-0.23438 -0.23437,-0.17773 -0.17579,-0.11719 -0.23632,-0.17578 -0.17578,-0.11719 -0.29493,-0.0605 -0.23437,-0.11719 h -0.23633 -0.23437 -34.29493 v -28.70508 h 8.23633 0.23438 l 0.29492,-0.0586 0.23437,-0.0586 0.23633,-0.11914 0.23438,-0.11719 0.23632,-0.17578 0.17579,-0.17773 0.23437,-0.17578 0.11914,-0.23438 0.17578,-0.17773 0.0586,-0.29297 0.11718,-0.23633 0.0586,-0.23437 v -0.29493 -0.23437 -0.29492 l -0.0586,-0.23438 -0.11718,-0.23633 -0.0586,-0.29297 -0.35351,-0.58984 -0.41211,-0.58789 -0.41016,-0.58789 -0.41211,-0.58789 -0.41211,-0.5293 -0.4707,-0.52929 -0.5293,-0.5293 -0.4707,-0.4707 -0.58789,-0.47071 -0.5293,-0.4707 -0.58789,-0.41211 -0.58984,-0.35352 -0.58789,-0.35156 -0.64649,-0.35351 -0.64648,-0.35352 -0.64844,-0.23437 -0.64648,-0.29493 -0.64649,-0.17578 -0.70703,-0.23633 -0.70508,-0.17578 -0.64648,-0.11718 -0.70703,-0.11914 -0.70508,-0.0586 -0.70703,-0.0586 h -0.70508 -10.64648 -0.70704 l -0.70507,0.0586 -0.70703,0.0586 -0.70508,0.11914 -0.70508,0.11718 -0.70703,0.17578 -0.64649,0.23633 -0.70508,0.17578 -0.64843,0.29493 -0.64649,0.23437 -0.64648,0.35352 -0.58984,0.35351 -0.64649,0.35156 -0.58789,0.35349 -0.58789,0.41211 -0.5293,0.4707 -0.52929,0.47071 -0.5293,0.4707 -0.4707,0.5293 -0.47071,0.52929 -0.4707,0.5293 -0.41211,0.58789 -0.41211,0.58789 -0.35351,0.58789 -0.35157,0.58984 -0.11719,0.29297 -0.0605,0.23633 -0.0586,0.23438 -0.0586,0.29492 v 0.23437 l 0.0586,0.29493 0.0586,0.23437 0.0605,0.23633 0.11719,0.29297 0.11719,0.17773 0.17578,0.23438 0.17774,0.17578 0.23437,0.17773 0.17773,0.17578 0.23438,0.11719 0.23438,0.11914 0.29492,0.0586 0.23632,0.0586 h 0.29297 14.70703 V 205.3027 H 220.06695 v -28.70508 h 17.23438 0.23632 l 0.29492,-0.0586 0.23438,-0.0586 0.23438,-0.11914 0.23632,-0.11719 0.23438,-0.17578 0.17773,-0.17773 0.23438,-0.17578 0.11719,-0.23438 0.17773,-0.17773 0.11719,-0.29297 0.0586,-0.23633 0.0586,-0.23437 v -0.29493 -0.23437 -0.29492 l -0.0586,-0.23438 -0.11719,-0.23633 -0.0586,-0.29297 -0.35352,-0.58984 -0.41211,-0.58789 -0.35156,-0.58789 -0.4707,-0.58789 -0.41211,-0.5293 -0.4707,-0.52929 -0.5293,-0.5293 -0.4707,-0.4707 -0.58789,-0.47071 -0.5293,-0.4707 -0.58984,-0.41211 -0.5879,-0.35352 -0.58789,-0.35156 -0.64648,-0.35351 -0.58789,-0.35352 -0.70703,-0.23437 -0.64649,-0.29493 -0.64648,-0.17578 -0.70703,-0.23633 -0.64649,-0.17578 -0.70508,-0.11718 -0.70703,-0.11914 -0.70507,-0.0586 -0.70704,-0.0586 h -0.70507 -15.58789 -0.35352 l -0.35352,0.0586 -0.35156,0.0586 -0.35351,0.11914 -0.29493,0.11718 -0.35156,0.17578 -0.29492,0.17774 -0.29492,0.23437 -0.23438,0.23633 -0.23632,0.29297 -0.23438,0.29492 -0.17578,0.29297 -0.17774,0.29492 -0.11718,0.35352 -0.11719,0.29297 -0.0586,0.35351 -0.0586,0.35352 v 0.41016 36.88281 h -36.88281 -0.35352 l -0.35351,0.0586 -0.35156,0.0586 -0.35352,0.11914 -0.35352,0.11718 -0.29296,0.17578 -0.29493,0.17774 -0.29297,0.23437 -0.23632,0.23633 -0.23438,0.23438 -0.23633,0.29492 -0.17578,0.29297 -0.17773,0.35351 -0.17578,0.29492 -0.0586,0.35157 -0.11718,0.35351 v 0.35352 l -0.0586,0.35156 v 15.58984 l 0.0586,0.70508 v 0.70508 l 0.11718,0.70703 0.0586,0.70508 0.17578,0.70703 0.17773,0.70508 0.17578,0.64648 0.23633,0.64844 0.23438,0.70508 0.29492,0.64648 0.29297,0.64844 0.35351,0.58789 0.35352,0.64649 0.41016,0.58789 0.4121,0.52929 0.41211,0.5879 0.47071,0.53124 0.4707,0.5293 0.5293,0.4707 0.52929,0.46876 0.5293,0.4707 0.58789,0.41211 0.58984,0.41211 0.5879,0.35351 0.64648,0.35157 0.23438,0.11914 0.23632,0.0586 0.29492,0.0586 0.23438,0.0586 h 0.29492 l 0.23438,-0.0586 0.29492,-0.0586 0.23437,-0.0586 0.23633,-0.11914 0.23438,-0.11719 0.17578,-0.17578 0.23633,-0.17579 0.17578,-0.23632 0.11719,-0.17578 0.11914,-0.23633 0.11718,-0.29297 0.0586,-0.23633 0.0586,-0.23437 v -0.29493 -17.23437 h 28.70703 v 118.88086 h -28.70703 v -14.76367 -0.23633 l -0.0586,-0.29297 -0.0586,-0.23633 -0.11718,-0.23437 -0.11914,-0.23633 -0.11719,-0.23438 -0.17578,-0.23632 -0.23633,-0.17579 -0.17578,-0.17578 -0.23438,-0.11719 -0.23633,-0.11914 -0.23437,-0.0586 -0.29492,-0.0586 -0.23438,-0.0586 h -0.29491 l -0.23438,0.0586 -0.29492,0.0586 -0.23632,0.0586 -0.23438,0.11914 -0.64648,0.35157 -0.5879,0.35351 -0.58984,0.41211 -0.58789,0.41211 -0.5293,0.4707 -0.52929,0.46876 -0.5293,0.4707 -0.4707,0.5293 -0.47071,0.53124 -0.41211,0.5879 -0.4121,0.58789 -0.41016,0.58789 -0.35352,0.58789 -0.35351,0.64843 -0.29297,0.5879 -0.29492,0.64648 -0.23438,0.70508 -0.23633,0.64844 -0.17578,0.70507 -0.17773,0.64649 -0.17578,0.70703 -0.0586,0.70508 -0.11718,0.70703 v 0.70508 l -0.0586,0.70508 v 10.64843 l 0.0586,0.70508 v 0.70703 l 0.11718,0.70507 0.0586,0.70508 0.17578,0.70703 0.17773,0.70508 0.17578,0.64843 0.23633,0.70508 0.23438,0.64649 0.29492,0.64843 0.29297,0.64649 0.35351,0.58789 0.35352,0.64648 0.41016,0.5879 0.4121,0.58984 0.41211,0.5293 0.47071,0.52929 0.4707,0.5293 0.5293,0.4707 0.52929,0.47071 0.5293,0.4707 0.58789,0.41016 0.58984,0.4121 0.5879,0.35352 0.64648,0.35352 0.23438,0.11718 0.23632,0.11719 0.29492,0.0586 h 0.23438 0.29492 0.23438 l 0.29492,-0.0586 0.23437,-0.11719 0.23633,-0.11718 0.23438,-0.11914 0.17578,-0.17579 0.23633,-0.17578 0.17578,-0.17773 0.11719,-0.23438 0.11914,-0.23632 0.11718,-0.23438 0.0586,-0.29492 0.0586,-0.23438 v -0.29492 -8.17578 h 28.70703 v 34.23438 0.29492 l 0.0586,0.23632 0.0586,0.23438 0.0586,0.23438 0.11719,0.23632 0.17773,0.23438 0.11719,0.17773 0.17578,0.23438 0.23633,0.11719 0.17578,0.17773 0.23438,0.11719 0.23633,0.17578 0.17578,0.17773 0.17773,0.23438 0.11719,0.23633 0.11719,0.23437 0.11718,0.29492 0.0586,0.23438 v 0.29492 0.23437 0.29493 l -0.0586,0.23437 -0.11718,0.29492 -0.11719,0.23438 -0.11719,0.23633 -0.17773,0.17578 -0.17578,0.23633 -0.23633,0.17578 -0.23438,0.11718 -0.17578,0.11914 -0.23633,0.17579 -0.17578,0.17578 -0.11719,0.23633 -0.17773,0.17578 -0.11719,0.23632 -0.0586,0.23438 -0.0586,0.29492 -0.0586,0.23438 v 0.23632 34.29297 h -28.70703 v -8.23437 -0.23633 l -0.0586,-0.29297 -0.0586,-0.23633 -0.11718,-0.23437 -0.11914,-0.23633 -0.11719,-0.23437 -0.17578,-0.17774 -0.23633,-0.17578 -0.17578,-0.17578 -0.23438,-0.11914 -0.23633,-0.11719 -0.23437,-0.11719 -0.29492,-0.0586 h -0.23438 -0.29492 -0.23438 l -0.29492,0.0586 -0.23632,0.11719 -0.23438,0.11719 -0.64648,0.29492 -0.5879,0.41211 -0.58984,0.41211 -0.58789,0.41016 -0.5293,0.4121 -0.52929,0.47071 -0.5293,0.52929 -0.4707,0.5293 -0.47071,0.5293 -0.41211,0.5293 -0.4121,0.58984 -0.41016,0.58789 -0.35352,0.58789 -0.35351,0.64648 -0.29297,0.64844 -0.29492,0.64649 -0.23438,0.64648 -0.23633,0.64649 -0.17578,0.70703 -0.17773,0.70507 -0.17578,0.70704 -0.0586,0.64648 -0.11718,0.70508 v 0.70703 l -0.0586,0.70508 v 10.70703 l 0.0586,0.70508 v 0.70508 l 0.11718,0.70703 0.0586,0.70507 0.17578,0.64844 0.17773,0.70508 0.17578,0.70508 0.23633,0.64844 0.23438,0.64648 0.29492,0.64648 0.29297,0.64844 0.35351,0.64649 0.35352,0.58789 0.41016,0.58789 0.4121,0.58789 0.41211,0.5293 0.47071,0.58984 0.4707,0.4707 0.5293,0.5293 0.52929,0.4707 0.5293,0.41016 0.58789,0.4707 0.58984,0.35352 0.5879,0.41211 0.64648,0.35351 0.23438,0.0586 0.23632,0.11718 0.29492,0.0586 h 0.23438 0.29492 0.23438 l 0.29492,-0.0586 0.23437,-0.0586 0.23633,-0.11719 0.23438,-0.17773 0.17578,-0.11719 0.23633,-0.23438 0.17578,-0.17773 0.11719,-0.23437 0.11914,-0.23633 0.11718,-0.23438 0.0586,-0.23633 0.0586,-0.29296 v -0.23633 -14.76367 h 28.70703 v 118.82227 h -28.70704 v -17.17578 -0.29492 l -0.0586,-0.23438 -0.0586,-0.29492 -0.11718,-0.23437 -0.11914,-0.23633 -0.11719,-0.23438 -0.17578,-0.17578 -0.23633,-0.17773 -0.17578,-0.17578 -0.23438,-0.11719 -0.23633,-0.11914 -0.23437,-0.11719 -0.29492,-0.0586 h -0.23437 -0.29492 -0.23438 l -0.29492,0.0586 -0.23632,0.11719 -0.23438,0.11914 -0.64648,0.35156 -0.5879,0.35352 -0.58984,0.41211 -0.58789,0.41211 -0.5293,0.4707 -0.52929,0.4707 -0.5293,0.4707 -0.4707,0.5293 -0.47071,0.5293 -0.41211,0.5293 -0.4121,0.58789 -0.41016,0.58789 -0.35352,0.64648 -0.35351,0.58984 -0.29297,0.64649 -0.29492,0.64648 -0.23438,0.64649 -0.23633,0.70703 -0.17578,0.64648 -0.17773,0.70703 -0.17578,0.70508 -0.0586,0.70508 -0.11718,0.70703 v 0.70508 l -0.0586,0.70703 v 4.88086 H 98.832571 v -18 h 5.763679 0.23632 l 0.29297,-0.0586 0.29493,-0.11719 0.23437,-0.0586 0.23633,-0.17579 0.23437,-0.11914 0.17579,-0.17578 0.17773,-0.23632 0.17578,-0.23438 0.11719,-0.23438 0.11914,-0.23632 0.0586,-0.29492 0.0586,-0.23438 v -0.29492 -7.35156 -0.29493 l -0.0586,-0.29297 -0.0586,-0.23632 -0.11914,-0.29492 -0.11719,-0.23438 -0.17578,-0.17578 -0.17773,-0.23633 -0.17579,-0.17578 -0.23437,-0.17773 -0.23633,-0.11719 -0.23437,-0.11719 -0.29493,-0.0586 -0.29297,-0.0586 h -0.23632 -21.058599 -0.23632 l -0.29297,0.0586 -0.23633,0.0586 -0.23438,0.0586 -0.23632,0.11719 -0.17579,0.17774 -0.23437,0.11718 -0.17774,0.17578 -6.76367,7.41211 -0.17773,0.17579 -0.17578,0.23632 -0.11719,0.23438 -0.11719,0.23633 -0.0605,0.29297 v 0.23632 l -0.0586,0.29492 0.0586,0.29297 0.0605,0.23633 0.0586,0.29297 0.11718,0.23633 0.11719,0.23437 0.17773,0.23633 0.17579,0.17578 0.23437,0.17578 0.17774,0.17774 0.23437,0.11719 0.29492,0.11718 0.23438,0.0586 0.29492,0.0586 h 0.23437 9.82422 v 20.4707 h -73.70508 v -20.4707 h 9.82227 0.29492 l 0.23438,-0.0586 0.29492,-0.0586 0.23437,-0.11718 0.23633,-0.11719 0.23438,-0.17774 0.17773,-0.17578 0.17578,-0.17578 0.17578,-0.23633 0.11914,-0.23437 0.11719,-0.23633 0.11719,-0.29297 0.0586,-0.23633 v -0.29297 -0.29492 l -0.0586,-0.23631 -0.0586,-0.29297 -0.11719,-0.23633 -0.11914,-0.23438 -0.11719,-0.23632 -0.17578,-0.17579 -6.82422,-7.41211 -0.17578,-0.17578 -0.17773,-0.11718 -0.23437,-0.17774 -0.23438,-0.11719 -0.23632,-0.0586 -0.23438,-0.0586 -0.23633,-0.0586 h -0.29297 -11.1777306 -0.35351 l -0.35157,0.0586 -0.35351,0.0586 -0.35352,0.11719 -0.35156,0.11719 -0.29492,0.17773 -0.29492,0.17578 -0.29297,0.23633 -0.23633,0.23437 -0.29297,0.29493 -0.17773,0.23437 -0.23438,0.35352 -0.11719003,0.29297 -0.17773,0.35351 -0.11719,0.29492 -0.0586,0.35157 -0.0586,0.35351 v 0.35352 36.88281 0.41016 l 0.0586,0.35351 0.0586,0.35352 0.11719,0.29297 0.17773,0.35351 0.11719003,0.29492 0.23438,0.29297 0.17773,0.29492 0.29297,0.29492 0.23633,0.23438 0.29297,0.23438 0.29492,0.17773 0.29492,0.17578 0.35156,0.11719 0.35352,0.11914 0.35351,0.0586 0.35157,0.0586 h 0.35351 565.2363096 0.3516 l 0.3535,-0.0586 0.3535,-0.0586 0.293,-0.11914 0.3535,-0.11719 0.2949,-0.17578 0.3516,-0.17773 0.2363,-0.23438 0.293,-0.23438 0.2363,-0.29492 0.2344,-0.29492 0.1777,-0.29297 0.1758,-0.29492 0.1172,-0.35351 0.1191,-0.29297 0.059,-0.35352 0.059,-0.35351 V 570.00972 4.4804214 4.1269054 l -0.059,-0.412109 -0.059,-0.294922 -0.1191,-0.351563 -0.1172,-0.353515 -0.1758,-0.294922 -0.1777,-0.292969 -0.2344,-0.294922 -0.2363,-0.292968 -0.293,-0.236328 -0.2363,-0.175782 -0.3516,-0.23632803 -0.2949,-0.175781 -0.3535,-0.117188 -0.293,-0.117187 -0.3535,-0.06055 -0.3535,-0.05859 h -0.3516 -36.8828 z M 220.06695,220.00972 h 339.1758 v 339.35156 h -339.1758 z"
     style="fill:#212830;fill-opacity:1;stroke:#212830;stroke-width:0.0588235px;stroke-linecap:round;stroke-linejoin:round;stroke-miterlimit:4;stroke-dasharray:none;stroke-opacity:1"
     id="path3181" />
</svg>
