<?xml version="1.0" encoding="UTF-8" standalone="no"?>
<svg
   xmlns:dc="http://purl.org/dc/elements/1.1/"
   xmlns:cc="http://creativecommons.org/ns#"
   xmlns:rdf="http://www.w3.org/1999/02/22-rdf-syntax-ns#"
   xmlns:svg="http://www.w3.org/2000/svg"
   xmlns="http://www.w3.org/2000/svg"
   id="svg1063"
   height="146mm"
   width="146mm"
   version="1.0">
  <metadata
     id="metadata1067">
    <rdf:RDF>
      <cc:Work
         rdf:about="">
        <dc:format>image/svg+xml</dc:format>
        <dc:type
           rdf:resource="http://purl.org/dc/dcmitype/StillImage" />
        <dc:title></dc:title>
      </cc:Work>
    </rdf:RDF>
  </metadata>
  <defs
     id="defs3" />
  <path
     d="m 196.19811,1.6994577 -0.5879,0.0586 -0.5879,0.11719 -0.5293,0.23633 -0.4707,0.35351 -0.4121,0.41016 -0.293,0.4707 -0.2949,0.5293 -0.1172,0.5293 -0.059,0.58984 V 22.935788 l 0.059,0.35157 0.059,0.35351 0.1758,0.29492 0.1777,0.29297 0.2344,0.23633 0.2949,0.23438 0.293,0.11718 0.3535,0.11914 h 0.3535 9.293 0.3535 l 0.3535,-0.11914 0.293,-0.11718 0.2949,-0.23438 0.2344,-0.23633 0.1777,-0.29297 0.1758,-0.29492 0.059,-0.35351 0.059,-0.35157 v -12.58984 h 13.2949 v 87.58984 0.35157 l 0.1172,0.35351 0.1172,0.29492 0.2363,0.29297 0.2344,0.23633 0.2949,0.17578 0.2949,0.23438 0.2332,0.294912 0.2344,0.29492 0.1191,0.35156 0.1172,0.41211 v 0.35352 l -0.1172,0.35351 -0.1191,0.35157 -0.2344,0.35351 -0.2344,0.23438 -0.2949,0.23633 -0.2949,0.23437 -0.2344,0.23633 -0.2363,0.29297 -0.1172,0.29492 -0.1172,0.35352 v 0.35156 69.64844 l -10,-10 v -4.64844 -0.35156 l -0.1172,-0.29493 -0.1191,-0.35351 -0.2344,-0.29297 -0.2344,-0.23633 -0.2949,-0.17578 -0.2949,-0.17578 -0.3516,-0.0586 -0.2949,-0.0605 h -6 l -0.3535,0.0605 -0.3516,0.0586 -0.2949,0.17578 -0.2949,0.17578 -0.2344,0.23633 -0.1758,0.29297 -0.1777,0.35351 -0.059,0.29493 -0.059,0.35156 v 21.29492 l 0.059,0.58789 0.1172,0.5293 0.2949,0.52929 0.2949,0.47071 0.4102,0.41211 0.4707,0.35351 0.5293,0.23438 0.5898,0.17773 h 0.5293 16.6465 v 74.4707 h -62.4703 v -11.29492 l -0.059,-0.58789 -0.1172,-0.52929 -0.2363,-0.5293 -0.3535,-0.4707 -0.4102,-0.41211 -0.4707,-0.35352 -0.5293,-0.23437 -0.5293,-0.17774 -0.5898,-0.0586 h -11.293 l -0.3535,0.0586 -0.3535,0.11914 -0.293,0.11719 -0.2949,0.17578 -0.2344,0.29492 -0.2363,0.23438 -0.1172,0.35351 -0.1172,0.29492 v 0.35157 2.70703 0.29297 l 0.1172,0.35351 0.1172,0.35352 0.2363,0.23437 0.2344,0.29493 0.2949,0.17578 0.293,0.11718 0.3535,0.11914 h 0.3535 5.9414 v 10 h -39.8242 v -10 h 5.9414 0.41211 l 0.35157,-0.11914 0.35351,-0.17578 0.29492,-0.23632 0.29297,-0.35157 0.17774,-0.29492 0.11718,-0.41211 v -0.35156 -2.70703 -0.35157 l -0.11718,-0.29492 -0.11914,-0.35351 -0.23438,-0.23438 -0.23438,-0.29492 -0.29492,-0.17578 -0.29492,-0.11719 -0.35156,-0.11914 -0.35352,-0.0586 h -11.29492 l -0.5293,0.0586 -0.58789,0.17774 -0.52929,0.23437 -0.47071,0.35352 -0.41211,0.41211 -0.29296,0.4707 -0.29493,0.5293 -0.117182,0.52929 -0.0586,0.58789 v 16.58789 l 0.0586,0.58789 0.117182,0.5879 0.29493,0.53124 0.29296,0.46876 0.41211,0.4121 0.47071,0.29493 0.52929,0.29297 0.58789,0.11914 0.5293,0.0586 h 59.82462 v 279.17578 l 0.059,0.58789 0.1172,0.58984 0.2363,0.5293 0.3535,0.4707 0.4102,0.41016 0.4707,0.29492 0.5293,0.23438 0.5898,0.17773 0.5293,0.0586 h 219.2344 l 0.5879,-0.0586 0.5879,-0.17773 0.4707,-0.23438 0.5293,-0.29492 0.3535,-0.41016 0.3535,-0.4707 0.2344,-0.5293 0.1777,-0.58984 0.059,-0.58789 V 267.58227 h 59.7637 l 0.5879,-0.0586 0.5312,-0.11914 0.5293,-0.29297 0.4707,-0.29493 0.4102,-0.4121 0.3535,-0.46876 0.2363,-0.53124 0.1758,-0.5879 0.059,-0.58789 v -16.58788 l -0.059,-0.58789 -0.1758,-0.52929 -0.2363,-0.5293 -0.3535,-0.4707 -0.4102,-0.41211 -0.4707,-0.35352 -0.5293,-0.23437 -0.5312,-0.17774 -0.5879,-0.0586 h -11.293 l -0.3535,0.0586 -0.2949,0.11914 -0.3516,0.11719 -0.2949,0.17578 -0.2344,0.29492 -0.1777,0.23438 -0.1758,0.35351 -0.059,0.29492 -0.059,0.35157 v 2.70703 l 0.059,0.35156 0.1172,0.41211 0.1758,0.29492 0.2363,0.35157 0.293,0.23632 0.3535,0.17578 0.4121,0.11914 h 0.3535 6 v 10 h -39.8828 v -10 h 6 0.3535 l 0.293,-0.11914 0.3535,-0.11718 0.2949,-0.17578 0.2344,-0.29493 0.1758,-0.23437 0.1777,-0.35352 0.059,-0.35351 0.059,-0.29297 v -2.70703 l -0.059,-0.35157 -0.059,-0.29492 -0.1777,-0.35351 -0.1758,-0.23438 -0.2344,-0.29492 -0.2949,-0.17578 -0.3535,-0.11719 -0.293,-0.11914 -0.3535,-0.0586 h -11.2949 l -0.5879,0.0586 -0.5879,0.17774 -0.4707,0.23437 -0.4707,0.35352 -0.4121,0.41211 -0.3516,0.4707 -0.2363,0.5293 -0.1758,0.52929 -0.059,0.58789 v 11.29492 h -62.4121 v -74.4707 h 16.5879 0.5879 l 0.5293,-0.17773 0.5293,-0.23438 0.4707,-0.35351 0.4121,-0.41211 0.3535,-0.47071 0.2344,-0.52929 0.1777,-0.5293 0.059,-0.58789 v -21.29492 l -0.059,-0.35156 -0.061,-0.29493 -0.1758,-0.35351 -0.1758,-0.29297 -0.2949,-0.23633 -0.2339,-0.17578 -0.3535,-0.17578 -0.2949,-0.0586 -0.3516,-0.0605 h -6 l -0.3535,0.0605 -0.3535,0.0586 -0.293,0.17578 -0.2949,0.17578 -0.2344,0.23633 -0.1777,0.29297 -0.1758,0.35351 -0.059,0.29493 -0.059,0.35156 v 4.64844 l -9.9414,10 v -69.64844 l -0.059,-0.35156 -0.059,-0.35352 -0.1777,-0.29492 -0.1758,-0.29297 -0.2363,-0.23633 -0.293,-0.23437 -0.2949,-0.23633 -0.293,-0.23438 -0.1777,-0.35351 -0.1758,-0.35157 -0.059,-0.35351 v -0.35352 l 0.059,-0.41211 0.1758,-0.35156 0.1777,-0.29492 0.293,-0.294922 0.2949,-0.23438 0.293,-0.17578 0.2363,-0.23633 0.1758,-0.29297 0.1777,-0.29492 0.059,-0.35351 0.059,-0.35157 v -87.58984 h 13.293 v 12.58984 0.35157 l 0.1191,0.35351 0.1172,0.29492 0.2344,0.29297 0.2363,0.23633 0.293,0.23438 0.2949,0.11718 0.3535,0.11914 h 0.293 9.3535 0.2949 l 0.3516,-0.11914 0.3535,-0.11718 0.2344,-0.23438 0.2949,-0.23633 0.1758,-0.29297 0.1191,-0.29492 0.1172,-0.35351 v -0.35157 -17.9414003 -0.58984 l -0.1758,-0.5293 -0.2363,-0.5293 -0.3535,-0.4707 -0.4102,-0.41016 -0.4707,-0.35351 -0.5293,-0.23633 -0.5312,-0.11719 -0.5879,-0.0586 z m 31.8828,8.6464803 h 95.6484 V 258.93578 h -95.6484 z m -56.4707,257.236332 h 208.5879 v 273.88281 h -208.5879 z"
     style="fill:#212830;fill-opacity:1;stroke:#212830;stroke-width:0.0588235px;stroke-linecap:round;stroke-linejoin:round;stroke-miterlimit:4;stroke-dasharray:none;stroke-opacity:1"
     id="path1059" />
</svg>
