<?xml version="1.0" encoding="UTF-8" standalone="no"?>
<svg
   xmlns:dc="http://purl.org/dc/elements/1.1/"
   xmlns:cc="http://creativecommons.org/ns#"
   xmlns:rdf="http://www.w3.org/1999/02/22-rdf-syntax-ns#"
   xmlns:svg="http://www.w3.org/2000/svg"
   xmlns="http://www.w3.org/2000/svg"
   id="svg1345"
   height="127mm"
   width="127mm"
   version="1.0">
  <metadata
     id="metadata1349">
    <rdf:RDF>
      <cc:Work
         rdf:about="">
        <dc:format>image/svg+xml</dc:format>
        <dc:type
           rdf:resource="http://purl.org/dc/dcmitype/StillImage" />
        <dc:title></dc:title>
      </cc:Work>
    </rdf:RDF>
  </metadata>
  <defs
     id="defs3" />
  <path
     d="m 243.2939,47.441411 -0.4707,0.05859 -0.4707,0.11719 -0.4121,0.23633 -0.3516,0.29296 -0.3535,0.35352 -0.1777,0.41211 -0.1758,0.4707 -0.059,0.47071 0.059,0.4707 0.1172,0.4707 0.2363,0.41016 0.293,0.41211 0.3535,0.29492 0.4121,0.23437 13.2949,5.94141 V 104.79492 H 149.11812 l -0.41211,0.0586 -0.41211,0.11718 -0.41211,0.17578 -0.35351,0.23633 -0.29297,0.29297 -0.23633,0.35352 -0.17578,0.41211 -0.11719,0.41211 -0.0586,0.4121 v 5.76368 l 0.0586,0.41211 0.11719,0.41211 0.17578,0.35156 0.23633,0.35351 0.29297,0.35352 0.35351,0.23437 0.41211,0.17774 0.41211,0.11719 h 0.41211 43.41018 v 81.9414 h -43.41018 l -0.41211,0.0586 -0.41211,0.11718 -0.41211,0.17579 -0.35351,0.23632 -0.29297,0.29492 -0.23633,0.35157 -0.17578,0.41211 -0.11719,0.41211 -0.0586,0.41211 v 26.23437 l 0.0586,0.41211 0.11719,0.41211 0.17578,0.41211 0.23633,0.35156 0.29297,0.29492 0.35351,0.23438 0.41211,0.17773 0.41211,0.11719 0.41211,0.0586 h 5.76367 l 0.41211,-0.0586 0.41211,-0.11719 0.35157,-0.17773 0.35351,-0.23438 0.29492,-0.29492 0.29297,-0.35156 0.17774,-0.41211 0.11718,-0.41211 v -0.41211 -18.05859 h 24.58789 v 18.05859 l 0.0586,0.41211 0.0586,0.41211 0.17774,0.41211 0.29296,0.35156 0.29493,0.29492 0.35351,0.23438 0.35156,0.17773 0.41211,0.11719 0.47071,0.0586 h 8.1758 v 125.35352 h -8.1758 -0.47071 l -0.41211,0.11719 -0.35156,0.17578 -0.35351,0.29492 -0.29493,0.29492 -0.29296,0.35156 -0.17774,0.35352 -0.0586,0.41211 -0.0586,0.4707 v 18 H 157.2939 v -18 -0.4707 l -0.11718,-0.41212 -0.17774,-0.35352 -0.29297,-0.35156 -0.29492,-0.29492 -0.35351,-0.29492 -0.35157,-0.17578 -0.41211,-0.11719 h -0.41211 -5.76367 -0.41211 l -0.41211,0.11719 -0.41211,0.17578 -0.35351,0.29492 -0.29297,0.29492 -0.23633,0.35156 -0.17578,0.35352 -0.11719,0.41211 -0.0586,0.4707 v 30.29297 l 0.0586,0.41211 0.11719,0.41211 0.17578,0.41211 0.23633,0.35351 0.29297,0.29297 0.35351,0.23633 0.41211,0.17578 0.41211,0.11719 0.41211,0.0586 h 5.76367 l 0.41211,-0.0586 0.41211,-0.11719 0.35157,-0.17578 0.35351,-0.23633 0.29492,-0.29297 0.29297,-0.35351 0.17774,-0.41211 0.11718,-0.41211 v -0.41211 -1.64648 h 35.2344 v 36.88281 H 71.352506 V 407.9707 l -0.0586,-0.70508 -0.23632,-0.70703 -0.29297,-0.64648 -0.41211,-0.58789 -0.47071,-0.4707 -0.58789,-0.41211 -0.64648,-0.29493 -0.70703,-0.17578 -0.70508,-0.11718 h -13.94141 l -0.4707,0.0586 -0.4707,0.17578 -0.41211,0.17773 -0.35157,0.35157 -0.29492,0.35351 -0.23632,0.41211 -0.17579,0.47071 v 0.4707 3.29297 0.4707 l 0.17579,0.4707 0.23632,0.41211 0.29492,0.41211 0.35157,0.29297 0.41211,0.23633 0.4707,0.11719 0.4707,0.0586 h 7.41211 v 12.29492 h -49.17773 v -12.29492 h 7.41211 l 0.41211,-0.0586 0.41211,-0.11719 0.41211,-0.17773 0.35156,-0.23439 0.29492,-0.29492 0.23438,-0.35156 0.17773,-0.41211 0.11719,-0.41211 v -0.41211 -3.29297 -0.41211 l -0.11719,-0.41211 -0.17773,-0.41211 -0.23438,-0.35351 -0.29492,-0.29297 -0.35156,-0.23633 -0.41211,-0.17578 -0.41211,-0.11719 -0.41211,-0.0586 H 4.9989859 l -0.70508,0.11718 -0.70508,0.17578 -0.64843,0.29493 -0.58789,0.41211 -0.47071,0.4707 -0.41211,0.58789 -0.29296,0.64648 -0.23633002,0.70703 -0.0586,0.70508 v 20.47071 l 0.0586,0.70507 0.23633002,0.70704 0.29296,0.64648 0.41211,0.58789 0.47071,0.5293 0.58789,0.41211 0.64843,0.29492 0.70508,0.17578 0.70508,0.0586 H 360.4111 l 0.707,-0.0586 0.6465,-0.17578 0.6465,-0.29492 0.5879,-0.41211 0.5293,-0.5293 0.4121,-0.58789 0.2949,-0.64648 0.1758,-0.70704 0.059,-0.70507 v -22.11719 l -0.059,-0.4707 -0.1172,-0.47071 -0.2363,-0.41211 -0.293,-0.35351 -0.3535,-0.35157 -0.4707,-0.17773 -0.4121,-0.17578 -0.5293,-0.0586 h -11.4102 l -0.5312,0.0586 -0.4102,0.17578 -0.4707,0.17773 -0.3535,0.35157 -0.2949,0.35351 -0.2344,0.41211 -0.1172,0.47071 -0.059,0.4707 v 15.58789 h -16.4121 v -108 -0.4121 l -0.1172,-0.41211 -0.1777,-0.41211 -0.2344,-0.35156 -0.3531,-0.29492 -0.3535,-0.23438 -0.3516,-0.29492 -0.2949,-0.35352 -0.2949,-0.35156 -0.1758,-0.4707 -0.059,-0.41211 v -0.4707 l 0.059,-0.47071 0.1758,-0.4707 0.2949,-0.35352 0.2949,-0.35156 0.3516,-0.29492 0.3535,-0.23438 0.3535,-0.29492 0.2344,-0.35351 0.1777,-0.41211 0.1172,-0.41016 V 305.38281 219.5 l 12.293,12.29492 v 5.76367 l 0.059,0.47071 0.1191,0.4707 0.2344,0.41211 0.2949,0.35351 0.4121,0.35157 0.4102,0.17773 0.4707,0.17578 0.4707,0.0586 h 7.3531 l 0.4707,-0.0586 0.4707,-0.17578 0.4121,-0.17773 0.4121,-0.35157 0.293,-0.35351 0.2363,-0.41211 0.1172,-0.4707 0.059,-0.47071 v -26.23437 l -0.059,-0.70703 -0.1777,-0.70508 -0.293,-0.64649 -0.4121,-0.58984 -0.5293,-0.4707 -0.5879,-0.41016 -0.6465,-0.29492 -0.707,-0.23438 -0.7051,-0.0605 H 331.706 v -98.29297 l -0.059,-0.70703 -0.1777,-0.70508 -0.293,-0.64648 -0.4121,-0.5879 -0.5293,-0.4707 -0.5293,-0.41211 -0.6484,-0.35351 -0.7051,-0.17578 -0.7051,-0.0586 h -57.3535 l -0.7051,-0.0605 -0.707,-0.17579 -0.5879,-0.29297 -0.5879,-0.4121 -0.5293,-0.5293 -0.4121,-0.58984 -0.2949,-0.64649 -0.1758,-0.64648 -0.059,-0.70703 V 62.205161 l 0.059,-0.70508 0.1758,-0.70508 0.2949,-0.64844 0.4121,-0.58789 0.5293,-0.4707 0.5879,-0.41211 0.5879,-0.35156 0.707,-0.17774 0.7051,-0.0586 h 159.7051 l 7.4707,0.76563 7.2363,2.17578 6.6465,3.58789 5.8242,4.76562 4.8223,5.82227 3.5293,6.64844 2.2363,7.23437 0.7051,7.5293 v 8.177729 h -55.7051 l -0.707,0.0586 -0.6465,0.17578 -0.6465,0.35351 -0.5879,0.41211 -0.5293,0.4707 -0.4121,0.5879 -0.2949,0.64648 -0.1758,0.70508 -0.059,0.70703 v 20.4707 l 0.059,0.70508 0.1758,0.70703 0.2949,0.64649 0.4121,0.58789 0.5293,0.4707 0.5879,0.41211 0.6465,0.35351 0.6465,0.17579 0.707,0.0586 h 13.9414 l 0.4121,-0.0586 0.4102,-0.11719 0.4121,-0.17774 0.3535,-0.23437 0.2949,-0.29492 0.2344,-0.35157 0.1758,-0.4121 0.1191,-0.41211 0.059,-0.41211 v -3.29492 l -0.059,-0.46876 -0.1191,-0.4707 -0.2344,-0.41211 -0.2949,-0.35351 -0.4121,-0.35352 -0.4102,-0.17578 -0.4707,-0.17578 -0.4707,-0.0586 h -7.3535 V 113.0293 h 49.1172 v 12.23632 h -7.3516 l -0.4121,0.0586 -0.4121,0.11719 -0.4121,0.17578 -0.3535,0.23633 -0.293,0.29296 -0.2363,0.35352 -0.1758,0.41211 -0.1172,0.41211 -0.059,0.41016 v 3.29492 l 0.059,0.41211 0.1172,0.41211 0.1758,0.4121 0.2363,0.35157 0.293,0.29492 0.3535,0.23437 0.4121,0.17774 0.4121,0.11719 0.4121,0.0586 h 13.8809 l 0.7656,-0.0586 0.6465,-0.17579 0.6465,-0.35351 0.5898,-0.41211 0.5293,-0.4707 0.4121,-0.58789 0.293,-0.64649 0.1758,-0.70703 0.061,-0.70508 V 96.617191 l -0.7656,-8.5293 -2.1758,-8.29297 -3.6484,-7.76562 -4.8809,-7 -6.0586,-6.0586 -7.0605,-4.9414 -7.7637,-3.58789 -8.2363,-2.23633 -8.5293,-0.76367 z m -40.1172,67.999999 h 117.8809 v 306.4707 H 203.1767 Z"
     style="fill:#212830;fill-opacity:1;stroke:#212830;stroke-width:0.0588235px;stroke-linecap:round;stroke-linejoin:round;stroke-miterlimit:4;stroke-dasharray:none;stroke-opacity:1"
     id="path1343" />
</svg>
