<?xml version="1.0" encoding="UTF-8" standalone="no"?>
<svg
   xmlns:dc="http://purl.org/dc/elements/1.1/"
   xmlns:cc="http://creativecommons.org/ns#"
   xmlns:rdf="http://www.w3.org/1999/02/22-rdf-syntax-ns#"
   xmlns:svg="http://www.w3.org/2000/svg"
   xmlns="http://www.w3.org/2000/svg"
   id="svg1943"
   height="150mm"
   width="150mm"
   version="1.0">
  <metadata
     id="metadata1947">
    <rdf:RDF>
      <cc:Work
         rdf:about="">
        <dc:format>image/svg+xml</dc:format>
        <dc:type
           rdf:resource="http://purl.org/dc/dcmitype/StillImage" />
        <dc:title></dc:title>
      </cc:Work>
    </rdf:RDF>
  </metadata>
  <defs
     id="defs3" />
  <path
     d="M 283.49388,15.699918 V 141.69992 H 0.14036781 v 283.5293 H 283.49388 v 126 h 34.58789 v -11.76367 -0.23633 l -0.0586,-0.17578 -0.0586,-0.23633 -0.0586,-0.23437 -0.11719,-0.17579 -0.11719,-0.17773 -0.17773,-0.17578 -5.64648,-5.23633 -0.23633,-0.11719 -0.17578,-0.11718 -0.23438,-0.11719 -0.23633,-0.0586 -0.23437,-0.0605 h -0.23633 -0.23437 l -0.23633,0.0605 -0.23438,0.11719 -0.23633,0.0586 -0.17578,0.17578 -0.17578,0.17773 -0.17773,0.17578 -0.11719,0.17578 -0.11719,0.23633 -0.0586,0.23438 -0.0586,0.23633 v 0.23437 7.58789 h -15.76559 v -56.70508 h 15.76562 v 7.5293 0.23438 l 0.0586,0.23632 0.0586,0.23438 0.11719,0.23633 0.11719,0.17578 0.17773,0.23633 0.17578,0.11718 0.17578,0.17578 0.23633,0.11914 0.23438,0.0586 0.23633,0.0586 h 0.23437 0.23633 l 0.23437,-0.0586 0.23633,-0.0586 0.23438,-0.11914 0.17578,-0.11718 0.23633,-0.11719 5.64648,-5.23633 0.17773,-0.17578 0.11719,-0.17578 0.11719,-0.17774 0.0586,-0.23437 0.0586,-0.17773 0.0586,-0.23438 v -0.23438 -18.06054 h -9.41016 v 6.29492 h -13.88281 v -50.41211 h 3.76367 0.64844 l 0.58789,-0.0586 0.64649,-0.0586 0.58789,-0.11718 0.64843,-0.11914 0.5879,-0.17579 0.58789,-0.23437 0.52929,-0.17774 0.58789,-0.29296 0.5293,-0.23633 0.58789,-0.29297 0.4707,-0.35352 0.5293,-0.35351 0.4707,-0.41211 0.47071,-0.41016 0.4707,-0.41211 0.41208,-0.4121 0.41211,-0.4707 0.41211,-0.5293 0.35156,-0.4707 0.29492,-0.5293 0.29492,-0.52929 0.11719,-0.23633 0.0586,-0.23438 0.0586,-0.23632 v -0.23438 -0.23438 l -0.0586,-0.23632 -0.11719,-0.23438 -0.0586,-0.23633 -0.17773,-0.17578 -0.17578,-0.17773 -0.17773,-0.17578 -0.17579,-0.11719 -0.23437,-0.11719 -0.23633,-0.11914 h -0.23437 l -0.23633,-0.0586 H 294.7888 v -22.0586 h 91.29297 v 22.0586 H 374.7888 l -0.23633,0.0586 h -0.29296 l -0.17774,0.11914 -0.23437,0.11719 -0.23633,0.11719 -0.17578,0.17578 -0.17578,0.17773 -0.11914,0.17578 -0.11719,0.23633 -0.0586,0.23438 -0.0586,0.23632 v 0.23438 0.23438 0.23632 l 0.11719,0.23438 0.0586,0.23633 0.35352,0.52929 0.29492,0.5293 0.35156,0.4707 0.41211,0.5293 0.35352,0.4707 0.4707,0.41211 0.41211,0.41211 0.4707,0.41016 0.5293,0.41211 0.4707,0.35351 0.5293,0.35352 0.5293,0.29297 0.58789,0.23633 0.52929,0.29296 0.58789,0.17774 0.58789,0.23437 0.5879,0.17579 0.58984,0.11914 0.64648,0.11718 0.58789,0.0586 0.64649,0.0586 h 0.58984 8.17578 0.64649 l 0.58789,-0.0586 0.64844,-0.0586 0.58789,-0.11718 0.58789,-0.11914 0.64648,-0.17579 0.58984,-0.23437 0.5293,-0.17774 0.58789,-0.29296 0.5293,-0.23633 0.58789,-0.29297 0.4707,-0.35352 0.5293,-0.35351 0.4707,-0.41211 0.47071,-0.41016 0.4707,-0.41211 0.41211,-0.41211 0.41016,-0.4707 0.35351,-0.5293 0.35352,-0.4707 0.35351,-0.5293 0.29297,-0.52929 0.11719,-0.23633 0.0605,-0.23438 0.0586,-0.23632 v -0.23438 -0.23438 l -0.0586,-0.23632 -0.11914,-0.23438 -0.11718,-0.23633 -0.11719,-0.17578 -0.17773,-0.17773 -0.17579,-0.17578 -0.17578,-0.11719 -0.23633,-0.11719 -0.23437,-0.11914 h -0.23633 l -0.23437,-0.0586 h -6.29493 v -22.0586 h 27.70704 v -0.23437 l 0.0586,-0.17774 0.0586,-0.23437 0.11719,-0.23633 0.11719,-0.17578 0.17773,-0.23438 0.17578,-0.11914 0.17579,-0.17578 0.17773,-0.11718 0.23437,-0.0586 0.23633,-0.0605 0.23438,-0.0586 h 0.23633 l 0.23437,0.0586 0.23633,0.0605 0.23437,0.0586 0.17579,0.11718 0.17773,0.17578 0.17578,0.11914 0.17773,0.23438 0.11719,0.17578 0.11719,0.23633 0.0586,0.23437 0.0586,0.17774 v 0.23437 h 27.70703 v 22.0586 h -6.29492 l -0.23438,0.0586 h -0.23633 l -0.23437,0.11914 -0.23633,0.11719 -0.17578,0.11719 -0.17773,0.17578 -0.17579,0.17773 -0.11718,0.17578 -0.11719,0.23633 -0.11914,0.23438 -0.0586,0.23632 v 0.23438 0.23438 l 0.0586,0.23632 0.0605,0.23438 0.11719,0.23633 0.29297,0.52929 0.35352,0.5293 0.35351,0.4707 0.35157,0.5293 0.4121,0.4707 0.41211,0.41211 0.47071,0.41211 0.4707,0.41016 0.4707,0.41211 0.5293,0.35351 0.4707,0.35352 0.58789,0.29297 0.5293,0.23633 0.58789,0.29296 0.5293,0.17774 0.58984,0.23437 0.64649,0.17579 0.58789,0.11914 0.58789,0.11718 0.64843,0.0586 0.5879,0.0586 h 0.64652 8.17578 0.58984 l 0.64649,-0.0586 0.58789,-0.0586 0.64648,-0.11718 0.5879,-0.11914 0.58984,-0.17579 0.58789,-0.23437 0.58789,-0.17774 0.5293,-0.29296 0.58789,-0.23633 0.52929,-0.29297 0.5293,-0.35352 0.4707,-0.35351 0.5293,-0.41211 0.4707,-0.41016 0.41211,-0.41211 0.41211,-0.41211 0.41211,-0.4707 0.41211,-0.5293 0.35156,-0.4707 0.29493,-0.5293 0.35351,-0.52929 0.0586,-0.23633 0.11718,-0.23438 v -0.23632 -0.23438 -0.23438 l -0.0586,-0.23632 -0.0586,-0.23438 -0.11914,-0.23633 -0.11719,-0.17578 -0.17578,-0.17773 -0.17579,-0.17578 -0.23632,-0.11719 -0.23438,-0.11719 -0.17773,-0.11914 h -0.29297 l -0.23633,-0.0586 h -11.29297 v -22.0586 h 91.29297 v 22.0586 h -13.23437 l -0.23633,0.0586 h -0.23438 l -0.23633,0.11914 -0.23437,0.11719 -0.17773,0.11719 -0.17579,0.17578 -0.17578,0.17773 -0.17773,0.17578 -0.0586,0.23633 -0.11718,0.23438 -0.0586,0.23632 v 0.23438 0.23438 l 0.0586,0.23632 0.0586,0.23438 0.11719,0.23633 0.29492,0.52929 0.29492,0.5293 0.35156,0.4707 0.41211,0.5293 0.41211,0.4707 0.41211,0.41211 0.47071,0.41211 0.4707,0.41016 0.4707,0.41211 0.4707,0.35351 0.5293,0.35352 0.58789,0.29297 0.5293,0.23633 0.58789,0.29296 0.5293,0.17774 0.58789,0.23437 0.58789,0.17579 0.64844,0.11914 0.58789,0.11718 0.64648,0.0586 0.58789,0.0586 h 0.64844 15.05858 v -283.5293 h -15.05858 -0.64844 l -0.58789,0.0586 -0.64648,0.0586 -0.58789,0.11914 -0.64844,0.17578 -0.58789,0.11719 -0.58789,0.23633 -0.52929,0.17576 -0.58789,0.29492 -0.5293,0.23438 -0.58789,0.35351 -0.5293,0.29297 -0.4707,0.35352 -0.4707,0.41211 -0.4707,0.41211 -0.47071,0.4121 -0.41211,0.46876 -0.41211,0.4707 -0.41211,0.4707 -0.35156,0.4707 -0.29492,0.5293 -0.29492,0.58984 -0.11719,0.17579 -0.0586,0.23437 -0.0586,0.23633 v 0.23437 0.29493 l 0.0586,0.23437 0.11718,0.23633 0.0586,0.17578 0.17773,0.23633 0.17578,0.17578 0.17579,0.11719 0.17773,0.17773 0.23437,0.0586 0.23633,0.11718 0.23438,0.0586 h 0.23633 13.23437 v 22.05859 H 464.2009 v -22.05859 h 11.29297 0.23633 l 0.29297,-0.0586 0.17773,-0.11718 0.23438,-0.0586 0.23632,-0.17773 0.17579,-0.11719 0.17578,-0.17578 0.11719,-0.23633 0.11914,-0.17578 0.0586,-0.23633 0.0586,-0.23437 v -0.29493 -0.23437 -0.23633 l -0.11718,-0.23437 -0.0586,-0.17579 -0.35351,-0.58984 -0.29493,-0.5293 -0.35156,-0.4707 -0.41211,-0.4707 -0.41211,-0.4707 -0.41211,-0.46876 -0.41211,-0.4121 -0.4707,-0.41211 -0.5293,-0.41211 -0.4707,-0.35352 -0.5293,-0.29297 -0.52929,-0.35351 -0.58789,-0.23438 -0.52932,-0.29492 -0.58789,-0.17578 -0.58789,-0.23633 -0.58984,-0.11719 -0.5879,-0.17578 -0.64648,-0.11914 -0.58789,-0.0586 -0.64649,-0.0586 h -0.58984 -8.17578 -0.64648 l -0.5879,0.0586 -0.64843,0.0586 -0.58789,0.11914 -0.58789,0.17578 -0.64649,0.11719 -0.58984,0.23633 -0.5293,0.17578 -0.58789,0.29492 -0.5293,0.23438 -0.58789,0.35351 -0.4707,0.29297 -0.5293,0.35352 -0.4707,0.41211 -0.4707,0.41211 -0.47071,0.4121 -0.41211,0.46876 -0.4121,0.4707 -0.35157,0.4707 -0.35351,0.4707 -0.35352,0.5293 -0.29297,0.58984 -0.11719,0.17579 -0.0605,0.23437 -0.0586,0.23633 v 0.23437 0.29493 l 0.0586,0.23437 0.11914,0.23633 0.11719,0.17578 0.11718,0.23633 0.17579,0.17578 0.17773,0.11719 0.17578,0.17773 0.23633,0.0586 0.23437,0.11718 0.23633,0.0586 h 0.23438 6.29492 v 22.05859 h -27.70703 v 0.23633 l -0.0586,0.23437 -0.0586,0.23633 -0.11719,0.17578 -0.11719,0.23438 -0.17773,0.17773 -0.17578,0.11719 -0.17773,0.17578 -0.17579,0.11914 -0.23437,0.0586 -0.23633,0.0586 -0.23437,0.0586 h -0.23633 l -0.23438,-0.0586 -0.23633,-0.0586 -0.23437,-0.0586 -0.17773,-0.11914 -0.17579,-0.17578 -0.17578,-0.11719 -0.17773,-0.17773 -0.11719,-0.23438 -0.11719,-0.17578 -0.0586,-0.23633 -0.0586,-0.23437 v -0.23633 h -27.70705 v -22.05859 h 6.29493 0.23437 l 0.23633,-0.0586 0.23437,-0.11718 0.23633,-0.0586 0.17578,-0.17773 0.17579,-0.11719 0.17773,-0.17578 0.11719,-0.23633 0.11718,-0.17578 0.11914,-0.23633 0.0586,-0.23437 v -0.29493 -0.23437 l -0.0586,-0.23633 -0.0605,-0.23437 -0.11719,-0.17579 -0.29297,-0.58984 -0.35351,-0.5293 -0.35352,-0.4707 -0.35351,-0.4707 -0.41016,-0.4707 -0.41211,-0.46876 -0.4707,-0.4121 -0.47071,-0.41211 -0.47074,-0.41211 -0.5293,-0.35352 -0.4707,-0.29297 -0.58789,-0.35351 -0.5293,-0.23438 -0.58789,-0.29492 -0.5293,-0.17578 -0.58984,-0.23633 -0.64648,-0.11719 -0.58789,-0.17578 -0.58789,-0.11914 -0.64844,-0.0586 -0.58789,-0.0586 h -0.64649 -8.17578 -0.58984 l -0.64649,0.0586 -0.58789,0.0586 -0.64648,0.11914 -0.58984,0.17578 -0.5879,0.11719 -0.58789,0.23633 -0.58789,0.17578 -0.52929,0.29492 -0.58789,0.23438 -0.5293,0.35351 -0.5293,0.29297 -0.4707,0.35352 -0.5293,0.41211 -0.4707,0.41211 -0.41211,0.4121 -0.4707,0.46876 -0.35352,0.4707 -0.41211,0.4707 -0.35156,0.4707 -0.29492,0.5293 -0.35352,0.58984 -0.0586,0.17579 -0.11718,0.23437 v 0.23633 0.23437 0.29493 l 0.0586,0.23437 0.0586,0.23633 0.11719,0.17578 0.11914,0.23633 0.17578,0.17578 0.17578,0.11719 0.23633,0.17773 0.23437,0.0586 0.17774,0.11718 0.29296,0.0586 h 0.23633 11.29297 v 22.05859 h -91.29298 v -22.05859 h 13.23438 0.23633 l 0.23437,-0.0586 0.23633,-0.11718 0.23437,-0.0586 0.17579,-0.17773 0.17773,-0.11719 0.17578,-0.17578 0.17773,-0.23633 0.0586,-0.17578 0.11719,-0.23633 0.0586,-0.23437 v -0.29493 -0.23437 l -0.0586,-0.23633 -0.0586,-0.23437 -0.11719,-0.17579 -0.29492,-0.58984 -0.29492,-0.5293 -0.35156,-0.4707 -0.41211,-0.4707 -0.41211,-0.4707 -0.41211,-0.46876 -0.4707,-0.4121 -0.47071,-0.41211 -0.4707,-0.41211 -0.5293,-0.35352 -0.4707,-0.29297 -0.58789,-0.35351 -0.5293,-0.23438 -0.58789,-0.29492 -0.52929,-0.17578 -0.58789,-0.23633 -0.5879,-0.11719 -0.64843,-0.17578 -0.58789,-0.11914 -0.64649,-0.0586 -0.58789,-0.0586 h -0.64844 -3.76367 V 91.287798 h 13.88281 v 6.29493 h 9.41016 v -18.0586 -0.23633 l -0.0586,-0.17578 -0.0586,-0.23632 -0.0586,-0.17579 -0.11719,-0.23437 -0.11719,-0.17774 -0.17773,-0.11718 -5.64648,-5.29492 -0.23633,-0.11719 -0.17576,-0.11718 -0.23438,-0.11719 -0.23633,-0.0586 -0.23437,-0.0586 h -0.23633 -0.23437 l -0.23633,0.0586 -0.23438,0.11719 -0.23633,0.11718 -0.17578,0.11719 -0.17578,0.17774 -0.17773,0.17578 -0.11719,0.17578 -0.11719,0.23633 -0.0586,0.23437 -0.0586,0.23633 v 0.23437 7.5879 h -15.7656 v -56.70507 h 15.76562 v 7.52929 0.23633 l 0.0586,0.23438 0.0586,0.23632 0.11718,0.23438 0.11719,0.17578 0.17773,0.23633 0.17578,0.11719 0.17578,0.17578 0.23633,0.11914 0.23438,0.0586 0.23633,0.0586 h 0.23437 0.23633 l 0.23437,-0.0586 0.23633,-0.0586 0.23438,-0.0586 0.17578,-0.17773 0.23633,-0.11719 5.64648,-5.23632 0.17773,-0.17579 0.11719,-0.17578 0.11719,-0.17773 0.0586,-0.23438 0.0586,-0.17578 0.0586,-0.23633 v -0.23437 -11.76563 z M 15.847398,153.05344 H 283.49388 V 413.87571 H 15.847398 Z M 294.7888,184.52414 H 555.49388 V 382.40695 H 294.7888 Z"
     style="fill:#212830;fill-opacity:1;stroke:#212830;stroke-width:0.0588235px;stroke-linecap:round;stroke-linejoin:round;stroke-miterlimit:4;stroke-dasharray:none;stroke-opacity:1"
     id="path1937" />
</svg>
