<?xml version="1.0" encoding="UTF-8" standalone="no"?>
<svg
   xmlns:dc="http://purl.org/dc/elements/1.1/"
   xmlns:cc="http://creativecommons.org/ns#"
   xmlns:rdf="http://www.w3.org/1999/02/22-rdf-syntax-ns#"
   xmlns:svg="http://www.w3.org/2000/svg"
   xmlns="http://www.w3.org/2000/svg"
   id="svg1005"
   height="164mm"
   width="164mm"
   version="1.0">
  <metadata
     id="metadata1009">
    <rdf:RDF>
      <cc:Work
         rdf:about="">
        <dc:format>image/svg+xml</dc:format>
        <dc:type
           rdf:resource="http://purl.org/dc/dcmitype/StillImage" />
        <dc:title></dc:title>
      </cc:Work>
    </rdf:RDF>
  </metadata>
  <defs
     id="defs3" />
  <path
     d="m 268.68592,0.59802572 -0.88282,0.05859 -0.88281,0.234376 -0.82226,0.41210898 -0.70704,0.4707061 -0.64648,0.646484 -0.5293,0.765625 -0.35351,0.822266 -0.23438,0.824219 -0.0586,0.941406 V 33.598026 l 0.0586,0.587891 0.17578,0.58789 0.29493,0.5293 0.35156,0.4707 0.4707,0.41211 0.5293,0.29297 0.58984,0.11914 0.58789,0.11719 h 14.41211 l 0.58789,-0.0586 0.47071,-0.17773 0.52929,-0.23438 0.41211,-0.29492 0.41016,-0.35156 0.29492,-0.4707 0.23438,-0.47071 0.11914,-0.52929 0.0586,-0.529301 v -3.119141 l -0.0586,-0.529297 -0.11914,-0.529297 -0.23439,-0.470703 -0.29492,-0.410156 -0.41016,-0.412109 -0.41211,-0.294922 -0.52929,-0.234375 -0.47071,-0.119141 -0.58789,-0.05859 H 272.8031 V 9.8909948 h 31.94141 V 150.89099 l 0.0586,0.4707 0.11719,0.4707 0.17774,0.47071 0.23437,0.41211 0.35352,0.35351 2.17578,2.17578 -2.17578,2.23438 -0.35352,0.35351 -0.23437,0.41211 -0.17774,0.41211 -0.11719,0.5293 -0.0586,0.4707 v 109.0586 L 289.3324,253.2445 v -7.23632 l -0.0586,-0.5293 -0.17578,-0.5293 -0.17774,-0.4707 -0.35156,-0.4707 -0.35352,-0.35157 -0.47069,-0.35351 -0.4707,-0.17578 -0.5293,-0.17774 -0.5293,-0.0586 h -9.29492 l -0.58789,0.0586 -0.58789,0.17774 -0.5293,0.29296 -0.4707,0.41211 -0.35352,0.47071 -0.29296,0.52929 -0.17774,0.58789 -0.0586,0.5879 v 6.53124 0.46876 l 0.11719,0.4707 0.23632,0.41211 0.23438,0.4707 0.29492,0.35352 30,30 V 403.7738 h -96.82422 v -21.64648 l -0.11719,-0.88282 -0.23437,-0.88281 -0.35352,-0.82227 -0.52929,-0.76562 -0.64649,-0.58789 -0.70703,-0.5293 -0.82227,-0.41211 -0.88281,-0.23632 -0.8828,-0.0586 h -17.5293 l -0.58789,0.0586 -0.58789,0.17773 -0.5293,0.29297 -0.4707,0.41211 -0.35351,0.4707 -0.29493,0.5293 -0.17578,0.52929 -0.0586,0.64844 v 3.0586 l 0.0586,0.64648 0.17578,0.5293 0.29493,0.58789 0.35351,0.41211 0.4707,0.41211 0.5293,0.29297 0.58789,0.17773 0.58789,0.0586 h 13.41211 v 17.52929 h -70.05859 v -17.5293 h 13.41016 l 0.53124,-0.0586 0.46876,-0.11719 0.53124,-0.23633 0.41016,-0.29297 0.41211,-0.4121 0.29492,-0.41211 0.23438,-0.5293 0.11719,-0.5293 0.0605,-0.52929 v -3.0586 l -0.0605,-0.5293 -0.11719,-0.53124 -0.23438,-0.5293 -0.29492,-0.41016 -0.41211,-0.41211 -0.41016,-0.29492 -0.53124,-0.23437 -0.46876,-0.11914 -0.53124,-0.0586 h -17.5293 l -0.88086,0.0586 -0.88281,0.23632 -0.82422,0.41211 -0.76367,0.5293 -0.5879,0.58789 -0.53124,0.76562 -0.41016,0.82227 -0.23633,0.88281 -0.0586,0.88282 v 25.76367 l 0.0586,0.88281 0.23633,0.88281 0.41016,0.82227 0.53124,0.70703 0.5879,0.64648 0.76367,0.5293 0.82422,0.35352 0.88281,0.23437 0.88086,0.11914 h 180.29492 v 51.11719 l 0.0586,0.41211 0.0586,0.41016 35.17771,131.35351 2,5.41211 3,4.94141 3.8223,4.29297 4.5879,3.53124 5.1777,2.5879 5.5293,1.58789 5.7637,0.52929 h 125.4707 l 0.8828,-0.0586 0.8828,-0.23633 0.8223,-0.35156 0.7656,-0.5293 0.5879,-0.64844 0.5293,-0.70507 0.4121,-0.82422 0.1758,-0.88281 0.1191,-0.88086 v -6.11914 l -0.059,-0.5293 -0.1191,-0.5293 -0.2344,-0.4707 -0.2949,-0.4707 -0.4121,-0.35157 -0.4102,-0.29492 -0.5293,-0.23437 -3.0605,-1.11914 -0.5879,-0.17579 h -0.5879 l -0.5879,0.0586 -0.5879,0.17773 -0.4707,0.29297 -0.4707,0.41211 -0.3535,0.41211 -0.293,0.5293 -0.1777,0.58789 -0.059,0.58789 v 3.11719 h -50.4707 V 9.8909948 h 50.4707 v 3.0585932 l 0.059,0.589844 0.1777,0.587891 0.293,0.529296 0.3535,0.470704 0.4707,0.351562 0.4707,0.294922 0.5879,0.234375 0.5879,0.06055 0.5879,-0.06055 0.5879,-0.117187 3.0605,-1.117188 0.5293,-0.234375 0.4102,-0.353516 0.4121,-0.353515 0.2949,-0.470703 0.2344,-0.470703 0.1191,-0.529297 0.059,-0.529297 V 5.7738068 l -0.1191,-0.941406 -0.1758,-0.824219 -0.4121,-0.822266 -0.5293,-0.765625 -0.58791,-0.646484 -0.7656,-0.4707031 -0.8223,-0.41210898 -0.8828,-0.234376 -0.8828,-0.05859 z M 314.03943,9.8909948 H 431.51011 V 447.06872 h -12.3535 l -0.5293,0.0586 -0.5293,0.11718 -0.4707,0.23438 -0.4707,0.29492 -0.3535,0.41211 -0.3535,0.41211 -0.1758,0.5293 -0.1758,0.52929 -0.059,0.5293 v 3.05859 l 0.059,0.64649 0.1758,0.52929 0.2949,0.5879 0.4102,0.4121 0.4707,0.41211 0.5293,0.29493 0.5898,0.17578 0.5879,0.0586 h 12.3535 v 153.64649 h -61.5898 l -4.0586,-0.41016 -3.8828,-1.11914 -3.5879,-1.82227 -3.1758,-2.4707 -2.7051,-3 -2.1191,-3.4707 -1.4121,-3.76563 -34.93948,-130.58789 v -7 h 12.35156 l 0.5293,-0.0586 0.5293,-0.11719 0.5293,-0.23633 0.4121,-0.29297 0.41211,-0.41211 0.29493,-0.41211 0.23437,-0.52929 0.11719,-0.5293 0.0605,-0.5293 v -3.05859 l -0.0605,-0.5293 -0.11719,-0.52929 -0.23437,-0.5293 -0.29493,-0.41211 -0.41211,-0.41211 -0.4121,-0.29492 -0.5293,-0.23438 -0.5293,-0.11718 -0.5293,-0.0586 h -12.35156 z"
     style="fill:#212830;fill-opacity:1;stroke:#212830;stroke-width:0.0588235px;stroke-linecap:round;stroke-linejoin:round;stroke-miterlimit:4;stroke-dasharray:none;stroke-opacity:1"
     id="path1003" />
</svg>
