<?xml version="1.0" encoding="UTF-8" standalone="no"?>
<svg
   xmlns:dc="http://purl.org/dc/elements/1.1/"
   xmlns:cc="http://creativecommons.org/ns#"
   xmlns:rdf="http://www.w3.org/1999/02/22-rdf-syntax-ns#"
   xmlns:svg="http://www.w3.org/2000/svg"
   xmlns="http://www.w3.org/2000/svg"
   id="svg1469"
   height="126mm"
   width="126mm"
   version="1.0">
  <metadata
     id="metadata1473">
    <rdf:RDF>
      <cc:Work
         rdf:about="">
        <dc:format>image/svg+xml</dc:format>
        <dc:type
           rdf:resource="http://purl.org/dc/dcmitype/StillImage" />
        <dc:title></dc:title>
      </cc:Work>
    </rdf:RDF>
  </metadata>
  <defs
     id="defs3" />
  <path
     d="m 203.72724,45.551642 -0.4707,0.0586 -0.41211,0.11719 -0.41016,0.17773 -0.35351,0.29297 -0.29493,0.35352 -0.23437,0.35351 -0.17773,0.41016 -0.11719,0.4707 v 0.41211 l 0.11719,0.4707 0.11914,0.41211 0.23437,0.41211 0.29492,0.35157 0.41211,0.23632 0.35156,0.23438 0.47071,0.11914 12.76561,2.4707 v 49.999998 h -67.17772 l -0.41016,0.0586 -0.41211,0.11718 -0.41211,0.17578 -0.35351,0.23633 -0.29297,0.29297 -0.23633,0.35352 -0.17578,0.41211 -0.11719,0.41211 -0.0605,0.4121 v 2.46876 l 0.0605,0.4121 0.11719,0.41211 0.17578,0.41211 0.23633,0.35352 0.29297,0.29297 0.35351,0.23633 0.41211,0.17578 0.41211,0.11718 h 0.41016 45.88281 v 87.70704 h -45.88281 l -0.41016,0.0586 -0.41211,0.0586 -0.41211,0.23438 -0.35351,0.23633 -0.29297,0.29297 -0.23633,0.35351 -0.17578,0.35352 -0.11719,0.41211 -0.0605,0.4707 v 23.76367 l 0.0605,0.41211 0.11719,0.41211 0.17578,0.41211 0.23633,0.35156 0.29297,0.29492 0.35351,0.23438 0.41211,0.17773 0.41211,0.11719 h 0.41016 5.76562 0.41211 l 0.41211,-0.11719 0.35156,-0.17773 0.35352,-0.23438 0.35352,-0.29492 0.23437,-0.35156 0.17773,-0.41211 0.11719,-0.41214 v -0.41211 -18.88281 h 24.58789 v 18.88281 l 0.0586,0.41211 0.11718,0.41211 0.17774,0.41211 0.23437,0.35156 0.29493,0.29492 0.35156,0.23438 0.35351,0.17773 0.41211,0.11719 h 0.47071 10.64648 v 125.41211 h -10.64648 -0.47071 l -0.4707,0.17578 -0.41211,0.23633 -0.41211,0.29297 -0.29297,0.35351 -0.23633,0.41211 -0.11718,0.47071 -0.0586,0.4707 v 18.88086 h -24.58789 v -18.88086 -0.4707 l -0.17773,-0.47071 -0.23438,-0.41211 -0.29492,-0.35351 -0.35156,-0.29297 -0.41211,-0.23633 -0.4707,-0.17578 h -0.47071 -5.76562 -0.4707 l -0.46876,0.17578 -0.4121,0.23633 -0.35352,0.29297 -0.35352,0.35351 -0.17578,0.41211 -0.17578,0.47071 -0.0605,0.4707 v 30.35156 l 0.0605,0.41211 0.11719,0.41211 0.17578,0.41211 0.23633,0.35351 0.29297,0.29297 0.35351,0.23633 0.41211,0.17578 0.41211,0.11719 0.41016,0.0586 h 5.76562 l 0.41211,-0.0586 0.41211,-0.11719 0.35156,-0.17578 0.35352,-0.23633 0.35352,-0.29297 0.23437,-0.35351 0.17773,-0.41211 0.11719,-0.41211 v -0.41211 -4.11719 h 37.70508 v 42.58789 H 66.139347 v -17.17578 l -0.0586,-0.70508 -0.17579,-0.70703 -0.29492,-0.64648 -0.41211,-0.58789 -0.52929,-0.4707 -0.58789,-0.41211 -0.64649,-0.29493 -0.64844,-0.23437 -0.70507,-0.0586 h -9.0586 l -0.41211,0.0586 -0.41211,0.11719 -0.35351,0.17578 -0.35156,0.23633 -0.35352,0.29297 -0.23438,0.35351 -0.17773,0.41211 -0.11719,0.41211 v 0.41211 2.4707 0.41016 l 0.11719,0.41211 0.17773,0.41211 0.23438,0.35351 0.35352,0.29297 0.35156,0.23633 0.35351,0.17578 0.41211,0.11719 0.41211,0.0605 h 5.76367 v 13.88086 H 8.0221471 V 409.37581 H 18.668637 l 0.4707,-0.0605 0.4707,-0.11719 0.41211,-0.23437 0.35157,-0.35352 0.35351,-0.35352 0.17773,-0.4121 0.17579,-0.46876 0.0586,-0.4707 v -2.4707 l -0.0586,-0.41211 -0.11719,-0.41211 -0.17774,-0.41211 -0.23437,-0.35351 -0.29492,-0.29297 -0.35157,-0.23633 -0.4121,-0.17578 -0.41211,-0.11719 -0.41211,-0.0586 H 4.7272271 l -0.70508,0.0586 -0.70703,0.23437 -0.64648,0.29493 -0.58789,0.41211 -0.47071,0.4707 -0.41211,0.58789 -0.29297,0.64648 -0.17773,0.70703 -0.0586,0.70508 v 20.47071 l 0.0586,0.70507 0.17773,0.70704 0.29297,0.64648 0.41211,0.58789 0.47071,0.5293 0.58789,0.41211 0.64648,0.29492 0.70703,0.17578 0.70508,0.0586 H 356.84444 l 0.707,-0.0586 0.7051,-0.17578 0.6484,-0.29492 0.5879,-0.41211 0.4707,-0.5293 0.4102,-0.58789 0.2949,-0.64648 0.2363,-0.70704 0.059,-0.70507 v -22.11719 l -0.059,-0.41211 -0.1191,-0.41211 -0.1758,-0.41211 -0.2363,-0.35351 -0.293,-0.29297 -0.3535,-0.23633 -0.4121,-0.17578 -0.4102,-0.11719 -0.4121,-0.0586 h -11.4707 l -0.4121,0.0586 -0.4121,0.11719 -0.4121,0.17578 -0.3516,0.23633 -0.2949,0.29297 -0.2344,0.35351 -0.1777,0.41211 -0.1172,0.41211 -0.059,0.41211 v 2.4707 l 0.059,0.4707 0.1172,0.46876 0.2363,0.4121 0.293,0.35352 0.4121,0.35352 0.4121,0.23437 0.4707,0.11719 0.4707,0.0605 h 6.5293 v 13.88086 h -25.3535 v -112 l -0.059,-0.52929 -0.1172,-0.41211 -0.2363,-0.4707 -0.293,-0.35157 -1.7656,-1.76562 1.7656,-1.70508 0.293,-0.35352 0.2363,-0.4707 0.1172,-0.41211 0.059,-0.5293 v -86.64644 l 12.2949,12.29492 v 5.76367 0.41211 l 0.1172,0.41211 0.1758,0.41211 0.2363,0.35156 0.3516,0.29493 0.2949,0.23437 0.4121,0.17774 0.4121,0.11718 h 0.4121 7.4102 0.4121 l 0.4121,-0.11718 0.4121,-0.17774 0.293,-0.23437 0.3535,-0.29493 0.2363,-0.35156 0.1758,-0.41211 0.1172,-0.41211 v -0.41211 -5.17578 -0.41211 l -0.1172,-0.35351 -0.1172,-0.35157 -0.2363,-0.35351 -0.2344,-0.29492 -23.8242,-23.82227 V 52.905152 h 98.2363 l 7.293,0.64649 7,1.88281 6.5879,3.11719 6,4.17578 5.1191,5.11719 4.1758,6 3.0586,6.58984 1.8828,7 0.6465,7.29297 v 8.177728 h -54.05859 l -0.7051,0.0586 -0.6484,0.17578 -0.6465,0.29492 -0.5879,0.41016 -0.5293,0.53124 -0.4121,0.5879 -0.2949,0.64648 -0.1758,0.70508 -0.059,0.70703 v 20.4707 l 0.059,0.70508 0.1758,0.70703 0.2949,0.64649 0.4121,0.58789 0.5293,0.4707 0.5879,0.41211 0.6465,0.29297 0.6484,0.23633 0.7051,0.0586 h 9.0586 l 0.4707,-0.0586 0.4707,-0.17579 0.4121,-0.17773 0.3535,-0.35351 0.293,-0.35157 0.2363,-0.41211 0.1758,-0.4707 v -0.4707 -2.47071 -0.4707 l -0.1758,-0.4707 -0.2363,-0.41211 -0.293,-0.35156 -0.3535,-0.35351 -0.4121,-0.23438 -0.4707,-0.11914 -0.4707,-0.0586 h -5.7637 V 110.2567 h 50.7637 v 13.94141 h -10.6465 l -0.4121,0.0586 -0.4121,0.11914 -0.4121,0.17579 -0.3516,0.23437 -0.2949,0.29492 -0.2344,0.35352 -0.1777,0.41016 -0.1172,0.4121 -0.059,0.41211 v 2.47071 l 0.059,0.41211 0.1172,0.41211 0.1777,0.4121 0.2344,0.35157 0.2949,0.29492 0.3516,0.23437 0.4121,0.17774 0.4121,0.11719 0.4121,0.0586 h 13.9414 l 0.7051,-0.0586 0.707,-0.23633 0.6465,-0.29297 0.5879,-0.41211 0.4707,-0.4707 0.4121,-0.58789 0.293,-0.64649 0.1777,-0.70703 0.059,-0.70508 V 94.727422 l -0.9414,-9.58789 -2.7656,-9.23438 -4.5293,-8.5293 -6.1172,-7.4121 -7.4707,-6.11914 -8.4707,-4.5293 -9.2344,-2.82227 -9.5879,-0.9414 z m 19.64651,7.35351 h 97.4121 v 54.939458 h -9.8223 -0.4707 l -0.4707,0.17773 -0.4121,0.23437 -0.3535,0.29493 -0.293,0.35351 -0.2363,0.41016 -0.1758,0.4707 v 0.4707 2.47071 0.4707 l 0.1758,0.4707 0.2363,0.41211 0.293,0.41211 0.3535,0.29297 0.4121,0.23633 0.4707,0.11719 0.4707,0.0586 h 9.0586 V 423.25671 H 202.08076 v -47.4707 l -0.0586,-0.4707 -0.11719,-0.41016 -0.17773,-0.35351 -0.23437,-0.35352 -0.29493,-0.29297 -0.35351,-0.29492 -0.35156,-0.17578 -0.47071,-0.11914 h -0.41211 -10.64648 v -13.93946 h 10.64648 l 0.41211,-0.0605 0.47071,-0.11719 0.35156,-0.17578 0.35351,-0.23633 0.29493,-0.29297 0.23437,-0.35351 0.17773,-0.35352 0.11719,-0.4707 0.0586,-0.41016 V 221.72742 l -0.0586,-0.41211 -0.11719,-0.41016 -0.17773,-0.41211 -0.23437,-0.35351 -0.29493,-0.29492 -0.35351,-0.23438 -0.35156,-0.17578 -0.47071,-0.11914 -0.41211,-0.0586 h -10.64648 v -13.9414 h 10.64648 l 0.47071,-0.0586 0.4707,-0.11718 0.41211,-0.23438 0.41016,-0.29492 0.29492,-0.35352 0.23632,-0.4707 0.11719,-0.41016 0.0586,-0.53124 v -92.5879 h 13.94139 v 2.47071 0.4707 l 0.1758,0.4707 0.2363,0.41211 0.293,0.41211 0.3535,0.29297 0.4121,0.23633 0.4707,0.11719 0.4707,0.0586 h 2.4707 l 0.4688,-0.0586 0.4707,-0.11719 0.4121,-0.23633 0.4121,-0.29297 0.2949,-0.41211 0.2344,-0.41211 0.1172,-0.4707 0.059,-0.4707 z"
     style="fill:#212830;fill-opacity:1;stroke:#212830;stroke-width:0.0588235px;stroke-linecap:round;stroke-linejoin:round;stroke-miterlimit:4;stroke-dasharray:none;stroke-opacity:1"
     id="path1467" />
</svg>
