<?xml version="1.0" encoding="UTF-8" standalone="no"?>
<svg
   xmlns:dc="http://purl.org/dc/elements/1.1/"
   xmlns:cc="http://creativecommons.org/ns#"
   xmlns:rdf="http://www.w3.org/1999/02/22-rdf-syntax-ns#"
   xmlns:svg="http://www.w3.org/2000/svg"
   xmlns="http://www.w3.org/2000/svg"
   id="svg997"
   height="136mm"
   width="136mm"
   version="1.0">
  <metadata
     id="metadata1001">
    <rdf:RDF>
      <cc:Work
         rdf:about="">
        <dc:format>image/svg+xml</dc:format>
        <dc:type
           rdf:resource="http://purl.org/dc/dcmitype/StillImage" />
        <dc:title></dc:title>
      </cc:Work>
    </rdf:RDF>
  </metadata>
  <defs
     id="defs3">
    <pattern
       y="0"
       x="0"
       height="6"
       width="6"
       patternUnits="userSpaceOnUse"
       id="WMFhbasepattern" />
  </defs>
  <path
     d="m 140.71372,63.00787 -0.88281,0.05859 -0.82422,0.236328 -0.76367,0.353516 -0.64649,0.470703 -0.64843,0.646484 -0.47071,0.646481 -0.35156,0.76563 -0.23633,0.82226 -0.0586,0.88282 v 26.17578 l 0.0586,0.58984 0.17579,0.5293 0.23632,0.4707 0.41211,0.4707 0.41211,0.35157 0.5293,0.29492 0.5293,0.11719 0.58789,0.0586 h 13.52928 0.5293 l 0.4707,-0.17578 0.47071,-0.17773 0.41211,-0.29297 0.35156,-0.35352 0.29492,-0.41211 0.23438,-0.4707 0.11914,-0.5293 0.0586,-0.4707 v -18.41016 h 19.35351 V 203.47859 l 0.0586,0.52929 0.11719,0.47071 0.23437,0.4707 0.29492,0.41211 0.35352,0.35352 0.41016,0.29296 0.4707,0.29493 0.35351,0.41211 0.29493,0.4707 0.23437,0.5293 0.11719,0.52929 v 0.5293 l -0.1172,0.58788 -0.23437,0.4707 -0.29493,0.47071 -0.35351,0.41211 -0.4707,0.35156 -0.41016,0.29492 -0.35352,0.35352 -0.29492,0.4121 -0.23437,0.41016 -0.11719,0.5293 -0.0586,0.4707 V 315.2442 l -14.53124,-14.58789 v -6.76562 l -0.0586,-0.58789 -0.17578,-0.5293 -0.23438,-0.5293 -0.35351,-0.41211 -0.4707,-0.35351 -0.47071,-0.29297 -0.58789,-0.17774 -0.52929,-0.0586 h -8.76563 l -0.5293,0.0586 -0.58789,0.17774 -0.4707,0.29297 -0.4707,0.35351 -0.35352,0.41211 -0.23437,0.5293 -0.17579,0.5293 -0.0605,0.58789 v 31.05859 l 0.0605,0.82422 0.23438,0.82227 0.35352,0.76562 0.4707,0.70508 0.58789,0.58984 0.70508,0.4707 0.76562,0.35157 0.82227,0.23633 0.82422,0.0586 h 24.23632 V 438.41999 H 83.477395 v -16.4707 l -0.0586,-0.88281 -0.23437,-0.82227 -0.35352,-0.76562 -0.4707,-0.64649 -0.58789,-0.64648 -0.70703,-0.4707 -0.76367,-0.35353 -0.82422,-0.23438 -0.82226,-0.0605 h -16.4707 l -0.5879,0.0605 -0.53124,0.17579 -0.5293,0.23437 -0.41016,0.41211 -0.35351,0.41211 -0.29493,0.5293 -0.17578,0.52929 -0.0586,0.58789 v 3.88282 l 0.0586,0.52929 0.17578,0.58789 0.29493,0.47071 0.35351,0.4707 0.41016,0.35352 0.5293,0.23437 0.53124,0.17774 0.5879,0.0586 h 8.70507 v 14.5293 h -58.17578 v -14.5293 h 8.76367 l 0.5293,-0.0586 0.5293,-0.17774 0.5293,-0.23437 0.4121,-0.35352 0.41211,-0.4707 0.23633,-0.47071 0.17578,-0.58789 0.0586,-0.52929 v -3.88282 l -0.0586,-0.58789 -0.17578,-0.52929 -0.23633,-0.5293 -0.41211,-0.41211 -0.4121,-0.41211 -0.5293,-0.23437 -0.5293,-0.17579 -0.5293,-0.0605 H 4.9481049 l -0.82227,0.0605 -0.82422,0.23438 -0.76562,0.35352 -0.70508,0.4707 -0.58789,0.64648 -0.4707,0.64649 -0.35352,0.76562 -0.23437,0.82227 -0.0586,0.88281 v 24.23633 l 0.0586,0.82226 0.23437,0.82422 0.35352,0.76368 0.4707,0.70703 0.58789,0.58789 0.70508,0.4707 0.76562,0.35352 0.82422,0.23437 0.82227,0.0586 H 257.00671 509.06531 l 0.8242,-0.0586 0.8242,-0.23437 0.7637,-0.35352 0.707,-0.4707 0.5879,-0.58789 0.4707,-0.70703 0.3535,-0.76368 0.2344,-0.82422 0.059,-0.82226 v -24.23633 l -0.059,-0.88281 -0.2344,-0.82227 -0.3535,-0.76562 -0.4707,-0.64649 -0.5879,-0.64648 -0.707,-0.4707 -0.7637,-0.35352 -0.8242,-0.23438 -0.8242,-0.0605 h -16.4688 l -0.5898,0.0605 -0.5293,0.17579 -0.5293,0.23437 -0.4121,0.41211 -0.3516,0.41211 -0.2949,0.5293 -0.1758,0.52929 -0.059,0.58789 v 3.88282 l 0.059,0.52929 0.1758,0.58789 0.2949,0.47071 0.3516,0.4707 0.4121,0.35352 0.5293,0.23437 0.5293,0.17774 0.5898,0.0586 h 8.7051 v 14.5293 h -58.1758 v -14.5293 h 8.7637 l 0.5293,-0.0586 0.5879,-0.17774 0.4707,-0.23437 0.4707,-0.35352 0.3535,-0.4707 0.2344,-0.47071 0.1777,-0.58789 0.059,-0.52929 v -3.88282 l -0.059,-0.58789 -0.1777,-0.52929 -0.2344,-0.5293 -0.3535,-0.41211 -0.4707,-0.41211 -0.4707,-0.23437 -0.5879,-0.17579 -0.5293,-0.0605 h -16.5293 l -0.8242,0.0605 -0.8223,0.23438 -0.7656,0.35352 -0.7051,0.4707 -0.5879,0.64648 -0.4707,0.64649 -0.3535,0.76562 -0.2344,0.82227 -0.061,0.88281 v 16.4707 h -91.1172 V 329.7735 h 24.2363 l 0.8223,-0.0586 0.8242,-0.23633 0.7637,-0.35157 0.707,-0.4707 0.5879,-0.58984 0.4712,-0.70507 0.3535,-0.76562 0.2344,-0.82227 0.059,-0.82422 v -31.05859 l -0.059,-0.58789 -0.1172,-0.5293 -0.2949,-0.5293 -0.3516,-0.41211 -0.4707,-0.35351 -0.4707,-0.29297 -0.5293,-0.17774 -0.5879,-0.0586 h -8.707 l -0.5879,0.0586 -0.5293,0.17774 -0.5293,0.29297 -0.4121,0.35351 -0.4121,0.41211 -0.2344,0.5293 -0.1777,0.5293 -0.059,0.58789 v 6.76562 l -14.5293,14.58789 V 213.53717 l -0.059,-0.4707 -0.1172,-0.5293 -0.2363,-0.41016 -0.293,-0.4121 -0.3535,-0.35352 -0.4121,-0.29492 -0.4121,-0.35156 -0.4102,-0.41211 -0.2941,-0.47071 -0.2344,-0.4707 -0.061,-0.58789 v -0.5293 l 0.061,-0.52929 0.2344,-0.5293 0.2949,-0.4707 0.4102,-0.41211 0.4121,-0.29493 0.4121,-0.29296 0.3535,-0.35352 0.293,-0.41211 0.2363,-0.4707 0.1172,-0.47071 0.059,-0.52929 V 75.656306 h 19.4117 v 18.41016 0.58984 l 0.1758,0.5293 0.2949,0.4707 0.3535,0.4707 0.4102,0.35157 0.5312,0.29492 0.5293,0.11719 0.5879,0.0586 h 13.5879 l 0.5293,-0.0586 0.5879,-0.11719 0.4707,-0.29492 0.4707,-0.35157 0.3535,-0.4707 0.2344,-0.4707 0.1777,-0.5293 0.059,-0.58984 v -26.17578 l -0.059,-0.88282 -0.2363,-0.82226 -0.3535,-0.76563 -0.4707,-0.646481 -0.5879,-0.646484 -0.7051,-0.470703 -0.7656,-0.353516 -0.8223,-0.236328 -0.8242,-0.05859 h -116.3535 z m 46.5293,12.648436 H 326.83091 V 438.41998 H 187.24302 Z"
     style="fill:#010000;fill-opacity:1;stroke:#212830;stroke-width:0.0588235px;stroke-linecap:round;stroke-linejoin:round;stroke-miterlimit:4;stroke-dasharray:none;stroke-opacity:1"
     id="path995" />
</svg>
