<?xml version="1.0" encoding="UTF-8" standalone="no"?>
<svg
   xmlns:dc="http://purl.org/dc/elements/1.1/"
   xmlns:cc="http://creativecommons.org/ns#"
   xmlns:rdf="http://www.w3.org/1999/02/22-rdf-syntax-ns#"
   xmlns:svg="http://www.w3.org/2000/svg"
   xmlns="http://www.w3.org/2000/svg"
   id="svg2459"
   height="126mm"
   width="126mm"
   version="1.0">
  <metadata
     id="metadata2463">
    <rdf:RDF>
      <cc:Work
         rdf:about="">
        <dc:format>image/svg+xml</dc:format>
        <dc:type
           rdf:resource="http://purl.org/dc/dcmitype/StillImage" />
        <dc:title></dc:title>
      </cc:Work>
    </rdf:RDF>
  </metadata>
  <defs
     id="defs3" />
  <path
     d="m 83.993047,1.4627971 -3.82422,0.11719 -3.70508,0.88281 -65.4707,21.2949199 -2.2343799,0.93946 -2.06054,1.29492 -1.70508,1.70508 -1.47071,1.9414 -1.05859,2.17774 -0.58789,2.35156 -0.23633,2.41211 v 62.88281 L 18.522337,116.40421 v 40.5293 l -16.8828099,16.9414 v 128.47071 l 16.8828099,16.88086 v 40.58984 L 1.6395271,376.69718 v 94.64844 l 0.0586,0.58789 0.11914,0.58789 0.29296,0.52929 0.29493,0.47071 0.41211,0.41211 0.52929,0.35351 0.5293,0.23438 0.5293,0.17578 0.58789,0.0605 H 99.580937 l 16.941403,-16.88281 h 40.5293 l 16.88281,16.88281 h 128.41211 l 16.88281,-16.88281 h 40.5293 l 16.88086,16.88281 h 62.88282 l 2.4121,-0.23632 2.3535,-0.64649 2.1758,-1.05859 1.9414,-1.41211 1.6465,-1.76563 1.3535,-2 0.9414,-2.23437 21.293,-65.5293 0.8242,-3.70703 0.1172,-3.82226 -0.5879,-3.76563 -1.2949,-3.58789 -1.9395,-3.29492 -2.5293,-2.88086 -3,-2.35352 -3.4121,-1.70508 -3.6484,-1.06054 -3.8223,-0.35156 h -16.1172 -0.3535 l -0.4121,0.11718 -0.3535,0.11719 -0.293,0.23633 -0.2949,0.23437 -2,2 -2,-2 -0.3535,-0.29297 -0.4102,-0.23632 -0.4707,-0.17578 h -0.4707 -0.4707 l -0.4707,0.17578 -0.4121,0.23632 -0.4121,0.29297 -1.9414,2 -2,-2 -0.3516,-0.29297 -0.4707,-0.23632 -0.4121,-0.17578 h -0.52929 -0.4707 l -0.41211,0.17582 -0.4707,0.23632 -0.35352,0.29297 -2,2 -1.9414,-2 -0.41016,-0.29297 -0.41211,-0.23632 -0.4707,-0.17578 h -0.47071 -0.4707 l -0.4707,0.17578 -0.41211,0.23632 -0.35157,0.29297 -2,2 -2,-2 -0.35351,-0.29297 -0.41211,-0.23632 -0.4707,-0.17578 h -0.47071 -0.4707 l -0.4707,0.17578 -0.41211,0.23632 -0.41016,0.29297 -1.9414,2 -2,-2 -0.41211,-0.29297 -0.41211,-0.23632 -0.47071,-0.17578 h -0.4707 -0.4707 l -0.47071,0.17578 -0.4121,0.23632 -0.35157,0.29297 -2,2 -2,-2 -0.35351,-0.29297 -0.41211,-0.23632 -0.47071,-0.17578 h -0.4707 -0.4707 l -0.4707,0.17578 -0.41016,0.23632 -0.35352,0.29297 -2,2 -2,-2 -0.35351,-0.29297 -0.41211,-0.23632 -0.4707,-0.17578 h -0.46876 -0.4707 l -0.4707,0.17578 -0.41211,0.23632 -0.41211,0.29297 -2,2 -1.94141,-2 -0.41211,-0.29297 -0.4121,-0.23632 -0.46876,-0.17578 h -0.4707 -87.06054 -0.41016 l -0.35352,0.11718 -0.35351,0.11719 -0.35157,0.23633 -0.29492,0.23437 -1.9414,2 -2,-2 -0.35352,-0.29297 -0.4707,-0.23632 -0.41016,-0.17578 h -0.5293 -0.4707 l -0.41211,0.17578 -0.4707,0.23632 -0.35352,0.29297 -2,2 -1.9414,-2 -0.41211,-0.29297 -0.41016,-0.23632 -0.4707,-0.17578 h -0.4707 -0.47071 l -0.4707,0.17578 -0.41211,0.23632 -0.35352,0.29297 -2,2 -2,-2 -0.35156,-0.29297 -0.41211,-0.23632 -0.4707,-0.17578 h -0.4707 -0.47071 l -0.4707,0.17578 -0.41211,0.23632 -0.41211,0.29297 -1.9414,2 -2,-2 -0.41016,-0.29297 -0.41211,-0.23632 -0.4707,-0.17578 h -0.47071 -0.4707 l -0.4707,0.17578 -0.41211,0.23632 -0.35157,0.29297 -2,2 -2,-2 -0.35351,-0.29297 -0.41211,-0.23632 -0.4707,-0.17578 h -0.47071 -0.4707 l -0.4707,0.17578 -0.41211,0.23632 -0.35156,0.29297 -2,2 -2,-2 -0.35352,-0.29297 -0.41211,-0.23632 -0.4707,-0.17578 h -0.47071 -0.4707 l -0.4707,0.17578 -0.41016,0.23632 -0.41211,0.29297 -2,2 -1.9414,-2 -0.41211,-0.29297 -0.41211,-0.23632 -0.47071,-0.17578 h -0.4707 -0.4707 l -0.4707,0.17578 -0.41016,0.23632 -0.35352,0.29297 -2,2 -2,-2 -0.35351,-0.29297 -0.41211,-0.23632 -0.4707,-0.17578 h -0.46876 -0.4707 l -0.4707,0.17578 -0.41211,0.23632 -0.35352,0.29297 -2,2 -2,-2 -0.35351,-0.29297 -0.4707,-0.23632 -0.41016,-0.17578 h -0.4707 -0.5293 l -0.41211,0.17578 -0.4707,0.23632 -0.35352,0.29297 -2,2 -1.94141,-2 -0.4121,-0.29297 -0.41016,-0.23632 -0.4707,-0.17578 h -0.47071 -0.4707 l -0.4707,0.17578 -0.41211,0.23632 -0.35352,0.29297 -2,2 -2,-2 -0.35156,-0.29297 -0.41211,-0.23632 -0.4707,-0.17578 h -0.47071 -0.4707 l -0.4707,0.17578 -0.41211,0.23632 -0.41211,0.29297 -1.93946,2 -2,-2 -0.35351,-0.29297 -0.4707,-0.23632 -0.41211,-0.17578 h -0.5293 -0.4707 l -0.41211,0.17578 -0.47071,0.23632 -0.35156,0.29297 -2,2 -1.9414,-2 -0.41211,-0.29297 -0.41211,-0.23632 -0.47071,-0.17578 h -0.4707 -0.4707 l -0.47071,0.17578 -0.4121,0.23632 -0.35157,0.29297 -2,2 -2,-2 -0.35351,-0.29297 -0.41211,-0.23632 -0.47071,-0.17578 h -0.4707 -67.5293 l -1.29296,0.11718 -1.29493,0.35352 -1.17578,0.64648 -1,0.82422 -5.17773,5.23438 -1.5293,1.23632 -1.76367,0.93946 -1.88281,0.58984 -2,0.17578 -2,-0.17578 -1.882823,-0.58984 -1.76367,-0.93946 -1.52929,-1.23632 -1.23633,-1.58789 -0.94141,-1.70703 -0.58789,-1.93946 -0.17578,-1.9414 0.17578,-2 0.58789,-1.88282 0.94141,-1.76562 1.23633,-1.5293 5.175783,-5.17578 0.70508,-0.82422 0.53124,-0.9414 0.41016,-0.93946 0.23633,-1.06054 0.11719,-1.0586 v -67.5293 l -0.0586,-0.4707 -0.11718,-0.4707 -0.23633,-0.41016 -0.29297,-0.41211 -2,-1.9414 2,-2 0.29297,-0.35352 0.23633,-0.4707 0.11718,-0.41211 0.0586,-0.5293 -0.0586,-0.4707 -0.11718,-0.41016 -0.23633,-0.4707 -0.29297,-0.35352 -2,-2 2,-2 0.29297,-0.35351 0.23633,-0.41211 0.11718,-0.4707 0.0586,-0.46876 -0.0586,-0.4707 -0.11718,-0.4707 -0.23633,-0.41211 -0.29297,-0.35352 -2,-2 2,-2 0.29297,-0.35351 0.23633,-0.41016 0.11718,-0.4707 0.0586,-0.4707 -0.0586,-0.5293 -0.11718,-0.41211 -0.23633,-0.4707 -0.29297,-0.35352 -2,-2 2,-1.94141 0.29297,-0.4121 0.23633,-0.41016 0.11718,-0.4707 0.0586,-0.47071 -0.0586,-0.4707 -0.11718,-0.4707 -0.23633,-0.41211 -0.29297,-0.35352 -2,-2 2,-2 0.29297,-0.35156 0.23633,-0.41211 0.11718,-0.4707 0.0586,-0.47071 -0.0586,-0.4707 -0.11718,-0.4707 -0.23633,-0.41211 -0.29297,-0.41211 -2,-1.93946 2,-2 0.29297,-0.4121 0.23633,-0.41211 0.11718,-0.47071 0.0586,-0.4707 -0.0586,-0.4707 -0.11718,-0.47071 -0.23633,-0.41211 -0.29297,-0.35156 -2,-2 2,-2 0.29297,-0.35351 0.23633,-0.41211 0.11718,-0.47071 0.0586,-0.4707 -0.0586,-0.4707 -0.11718,-0.47071 -0.23633,-0.4121 -0.29297,-0.41016 -2,-1.94141 2,-2 0.29297,-0.35351 0.23633,-0.47071 0.11718,-0.41211 0.0586,-0.52929 -0.0586,-0.47071 -0.11718,-0.4707 -0.23633,-0.41016 -0.29297,-0.35351 -2,-2 2,-2 0.29297,-0.35352 0.23633,-0.41211 0.11718,-0.4707 0.0586,-0.4707 -0.0586,-0.4707 -0.11718,-0.46876 -0.23633,-0.4121 -0.29297,-0.35352 -2,-2 2,-2 0.29297,-0.35352 0.23633,-0.4707 0.11718,-0.41016 0.0586,-0.4707 -0.0586,-0.5293 -0.11718,-0.4121 -0.23633,-0.47071 -0.29297,-0.35351 -2,-2 2,-1.94141 0.29297,-0.41211 0.23633,-0.41016 0.11718,-0.4707 0.0586,-0.4707 -0.0586,-0.4707 -0.11718,-0.47071 -0.23633,-0.41211 -0.29297,-0.35351 -2,-2 2,-2 0.29297,-0.35157 0.23633,-0.4121 0.11718,-0.47071 0.0586,-0.4707 -0.0586,-0.4707 -0.11718,-0.47071 -0.23633,-0.41211 -0.29297,-0.41211 -2,-2 2,-1.9414 0.29297,-0.41016 0.23633,-0.41211 0.11718,-0.4707 0.0586,-0.4707 -0.0586,-0.47071 -0.11718,-0.4707 -0.23633,-0.41211 -0.29297,-0.35351 -2,-2 2,-2 0.23437,-0.29297 0.17579,-0.29493 0.17773,-0.35156 0.0586,-0.41211 0.0586,-0.35351 V 97.345617 l -0.0586,-0.47071 -0.11718,-0.4707 -0.23633,-0.41211 -0.29297,-0.35352 -2,-2 2,-2 0.29297,-0.35156 0.23633,-0.41211 0.11718,-0.4707 0.0586,-0.4707 -0.0586,-0.47071 -0.11718,-0.4707 -0.23633,-0.41211 -0.29297,-0.41211 -2,-1.9414 2,-2 0.29297,-0.35157 0.23633,-0.4707 0.11718,-0.41211 0.0586,-0.5293 -0.0586,-0.4707 -0.11718,-0.41211 -0.23633,-0.4707 -0.29297,-0.35157 -2,-2 2,-2 0.29297,-0.35351 0.23633,-0.41211 0.11718,-0.4707 0.0586,-0.47071 -0.0586,-0.4707 -0.11718,-0.4707 -0.23633,-0.41211 -0.29297,-0.35156 -2,-2 2,-2 0.29297,-0.35352 0.23633,-0.41211 0.11718,-0.4707 0.0586,-0.47071 -0.0586,-0.52929 -0.11718,-0.41211 -0.23633,-0.4707 -0.29297,-0.35157 -2,-2 2,-1.9414 0.29297,-0.41211 0.23633,-0.41211 0.11718,-0.47071 0.0586,-0.4707 -0.0586,-0.4707 -0.11718,-0.4707 -0.23633,-0.41016 -0.29297,-0.35352 -2,-2 2,-2 0.29297,-0.35351 0.23633,-0.41211 0.11718,-0.4707 0.0586,-0.46876 -0.0586,-0.4707 -0.11718,-0.4707 -0.23633,-0.41211 -0.29297,-0.41211 -2,-2 2,-1.94141 0.29297,-0.41211 0.23633,-0.4121 0.11718,-0.46876 0.0586,-0.4707 -0.0586,-0.4707 -0.11718,-0.4707 -0.23633,-0.41211 -0.29297,-0.35352 -2,-2 2,-2 0.23437,-0.29297 0.17579,-0.29492 0.17773,-0.35352 0.0586,-0.4121 0.0586,-0.35157 v -16.11719 l -0.35352,-3.82421 -1.05859,-3.64649 -1.763673,-3.41211 -2.29493,-2.9999999 -2.88281,-2.52929 -3.29297,-1.94141 -3.58789,-1.29492 z m -7.58789,22.8242199 1.23437,0.17578 1.17774,0.47071 1.11718,0.64648 0.94141,0.82422 0.76367,1 0.58984,1.11719 0.35157,1.23632 0.11719,1.29297 v 71.824223 l -0.0586,1.17578 -0.35156,1.11719 -0.4707,1.0586 -0.70704,1 -0.82226,0.82421 -0.94141,0.64649 -1.05859,0.5293 -1.17774,0.29492 -1.17578,0.11718 h -33.76562 l -3.5293,-0.29296 -3.41016,-0.94141 -3.17773,-1.4707 -2.88281,-2.0586 -2.5293,-2.4707 -2,-2.941413 -1.5293,-3.17578 -0.88086,-3.41211 -0.35351,-3.52929 v -33.11914 l 0.35351,-3.5879 0.93946,-3.52929 1.58984,-3.29297 2.17578,-2.94141 2.58789,-2.4707 3.0586,-2 3.35351,-1.4707 37.94141,-12.35352 1.23437,-0.23437 z M 42.168827,163.69718 h 33.76562 l 1.17578,0.11914 1.17774,0.29297 1.05859,0.52929 0.94141,0.64844 0.82226,0.82227 0.70704,1 0.4707,1.05859 0.35156,1.11914 0.0586,1.17578 v 135.23438 l -0.0586,1.17773 -0.35156,1.17578 -0.4707,1.0586 -0.70704,0.9414 -0.82226,0.82422 -0.94141,0.70508 -1.05859,0.4707 -1.17774,0.29493 -1.17578,0.11718 h -33.76562 l -3.5293,-0.29492 -3.41016,-0.9414 -3.17773,-1.46876 -2.88281,-2 -2.5293,-2.53124 -2,-2.88086 -1.5293,-3.23633 -0.88086,-3.41211 -0.35351,-3.5293 V 183.9921 l 0.35351,-3.5293 0.88086,-3.41211 1.5293,-3.17578 2,-2.88281 2.5293,-2.5293 2.88281,-2 3.17773,-1.52929 3.41016,-0.88282 z m 0,209.64844 h 9.41211 l 3.17773,0.23437 3.11719,0.76563 2.94141,1.17578 2.70507,1.70508 2.41211,2.06054 31.11719,31.11719 2.05859,2.41211 1.648443,2.70508 1.23438,2.9414 0.76562,3.11719 0.23438,3.17773 v 9.41016 l -0.29492,3.5293 -0.93946,3.41211 -1.4707,3.23633 -2.058603,2.88086 -2.4707,2.4707 -2.88281,2.06054 -3.23633,1.46876 -3.41016,0.9414 -3.53124,0.29492 h -27 l -6.5879,-0.64648 -6.35156,-1.94141 -5.82422,-3.11719 -5.11718,-4.17773 -4.23633,-5.11719 -3.11719,-5.88281 -1.94141,-6.35351 -0.64648,-6.5879 v -27 l 0.35351,-3.52929 0.88086,-3.41211 1.5293,-3.23438 2,-2.88281 2.5293,-2.5293 2.88281,-2 3.17773,-1.52929 3.41016,-0.88282 z m 128.412113,20.29296 h 135.11719 l 1.17773,0.0586 1.11719,0.29492 1.11718,0.5293 0.94141,0.64648 0.82422,0.88281 0.70508,0.94141 0.4707,1.05859 0.29492,1.17579 0.11719,1.11914 v 33.82226 l -0.29492,3.5293 -0.93946,3.41211 -1.4707,3.23633 -2.06054,2.88086 -2.46876,2.4707 -2.88281,2.06054 -3.23633,1.46876 -3.4121,0.9414 -3.5293,0.29492 H 184.05164 l -3.4707,-0.29492 -3.41211,-0.9414 -3.23438,-1.46876 -2.88281,-2.06054 -2.5293,-2.4707 -2,-2.88086 -1.4707,-3.23633 -0.94141,-3.41211 -0.29296,-3.5293 v -33.82226 l 0.11718,-1.11914 0.29492,-1.17579 0.46876,-1.05859 0.70703,-0.94141 0.82421,-0.88281 0.93946,-0.64648 1.06054,-0.5293 1.17579,-0.29492 z m 202.70703,0 h 71.76368 l 1.2949,0.11914 1.1758,0.35157 1.1758,0.52929 1,0.82422 0.8242,0.94141 0.6465,1.11719 0.4121,1.17578 0.2363,1.23633 -0.059,1.29297 -0.2949,1.23632 -12.2949,38 -1.4707,3.35352 -2,3 -2.4688,2.64648 -2.9414,2.11719 -3.2949,1.58789 -3.4707,0.94141 -3.64649,0.35351 h -33.05859 l -3.5293,-0.29492 -3.41211,-0.9414 -3.23633,-1.46876 -2.88086,-2.06054 -2.4707,-2.4707 -2.0586,-2.88086 -1.4707,-3.23633 -0.9414,-3.41211 -0.29493,-3.5293 v -33.82226 l 0.11719,-1.11914 0.29492,-1.17579 0.47071,-1.05859 0.70507,-0.94141 0.82422,-0.88281 0.94141,-0.64648 1.11719,-0.5293 1.11718,-0.29492 z"
     style="fill:#212830;fill-opacity:1;stroke:#212830;stroke-width:0.0588235px;stroke-linecap:round;stroke-linejoin:round;stroke-miterlimit:4;stroke-dasharray:none;stroke-opacity:1"
     id="path2457" />
</svg>
