<?xml version="1.0" encoding="UTF-8" standalone="no"?>
<svg
   xmlns:dc="http://purl.org/dc/elements/1.1/"
   xmlns:cc="http://creativecommons.org/ns#"
   xmlns:rdf="http://www.w3.org/1999/02/22-rdf-syntax-ns#"
   xmlns:svg="http://www.w3.org/2000/svg"
   xmlns="http://www.w3.org/2000/svg"
   id="svg6037"
   height="290mm"
   width="290mm"
   version="1.0">
  <metadata
     id="metadata6041">
    <rdf:RDF>
      <cc:Work
         rdf:about="">
        <dc:format>image/svg+xml</dc:format>
        <dc:type
           rdf:resource="http://purl.org/dc/dcmitype/StillImage" />
        <dc:title></dc:title>
      </cc:Work>
    </rdf:RDF>
  </metadata>
  <defs
     id="defs3" />
  <path
     d="m 1.2371019,258.38502 v 70.76367 h 21.8808601 0.23633 0.29297 l 0.23633,-0.0586 0.23437,-0.0586 0.23633,-0.0586 0.23438,-0.11719 0.23633,-0.11914 0.23437,-0.11719 0.23633,-0.11719 0.17578,-0.17578 0.23438,-0.11914 12.88281,-11.58789 0.17773,-0.23437 0.17578,-0.17774 0.17578,-0.23437 0.11914,-0.23633 0.17579,-0.23438 0.11718,-0.23632 0.0586,-0.23438 0.11719,-0.29492 0.0605,-0.23438 0.0586,-0.29492 v -0.23437 -0.29493 -0.29296 l -0.0586,-0.23633 v -0.29297 l -0.11914,-0.23633 -0.0586,-0.29297 -0.11719,-0.23633 -0.11719,-0.23437 -0.11719,-0.23633 -0.17773,-0.23437 -0.17578,-0.17774 -0.17773,-0.23437 -0.23438,-0.17579 -0.17578,-0.17773 -0.23633,-0.17578 -0.23437,-0.11719 -0.23633,-0.11914 -0.29297,-0.11719 -0.23633,-0.0586 -0.29297,-0.0586 -0.23633,-0.0586 -0.29297,-0.0586 h -0.23627 -15.47071 V 281.5608 H 136.35429 v 28.29492 h -15.4707 -0.29492 l -0.23438,0.0586 -0.29492,0.0586 -0.23437,0.0586 -0.29493,0.0586 -0.23437,0.11719 -0.23633,0.11914 -0.23437,0.11719 -0.23633,0.17578 -0.23438,0.17773 -0.17773,0.17579 -0.17578,0.23437 -0.17578,0.17774 -0.17774,0.23437 -0.11719,0.23633 -0.11718,0.23437 -0.11719,0.23633 -0.11914,0.29297 -0.0586,0.23633 -0.0586,0.29297 v 0.23633 0.29296 0.29493 0.23437 l 0.0586,0.29492 0.0586,0.23438 0.0605,0.29492 0.11719,0.23438 0.11719,0.23632 0.11719,0.23438 0.17773,0.23633 0.17578,0.23437 0.17578,0.17774 0.17774,0.23437 12.88086,11.58789 0.17773,0.11914 0.23438,0.17578 0.23633,0.11719 0.17578,0.11719 0.23632,0.11914 0.23438,0.11719 0.29492,0.0586 0.23438,0.0586 0.23632,0.0586 h 0.23442 0.29492 30.88086 0.23633 0.29297 l 0.29492,-0.0587 0.23438,-0.0586 0.29492,-0.11719 0.23632,-0.0586 0.23438,-0.17774 0.23438,-0.11718 0.23632,-0.17578 0.23438,-0.17774 0.17773,-0.17578 0.17578,-0.17578 0.17579,-0.23633 0.17773,-0.23437 0.11719,-0.23633 0.11718,-0.23438 0.11914,-0.23633 0.11719,-0.29296 0.0586,-0.23633 0.0586,-0.29297 v -0.29492 -0.23438 -11.58984 -0.29297 -0.29492 l -0.0586,-0.23438 -0.0586,-0.29492 -0.11719,-0.23437 -0.11914,-0.23633 -0.11718,-0.29297 -0.11719,-0.23633 -0.17773,-0.23437 -0.17579,-0.17774 -0.17578,-0.23437 -0.17773,-0.17579 -0.23438,-0.17773 -0.23632,-0.11719 -0.23438,-0.17577 -0.23438,-0.11914 -0.23632,-0.11719 -0.29492,-0.0586 -0.23438,-0.0586 -0.29492,-0.0586 -0.29297,-0.0586 h -0.23633 -9 V 281.5608 h 102.88281 v 7.70508 l 0.0586,0.70703 v 0.70507 l 0.0586,0.70704 0.0586,0.70507 0.11914,0.70703 0.0586,0.70508 0.17578,0.70508 0.11719,0.70703 0.17773,0.70508 0.17578,0.70703 0.23633,0.64649 0.17578,0.70507 0.23438,0.64844 0.2949,0.70508 0.29492,0.64648 0.29297,0.64844 0.29492,0.64649 0.35157,0.58789 0.35351,0.64648 0.35352,0.58984 0.35351,0.64649 0.41016,0.58789 0.41211,0.58789 0.4707,0.5293 0.41211,0.58789 0.4707,0.5293 0.47071,0.53124 0.52929,0.5293 0.47071,0.4707 0.52929,0.46876 0.5293,0.4707 0.5293,0.4707 0.58789,0.4707 0.58789,0.41211 0.58984,0.41211 0.58789,0.41211 0.58789,0.35157 0.58789,0.35351 0.64649,0.35352 0.23633,0.11718 0.23437,0.11719 0.29492,0.0586 0.23438,0.11914 h 0.29492 l 0.29492,0.0586 h 0.23438 0.29492 l 0.29297,-0.0586 0.23633,-0.0586 0.29296,-0.0605 0.23633,-0.0586 0.23438,-0.11719 0.29492,-0.11718 0.23437,-0.17579 0.17774,-0.11914 0.23437,-0.17578 0.17579,-0.17578 0.23632,-0.23633 0.11719,-0.23437 0.17773,-0.17774 0.11719,-0.23437 0.17578,-0.29492 0.0586,-0.23438 0.11719,-0.23633 0.0605,-0.29296 0.0586,-0.23633 v -0.29297 -0.29492 -27 h 45.05859 V 468.20728 H 277.825 v -23.17578 -0.29492 -0.23438 l -0.0586,-0.29492 -0.0605,-0.23437 -0.11719,-0.29493 -0.0586,-0.23437 -0.17578,-0.23633 -0.11719,-0.23437 -0.17773,-0.23633 -0.11719,-0.23438 -0.23632,-0.17578 -0.17579,-0.17773 -0.23437,-0.17578 -0.17774,-0.17579 -0.23437,-0.11914 -0.29492,-0.11718 -0.23438,-0.11719 -0.23633,-0.11719 -0.29296,-0.0605 -0.23633,-0.0586 h -0.29297 l -0.29492,-0.0586 -0.23438,0.0586 h -0.29496 l -0.29492,0.0586 -0.23438,0.0605 -0.29492,0.0586 -0.23437,0.11718 -0.23633,0.11719 -0.64649,0.35352 -0.58789,0.35351 -0.58789,0.41016 -0.58789,0.35351 -0.58984,0.41211 -0.58789,0.47071 -0.58789,0.41211 -0.5293,0.4707 -0.5293,0.4707 -0.52929,0.4707 -0.47071,0.5293 -0.52929,0.5293 -0.47071,0.5293 -0.4707,0.52929 -0.41211,0.5293 -0.4707,0.58789 -0.41211,0.58789 -0.41016,0.58789 -0.35351,0.58984 -0.35352,0.5879 -0.35351,0.64648 -0.35157,0.64648 -0.29492,0.64844 -0.29297,0.64649 -0.29492,0.64648 -0.29492,0.64649 -0.23438,0.64843 -0.17578,0.70508 -0.23633,0.70703 -0.17578,0.64649 -0.17773,0.70507 -0.11719,0.70704 -0.17578,0.70507 -0.0586,0.70703 -0.11914,0.70508 -0.0586,0.70508 -0.0586,0.70703 v 0.70508 l -0.0586,0.70703 v 167.35156 l 0.0586,0.76563 v 0.70508 l 0.0586,0.70703 0.0586,0.70508 0.11914,0.70508 0.0586,0.70703 0.17578,0.70507 0.11719,0.70704 0.17773,0.64648 0.17578,0.70508 0.23633,0.70703 0.17578,0.64648 0.23438,0.70703 0.29492,0.64649 0.29492,0.64648 0.29297,0.64649 0.29492,0.64844 0.35157,0.64648 0.35351,0.58789 0.35352,0.64649 0.35351,0.58984 0.41016,0.58789 0.41211,0.58789 0.4707,0.58789 0.41211,0.5293 0.4707,0.52929 0.47071,0.5293 0.52929,0.5293 0.47071,0.5293 0.52929,0.4707 0.5293,0.4707 0.5293,0.4707 0.58789,0.41211 0.58789,0.41211 0.58984,0.41211 0.58789,0.41211 0.58789,0.41016 0.58789,0.35351 0.64649,0.35352 0.23633,0.11719 0.23437,0.0586 0.29492,0.11719 0.23438,0.0605 0.29492,0.0586 h 0.29492 0.23438 0.29492 0.29297 l 0.23633,-0.0586 0.29296,-0.0605 0.23633,-0.11719 0.23438,-0.11719 0.29492,-0.11718 0.23437,-0.11914 0.17774,-0.17579 0.23437,-0.17578 0.17579,-0.17773 0.23632,-0.17578 0.11719,-0.23438 0.17773,-0.23633 0.11719,-0.23437 0.17578,-0.23633 0.0586,-0.23437 0.11719,-0.29493 0.0605,-0.23437 0.0586,-0.29492 v -0.29493 -0.23438 -23.17578 h 45.05859 V 814.5022 h -45.05859 v -27 -0.29492 -0.29297 l -0.0586,-0.23633 -0.0605,-0.29296 -0.11719,-0.23633 -0.0586,-0.29297 -0.17578,-0.23633 -0.11719,-0.23437 -0.17773,-0.23633 -0.11719,-0.17578 -0.23632,-0.23633 -0.17579,-0.17578 -0.23437,-0.17578 -0.17774,-0.17774 -0.23437,-0.11719 -0.29492,-0.11718 -0.23438,-0.11719 -0.23633,-0.0586 -0.29296,-0.11914 h -0.23633 l -0.29297,-0.0586 h -0.29492 -0.23438 -0.29492 l -0.29492,0.0586 -0.23438,0.0586 -0.29492,0.11914 -0.23437,0.11719 -0.23633,0.11718 -0.64649,0.29493 -0.58789,0.4121 -0.58789,0.35157 -0.58789,0.41211 -0.58984,0.41211 -0.58789,0.41211 -0.58789,0.4707 -0.5293,0.41016 -0.5293,0.4707 -0.52929,0.5293 -0.47071,0.4707 -0.52929,0.5293 -0.47071,0.53124 -0.4707,0.5293 -0.41211,0.58789 -0.4707,0.5293 -0.41211,0.58789 -0.41016,0.58789 -0.35351,0.58789 -0.35352,0.64844 -0.35351,0.58789 -0.35157,0.64648 -0.29492,0.64649 -0.29297,0.64844 -0.29492,0.64648 -0.29492,0.64648 -0.23438,0.70704 -0.17578,0.64648 -0.23633,0.70508 -0.17578,0.70703 -0.17773,0.70508 -0.11719,0.64843 -0.17578,0.70508 -0.0586,0.70508 -0.11914,0.70703 -0.0586,0.70508 -0.0586,0.76563 v 0.70507 l -0.0586,0.70703 v 30.88086 h 578.94143 v -30.88086 -0.70703 -0.70507 l -0.0586,-0.76563 -0.0586,-0.70508 -0.11719,-0.70703 -0.11914,-0.70508 -0.11718,-0.70508 -0.11719,-0.64843 -0.17773,-0.70508 -0.17579,-0.70703 -0.23437,-0.70508 -0.23633,-0.64648 -0.23437,-0.70704 -0.23633,-0.64648 -0.29297,-0.64648 -0.29492,-0.64844 -0.29492,-0.64649 -0.35157,-0.64648 -0.35351,-0.58789 -0.35352,-0.64844 -0.41016,-0.58789 -0.3535,-0.58789 -0.41211,-0.58789 -0.4707,-0.5293 -0.41211,-0.58789 -0.47071,-0.5293 -0.4707,-0.53124 -0.5293,-0.5293 -0.4707,-0.4707 -0.5293,-0.5293 -0.52929,-0.4707 -0.58789,-0.41016 -0.5293,-0.4707 -0.58789,-0.41211 -0.58789,-0.41211 -0.58984,-0.41211 -0.5879,-0.35157 -0.64648,-0.4121 -0.58789,-0.29493 -0.23633,-0.11718 -0.29297,-0.11719 -0.23633,-0.11914 -0.29296,-0.0586 -0.23633,-0.0586 h -0.29297 -0.29492 -0.23438 l -0.29492,0.0586 h -0.23438 l -0.29492,0.11914 -0.23632,0.0586 -0.29297,0.11719 -0.23633,0.11718 -0.23438,0.11719 -0.23632,0.17774 -0.17579,0.17578 -0.23437,0.17578 -0.17774,0.23633 -0.17578,0.17578 -0.11718,0.23633 -0.17774,0.23437 -0.11719,0.23633 -0.11718,0.29297 -0.0586,0.23633 -0.0586,0.29296 -0.0586,0.23633 -0.0605,0.29297 v 0.29492 27 h -45 V 627.85572 h 45 v 23.17578 0.23438 l 0.0605,0.29492 0.0586,0.29492 0.0586,0.23437 0.0586,0.29493 0.11718,0.23437 0.11719,0.23633 0.17774,0.23437 0.11718,0.23633 0.17578,0.23438 0.17774,0.17578 0.23437,0.17773 0.17579,0.17578 0.23632,0.17579 0.23438,0.11914 0.23633,0.11718 0.29297,0.11719 0.23632,0.11719 0.29492,0.0605 0.23438,0.0586 h 0.29492 0.23438 0.29492 0.29297 l 0.23633,-0.0586 0.29296,-0.0605 0.23633,-0.11719 0.29297,-0.0586 0.23633,-0.11719 0.58789,-0.35352 0.64648,-0.35351 0.5879,-0.41016 0.58984,-0.41211 0.58789,-0.41211 0.58789,-0.41211 0.5293,-0.41211 0.58789,-0.4707 0.52929,-0.4707 0.5293,-0.4707 0.4707,-0.5293 0.5293,-0.5293 0.4707,-0.5293 0.47071,-0.52929 0.41211,-0.5293 0.4707,-0.58788 0.41211,-0.58789 0.35351,-0.58789 0.41016,-0.58984 0.35352,-0.64649 0.35351,-0.58789 0.35157,-0.64648 0.29492,-0.64844 0.29492,-0.64649 0.29297,-0.64648 0.23633,-0.64649 0.23437,-0.70703 0.23633,-0.64648 0.23437,-0.70703 0.17579,-0.70508 0.17773,-0.64648 0.11719,-0.70704 0.11718,-0.70507 0.11914,-0.70703 0.11719,-0.70508 0.0586,-0.70508 0.0586,-0.70703 v -0.70508 -0.76563 -167.35156 -0.70703 -0.70508 l -0.0586,-0.70703 -0.0586,-0.70508 -0.11719,-0.70508 -0.11914,-0.70703 -0.11718,-0.70507 -0.11719,-0.70704 -0.17773,-0.70507 -0.17579,-0.64649 -0.23437,-0.70703 -0.23633,-0.70508 -0.23437,-0.64843 -0.23633,-0.64649 -0.29297,-0.64648 -0.29492,-0.64649 -0.29492,-0.64844 -0.35157,-0.64648 -0.35351,-0.64648 -0.35352,-0.5879 -0.41016,-0.58984 -0.35351,-0.58789 -0.41211,-0.58789 -0.4707,-0.58789 -0.41211,-0.5293 -0.47071,-0.52929 -0.4707,-0.5293 -0.5293,-0.5293 -0.4707,-0.5293 -0.5293,-0.4707 -0.52929,-0.4707 -0.58789,-0.4707 -0.5293,-0.41211 -0.58789,-0.47071 -0.58789,-0.41211 -0.58984,-0.35351 -0.5879,-0.41016 -0.64648,-0.35351 -0.58789,-0.35352 -0.23633,-0.11719 -0.29297,-0.11718 -0.23633,-0.0586 -0.29296,-0.0605 -0.23633,-0.0586 h -0.29297 l -0.29492,-0.0586 -0.23438,0.0586 h -0.29492 l -0.23438,0.0586 -0.29492,0.0605 -0.23632,0.11719 -0.29297,0.11719 -0.23633,0.11718 -0.23438,0.11914 -0.23632,0.17579 -0.17579,0.17578 -0.23437,0.17773 -0.17774,0.17578 -0.17578,0.23438 -0.11718,0.23633 -0.17774,0.23437 -0.11719,0.23633 -0.11718,0.23437 -0.0586,0.29493 -0.0586,0.23437 -0.0586,0.29492 -0.0605,0.23438 v 0.29492 23.17578 h -45 V 281.5608 h 45 v 27 0.29492 l 0.0605,0.29297 0.0586,0.23633 0.0586,0.29296 0.0586,0.23633 0.11718,0.23438 0.11719,0.29492 0.17774,0.23437 0.11718,0.17774 0.17578,0.23437 0.17774,0.23633 0.23437,0.17578 0.17579,0.17578 0.23632,0.11914 0.23438,0.17579 0.23633,0.11718 0.29297,0.11719 0.23632,0.0586 0.29492,0.0605 0.23438,0.0586 0.29492,0.0586 h 0.23438 0.29492 l 0.29297,-0.0586 h 0.23633 l 0.29296,-0.11914 0.23633,-0.0586 0.29297,-0.11719 0.23633,-0.11718 0.58789,-0.35352 0.64648,-0.35351 0.5879,-0.35157 0.58984,-0.41211 0.58789,-0.41211 0.58789,-0.41211 0.5293,-0.4707 0.58789,-0.4707 0.52929,-0.4707 0.5293,-0.46876 0.4707,-0.4707 0.5293,-0.5293 0.4707,-0.53124 0.47071,-0.5293 0.41211,-0.58789 0.4707,-0.5293 0.41211,-0.58789 0.35351,-0.58789 0.41016,-0.64649 0.35352,-0.58984 0.35351,-0.64648 0.35157,-0.58789 0.29492,-0.64649 0.29492,-0.64844 0.29297,-0.64648 0.23633,-0.70508 0.23437,-0.64844 0.23633,-0.70507 0.23437,-0.64649 0.17579,-0.70703 0.17773,-0.70508 0.11719,-0.70703 0.11718,-0.70508 0.11914,-0.70508 0.11719,-0.70703 0.0586,-0.70507 0.0586,-0.70704 v -0.70507 -0.70703 -7.70508 h 102.9414 v 28.29492 h -9 -0.2949 l -0.2344,0.0586 -0.2949,0.0586 -0.2344,0.0586 -0.2949,0.0586 -0.2344,0.11719 -0.2363,0.11914 -0.2344,0.17578 -0.2363,0.11719 -0.2344,0.17773 -0.1777,0.17579 -0.2344,0.23437 -0.1758,0.17774 -0.1191,0.23437 -0.1758,0.23633 -0.1172,0.29297 -0.059,0.23633 -0.1191,0.23437 -0.059,0.29492 -0.059,0.23438 v 0.29492 l -0.059,0.29297 v 11.58984 l 0.059,0.23438 v 0.29492 l 0.059,0.29297 0.059,0.23633 0.1191,0.29296 0.059,0.23633 0.1172,0.23438 0.1758,0.23633 0.1191,0.23437 0.1758,0.23633 0.2344,0.17578 0.1777,0.17578 0.2344,0.17774 0.2363,0.17578 0.2344,0.11718 0.2363,0.17774 0.2344,0.0586 0.2949,0.11719 0.2344,0.0586 0.2949,0.0586 h 0.2344 0.2949 30.8828 0.2344 0.2949 l 0.2344,-0.0586 0.2363,-0.0586 0.2344,-0.0586 0.2363,-0.11719 0.2344,-0.11914 0.2363,-0.11719 0.2344,-0.11719 0.1758,-0.17578 0.2363,-0.11914 12.8828,-11.58789 0.1758,-0.23437 0.1758,-0.17774 0.1777,-0.23437 0.1172,-0.23633 0.1758,-0.23438 0.1172,-0.23632 0.061,-0.23438 0.1172,-0.29492 0.059,-0.23438 0.059,-0.29492 v -0.23437 -0.29493 -0.29296 l -0.059,-0.23633 v -0.29297 l -0.1172,-0.23633 -0.059,-0.29297 -0.1191,-0.23633 -0.1172,-0.23437 -0.1172,-0.23633 -0.1758,-0.23437 -0.1777,-0.17774 -0.1758,-0.23437 -0.2363,-0.17579 -0.1758,-0.17773 -0.2344,-0.17578 -0.2363,-0.11719 -0.2344,-0.11914 -0.2949,-0.11719 -0.2344,-0.0586 -0.2949,-0.0586 -0.2363,-0.0586 -0.293,-0.0586 h -0.2363 -15.4707 V 281.5608 h 115.82421 v 28.29492 h -15.4707 -0.293 l -0.2363,0.0586 -0.293,0.0586 -0.2363,0.0586 -0.2949,0.0586 -0.2344,0.11719 -0.2344,0.11914 -0.2363,0.11719 -0.2344,0.17578 -0.2363,0.17773 -0.1758,0.17579 -0.1777,0.23437 -0.1758,0.17774 -0.1758,0.23437 -0.1191,0.23633 -0.1172,0.23437 -0.1172,0.23633 -0.1172,0.29297 -0.059,0.23633 -0.059,0.29297 v 0.23633 0.29296 0.29493 0.23437 l 0.059,0.29492 0.059,0.23438 0.059,0.29492 0.1172,0.23438 0.1172,0.23632 0.1191,0.23438 0.1758,0.23633 0.1758,0.23437 0.1777,0.17774 0.1758,0.23437 12.8828,11.58789 0.1758,0.11914 0.2363,0.17578 0.1758,0.11719 0.2344,0.11719 0.2363,0.11914 0.2344,0.11719 0.2949,0.0586 0.2344,0.0586 0.2363,0.0586 h 0.2344 0.2949 21.8828 V 258.38502 Z M 346.05937,281.5608 h 403.94141 v 244.17578 0.23633 l 0.0586,0.29297 0.0586,0.29492 0.0586,0.23632 0.0605,0.29297 0.11719,0.23633 0.11719,0.23438 0.11719,0.23632 0.17773,0.23438 0.17578,0.17578 0.17578,0.23633 0.17774,0.17578 0.23437,0.17773 0.23633,0.17579 0.23438,0.11718 0.23632,0.11719 0.23438,0.11914 0.23438,0.11719 0.29492,0.0586 0.29492,0.0586 h 0.23437 0.29493 0.23437 0.29492 l 0.29297,-0.0586 0.23633,-0.0586 0.29297,-0.0586 0.23633,-0.11914 0.23437,-0.11719 0.23633,-0.11719 0.23437,-0.17578 0.23633,-0.17774 0.17578,-0.17578 0.17579,-0.17578 0.17773,-0.23633 0.5293,-0.58789 0.52929,-0.58789 0.5293,-0.58789 0.5293,-0.58984 0.52929,-0.58789 0.58789,-0.5293 0.5879,-0.5293 0.58984,-0.52929 0.58789,-0.5293 0.64648,-0.4707 0.64649,-0.5293 0.64844,-0.41211 0.64648,-0.4707 0.64648,-0.41211 0.70704,-0.41016 0.70507,-0.41211 0.70703,-0.35351 0.70508,-0.41211 0.70508,-0.29297 0.70703,-0.35352 0.76367,-0.29492 0.70704,-0.29297 0.76367,-0.29492 0.76562,-0.23437 0.76367,-0.23633 0.76563,-0.23438 0.76367,-0.17773 0.76563,-0.17578 0.76367,-0.17578 0.76562,-0.11914 0.82422,-0.11719 0.76367,-0.11719 0.82422,-0.0586 0.76367,-0.0586 0.82422,-0.0586 h 0.76368 0.82421 0.76563 l 0.82226,0.0586 0.76563,0.0586 0.76367,0.0586 0.82422,0.11719 0.35352,-0.35157 0.4121,-0.29492 0.41016,-0.29492 0.41211,-0.29297 0.41211,-0.29492 0.4707,-0.23437 0.41211,-0.23633 0.47071,-0.17578 0.4707,-0.23633 0.4707,-0.17578 0.4707,-0.11719 0.5293,-0.17773 0.4707,-0.11719 0.46876,-0.0586 0.53124,-0.11718 0.46876,-0.0586 0.53124,-0.0586 h 0.46876 0.53124 0.46876 l 0.53124,0.0586 0.46876,0.0586 0.53124,0.0586 0.46876,0.11719 0.53124,0.11719 0.46876,0.11914 0.4707,0.17578 0.4707,0.17578 0.4707,0.17773 0.47071,0.17578 0.4707,0.23633 0.41211,0.23438 0.41211,0.29492 0.41211,0.23437 0.41016,0.29493 0.4121,0.35156 0.41211,0.29492 0.35352,0.35352 0.35351,0.35156 0.35157,0.35351 0.35351,0.41211 0.29492,0.35352 0.29297,0.41016 0.29493,0.4121 0.23437,0.47071 0.29492,0.41211 0.23438,0.4707 0.17773,0.41211 0.23438,0.4707 0.17578,0.47071 0.11914,0.4707 0.17578,0.5293 0.11719,0.4707 0.11719,0.4707 0.0605,0.5293 0.0586,0.4707 0.0586,0.5293 v 0.4707 0.5293 0.5293 0.4707 l -0.0586,0.5293 -0.11914,0.4707 -0.0586,0.5293 0.4707,0.58789 0.47071,0.64648 0.41211,0.70703 0.4707,0.64649 0.41211,0.70507 0.41211,0.64844 0.35156,0.70508 0.35352,0.76562 0.35351,0.70508 0.35157,0.70508 0.29492,0.76563 0.29492,0.70507 0.23437,0.76563 0.29493,0.76367 0.23437,0.76563 0.17773,0.76367 0.23438,0.76562 0.17578,0.76368 0.11914,0.82421 0.17578,0.76563 0.11719,0.76367 0.0586,0.82422 0.11914,0.76367 0.0586,0.82422 v 0.82422 l 0.0586,0.76367 v 0.82422 l -0.0586,0.76367 v 0.82422 l -0.0586,0.76562 -0.11914,0.82227 -0.0586,0.76563 -0.11719,0.82226 -0.17578,0.76563 -0.11914,0.76367 -0.17578,0.82422 -0.23438,0.76562 -0.17773,0.76367 -0.23437,0.76563 -0.29493,0.76367 -0.23437,0.76563 -0.29492,0.70507 -0.29492,0.76563 -0.35157,0.70508 -0.35351,0.70508 -0.35352,0.70703 -0.35156,0.70507 -0.41211,0.70704 -0.41211,0.70507 -0.4707,0.64649 -0.41211,0.64844 -0.47071,0.64648 -0.4707,0.64648 0.0586,0.5293 0.11914,0.4707 0.0586,0.5293 v 0.4707 0.5293 0.4707 0.5293 l -0.0586,0.4707 -0.0586,0.5293 -0.0605,0.4707 -0.11719,0.5293 -0.11719,0.4707 -0.17578,0.47071 -0.11914,0.4707 -0.17578,0.4707 -0.23438,0.47071 -0.17773,0.4707 -0.23438,0.4707 -0.29492,0.41211 -0.23437,0.41211 -0.29493,0.4707 -0.29297,0.35157 -0.29492,0.41211 -0.35351,0.41211 -0.35157,0.35351 -0.35351,0.35156 -0.35352,0.35352 -0.41211,0.29492 -0.4121,0.29297 -0.41016,0.29492 -0.41211,0.29297 -0.41211,0.23633 -0.41211,0.29297 -0.4707,0.17773 -0.47071,0.23438 -0.4707,0.17773 -0.4707,0.17578 -0.4707,0.17578 -0.46876,0.11914 -0.53124,0.11719 -0.46876,0.11719 -0.53124,0.0586 -0.46876,0.0586 -0.53124,0.0586 h -0.46876 -0.53124 l -0.46876,-0.0586 h -0.53124 l -0.46876,-0.0586 -0.53124,-0.11718 -0.46876,-0.0586 -0.4707,-0.17773 -0.5293,-0.11719 -0.4707,-0.17578 -0.4707,-0.17773 -0.4707,-0.17579 -0.47071,-0.17578 -0.41211,-0.23633 -0.4707,-0.29296 -0.41211,-0.23633 -0.41211,-0.29297 -0.41016,-0.29492 -0.4121,-0.29492 -0.3535,-0.35158 -0.82422,0.11719 -0.76367,0.0586 -0.76563,0.0586 -0.82226,0.0586 h -0.76563 -0.82421 -0.76368 l -0.82422,-0.0586 -0.76367,-0.0586 -0.82422,-0.0586 -0.76367,-0.11719 -0.82422,-0.11719 -0.76562,-0.17773 -0.76367,-0.11719 -0.76563,-0.17578 -0.76367,-0.23633 -0.76563,-0.17578 -0.76367,-0.23633 -0.76562,-0.23437 -0.76367,-0.29492 -0.70704,-0.29297 -0.76367,-0.29492 -0.70703,-0.35352 -0.70508,-0.35156 -0.70508,-0.35352 -0.70703,-0.35351 -0.70507,-0.41211 -0.70704,-0.41016 -0.64648,-0.41211 -0.64648,-0.4707 -0.64844,-0.4707 -0.64649,-0.47071 -0.64648,-0.4707 -0.58789,-0.5293 -0.58984,-0.52929 -0.5879,-0.5293 -0.58789,-0.5293 -0.52929,-0.58789 -0.5293,-0.58984 -0.5293,-0.58789 -0.52929,-0.58789 -0.5293,-0.64649 -0.17773,-0.17773 -0.17579,-0.23438 -0.17578,-0.17578 -0.23633,-0.11914 -0.23437,-0.17578 -0.23633,-0.11719 -0.23437,-0.11719 -0.23633,-0.11914 -0.29297,-0.0586 -0.23633,-0.0586 -0.29297,-0.0586 -0.29492,-0.0586 H 753.825 l -0.29493,0.0586 h -0.23437 l -0.29492,0.0586 -0.29492,0.0586 -0.23438,0.11719 -0.23438,0.11914 -0.23632,0.11719 -0.23438,0.11718 -0.23633,0.17579 -0.23437,0.17773 -0.17774,0.17578 -0.17578,0.17773 -0.17578,0.23438 -0.17773,0.23438 -0.11719,0.23632 -0.11719,0.23438 -0.11719,0.23633 -0.0605,0.29297 -0.0586,0.23632 -0.0586,0.29492 -0.0586,0.23439 v 0.29492 244.17578 H 346.05937 V 570.32642 l -0.0586,-0.29492 v -0.23438 l -0.0586,-0.29492 -0.0586,-0.23632 -0.0586,-0.29297 -0.11914,-0.23633 -0.11719,-0.23438 -0.17578,-0.23632 -0.11719,-0.23438 -0.17774,-0.23438 -0.17578,-0.17773 -0.23632,-0.17578 -0.17579,-0.17773 -0.23437,-0.17579 -0.23633,-0.11718 -0.23437,-0.11719 -0.23633,-0.11914 -0.29297,-0.11719 -0.23633,-0.0586 -0.29297,-0.0586 h -0.23633 l -0.29297,-0.0586 h -0.29492 l -0.23632,0.0586 -0.29297,0.0586 -0.23633,0.0586 -0.29297,0.0586 -0.23633,0.11914 -0.23437,0.11719 -0.23633,0.11719 -0.23438,0.17578 -0.23632,0.11914 -0.17579,0.17578 -0.23437,0.23438 -0.17774,0.17773 -0.4707,0.64649 -0.5293,0.58789 -0.52929,0.58789 -0.5293,0.58984 -0.58789,0.58789 -0.5293,0.5293 -0.58789,0.5293 -0.58789,0.52929 -0.64844,0.5293 -0.58789,0.4707 -0.64648,0.47071 -0.64649,0.4707 -0.64843,0.4707 -0.70508,0.41211 -0.64649,0.41016 -0.70703,0.41211 -0.70507,0.35351 -0.70704,0.35352 -0.70507,0.35156 -0.70703,0.35352 -0.76368,0.29492 -0.70508,0.29297 -0.76562,0.29492 -0.76562,0.23437 -0.76368,0.23633 -0.76562,0.17578 -0.76367,0.23633 -0.76563,0.17578 -0.76367,0.11719 -0.82422,0.17773 -0.76367,0.11719 -0.76563,0.11719 -0.82421,0.0586 -0.76368,0.0586 -0.82422,0.0586 h -0.76367 -0.82422 -0.76367 l -0.82422,-0.0586 -0.76562,-0.0586 -0.82227,-0.0586 -0.76562,-0.11719 -0.41211,0.35157 -0.35156,0.29492 -0.41211,0.29492 -0.41211,0.29297 -0.47071,0.23633 -0.41211,0.29296 -0.4707,0.23633 -0.41016,0.17578 -0.4707,0.17579 -0.4707,0.17773 -0.5293,0.17578 -0.4707,0.11719 -0.4707,0.17773 -0.47071,0.0586 -0.52929,0.11718 -0.47071,0.0586 h -0.52929 l -0.5293,0.0586 h -0.4707 -0.5293 l -0.4707,-0.0586 -0.5293,-0.0586 -0.4707,-0.0586 -0.5293,-0.11719 -0.4707,-0.11719 -0.47071,-0.11914 -0.4707,-0.17578 -0.4707,-0.17578 -0.47071,-0.17773 -0.4707,-0.23438 -0.4707,-0.17773 -0.41211,-0.29297 -0.47071,-0.23633 -0.4121,-0.29297 -0.41016,-0.29492 -0.35352,-0.29297 -0.41211,-0.29492 -0.35351,-0.35352 -0.35156,-0.35156 -0.35352,-0.35351 -0.35352,-0.41211 -0.29296,-0.41211 -0.29493,-0.35157 -0.29297,-0.4707 -0.29492,-0.41211 -0.23632,-0.41211 -0.23436,-0.4707 -0.23438,-0.4707 -0.17773,-0.47071 -0.17578,-0.4707 -0.17773,-0.4707 -0.11719,-0.47071 -0.11719,-0.4707 -0.11719,-0.5293 -0.0586,-0.4707 -0.0586,-0.5293 -0.0605,-0.4707 -0.0586,-0.5293 v -0.4707 l 0.0586,-0.5293 v -0.4707 l 0.0605,-0.5293 0.0586,-0.4707 0.11719,-0.5293 -0.4707,-0.64648 -0.4707,-0.64648 -0.4707,-0.64844 -0.41211,-0.64649 -0.41211,-0.70507 -0.41016,-0.70704 -0.35351,-0.70507 -0.35352,-0.70703 -0.35351,-0.70508 -0.35157,-0.70508 -0.29492,-0.76563 -0.29297,-0.70507 -0.29492,-0.76563 -0.23438,-0.76367 -0.23632,-0.76563 -0.23438,-0.76367 -0.17773,-0.76562 -0.17578,-0.82422 -0.17579,-0.76367 -0.11914,-0.76563 -0.11718,-0.82226 -0.11719,-0.76563 -0.0586,-0.82227 -0.0586,-0.76562 -0.0605,-0.82422 v -0.76367 -0.82422 -0.76367 l 0.0605,-0.82422 0.0586,-0.82422 0.0586,-0.76367 0.11719,-0.82422 0.11718,-0.76367 0.11914,-0.76563 0.17579,-0.82421 0.17578,-0.76368 0.17773,-0.76562 0.23438,-0.76367 0.23632,-0.76563 0.23438,-0.76367 0.29492,-0.76563 0.29297,-0.70507 0.29492,-0.76563 0.35157,-0.70508 0.35351,-0.70508 0.35352,-0.76562 0.35351,-0.70508 0.41016,-0.64844 0.41211,-0.70507 0.41211,-0.64649 0.4707,-0.70703 0.4707,-0.64648 0.47071,-0.58789 -0.11719,-0.5293 -0.0586,-0.4707 -0.0605,-0.5293 v -0.4707 l -0.0586,-0.5293 v -0.5293 l 0.0586,-0.4707 0.0605,-0.5293 0.0586,-0.4707 0.0586,-0.5293 0.11719,-0.4707 0.11719,-0.4707 0.11719,-0.5293 0.17773,-0.4707 0.17578,-0.47071 0.17773,-0.4707 0.23437,-0.41211 0.23438,-0.4707 0.23632,-0.41211 0.29492,-0.47071 0.29297,-0.4121 0.29493,-0.41016 0.29296,-0.35352 0.35352,-0.41211 0.35352,-0.35351 0.35156,-0.35156 0.35351,-0.35352 0.41211,-0.29492 0.35352,-0.35156 0.41016,-0.29493 0.4121,-0.23437 0.47071,-0.29492 0.41211,-0.23438 0.4707,-0.23633 0.4707,-0.17578 0.47071,-0.17773 0.4707,-0.17578 0.4707,-0.17578 0.47071,-0.11914 0.4707,-0.11719 0.5293,-0.11719 0.4707,-0.0586 0.5293,-0.0586 0.4707,-0.0586 h 0.5293 0.4707 0.5293 l 0.52929,0.0586 0.47071,0.0586 0.52929,0.11718 0.47071,0.0586 0.4707,0.11719 0.4707,0.17773 0.5293,0.11719 0.4707,0.17578 0.4707,0.23633 0.41016,0.17578 0.4707,0.23633 0.41211,0.23437 0.47071,0.29492 0.41211,0.29297 0.41211,0.29492 0.35156,0.29492 0.41211,0.35157 0.76562,-0.11719 0.82227,-0.0586 0.76562,-0.0586 0.82422,-0.0586 h 0.76367 0.82422 0.76367 l 0.82422,0.0586 0.76368,0.0586 0.82421,0.0586 0.76563,0.11719 0.76367,0.11719 0.82422,0.11914 0.76367,0.17578 0.76563,0.17578 0.76367,0.17773 0.76562,0.23438 0.76368,0.23633 0.76562,0.23437 0.76562,0.29492 0.70508,0.29297 0.76368,0.29492 0.70703,0.35352 0.70507,0.29297 0.70704,0.41211 0.70507,0.35351 0.70703,0.41211 0.64649,0.41016 0.70508,0.41211 0.64843,0.4707 0.64649,0.41211 0.64648,0.5293 0.58789,0.4707 0.64844,0.5293 0.58789,0.52929 0.58789,0.5293 0.5293,0.5293 0.58789,0.58789 0.5293,0.58984 0.52929,0.58789 0.5293,0.58789 0.4707,0.58789 0.17774,0.23633 0.23437,0.17578 0.17579,0.17578 0.23632,0.17774 0.23438,0.17578 0.23633,0.11719 0.23437,0.11719 0.23633,0.11914 0.29297,0.0586 0.23633,0.0586 0.29297,0.0586 h 0.23632 0.29492 0.29297 0.23633 l 0.29297,-0.0586 0.23633,-0.0586 0.29297,-0.11719 0.23633,-0.11914 0.23437,-0.11719 0.23633,-0.11718 0.23437,-0.17579 0.17579,-0.17773 0.23632,-0.17578 0.17578,-0.23633 0.17774,-0.17578 0.11719,-0.23438 0.17578,-0.23632 0.11719,-0.23438 0.11914,-0.23633 0.0586,-0.29297 0.0586,-0.23632 0.0586,-0.29492 v -0.29297 l 0.0586,-0.23633 z"
     style="fill:#212830;fill-opacity:1;stroke:#212830;stroke-width:0.0588235px;stroke-linecap:round;stroke-linejoin:round;stroke-miterlimit:4;stroke-dasharray:none;stroke-opacity:1"
     id="path6033" />
</svg>
