<?xml version="1.0" encoding="UTF-8" standalone="no"?>
<svg
   xmlns:dc="http://purl.org/dc/elements/1.1/"
   xmlns:cc="http://creativecommons.org/ns#"
   xmlns:rdf="http://www.w3.org/1999/02/22-rdf-syntax-ns#"
   xmlns:svg="http://www.w3.org/2000/svg"
   xmlns="http://www.w3.org/2000/svg"
   xmlns:sodipodi="http://sodipodi.sourceforge.net/DTD/sodipodi-0.dtd"
   xmlns:inkscape="http://www.inkscape.org/namespaces/inkscape"
   inkscape:version="1.0 (4035a4fb49, 2020-05-01)"
   sodipodi:docname="KP4530.svg"
   id="svg4341"
   height="174mm"
   width="174mm"
   version="1.0">
  <metadata
     id="metadata4345">
    <rdf:RDF>
      <cc:Work
         rdf:about="">
        <dc:format>image/svg+xml</dc:format>
        <dc:type
           rdf:resource="http://purl.org/dc/dcmitype/StillImage" />
        <dc:title></dc:title>
      </cc:Work>
    </rdf:RDF>
  </metadata>
  <sodipodi:namedview
     inkscape:current-layer="svg4341"
     inkscape:window-maximized="1"
     inkscape:window-y="-8"
     inkscape:window-x="-8"
     inkscape:cy="129.76088"
     inkscape:cx="618.43303"
     inkscape:zoom="1.3744347"
     showgrid="false"
     id="namedview4343"
     inkscape:window-height="1017"
     inkscape:window-width="1920"
     inkscape:pageshadow="2"
     inkscape:pageopacity="0"
     guidetolerance="10"
     gridtolerance="10"
     objecttolerance="10"
     borderopacity="1"
     bordercolor="#666666"
     pagecolor="#ffffff" />
  <defs
     id="defs3" />
  <path
     d="m 99.349169,186.67143 -0.64843,0.0586 h -0.64649 l -0.64648,0.0605 -0.64649,0.0586 -0.64844,0.0586 -0.64648,0.11722 -0.64648,0.11719 -0.64844,0.17773 -0.58789,0.17578 -0.64649,0.17578 -0.64648,0.17774 -0.58984,0.23437 -0.5879,0.23633 -0.64648,0.23438 -0.58789,0.29492 -0.58789,0.29297 -0.5293,0.29492 -0.58984,0.29297 -0.5293,0.35351 -0.58789,0.35352 -0.5293,0.41211 -0.52929,0.35156 -0.47071,0.41211 -0.52929,0.41211 -0.47071,0.4707 -0.4707,0.41211 -0.4707,0.47071 -0.47071,0.4707 -0.4121,0.5293 -0.41016,0.4707 L 0.99565852,296.02495 V 470.96636 H 110.23198 v -21.82422 h 437.11719 v 21.82422 H 656.64214 V 208.55425 l -0.0586,-0.64649 v -0.64843 l -0.0586,-0.64649 -0.0586,-0.64648 -0.11719,-0.70703 -0.0586,-0.64649 -0.17774,-0.64648 -0.11718,-0.58789 -0.17578,-0.64844 -0.17774,-0.64649 -0.23437,-0.64648 -0.17579,-0.58789 -0.29492,-0.64844 -0.23632,-0.58789 -0.29297,-0.58789 -0.29493,-0.58789 -0.29296,-0.58789 -0.35352,-0.58984 -0.35352,-0.5293 -0.35156,-0.5293 -0.35351,-0.5293 -0.41211,-0.52929 -0.41211,-0.5293 -0.41211,-0.5293 -0.4707,-0.4707 -0.46876,-0.4707 -0.4707,-0.47071 -0.4707,-0.4121 -0.4707,-0.46876 -0.5293,-0.4121 -0.5293,-0.35352 -0.5293,-0.41211 -0.53124,-0.35351 -0.5879,-0.35157 -0.52929,-0.35351 -0.58789,-0.29492 -0.58789,-0.29297 -0.58789,-0.29493 -0.5879,-0.29296 -0.64843,-0.23633 -0.58789,-0.23438 -0.64649,-0.17773 -0.64843,-0.17578 -0.5879,-0.17578 -0.64648,-0.17774 -0.64648,-0.11719 -0.64844,-0.11718 -0.64649,-0.11719 -0.64648,-0.0586 -0.70703,-0.0605 h -0.64649 l -0.64648,-0.0586 -0.64649,0.0586 h -0.64843 l -0.64649,0.0605 -0.64648,0.0586 -0.70703,0.0586 -0.64649,0.11719 -0.64648,0.11719 -0.64844,0.17773 -0.58789,0.11719 -0.64648,0.23437 -0.64649,0.17774 -0.58984,0.23437 -0.64649,0.23633 -0.58789,0.23438 -0.58789,0.29492 -0.58789,0.29297 -0.58984,0.29492 -0.58789,0.35351 -0.5293,0.29297 -0.58789,0.41211 -0.5293,0.35352 -0.52929,0.41016 -0.47071,0.4121 -0.52929,0.41211 -0.47071,0.41211 -0.4707,0.47071 -0.4707,0.4707 -0.47071,0.4707 -0.41211,0.5293 -0.4121,0.4707 -0.41016,0.5293 -3.29492,4.35351 -0.41211,0.5293 -0.41211,0.5293 -0.41016,0.4707 -0.4707,0.4707 -0.41211,0.46876 -0.4707,0.4707 -0.5293,0.41211 -0.4707,0.4707 -0.5293,0.41211 -0.5293,0.35352 -0.52929,0.4121 -0.5293,0.35157 -0.58984,0.35351 -0.5293,0.29492 -0.58789,0.29297 -0.58789,0.29493 -0.58789,0.29296 -0.58789,0.23633 -0.64844,0.29297 -0.58789,0.17774 -0.64649,0.23437 -0.58789,0.17773 -0.64843,0.17579 -0.64649,0.11718 -0.64648,0.11719 -0.64649,0.11914 -0.64844,0.11719 -0.64648,0.0586 -0.64648,0.0586 h -0.64844 -0.64649 -0.64648 -0.64649 l -0.64843,-0.0586 -0.64649,-0.0586 -0.70508,-0.11719 -0.58984,-0.11914 -0.64648,-0.11719 -0.64649,-0.11718 -0.64843,-0.17579 -0.64649,-0.17773 -0.58789,-0.23437 -0.64648,-0.17774 -0.5879,-0.29297 -0.58984,-0.23633 -0.58789,-0.29296 -0.58789,-0.29493 -0.58789,-0.29297 -0.58789,-0.29492 -0.5293,-0.35351 -0.5293,-0.35157 -0.53124,-0.4121 -0.5293,-0.35352 -0.5293,-0.41211 -0.5293,-0.4707 -0.4707,-0.41211 -0.4707,-0.4707 -0.4707,-0.46876 -0.41016,-0.4707 -0.4707,-0.4707 -0.41211,-0.5293 -0.35352,-0.5293 -3.29297,-4.35351 -0.41211,-0.5293 -0.41211,-0.4707 -0.41211,-0.5293 -0.4707,-0.4707 -0.4707,-0.4707 -0.47071,-0.41211 -0.4707,-0.47071 -0.4707,-0.41211 -0.5293,-0.4121 -0.5293,-0.41016 -0.52929,-0.35352 -0.5293,-0.35351 -0.58789,-0.35157 -0.5293,-0.35351 -0.58789,-0.29492 -0.58789,-0.29297 -0.58984,-0.23633 -0.58789,-0.29297 -0.64649,-0.23633 -0.58789,-0.23437 -0.64843,-0.17774 -0.64649,-0.17578 -0.58786,-0.17579 -0.64648,-0.11914 -0.64844,-0.17578 -0.64649,-0.0586 -0.64648,-0.11719 -0.64649,-0.0586 -0.64843,-0.0605 h -0.64649 l -0.64648,-0.0586 -0.64844,0.0586 h -0.70508 l -0.64648,0.0605 -0.64844,0.0586 -0.64648,0.11719 -0.64649,0.0586 -0.64843,0.17578 -0.5879,0.11914 -0.64648,0.17578 -0.64648,0.17578 -0.5879,0.17774 -0.64843,0.23437 -0.58789,0.23633 -0.58789,0.29297 -0.58789,0.23633 -0.5879,0.29297 -0.58984,0.29492 -0.58789,0.35351 -0.5293,0.35157 -0.58789,0.35351 -0.52929,0.35352 -0.5293,0.41016 -0.4707,0.4121 -0.5293,0.41211 -0.4707,0.47071 -0.47071,0.41211 -0.4707,0.4707 -0.41211,0.4707 -0.4707,0.5293 -0.41211,0.4707 -0.41016,0.5293 -3.23633,4.35351 -0.41211,0.5293 -0.4121,0.5293 -0.41016,0.4707 -0.4707,0.4707 -0.47071,0.46876 -0.4707,0.4707 -0.4707,0.41211 -0.5293,0.4707 -0.4707,0.41211 -0.5293,0.35352 -0.5293,0.4121 -0.58789,0.35157 -0.5293,0.35351 -0.58984,0.29492 -0.5293,0.29297 -0.58789,0.29493 -0.58789,0.29296 -0.64648,0.23633 -0.58984,0.29297 -0.5879,0.17774 -0.64648,0.23437 -0.64648,0.17773 -0.5879,0.17579 -0.64843,0.11718 -0.64649,0.11719 -0.64648,0.11914 -0.64844,0.11719 -0.64648,0.0586 -0.64649,0.0586 h -0.64843 -0.70508 -0.64649 -0.64843 l -0.64649,-0.0586 -0.64648,-0.0586 -0.64649,-0.11719 -0.64844,-0.11914 -0.64648,-0.11719 -0.64648,-0.11718 -0.5879,-0.17579 -0.64843,-0.17773 -0.64649,-0.23437 -0.58789,-0.17774 -0.58789,-0.29297 -0.64844,-0.23633 -0.58789,-0.29296 -0.58789,-0.29493 -0.52929,-0.29297 -0.58789,-0.29492 -0.5293,-0.35351 -0.58984,-0.35157 -0.5293,-0.4121 -0.5293,-0.35352 -0.4707,-0.41211 -0.5293,-0.4707 -0.4707,-0.41211 -0.4707,-0.4707 -0.46876,-0.46876 -0.4707,-0.4707 -0.41211,-0.4707 -0.41211,-0.5293 -0.41211,-0.5293 -3.23437,-4.35351 -0.41211,-0.5293 -0.41211,-0.4707 -0.4707,-0.5293 -0.41211,-0.4707 -0.47071,-0.4707 -0.4707,-0.41211 -0.4707,-0.47071 -0.5293,-0.41211 -0.4707,-0.4121 -0.5293,-0.41016 -0.5293,-0.35352 -0.58789,-0.35351 -0.52929,-0.35157 -0.58789,-0.35351 -0.58789,-0.29492 -0.5879,-0.29297 -0.58984,-0.23633 -0.58789,-0.29297 -0.58789,-0.23633 -0.64648,-0.23437 -0.5879,-0.17774 -0.64843,-0.17578 -0.64649,-0.17578 -0.58789,-0.11914 -0.64843,-0.17578 -0.64649,-0.0586 -0.64648,-0.11719 -0.64649,-0.0586 -0.64844,-0.0605 h -0.70507 l -0.64649,-0.0586 -0.64844,0.0586 h -0.64648 l -0.64648,0.0605 -0.64844,0.0586 -0.64649,0.11719 -0.64648,0.0586 -0.64649,0.17578 -0.64843,0.11914 -0.58789,0.17578 -0.64649,0.17578 -0.64843,0.17774 -0.5879,0.23437 -0.64648,0.23633 -0.58789,0.29297 -0.58789,0.23633 -0.58984,0.29297 -0.5879,0.29492 -0.52929,0.35351 -0.58789,0.35157 -0.5293,0.35351 -0.5293,0.35352 -0.52929,0.41016 -0.5293,0.4121 -0.4707,0.41211 -0.47071,0.47071 -0.4707,0.41211 -0.4707,0.4707 -0.47071,0.4707 -0.41211,0.5293 -0.4121,0.4707 -0.41016,0.5293 -3.29492,4.35351 -0.35352,0.5293 -0.41016,0.5293 -0.4707,0.4707 -0.41211,0.4707 -0.4707,0.46876 -0.4707,0.4707 -0.47071,0.41211 -0.52929,0.4707 -0.5293,0.41211 -0.5293,0.35352 -0.52929,0.4121 -0.5293,0.35157 -0.5293,0.35351 -0.58984,0.29492 -0.58789,0.29297 -0.58789,0.29493 -0.58789,0.29296 -0.58789,0.23633 -0.5879,0.29297 -0.64843,0.17774 -0.58789,0.23437 -0.64649,0.17773 -0.64843,0.17579 -0.64649,0.11718 -0.64648,0.11719 -0.58789,0.11914 -0.70704,0.11719 -0.64648,0.0586 -0.64648,0.0586 h -0.64844 -0.64649 -0.64648 -0.64649 l -0.64843,-0.0586 -0.64649,-0.0586 -0.64648,-0.11719 -0.64844,-0.11914 -0.64648,-0.11719 -0.64649,-0.11718 -0.64843,-0.17579 -0.5879,-0.17773 -0.64648,-0.23437 -0.58789,-0.17774 -0.64649,-0.29297 -0.58984,-0.23633 -0.58789,-0.29296 -0.58789,-0.29493 -0.58789,-0.29297 -0.5293,-0.29492 -0.58789,-0.35351 -0.5293,-0.35157 -0.53124,-0.4121 -0.5293,-0.35352 -0.5293,-0.41211 -0.4707,-0.4707 -0.5293,-0.41211 -0.4707,-0.4707 -0.41016,-0.46876 -0.4707,-0.4707 -0.41211,-0.4707 -0.41211,-0.5293 -0.41211,-0.5293 -3.29297,-4.35351 -0.41211,-0.5293 -0.41211,-0.4707 -0.41211,-0.5293 -0.4707,-0.4707 -0.41211,-0.4707 -0.4707,-0.41211 -0.5293,-0.47071 -0.4707,-0.41211 -0.5293,-0.4121 -0.5293,-0.41016 -0.52929,-0.35352 -0.5293,-0.35351 -0.58789,-0.35157 -0.5293,-0.35351 -0.58789,-0.29492 -0.58789,-0.29297 -0.58984,-0.23633 -0.58789,-0.29297 -0.64649,-0.23633 -0.58789,-0.23437 -0.64843,-0.17774 -0.5879,-0.17578 -0.64648,-0.17578 -0.64648,-0.11914 -0.64844,-0.17578 -0.64649,-0.0586 -0.64648,-0.11719 -0.64649,-0.0586 -0.64843,-0.0605 h -0.64649 l -0.64648,-0.0586 -0.64844,0.0586 h -0.64648 l -0.64649,0.0605 -0.64843,0.0586 -0.64649,0.11719 -0.64648,0.0586 -0.64649,0.17578 -0.64844,0.11914 -0.64648,0.17578 -0.64648,0.17578 -0.5879,0.17774 -0.64843,0.23437 -0.58789,0.23633 -0.58789,0.29297 -0.58789,0.23633 -0.5879,0.29297 -0.58984,0.29492 -0.58789,0.35351 -0.5293,0.35157 -0.52929,0.35351 -0.5293,0.35352 -0.5293,0.41016 -0.52929,0.4121 -0.47071,0.41211 -0.52929,0.47071 -0.47071,0.41211 -0.4707,0.4707 -0.41211,0.4707 -0.41211,0.5293 -0.41016,0.4707 -0.4121,0.5293 -3.29493,4.35351 -0.41211,0.5293 -0.4121,0.5293 -0.41016,0.4707 -0.4707,0.4707 -0.47071,0.46876 -0.4707,0.4707 -0.4707,0.41211 -0.47071,0.4707 -0.52929,0.41211 -0.5293,0.35352 -0.5293,0.4121 -0.52929,0.35157 -0.5879,0.35351 -0.53124,0.29492 -0.5879,0.29297 -0.58789,0.29493 -0.58789,0.29296 -0.58789,0.23633 -0.64843,0.29297 -0.5879,0.17774 -0.64648,0.23437 -0.58789,0.17773 -0.64649,0.17579 -0.64843,0.11718 -0.64649,0.11719 -0.64648,0.11914 -0.64844,0.11719 -0.64648,0.0586 -0.64649,0.0586 h -0.64843 -0.64649 -0.64648 -0.64649 l -0.64844,-0.0586 -0.70507,-0.0586 -0.64649,-0.11719 -0.64844,-0.11914 -0.58789,-0.11719 -0.64648,-0.11718 -0.64649,-0.17579 -0.64843,-0.17773 -0.58789,-0.23437 -0.64649,-0.17774 -0.58789,-0.29297 -0.58984,-0.23633 -0.58789,-0.29296 -0.58789,-0.29493 -0.58789,-0.29297 -0.58789,-0.29492 -0.5293,-0.35351 -0.5293,-0.35157 -0.58984,-0.4121 -0.4707,-0.35352 -0.5293,-0.41211 -0.5293,-0.4707 -0.4707,-0.41211 -0.4707,-0.4707 -0.46876,-0.46876 -0.4121,-0.4707 -0.47071,-0.4707 -0.41211,-0.5293 -0.35351,-0.5293 -3.29297,-4.35351 -0.41211,-0.5293 -0.41211,-0.4707 -0.41211,-0.5293 -0.4707,-0.4707 -0.47071,-0.4707 -0.4707,-0.41211 -0.4707,-0.47071 -0.4707,-0.41211 -0.5293,-0.4121 -0.5293,-0.41016 -0.5293,-0.35352 -0.52929,-0.35351 -0.58789,-0.35157 -0.5293,-0.35351 -0.58789,-0.29492 -0.58789,-0.29297 -0.58984,-0.23633 -0.64649,-0.29297 -0.58789,-0.23633 -0.58789,-0.23437 -0.64649,-0.17774 -0.64843,-0.17578 -0.58789,-0.17578 -0.64649,-0.11914 -0.64843,-0.17578 -0.64649,-0.0586 -0.64648,-0.11719 -0.64649,-0.0586 -0.64844,-0.0605 h -0.64648 l -0.64648,-0.0586 -0.64844,0.0586 h -0.70508 l -0.64648,0.0605 -0.64844,0.0586 -0.64649,0.11719 -0.64648,0.0586 -0.64649,0.17578 -0.58984,0.11914 -0.64648,0.17578 -0.64649,0.17578 -0.58789,0.17774 -0.64844,0.23437 -0.58789,0.23633 -0.58789,0.29297 -0.64648,0.23633 -0.5293,0.29297 -0.58984,0.29492 -0.58789,0.35351 -0.5293,0.35157 -0.58789,0.35351 -0.5293,0.35352 -0.52929,0.41016 -0.47071,0.4121 -0.52929,0.41211 -0.47071,0.47071 -0.4707,0.41211 -0.4707,0.4707 -0.41211,0.4707 -0.47071,0.5293 -0.4121,0.4707 -0.41016,0.5293 -3.23633,4.35351 -0.41211,0.5293 -0.41016,0.5293 -0.4707,0.4707 -0.41211,0.4707 -0.4707,0.46876 -0.4707,0.4707 -0.47071,0.41211 -0.52929,0.4707 -0.47071,0.41211 -0.52929,0.35352 -0.5293,0.4121 -0.58789,0.35157 -0.5293,0.35351 -0.58984,0.29492 -0.5293,0.29297 -0.58789,0.29493 -0.58789,0.29296 -0.64648,0.23633 -0.5879,0.29297 -0.64843,0.17774 -0.58789,0.23437 -0.64649,0.17773 -0.58789,0.17579 -0.64844,0.11718 -0.64648,0.11719 -0.64648,0.11914 -0.64844,0.11719 -0.64649,0.0586 -0.64648,0.0586 h -0.64649 -0.70703 -0.64648 -0.64649 l -0.64843,-0.0586 -0.64649,-0.0586 -0.64648,-0.11719 -0.64844,-0.11914 -0.64648,-0.11719 -0.64649,-0.11718 -0.58789,-0.17579 -0.64844,-0.17773 -0.64648,-0.23437 -0.58789,-0.17774 -0.58789,-0.29297 -0.64844,-0.23633 -0.58789,-0.29296 -0.58789,-0.29493 -0.5293,-0.29297 -0.58789,-0.29492 -0.58789,-0.35351 -0.5293,-0.35157 -0.53124,-0.4121 -0.5293,-0.35352 -0.4707,-0.41211 -0.5293,-0.4707 -0.4707,-0.41211 -0.46876,-0.4707 -0.4707,-0.46876 -0.4707,-0.4707 -0.41211,-0.4707 -0.41211,-0.5293 -0.41211,-0.5293 -3.29297,-4.35351 -0.35351,-0.5293 -0.41211,-0.4707 -0.47071,-0.5293 -0.41211,-0.4707 -0.4707,-0.4707 -0.4707,-0.41211 -0.4707,-0.47071 -0.5293,-0.41211 -0.5293,-0.4121 -0.4707,-0.41016 -0.5293,-0.35352 -0.58789,-0.35351 -0.5293,-0.35157 -0.58789,-0.35351 -0.58789,-0.29492 -0.58789,-0.29297 -0.58984,-0.23633 -0.58789,-0.29297 -0.58789,-0.23633 -0.64649,-0.23437 -0.58789,-0.17774 -0.64844,-0.17578 -0.64648,-0.17578 -0.64648,-0.11914 -0.5879,-0.17578 -0.64843,-0.0586 -0.64649,-0.11719 -0.64648,-0.0586 -0.70703,-0.0605 h -0.64649 l -0.64648,-0.0586 -0.64844,0.0586 h -0.64648 l -0.64649,0.0605 -0.64843,0.0586 -0.64649,0.11719 -0.64648,0.0586 -0.64649,0.17578 -0.64844,0.11914 -0.64648,0.17578 -0.58789,0.17578 -0.64649,0.17774 -0.58984,0.23437 -0.64648,0.23633 -0.58789,0.29297 -0.58789,0.23633 -0.5879,0.29297 -0.58984,0.29492 -0.5293,0.35351 -0.58789,0.35157 -0.52929,0.35351 -0.5293,0.35352 -0.5293,0.41016 -0.52929,0.4121 -0.47071,0.41211 -0.4707,0.47071 -0.4707,0.41211 -0.47071,0.4707 -0.4707,0.4707 -0.41211,0.5293 -0.41016,0.4707 -0.4121,0.5293 -3.29493,4.35351 -0.35351,0.5293 -0.4707,0.5293 -0.41016,0.4707 -0.41211,0.4707 -0.4707,0.46876 -0.47071,0.4707 -0.52929,0.41211 -0.47071,0.4707 -0.52929,0.41211 -0.5293,0.35352 -0.5293,0.4121 -0.52929,0.35157 -0.5293,0.35351 -0.58984,0.29492 -0.5879,0.29297 -0.58789,0.29493 -0.58789,0.29296 -0.58789,0.23633 -0.58789,0.29297 -0.64844,0.17774 -0.58789,0.23437 -0.64648,0.17773 -0.64649,0.17579 -0.64843,0.11718 -0.64649,0.11719 -0.64648,0.11914 -0.64844,0.11719 -0.64648,0.0586 -0.64649,0.0586 h -0.64843 -0.64649 -0.64648 -0.64649 l -0.64844,-0.0586 -0.64648,-0.0586 -0.64648,-0.11719 -0.64844,-0.11914 -0.64649,-0.11719 -0.64648,-0.11718 -0.64649,-0.17579 -0.58984,-0.17773 -0.64648,-0.23437 -0.58789,-0.17774 -0.64649,-0.29297 -0.58984,-0.23633 -0.58789,-0.29296 -0.58789,-0.29493 -0.58789,-0.29297 -0.5293,-0.29492 -0.58789,-0.35351 -0.5293,-0.35157 -0.5293,-0.4121 -0.53124,-0.35352 -0.5293,-0.41211 -0.4707,-0.4707 -0.5293,-0.41211 -0.4707,-0.4707 -0.41016,-0.46876 -0.4707,-0.4707 -0.41211,-0.4707 -0.41211,-0.5293 -0.41211,-0.5293 -3.29297,-4.35351 -0.41211,-0.5293 -0.41211,-0.4707 -0.41211,-0.5293 -0.4707,-0.4707 -0.41211,-0.4707 -0.4707,-0.41211 -0.5293,-0.47071 -0.4707,-0.41211 -0.5293,-0.4121 -0.5293,-0.41016 -0.5293,-0.35352 -0.52929,-0.35351 -0.58789,-0.35157 -0.5293,-0.35351 -0.58789,-0.29492 -0.58789,-0.29297 -0.58984,-0.23633 -0.5879,-0.29297 -0.64648,-0.23633 -0.58789,-0.23437 -0.64649,-0.17774 -0.58984,-0.17578 -0.64648,-0.17578 -0.64649,-0.11914 -0.64843,-0.17578 -0.64649,-0.0586 -0.64648,-0.11719 -0.64649,-0.0586 -0.64844,-0.0605 h -0.64648 l -0.64648,-0.0586 -0.64844,0.0586 h -0.64649 l -0.64648,0.0605 -0.64649,0.0586 -0.64843,0.11719 -0.64649,0.0586 -0.64648,0.17578 -0.64844,0.11914 -0.64648,0.17578 -0.64649,0.17578 -0.58789,0.17774 -0.64844,0.23437 -0.58789,0.23633 -0.58789,0.29297 -0.58789,0.23633 -0.58789,0.29297 -0.58984,0.29492 -0.58789,0.35351 -0.5293,0.35157 -0.5293,0.35351 -0.52929,0.35352 -0.5293,0.41016 -0.5293,0.4121 -0.4707,0.41211 -0.5293,0.47071 -0.4707,0.41211 -0.4707,0.4707 -0.41211,0.4707 -0.41211,0.5293 -0.4707,0.4707 -0.35157,0.5293 -3.29492,4.35351 -0.41211,0.5293 -0.41016,0.5293 -0.4121,0.4707 -0.47071,0.4707 -0.4707,0.46876 -0.4707,0.4707 -0.47071,0.41211 -0.4707,0.4707 -0.5293,0.41211 -0.52929,0.35352 -0.5293,0.4121 -0.5293,0.35157 -0.58789,0.35351 -0.5293,0.29492 -0.58984,0.29297 -0.58789,0.29493 -0.58789,0.29296 -0.58789,0.23633 -0.64649,0.29297 -0.58984,0.17774 -0.64648,0.23437 -0.58789,0.17773 -0.64649,0.17579 -0.64844,0.11718 -0.64648,0.11719 -0.64648,0.11914 -0.64844,0.11719 -0.64649,0.0586 -0.64648,0.0586 h -0.64649 -0.64843 -0.64649 -0.64648 l -0.70703,-0.0586 -0.64649,-0.0586 -0.64648,-0.11719 -0.64844,-0.11914 -0.58789,-0.11719 -0.64648,-0.11718 -0.64649,-0.17579 -0.64844,-0.17773 -0.58789,-0.23437 -0.64648,-0.17774 -0.58789,-0.29297 -0.58984,-0.23633 -0.5879,-0.29296 -0.58789,-0.29493 -0.58789,-0.29297 -0.58789,-0.29492 -0.52929,-0.35351 -0.5879,-0.35157 -0.53124,-0.4121 -0.46876,-0.35352 -0.53124,-0.41211 -0.5293,-0.4707 -0.4707,-0.41211 -0.46876,-0.4707 -0.4707,-0.46876 -0.41211,-0.4707 -0.4707,-0.4707 -0.41211,-0.5293 -0.35352,-0.5293 -3.29296,-4.35351 -0.41211,-0.5293 -0.41211,-0.4707 -0.41211,-0.5293 -0.47071,-0.4707 -0.4707,-0.4707 -0.4707,-0.41211 -0.4707,-0.47071 -0.46876,-0.41211 -0.53124,-0.4121 -0.5293,-0.35157 -0.5293,-0.41211 -0.5293,-0.35351 -0.58789,-0.35157 -0.52929,-0.29492 -0.58789,-0.35351 -0.58789,-0.29297 -0.5879,-0.23633 -0.58984,-0.29297 -0.58789,-0.23633 -0.64648,-0.17578 -0.58789,-0.23633 -0.64844,-0.17578 -0.64649,-0.17578 -0.64648,-0.11914 -0.64649,-0.11719 -0.58984,-0.11718 -0.64648,-0.11719 -0.64649,-0.0586 -0.70703,-0.0605 h -0.646481 z m 76.470711,65.64844 h 305.9414 v 27.70508 l 29.64649,17.11719 0.41211,-0.76367 0.52929,-0.82422 0.47071,-0.76368 0.52929,-0.70703 0.5293,-0.76367 0.5293,-0.70703 0.58789,-0.70508 0.52929,-0.70703 0.64649,-0.70508 0.58984,-0.70508 0.58789,-0.64843 0.64649,-0.64649 0.64648,-0.64648 0.70703,-0.58984 0.64649,-0.64649 0.70508,-0.58789 0.70703,-0.58789 0.70507,-0.5293 0.70704,-0.52929 0.76367,-0.5293 0.76562,-0.5293 0.76367,-0.4707 0.76563,-0.5293 0.76367,-0.41211 0.82422,-0.4707 0.76562,-0.41211 0.82227,-0.41211 0.82422,-0.41211 0.82227,-0.35156 0.88281,-0.35352 0.82422,-0.35351 0.82421,-0.29297 0.88086,-0.35352 0.88282,-0.23632 0.88281,-0.29297 0.82227,-0.23633 0.88281,-0.23438 0.9414,-0.17578 0.88282,-0.17773 0.88281,-0.17578 0.88086,-0.17579 0.88281,-0.11914 0.94141,-0.0586 0.88281,-0.11719 0.94141,-0.0586 0.88086,-0.0586 h 0.9414 0.88281 0.88282 0.9414 l 0.88281,0.0586 0.93946,0.11719 0.88281,0.0586 0.88281,0.11719 0.94141,0.11914 0.88281,0.17578 0.88086,0.17578 0.88281,0.17774 0.88282,0.23437 0.88281,0.23633 0.88086,0.23437 0.88281,0.29493 0.88281,0.23437 0.82422,0.35352 0.88086,0.29297 0.82422,0.35351 0.82422,0.35352 0.82226,0.41211 0.82422,0.35156 0.82422,0.4707 0.76367,0.41211 0.82422,0.4707 0.76367,0.47071 0.76563,0.4707 0.76367,0.4707 0.76563,0.5293 0.70507,0.5293 0.76563,0.58789 0.70508,0.52929 0.70703,0.5879 0.64648,0.58984 0.70508,0.64648 0.64844,0.58789 0.64648,0.64649 0.64649,0.70703 0.58789,0.64648 0.58984,0.70703 0.58789,0.64649 0.58789,0.70508 0.5293,0.76562 0.58789,0.70508 0.5293,0.76563 0.4707,0.76367 0.4707,0.76562 0.5293,0.76367 0.41211,0.76563 0.4707,0.82227 0.41211,0.76562 0.41211,0.82422 0.35156,0.82226 0.41211,0.88282 0.35352,0.82422 0.29297,0.82226 0.35351,0.88281 0.23633,0.82422 0.29297,0.88281 0.29492,0.88086 0.23438,0.88282 0.17773,0.88281 0.23438,0.88281 0.17578,0.88086 0.11914,0.88281 0.17578,0.94142 0.11719,0.88281 0.0586,0.88281 0.11914,0.93946 0.0586,0.88281 v 0.94141 l 0.0586,0.88281 v 0.94141 l -0.0586,0.88086 v 0.9414 l -0.0586,0.88281 -0.11914,0.94141 -0.0586,0.88281 -0.11719,0.88281 -0.17578,0.93946 -0.11914,0.88281 -0.17578,0.88281 -0.23438,0.88282 -0.17773,0.88086 -0.23438,0.88281 -0.29492,0.88281 -0.29297,0.88281 -0.23633,0.82227 -0.35351,0.88281 -0.29297,0.82422 -0.35352,0.88281 -0.41211,0.82227 -0.35156,0.82422 -0.41211,0.82421 -0.41211,0.76368 -0.4707,0.82422 -0.41211,0.76367 -0.5293,0.76562 -0.4707,0.76367 -0.4707,0.76563 -0.5293,0.76367 -0.58789,0.70703 -0.5293,0.76367 -0.58789,0.70704 -0.58789,0.70507 -0.58984,0.64649 -0.58789,0.64844 -0.64649,0.70507 -0.64648,0.64649 -0.64844,0.58984 -0.70508,0.64649 -0.64648,0.58789 -0.70703,0.58789 -0.70508,0.52929 -0.76563,0.5879 -0.70507,0.53124 -0.76563,0.5293 -0.76367,0.4707 -0.76563,0.46876 -0.76367,0.4707 -0.82422,0.4707 -0.76367,0.41211 -0.82422,0.4707 -0.82422,0.35352 -0.82226,0.41211 -0.82422,0.35156 -0.82422,0.35352 -0.88086,0.29492 -0.82422,0.35156 -0.88281,0.23633 -0.88281,0.29297 -0.88086,0.23633 -0.88281,0.23437 -0.88282,0.23633 -0.88281,0.17578 -0.88086,0.17773 -0.88281,0.17579 -0.94141,0.11718 -0.88281,0.11719 -0.88281,0.0586 -0.93946,0.11914 -0.88281,0.0586 h -0.9414 -0.88282 -0.88281 -0.9414 l -0.88086,-0.0586 -0.94141,-0.0586 -0.88281,-0.11914 -0.94141,-0.0586 -0.88281,-0.11719 -0.88086,-0.17578 -0.88281,-0.17774 -0.88282,-0.17578 -0.9414,-0.17578 -0.88281,-0.23633 -0.82227,-0.23437 -0.88281,-0.29492 -0.88282,-0.23438 -0.88086,-0.35351 -0.82421,-0.29493 -0.82422,-0.35156 -0.88281,-0.35351 -0.82227,-0.35352 -0.82422,-0.41211 -0.82227,-0.41016 -0.76562,-0.4121 -0.82422,-0.41211 -0.76367,-0.47071 -0.76563,-0.4707 -0.76367,-0.5293 -0.76562,-0.52929 -0.76367,-0.5293 -0.70704,-0.5293 -0.70507,-0.52929 -0.70703,-0.5879 -0.70508,-0.58984 -0.64649,-0.64648 -0.70703,-0.58789 -0.64648,-0.64649 -0.64649,-0.64844 -0.58789,-0.64648 -0.58984,-0.70508 -0.64649,-0.70703 -0.52929,-0.70508 -0.58789,-0.70703 -0.5293,-0.70508 -0.5293,-0.76562 -0.52929,-0.70508 -0.47071,-0.76562 -0.52929,-0.76368 -0.41211,-0.82422 -29.64649,17.11914 v 49.5879 h -305.9414 v -49.5879 l -29.5879,-17.11914 -0.4707,0.82422 -0.4707,0.76368 -0.5293,0.76562 -0.5293,0.70508 -0.53124,0.76562 -0.5293,0.70508 -0.5293,0.70703 -0.58789,0.70508 -0.58789,0.70704 -0.64648,0.70508 -0.5879,0.64648 -0.64843,0.64844 -0.64649,0.64649 -0.64648,0.58789 -0.70703,0.64648 -0.70508,0.58984 -0.70703,0.5879 -0.70508,0.52929 -0.70508,0.5293 -0.76562,0.5293 -0.76368,0.52929 -0.76562,0.5293 -0.76562,0.4707 -0.76368,0.47071 -0.82422,0.41211 -0.76367,0.4121 -0.82422,0.41016 -0.82421,0.41211 -0.82227,0.35352 -0.82422,0.35351 -0.88281,0.35156 -0.82227,0.29493 -0.88281,0.35351 -0.82422,0.23438 -0.88086,0.29492 -0.88281,0.23437 -0.88281,0.23633 -0.88282,0.17578 -0.88086,0.17578 -0.9414,0.17774 -0.88281,0.17578 -0.88282,0.11719 -0.9414,0.0586 -0.88281,0.11914 -0.88086,0.0586 -0.94141,0.0586 h -0.88281 -0.94141 -0.88281 -0.93946 l -0.88281,-0.0586 -0.9414,-0.11914 -0.88282,-0.0586 -0.88281,-0.11719 -0.9414,-0.11718 -0.88086,-0.17579 -0.88282,-0.17773 -0.88281,-0.17578 -0.88281,-0.23633 -0.880861,-0.23437 -0.88281,-0.23633 -0.88282,-0.29297 -0.82421,-0.23633 -0.88086,-0.35156 -0.82422,-0.29492 -0.88282,-0.35352 -0.82226,-0.35156 -0.82422,-0.41211 -0.82422,-0.35352 -0.82226,-0.4707 -0.76563,-0.41211 -0.82227,-0.4707 -0.76562,-0.4707 -0.76562,-0.46876 -0.76368,-0.4707 -0.76562,-0.5293 -0.70508,-0.53124 -0.70508,-0.5879 -0.70703,-0.52929 -0.70508,-0.58789 -0.70703,-0.58789 -0.64648,-0.64649 -0.70508,-0.58984 -0.64844,-0.64649 -0.58789,-0.70507 -0.64648,-0.64844 -0.58789,-0.64649 -0.5879,-0.70507 -0.58984,-0.70704 -0.5293,-0.76367 -0.52929,-0.70703 -0.5293,-0.76367 -0.5293,-0.76563 -0.4707,-0.76367 -0.4707,-0.76562 -0.47071,-0.76367 -0.4707,-0.82422 -0.41016,-0.76368 -0.4121,-0.82421 -0.35352,-0.82422 -0.35352,-0.82227 -0.35156,-0.88281 -0.35351,-0.82422 -0.29493,-0.88281 -0.29296,-0.82227 -0.29493,-0.88281 -0.23437,-0.88281 -0.23633,-0.88281 -0.23437,-0.88086 -0.17774,-0.88282 -0.17578,-0.88281 -0.17578,-0.88281 -0.11914,-0.93946 -0.11719,-0.88281 -0.11719,-0.88282 -0.0586,-0.94141 -0.11719,-0.88281 v -0.9414 l -0.0605,-0.88086 v -0.94141 l 0.0605,-0.88281 v -0.94141 l 0.11719,-0.88281 0.0586,-0.93946 0.11719,-0.88281 0.11719,-0.88281 0.11914,-0.94141 0.17578,-0.88281 0.17578,-0.88086 0.17774,-0.88281 0.23437,-0.88281 0.23633,-0.88282 0.23437,-0.88086 0.29493,-0.88281 0.29296,-0.82422 0.29493,-0.88281 0.35351,-0.82226 0.35156,-0.82422 0.35352,-0.88282 0.35352,-0.82226 0.4121,-0.82422 0.41016,-0.76562 0.4707,-0.82227 0.47071,-0.76563 0.4707,-0.76367 0.4707,-0.76562 0.5293,-0.76367 0.5293,-0.76563 0.52929,-0.70508 0.5293,-0.76562 0.58984,-0.70508 0.5879,-0.64649 0.58789,-0.70703 0.64648,-0.64648 0.58789,-0.70703 0.64844,-0.64649 0.70508,-0.58789 0.64648,-0.64648 0.70703,-0.58984 0.70508,-0.5879 0.70703,-0.52929 0.70508,-0.58789 0.70508,-0.5293 0.76562,-0.5293 0.76368,-0.4707 0.76562,-0.4707 0.76562,-0.47071 0.82227,-0.4707 0.76563,-0.41211 0.82226,-0.4707 0.82422,-0.35156 0.82422,-0.41211 0.82226,-0.35352 0.88282,-0.35351 0.82422,-0.29297 0.88086,-0.35352 0.82421,-0.23437 0.88282,-0.29493 0.88281,-0.23437 0.880861,-0.23633 0.88281,-0.23437 0.88281,-0.17774 0.88282,-0.17578 0.88086,-0.17578 0.9414,-0.11914 0.88281,-0.11719 0.88282,-0.0586 0.9414,-0.11719 0.88281,-0.0586 h 0.93946 0.88281 0.94141 0.88281 l 0.94141,0.0586 0.88086,0.0586 0.88281,0.11719 0.9414,0.0586 0.88282,0.11914 0.88281,0.17579 0.9414,0.17578 0.88086,0.17773 0.88282,0.17578 0.88281,0.23438 0.88281,0.23633 0.88086,0.29297 0.82422,0.23632 0.88281,0.35352 0.82227,0.29297 0.88281,0.35351 0.82422,0.35352 0.82227,0.35156 0.82421,0.41211 0.82422,0.41211 0.76367,0.41211 0.82422,0.4707 0.76368,0.41211 0.76562,0.5293 0.76562,0.4707 0.76368,0.5293 0.76562,0.5293 0.70508,0.52929 0.70508,0.5293 0.70703,0.58789 0.70508,0.58789 0.70703,0.64649 0.64648,0.58984 0.64649,0.64648 0.64843,0.64649 0.5879,0.64843 0.64648,0.70508 0.58789,0.70508 0.58789,0.70703 0.5293,0.70508 0.5293,0.70703 0.53124,0.76367 0.5293,0.70703 0.5293,0.76368 0.4707,0.82422 0.4707,0.76367 29.5879,-17.1172 z"
     style="fill:#212830;fill-opacity:1;stroke:#212830;stroke-width:0.0588235px;stroke-linecap:round;stroke-linejoin:round;stroke-miterlimit:4;stroke-dasharray:none;stroke-opacity:1"
     id="path4337" />
</svg>
