<?xml version="1.0" encoding="UTF-8" standalone="no"?>
<svg
   xmlns:dc="http://purl.org/dc/elements/1.1/"
   xmlns:cc="http://creativecommons.org/ns#"
   xmlns:rdf="http://www.w3.org/1999/02/22-rdf-syntax-ns#"
   xmlns:svg="http://www.w3.org/2000/svg"
   xmlns="http://www.w3.org/2000/svg"
   id="svg1309"
   height="118mm"
   width="118mm"
   version="1.0">
  <metadata
     id="metadata1313">
    <rdf:RDF>
      <cc:Work
         rdf:about="">
        <dc:format>image/svg+xml</dc:format>
        <dc:type
           rdf:resource="http://purl.org/dc/dcmitype/StillImage" />
        <dc:title></dc:title>
      </cc:Work>
    </rdf:RDF>
  </metadata>
  <defs
     id="defs3" />
  <path
     d="m 122.72822,55.698187 -0.76562,0.0586 -0.70508,0.17773 -0.64648,0.35157 -0.5879,0.41211 -0.53124,0.52929 -0.41016,0.58789 -0.29492,0.64844 -0.17578,0.70508 -0.0586,0.70508 v 22.58984 0.4707 l 0.17578,0.46876 0.23438,0.4707 0.29492,0.35351 0.35352,0.35352 0.4707,0.23437 0.4707,0.11914 0.4707,0.0586 h 11.70508 l 0.41211,-0.0586 0.47071,-0.11914 0.35156,-0.17578 0.35351,-0.23632 0.35352,-0.29297 0.23437,-0.41211 0.17774,-0.35352 0.11719,-0.41016 0.0586,-0.4707 v -18.41211 h 16.70508 V 175.93452 l 0.0605,0.5293 0.11719,0.4707 0.23438,0.41016 0.29492,0.35352 3.4707,3.4707 -3.4707,3.4707 -0.29492,0.35352 -0.23438,0.41016 -0.11719,0.4707 -0.0605,0.5293 v 86.76561 l -2.17578,-0.17578 -2.11719,-0.58984 -2,-0.88086 -1.76563,-1.29493 -1.52929,-1.52929 -1.29297,-1.82422 -0.88281,-1.93946 -0.58789,-2.11914 -0.17774,-2.17578 v -5.88281 l -0.0586,-0.41211 -0.11719,-0.41016 -0.17578,-0.4121 -0.23633,-0.35352 -0.29297,-0.29492 -0.41211,-0.29297 -0.35351,-0.17773 -0.41211,-0.11719 h -0.47071 -7.52929 -0.41211 l -0.41016,0.11719 -0.41211,0.17773 -0.35351,0.29297 -0.29492,0.29492 -0.29297,0.35352 -0.17579,0.4121 -0.11914,0.41016 v 0.41211 25.11719 l 0.0586,0.70703 0.17773,0.70508 0.29297,0.64843 0.41211,0.64649 0.5293,0.4707 0.58789,0.41211 0.64844,0.35156 0.70507,0.17774 0.76563,0.0586 h 20.88086 v 97.88281 H 73.374707 v -16.76563 l -0.0586,-0.70508 -0.17578,-0.70703 -0.29492,-0.64648 -0.41211,-0.64649 -0.5293,-0.4707 -0.58789,-0.41211 -0.70507,-0.35352 -0.70704,-0.17578 -0.70507,-0.0586 h -14.17579 l -0.4707,0.0586 -0.41211,0.11719 -0.41211,0.17578 -0.35351,0.23633 -0.29297,0.29297 -0.23633,0.35351 -0.17578,0.41211 -0.11719,0.41211 -0.0605,0.47071 v 3.35156 l 0.0605,0.41211 0.11719,0.41211 0.17578,0.41211 0.23633,0.35351 0.29297,0.29297 0.35351,0.29492 0.41211,0.17578 0.41211,0.11719 h 0.4707 8.35157 v 12.58984 h -51.82227 v -12.58984 h 8.35156 0.41211 l 0.41211,-0.11719 0.41211,-0.17578 0.35157,-0.29492 0.29492,-0.29297 0.29492,-0.35351 0.17578,-0.41211 0.11719,-0.41211 v -0.41211 -3.35156 -0.47071 l -0.11719,-0.41211 -0.17578,-0.41211 -0.29492,-0.35351 -0.29492,-0.29297 -0.35157,-0.23633 -0.41211,-0.17578 -0.41211,-0.11719 -0.41211,-0.0586 H 5.6696269 l -0.70703,0.0586 -0.70508,0.17578 -0.64648,0.35352 -0.5879,0.41211 -0.53124,0.4707 -0.41016,0.64649 -0.35352,0.64648 -0.17578,0.70703 -0.0605,0.70508 v 20.94141 l 0.0605,0.70507 0.17578,0.70704 0.35352,0.64648 0.41016,0.58789 0.53124,0.5293 0.5879,0.41211 0.64648,0.29492 0.70508,0.23437 0.70703,0.0586 H 440.31612 l 0.7656,-0.0586 0.7051,-0.23437 0.6465,-0.29492 0.5898,-0.41211 0.5293,-0.5293 0.4102,-0.58789 0.2949,-0.64648 0.1758,-0.70704 0.059,-0.70507 v -20.94141 l -0.059,-0.70508 -0.1758,-0.70703 -0.2949,-0.64648 -0.4102,-0.64649 -0.5293,-0.4707 -0.5898,-0.41211 -0.6465,-0.35352 -0.7051,-0.17578 -0.7656,-0.0586 h -14.1758 l -0.4707,0.0586 -0.4121,0.11719 -0.4121,0.17578 -0.3535,0.23633 -0.293,0.29297 -0.2363,0.35351 -0.1758,0.41211 -0.1172,0.41211 -0.059,0.47071 v 3.35156 l 0.059,0.4707 0.1172,0.4707 0.2363,0.41211 0.3516,0.41211 0.3535,0.29492 0.4121,0.23438 0.4707,0.11719 0.5293,0.0586 h 8.3516 v 12.58984 h -51.8223 v -12.58984 h 8.3535 0.4102 l 0.4707,-0.11719 0.3535,-0.17578 0.3535,-0.29492 0.3516,-0.29297 0.2363,-0.35351 0.1758,-0.41211 0.1172,-0.41211 0.061,-0.41211 v -3.35156 l -0.061,-0.47071 -0.1172,-0.41211 -0.1758,-0.41211 -0.2363,-0.35351 -0.3516,-0.29297 -0.3535,-0.23634 -0.3535,-0.17578 -0.4707,-0.11719 -0.4102,-0.0586 h -14.2363 l -0.7051,0.0586 -0.707,0.17578 -0.6465,0.35352 -0.5879,0.41211 -0.5293,0.4707 -0.4121,0.64649 -0.2949,0.64648 -0.2344,0.70703 -0.059,0.70508 v 16.76562 h -78.5293 V 284.0517 h 20.8809 l 0.707,-0.0586 0.7051,-0.17774 0.6484,-0.35156 0.6465,-0.41211 0.4707,-0.4707 0.4121,-0.64649 0.3516,-0.64843 0.1777,-0.70508 0.059,-0.70703 v -25.11719 l -0.059,-0.41211 -0.1191,-0.41016 -0.1758,-0.4121 -0.234,-0.35351 -0.2949,-0.29492 -0.3535,-0.29297 -0.4121,-0.17773 -0.4102,-0.11719 h -0.4707 -7.5293 -0.4707 l -0.4707,0.17773 -0.4121,0.23438 -0.4121,0.29492 -0.293,0.41016 -0.2363,0.4121 -0.1172,0.47071 -0.059,0.4707 v 5.88281 l -0.1777,2.17578 -0.5879,2.11914 -0.9414,1.93946 -1.2344,1.82422 -1.5293,1.52929 -1.8242,1.29493 -1.9414,0.88086 -2.1168,0.58984 -2.1758,0.17578 v -86.76562 l -0.059,-0.41016 -0.061,-0.35352 -0.1758,-0.41211 -0.2344,-0.29297 -0.2363,-0.29492 -3.4121,-3.4707 3.4121,-3.4707 0.2949,-0.35352 0.2344,-0.41016 0.1777,-0.4707 0.059,-0.5293 V 64.051697 h 16.7051 v 18.41211 l 0.059,0.4707 0.1172,0.46876 0.2363,0.4707 0.293,0.35351 0.4121,0.35352 0.4121,0.23437 0.4707,0.11914 0.4707,0.0586 h 11.7051 l 0.5293,-0.0586 0.4707,-0.11914 0.4121,-0.23437 0.4121,-0.35352 0.2949,-0.35351 0.2344,-0.4707 0.1172,-0.46876 0.059,-0.4707 v -22.58984 l -0.0589,-0.70508 -0.1758,-0.70508 -0.3535,-0.64844 -0.4121,-0.58789 -0.4688,-0.52929 -0.6484,-0.41211 -0.6465,-0.35157 -0.7051,-0.17773 -0.707,-0.0586 z m 37.58789,8.35351 h 125.41211 v 71.763673 l -1.8242,1.76563 -0.2344,0.35351 -0.2363,0.35157 -0.1758,0.41211 -0.059,0.41211 v 0.4707 l 0.059,0.41211 0.1758,0.41016 0.2363,0.4121 0.2344,0.29493 1.8242,1.76367 v 76.58984 l -1.8242,1.76367 -0.2344,0.29493 -0.2363,0.4121 -0.1758,0.41016 -0.059,0.41211 v 0.4707 l 0.059,0.41211 0.1758,0.41211 0.2363,0.35157 0.2344,0.35351 1.8242,1.76563 v 76.58789 l -1.8242,1.76367 -0.2344,0.29492 -0.2363,0.41211 -0.1758,0.41211 -0.059,0.41016 v 0.4707 l 0.059,0.41211 0.1758,0.41211 0.2363,0.35351 0.2344,0.35157 1.8242,1.76562 v 71.76562 H 160.31611 v -71.76562 l 1.76563,-1.76562 0.29297,-0.35157 0.23633,-0.35351 0.11718,-0.41211 0.0586,-0.41211 v -0.4707 l -0.0586,-0.41016 -0.11718,-0.41211 -0.23633,-0.41211 -0.29297,-0.29492 -1.76563,-1.76367 v -76.58789 l 1.76563,-1.76563 0.29297,-0.35351 0.23633,-0.35157 0.11718,-0.41211 0.0586,-0.41211 v -0.4707 l -0.0586,-0.41211 -0.11718,-0.41016 -0.23633,-0.4121 -0.29297,-0.29493 -1.76563,-1.76367 v -76.58984 l 1.76563,-1.76367 0.29297,-0.29493 0.23633,-0.4121 0.11718,-0.41016 0.0586,-0.41211 v -0.4707 l -0.0586,-0.41211 -0.11718,-0.41211 -0.23633,-0.35157 -0.29297,-0.35351 -1.76563,-1.76563 z"
     style="fill:#212830;fill-opacity:1;stroke:#212830;stroke-width:0.0588235px;stroke-linecap:round;stroke-linejoin:round;stroke-miterlimit:4;stroke-dasharray:none;stroke-opacity:1"
     id="path1307" />
</svg>
