<?xml version="1.0" encoding="UTF-8" standalone="no"?>
<svg
   xmlns:dc="http://purl.org/dc/elements/1.1/"
   xmlns:cc="http://creativecommons.org/ns#"
   xmlns:rdf="http://www.w3.org/1999/02/22-rdf-syntax-ns#"
   xmlns:svg="http://www.w3.org/2000/svg"
   xmlns="http://www.w3.org/2000/svg"
   id="svg2811"
   height="138mm"
   width="138mm"
   version="1.0">
  <metadata
     id="metadata2815">
    <rdf:RDF>
      <cc:Work
         rdf:about="">
        <dc:format>image/svg+xml</dc:format>
        <dc:type
           rdf:resource="http://purl.org/dc/dcmitype/StillImage" />
        <dc:title></dc:title>
      </cc:Work>
    </rdf:RDF>
  </metadata>
  <defs
     id="defs3" />
  <path
     d="M 1.2873975,1.1399375 V 71.727838 l 2.5293,2.53124 v 45.351572 l -2.5293,2.52929 v 69.5879 l 15.1171905,26.23632 v 36.64649 l -15.1171905,8.70703 v 70.58789 l 2.5293,2.5293 v 45.35351 l -2.5293,2.5293 v 11.23437 L 147.40459,434.72784 v 62.4121 l 40.35351,23.29493 h 20.11719 V 505.31768 L 187.7581,485.13994 v -42.82226 l 20.11719,-20.17774 v -40.35156 l -2.5293,-2.5293 v -45.35351 l 2.5293,-2.5293 v -50.41211 l -2.5293,-2.52929 v -45.35352 l 2.5293,-2.5293 v -12 l -5.35156,-5.35351 -0.23633,-0.29297 -0.23437,-0.23633 -0.23633,-0.35156 -0.23438,-0.29492 -0.23633,-0.35352 -0.17578,-0.29297 -0.17578,-0.35351 -0.11914,-0.35352 -0.11719,-0.35156 -0.11718,-0.35352 -0.11719,-0.41211 -0.0586,-0.35351 -0.0605,-0.35156 -0.0586,-0.41211 v -0.35352 -0.41211 -0.35156 l 0.0586,-0.41211 0.0605,-0.35352 0.0586,-0.41211 0.11719,-0.35156 0.11718,-0.35351 0.11719,-0.35352 0.11914,-0.35351 0.17578,-0.35157 0.17578,-0.35351 0.23633,-0.29492 0.23438,-0.35157 0.23633,-0.29492 0.23437,-0.29297 0.23633,-0.29492 0.29297,-0.23438 0.29492,-0.23632 0.29297,-0.23438 0.29492,-0.23633 0.35352,-0.23437 0.35156,-0.17774 0.35351,-0.17578 0.35352,-0.11718 0.35351,-0.11914 0.35157,-0.11719 0.35351,-0.11719 0.41211,-0.0586 0.35157,-0.0586 0.35351,-0.0586 h 0.41211 0.35352 0.4121 l 0.35157,0.0586 0.41211,0.0586 0.35351,0.0586 0.41211,0.11719 0.35156,0.11719 0.35352,0.11914 0.35352,0.11718 0.35156,0.17578 0.29492,0.17774 0.35352,0.23437 0.29296,0.23633 0.29493,0.23438 0.29297,0.23632 0.29492,0.23438 5.35351,5.35352 h 12 l 2.47071,-2.5293 h 45.35156 l 2.5293,2.5293 h 50.4121 l 2.47071,-2.5293 h 45.35351 l 2.5293,2.5293 h 40.29492 l 20.17578,-20.17774 h 42.82422 l 20.17578,20.17774 h 15.1172 v -20.17774 l -23.293,-40.29297 H 434.64092 L 395.46513,1.1399375 h -11.23632 l -2.5293,2.5293 h -45.35352 l -2.52929,-2.5293 H 263.2874 L 254.58232,16.259078 H 217.93389 L 191.7581,1.1399375 h -69.52929 l -2.5293,2.5293 H 74.345988 l -2.4707,-2.5293 z M 71.640918,21.317678 h 0.58789 112.824222 0.29296 l 0.29493,0.0586 h 0.29297 l 0.23632,0.0586 0.29492,0.11718 0.29297,0.0586 0.29493,0.11719 0.23437,0.11914 0.29492,0.17578 8.5293,4.9414 0.23437,0.11719 0.29493,0.17773 0.23437,0.23438 0.23633,0.17578 0.17578,0.23633 0.23633,0.23437 0.17578,0.23633 0.17578,0.29297 0.11914,0.23633 0.17578,0.29297 0.11719,0.29492 0.11719,0.29492 0.0605,0.29297 0.0586,0.29492 0.0586,0.29297 v 0.35352 l 0.0586,0.29492 V 147.78839 l -0.0586,0.58789 v 0.5293 l -0.0586,0.5293 -0.0586,0.58789 -0.11914,0.52929 -0.0586,0.5293 -0.17578,0.5293 -0.11719,0.52929 -0.17773,0.5293 -0.17578,0.5293 -0.23633,0.4707 -0.17578,0.5293 -0.23438,0.4707 -0.29492,0.4707 -0.23438,0.47071 -0.29492,0.4707 -0.35351,0.4707 -0.29297,0.47071 -0.35352,0.41211 -0.35351,0.41211 -0.35157,0.4121 -0.4121,0.35157 -0.41211,0.41211 -0.41211,0.35351 -0.41211,0.35157 -0.41211,0.29492 -0.4707,0.35351 -0.46876,0.29297 -0.4707,0.29492 -0.4707,0.23438 -0.4707,0.23633 -0.5293,0.23437 -0.4707,0.23633 -0.5293,0.17578 -0.5293,0.17773 -0.5293,0.17579 -0.53124,0.11718 -0.5293,0.11719 -0.5293,0.0586 -0.5293,0.11914 -0.58789,0.0586 h -0.52929 l -0.5293,0.0586 -0.58789,-0.0586 h -0.5293 l -0.52929,-0.0586 -0.5293,-0.0586 -0.58984,-0.0605 -0.5293,-0.11719 -0.5293,-0.11719 -0.5293,-0.11719 -0.52929,-0.17773 -0.5293,-0.17578 -0.4707,-0.17578 -0.5293,-0.23633 -0.4707,-0.23438 -0.47071,-0.23633 -0.52929,-0.29296 -0.47071,-0.29493 -0.4121,-0.29297 -0.46876,-0.29492 -0.4121,-0.35351 -0.41211,-0.35157 -0.41211,-0.35351 -0.41206,-0.41216 -111.292972,-111.353522 -0.35352,-0.4121 -0.41211,-0.41016 -0.35351,-0.41211 -0.29297,-0.41211 -0.35352,-0.4707 -0.29297,-0.41211 -0.29492,-0.47071 -0.23632,-0.4707 -0.29297,-0.5293 -0.23633,-0.4707 -0.17578,-0.5293 -0.23438,-0.4707 -0.17773,-0.5293 -0.11719,-0.52929 -0.17578,-0.5293 -0.11914,-0.5293 -0.11719,-0.52929 -0.0586,-0.58789 -0.0586,-0.5293 -0.0586,-0.5293 v -0.52929 -0.5879 -0.53124 l 0.0586,-0.5293 0.0586,-0.58789 0.0586,-0.5293 0.11719,-0.5293 0.0605,-0.52929 0.17579,-0.5293 0.11718,-0.5293 0.17579,-0.52929 0.23632,-0.5293 0.17578,-0.4707 0.23633,-0.5293 0.23438,-0.4707 0.29492,-0.47071 0.23437,-0.4707 0.29493,-0.4707 0.35351,-0.47071 0.29297,-0.41211 0.35352,-0.4707 0.35351,-0.41016 0.41016,-0.35351 0.35351,-0.41211 0.41211,-0.35352 0.41211,-0.35156 0.47071,-0.35351 0.4121,-0.35352 0.46876,-0.29297 0.4707,-0.29492 0.4707,-0.23438 0.4707,-0.29492 0.47071,-0.23632 0.52929,-0.23438 0.5293,-0.17578 0.4707,-0.17774 0.5293,-0.17578 0.5293,-0.17578 0.5293,-0.11914 0.53124,-0.11719 0.5879,-0.0586 0.52929,-0.0586 0.5293,-0.0586 z m 264.353512,0 h 0.29297 39.82422 0.35351 l 0.29297,0.0586 0.29493,0.0586 0.29296,0.0586 0.35352,0.0586 0.29492,0.11719 0.29297,0.11914 0.23633,0.17578 0.29297,0.11719 0.23633,0.17773 0.29296,0.23438 0.23633,0.17578 0.17578,0.23633 0.23633,0.23437 0.17578,0.23633 0.17578,0.23438 0.17774,0.29492 0.17578,0.29297 0.11719,0.29492 0.11719,0.29492 0.0605,0.29297 41.88086,156.294922 0.0586,0.29297 0.0605,0.29492 v 0.29492 0.29297 0.29493 0.35156 l -0.0605,0.29492 -0.0586,0.29492 -0.0586,0.29297 -0.11719,0.29492 -0.11719,0.29297 -0.11719,0.29492 -0.11914,0.23438 -0.17578,0.29492 -0.17578,0.23438 -0.23633,0.23632 -0.17578,0.23438 -0.23633,0.17773 -0.23437,0.23438 -0.23633,0.17773 -0.23437,0.17578 -0.29493,0.11719 -0.29296,0.17773 -0.29493,0.11719 -0.23437,0.0586 -0.29492,0.11718 -0.35352,0.0586 -0.29297,0.0586 h -0.29492 -0.29297 -184.11914 -0.29297 -0.35351 l -0.29492,-0.0586 -0.29297,-0.0586 -0.29493,-0.11718 -0.29296,-0.11719 -0.29493,-0.11914 -0.29297,-0.11719 -0.29492,-0.17578 -0.23632,-0.17773 -0.23438,-0.17579 -0.23438,-0.23437 -0.23632,-0.23633 -0.23438,-0.23437 -0.17773,-0.23633 -0.17578,-0.23438 -0.17579,-0.29492 -0.11914,-0.29297 -0.11713,-0.29495 -0.11719,-0.29492 -0.11719,-0.29297 -0.0605,-0.29492 -0.0586,-0.35157 v -0.29492 -0.29492 -136.117192 -0.35351 -0.29297 l 0.0586,-0.29492 0.0605,-0.35157 0.11719,-0.29492 0.11719,-0.29492 0.11718,-0.29297 0.11914,-0.29492 0.17579,-0.23437 0.17578,-0.29493 0.17773,-0.23437 0.23438,-0.23633 0.23632,-0.23437 0.23438,-0.17774 0.23438,-0.23437 0.23632,-0.17579 0.29492,-0.11914 0.29297,-0.17578 0.29493,-0.11718 0.29296,-0.11914 0.29493,-0.0586 0.29297,-0.0586 0.29492,-0.0586 0.35351,-0.0586 h 0.29297 83.0586 0.29492 l 0.29492,-0.0586 h 0.29297 l 0.29492,-0.0586 0.29297,-0.11719 0.29492,-0.0605 0.29492,-0.11719 0.23438,-0.17578 0.29492,-0.11719 0.23437,-0.17773 0.23633,-0.17578 0.23438,-0.17579 0.23632,-0.23632 0.17579,-0.23438 0.23437,-0.17773 0.17774,-0.29297 11.05859,-15.82423 0.23437,-0.23438 0.17774,-0.23632 0.17578,-0.23438 0.23438,-0.23633 0.23632,-0.17578 0.23438,-0.17773 0.29492,-0.17578 0.23438,-0.11719 0.29492,-0.11719 0.23632,-0.11914 0.29297,-0.11719 0.29493,-0.0586 0.29296,-0.0586 0.29493,-0.0586 z M 36.404588,56.964158 h 0.5293 l 0.58984,0.0586 h 0.5293 l 0.52929,0.0586 0.5293,0.11719 0.5293,0.11914 0.58789,0.11719 0.52929,0.11718 0.47071,0.17579 0.52929,0.17773 0.5293,0.17578 0.5293,0.23633 0.4707,0.23437 0.4707,0.23633 0.47071,0.29297 0.4707,0.29492 0.4707,0.29297 0.47071,0.29492 0.41211,0.35352 0.4121,0.35156 0.41016,0.35352 0.41211,0.41211 111.294922,111.353512 0.35157,0.35156 0.35351,0.41211 0.35352,0.41211 0.35351,0.47071 0.29297,0.41211 0.35352,0.4707 0.23437,0.4707 0.29492,0.4707 0.23438,0.5293 0.23633,0.4707 0.23437,0.5293 0.17774,0.4707 0.17578,0.5293 0.17578,0.5293 0.11914,0.5293 0.17578,0.52929 0.0586,0.5293 0.11719,0.5293 0.0586,0.58789 v 0.52929 l 0.0605,0.5293 v 0.58789 0.5293 l -0.0605,0.5293 -0.0586,0.53124 -0.0586,0.5879 -0.11719,0.52929 -0.11719,0.5293 -0.11719,0.5293 -0.17773,0.52929 -0.17578,0.5293 -0.17773,0.5293 -0.17579,0.4707 -0.23437,0.5293 -0.23633,0.4707 -0.29297,0.4707 -0.29492,0.47071 -0.29492,0.4707 -0.29297,0.4707 -0.35352,0.41211 -0.35351,0.41016 -0.35156,0.41211 -0.35352,0.41211 -0.41211,0.41211 -0.41211,0.35351 -0.41016,0.35156 -0.4121,0.35352 -0.41211,0.29492 -0.47071,0.35156 -0.4707,0.29493 -0.4707,0.23437 -0.47071,0.29492 -0.52929,0.23438 -0.47071,0.17773 -0.52929,0.23438 -0.5293,0.17773 -0.5293,0.17578 -0.4707,0.11719 -0.58789,0.17773 -0.5293,0.0586 -0.52929,0.11719 -0.5293,0.0586 -0.5293,0.0586 h -0.58984 l -0.5293,0.0586 H 31.465128 l -0.35351,-0.0586 h -0.29492 l -0.29297,-0.0586 -0.29492,-0.0586 -0.29492,-0.0586 -0.29297,-0.11719 -0.29493,-0.11914 -0.29296,-0.17578 -0.23633,-0.11718 -0.29297,-0.17774 -0.23633,-0.17578 -0.23437,-0.23438 -0.23633,-0.17773 -0.17578,-0.23437 -0.23633,-0.23633 -0.17578,-0.29297 -0.17578,-0.23633 -4.88282,-8.58788 -0.17578,-0.23438 -0.11914,-0.29492 -0.11719,-0.23632 -0.0586,-0.29297 -0.11719,-0.29493 -0.0586,-0.29296 v -0.29493 l -0.0586,-0.23437 v -0.29492 -112.941412 -0.5293 l 0.0586,-0.52929 0.0586,-0.58789 0.0586,-0.5293 0.0586,-0.5293 0.11719,-0.52929 0.11719,-0.5293 0.17773,-0.5293 0.17578,-0.5293 0.17773,-0.53124 0.17579,-0.5293 0.23437,-0.4707 0.23633,-0.46876 0.23437,-0.53124 0.29493,-0.46876 0.29297,-0.4707 0.29492,-0.41211 0.35351,-0.4707 0.35157,-0.41211 0.35351,-0.41211 0.35352,-0.41211 0.41211,-0.41016 0.35156,-0.35351 0.41211,-0.35352 0.4707,-0.35351 0.41211,-0.35156 0.4707,-0.29493 0.41211,-0.29297 0.47071,-0.29492 0.52929,-0.23632 0.47071,-0.29297 0.4707,-0.17579 0.5293,-0.23632 0.52929,-0.17578 0.5293,-0.17774 0.5293,-0.17578 0.52929,-0.11719 0.5293,-0.11719 0.5293,-0.11914 0.52929,-0.0586 0.5293,-0.0586 h 0.58789 z m 9.9414,171.882822 h 0.29493 136.058592 0.29492 l 0.35156,0.0586 h 0.29493 l 0.29297,0.11719 0.29492,0.0586 0.29492,0.11719 0.29297,0.11914 0.29492,0.11719 0.29297,0.17578 0.23633,0.17773 0.29297,0.17578 0.23632,0.23438 0.17578,0.23633 0.23633,0.23437 0.17578,0.23633 0.17579,0.29297 0.17773,0.23633 0.11719,0.29297 0.17578,0.29492 0.0605,0.29492 0.11719,0.29297 0.0586,0.29492 0.0586,0.35351 v 0.29297 l 0.0586,0.35352 v 184.17576 l -0.0586,0.29492 v 0.35157 l -0.0586,0.29492 -0.0586,0.29492 -0.0586,0.29297 -0.11914,0.29492 -0.11719,0.29297 -0.11719,0.23633 -0.17578,0.29297 -0.17773,0.23632 -0.17578,0.23438 -0.17579,0.23633 -0.23632,0.23437 -0.23438,0.23633 -0.23633,0.17578 -0.23437,0.17773 -0.29492,0.17579 -0.23438,0.11718 -0.29492,0.17579 -0.29492,0.11914 -0.29297,0.0586 -0.29492,0.11719 -0.29297,0.0586 h -0.29492 l -0.29492,0.0586 h -0.35157 -0.29492 l -0.29297,-0.0586 -0.29492,-0.0586 -0.29492,-0.0586 -156.175782,-41.88281 -0.35352,-0.11719 -0.29297,-0.0586 -0.23633,-0.17773 -0.29296,-0.11719 -0.29493,-0.17578 -0.23437,-0.17579 -0.23633,-0.17773 -0.23437,-0.23437 -0.23633,-0.17774 -0.23438,-0.29297 -0.17773,-0.23633 -0.17578,-0.23437 -0.11719,-0.29492 -0.17773,-0.29297 -0.11719,-0.23633 -0.11719,-0.29297 -0.0586,-0.35351 -0.0586,-0.29493 -0.0586,-0.29296 -0.0586,-0.29493 v -0.35351 -39.88086 -0.29492 l 0.0586,-0.29492 v -0.29297 l 0.11719,-0.29493 0.0586,-0.29296 0.11719,-0.29493 0.11719,-0.29297 0.11914,-0.23632 0.11718,-0.29492 0.17578,-0.23438 0.17774,-0.23438 0.17578,-0.23632 0.23438,-0.23438 0.23632,-0.23633 0.17578,-0.17578 0.29493,-0.17773 15.82421,-11.11719 0.23438,-0.17578 0.23438,-0.17773 0.23632,-0.23438 0.17578,-0.23438 0.23633,-0.23632 0.17578,-0.23438 0.17579,-0.23633 0.11914,-0.29297 0.11718,-0.23632 0.11719,-0.29492 0.11719,-0.29297 0.0605,-0.29493 0.0586,-0.29296 0.0586,-0.29493 0.0586,-0.29297 v -0.29492 -83.05859 -0.35352 -0.29297 l 0.0586,-0.35351 0.0586,-0.29492 0.11719,-0.29297 0.11914,-0.29492 0.11719,-0.29492 0.11719,-0.29297 0.17578,-0.23633 0.17773,-0.29297 0.17578,-0.23633 0.23633,-0.23437 0.23438,-0.23633 0.23632,-0.23438 0.23438,-0.17578 0.23438,-0.17773 0.29492,-0.17578 0.29492,-0.11719 0.29297,-0.11914 0.29492,-0.11719 0.29297,-0.0586 0.29496,-0.11718 h 0.35352 z"
     style="fill:#212830;fill-opacity:1;stroke:#212830;stroke-width:0.0588235px;stroke-linecap:round;stroke-linejoin:round;stroke-miterlimit:4;stroke-dasharray:none;stroke-opacity:1"
     id="path2805" />
</svg>
