<?xml version="1.0" encoding="UTF-8" standalone="no"?>
<svg
   xmlns:dc="http://purl.org/dc/elements/1.1/"
   xmlns:cc="http://creativecommons.org/ns#"
   xmlns:rdf="http://www.w3.org/1999/02/22-rdf-syntax-ns#"
   xmlns:svg="http://www.w3.org/2000/svg"
   xmlns="http://www.w3.org/2000/svg"
   id="svg419"
   height="175mm"
   width="175mm"
   version="1.0">
  <metadata
     id="metadata423">
    <rdf:RDF>
      <cc:Work
         rdf:about="">
        <dc:format>image/svg+xml</dc:format>
        <dc:type
           rdf:resource="http://purl.org/dc/dcmitype/StillImage" />
        <dc:title></dc:title>
      </cc:Work>
    </rdf:RDF>
  </metadata>
  <defs
     id="defs3" />
  <path
     id="path417"
     d="M 599.35571,95.855772 H 484.47339 l -16.2353,16.176468 v 72.88235 H 193.12045 V 112.03224 L 176.94397,95.855772 H 62.002803 v 401.647058 0.58824 l -0.0588,0.52941 v 0.58823 l -0.11764,0.58824 -0.0588,0.52941 -0.11764,0.58823 -0.11765,0.52942 -0.17647,0.52941 -0.11765,0.52941 -0.17647,0.52941 -0.23529,0.52941 -0.2353,0.52942 -0.23529,0.52941 -0.23529,0.52941 -0.29412,0.47059 -0.29412,0.47059 -0.29412,0.47058 -0.29412,0.47059 -0.35294,0.47059 -0.35294,0.41176 -0.41176,0.41177 -0.35294,0.47059 -0.41177,0.35294 -0.41176,0.41176 -0.41177,0.35294 -0.47059,0.35295 -0.41176,0.35294 -0.47059,0.35294 -0.47059,0.29412 -0.47059,0.29411 -0.52941,0.2353 -0.47059,0.29412 -0.52941,0.23529 -0.52941,0.23529 -0.52941,0.17647 -0.52941,0.17647 -0.52941,0.17648 -0.52942,0.11764 -0.58823,0.17647 -0.52941,0.0588 -0.58824,0.11764 -0.52941,0.0588 -0.58824,0.0588 h -0.52941 l -0.58823,0.0588 H 0.5322123 v 51.82353 H 49.061623 v -8.11764 H 178.53221 v 8.11764 h 48.58824 v -51.82353 h -34 v -32.41176 h 275.11764 v 32.41176 h -33.94117 v 51.82353 h 48.52941 v -8.11764 h 129.47058 v 8.11764 h 48.5882 v -51.82343 h -45.3529 l -0.5294,-0.0588 h -0.5882 l -0.5295,-0.0588 -0.5882,-0.0588 -0.5294,-0.11764 -0.5882,-0.0588 -0.5295,-0.17647 -0.5882,-0.11764 -0.5294,-0.17648 -0.5294,-0.17647 -0.5294,-0.17647 -0.5294,-0.23529 -0.4706,-0.23529 -0.5294,-0.29412 -0.4706,-0.2353 -0.4706,-0.29411 -0.5294,-0.29412 -0.4118,-0.35294 -0.4706,-0.35294 -0.4706,-0.35295 -0.4117,-0.35294 -0.4118,-0.41176 -0.4118,-0.35294 -0.3529,-0.47059 -0.3529,-0.41177 -0.353,-0.41176 -0.3529,-0.47059 -0.353,-0.47059 -0.2941,-0.47058 -0.2941,-0.47059 -0.2941,-0.47059 -0.2353,-0.52941 -0.2353,-0.52941 -0.2353,-0.52942 -0.1765,-0.52941 -0.1764,-0.52941 -0.1765,-0.52941 -0.1765,-0.52941 -0.1176,-0.52942 -0.1177,-0.58823 -0.059,-0.52941 -0.059,-0.58824 -0.059,-0.58823 -0.059,-0.52941 v -0.58834 z"
     style="fill:#212830;fill-opacity:1;stroke:#212830;stroke-width:0.0588235px;stroke-linecap:round;stroke-linejoin:round;stroke-miterlimit:4;stroke-dasharray:none;stroke-opacity:1" />
</svg>
