<?xml version="1.0" encoding="UTF-8" standalone="no"?>
<svg
   xmlns:dc="http://purl.org/dc/elements/1.1/"
   xmlns:cc="http://creativecommons.org/ns#"
   xmlns:rdf="http://www.w3.org/1999/02/22-rdf-syntax-ns#"
   xmlns:svg="http://www.w3.org/2000/svg"
   xmlns="http://www.w3.org/2000/svg"
   id="svg1311"
   height="112mm"
   width="112mm"
   version="1.0">
  <metadata
     id="metadata1315">
    <rdf:RDF>
      <cc:Work
         rdf:about="">
        <dc:format>image/svg+xml</dc:format>
        <dc:type
           rdf:resource="http://purl.org/dc/dcmitype/StillImage" />
        <dc:title></dc:title>
      </cc:Work>
    </rdf:RDF>
  </metadata>
  <defs
     id="defs3" />
  <path
     d="m 359.47679,1.0060642 -0.64649,0.0605 -0.58789,0.17578 -0.58984,0.23438 -0.5293,0.35351 -0.41016,0.47071 -0.35351,0.4707 -0.29492,0.58789 -0.17578,0.58789 -0.0586,0.64844 V 16.888834 l 0.0586,0.41211 0.11718,0.41211 0.23633,0.35351 0.23438,0.35156 0.35351,0.23633 0.35157,0.23438 0.4121,0.11719 h 0.41211 2.88282 0.41211 l 0.35156,-0.11719 0.35351,-0.11719 0.29493,-0.23438 0.23437,-0.29492 0.23633,-0.29492 0.17578,-0.35156 0.0586,-0.35352 0.0586,-0.35351 v -6.5293 h 10.82422 v 43.29492 h -10.82422 v -6.4707 l -0.0586,-0.41207 -0.0586,-0.35352 -0.17578,-0.35156 -0.23633,-0.29492 -0.23437,-0.23438 -0.29493,-0.23632 -0.35351,-0.17578 -0.35156,-0.0586 -0.41211,-0.0605 h -2.88282 l -0.35351,0.0605 -0.35156,0.0586 -0.35352,0.17578 -0.29492,0.23632 -0.29297,0.23438 -0.23633,0.29492 -0.11719,0.35156 -0.11718,0.35352 -0.0586,0.41211 v 12.23437 l 0.0586,0.64844 0.17578,0.58789 0.29492,0.58789 0.35351,0.5293 0.41016,0.41211 0.5293,0.35351 0.58984,0.29297 0.58789,0.17579 0.64649,0.0605 h 12.23632 V 169.83023 h -32.4121 v -31.05855 h 1.4121 0.35157 l 0.41211,-0.11719 0.29492,-0.17773 0.35156,-0.17578 0.23633,-0.29492 0.23437,-0.29297 0.17774,-0.35352 0.0586,-0.35351 0.0586,-0.35157 v -5.05859 l -0.0586,-0.41211 -0.0586,-0.35352 -0.17774,-0.35351 -0.23437,-0.29297 -0.23633,-0.23633 -0.35156,-0.23437 -0.29492,-0.17579 -0.41211,-0.0605 -0.35157,-0.0586 h -26.64843 l -0.47071,0.0586 -0.4121,0.11914 -0.35157,0.17578 -0.29492,0.29492 -0.29297,0.29297 -0.17773,0.41211 -0.17578,0.41211 v 0.41211 5.05859 0.41211 l 0.17578,0.41016 0.17773,0.35351 0.29297,0.35352 0.29492,0.23437 0.35157,0.23633 0.4121,0.11719 h 0.47071 15.82422 v 21.64648 h -15.82422 l -0.47071,0.0586 -0.4121,0.11914 -0.35157,0.23437 -0.29492,0.23633 -0.29297,0.35156 -0.17773,0.35352 -0.17578,0.41211 v 0.41211 7.23437 H 201.53538 v -7.23437 -0.35352 l -0.11719,-0.35351 -0.17578,-0.35157 -0.17773,-0.35351 -0.29297,-0.23633 -0.29492,-0.23437 -0.35352,-0.11719 -0.35156,-0.11914 -0.35352,-0.0586 h -15.88281 v -21.64652 h 15.88281 0.35352 l 0.35156,-0.11719 0.35352,-0.17773 0.29492,-0.17578 0.29297,-0.29492 0.17773,-0.29297 0.17578,-0.35352 0.11719,-0.35351 v -0.35157 -5.05859 -0.41211 l -0.11719,-0.35352 -0.17578,-0.35351 -0.17773,-0.29297 -0.29297,-0.23633 -0.29492,-0.23437 -0.35352,-0.17579 -0.35156,-0.0605 -0.35352,-0.0586 h -23.11718 l -0.41211,0.0586 -0.41211,0.11914 -0.35352,0.17578 -0.35156,0.29492 -0.23633,0.29297 -0.23437,0.41211 -0.11914,0.41211 v 0.41211 38.23437 h -72.11719 v -38.23437 l -0.0586,-0.41211 -0.0586,-0.35352 -0.17578,-0.35351 -0.23633,-0.29297 -0.23437,-0.23633 -0.29493,-0.23437 -0.35351,-0.17579 -0.35156,-0.0605 -0.412106,-0.0586 h -5.0586 l -0.35351,0.0586 -0.35352,0.0605 -0.35156,0.17579 -0.29492,0.23437 -0.29492,0.23633 -0.17579,0.29297 -0.17578,0.35351 -0.11719,0.35352 v 0.41211 93.76367 h -41.11914 l -5.23437,-11.70508 -0.23633,-0.35351 -0.23437,-0.29492 -0.35352,-0.29297 -0.35351,-0.17579 -0.41016,-0.11914 -0.41211,-0.0586 -0.41211,0.0586 -0.41211,0.11914 -0.35351,0.23438 -0.35157,0.23438 -0.23633,0.35351 -0.23437,0.35352 -0.11719,0.41211 v 0.4121 164.5293 l 0.64649,7.4707 1.9414,7.29297 3.17578,6.88282 4.35352,6.17578 5.29297,5.29492 6.17773,4.35351 6.82227,3.17579 7.29492,1.9414 7.5293,0.64649 h 28.824226 0.64648 l 0.58789,-0.17578 0.58789,-0.29493 0.5293,-0.35351 0.41211,-0.41016 0.35351,-0.5293 0.29492,-0.58984 0.17579,-0.58789 0.0586,-0.64648 V 406.4768 l -0.0586,-0.41016 -0.11719,-0.35351 -0.11914,-0.35352 -0.23438,-0.29297 -0.29492,-0.29492 -0.29297,-0.17578 -0.35351,-0.17774 -0.35352,-0.11718 h -0.35156 -2.88281 -0.41211 l -0.35352,0.11718 -0.35156,0.17774 -0.29492,0.17578 -0.23438,0.29492 -0.23633,0.29297 -0.17578,0.35352 -0.0586,0.35351 -0.0586,0.41016 v 6.4707 H 99.888894 V 369.65453 H 110.7131 v 6.5293 l 0.0586,0.35351 0.0586,0.35157 0.17578,0.35351 0.23633,0.29492 0.23438,0.29297 0.29492,0.17579 0.35156,0.17773 0.35352,0.11719 h 0.41211 2.88281 0.35156 l 0.35352,-0.11719 0.35351,-0.17773 0.29297,-0.17579 0.29492,-0.29297 0.23438,-0.29492 0.11914,-0.35351 0.11719,-0.35157 0.0586,-0.35351 v -12.29492 l -0.0586,-0.64649 -0.17579,-0.58789 -0.29492,-0.58789 -0.35351,-0.4707 -0.41211,-0.4707 -0.5293,-0.35356 -0.58789,-0.29492 -0.58789,-0.11719 -0.64648,-0.0586 H 96.301014 l -0.64844,0.0586 -0.58789,0.11719 -0.58789,0.29492 -0.5293,0.35352 -0.41211,0.4707 -0.35351,0.4707 -0.29297,0.58789 -0.11719,0.58789 -0.0586,0.64649 v 49.05859 h -7.23632 l -5.88282,-0.5293 -5.70507,-1.52929 -5.35352,-2.47071 -4.82227,-3.4121 -4.17773,-4.17579 -3.41211,-4.82421 -2.4707,-5.35157 -1.5293,-5.70703 -0.5293,-5.88086 V 238.35957 l 0.0586,-0.64648 0.17773,-0.58789 0.23438,-0.5879 0.35351,-0.4707 0.47071,-0.4707 0.52929,-0.35352 0.5293,-0.29492 0.64648,-0.11719 0.5879,-0.0586 h 33.88281 l 0.64843,0.0586 0.5879,0.11719 0.58789,0.29492 0.52929,0.35352 0.41211,0.4707 0.35157,0.4707 0.29492,0.5879 0.17578,0.58789 0.0605,0.64648 v 50.4707 l 0.0586,0.64649 0.11719,0.58984 0.29297,0.58789 0.35351,0.5293 0.41211,0.41211 0.5293,0.41016 0.58789,0.23632 0.58789,0.17578 0.64844,0.0586 h 86.529286 v 18 l 0.0586,0.64844 0.11718,0.58789 0.29493,0.58789 0.35156,0.52929 0.4707,0.41211 0.4707,0.41211 0.5879,0.23438 0.58984,0.17773 0.64648,0.0586 h 23.0586 l 0.41211,-0.0586 0.35351,-0.0605 0.35156,-0.17579 0.29493,-0.23437 0.23437,-0.23633 0.23633,-0.35351 0.17578,-0.29297 0.0586,-0.41211 0.0586,-0.35352 v -6.4707 l -0.0586,-0.41016 -0.0586,-0.35351 -0.17578,-0.35352 -0.23633,-0.29297 -0.23437,-0.29492 -0.29493,-0.17578 -0.35156,-0.17774 -0.35351,-0.11718 h -0.41211 -5.0586 L 193.65253,292.4768 h 75.5293 l 0.4121,-0.0586 0.35352,-0.0586 0.35352,-0.17578 0.29296,-0.23633 0.23633,-0.23437 0.23438,-0.35352 0.23633,-0.29297 0.293,-0.29495 0.35352,-0.23438 0.35352,-0.11914 0.4121,-0.11718 h 0.41016 l 0.41211,0.11718 0.41211,0.11914 0.35352,0.23438 0.29296,0.29492 0.23633,0.29297 0.17578,0.35352 0.29493,0.23437 0.29296,0.23633 0.35352,0.17578 0.35352,0.0586 0.4121,0.0586 h 95 v 14.41211 h -13.70703 l -0.35351,0.0586 -0.35156,0.0586 -0.35352,0.17773 -0.29492,0.23437 -0.29297,0.23633 -0.23633,0.35157 -0.11719,0.29492 -0.11718,0.41211 -0.0586,0.35351 v 10.11719 l 0.0586,0.35351 0.11718,0.35157 0.11719,0.35351 0.23633,0.29492 0.29297,0.29297 0.29492,0.17579 0.35352,0.17773 0.35156,0.11719 h 0.35351 19.47071 l 0.64648,-0.0586 0.58984,-0.11718 0.5879,-0.29493 0.52929,-0.35351 0.41211,-0.41016 0.35156,-0.5293 0.29493,-0.58984 0.11718,-0.58789 0.0586,-0.64648 V 4.5959042 l -0.0586,-0.64844 -0.11718,-0.58789 -0.29493,-0.58789 -0.35156,-0.4707 -0.41211,-0.47071 -0.52929,-0.35351 -0.5879,-0.23438 -0.58984,-0.17578 -0.64648,-0.0605 z M 102.06468,179.18379 H 371.71311 V 283.0666 H 102.06468 Z"
     style="fill:#000000;fill-opacity:1;stroke:#212830;stroke-width:0.0588235px;stroke-linecap:round;stroke-linejoin:round;stroke-miterlimit:4;stroke-dasharray:none;stroke-opacity:1"
     id="path1309" />
</svg>
