<?xml version="1.0" encoding="UTF-8" standalone="no"?>
<svg
   xmlns:dc="http://purl.org/dc/elements/1.1/"
   xmlns:cc="http://creativecommons.org/ns#"
   xmlns:rdf="http://www.w3.org/1999/02/22-rdf-syntax-ns#"
   xmlns:svg="http://www.w3.org/2000/svg"
   xmlns="http://www.w3.org/2000/svg"
   id="svg667"
   height="94mm"
   width="94mm"
   version="1.0">
  <metadata
     id="metadata671">
    <rdf:RDF>
      <cc:Work
         rdf:about="">
        <dc:format>image/svg+xml</dc:format>
        <dc:type
           rdf:resource="http://purl.org/dc/dcmitype/StillImage" />
        <dc:title></dc:title>
      </cc:Work>
    </rdf:RDF>
  </metadata>
  <defs
     id="defs3" />
  <path
     d="m 116.93235,0.72666116 -0.2344,0.0586 -0.2363,0.11718 -0.1758,0.17578004 -0.1758,0.17774 -0.1777,0.17578 -0.1172,0.23438 -0.059,0.29492 v 0.23632 7.9394598 0.17773 l 0.059,0.11719 0.059,0.17578 0.059,0.11914 0.1172,0.11719 0.1191,0.0586 0.1758,0.0586 0.1172,0.0586 h 0.1777 4.1172 0.1172 l 0.1758,-0.0586 0.1191,-0.0586 0.1758,-0.0586 0.059,-0.11719 0.1172,-0.11914 0.061,-0.17578 0.059,-0.11719 v -0.17773 -5.5878898 h 5.8809 v 38.5292898 0.17774 l 0.061,0.17578 0.1172,0.17578 0.1172,0.11914 1.1758,1.23438 -1.1758,1.17578 -0.1172,0.11914 -0.059,0.11719 -0.059,0.11718 -0.061,0.17579 v 0.11914 30.58789 l -4.4102,-4.41211 v -2.0586 -0.17578 l -0.061,-0.11914 -0.059,-0.17578 -0.1172,-0.11719 -0.059,-0.11719 -0.1758,-0.0605 -0.1191,-0.0586 -0.1172,-0.0586 h -0.1758 -2.6465 -0.1777 l -0.1758,0.0586 -0.1777,0.0586 -0.1172,0.11914 -0.1172,0.17574 -0.059,0.11719 -0.059,0.17773 v 0.17578 15.94141 0.17578 l 0.059,0.11719 0.059,0.17773 0.1172,0.11719 0.1172,0.11719 0.1777,0.0586 0.1758,0.0586 0.1777,0.0605 h 1.1758 l 0.1172,-0.0605 h 0.1758 l 0.1191,-0.0586 0.1758,-0.11719 0.059,-0.11718 0.1172,-0.11719 0.061,-0.11914 0.059,-0.17578 v -0.11719 -5.05859 h 5.8809 v 33.058589 h -5.8809 v -5.58789 -0.17774 l -0.059,-0.17578 -0.061,-0.11718 -0.1172,-0.11914 -0.059,-0.11719 -0.1758,-0.0586 -0.1191,-0.11718 h -0.1758 -0.1172 -4.1172 -0.1777 -0.1172 l -0.1758,0.11718 -0.1191,0.0586 -0.1172,0.11719 -0.059,0.11914 -0.059,0.11718 -0.059,0.17578 v 0.17774 243.82226 0.29493 l 0.059,0.23437 0.1172,0.23633 0.1777,0.17578 0.1758,0.17773 0.1758,0.17579 0.2363,0.11718 0.2344,0.0586 h 0.2949 120.82229 0.2363 l 0.2344,-0.0586 0.2363,-0.11718 0.2344,-0.17579 0.1777,-0.17773 0.1172,-0.17578 0.1172,-0.23633 0.059,-0.23437 0.059,-0.29493 v -243.82226 -0.17774 l -0.059,-0.17578 -0.059,-0.11718 -0.1172,-0.11914 -0.1172,-0.11719 -0.1191,-0.0586 -0.1172,-0.11718 h -0.1758 -0.1172 -4.1191 -0.1758 -0.1758 l -0.1191,0.11718 -0.1172,0.0586 -0.1172,0.11719 -0.059,0.11914 -0.059,0.11718 -0.059,0.17578 v 0.17774 5.58789 h -5.9414 V 81.785271 h 5.9414 v 5.05859 0.17578 l 0.059,0.11719 0.059,0.17773 0.1172,0.11719 0.1172,0.11719 0.1777,0.0586 0.1758,0.0586 0.1758,0.0605 h 1.1777 l 0.1172,-0.0605 h 0.1758 l 0.1191,-0.0586 0.1172,-0.11719 0.1172,-0.11718 0.1172,-0.11719 0.059,-0.11914 v -0.17578 l 0.061,-0.11719 v -15.94143 l -0.061,-0.17578 v -0.11914 l -0.059,-0.17578 -0.1172,-0.11719 -0.1172,-0.11719 -0.1172,-0.0605 -0.1191,-0.0586 -0.1758,-0.0586 h -0.1172 -2.6484 -0.1758 l -0.1758,0.0586 -0.1172,0.0586 -0.1191,0.0605 -0.1172,0.11719 -0.059,0.11719 -0.1172,0.17578 v 0.11914 0.17578 2.0586 l -4.4707,4.41211 v -30.58789 -0.11914 -0.17579 l -0.059,-0.11718 -0.059,-0.11719 -0.1191,-0.11914 -1.2344,-1.17578 1.2344,-1.23438 0.1191,-0.11914 0.059,-0.17578 0.059,-0.17578 V 43.078221 4.5489312 h 5.9414 v 5.5878898 0.17773 l 0.059,0.17578 0.059,0.17579 0.1172,0.11914 0.1172,0.11718 0.1777,0.0586 0.1758,0.0586 h 0.1758 4.1191 0.1172 l 0.1758,-0.0586 0.1172,-0.0586 0.1191,-0.0586 0.1172,-0.11719 0.1172,-0.11914 0.059,-0.17578 0.059,-0.11719 v -0.17773 -7.9394598 l -0.059,-0.23632 -0.059,-0.29492 -0.1172,-0.23438 -0.1172,-0.17578 -0.1777,-0.17774 -0.2344,-0.17578004 -0.2363,-0.11718 -0.2344,-0.0586 h -0.2363 -120.82229 z m 14.4121,3.82227004 h 92.52929 V 114.84385 H 131.34445 Z M 120.16865,118.66612 H 235.11004 V 347.19736 H 120.16865 Z"
     style="fill:#212830;fill-opacity:1;stroke:#212830;stroke-width:0.0588235px;stroke-linecap:round;stroke-linejoin:round;stroke-miterlimit:4;stroke-dasharray:none;stroke-opacity:1"
     id="path661" />
</svg>
