<?xml version="1.0" encoding="UTF-8" standalone="no"?>
<svg
   xmlns:dc="http://purl.org/dc/elements/1.1/"
   xmlns:cc="http://creativecommons.org/ns#"
   xmlns:rdf="http://www.w3.org/1999/02/22-rdf-syntax-ns#"
   xmlns:svg="http://www.w3.org/2000/svg"
   xmlns="http://www.w3.org/2000/svg"
   id="svg671"
   height="121mm"
   width="121mm"
   version="1.0">
  <metadata
     id="metadata675">
    <rdf:RDF>
      <cc:Work
         rdf:about="">
        <dc:format>image/svg+xml</dc:format>
        <dc:type
           rdf:resource="http://purl.org/dc/dcmitype/StillImage" />
        <dc:title></dc:title>
      </cc:Work>
    </rdf:RDF>
  </metadata>
  <defs
     id="defs3" />
  <path
     d="m 135.60307,1.5149332 -0.4102,0.0586 -0.3535,0.0586 -0.3535,0.17578 -0.3516,0.23633 -0.2949,0.29297 -0.1758,0.29492 -0.1777,0.41211 -0.1172,0.35156 -0.059,0.41211 V 16.044243 l 0.059,0.23437 0.059,0.23633 0.059,0.23438 0.1777,0.17578 0.1758,0.17773 0.1758,0.11719 0.2363,0.11719 0.1758,0.0586 h 0.2949 6.3516 0.2363 l 0.1758,-0.0586 0.2363,-0.11719 0.1758,-0.11719 0.1758,-0.17773 0.1777,-0.17578 0.059,-0.23438 0.059,-0.23633 0.059,-0.23437 V 7.4544032 h 9.0586 V 66.807913 l 0.059,0.29492 0.059,0.23438 0.1191,0.23633 0.1758,0.23437 1.8828,1.88281 -1.8828,1.82422 -0.1758,0.17578 -0.059,0.17578 -0.1191,0.23633 -0.059,0.17578 v 0.23633 47.117187 l -6.8223,-6.82422 v -3.17578 -0.23633 l -0.061,-0.23437 -0.1172,-0.17579 -0.1172,-0.23632 -0.1758,-0.17578 -0.1777,-0.11914 -0.2344,-0.11719 -0.2363,-0.0586 h -0.2344 -4.0586 -0.2949 l -0.2344,0.11719 -0.2363,0.11914 -0.2344,0.17578 -0.1777,0.17578 -0.1172,0.23633 -0.059,0.29297 v 0.23633 24.5293 0.29297 l 0.059,0.23632 0.1172,0.23438 0.1777,0.23633 0.2344,0.11718 0.2363,0.17579 0.2344,0.0605 h 0.2949 1.8223 0.2363 l 0.1758,-0.0605 0.2363,-0.11719 0.1758,-0.11719 0.1758,-0.17578 0.1777,-0.17774 0.059,-0.23437 0.059,-0.23633 0.059,-0.23437 v -7.70703 h 9.0586 v 50.88281 h -9.0586 v -8.6465 l -0.0613,-0.23632 -0.0586,-0.23438 -0.059,-0.23438 -0.1777,-0.17773 -0.1758,-0.17578 -0.1758,-0.11719 -0.2363,-0.11914 -0.1758,-0.0586 h -0.2363 -6.3516 -0.2949 l -0.1758,0.0586 -0.2363,0.11914 -0.1758,0.11719 -0.1758,0.17578 -0.1777,0.17773 -0.059,0.23438 -0.059,0.23438 -0.059,0.23632 v 284.82422 l 0.059,0.41016 0.1172,0.35351 0.1777,0.35352 0.1758,0.35351 0.2949,0.29297 0.3516,0.23633 0.3535,0.11719 0.3535,0.11719 0.4102,0.0586 h 186.1191 l 0.4121,-0.0586 0.3516,-0.11719 0.4121,-0.11719 0.2949,-0.23633 0.293,-0.29297 0.2363,-0.35351 0.1172,-0.35352 0.1172,-0.35351 0.059,-0.41016 V 168.69071 l -0.059,-0.23632 -0.059,-0.23438 -0.059,-0.23438 -0.1758,-0.17773 -0.1191,-0.17578 -0.2344,-0.11719 -0.1758,-0.11914 -0.2363,-0.0586 h -0.2344 -6.3535 -0.2363 l -0.2344,0.0586 -0.2363,0.11914 -0.1758,0.11719 -0.1758,0.17578 -0.1172,0.17773 -0.1191,0.23438 -0.059,0.23438 -0.059,0.23632 v 8.64649 h -9.0586 v -50.88281 h 9.0586 v 7.70703 l 0.059,0.29297 0.059,0.23632 0.1191,0.23438 0.1758,0.23633 0.2344,0.11718 0.2363,0.17579 0.2344,0.0605 h 0.2949 1.7637 0.2363 l 0.2344,-0.0605 0.2363,-0.11719 0.1758,-0.11719 0.1777,-0.17578 0.1758,-0.17774 0.059,-0.23437 0.059,-0.23633 0.059,-0.23437 v -24.5293 l -0.059,-0.23633 -0.059,-0.23437 -0.059,-0.17579 -0.1758,-0.23632 -0.1777,-0.17578 -0.1758,-0.11914 -0.2363,-0.11719 -0.2344,-0.0586 h -0.2363 -4.0586 -0.2344 l -0.2363,0.0586 -0.2344,0.11719 -0.1758,0.11914 -0.1777,0.17578 -0.1172,0.23632 -0.1172,0.17579 -0.059,0.23437 v 0.23633 3.17578 l -6.8242,6.82422 v -47.117187 -0.23633 l -0.059,-0.17578 -0.059,-0.23633 -0.1191,-0.17578 -0.1758,-0.17578 -1.8242,-1.82422 1.8242,-1.88281 0.1758,-0.23437 0.1191,-0.23633 0.1172,-0.23438 V 66.807903 7.4543932 h 9.0586 v 8.5898398 l 0.059,0.29297 0.059,0.23633 0.1191,0.23437 0.1758,0.23633 0.2344,0.17578 0.2363,0.11719 0.2344,0.0586 h 0.2949 6.3535 0.2344 l 0.2363,-0.0586 0.1758,-0.11719 0.2344,-0.11719 0.1191,-0.17773 0.1758,-0.17578 0.059,-0.23438 0.059,-0.23633 0.059,-0.23437 V 3.8079032 l -0.059,-0.41211 -0.1172,-0.35156 -0.1172,-0.41211 -0.2363,-0.29492 -0.293,-0.29297 -0.2949,-0.23633 -0.4121,-0.17578 -0.3516,-0.0586 -0.4121,-0.0586 z m 21.7656,5.93946 h 142.5879 V 177.3372 H 157.36867 Z M 140.13427,183.22001 h 177.0586 v 261.23438 h -177.0586 z"
     style="fill:#212830;fill-opacity:1;stroke:#212830;stroke-width:0.0588235px;stroke-linecap:round;stroke-linejoin:round;stroke-miterlimit:4;stroke-dasharray:none;stroke-opacity:1"
     id="path669" />
</svg>
