<?xml version="1.0" encoding="UTF-8" standalone="no"?>
<svg
   xmlns:dc="http://purl.org/dc/elements/1.1/"
   xmlns:cc="http://creativecommons.org/ns#"
   xmlns:rdf="http://www.w3.org/1999/02/22-rdf-syntax-ns#"
   xmlns:svg="http://www.w3.org/2000/svg"
   xmlns="http://www.w3.org/2000/svg"
   id="svg399"
   height="104mm"
   width="104mm"
   version="1.0">
  <metadata
     id="metadata403">
    <rdf:RDF>
      <cc:Work
         rdf:about="">
        <dc:format>image/svg+xml</dc:format>
        <dc:type
           rdf:resource="http://purl.org/dc/dcmitype/StillImage" />
        <dc:title></dc:title>
      </cc:Work>
    </rdf:RDF>
  </metadata>
  <defs
     id="defs3" />
  <path
     id="path397"
     d="m 323.50591,257.50602 v 67.05882 l 0.1177,1.05883 0.2941,1.05882 0.4706,1 0.6471,0.88235 0.7647,0.70589 0.9411,0.58823 1,0.41177 1.0589,0.23529 1.0588,0.0588 1.0588,-0.17647 1.0588,-0.35294 0.9412,-0.52941 0.8235,-0.70588 11.5295,-11.52941 0.5294,-0.64706 0.4117,-0.70588 0.2353,-0.76471 0.1765,-0.76471 v -0.82353 l -0.1765,-0.7647 -0.2353,-0.76471 -0.4117,-0.70588 -0.5294,-0.58824 -6.353,-6.35294 v -35.11764 l 48.8824,4.29411 h 0.8235 l 0.8235,-0.17647 0.8236,-0.29411 0.7058,-0.47059 0.6471,-0.58824 0.4706,-0.64706 0.4117,-0.7647 0.2353,-0.82353 0.059,-0.88235 V 65.623669 l -0.1177,-1.35294 -0.3529,-1.29412 -0.5883,-1.17647 -0.7647,-1.11765 -0.9411,-0.94118 -1.1177,-0.7647 -1.1765,-0.58824 -1.2941,-0.35294 -1.3529,-0.11764 H 7.976549 l -1.35295,0.11764 -1.29411,0.35294 -1.17647,0.58824 -1.11765,0.7647 -0.94118,0.94118 -0.7647,1.11765 -0.58824006,1.17647 -0.35294,1.29412 -0.11765,1.35294 0.11765,1.35294 0.35294,1.29412 0.58824006,1.23529 0.7647,1.05882 0.94118,0.94118 1.11765,0.76471 1.17647,0.58823 1.29411,0.35294 1.35295,0.11765 h 3.82352 V 240.85896 l 0.0588,0.70588 0.17647,0.70589 0.29412,0.64706 0.35294,0.64705 0.47059,0.52942 34.82353,34.82353 -30.88236,44.11764 -0.7647,1.35294 -0.47059,1.41177 -0.17647,1.52941 0.11764,1.47059 0.41177,1.47059 0.64706,1.35294 0.94117,1.17647 1.17648,1 1.29411,0.70588 1.41177,0.47059 1.52941,0.17647 1.47059,-0.11765 1.47059,-0.41176 1.35294,-0.64706 1.17647,-0.94118 1,-1.17647 36.05885,-51.52941 0.41177,-0.70588 0.29411,-0.76471 0.11765,-0.7647 v -0.82353 l -0.11765,-0.76471 -0.29411,-0.76471 -0.41177,-0.70588 -0.52941,-0.64706 -38,-38 V 73.329549 H 377.38831 V 257.15308 l -48.8235,-4.23529 h -0.8824 l -0.8235,0.11764 -0.7647,0.35294 -0.7647,0.41177 -0.5883,0.58823 -0.5294,0.70589 -0.3529,0.7647 -0.2353,0.82353 z"
     style="fill:#212830;fill-opacity:1;stroke:#212830;stroke-width:0.0588235px;stroke-linecap:round;stroke-linejoin:round;stroke-miterlimit:4;stroke-dasharray:none;stroke-opacity:1" />
</svg>
