<?xml version="1.0" encoding="UTF-8" standalone="no"?>
<svg
   xmlns:dc="http://purl.org/dc/elements/1.1/"
   xmlns:cc="http://creativecommons.org/ns#"
   xmlns:rdf="http://www.w3.org/1999/02/22-rdf-syntax-ns#"
   xmlns:svg="http://www.w3.org/2000/svg"
   xmlns="http://www.w3.org/2000/svg"
   id="svg975"
   height="114mm"
   width="114mm"
   version="1.0">
  <metadata
     id="metadata979">
    <rdf:RDF>
      <cc:Work
         rdf:about="">
        <dc:format>image/svg+xml</dc:format>
        <dc:type
           rdf:resource="http://purl.org/dc/dcmitype/StillImage" />
        <dc:title></dc:title>
      </cc:Work>
    </rdf:RDF>
  </metadata>
  <defs
     id="defs3" />
  <path
     d="m 164.19777,1.9037667 -0.3516,0.0586 -0.3535,0.0605 -0.3535,0.17578 -0.293,0.23438 -0.2949,0.23633 -0.1758,0.2929701 -0.1777,0.35351 -0.1172,0.35352 v 0.35351 11.5293002 0.23437 l 0.059,0.23633 0.1172,0.17578 0.1191,0.17578 0.1758,0.17774 0.1758,0.11719 0.1777,0.11718 0.2344,0.0586 h 0.2363 5.9414 0.2344 l 0.2363,-0.0586 0.1758,-0.11718 0.1758,-0.11719 0.1777,-0.17774 0.1172,-0.17578 0.1172,-0.17578 0.059,-0.23633 v -0.23437 -8.1191402 h 8.5293 V 63.315837 l 0.059,0.23633 0.059,0.23437 0.1191,0.23633 0.1172,0.17578 1.7637,1.76368 -1.7637,1.76562 -0.1172,0.17578 -0.1191,0.17774 -0.059,0.17578 -0.059,0.17578 v 0.17773 44.351563 l -6.4121,-6.41016 v -3 -0.23633 l -0.059,-0.17578 -0.1172,-0.23633 -0.1172,-0.17578 -0.1777,-0.17578 -0.1758,-0.11914 -0.1758,-0.0586 -0.2363,-0.0586 -0.2344,-0.0586 h -3.8242 l -0.2344,0.0586 -0.2363,0.0586 -0.2344,0.11914 -0.1777,0.17579 -0.1758,0.17578 -0.1172,0.23633 -0.059,0.23437 -0.059,0.23633 v 13.64648 l 0.059,0.41211 0.1172,0.35157 0.1172,0.29492 0.2363,0.35351 0.2344,0.23438 0.3535,0.23633 0.293,0.11718 0.3535,0.11719 0.4121,0.0586 h 10.6465 v 47.82425 h -40.1172 v -7.29492 l -0.059,-0.35156 -0.059,-0.35352 -0.1777,-0.35351 -0.1758,-0.29297 -0.2949,-0.23633 -0.293,-0.23437 -0.3535,-0.17774 -0.3535,-0.0586 -0.3516,-0.0586 h -7.2949 l -0.2344,0.0586 -0.2363,0.0586 -0.2344,0.11914 -0.1777,0.11719 -0.1758,0.23437 -0.1172,0.23633 -0.059,0.23438 v 0.23633 1.70507 0.23633 l 0.059,0.23438 0.1172,0.23632 0.1758,0.17579 0.1777,0.17578 0.2344,0.11719 0.2363,0.0605 0.2344,0.0586 h 3.8828 v 6.4121 h -25.6465 v -6.4121 h 3.8809 l 0.1777,-0.0586 0.2344,-0.0605 0.2363,-0.0586 0.1758,-0.11719 0.1172,-0.17578 0.1777,-0.17773 0.059,-0.23438 0.059,-0.17578 v -0.23633 -1.70507 -0.23633 l -0.059,-0.23438 -0.059,-0.17773 -0.1777,-0.17578 -0.1172,-0.17578 -0.1758,-0.11914 -0.2363,-0.11719 -0.2344,-0.0586 h -0.1777 -7.293 l -0.3535,0.0586 -0.3535,0.0586 -0.3516,0.17774 -0.2949,0.23437 -0.2344,0.23633 -0.2363,0.29297 -0.1758,0.35351 -0.059,0.35352 -0.059,0.35156 v 266.94141 l 0.059,0.35351 0.059,0.41211 0.1758,0.29297 0.2363,0.29492 0.2344,0.29492 0.2949,0.23438 0.3516,0.11719 0.3535,0.11719 h 0.3535 221.9414 0.4121 l 0.3516,-0.11719 0.3535,-0.11719 0.2949,-0.23438 0.2344,-0.29492 0.2344,-0.29492 0.1191,-0.29297 0.1172,-0.41211 0.059,-0.35351 V 159.90376 l -0.059,-0.35156 -0.1172,-0.35352 -0.1191,-0.35351 -0.2344,-0.29297 -0.2344,-0.23633 -0.2949,-0.23437 -0.3535,-0.17774 -0.3516,-0.0586 -0.4121,-0.0586 h -7.2363 -0.2344 l -0.1777,0.0586 -0.2344,0.11719 -0.1758,0.11914 -0.1777,0.17578 -0.1172,0.17578 -0.059,0.17773 -0.059,0.23438 -0.059,0.23633 v 1.70507 l 0.059,0.23633 0.059,0.23438 0.1172,0.23632 0.1758,0.17579 0.1777,0.17578 0.2344,0.11719 0.2363,0.0605 0.2344,0.0586 h 3.8242 v 6.4121 h -25.5879 v -6.4121 h 3.8223 l 0.2949,-0.0586 0.2344,-0.0605 0.1777,-0.11719 0.2344,-0.17578 0.1172,-0.17579 0.1191,-0.23632 0.1172,-0.23438 v -0.23633 -1.70507 -0.23633 l -0.059,-0.23438 -0.1172,-0.17773 -0.1191,-0.17578 -0.1758,-0.17578 -0.1758,-0.11914 -0.1777,-0.11719 -0.2344,-0.0586 h -0.2363 -7.2344 l -0.3535,0.0586 -0.3535,0.0586 -0.3516,0.17774 -0.2949,0.23437 -0.293,0.23633 -0.2363,0.29297 -0.1172,0.35351 -0.1172,0.35352 v 0.35156 7.29492 h -40.1191 v -47.82422 h 10.6484 l 0.3516,-0.0586 0.3535,-0.11719 0.3535,-0.11718 0.293,-0.23633 0.2949,-0.23438 0.1758,-0.35351 0.1777,-0.29492 0.1172,-0.35157 v -0.41211 -13.64648 -0.23633 l -0.059,-0.17578 -0.1172,-0.23633 -0.1171,-0.17577 -0.1758,-0.17578 -0.1758,-0.11914 -0.1777,-0.0586 -0.2344,-0.0586 -0.2363,-0.0586 h -3.8223 l -0.2363,0.0586 -0.1758,0.0586 -0.2363,0.0586 -0.1758,0.11914 -0.1172,0.17578 -0.1777,0.17578 -0.059,0.23633 -0.059,0.17578 -0.059,0.23633 v 3 l -6.3535,6.41016 V 68.610797 l -0.059,-0.17773 v -0.17578 l -0.1172,-0.17578 -0.1172,-0.17774 -0.1172,-0.17578 -1.7656,-1.76562 1.7656,-1.76368 0.1758,-0.17578 0.1172,-0.23633 0.059,-0.23437 0.059,-0.23633 V 7.4330668 h 8.5293 v 8.1191402 0.29297 l 0.061,0.23633 0.1172,0.17578 0.1758,0.23632 0.1777,0.11719 0.2347,0.11719 0.2344,0.11719 h 0.2363 6 0.2344 l 0.1777,-0.0586 0.2344,-0.11718 0.1777,-0.11719 0.1758,-0.17774 0.1172,-0.17578 0.1172,-0.17578 v -0.23633 l 0.061,-0.23437 V 4.0229068 l -0.061,-0.35351 -0.059,-0.35352 -0.1758,-0.35351 -0.2363,-0.2929701 -0.2344,-0.23633 -0.2949,-0.23438 -0.3516,-0.17578 -0.3535,-0.0605 -0.3535,-0.0586 z m 20.4707,5.5293001 h 61.4707 V 167.19868 h -61.4707 z M 108.72707,172.72798 h 213.4121 V 414.0229 h -213.4121 z"
     style="fill:#212830;fill-opacity:1;stroke:#212830;stroke-width:0.0588235px;stroke-linecap:round;stroke-linejoin:round;stroke-miterlimit:4;stroke-dasharray:none;stroke-opacity:1"
     id="path971" />
</svg>
