<?xml version="1.0" encoding="UTF-8" standalone="no"?>
<svg
   xmlns:dc="http://purl.org/dc/elements/1.1/"
   xmlns:cc="http://creativecommons.org/ns#"
   xmlns:rdf="http://www.w3.org/1999/02/22-rdf-syntax-ns#"
   xmlns:svg="http://www.w3.org/2000/svg"
   xmlns="http://www.w3.org/2000/svg"
   id="svg1379"
   height="139mm"
   width="139mm"
   version="1.0">
  <metadata
     id="metadata1383">
    <rdf:RDF>
      <cc:Work
         rdf:about="">
        <dc:format>image/svg+xml</dc:format>
        <dc:type
           rdf:resource="http://purl.org/dc/dcmitype/StillImage" />
        <dc:title></dc:title>
      </cc:Work>
    </rdf:RDF>
  </metadata>
  <defs
     id="defs3" />
  <path
     d="m 132.88205,1.3236562 -0.58789,0.0586 -0.52929,0.17773 -0.47071,0.17578 -0.4707,0.35352 -0.41211,0.3535101 -0.29297,0.4707 -0.23633,0.5293 -0.11718,0.5293 -0.0586,0.5293 v 286.4120937 0.29297 l 0.11719,0.35352 0.11719,0.29297 0.17773,0.23633 0.23438,0.23437 0.29492,0.23633 0.29297,0.11719 0.35351,0.0586 0.29492,0.0586 h 8.88086 l 0.35352,-0.0586 0.35352,-0.0586 0.35156,-0.17578 0.29492,-0.23633 0.23438,-0.29297 0.17773,-0.35352 0.0586,-0.35351 0.0586,-0.35157 v -12.06054 h 12.64648 v 82.82422 l 0.0586,0.29492 0.0605,0.29297 0.11719,0.29492 0.17578,0.23437 0.17773,0.23633 2.5879,2.64649 -2.5879,2.58789 -0.17773,0.23633 -0.17578,0.23437 -0.11719,0.29492 -0.0605,0.29297 -0.0586,0.29492 v 65.70508 l -9.4707,-9.4707 v -4.41016 l -0.0586,-0.41211 -0.11718,-0.35351 -0.17578,-0.29492 -0.23633,-0.29297 -0.23438,-0.23633 -0.35351,-0.17578 -0.35352,-0.11719 -0.35156,-0.0586 h -5.70703 l -0.35157,0.0586 -0.29492,0.0586 -0.29492,0.17578 -0.29297,0.17774 -0.23633,0.23437 -0.17578,0.23633 -0.17578,0.29297 -0.0605,0.35352 -0.0586,0.35351 v 34.17578 l 0.0586,0.35352 0.11914,0.41016 0.17578,0.29492 0.23632,0.29492 0.29297,0.23437 0.29493,0.17579 0.35156,0.11914 h 0.41211 2.52929 0.35347 l 0.35352,-0.11914 0.35156,-0.17579 0.29492,-0.23437 0.23438,-0.29492 0.17773,-0.29492 0.0586,-0.41016 0.0586,-0.35352 v -10.76562 h 12.64648 v 70.9414 h -12.64649 v -12 -0.35156 l -0.11719,-0.29493 -0.11719,-0.29492 -0.17773,-0.29297 -0.23438,-0.23633 -0.29492,-0.17578 -0.29297,-0.17578 -0.35351,-0.0586 -0.29493,-0.0605 h -8.88086 l -0.29492,0.0605 -0.35351,0.0586 -0.29297,0.17578 -0.29492,0.17578 -0.23438,0.23633 -0.17773,0.29297 -0.11719,0.29492 -0.11719,0.29492 v 0.35156 17.11914 l 0.0586,0.5293 0.11718,0.5293 0.23633,0.5293 0.29297,0.4121 0.41211,0.41016 0.4707,0.29492 0.47071,0.23438 0.52929,0.17773 h 0.58789 259.58791 0.5293 l 0.5293,-0.17773 0.5293,-0.23438 0.4707,-0.29492 0.3535,-0.41016 0.3535,-0.4121 0.2344,-0.5293 0.1191,-0.5293 0.059,-0.5293 v -17.11914 l -0.059,-0.35156 -0.061,-0.29492 -0.1172,-0.29492 -0.2344,-0.29297 -0.2363,-0.23633 -0.2344,-0.17578 -0.2949,-0.17578 -0.3535,-0.0586 -0.293,-0.0605 h -8.8828 l -0.3535,0.0605 -0.293,0.0586 -0.2949,0.17578 -0.293,0.17578 -0.2363,0.23633 -0.1758,0.29297 -0.1172,0.29492 -0.1191,0.29492 v 0.35156 12 h -12.7051 v -70.9414 h 12.7051 v 10.76562 0.35352 l 0.1191,0.41016 0.1758,0.29492 0.2344,0.29492 0.2949,0.23437 0.2949,0.17579 0.4102,0.11914 h 0.3535 2.5293 0.3535 l 0.3535,-0.11914 0.3516,-0.17579 0.2949,-0.23437 0.2344,-0.29492 0.1777,-0.29492 0.1172,-0.41016 v -0.35352 -34.17578 -0.35351 l -0.1172,-0.35352 -0.1191,-0.29297 -0.1758,-0.23633 -0.2344,-0.23437 -0.2949,-0.17774 -0.2949,-0.17578 -0.293,-0.0586 -0.3535,-0.0586 h -5.7051 l -0.3535,0.0586 -0.3535,0.11719 -0.3516,0.17578 -0.2949,0.23633 -0.2344,0.29297 -0.1777,0.29492 -0.1172,0.35351 v 0.41211 4.41016 l -9.5293,9.4707 v -65.70508 -0.29492 l -0.059,-0.29297 -0.1172,-0.29492 -0.1777,-0.23437 -0.1758,-0.23633 -2.6465,-2.58789 2.6465,-2.64649 0.1758,-0.23633 0.1777,-0.23437 0.1172,-0.29492 0.059,-0.29297 v -0.29492 -82.82422 h 12.7051 v 12.06054 0.29297 l 0.1191,0.35352 0.1172,0.29297 0.1758,0.23633 0.2363,0.23437 0.293,0.23633 0.2949,0.11719 0.293,0.0586 0.3535,0.0586 h 8.8828 l 0.293,-0.0586 0.3535,-0.0586 0.2949,-0.11719 0.2344,-0.23633 0.2363,-0.23437 0.2344,-0.23633 0.1172,-0.29297 0.061,-0.35352 0.059,-0.29297 V 4.5013863 l -0.059,-0.5293 -0.1191,-0.5293 -0.2344,-0.5293 -0.3535,-0.4707 -0.3535,-0.3535101 -0.4707,-0.35352 -0.5293,-0.17578 -0.5293,-0.17773 -0.5293,-0.0586 z m 5.0586,8.2363301 h 98.11719 l 0.58984,0.0586 0.58789,0.17578 0.5293,0.2949297 0.4707,0.41211 0.41211,0.4707 0.29297,0.5293 0.17773,0.58789 0.0586,0.58789 v 0.58789 l -0.17774,0.58789 -1.29297,4.64844 -0.35351,4.82226 0.52929,4.76563 1.41211,4.58789 2.29492,4.23632 3,3.70508 3.70508,3.11719 0.2949,0.17773 0.293,0.11719 0.3535,0.0586 0.3535,-0.0586 0.3516,-0.0586 0.2949,-0.11914 0.293,-0.23438 0.2363,-0.23632 0.2344,-0.29297 4.1191,-7.11719 0.1758,-0.35352 0.059,-0.29492 v -0.35156 -0.35352 l -0.1172,-0.35351 -0.1172,-0.29297 -0.2363,-0.23633 -0.2344,-0.23437 -1.8828,-1.76563 -1.5293,-2.05859 -1.0586,-2.29492 -0.6484,-2.46876 -0.1758,-2.53124 0.3535,-2.5293 0.8223,-2.41016 1.2363,-2.17773 1.6465,-1.94141 2,-1.58789 2.2949,-1.17578 2.4121,-0.7656297 2.5293,-0.23437 2.5293,0.23437 2.4707,0.7656297 2.2344,1.17578 2,1.58789 1.6465,1.94141 1.2949,2.17773 0.8242,2.41016 0.293,2.5293 -0.1172,2.53124 -0.6465,2.46876 -1.1191,2.29492 -1.4688,2.05859 -1.8828,1.76563 -0.2363,0.23437 -0.2344,0.23633 -0.1777,0.29297 -0.059,0.35351 -0.059,0.35352 0.059,0.35156 0.059,0.29492 0.1191,0.35352 4.1758,7.11719 0.1758,0.29297 0.2363,0.23632 0.293,0.23438 0.3535,0.11914 0.3535,0.0586 0.3535,0.0586 0.293,-0.0586 0.3535,-0.11719 0.293,-0.17773 3.707,-3.11719 3,-3.70508 2.293,-4.23632 1.4121,-4.58789 0.5293,-4.76563 -0.4102,-4.82226 -1.2363,-4.64844 -0.1758,-0.58789 -0.059,-0.58789 0.1172,-0.58789 0.1758,-0.58789 0.2949,-0.5293 0.3516,-0.4707 0.5312,-0.41211 0.5293,-0.2949297 0.5879,-0.17578 0.5879,-0.0586 h 98.1172 V 270.61857 h -98.1172 l -0.5879,-0.0586 -0.5879,-0.17773 -0.5293,-0.29297 -0.5312,-0.35352 -0.3516,-0.4707 -0.2949,-0.5293 -0.1758,-0.58789 -0.1172,-0.64648 0.059,-0.5879 0.1758,-0.58984 1.2363,-4.64648 0.4102,-4.76368 -0.5293,-4.76562 -1.4121,-4.58789 -2.293,-4.29492 -3,-3.70508 -3.707,-3.11719 -0.293,-0.17773 -0.3535,-0.0586 -0.293,-0.0586 h -0.3535 l -0.3535,0.0586 -0.3535,0.17579 -0.293,0.17773 -0.2363,0.23437 -0.1758,0.29493 -4.1758,7.17578 -0.1191,0.29492 -0.059,0.35351 -0.059,0.29297 0.059,0.35352 0.059,0.35351 0.1777,0.29297 0.2344,0.29493 0.2363,0.23437 1.8828,1.70703 1.4688,2.0586 1.1191,2.29296 0.6465,2.47071 0.1172,2.52929 -0.293,2.5293 -0.8242,2.41211 -1.2949,2.23633 -1.6465,1.9414 -2,1.5879 -2.2344,1.17578 -2.4707,0.70508 -2.5293,0.23632 -2.5293,-0.23632 -2.4121,-0.70508 -2.2949,-1.17578 -2,-1.5879 -1.6465,-1.9414 -1.2363,-2.23633 -0.8223,-2.41211 -0.3535,-2.5293 0.1758,-2.52929 0.6484,-2.47071 1.0586,-2.29296 1.5293,-2.0586 1.8828,-1.70703 0.2344,-0.23437 0.2363,-0.29493 0.1172,-0.29297 0.1172,-0.35351 v -0.35352 -0.29297 l -0.059,-0.35351 -0.1758,-0.29492 -4.1191,-7.17578 -0.2344,-0.29493 -0.2363,-0.23437 -0.293,-0.17773 -0.2949,-0.17579 -0.3516,-0.0586 h -0.3535 l -0.3535,0.0586 -0.293,0.0586 -0.2949,0.17773 -3.70508,3.11719 -3,3.70508 -2.29492,4.29492 -1.41211,4.58789 -0.52929,4.76562 0.35351,4.76368 1.29297,4.64648 0.17774,0.58984 v 0.5879 l -0.0586,0.64648 -0.17773,0.58789 -0.29297,0.5293 -0.41211,0.4707 -0.4707,0.35352 -0.5293,0.29297 -0.58789,0.17773 -0.58984,0.0586 H 137.94065 Z M 163.23557,278.85295 h 198.82229 v 236.9414 H 163.23557 Z"
     style="fill:#212830;fill-opacity:1;stroke:#212830;stroke-width:0.0588235px;stroke-linecap:round;stroke-linejoin:round;stroke-miterlimit:4;stroke-dasharray:none;stroke-opacity:1"
     id="path1377" />
</svg>
