<?xml version="1.0" encoding="UTF-8" standalone="no"?>
<svg
   xmlns:dc="http://purl.org/dc/elements/1.1/"
   xmlns:cc="http://creativecommons.org/ns#"
   xmlns:rdf="http://www.w3.org/1999/02/22-rdf-syntax-ns#"
   xmlns:svg="http://www.w3.org/2000/svg"
   xmlns="http://www.w3.org/2000/svg"
   id="svg3307"
   height="100mm"
   width="100mm"
   version="1.0">
  <metadata
     id="metadata3311">
    <rdf:RDF>
      <cc:Work
         rdf:about="">
        <dc:format>image/svg+xml</dc:format>
        <dc:type
           rdf:resource="http://purl.org/dc/dcmitype/StillImage" />
        <dc:title></dc:title>
      </cc:Work>
    </rdf:RDF>
  </metadata>
  <defs
     id="defs3" />
  <path
     id="path3305"
     d="m 119.79988,244.7705 -0.3529,0.47059 -0.2941,0.52941 -0.1765,0.58824 -0.059,0.58823 v 120.41177 l 0.1176,1.7647 0.4706,1.76471 0.7647,1.64706 1.0588,1.47059 1.2353,1.23529 1.4706,1.05882 1.6471,0.76471 1.7647,0.47059 1.7647,0.11764 h 13.1765 l 0.5294,-0.0588 0.5294,-0.11765 0.4706,-0.23529 10.5294,-6.05882 v -3.52942 l -6.7647,-3.88235 -0.1177,-0.11765 -0.1176,-0.11764 -0.1177,-0.11765 -0.059,-0.17647 v -0.17647 -0.17647 -0.17647 l 0.059,-0.17647 0.1177,-0.11765 0.1176,-0.17647 0.1177,-0.0588 6.7647,-3.94118 v -3.47059 l -6.7647,-3.88235 -0.1177,-0.11765 -0.1176,-0.11765 -0.1177,-0.11764 -0.059,-0.17647 v -0.17647 -0.17647 -0.17647 l 0.059,-0.17648 0.1177,-0.11764 0.1176,-0.17647 0.1177,-0.0588 6.7647,-3.94117 v -3.47059 l -6.7647,-3.88235 -0.1177,-0.11765 -0.1176,-0.11765 -0.1177,-0.17647 -0.059,-0.11765 v -0.17647 -0.17647 -0.17647 l 0.059,-0.17647 0.1177,-0.17647 0.1176,-0.11765 0.1177,-0.11764 6.7647,-3.88236 v -3.47058 l -6.7647,-3.88236 -0.1177,-0.11764 -0.1176,-0.11765 -0.1177,-0.17647 -0.059,-0.11765 v -0.17654 -0.17647 -0.17647 l 0.059,-0.17647 0.1177,-0.17647 0.1176,-0.11765 0.1177,-0.11765 6.7647,-3.88235 v -3.47059 l -6.7645,-3.88235 -0.1177,-0.11765 -0.1176,-0.11764 -0.1177,-0.17647 -0.059,-0.17648 v -0.17647 -0.17647 -0.17647 l 0.059,-0.11764 0.1177,-0.17647 0.1176,-0.11765 0.1177,-0.11765 6.7647,-3.88235 v -3.47059 l -6.7647,-3.88235 -0.1177,-0.11765 -0.1176,-0.11765 -0.1177,-0.17647 -0.059,-0.17647 v -0.17647 -0.17647 -0.17647 l 0.059,-0.11765 0.1177,-0.17647 0.1176,-0.11764 0.1177,-0.11765 6.7647,-3.88235 v -3.47059 l -6.7647,-3.94118 -0.1177,-0.0588 -0.1176,-0.17647 -0.1177,-0.11765 -0.059,-0.17647 v -0.17647 -0.17647 -0.17647 l 0.059,-0.17647 0.1177,-0.11765 0.1176,-0.11765 0.1177,-0.11764 6.7647,-3.88236 v -3.47059 l -6.7647,-3.94117 -0.1177,-0.0588 -0.1176,-0.17647 -0.1177,-0.11764 -0.059,-0.17647 v -0.17647 -0.17648 -0.17647 l 0.059,-0.17647 0.1177,-0.11764 0.1176,-0.11765 0.1177,-0.11765 6.7647,-3.88235 v -3.52941 l -6.7647,-3.88236 -0.1177,-0.11764 -0.1176,-0.11765 -0.1177,-0.11765 -0.059,-0.17647 v -0.17647 -0.17647 -0.17647 l 0.059,-0.17647 0.1177,-0.11765 0.1176,-0.11764 0.1177,-0.11765 6.7647,-3.88235 v -3.52942 l -6.7647,-3.88235 -0.1177,-0.11765 -0.1176,-0.11764 -0.1177,-0.11765 -0.059,-0.17647 v -0.17647 -0.17647 -0.17647 l 0.059,-0.17647 0.1177,-0.11765 0.1176,-0.17647 0.1177,-0.0588 6.7647,-3.94118 v -3.47059 l -6.7647,-3.88235 -0.1177,-0.11765 -0.1176,-0.11765 -0.1177,-0.11764 -0.059,-0.17647 v -0.17647 -0.17647 -0.17647 l 0.059,-0.17648 0.1177,-0.17647 0.1176,-0.11764 0.1177,-0.0588 6.7647,-3.94117 v -3.47059 l -6.7647,-3.88235 -0.1177,-0.11765 -0.1176,-0.11765 -0.1177,-0.17647 -0.059,-0.11765 v -0.17647 -0.17647 -0.17647 l 0.059,-0.17647 0.1177,-0.17647 0.1176,-0.11765 0.1177,-0.11764 6.7647,-3.88236 v -3.47058 l -6.7647,-3.88236 -0.1177,-0.11764 -0.1176,-0.11765 -0.1177,-0.17647 -0.059,-0.17647 v -0.11775 -0.17647 -0.17647 l 0.059,-0.17647 0.1177,-0.17647 0.1176,-0.11765 0.1177,-0.11765 8.8823,-5.11764 h 66.9412 v 7.70588 l 6.7647,3.88235 0.1177,0.11765 0.1176,0.11765 0.1177,0.11764 0.059,0.17647 v 0.17647 0.17648 0.17647 l -0.059,0.17647 -0.1177,0.11764 -0.1176,0.17647 -0.1177,0.0588 -6.7647,3.94117 v 3.47059 l 6.7647,3.88236 0.1177,0.11764 0.1176,0.11765 0.1177,0.11765 0.059,0.17647 v 0.17647 0.17647 0.17647 l -0.059,0.17647 -0.1177,0.11765 -0.1176,0.17647 -0.1177,0.0588 -6.7647,3.94118 v 3.47059 l 6.7647,3.88235 0.1177,0.11765 0.1176,0.11764 0.1177,0.17647 0.059,0.11765 v 0.17647 0.17647 0.17647 l -0.059,0.17647 -0.1177,0.17647 -0.1176,0.11765 -0.1177,0.11765 -6.7647,3.88235 v 3.47059 l 6.7647,3.88235 0.1177,0.11765 0.1176,0.11765 0.1177,0.17647 0.059,0.11764 v 0.17647 0.17647 0.17647 l -0.059,0.17648 -0.1177,0.17647 -0.1176,0.11764 -0.1177,0.11765 -6.7647,3.88235 v 3.47059 l 6.7647,3.88235 0.1177,0.11765 0.1176,0.11765 0.1177,0.17647 0.059,0.17647 v 0.17652 0.17647 0.17647 l -0.059,0.11765 -0.1177,0.17647 -0.1176,0.11765 -0.1177,0.11764 -6.7647,3.88236 v 3.47058 l 6.7647,3.88236 0.1177,0.11764 0.1176,0.11765 0.1177,0.17647 0.059,0.17647 v 0.17647 0.17647 0.17647 l -0.059,0.11765 -0.1177,0.17647 -0.1176,0.11765 -0.1177,0.11765 -6.7647,3.88235 v 3.47059 l 6.7647,3.94117 0.1177,0.0588 0.1176,0.17647 0.1177,0.11764 0.059,0.17648 v 0.17647 0.17647 0.17647 l -0.059,0.17647 -0.1177,0.11764 -0.1176,0.11765 -0.1177,0.11765 -6.7647,3.88235 v 3.47062 l 6.7647,3.94118 0.1177,0.0588 0.1176,0.17647 0.1177,0.11765 0.059,0.17647 v 0.17647 0.17647 0.17649 l -0.059,0.17647 -0.1177,0.11765 -0.1176,0.11764 -0.1177,0.11765 -6.7647,3.88235 v 3.52942 l 6.7647,3.88235 0.1177,0.11765 0.1176,0.11764 0.1177,0.11765 0.059,0.17647 v 0.17647 0.17647 0.17647 l -0.059,0.17647 -0.1177,0.11765 -0.1176,0.11765 -0.1177,0.11764 -6.7647,3.88236 v 3.52941 l 6.7647,3.88235 0.1177,0.11765 0.1176,0.11765 0.1177,0.11764 0.059,0.17647 v 0.17647 0.17648 0.17647 l -0.059,0.17647 -0.1177,0.11764 -0.1176,0.17647 -0.1177,0.0588 -6.7647,3.94117 v 3.47059 l 6.7647,3.88236 0.1177,0.11764 0.1176,0.11765 0.1177,0.11765 0.059,0.17647 v 0.17647 0.17647 0.17647 l -0.059,0.17647 -0.1177,0.17647 -0.1176,0.11765 -0.1177,0.0588 -6.7647,3.94118 v 3.47059 l 6.7647,3.88235 0.1177,0.11765 0.1176,0.11764 0.1177,0.17647 0.059,0.11765 v 0.17647 0.17647 0.17647 l -0.059,0.17647 -0.1177,0.17647 -0.1176,0.11765 -0.1177,0.11765 -6.7647,3.88235 v 3.47059 l 5.6471,3.29412 0.4706,0.29411 0.3529,0.35294 0.2941,0.47059 0.2353,0.47059 0.1765,0.52941 0.059,0.52941 v 3.94118 0.52941 l 0.1765,0.52941 0.2353,0.47059 0.2941,0.41177 0.3529,0.41176 0.4706,0.29412 0.4706,0.23529 0.5294,0.11765 0.5294,0.0588 h 14.9412 l 1.8235,-0.11764 1.7059,-0.47059 1.6471,-0.76471 1.4706,-1.05882 1.2353,-1.23529 1.0588,-1.47059 0.7647,-1.64706 0.4706,-1.76471 0.1176,-1.7647 v -120.4117 l -0.059,-0.58823 -0.1765,-0.58824 -0.2941,-0.52941 -0.3529,-0.47059 -4.2353,-4.23529 4.2353,-4.2353 0.3529,-0.47058 0.2941,-0.52942 0.1765,-0.58823 0.059,-0.64706 v -90.23529 l -0.059,-0.58824 -0.1765,-0.58824 -0.2941,-0.52941 -0.3529,-0.47059 -4.2353,-4.23529 4.2353,-4.23529 0.3529,-0.47059 0.2941,-0.52941 0.1765,-0.58824 0.059,-0.64706 V 10.594029 l -0.1764,-2.0000001 -0.5883,-1.94118 -0.9412,-1.82352 -1.2941,-1.52942 -1.5882,-1.29411 -1.7647,-0.9411801 -1.9412,-0.58823997 -2,-0.17647 h -14.9412 -0.5294 l -0.5294,0.17647 -0.4706,0.2353 -0.4706,0.29411997 -0.3529,0.3529401 -0.2941,0.47059 -0.2353,0.47058 -0.1765,0.52942 v 0.52941 3.94117 l -0.059,0.52942 -0.1765,0.52941 -0.2353,0.47059 -0.2941,0.41176 -0.3529,0.41176 -0.4706,0.29412 -5.6471,3.2941201 v 3.47059 l 6.7647,3.88235 0.1177,0.11765 0.1176,0.11765 0.1177,0.17647 0.059,0.11764 v 0.17647 0.17647 0.17647 l -0.059,0.17648 -0.1177,0.17647 -0.1176,0.11764 -0.1177,0.11765 -6.7647,3.88235 v 3.47059 l 6.7647,3.88235 0.1177,0.11765 0.1176,0.11765 0.1177,0.17647 0.059,0.17647 v 0.11765 0.17647 0.17647 l -0.059,0.17647 -0.1177,0.17647 -0.1176,0.11765 -0.1177,0.11764 -6.7647,3.88236 v 3.47058 l 6.7647,3.88236 0.1177,0.11764 0.1176,0.11765 0.1177,0.17647 0.059,0.17647 v 0.17647 0.17647 0.17647 l -0.059,0.11765 -0.1177,0.17647 -0.1176,0.11765 -0.1177,0.11765 -6.7647,3.88235 v 3.47059 l 6.7647,3.94117 0.1177,0.0588 0.1176,0.11764 0.1177,0.17647 0.059,0.17648 v 0.17647 0.17647 0.17647 l -0.059,0.11764 -0.1177,0.17647 -0.1176,0.11765 -0.1177,0.11765 -6.7647,3.88235 v 3.47062 l 6.7647,3.94118 0.1177,0.0588 0.1176,0.17647 0.1177,0.11765 0.059,0.17647 v 0.17647 0.17647 0.17649 l -0.059,0.17647 -0.1177,0.11765 -0.1176,0.11764 -0.1177,0.11765 -6.7647,3.88235 v 3.47059 l 6.7647,3.94118 0.1177,0.0588 0.1176,0.17647 0.1177,0.11765 0.059,0.17647 v 0.17647 0.17647 0.17647 l -0.059,0.17647 -0.1177,0.11765 -0.1176,0.11765 -0.1177,0.11764 -6.7647,3.88236 v 3.52941 l 6.7647,3.88235 0.1177,0.11765 0.1176,0.11765 0.1177,0.11764 0.059,0.17647 v 0.17647 0.17648 0.17647 l -0.059,0.17647 -0.1177,0.11764 -0.1176,0.17647 -0.1177,0.0588 -6.7647,3.941171 v 3.47059 l 6.7647,3.88236 0.1177,0.11764 0.1176,0.11765 0.1177,0.11765 0.059,0.17647 v 0.17647 0.17647 0.17647 l -0.059,0.17647 -0.1177,0.11765 -0.1176,0.17647 -0.1177,0.0588 -6.7647,3.94118 v 3.47059 l 6.7647,3.88235 0.1177,0.11765 0.1176,0.11764 0.1177,0.17647 0.059,0.11765 v 0.17647 0.17647 0.17647 l -0.059,0.17647 -0.1177,0.17647 -0.1176,0.11765 -0.1177,0.0588 -6.7647,3.94118 v 3.47059 l 6.7647,3.88235 0.1177,0.11765 0.1176,0.11765 0.1177,0.17647 0.059,0.11764 v 0.17647 0.17647 0.17647 l -0.059,0.17648 -0.1177,0.17647 -0.1176,0.11764 -0.1177,0.11765 -6.7647,3.88235 v 3.47059 l 6.7647,3.88235 0.1177,0.11765 0.1176,0.11765 0.1177,0.17647 0.059,0.17647 v 0.17656 0.17647 0.11765 l -0.059,0.17647 -0.1177,0.17647 -0.1176,0.11765 -0.1177,0.11764 -6.7647,3.88236 v 3.47058 l 6.7647,3.88236 0.1177,0.11764 0.1176,0.11765 0.1177,0.17647 0.059,0.17647 v 0.17647 0.17647 0.17647 l -0.059,0.11765 -0.1177,0.17647 -0.1176,0.11765 -0.1177,0.11765 -6.7647,3.88235 v 7.64706 h -66.9412 l -8.8823,-5.11765 -0.1177,-0.0588 -0.1176,-0.17647 -0.1177,-0.11765 -0.059,-0.17647 v -0.17647 -0.17647 -0.17647 l 0.059,-0.17647 0.1177,-0.11765 0.1176,-0.11765 0.1177,-0.11764 6.7647,-3.88236 v -3.47059 l -6.7647,-3.94117 -0.1177,-0.0588 -0.1176,-0.17647 -0.1177,-0.11764 -0.059,-0.17647 v -0.17647 -0.17648 -0.17647 l 0.059,-0.17647 0.1177,-0.11764 0.1176,-0.11765 0.1177,-0.11765 6.7647,-3.88235 v -3.52941 l -6.7647,-3.88236 -0.1177,-0.11764 -0.1176,-0.11765 -0.1177,-0.11765 -0.059,-0.17647 v -0.17647 -0.17647 -0.17647 l 0.059,-0.17647 0.1177,-0.11765 0.1176,-0.11764 0.1177,-0.11765 6.7647,-3.94118 v -3.47059 l -6.7647,-3.88235 -0.1177,-0.11765 -0.1176,-0.11764 -0.1177,-0.11765 -0.059,-0.17647 v -0.17647 -0.17647 -0.17647 l 0.059,-0.17647 0.1177,-0.11765 0.1176,-0.17647 0.1177,-0.0588 6.7647,-3.94118 v -3.47059 l -6.7647,-3.88235 -0.1177,-0.11765 -0.1176,-0.11765 -0.1177,-0.17647 -0.059,-0.11764 v -0.17647 -0.17647 -0.17647 l 0.059,-0.17648 0.1177,-0.17647 0.1176,-0.11764 0.1177,-0.0588 6.7647,-3.94117 v -3.47059 l -6.7647,-3.88235 -0.1177,-0.11765 -0.1176,-0.11765 -0.1177,-0.17647 -0.059,-0.11765 v -0.17647 -0.17647 -0.17647 l 0.059,-0.17647 0.1177,-0.17647 0.1176,-0.11765 0.1177,-0.11764 6.7647,-3.88236 v -3.470581 l -6.7647,-3.88236 -0.1177,-0.11764 -0.1176,-0.11765 -0.1177,-0.17647 -0.059,-0.17647 v -0.11775 -0.17647 -0.17647 l 0.059,-0.17647 0.1177,-0.17647 0.1176,-0.11765 0.1177,-0.11765 6.7647,-3.88235 v -3.47059 l -6.7647,-3.88235 -0.1177,-0.11765 -0.1176,-0.11764 -0.1177,-0.17647 -0.059,-0.17648 v -0.17647 -0.17647 -0.17647 l 0.059,-0.11764 0.1177,-0.17647 0.1176,-0.11765 0.1177,-0.11765 6.7647,-3.88235 v -3.47059 l -6.7647,-3.94118 -0.1177,-0.0588 -0.1176,-0.11765 -0.1177,-0.17647 -0.059,-0.17647 v -0.17649 -0.17647 -0.17647 l 0.059,-0.11765 0.1177,-0.17647 0.1176,-0.11764 0.1177,-0.11765 6.7647,-3.88235 v -3.47059 l -6.7647,-3.94118 -0.1177,-0.0588 -0.1176,-0.17647 -0.1177,-0.11765 -0.059,-0.17647 v -0.17647 -0.17647 -0.17647 l 0.059,-0.17647 0.1177,-0.11765 0.1176,-0.11765 0.1177,-0.11764 6.7647,-3.88236 v -3.47059 l -6.7647,-3.94117 -0.1177,-0.11765 -0.1176,-0.11765 -0.1177,-0.11764 -0.059,-0.17647 v -0.17647 -0.17648 -0.17647 l 0.059,-0.17647 0.1177,-0.11764 0.1176,-0.11765 0.1177,-0.11765 6.7647,-3.88235 v -3.52941 l -6.7647,-3.88236 -0.1177,-0.11764 -0.1176,-0.11765 -0.1177,-0.11765 -0.059,-0.17647 v -0.17647 -0.17647 -0.17647 l 0.059,-0.17647 0.1177,-0.11765 0.1176,-0.17647 0.1177,-0.0588 6.7647,-3.94118 v -3.47059 l -6.7647,-3.88235 -0.1177,-0.11765 -0.1176,-0.11764 -0.1177,-0.11765 -0.059,-0.17647 v -0.17647 -0.17647 -0.17647 l 0.059,-0.17647 0.1177,-0.11765 0.1176,-0.17647 0.1177,-0.0588 6.7647,-3.94118 V 6.7705589 l -10.5294,-6.05882007 -0.4706,-0.2353 -0.5294,-0.17647 h -0.5294 -13.1765 l -2,0.17647 -1.9412,0.58823997 -1.7647,0.9411801 -1.5882,1.29411 -1.2941,1.52942 -0.9412,1.82352 -0.5882,1.94118 -0.1765,2.0000001 V 130.94703 l 0.059,0.64706 0.1765,0.58824 0.2941,0.52941 0.3529,0.47059 4.2353,4.23529 -4.2353,4.23529 -0.2941,0.35295 -0.2353,0.41176 -0.2353,0.47059 -0.1176,0.47059 v 0.47059 90.23529 0.52941 l 0.1176,0.47059 0.2353,0.41176 0.2353,0.41177 0.2941,0.41176 4.2353,4.2353 z"
     style="fill:#212830;fill-opacity:1;stroke:#212830;stroke-width:0.0588235px;stroke-linecap:round;stroke-linejoin:round;stroke-miterlimit:4;stroke-dasharray:none;stroke-opacity:1" />
</svg>
