<?xml version="1.0" encoding="UTF-8" standalone="no"?>
<svg
   xmlns:dc="http://purl.org/dc/elements/1.1/"
   xmlns:cc="http://creativecommons.org/ns#"
   xmlns:rdf="http://www.w3.org/1999/02/22-rdf-syntax-ns#"
   xmlns:svg="http://www.w3.org/2000/svg"
   xmlns="http://www.w3.org/2000/svg"
   id="svg987"
   height="184mm"
   width="184mm"
   version="1.0">
  <metadata
     id="metadata991">
    <rdf:RDF>
      <cc:Work
         rdf:about="">
        <dc:format>image/svg+xml</dc:format>
        <dc:type
           rdf:resource="http://purl.org/dc/dcmitype/StillImage" />
        <dc:title></dc:title>
      </cc:Work>
    </rdf:RDF>
  </metadata>
  <defs
     id="defs3" />
  <path
     d="m 261.42125,0.15793131 -0.3516,0.05859 -0.3535,0.117188 -0.3535,0.117187 -0.293,0.236328 -0.2363,0.234375 -0.2344,0.29492209 -0.1777,0.353516 -0.059,0.351562 -0.059,0.353516 v 11.4121096 0.175782 l 0.059,0.236328 0.1172,0.175781 0.1191,0.175781 0.1758,0.177734 0.1758,0.117188 0.1777,0.117188 0.2344,0.05859 h 0.2363 5.8809 0.2363 l 0.1758,-0.05859 0.2367,-0.117184 0.1758,-0.117188 0.1172,-0.177734 0.1172,-0.175781 0.1191,-0.175781 0.059,-0.236328 V 13.687229 5.6286344 h 8.4121 V 60.745823 l 0.059,0.23438 0.059,0.23632 0.1172,0.23438 0.1758,0.17773 1.707,1.76367 -1.707,1.70704 -0.1172,0.17578 -0.1172,0.17578 -0.1172,0.17773 v 0.17578 l -0.059,0.17579 v 43.707027 l -6.2949,-6.29493 v -2.9414 -0.23438 l -0.059,-0.236317 -0.1172,-0.17579 -0.1191,-0.17578 -0.1758,-0.17773 -0.1758,-0.11719 -0.1777,-0.0586 -0.2344,-0.0586 -0.1758,-0.0586 h -3.8242 l -0.2363,0.0586 -0.2344,0.0586 -0.2344,0.11718 -0.1777,0.17774 -0.1758,0.17578 -0.1172,0.23438 -0.06,0.236317 v 0.23438 13.4707 0.35352 l 0.1191,0.35351 0.1758,0.35157 0.1758,0.29492 0.2363,0.23632 0.3535,0.23438 0.293,0.17578 0.3535,0.0586 0.3535,0.0605 h 10.5293 v 47.17578 h -39.52928 v -7.17578 l -0.0605,-0.35351 -0.0586,-0.35352 -0.17578,-0.35351 -0.23438,-0.29297 -0.23632,-0.23633 -0.29492,-0.23438 -0.35157,-0.17578 -0.35351,-0.0605 -0.35352,-0.0586 h -7.17672 l -0.23438,0.0586 -0.23632,0.0605 -0.23438,0.11719 -0.17773,0.17578 -0.17578,0.17773 -0.11719,0.23438 -0.0586,0.23438 v 0.23632 1.64649 0.29492 l 0.0586,0.23437 0.11719,0.17774 0.17578,0.23437 0.17773,0.11719 0.23438,0.11914 0.23632,0.11719 h 0.23438 3.82422 v 6.29297 h -25.29492 v -6.29297 h 3.82422 0.17578 l 0.23632,-0.0586 0.17579,-0.11914 0.17578,-0.11719 0.17773,-0.17578 0.11719,-0.17579 0.11719,-0.17773 0.0586,-0.23437 v -0.23633 -1.64649 -0.23632 l -0.0586,-0.23432 -0.11719,-0.17578 -0.11719,-0.17774 -0.17773,-0.17578 -0.17578,-0.11718 -0.17579,-0.0586 -0.23632,-0.0605 -0.17578,-0.0586 h -7.17774 l -0.35156,0.0586 -0.35352,0.0605 -0.35351,0.17578 -0.29297,0.23438 -0.23633,0.23633 -0.23437,0.29297 -0.17774,0.35351 -0.0586,0.35352 -0.0586,0.35351 v 10.5293 l 0.0586,0.35156 0.0586,0.35352 0.17774,0.35351 0.23437,0.29297 0.23633,0.29492 0.29297,0.17578 0.35351,0.17774 0.35352,0.0586 0.35156,0.0586 h 56.82422 v 524.4707 l 0.059,0.35351 0.059,0.35157 0.1777,0.35351 0.2344,0.29492 0.2363,0.29297 0.293,0.17579 0.3535,0.17773 0.3535,0.0586 0.3516,0.0586 h 172.58789 l 0.4121,-0.0586 0.3535,-0.0586 0.2949,-0.17773 0.293,-0.17579 0.2949,-0.29297 0.1758,-0.29492 0.1758,-0.35351 0.1191,-0.35157 v -0.35351 -524.4707 h 56.8223 l 0.4121,-0.0586 0.3535,-0.0586 0.293,-0.17774 0.2949,-0.17578 0.2949,-0.29492 0.1758,-0.29297 0.1758,-0.35351 0.1191,-0.35352 v -0.35156 -10.5293 -0.35351 l -0.1191,-0.35352 -0.1758,-0.35351 -0.1758,-0.29297 -0.2949,-0.23633 -0.2949,-0.23438 -0.293,-0.17578 -0.3535,-0.0605 -0.4121,-0.0586 h -7.1172 l -0.2949,0.0586 -0.2344,0.0605 -0.1758,0.11719 -0.2363,0.17578 -0.1172,0.17773 -0.1172,0.23438 -0.059,0.23438 -0.061,0.23632 v 1.64649 0.23633 l 0.061,0.23437 0.1172,0.17773 0.1172,0.17579 0.1758,0.17578 0.1777,0.11719 0.1758,0.11914 0.2363,0.0586 h 0.2344 3.7656 v 6.29297 h -25.2363 v -6.29297 h 3.7656 0.2344 l 0.2363,-0.11719 0.2344,-0.11914 0.1758,-0.11719 0.1777,-0.23437 0.1172,-0.17774 0.059,-0.23437 0.059,-0.29492 v -1.64649 l -0.059,-0.23632 -0.0594,-0.23439 -0.059,-0.17578 -0.1758,-0.17774 -0.1191,-0.17578 -0.1758,-0.11718 -0.2363,-0.0586 -0.1758,-0.0605 -0.2344,-0.0586 h -7.1777 l -0.3516,0.0586 -0.3535,0.0605 -0.3535,0.17578 -0.293,0.23438 -0.2363,0.23633 -0.2344,0.29297 -0.1191,0.35351 -0.1172,0.35352 v 0.35351 7.17578 h -39.5875 v -47.17578 h 10.5293 l 0.3535,-0.0605 0.3516,-0.0586 0.3535,-0.17578 0.2949,-0.23438 0.2344,-0.23632 0.2363,-0.29492 0.1172,-0.35157 0.1172,-0.35351 0.059,-0.35352 v -13.4707 l -0.059,-0.23438 -0.059,-0.236317 -0.059,-0.17579 -0.1172,-0.17578 -0.1777,-0.17773 -0.1758,-0.11719 -0.2344,-0.0586 -0.1777,-0.0586 -0.2344,-0.0586 h -3.7656 l -0.2344,0.0586 -0.2363,0.0586 -0.1758,0.0586 -0.1758,0.11719 -0.1777,0.17773 -0.1172,0.17578 -0.1172,0.17579 -0.059,0.236317 v 0.23438 2.9414 l -6.2937,6.29489 v -43.707027 -0.17579 l -0.059,-0.17578 -0.1172,-0.17773 -0.059,-0.17578 -0.1191,-0.17578 -1.7637,-1.70704 1.7637,-1.76367 0.1191,-0.17773 0.1172,-0.23438 0.059,-0.23632 0.059,-0.23438 V 5.6286344 h 8.4121 v 8.0585946 0.175782 l 0.059,0.236328 0.1172,0.175781 0.1172,0.175781 0.1777,0.177734 0.1758,0.117188 0.1758,0.117188 0.2363,0.05859 h 0.1758 5.9414 0.1777 l 0.234,-0.05859 0.1758,-0.117188 0.1777,-0.117188 0.1758,-0.177734 0.1172,-0.175781 0.1191,-0.175781 0.059,-0.236328 V 13.687229 2.2751194 1.9216034 l -0.1191,-0.351562 -0.1758,-0.353516 -0.1758,-0.29492209 -0.2949,-0.234375 -0.293,-0.236328 -0.2949,-0.117187 -0.3535,-0.117188 -0.4121,-0.05859 z m 20.1777,5.47070309 H 413.83334 V 163.21652 H 281.59895 Z m -16,163.0585956 H 429.83334 V 688.9216 H 265.59895 Z"
     style="fill:#212830;fill-opacity:1;stroke:#212830;stroke-width:0.0588235px;stroke-linecap:round;stroke-linejoin:round;stroke-miterlimit:4;stroke-dasharray:none;stroke-opacity:1"
     id="path983" />
</svg>
