<?xml version="1.0" encoding="UTF-8" standalone="no"?>
<svg
   xmlns:dc="http://purl.org/dc/elements/1.1/"
   xmlns:cc="http://creativecommons.org/ns#"
   xmlns:rdf="http://www.w3.org/1999/02/22-rdf-syntax-ns#"
   xmlns:svg="http://www.w3.org/2000/svg"
   xmlns="http://www.w3.org/2000/svg"
   id="svg999"
   height="194mm"
   width="194mm"
   version="1.0">
  <metadata
     id="metadata1003">
    <rdf:RDF>
      <cc:Work
         rdf:about="">
        <dc:format>image/svg+xml</dc:format>
        <dc:type
           rdf:resource="http://purl.org/dc/dcmitype/StillImage" />
        <dc:title></dc:title>
      </cc:Work>
    </rdf:RDF>
  </metadata>
  <defs
     id="defs3" />
  <path
     d="m 284.05656,1.7899541 -0.5293,0.177734 -0.4707,0.234376 -0.4121,0.294921 -0.4121,0.353516 -0.293,0.46875 -0.1777,0.470703 -0.1758,0.470703 -0.059,0.529297 v 483.4121059 19.4707 l 0.059,0.29492 0.059,0.35157 0.1758,0.29492 0.1777,0.23632 0.1754,0.23438 0.2949,0.17578 0.293,0.11914 0.2949,0.11719 h 0.293 8.5293 0.2949 l 0.3535,-0.11719 0.293,-0.11914 0.2363,-0.17578 0.2344,-0.23438 0.1777,-0.23632 0.1172,-0.29492 0.1172,-0.35157 v -0.29492 -11.5293 h 12.1758 v 79.47071 0.35351 l 0.1191,0.35157 0.1758,0.35351 0.2344,0.23633 2.4707,2.5293 -2.4707,2.4707 -0.1758,0.23437 -0.1758,0.23633 -0.1172,0.29297 -0.061,0.29492 v 0.23438 63.11719 l -9.1172,-9.11719 v -4.23438 l -0.059,-0.35351 -0.059,-0.29492 -0.1172,-0.29297 -0.2363,-0.23633 -0.1758,-0.23438 -0.2949,-0.17578 -0.293,-0.17773 -0.2949,-0.0586 -0.293,-0.0586 h -5.4707 l -0.3535,0.0586 -0.2949,0.0586 -0.293,0.17773 -0.2363,0.17578 -0.2344,0.23438 -0.1777,0.23633 -0.1172,0.29297 -0.1172,0.29492 v 0.35351 19.41211 0.5293 l 0.1758,0.5293 0.2363,0.4707 0.293,0.4707 0.3535,0.35156 0.4707,0.29493 0.4707,0.23437 0.4707,0.11914 0.5293,0.0586 h 15.2344 v 68.11718 h -57.1172 v -10.35351 l -0.059,-0.5293 -0.1758,-0.5293 -0.1777,-0.4707 -0.3516,-0.41211 -0.3535,-0.41016 -0.4121,-0.29492 -0.4707,-0.23632 -0.5293,-0.11719 -0.5293,-0.0586 h -10.3535 l -0.3516,0.0586 -0.3535,0.11719 -0.2949,0.17773 -0.293,0.17578 -0.1777,0.29492 -0.1758,0.29297 -0.1172,0.35352 -0.059,0.35351 v 2.47071 l 0.059,0.35156 0.1172,0.35351 0.1758,0.29493 0.1777,0.29296 0.293,0.17774 0.2949,0.17578 0.3535,0.11719 0.3516,0.0586 h 5.4707 v 9.11914 h -36.47072 v -9.11914 h 5.4707 l 0.35352,-0.0586 0.29492,-0.0586 0.29297,-0.11718 0.23633,-0.23633 0.23437,-0.17578 0.17579,-0.29492 0.17773,-0.29297 0.0586,-0.29493 v -0.29296 -2.47071 -0.35351 l -0.11718,-0.35352 -0.17774,-0.29297 -0.23437,-0.29492 -0.23633,-0.17578 -0.35156,-0.17773 -0.35352,-0.11719 -0.35352,-0.0586 h -10.29296 l -0.5293,0.0586 -0.5293,0.11719 -0.4707,0.23632 -0.41211,0.29492 -0.41211,0.41016 -0.29492,0.41211 -0.23438,0.4707 -0.11718,0.5293 -0.0586,0.5293 v 15.17773 l 0.0586,0.5293 0.11718,0.5293 0.23438,0.4707 0.29492,0.4707 0.41211,0.35156 0.41211,0.29493 0.4707,0.23437 0.5293,0.11914 0.5293,0.0586 h 334.23438 l 0.5293,-0.0586 0.4707,-0.11914 0.4707,-0.23437 0.4707,-0.29493 0.3535,-0.35156 0.293,-0.4707 0.2363,-0.4707 0.1172,-0.5293 0.059,-0.5293 v -16.41211 -0.29492 l -0.1172,-0.29297 -0.1172,-0.29492 -0.1777,-0.29492 -0.2344,-0.17578 -0.2363,-0.23438 -0.293,-0.11914 -0.2949,-0.0586 -0.3516,-0.0586 h -8.4707 l -0.3535,0.0586 -0.3535,0.11719 -0.3535,0.17773 -0.2344,0.17578 -0.2344,0.29492 -0.1777,0.29297 -0.1172,0.35352 v 0.35351 11.58789 h -12.1758 v -68.11718 h 12.1758 v 10.35156 0.35351 l 0.1172,0.35352 0.1777,0.29297 0.23569,0.29493 0.2344,0.17578 0.3535,0.17774 0.3535,0.11718 0.3535,0.0586 h 2.4102 l 0.2949,-0.0586 0.3535,-0.0586 0.2344,-0.11719 0.2949,-0.23633 0.2344,-0.17578 0.1777,-0.29492 0.1172,-0.29297 0.059,-0.29492 0.059,-0.29492 v -32.82227 l -0.059,-0.35351 -0.059,-0.29492 -0.1172,-0.29297 -0.1777,-0.23633 -0.2344,-0.23438 -0.2949,-0.17578 -0.2344,-0.17773 -0.3535,-0.0586 -0.2949,-0.0586 h -5.4707 l -0.3516,0.0586 -0.3535,0.11719 -0.2949,0.17774 -0.293,0.23437 -0.2363,0.23633 -0.1758,0.35156 -0.059,0.29492 -0.059,0.41211 v 4.23438 l -9.1172,9.11719 v -63.11719 -0.23438 l -0.1191,-0.29492 -0.059,-0.29297 -0.1758,-0.23633 -0.1758,-0.23437 -2.5312,-2.4707 2.5312,-2.5293 0.2344,-0.23633 0.1758,-0.35351 0.059,-0.35157 0.061,-0.35351 v -79.47071 h 12.1758 v 11.5293 0.35352 l 0.1172,0.35351 0.1777,0.29297 0.2344,0.29492 0.2344,0.23438 0.3535,0.17773 0.3535,0.0586 0.3535,0.0586 h 8.4707 0.3516 l 0.2949,-0.11719 0.293,-0.11914 0.2363,-0.17578 0.2344,-0.23438 0.1777,-0.23632 0.1172,-0.29492 0.1172,-0.35157 v -0.2949 -19.4707 V 4.7899741 l -0.059,-0.529297 -0.1172,-0.470703 -0.2363,-0.470703 -0.293,-0.46875 -0.3535,-0.353516 -0.4707,-0.294921 -0.4707,-0.234376 -0.4707,-0.177734 h -0.5293 -249.1758 z m 5.4121,7.882813 h 239.4102 V 260.20206 h -11.5293 l -0.3516,0.0586 -0.3535,0.0586 -0.3535,0.17773 -0.2344,0.23437 -0.2363,0.29493 -0.1758,0.29297 -0.1172,0.35351 v 0.35352 4.23437 0.35352 l 0.1172,0.35351 0.1758,0.35157 0.2363,0.23632 0.2344,0.23438 0.3535,0.17773 0.3535,0.11719 h 0.3516 11.5293 V 488.20206 H 289.46866 V 268.08487 h 11.5293 0.293 l 0.3535,-0.11719 0.2344,-0.11719 0.2949,-0.17773 0.2344,-0.23437 0.1777,-0.23633 0.1172,-0.29297 0.1172,-0.29492 v -0.35352 -4.23437 -0.29493 l -0.1172,-0.35156 -0.1172,-0.29492 -0.1777,-0.23438 -0.2344,-0.23632 -0.2949,-0.17578 -0.2344,-0.11914 -0.3535,-0.11719 h -0.293 -11.5293 z m 24.293,486.4706929 h 190.8242 v 227.41211 h -190.8242 z"
     style="fill:#212830;fill-opacity:1;stroke:#212830;stroke-width:0.0588235px;stroke-linecap:round;stroke-linejoin:round;stroke-miterlimit:4;stroke-dasharray:none;stroke-opacity:1"
     id="path995" />
</svg>
