<?xml version="1.0" encoding="UTF-8" standalone="no"?>
<svg
   xmlns:dc="http://purl.org/dc/elements/1.1/"
   xmlns:cc="http://creativecommons.org/ns#"
   xmlns:rdf="http://www.w3.org/1999/02/22-rdf-syntax-ns#"
   xmlns:svg="http://www.w3.org/2000/svg"
   xmlns="http://www.w3.org/2000/svg"
   id="svg839"
   height="163mm"
   width="163mm"
   version="1.0">
  <metadata
     id="metadata843">
    <rdf:RDF>
      <cc:Work
         rdf:about="">
        <dc:format>image/svg+xml</dc:format>
        <dc:type
           rdf:resource="http://purl.org/dc/dcmitype/StillImage" />
        <dc:title></dc:title>
      </cc:Work>
    </rdf:RDF>
  </metadata>
  <defs
     id="defs3" />
  <path
     d="m 187.44405,1.8254519 -0.3535,0.11719 -0.3516,0.17773 -0.3535,0.23438 -0.2363,0.23438 -0.2344,0.2949201 -0.1758,0.35351 -0.061,0.41211 -0.059,0.35156 v 11.82422 0.23438 l 0.059,0.17773 0.1191,0.23438 0.1172,0.17773 0.1758,0.17578 0.1777,0.11719 0.2344,0.11719 0.2363,0.0605 h 0.1758 6.1172 0.2363 l 0.2344,-0.0605 0.2363,-0.11719 0.1758,-0.11719 0.1758,-0.17578 0.1191,-0.17773 0.059,-0.23438 0.059,-0.17773 0.059,-0.23438 v -8.29492 h 8.7051 v 57.17774 l 0.059,0.23437 0.061,0.23633 0.1172,0.23437 0.1758,0.23633 1.8242,1.76367 -1.8242,1.82422 -0.1172,0.17578 -0.1172,0.17579 -0.059,0.17773 -0.061,0.17578 -0.059,0.23633 v 45.351558 l -6.5293,-6.5293 v -3.05859 -0.23437 l -0.059,-0.23633 -0.1172,-0.17578 -0.1172,-0.23633 -0.1777,-0.11719 -0.1758,-0.17578 -0.2363,-0.0586 -0.1758,-0.0586 -0.2344,-0.0605 h -3.9414 l -0.2949,0.0605 -0.2344,0.0586 -0.2363,0.11718 -0.1758,0.17578 -0.1758,0.17774 -0.1191,0.23437 -0.059,0.23633 -0.059,0.29297 v 23.58789 l 0.059,0.29492 0.059,0.23438 0.1191,0.23633 0.1758,0.17578 0.1758,0.17773 0.2363,0.11719 0.2344,0.0586 0.2949,0.0586 h 1.7051 l 0.2363,-0.0586 0.2344,-0.0586 0.2363,-0.0586 0.1758,-0.17774 0.1758,-0.11719 0.1191,-0.17578 0.059,-0.23633 0.059,-0.23437 0.059,-0.23633 v -7.41016 h 8.7051 v 49 h -8.7051 v -8.29492 l -0.059,-0.23632 -0.059,-0.23438 -0.059,-0.23438 -0.1191,-0.17773 -0.1758,-0.11719 -0.1758,-0.17578 -0.2363,-0.0605 -0.2344,-0.0586 -0.2363,-0.0586 h -6.1172 l -0.1758,0.0586 -0.2363,0.0586 -0.2344,0.0605 -0.1777,0.17578 -0.1758,0.11719 -0.1172,0.17773 -0.1191,0.23438 -0.059,0.23438 v 0.23632 449.23438 l 0.059,0.41211 0.061,0.35351 0.1758,0.35352 0.2344,0.29297 0.2363,0.29492 0.3535,0.17578 0.3516,0.17773 0.3535,0.11719 h 0.3535 179.2344 0.4121 l 0.3535,-0.11719 0.3516,-0.17773 0.2949,-0.17578 0.2949,-0.29492 0.2344,-0.29297 0.1172,-0.35352 0.1191,-0.35351 0.059,-0.41211 V 176.82545 h 59 l 0.3516,-0.0586 0.4121,-0.11719 0.3535,-0.11914 0.293,-0.23437 0.2363,-0.29493 0.2344,-0.29296 0.1769,-0.35351 0.1172,-0.35352 v -0.4121 -10.93946 -0.35351 l -0.1172,-0.35352 -0.1777,-0.35351 -0.2344,-0.29297 -0.2363,-0.29493 -0.293,-0.23437 -0.3535,-0.11719 -0.4121,-0.11914 -0.3516,-0.0586 h -7.4121 l -0.2363,0.0586 -0.2344,0.0586 -0.2363,0.0605 -0.1758,0.17578 -0.1172,0.11719 -0.1777,0.17773 -0.059,0.23438 -0.059,0.23438 -0.059,0.23632 v 1.70508 l 0.059,0.23633 0.059,0.23437 0.059,0.17774 0.1777,0.23437 0.1172,0.11719 0.1758,0.17774 0.2363,0.0586 0.2344,0.0586 0.2363,0.0586 h 3.9414 v 6.52929 h -26.2363 v -6.52927 h 3.8828 l 0.2344,-0.0586 0.2363,-0.0586 0.2344,-0.0586 0.1777,-0.17774 0.1758,-0.11719 0.1172,-0.23437 0.059,-0.17774 0.061,-0.23437 0.059,-0.23633 v -1.70508 l -0.059,-0.23632 -0.061,-0.23438 -0.059,-0.23438 -0.1172,-0.17773 -0.1758,-0.11719 -0.1777,-0.17578 -0.2344,-0.0605 -0.2363,-0.0586 -0.2344,-0.0586 h -7.4121 l -0.3535,0.0586 -0.4102,0.11914 -0.2949,0.11719 -0.3535,0.23437 -0.2344,0.29493 -0.2363,0.29297 -0.1758,0.35351 -0.059,0.35352 -0.059,0.35351 v 7.4707 h -41.1172 v -49 h 10.9395 l 0.4121,-0.0605 0.3535,-0.0586 0.3535,-0.17578 0.293,-0.23632 0.2949,-0.23438 0.1758,-0.35352 0.1777,-0.29296 0.1172,-0.41211 v -0.35352 -14 -0.23437 l -0.059,-0.23633 -0.1191,-0.17578 -0.1172,-0.23633 -0.1758,-0.11719 -0.1758,-0.17578 -0.1777,-0.0586 -0.2344,-0.0586 -0.2363,-0.0605 h -3.9414 l -0.2344,0.0605 -0.2363,0.0586 -0.1758,0.0586 -0.1758,0.17578 -0.1777,0.11719 -0.1172,0.23633 -0.1172,0.17578 -0.059,0.23633 v 0.23437 3.05859 l -6.5879,6.5293 v -45.351558 -0.29492 l -0.061,-0.23438 -0.1172,-0.23633 -0.1758,-0.17578 -1.8242,-1.82422 1.8242,-1.76367 0.1758,-0.23633 0.1172,-0.23437 0.061,-0.23633 v -0.23437 -57.17774 h 8.7637 v 8.29492 0.23438 l 0.059,0.17773 0.1172,0.23438 0.1191,0.17773 0.1758,0.17578 0.1758,0.11719 0.2363,0.11719 0.1758,0.0605 h 0.2363 6.1172 0.2344 l 0.2363,-0.0605 0.1758,-0.11719 0.2363,-0.11719 0.1172,-0.17578 0.1758,-0.17773 0.059,-0.23438 0.061,-0.17773 0.059,-0.23438 V 4.001292 l -0.059,-0.35156 -0.1191,-0.41211 -0.1172,-0.35351 -0.2344,-0.2949201 -0.2946,-0.23444 -0.2949,-0.23438 -0.3516,-0.17773 -0.3535,-0.11719 h -0.4121 -179.2344 z m 21.3535,5.7050801 h 137.293 V 171.12037 h -137.293 z m -16.5879,169.294918 h 170.4688 v 430.88282 h -170.4688 z"
     style="fill:#212830;fill-opacity:1;stroke:#212830;stroke-width:0.0588235px;stroke-linecap:round;stroke-linejoin:round;stroke-miterlimit:4;stroke-dasharray:none;stroke-opacity:1"
     id="path837" />
</svg>
