<?xml version="1.0" encoding="UTF-8" standalone="no"?>
<svg
   xmlns:dc="http://purl.org/dc/elements/1.1/"
   xmlns:cc="http://creativecommons.org/ns#"
   xmlns:rdf="http://www.w3.org/1999/02/22-rdf-syntax-ns#"
   xmlns:svg="http://www.w3.org/2000/svg"
   xmlns="http://www.w3.org/2000/svg"
   id="svg423"
   height="61mm"
   width="61mm"
   version="1.0">
  <metadata
     id="metadata427">
    <rdf:RDF>
      <cc:Work
         rdf:about="">
        <dc:format>image/svg+xml</dc:format>
        <dc:type
           rdf:resource="http://purl.org/dc/dcmitype/StillImage" />
        <dc:title></dc:title>
      </cc:Work>
    </rdf:RDF>
  </metadata>
  <defs
     id="defs3" />
  <path
     id="path421"
     d="m 215.04021,37.187352 0.059,0.76471 0.2353,0.70588 0.353,0.70589 0.4705,0.52941 0.5883,0.52941 0.647,0.35294 0.7059,0.17647 0.7647,0.11765 0.7647,-0.11765 0.7059,-0.17647 0.6471,-0.35294 0.5882,-0.52941 6.9412,-6.88236 0.647,-0.7647 0.5295,-0.88235 0.3529,-0.94118 0.2353,-0.94118 0.1176,-1.000001 v -2.82353 l -0.1176,-1.05882 -0.2941,-1.11765 -0.4706,-1 -0.6471,-0.88235 -0.7647,-0.82353 -0.9412,-0.64706 -1,-0.47059 -1.0588,-0.29411 -1.1176,-0.0588 H 6.5696264 l -1.11765,0.0588 -1.05882,0.29411 -1,0.47059 -0.94118,0.64706 -0.7647,0.82353 -0.64706,0.88235 -0.47058998,1 -0.29412,1.11765 -0.11764,1.05882 0.11764,1.11765 0.29412,1.11765 0.47058998,1 0.64706,0.882351 0.7647,0.82353 0.94118,0.64706 1,0.47059 1.05882,0.29411 1.11765,0.0588 V 198.42262 l -1.11765,0.11765 -1.05882,0.29411 -1,0.47059 -0.94118,0.64706 -0.7647,0.76471 -0.64706,0.94117 -0.47058998,1 -0.29412,1.05883 -0.11764,1.11764 0.11764,1.11765 0.29412,1.05882 0.47058998,1.05883 0.64706,0.88235 0.7647,0.82353 0.94118,0.58824 1,0.47058 1.05882,0.29412 1.11765,0.11765 H 19.334337 l 1.11764,-0.11765 1.11765,-0.29412 1,-0.47058 0.88235,-0.58824 0.82353,-0.82353 0.64706,-0.88235 0.47059,-1.05883 0.2353,-1.05882 0.11764,-1.11765 v -68.7647 l -0.0588,-0.76471 -0.2353,-0.70588 -0.35294,-0.70588 -0.47058,-0.52941 -5.29412,-5.29412 5.2941,-5.29409 0.41176,-0.47059 0.29412,-0.47059 0.23529,-0.58823 0.11765,-0.58824 0.0588,-0.58823 V 51.305002 l 0.11765,-1.58823 0.23529,-1.52942 0.47059,-1.47058 0.64706,-1.41177 0.82355,-1.29412 0.94118,-1.23529 1.05882,-1.05882 1.23529,-0.94118 1.29412,-0.82353 1.41177,-0.64706 1.47058,-0.47059 1.52942,-0.23529 1.58823,-0.11765 H 154.92261 v 49.88236 l 0.1176,1.11764 0.2941,1.11765 0.4706,1 0.5882,0.88235 0.8236,0.82353 0.8823,0.64706 1.0588,0.47059 1.0589,0.29412 1.1176,0.0588 h 62.6471 l 1.1176,-0.0588 1.0588,-0.29412 1,-0.47059 0.9412,-0.64706 0.7647,-0.82353 0.6471,-0.88235 0.4706,-1 0.2941,-1.11765 0.1176,-1.11764 v -2.76471 l -0.1176,-1 -0.2353,-0.94118 -0.3529,-0.94117 -0.5295,-0.88236 -0.647,-0.7647 -6.9412,-6.88236 -0.5882,-0.52941 -0.6471,-0.35294 -0.7059,-0.17647 -0.7647,-0.11765 -0.7647,0.11765 -0.7059,0.17647 -0.647,0.35294 -0.5883,0.52941 -0.4705,0.52942 -0.353,0.70588 -0.2353,0.70588 -0.059,0.76471 v 2.52941 h -44.7647 v -44.76471 h 44.7649 z"
     style="fill:#212830;fill-opacity:1;stroke:#212830;stroke-width:0.0588235px;stroke-linecap:round;stroke-linejoin:round;stroke-miterlimit:4;stroke-dasharray:none;stroke-opacity:1" />
</svg>
