<?xml version="1.0" encoding="UTF-8" standalone="no"?>
<svg
   xmlns:dc="http://purl.org/dc/elements/1.1/"
   xmlns:cc="http://creativecommons.org/ns#"
   xmlns:rdf="http://www.w3.org/1999/02/22-rdf-syntax-ns#"
   xmlns:svg="http://www.w3.org/2000/svg"
   xmlns="http://www.w3.org/2000/svg"
   id="svg671"
   height="183mm"
   width="183mm"
   version="1.0">
  <metadata
     id="metadata675">
    <rdf:RDF>
      <cc:Work
         rdf:about="">
        <dc:format>image/svg+xml</dc:format>
        <dc:type
           rdf:resource="http://purl.org/dc/dcmitype/StillImage" />
        <dc:title></dc:title>
      </cc:Work>
    </rdf:RDF>
  </metadata>
  <defs
     id="defs3" />
  <path
     d="m 260.03207,1.8560675 -0.3516,0.117187 -0.2949,0.119141 -0.2949,0.234375 -0.293,0.236328 -0.1777,0.2929691 -0.1758,0.353515 -0.059,0.353516 -0.059,0.351563 v 11.2949214 0.175782 l 0.0594,0.236328 0.1172,0.175781 0.1172,0.175781 0.1777,0.177735 0.1758,0.117187 0.1777,0.117188 0.2344,0.05859 h 0.1758 5.8828 0.1758 l 0.2363,-0.05859 0.1758,-0.117188 0.1777,-0.117187 0.1758,-0.177735 0.1172,-0.175781 0.1172,-0.175781 0.061,-0.236328 V 15.209583 7.2681766 h 8.3516 v 54.5292974 0.23438 l 0.059,0.23632 0.1191,0.23438 0.1758,0.17773 1.7051,1.70508 -1.7051,1.70703 -0.1172,0.17578 -0.1172,0.17578 -0.061,0.17774 -0.059,0.17578 v 0.17578 43.294926 l -6.293,-6.29492 v -2.88087 -0.23633 l -0.059,-0.23437 -0.1191,-0.17774 -0.1172,-0.17578 -0.1172,-0.17578 -0.1758,-0.119136 -0.2363,-0.0586 -0.1758,-0.0586 -0.2363,-0.0586 h -3.7637 l -0.1777,0.0586 -0.2344,0.0586 -0.1758,0.0586 -0.1777,0.119136 -0.1758,0.17578 -0.1172,0.17578 -0.1191,0.17774 -0.059,0.23437 v 0.23633 22.52931 0.23437 l 0.1172,0.23633 0.1191,0.17578 0.1172,0.23438 0.1758,0.11914 0.2363,0.11719 0.2344,0.0586 0.2363,0.0586 h 1.7051 l 0.1758,-0.0586 0.2363,-0.0586 0.1758,-0.0586 0.1777,-0.11719 0.1758,-0.17773 0.1172,-0.17578 0.1172,-0.17773 0.061,-0.23438 v -0.17578 -7.11914 h 8.3516 v 46.70703 h -8.3516 v -7.94141 -0.17578 l -0.061,-0.23633 -0.1172,-0.17578 -0.1172,-0.17773 -0.1758,-0.17578 -0.1777,-0.11719 -0.1758,-0.11719 -0.2363,-0.0605 h -0.1758 -5.8828 -0.175 l -0.2344,0.0605 -0.1777,0.11719 -0.1758,0.11719 -0.1777,0.17578 -0.1172,0.17773 -0.1172,0.17578 -0.059,0.23633 v 0.17578 532.47071 l 0.059,0.35351 0.059,0.35156 0.1758,0.35352 0.1777,0.29492 0.293,0.23438 0.2949,0.23632 0.2949,0.11719 0.3516,0.11719 h 0.4121 170.8242 0.3516 l 0.3535,-0.11719 0.3535,-0.11719 0.293,-0.23632 0.2363,-0.23438 0.2344,-0.29492 0.1191,-0.35352 0.1172,-0.35156 v -0.35351 -532.47071 -0.17578 l -0.059,-0.23633 -0.059,-0.17578 -0.1777,-0.17773 -0.1172,-0.17578 -0.1758,-0.11719 -0.2363,-0.11719 -0.1758,-0.0605 h -0.2363 -5.8223 -0.2363 l -0.1758,0.0605 -0.2363,0.11719 -0.1758,0.11719 -0.1172,0.17578 -0.1172,0.17773 -0.1191,0.17578 -0.059,0.23633 v 0.17578 7.94141 h -8.3516 v -46.70703 h 8.3516 v 7.11914 0.23437 l 0.059,0.23633 0.1191,0.17578 0.1758,0.23438 0.1758,0.11914 0.2363,0.11719 0.2344,0.0586 0.2363,0.0586 h 1.6465 l 0.2363,-0.0586 0.2344,-0.0586 0.1758,-0.0586 0.1777,-0.11719 0.1758,-0.17773 0.1172,-0.17578 0.059,-0.17773 0.061,-0.23438 0.059,-0.17578 v -22.52931 l -0.059,-0.23633 -0.061,-0.23437 -0.059,-0.17774 -0.1172,-0.17578 -0.1758,-0.17578 -0.1777,-0.119136 -0.1758,-0.0586 -0.2344,-0.0586 -0.2363,-0.0586 h -3.7051 l -0.2949,0.0586 -0.2344,0.0586 -0.1777,0.117186 -0.2344,0.17773 -0.1172,0.17578 -0.1191,0.23633 -0.059,0.23437 -0.059,0.23633 v 2.88087 l -6.2344,6.29492 v -43.294916 -0.17578 l -0.061,-0.17578 -0.059,-0.17774 -0.1172,-0.17578 -0.1172,-0.17578 -1.707,-1.70703 1.707,-1.70508 0.1172,-0.17773 0.1172,-0.23438 0.1191,-0.23632 V 61.797474 7.2681766 h 8.3516 v 7.9414064 0.234375 l 0.059,0.236328 0.1191,0.175782 0.1758,0.236328 0.1758,0.117187 0.2363,0.117188 0.2344,0.05859 0.2363,0.05859 h 5.8223 0.2363 l 0.1758,-0.05859 0.2363,-0.117188 0.1758,-0.117187 0.1172,-0.177735 0.1777,-0.175781 0.059,-0.175781 0.059,-0.236328 V 15.209583 3.9146616 3.5630986 l -0.1172,-0.353516 -0.1191,-0.353515 -0.2344,-0.2929691 -0.2363,-0.236328 -0.293,-0.234375 -0.3535,-0.119141 -0.3535,-0.117187 h -0.3516 -170.8242 z m 20.4121,5.4121091 h 130.8242 V 163.20959 H 280.44417 Z M 264.56137,168.6217 h 162.5293 v 514.9414 h -162.5293 z"
     style="fill:#212830;fill-opacity:1;stroke:#212830;stroke-width:0.0588235px;stroke-linecap:round;stroke-linejoin:round;stroke-miterlimit:4;stroke-dasharray:none;stroke-opacity:1"
     id="path667" />
</svg>
