<?xml version="1.0" encoding="UTF-8" standalone="no"?>
<svg
   xmlns:dc="http://purl.org/dc/elements/1.1/"
   xmlns:cc="http://creativecommons.org/ns#"
   xmlns:rdf="http://www.w3.org/1999/02/22-rdf-syntax-ns#"
   xmlns:svg="http://www.w3.org/2000/svg"
   xmlns="http://www.w3.org/2000/svg"
   id="svg1007"
   height="89mm"
   width="89mm"
   version="1.0">
  <metadata
     id="metadata1011">
    <rdf:RDF>
      <cc:Work
         rdf:about="">
        <dc:format>image/svg+xml</dc:format>
        <dc:type
           rdf:resource="http://purl.org/dc/dcmitype/StillImage" />
        <dc:title></dc:title>
      </cc:Work>
    </rdf:RDF>
  </metadata>
  <defs
     id="defs3" />
  <path
     id="path1005"
     d="m 258.04203,299.48311 v -7.52941 -0.41176 l -0.1176,-0.41177 -0.1765,-0.41176 -0.2941,-0.35294 -0.2942,-0.35294 -0.3529,-0.2353 -0.4118,-0.17647 -0.4117,-0.11765 h -0.4118 -15.8823 v -41.82353 h 7.5294 l 0.4117,-0.0588 0.4118,-0.11765 0.4118,-0.17647 0.3529,-0.23529 0.2941,-0.35294 0.2941,-0.35294 0.1765,-0.41177 0.1177,-0.41176 v -0.41177 -7.52941 -0.41176 l -0.1177,-0.47059 -0.1765,-0.35294 -0.2941,-0.35294 -0.2941,-0.35295 -0.3529,-0.23531 -0.4118,-0.17647 -0.4118,-0.11765 -0.4117,-0.0588 h -7.5294 V 101.24782 h 7.5294 0.4117 l 0.4118,-0.11765 0.4118,-0.17647 0.3529,-0.29412 0.2941,-0.29411 0.2941,-0.35294 0.1765,-0.411773 0.1177,-0.41176 v -0.41177 -7.52941 -0.47059 l -0.1177,-0.41176 -0.1765,-0.41177 -0.2941,-0.35294 -0.2941,-0.29412 -0.3529,-0.23529 -0.4118,-0.17647 -0.4118,-0.11765 -0.4117,-0.0588 h -7.5294 v -46 h 15.8823 l 0.4118,-0.0588 0.4117,-0.11764 0.4118,-0.17647 0.3529,-0.2353 0.2942,-0.29412 0.2941,-0.35294 0.1765,-0.41176 0.1176,-0.41177 v -0.47058 -7.52942 -0.41176 l -0.1176,-0.41177 -0.1765,-0.41176 -0.2941,-0.35294 -0.2942,-0.29412 -0.3529,-0.29412 -0.4118,-0.17647 -0.4117,-0.11764 h -0.4118 -14.2353 V 3.4242873 2.9536973 l -0.1176,-0.41176 -0.2353,-0.41177 -0.2353,-0.35294 -0.2941,-0.29412 -0.353,-0.23529 -0.4117,-0.17647 -0.4118,-0.11765004 -0.4118,-0.0588 h -39.2941 l -0.7647,0.0588 -0.7059,0.17647004 -0.647,0.35294 -0.5883,0.41177 -0.5294,0.47059 -0.4117,0.64706 -0.2942,0.64705 -0.1764,0.70589 -0.059,0.70588 v 22.5882297 0.41177 l 0.1177,0.47059 0.1765,0.35294 0.2941,0.35294 0.2941,0.35294 0.3529,0.23529 0.4118,0.17648 0.4118,0.11764 0.4117,0.0588 h 11.7059 l 0.4706,-0.0588 0.4118,-0.11764 0.4117,-0.17648 0.353,-0.23529 0.2941,-0.35294 0.2353,-0.35294 0.1765,-0.35294 0.1176,-0.47059 0.059,-0.41177 v -15.88235 h 16.7059 v 50.82353 l 0.059,0.47059 0.1177,0.47059 0.2353,0.41176 0.3529,0.41177 3.4118,3.47058 -3.4118,3.41177 -0.3529,0.41176 -0.2353,0.41177 -0.1177,0.47059 -0.059,0.47059 v 48.117643 l 0.059,0.47059 0.1177,0.47059 0.2353,0.47059 0.3529,0.35294 3.4118,3.47059 -3.4118,3.41176 -0.3529,0.41177 -0.2353,0.41176 -0.1177,0.47059 -0.059,0.52941 v 86.76471 l -12.5294,-12.52942 v -5.88235 l -0.059,-0.47059 -0.1177,-0.47058 -0.2353,-0.47059 -0.3529,-0.35294 -0.353,-0.29412 -0.4117,-0.2353 -0.4706,-0.17647 -0.5294,-0.0588 h -7.5294 l -0.4118,0.0588 -0.4118,0.11765 -0.4117,0.17647 -0.353,0.2353 -0.2941,0.35294 -0.2941,0.35294 -0.1765,0.35294 -0.1176,0.47059 v 0.41176 26.76471 l 0.059,0.70588 0.1765,0.70588 0.2941,0.70588 0.4118,0.58824 0.5294,0.52941 0.5882,0.41177 0.6471,0.29411 0.7058,0.17647 0.7648,0.0588 h 20.8823 v 32.41176 l 0.059,0.52941 0.1177,0.47059 0.2353,0.41177 0.3529,0.35294 3.4118,3.47059 -3.4118,3.47059 -0.3529,0.35294 -0.2353,0.41176 -0.1177,0.47059 -0.059,0.52941 v 50.82353 h -78.5882 v -14.23529 l -0.059,-0.70589 -0.1764,-0.70588 -0.2941,-0.70588 -0.4118,-0.58824 -0.5294,-0.47058 -0.5883,-0.47059 -0.647,-0.29412 -0.7059,-0.17647 -0.7647,-0.0588 h -14.1765 l -0.4706,0.0588 -0.4117,0.0588 -0.4118,0.2353 -0.3529,0.23529 -0.2941,0.29412 -0.2353,0.35294 -0.1765,0.41176 -0.1177,0.41177 -0.059,0.47059 v 3.29412 l 0.059,0.47058 0.1177,0.41177 0.1765,0.41176 0.2353,0.35294 0.2941,0.29412 0.3529,0.2353 0.4118,0.23529 0.4117,0.0588 0.4706,0.0588 h 7.5294 v 12.52941 H 89.218527 v -12.52941 h 7.5294 l 0.4117,-0.0588 0.4118,-0.0588 0.4118,-0.23529 0.3529,-0.2353 0.353,-0.29412 0.2353,-0.35294 0.1764,-0.41176 0.1177,-0.41177 v -0.47058 -3.29412 -0.52941 l -0.1765,-0.47059 -0.2353,-0.41177 -0.2941,-0.41176 -0.353,-0.29412 -0.4705,-0.23529 -0.4706,-0.11765 -0.4706,-0.0588 h -14.2353 l -0.7059,0.0588 -0.7059,0.17647 -0.647,0.29412 -0.5883,0.47059 -0.5294,0.47058 -0.4117,0.58824 -0.2942,0.70588 -0.2353,0.70588 -0.059,0.70589 v 20.88235 l 0.059,0.76471 0.2353,0.70588 0.2942,0.64706 0.4117,0.58823 0.5294,0.52941 0.5883,0.41177 0.647,0.29412 0.7059,0.17647 0.7059,0.11764 H 238.86553 l 0.4118,-0.0588 0.4118,-0.11765 0.4117,-0.17647 0.353,-0.23529 0.2941,-0.35294 0.2353,-0.35294 0.2353,-0.41177 0.1176,-0.41176 v -0.41177 -30.94117 h 14.2353 l 0.4118,-0.0588 0.4117,-0.11765 0.4118,-0.17647 0.3529,-0.23529 0.2942,-0.29412 0.2941,-0.41176 0.1765,-0.35294 0.1176,-0.41177 z"
     style="fill:#212830;fill-opacity:1;stroke:#212830;stroke-width:0.0588235px;stroke-linecap:round;stroke-linejoin:round;stroke-miterlimit:4;stroke-dasharray:none;stroke-opacity:1" />
</svg>
