<?xml version="1.0" encoding="UTF-8" standalone="no"?>
<svg
   xmlns:dc="http://purl.org/dc/elements/1.1/"
   xmlns:cc="http://creativecommons.org/ns#"
   xmlns:rdf="http://www.w3.org/1999/02/22-rdf-syntax-ns#"
   xmlns:svg="http://www.w3.org/2000/svg"
   xmlns="http://www.w3.org/2000/svg"
   id="svg1067"
   height="53mm"
   width="53mm"
   version="1.0">
  <metadata
     id="metadata1071">
    <rdf:RDF>
      <cc:Work
         rdf:about="">
        <dc:format>image/svg+xml</dc:format>
        <dc:type
           rdf:resource="http://purl.org/dc/dcmitype/StillImage" />
        <dc:title></dc:title>
      </cc:Work>
    </rdf:RDF>
  </metadata>
  <defs
     id="defs3" />
  <path
     id="path1065"
     d="m 78.56918,0.83403119 -0.2941,0.0588 -0.2353,0.0588 -0.2353,0.11765001 -0.2353,0.17647 -0.1765,0.17647 -0.1764,0.23529 -0.059,0.2353 -0.059,0.29411 v 0.29412 l 1.353,15.7647098 h -11.2942 l -2.0588,-2.05883 -0.1764,-0.17647 -0.2353,-0.11764 -0.2353,-0.11765 h -0.2942 -0.2352 -0.2353 l -0.2353,0.11765 -0.2353,0.11764 -0.2353,0.17647 -3.7059,3.70589 -0.2353,0.29411 -0.1765,0.29412 -0.1176,0.35294 v 0.29412 0.35294 l 0.059,0.35294 0.1177,0.35294 0.1764,0.29412 0.2353,0.23529 0.2941,0.17648 0.353,0.17647 0.2941,0.11764 h 0.3529 21.6471 0.2353 l 0.2941,-0.11764 0.2353,-0.11765 0.2353,-0.11765 0.1765,-0.23529 0.1176,-0.2353 0.1177,-0.23529 0.059,-0.29412 v -0.23529 L 82.33398,5.8339812 h 20.5294 l 0.8824,0.0588 0.8235,0.23529 0.8235,0.35294 0.7059,0.47059 0.5883,0.64706 0.4705,0.70588 0.4118,0.76471 0.1765,0.82353 0.1176,0.8823498 v 27.29412 0.29411 l 0.059,0.2353 0.1176,0.23529 0.1765,0.2353 0.1764,0.17647 0.1765,0.11764 0.2353,0.11765 0.2941,0.0588 0.2353,0.0588 h 14.8824 V 160.77508 h -14.8824 -0.2353 l -0.2941,0.0588 -0.2353,0.11765 -0.1765,0.17647 -0.1764,0.17647 -0.1765,0.17647 -0.1176,0.23529 -0.059,0.29412 v 0.2353 27.29411 l -0.1176,0.88236 -0.1765,0.82353 -0.4118,0.82353 -0.4705,0.70588 -0.5883,0.58823 -0.7059,0.47059 -0.8235,0.41177 -0.8235,0.23529 -0.8824,0.0588 h -20.5294 l 1.4118,-15.7647 v -0.29412 l -0.059,-0.23529 -0.1177,-0.29412 -0.1176,-0.2353 -0.1765,-0.17647 -0.2353,-0.17647 -0.2353,-0.11764 -0.2941,-0.0588 -0.2353,-0.0588 h -21.6471 l -0.3529,0.0588 -0.3529,0.11765 -0.353,0.17647 -0.2941,0.23529 -0.2353,0.29412 -0.1765,0.35294 -0.1176,0.35294 -0.059,0.35295 0.059,0.35294 0.1176,0.41176 0.1765,0.29412 0.2353,0.29412 3.7059,3.7647 0.2353,0.11765 0.2353,0.17647 0.2353,0.0588 0.2353,0.0588 h 0.2352 l 0.2942,-0.0588 0.2353,-0.0588 0.2353,-0.17647 0.1764,-0.11765 2.0588,-2.05882 h 11.2942 l -1.353,15.76471 v 0.23529 l 0.059,0.29412 0.059,0.23529 0.1764,0.2353 0.1765,0.23529 0.2353,0.11765 0.2353,0.17647 0.2353,0.0588 h 0.2941 60.5294 0.4706 l 0.4118,-0.11765 0.3529,-0.17647 0.353,-0.29411 0.3529,-0.29412 0.2353,-0.35294 0.1765,-0.41177 0.1176,-0.41176 0.059,-0.41177 v -10 l -0.059,-0.52941 -0.1765,-0.41176 -0.2353,-0.47059 -0.2941,-0.35294 -2.7059,-2.70589 -0.1764,-0.11764 -0.1765,-0.11765 -0.2353,-0.11765 -0.1765,-0.0588 h -0.2353 -4 -0.2352 l -0.2942,0.0588 -0.2353,0.11765 -0.1764,0.17647 -0.1765,0.17647 -0.1765,0.17647 -0.1176,0.2353 -0.059,0.29411 v 0.2353 6.94117 h -7.4706 v -4.47058 -0.2353 l -0.059,-0.23529 -0.1176,-0.2353 -0.1765,-0.23529 -0.1764,-0.17647 -0.1765,-0.17647 -0.2353,-0.11765 -0.2941,-0.0588 h -0.2353 -8.4706 v -17.41177 h 17.4118 v 1 0.29412 l 0.059,0.23529 0.1176,0.2353 0.1765,0.23529 0.1765,0.17647 0.1764,0.11765 0.2353,0.11765 0.2942,0.0588 0.2352,0.0588 h 4 l 0.2942,-0.0588 0.2353,-0.0588 0.2941,-0.17647 0.1764,-0.17647 2.7059,-2.64706 0.2941,-0.41177 0.2353,-0.41176 0.1765,-0.47059 0.059,-0.47059 v -0.11765 l -0.059,-0.41176 -0.1176,-0.41176 -0.1765,-0.41177 -0.2353,-0.35294 -0.3529,-0.29412 -0.353,-0.23529 -0.3529,-0.17647 -0.4118,-0.11765 -0.4706,-0.0588 h -4.9412 v -59 l -0.059,-0.29412 -0.059,-0.2353 -0.1176,-0.29411 -0.1765,-0.17647 -2.0588,-2.05883 2.0588,-2.058819 0.1765,-0.23529 0.1176,-0.2353 0.059,-0.29412 0.059,-0.29411 v -59 h 4.9412 0.4706 l 0.4118,-0.11765 0.3529,-0.17647 0.353,-0.2353 0.3529,-0.35294 0.2353,-0.35294 0.1765,-0.35294 0.1176,-0.41176 0.059,-0.47059 v -0.0588 l -0.059,-0.52941 -0.1765,-0.41176 -0.2353,-0.47059 -0.2941,-0.35294 -2.7059,-2.70588 -0.1764,-0.17647 -0.2941,-0.11765 -0.2353,-0.11765 h -0.2942 -4 -0.2352 l -0.2942,0.0588 -0.2353,0.11765 -0.1764,0.17647 -0.1765,0.17647 -0.1765,0.17647 -0.1176,0.2353 -0.059,0.29412 v 0.23529 1 h -17.4118 v -17.41177 h 8.4706 0.2353 l 0.2941,-0.0588 0.2353,-0.11765 0.1765,-0.11764 0.1764,-0.2353 0.1765,-0.17647 0.1176,-0.23529 0.059,-0.2353 v -0.29411 -4.4705898 h 7.4706 v 6.9411698 0.29412 l 0.059,0.2353 0.1176,0.23529 0.1765,0.23529 0.1765,0.17648 0.1764,0.11764 0.2353,0.11765 0.2942,0.0588 0.2352,0.0588 h 4 l 0.2353,-0.0588 0.1765,-0.0588 0.2353,-0.0588 0.1765,-0.11765 0.1764,-0.17647 2.7059,-2.64706 0.2941,-0.41177 0.2353,-0.41176 0.1765,-0.47059 0.059,-0.47059 V 3.3046212 l -0.059,-0.41176 -0.1176,-0.41177 -0.1765,-0.41176 -0.2353,-0.35295 -0.3529,-0.29411 -0.353,-0.2353 -0.3529,-0.17647 -0.4118,-0.11764001 -0.4706,-0.0588 z"
     style="fill:#212830;fill-opacity:1;stroke:#212830;stroke-width:0.0588235px;stroke-linecap:round;stroke-linejoin:round;stroke-miterlimit:4;stroke-dasharray:none;stroke-opacity:1" />
</svg>
