<?xml version="1.0" encoding="UTF-8" standalone="no"?>
<svg
   xmlns:dc="http://purl.org/dc/elements/1.1/"
   xmlns:cc="http://creativecommons.org/ns#"
   xmlns:rdf="http://www.w3.org/1999/02/22-rdf-syntax-ns#"
   xmlns:svg="http://www.w3.org/2000/svg"
   xmlns="http://www.w3.org/2000/svg"
   id="svg863"
   height="93mm"
   width="93mm"
   version="1.0">
  <metadata
     id="metadata867">
    <rdf:RDF>
      <cc:Work
         rdf:about="">
        <dc:format>image/svg+xml</dc:format>
        <dc:type
           rdf:resource="http://purl.org/dc/dcmitype/StillImage" />
        <dc:title></dc:title>
      </cc:Work>
    </rdf:RDF>
  </metadata>
  <defs
     id="defs3" />
  <path
     id="path861"
     d="m 195.36531,184.10096 3.4706,-3.47059 0.2941,-0.35294 0.2353,-0.41177 0.1176,-0.47059 0.059,-0.52941 v -53.29411 l 12.5295,12.52941 v 5.82353 l 0.059,0.52941 0.1765,0.47059 0.2352,0.41176 0.2942,0.41177 0.3529,0.29411 0.4706,0.2353 0.4706,0.11764 0.4706,0.0588 h 7.5294 l 0.4117,-0.0588 0.4706,-0.0588 0.353,-0.23529 0.3529,-0.2353 0.353,-0.29411 0.2353,-0.35295 0.1764,-0.41176 0.1177,-0.41177 0.059,-0.47058 V 117.1598 l -0.059,-0.70588 -0.2353,-0.70588 -0.2941,-0.64706 -0.4118,-0.58824 -0.5294,-0.52941 -0.5883,-0.41176 -0.647,-0.29412 -0.7059,-0.2353 -0.7059,-0.0588 h -20.9412 V 19.336288 h 78.5883 v 14.2353 l 0.059,0.70588 0.1765,0.70588 0.3529,0.64706 0.4118,0.58823 0.4706,0.52942 0.647,0.41176 0.6471,0.29412 0.7059,0.23529 0.7059,0.0588 h 14.2352 l 0.4118,-0.0588 0.4118,-0.11764 0.4117,-0.17648 0.353,-0.23529 0.2941,-0.35294 0.2941,-0.35294 0.1765,-0.35294 0.1176,-0.47059 v -0.41177 -3.35294 -0.41176 l -0.1176,-0.41177 -0.1765,-0.41176 -0.2941,-0.35294 -0.2941,-0.35294 -0.353,-0.2353 -0.4117,-0.17647 -0.4118,-0.11765 -0.4118,-0.0588 h -7.5294 V 16.806897 h 50.1177 v 12.529411 h -7.5294 l -0.4118,0.0588 -0.4118,0.11765 -0.4117,0.17647 -0.353,0.2353 -0.2941,0.35294 -0.2353,0.35294 -0.2353,0.41176 -0.1176,0.41177 v 0.41176 3.35294 0.41177 l 0.1176,0.47059 0.2353,0.35294 0.2353,0.35294 0.2941,0.35294 0.353,0.23529 0.4117,0.17648 0.4118,0.11764 0.4118,0.0588 h 14.2353 l 0.7058,-0.0588 0.7059,-0.23529 0.7059,-0.29412 0.5882,-0.41176 0.4706,-0.52942 0.4706,-0.58823 0.2941,-0.64706 0.1765,-0.70588 0.059,-0.70588 V 12.630407 l -0.059,-0.70588 -0.1765,-0.70589 -0.2941,-0.64705 -0.4706,-0.6470596 -0.4706,-0.47059 -0.5882,-0.41177 -0.7059,-0.35294 -0.7059,-0.17647 -0.7058,-0.0588 H 34.894698 l -0.47059,0.0588 -0.41176,0.11765 -0.41177,0.17647 -0.41176,0.29412 -0.29412,0.35294 -0.2353,0.41176 -0.17647,0.4117696 -0.0588,0.47059 -0.0588,0.41176 2.35294,26.588241 h -19.05883 l -3.41176,-3.47059 -0.35294,-0.29412 -0.41177,-0.17647 -0.411761,-0.17647 -0.41177,-0.0588 h -0.41176 l -0.4705896,0.0588 -0.41176,0.17647 -0.35294,0.17647 -0.35295,0.29412 -6.23529,6.29412 -0.41176,0.47058 -0.29412,0.58824 -0.17647,0.58823 -0.0588,0.64706 0.0588,0.58824 0.17647,0.64706 0.29412,0.52941 0.41176,0.52941 0.47059,0.41177 0.58823,0.29411 0.58824,0.17647 0.64706,0.0588 H 41.071208 l 0.47059,-0.0588 0.47059,-0.11764 0.41176,-0.2353 0.35294,-0.23529 0.29412,-0.35294 0.29412,-0.41177 0.11764,-0.41176 0.11765,-0.47059 v -0.47059 L 41.247678,16.806877 H 187.01231 V 334.63037 H 41.247638 l 2.35294,-26.52941 v -0.47059 l -0.11765,-0.41177 -0.11764,-0.47058 -0.29412,-0.35295 -0.29412,-0.35294 -0.35294,-0.29411 -0.41176,-0.17647 -0.47059,-0.17648 H 41.071168 4.7182274 l -0.64706,0.0588 -0.58824,0.17647 -0.58823,0.29412 -0.47059,0.41176 -0.41176,0.47059 -0.29412,0.58823 -0.17647,0.58824 -0.0588,0.64706 0.0588,0.64706 0.17647,0.58823 0.29412,0.52941 0.41176,0.52942 6.23529,6.23529 0.35295,0.29412 0.35294,0.23529 0.41176,0.17647 0.4705896,0.0588 h 0.41176 l 0.41177,-0.0588 0.411761,-0.17647 0.41177,-0.23529 0.35294,-0.29412 3.41176,-3.41176 h 19.05883 l -2.35294,26.52941 0.0588,0.47059 0.0588,0.47058 0.17647,0.41177 0.2353,0.41176 0.29412,0.29412 0.41176,0.29412 0.41177,0.23529 0.4118,0.11768 0.47059,0.0588 H 228.83591 l 0.7058,-0.11764 0.7059,-0.17647 0.6471,-0.29412 0.5882,-0.41177 0.5294,-0.52941 0.4118,-0.58823 0.2941,-0.64706 0.2353,-0.70588 0.059,-0.76471 v -22.52941 l -0.059,-0.47059 -0.1176,-0.41177 -0.1765,-0.41174 -0.2353,-0.35294 -0.3529,-0.29412 -0.353,-0.23529 -0.3529,-0.2353 -0.4706,-0.0588 -0.4118,-0.0588 h -11.7059 l -0.4705,0.0588 -0.4706,0.11765 -0.4706,0.23529 -0.353,0.29412 -0.2941,0.41176 -0.2353,0.41177 -0.1764,0.47059 -0.059,0.52941 v 15.88235 h -16.7059 v -142.82353 -0.41176 l -0.1176,-0.35294 -0.1176,-0.41177 -0.2353,-0.29412 -0.2353,-0.29411 z"
     style="fill:#212830;fill-opacity:1;stroke:#212830;stroke-width:0.0588235px;stroke-linecap:round;stroke-linejoin:round;stroke-miterlimit:4;stroke-dasharray:none;stroke-opacity:1" />
</svg>
