<?xml version="1.0" encoding="UTF-8" standalone="no"?>
<svg
   xmlns:dc="http://purl.org/dc/elements/1.1/"
   xmlns:cc="http://creativecommons.org/ns#"
   xmlns:rdf="http://www.w3.org/1999/02/22-rdf-syntax-ns#"
   xmlns:svg="http://www.w3.org/2000/svg"
   xmlns="http://www.w3.org/2000/svg"
   id="svg1539"
   height="100mm"
   width="100mm"
   version="1.0">
  <metadata
     id="metadata1543">
    <rdf:RDF>
      <cc:Work
         rdf:about="">
        <dc:format>image/svg+xml</dc:format>
        <dc:type
           rdf:resource="http://purl.org/dc/dcmitype/StillImage" />
        <dc:title></dc:title>
      </cc:Work>
    </rdf:RDF>
  </metadata>
  <defs
     id="defs3" />
  <path
     id="path1537"
     d="M 207.03508,315.7999 V 62.152844 l 0.2941,-3.58823 0.9412,-3.47059 1.5294,-3.29412 2.0589,-2.94117 2.5294,-2.52942 2.9411,-2.05882 3.2353,-1.52941 3.4706,-0.94118 3.5883,-0.29411 h 20.1176 l 2,0.17647 1.8824,0.58823 1.7647,0.88235 1.5294,1.2353 1.2941,1.52941 0.9412,1.70588 0.647,1.82353 0.2353,2 0.9412,7.29412 2.0588,7.05882 3.2353,6.64706 4.2941,6 5.2353,5.2353 1.5883,1.05882 1.7647,0.82353 1.8823,0.41176 1.8824,0.11765 1.9412,-0.29412 1.8235,-0.64706 1.647,-0.94117 1.4706,-1.29412 1.2353,-1.47059 0.8824,-1.70588 3.1765,-7.64706 0.2941,-0.94118 0.059,-1 -0.059,-1 -0.2941,-0.94117 -0.4706,-0.88236 -0.5883,-0.7647 -0.7647,-0.64706 -2.9412,-2.47059 -2.4117,-3 -1.7647,-3.35294 -1.0588,-3.70588 -0.353,-3.76471 0.4118,-3.82353 1.1176,-3.64706 1.8236,-3.35294 2.4705,-2.94117 2.9412,-2.41177 3.353,-1.82353 3.7058,-1.05882 3.7647,-0.41177 3.8236,0.41177 3.647,1.05882 3.353,1.82353 3,2.41177 2.4117,2.94117 1.8236,3.35294 1.1176,3.64706 0.4118,3.82353 -0.353,3.76471 -1.0588,3.70588 -1.7647,3.35294 -2.4118,3 -2.8823,2.47059 -0.7647,0.64706 -0.6471,0.7647 -0.4706,0.88236 -0.2941,0.94117 -0.059,1 0.1176,1 0.2942,0.94118 3.1176,7.64706 0.8824,1.70588 1.2353,1.47059 1.4705,1.29412 1.6471,0.94117 1.8235,0.64706 1.9412,0.29412 1.9412,-0.11765 1.8823,-0.41176 1.7647,-0.82353 1.5883,-1.05882 5.4117,-5.47059 4.4118,-6.35294 3.2353,-7 2,-7.41177 0.6471,-7.70588 v -39.17647 l -0.1177,-1.7647101 -0.4706,-1.7647 -0.7647,-1.58824 -1.0586,-1.52941 -1.2353,-1.23529 -1.4706,-1.05883 -1.647,-0.76470007 -1.7059,-0.41177 -1.8236,-0.17647 h -48.1764 l -0.4706,0.0588 -0.4706,0.0588 -0.4706,0.23529 -0.4118,0.2353 -0.3529,0.29410997 -9.4118,9.4117702 h -175.1764 l -9.411801,-9.4117702 -0.3529,-0.29410997 -0.4118,-0.2353 -0.4706,-0.23529 -0.4706,-0.0588 -0.4706,-0.0588 h -48.1764 l -1.7647,0.17647 -1.7647,0.41177 -1.6471,0.76470007 -1.4706,1.05883 -1.2353,1.23529 -1.0588,1.52941 -0.7647,1.58824 -0.4118,1.7647 -0.1765,1.7647101 v 39.17647 l 0.6471,7.70588 2,7.41177 3.2353,7 4.4118,6.35294 5.4706,5.47059 1.5882,1.05882 1.7647,0.82353 1.8823,0.41176 1.8824,0.11765 1.9412,-0.29412 1.8235,-0.64706 1.7059,-0.94117 1.4118,-1.29412 1.2352,-1.47059 0.8824,-1.70588 3.1765,-7.64706 0.2941,-0.94118 0.059,-1 -0.059,-1 -0.2941,-0.94117 -0.4706,-0.88236 -0.5883,-0.7647 -0.7647,-0.64706 -2.9411,-2.47059 -2.4118,-3 -1.7647,-3.35294 -1.0588,-3.70588 -0.353,-3.76471 0.4118,-3.82353 1.1176,-3.64706 1.8236,-3.35294 2.4706,-2.94117 2.9411,-2.41177 3.353,-1.82353 3.7059,-1.05882 3.7647,-0.41177 3.8235,0.41177 3.6471,1.05882 3.3529,1.82353 3,2.41177 2.4118,2.94117 1.8235,3.35294 1.1176,3.64706 0.4118,3.82353 -0.3529,3.76471 -1.0589,3.70588 -1.7647,3.35294 -2.4117,3 -2.8824,2.47059 -0.7647,0.64706 -0.6471,0.7647 -0.4705,0.88236 -0.2942,0.94117 -0.059,1 0.1177,1 0.2941,0.94118 3.1176,7.64706 0.8824,1.70588 1.2353,1.47059 1.4706,1.29412 1.647,0.94117 1.8236,0.64706 1.9411,0.29412 1.9412,-0.11765 1.882401,-0.41176 1.7647,-0.82353 1.5882,-1.05882 5.2353,-5.2353 4.2353,-6 3.2353,-6.64706 2.1176,-7.05882 0.8824,-7.29412 0.2353,-2 0.647,-1.82353 1,-1.70588 1.2353,-1.52941 1.5883,-1.2353 1.7058,-0.88235 1.9412,-0.58823 1.9412,-0.17647 h 20.1176 l 3.5883,0.29411 3.4706,0.94118 3.2353,1.52941 2.9411,2.05882 2.5883,2.52942 2.0588,2.94117 1.4706,3.29412 0.9412,3.47059 0.3529,3.58823 V 315.7999 l -0.3529,3.58824 -0.9412,3.47059 -1.4706,3.23529 -2.0588,2.94118 -2.5883,2.52941 -2.9411,2.05882 -3.2353,1.52941 -3.4706,0.94118 -3.5883,0.29412 h -20.1174 l -1.9412,-0.17647 -1.9412,-0.52941 -1.7058,-0.94118 -1.5883,-1.23529 -1.2353,-1.47059 -1,-1.70589 -0.647,-1.88235 -0.2353,-1.94117 -0.8824,-7.35295 -2.1176,-7.05882 -3.2353,-6.64706 -4.2353,-6 -5.2353,-5.17647 -1.5882,-1.11765 -1.7647,-0.7647 -1.882401,-0.47059 -1.9412,-0.0588 -1.9411,0.29411 -1.8236,0.58824 -1.647,1 -1.4706,1.23529 -1.2353,1.52942 -0.8824,1.70588 -3.1176,7.58823 -0.2941,0.94118 -0.1177,1 0.059,1 0.2942,0.94118 0.4705,0.94117 0.6471,0.76471 0.7647,0.64706 2.8824,2.47059 2.4117,2.94117 1.7647,3.41177 1.0589,3.64706 0.3529,3.82352 -0.4118,3.82353 -1.1176,3.64706 -1.8235,3.35294 -2.4118,2.94118 -3,2.41177 -3.3529,1.7647 -3.6471,1.11765 -3.8235,0.35294 -3.7647,-0.35294 -3.7059,-1.11765 -3.353,-1.7647 -2.9411,-2.41177 -2.4706,-2.94118 -1.8236,-3.35294 -1.1176,-3.64706 -0.4118,-3.82353 0.353,-3.82352 1.0588,-3.64706 1.7647,-3.41177 2.4118,-2.94117 2.9411,-2.47059 0.7647,-0.64706 0.5883,-0.76471 0.4706,-0.94117 0.2941,-0.94118 0.059,-1 -0.059,-1 -0.2941,-0.94118 -3.1765,-7.58823 -0.8824,-1.70588 -1.2352,-1.52942 -1.4118,-1.23529 -1.7059,-1 -1.8235,-0.58824 -1.9412,-0.29411 -1.8824,0.0588 -1.8823,0.47059 -1.7647,0.7647 -1.5882,1.11765 -5.4706,5.47059 -4.4118,6.29412 -3.2353,7 -2,7.47059 -0.6471,7.64705 v 39.17647 l 0.1765,1.82353 0.4118,1.70589 0.7647,1.64706 1.0588,1.47058 1.2353,1.29412 1.4706,1 1.6471,0.76471 1.7647,0.47059 1.7647,0.17647 h 48.1764 l 0.4706,-0.0588 0.4706,-0.11764 0.4706,-0.17648 0.4118,-0.23529 0.3529,-0.35294 9.411801,-9.41177 h 175.1764 l 9.4118,9.41177 0.3529,0.35294 0.4118,0.23529 0.4706,0.17648 0.4706,0.11764 0.4706,0.0588 h 48.1764 l 1.8236,-0.17647 1.7059,-0.47059 1.647,-0.76471 1.4706,-1 1.2353,-1.29412 1.0588,-1.47058 0.7647,-1.64706 0.4706,-1.70589 0.1177,-1.82353 v -39.17647 l -0.6471,-7.64705 -2,-7.47059 -3.2353,-7 -4.4118,-6.29412 -5.4117,-5.47059 -1.5883,-1.11765 -1.7647,-0.7647 -1.8823,-0.47059 -1.9412,-0.0588 -1.9412,0.29411 -1.8235,0.58824 -1.6471,1 -1.4705,1.23529 -1.2353,1.52942 -0.8824,1.70588 -3.1176,7.58823 -0.2942,0.94118 -0.1176,1 0.059,1 0.2941,0.94118 0.4706,0.94117 0.6471,0.76471 0.7647,0.64706 2.8823,2.47059 2.4118,2.94117 1.7647,3.41177 1.0588,3.64706 0.353,3.82352 -0.4118,3.82353 -1.1176,3.64706 -1.8236,3.35294 -2.4117,2.94118 -3,2.41177 -3.353,1.7647 -3.647,1.11765 -3.8236,0.35294 -3.7647,-0.35294 -3.7058,-1.11765 -3.353,-1.7647 -2.9412,-2.41177 -2.4705,-2.94118 -1.8236,-3.35294 -1.1176,-3.64706 -0.4118,-3.82353 0.353,-3.82352 1.0588,-3.64706 1.7647,-3.41177 2.4117,-2.94117 2.9412,-2.47059 0.7647,-0.64706 0.5883,-0.76471 0.4706,-0.94117 0.2941,-0.94118 0.059,-1 -0.059,-1 -0.2941,-0.94118 -3.1765,-7.58823 -0.8824,-1.70588 -1.2353,-1.52942 -1.4706,-1.23529 -1.647,-1 -1.8235,-0.58824 -1.9412,-0.29411 -1.8824,0.0588 -1.8823,0.47059 -1.7647,0.7647 -1.5883,1.11765 -5.2353,5.17647 -4.2941,6 -3.2353,6.64706 -2.0588,7.05882 -0.9412,7.35295 -0.2353,1.94117 -0.647,1.88235 -0.9412,1.70589 -1.2941,1.47059 -1.5294,1.23529 -1.7647,0.94118 -1.8824,0.52941 -2,0.17647 h -20.1176 l -3.5883,-0.29412 -3.4706,-0.94118 -3.2353,-1.52941 -2.9411,-2.05882 -2.5294,-2.52941 -2.0589,-2.94118 -1.5294,-3.23529 -0.9412,-3.47059 z"
     style="fill:#212830;fill-opacity:1;stroke:#212830;stroke-width:0.0588235px;stroke-linecap:round;stroke-linejoin:round;stroke-miterlimit:4;stroke-dasharray:none;stroke-opacity:1" />
</svg>
