<?xml version="1.0" encoding="UTF-8" standalone="no"?>
<svg
   xmlns:dc="http://purl.org/dc/elements/1.1/"
   xmlns:cc="http://creativecommons.org/ns#"
   xmlns:rdf="http://www.w3.org/1999/02/22-rdf-syntax-ns#"
   xmlns:svg="http://www.w3.org/2000/svg"
   xmlns="http://www.w3.org/2000/svg"
   id="svg927"
   height="88mm"
   width="88mm"
   version="1.0">
  <metadata
     id="metadata931">
    <rdf:RDF>
      <cc:Work
         rdf:about="">
        <dc:format>image/svg+xml</dc:format>
        <dc:type
           rdf:resource="http://purl.org/dc/dcmitype/StillImage" />
        <dc:title></dc:title>
      </cc:Work>
    </rdf:RDF>
  </metadata>
  <defs
     id="defs3" />
  <path
     id="path925"
     d="m 332.56401,112.53452 -0.059,-0.64706 -0.1765,-0.64706 -0.2941,-0.64706 -0.353,-0.52941 -0.4706,-0.47059 -0.5882,-0.41177 -0.5882,-0.23529 -0.6471,-0.17647 -0.647,-0.0588 h -154.4706 l -0.7059,0.0588 -0.7647,0.23529 -0.6471,0.35295 -0.5882,0.47058 -5.2353,5.2353 -5.2941,-5.2353 -0.4706,-0.41176 -0.4706,-0.29412 -0.5882,-0.23529 -0.5883,-0.17647 H 158.32851 3.9167435 l -0.70588,0.0588 -0.64706,0.17647 -0.58824,0.23529 -0.52941,0.41177 -0.47059002,0.47059 -0.41176,0.52941 -0.29412,0.64706 -0.17647,0.64706 -0.0588,0.64706 v 104.94117 l 0.11764,1.11765 0.29412,1.05882 0.47059,1 0.64706002,0.94118 0.7647,0.76471 0.94118,0.64705 1,0.47059 1.05882,0.29412 1.11765,0.11765 h 6.4117705 l 1.11782,-0.11763 1.05883,-0.29412 1,-0.47059 0.94117,-0.64705 0.76471,-0.76471 0.64706,-0.94118 0.47059,-1 0.29411,-1.05882 0.0588,-1.11765 v -31.52941 h 40.29415 l 0.7647,-0.0588 0.7059,-0.2353 0.647,-0.29411 0.5294,-0.47059 0.5294,-0.52941 0.353,-0.64706 0.2353,-0.70589 0.1176,-0.70588 -0.059,-0.7647 -0.1765,-0.70589 -0.2941,-0.64706 -0.4706,-0.58823 -0.5294,-0.52941 -1.6471,-1.41177 -1.5294,-1.58823 -1.4117,-1.64706 -1.1765,-1.82353 -1.0588,-1.94118 -0.8824,-2 -0.7059,-2.05882 -0.5294,-2.17647 -0.2941,-2.17647 -0.1176,-2.17647 0.059,-2.17647 0.2941,-2.17647 0.4706,-2.11765 0.6471,-2.11765 0.8823,-2 1,-1.94117 1.1765,-1.88236 1.4117,-1.70588 1.4706,-1.58823 1.6471,-1.41177 1.7647,-1.29412 1.8823,-1.17647 2,-0.94117 2.0589,-0.76471 2.0588,-0.58824 2.1765,-0.41176 2.1764,-0.17647 h 2.1765 l 2.23533,0.17645 2.1176,0.41176 2.1177,0.58824 2.0588,0.76471 1.9412,0.94117 1.8823,1.17647 1.7648,1.29412 1.647,1.41177 1.5294,1.58823 1.353,1.70588 1.2353,1.88236 1,1.94117 0.8235,2 0.705896,2.11765 0.4706,2.11765 0.2941,2.17647 0.059,2.17647 -0.1176,2.17647 -0.2942,2.17647 -0.5294,2.17647 -0.705896,2.05882 -0.8823,2 -1.0588,1.94118 -1.2353,1.82353 -1.353,1.64706 -1.5294,1.58823 -1.7059,1.41177 -0.5294,0.52941 -0.4117,0.58823 -0.2942,0.64706 -0.1764,0.70589 -0.059,0.7647 0.1177,0.70588 0.2353,0.70589 0.3529,0.64706 0.4706,0.52941 0.5883,0.47059 0.647,0.29411 0.7059,0.2353 0.7059,0.0588 h 17.941196 v 31.52941 l 0.059,1.11765 0.2941,1.05882 0.4706,1 0.647,0.94118 0.8236,0.76471 0.8823,0.64705 1,0.47059 1.1177,0.29412 1.0588,0.11765 h 6.4118 l 1.1176,-0.11765 1.0588,-0.29412 1,-0.47059 0.9412,-0.64705 0.7647,-0.76471 0.6471,-0.94118 0.4706,-1 0.2941,-1.05882 0.1176,-1.11765 v -31.52941 h 17.8824 l 0.7647,-0.0588 0.7059,-0.2353 0.647,-0.29411 0.5294,-0.47059 0.5294,-0.52941 0.353,-0.64706 0.2353,-0.70589 0.059,-0.70588 v -0.7647 l -0.1765,-0.70589 -0.2941,-0.64706 -0.4706,-0.58823 -0.5294,-0.52941 -1.647,-1.41177 -1.5295,-1.58823 -1.4117,-1.64706 -1.2353,-1.82353 -1.0588,-1.94118 -0.8824,-2 -0.647,-2.05882 -0.5295,-2.17647 -0.2941,-2.17647 -0.1176,-2.17647 0.059,-2.17647 0.2941,-2.17647 0.4706,-2.11765 0.6471,-2.11765 0.8235,-2 1.0588,-1.94117 1.1765,-1.88236 1.3529,-1.70588 1.5294,-1.58823 1.6471,-1.41177 1.7647,-1.29412 1.8824,-1.17647 2,-0.94117 2,-0.76471 2.1176,-0.58824 2.1765,-0.41176 2.1764,-0.17647 h 2.1765 l 2.1765,0.17647 2.1765,0.41176 2.1176,0.58824 2.0588,0.76471 1.9412,0.94117 1.8824,1.17647 1.7647,1.29412 1.647,1.41177 1.5294,1.58823 1.353,1.70588 1.1764,1.88236 1.0589,1.94117 0.8235,2 0.7059,2.11765 0.4706,2.11765 0.2353,2.17647 0.1176,2.17647 -0.1176,2.17647 -0.353,2.17647 -0.4706,2.17647 -0.7058,2.05882 -0.8824,2 -1.0588,1.94118 -1.2353,1.82353 -1.353,1.64706 -1.5882,1.58823 -1.6471,1.41177 -0.5294,0.52941 -0.4117,0.58823 -0.2941,0.64706 -0.1765,0.70589 -0.059,0.7647 0.1176,0.70588 0.2353,0.70589 0.3529,0.64706 0.4706,0.52941 0.5883,0.47059 0.647,0.29411 0.7059,0.2353 0.7059,0.0588 h 17.9412 v 31.52941 l 0.059,1.11765 0.2941,1.05882 0.4706,1 0.6471,0.94118 0.7647,0.76471 0.9411,0.64705 1,0.47059 1.0589,0.29412 1.1176,0.11765 h 6.4118 l 1.1176,-0.11765 1.0588,-0.29412 1,-0.47059 0.9412,-0.64705 0.7647,-0.76471 0.6471,-0.94118 0.4706,-1 0.2941,-1.05882 0.1176,-1.11765 v -31.52941 h 17.8824 l 0.7647,-0.0588 0.7059,-0.2353 0.647,-0.29411 0.5294,-0.47059 0.4706,-0.52941 0.4118,-0.64706 0.2353,-0.70589 0.059,-0.70588 v -0.7647 l -0.1765,-0.70589 -0.2941,-0.64706 -0.4706,-0.58823 -0.5294,-0.52941 -1.647,-1.41177 -1.5294,-1.58823 -1.4118,-1.64706 -1.2353,-1.82353 -1.0588,-1.94118 -0.8824,-2 -0.7059,-2.05882 -0.4705,-2.17647 -0.2942,-2.17647 -0.1176,-2.17647 0.059,-2.17647 0.2941,-2.17647 0.4706,-2.11765 0.6471,-2.11765 0.8235,-2 1.0588,-1.94117 1.1765,-1.88236 1.3529,-1.70588 1.5295,-1.58823 1.647,-1.41177 1.7647,-1.29412 1.8824,-1.17647 1.9411,-0.94117 2.0589,-0.76471 2.1176,-0.58824 2.1765,-0.41176 2.1765,-0.17647 h 2.1764 l 2.1754,0.17647 2.1765,0.41176 2.1176,0.58824 2.0588,0.76471 1.9412,0.94117 1.8824,1.17647 1.7647,1.29412 1.647,1.41177 1.5294,1.58823 1.353,1.70588 1.1765,1.88236 1.0588,1.94117 0.8235,2 0.7059,2.11765 0.4706,2.11765 0.2353,2.17647 0.1176,2.17647 -0.1176,2.17647 -0.353,2.17647 -0.4706,2.17647 -0.7058,2.05882 -0.8824,2 -1.0588,1.94118 -1.2353,1.82353 -1.4118,1.64706 -1.5294,1.58823 -1.647,1.41177 -0.5295,0.52941 -0.4117,0.58823 -0.353,0.64706 -0.1176,0.70589 -0.059,0.7647 0.1176,0.70588 0.2353,0.70589 0.353,0.64706 0.4705,0.52941 0.5883,0.47059 0.647,0.29411 0.7059,0.2353 0.7059,0.0588 h 40.2941 v 31.52941 l 0.1177,1.11765 0.2941,1.05882 0.4706,1 0.5882,0.94118 0.8235,0.76471 0.8824,0.64705 1.0588,0.47059 1.0588,0.29412 1.1177,0.11765 h 6.3529 l 1.1177,-0.11765 1.1176,-0.29412 1,-0.47059 0.8824,-0.64705 0.8235,-0.76471 0.6471,-0.94118 0.4705,-1 0.2353,-1.05882 0.1177,-1.11765 z"
     style="fill:#212830;fill-opacity:1;stroke:#212830;stroke-width:0.0588235px;stroke-linecap:round;stroke-linejoin:round;stroke-miterlimit:4;stroke-dasharray:none;stroke-opacity:1" />
</svg>
