<?xml version="1.0" encoding="UTF-8" standalone="no"?>
<svg
   xmlns:dc="http://purl.org/dc/elements/1.1/"
   xmlns:cc="http://creativecommons.org/ns#"
   xmlns:rdf="http://www.w3.org/1999/02/22-rdf-syntax-ns#"
   xmlns:svg="http://www.w3.org/2000/svg"
   xmlns="http://www.w3.org/2000/svg"
   id="svg793"
   height="129mm"
   width="129mm"
   version="1.0">
  <metadata
     id="metadata797">
    <rdf:RDF>
      <cc:Work
         rdf:about="">
        <dc:format>image/svg+xml</dc:format>
        <dc:type
           rdf:resource="http://purl.org/dc/dcmitype/StillImage" />
        <dc:title></dc:title>
      </cc:Work>
    </rdf:RDF>
  </metadata>
  <defs
     id="defs3" />
  <path
     d="m 4.6900185,81.602768 -0.70507,0.0605 -0.64844,0.17579 -0.64649,0.29297 -0.58789,0.4121 -0.5292901,0.47071 -0.35352,0.58789 -0.35350996,0.64844 -0.17579,0.70507 -0.0586,0.70703 v 21.880862 l 0.0586,0.41211 0.11719,0.41211 0.17774,0.35352 0.23436996,0.35156 0.29492,0.29492 0.3515701,0.29492 0.35351,0.17579 0.41211,0.0586 0.4707,0.0586 H 14.455649 l 0.41016,-0.0586 0.4121,-0.0586 0.35352,-0.17579 0.35352,-0.29492 0.29296,-0.29492 0.23633,-0.35156 0.17578,-0.35352 0.11719,-0.41211 0.0586,-0.41211 V 92.132059 h 16.17773 V 198.1926 l 0.0586,0.4707 0.17578,0.41016 0.17774,0.4707 0.35156,0.35352 3.29492,3.35352 -3.29492,3.29296 -0.29297,0.29493 -0.17773,0.35351 -0.17578,0.35156 -0.0586,0.35352 -0.0586,0.41211 v 84.11719 L 20.926349,280.2512 v -5.64844 l -0.0605,-0.41016 -0.11719,-0.41211 -0.17578,-0.41211 -0.23633,-0.35351 -0.29297,-0.29297 -0.35352,-0.23633 -0.35351,-0.17578 -0.41016,-0.11719 -0.4707,-0.0605 h -7.29492 l -0.41211,0.0605 -0.412111,0.11719 -0.3515595,0.17578 -0.35352,0.23633 -0.29492,0.29297 -0.23438,0.35351 -0.17578,0.41211 -0.11914,0.41211 -0.0586,0.41016 v 43.76562 l 0.0586,0.47071 0.11914,0.35351 0.17578,0.41016 0.23438,0.35351 0.29492,0.29493 0.35352,0.23437 0.3515595,0.17773 0.412111,0.11719 0.41211,0.0586 h 3.29492 l 0.41016,-0.0586 0.4121,-0.11719 0.35352,-0.17773 0.35352,-0.23437 0.29296,-0.29493 0.23633,-0.35351 0.17578,-0.41016 0.11719,-0.35351 0.0586,-0.47071 v -13.76562 h 16.17773 v 90.82422 h -16.17773 v -15.41211 l -0.0586,-0.47071 -0.11719,-0.4707 -0.23437,-0.41016 -0.29492,-0.35351 -0.41211,-0.29492 -0.41211,-0.23438 -0.41016,-0.11719 -0.4707,-0.0605 H 3.1021285 l -0.4707,0.0605 -0.4707,0.11719 -0.41211,0.23438 -0.4121101,0.29492 -0.29297,0.35351 -0.23632996,0.41016 -0.11719,0.4707 -0.05859,0.47072 v 21.88281 l 0.0586,0.70508 0.17579,0.70703 0.35350996,0.64648 0.35352,0.58789 0.5292901,0.47071 0.58789,0.41211 0.64649,0.29492 0.64844,0.17578 0.70507,0.0586 H 345.10214 l 0.7051,-0.0586 0.707,-0.17578 0.5879,-0.29492 0.5879,-0.41211 0.5293,-0.47071 0.4121,-0.58789 0.2949,-0.64648 0.1758,-0.70703 0.059,-0.70508 v -52.70508 h 70.5293 0.4121 l 0.4121,-0.11914 0.3516,-0.17578 0.3535,-0.23438 0.2949,-0.35351 0.2344,-0.29492 0.1777,-0.41211 0.1172,-0.41016 0.059,-0.41211 v -7.29492 l -0.059,-0.41211 -0.1172,-0.41016 -0.1777,-0.4121 -0.2344,-0.35352 -0.2949,-0.29492 -0.3535,-0.23438 -0.3516,-0.17578 -0.4121,-0.11914 -0.4121,-0.0586 h -30 V 248.8391 l -0.059,-0.47071 -0.1172,-0.4707 -0.2363,-0.41211 -0.293,-0.35351 -3.3535,-3.35157 3.3535,-3.35351 0.293,-0.35352 0.2363,-0.41016 0.1172,-0.4707 0.059,-0.4707 V 92.132069 h 27.5293 v 13.765621 l 0.059,0.70508 0.1777,0.70703 0.293,0.64648 0.4121,0.5293 0.5293,0.5293 0.5879,0.41211 0.6484,0.29492 0.6465,0.17578 0.7051,0.0586 h 13.7656 l 0.4707,-0.0586 0.4121,-0.0586 0.3516,-0.17579 0.3535,-0.29492 0.2949,-0.29492 0.2344,-0.35156 0.1758,-0.35352 0.1191,-0.41211 0.059,-0.41211 v -3.23437 l -0.059,-0.4707 -0.1191,-0.41211 -0.1758,-0.35352 -0.2344,-0.35156 -0.2949,-0.29492 -0.3535,-0.23438 -0.3516,-0.17773 -0.4121,-0.11719 -0.4707,-0.0586 h -7.2949 V 89.663288 h 48.6484 v 12.175792 h -7.2949 l -0.4121,0.0586 -0.4121,0.11719 -0.4121,0.17773 -0.3516,0.23438 -0.2949,0.29492 -0.2344,0.35156 -0.1777,0.35352 -0.1172,0.41211 v 0.4707 3.23437 0.41211 l 0.1172,0.41211 0.1777,0.35352 0.2344,0.35156 0.2949,0.29492 0.3516,0.29492 0.4121,0.17579 0.4121,0.0586 0.4121,0.0586 h 13.7637 l 0.707,-0.0586 0.7051,-0.17578 0.6484,-0.29492 0.5879,-0.41211 0.4707,-0.5293 0.4121,-0.5293 0.293,-0.64648 0.1758,-0.70703 0.061,-0.70508 V 85.663308 l -0.061,-0.70703 -0.1758,-0.70507 -0.293,-0.64844 -0.4121,-0.58789 -0.4707,-0.47071 -0.5879,-0.4121 -0.6484,-0.29297 -0.7051,-0.17579 -0.707,-0.0605 z M 43.631429,92.132069 H 379.16073 V 338.66331 h -38.1172 l -0.4707,0.0586 -0.4707,0.11719 -0.4121,0.23437 -0.3535,0.29492 -0.293,0.35352 -0.2363,0.4707 -0.1172,0.41016 -0.059,0.4707 v 54.35352 H 43.631429 v -46.23438 h 13.76562 0.41016 l 0.41211,-0.11914 0.35352,-0.17578 0.35351,-0.23438 0.29297,-0.35351 0.29492,-0.29492 0.17578,-0.41211 0.0586,-0.41016 0.0586,-0.41211 v -5.70703 l -0.0586,-0.41016 -0.0586,-0.4121 -0.17578,-0.35352 -0.29492,-0.35352 -0.29297,-0.29296 -0.35351,-0.23633 -0.35352,-0.17578 -0.41211,-0.11719 -0.41016,-0.0586 h -13.76562 z"
     style="fill:#212830;fill-opacity:1;stroke:#212830;stroke-width:0.0588235px;stroke-linecap:round;stroke-linejoin:round;stroke-miterlimit:4;stroke-dasharray:none;stroke-opacity:1"
     id="path789" />
</svg>
