<?xml version="1.0" encoding="UTF-8" standalone="no"?>
<svg
   xmlns:dc="http://purl.org/dc/elements/1.1/"
   xmlns:cc="http://creativecommons.org/ns#"
   xmlns:rdf="http://www.w3.org/1999/02/22-rdf-syntax-ns#"
   xmlns:svg="http://www.w3.org/2000/svg"
   xmlns="http://www.w3.org/2000/svg"
   id="svg885"
   height="101mm"
   width="101mm"
   version="1.0">
  <metadata
     id="metadata889">
    <rdf:RDF>
      <cc:Work
         rdf:about="">
        <dc:format>image/svg+xml</dc:format>
        <dc:type
           rdf:resource="http://purl.org/dc/dcmitype/StillImage" />
        <dc:title></dc:title>
      </cc:Work>
    </rdf:RDF>
  </metadata>
  <defs
     id="defs3" />
  <path
     d="m 70.043863,0.80754261 -0.5293,0.17578 -0.5293,0.23437999 -0.4707,0.29492 -0.35352,0.4121101 -0.35351,0.41211 -0.17578,0.5293 -0.17579,0.52929 -0.0605,0.5293 V 147.747 l 0.0605,0.4121 0.11719,0.35352 0.17578,0.29492 0.23633,0.29297 0.29297,0.23633 0.29492,0.17578 0.35157,0.11719 0.4121,0.0586 h 8.82422 l 0.41211,-0.0586 0.35157,-0.11719 0.29492,-0.17578 0.29492,-0.23633 0.23437,-0.29297 0.17579,-0.29492 0.11914,-0.35352 0.0586,-0.4121 v -12 h 12.64648 v 82.82421 0.35352 l 0.11719,0.41211 0.17774,0.29297 0.23437,0.29492 2.64649,2.58789 -2.64649,2.64648 -0.23437,0.29493 -0.17774,0.29297 -0.11719,0.35351 v 0.41211 65.70508 l -9.52929,-9.4707 v -4.46876 -0.29492 l -0.11719,-0.35351 -0.11719,-0.29297 -0.17773,-0.23633 -0.23438,-0.23437 -0.29492,-0.23633 -0.29298,-0.11719 -0.29492,-0.11719 h -0.35352 -5.70507 l -0.35352,0.0586 -0.35351,0.0586 -0.35157,0.17578 -0.29492,0.23633 -0.23437,0.29297 -0.17774,0.35351 -0.0586,0.35352 -0.0586,0.35351 v 34.23437 0.35352 l 0.11719,0.29296 0.11914,0.29493 0.17578,0.29297 0.23438,0.23632 0.29492,0.17578 0.29492,0.11914 0.35156,0.11719 h 0.29493 2.52929 0.35352 l 0.29297,-0.11719 0.29492,-0.11914 0.29297,-0.17578 0.23633,-0.23632 0.17578,-0.29297 0.17773,-0.29493 0.0586,-0.29296 0.0586,-0.35352 V 301.747 h 12.64648 v 70.9414 h -12.64648 v -12 l -0.0586,-0.41016 -0.11914,-0.35351 -0.17579,-0.29492 -0.23437,-0.29297 -0.29492,-0.23633 -0.29492,-0.17578 -0.35157,-0.11719 -0.41211,-0.0605 h -8.82422 l -0.4121,0.0605 -0.35157,0.11719 -0.29492,0.17578 -0.29297,0.23633 -0.23633,0.29297 -0.17578,0.29492 -0.11719,0.35351 -0.0605,0.41016 v 17.0586 l 0.0605,0.58984 0.17579,0.5293 0.17578,0.4707 0.35351,0.4707 0.35352,0.41016 0.4707,0.29492 0.5293,0.23438 0.5293,0.11914 0.52929,0.0586 H 311.21963 l 0.5293,-0.0586 0.5293,-0.11914 0.4707,-0.23438 0.4707,-0.29492 0.4121,-0.41016 0.293,-0.4707 0.2363,-0.4707 0.1758,-0.5293 v -0.58984 -15.82227 -0.5293 l -0.1758,-0.52929 -0.2363,-0.5293 -0.293,-0.4707 -0.4121,-0.35352 -0.4707,-0.35352 -0.4707,-0.23437 -0.5293,-0.11719 -0.5293,-0.0605 h -10.7637 l -0.4121,0.0605 -0.3535,0.11719 -0.2949,0.17578 -0.293,0.23633 -0.2363,0.29297 -0.1758,0.29492 -0.1172,0.35351 -0.059,0.41016 v 2.5293 l 0.059,0.35351 0.1172,0.35352 0.1758,0.35351 0.2363,0.23438 0.293,0.23438 0.2949,0.17773 0.3535,0.11719 0.4121,0.0586 h 5.6465 v 9.4707 h -37.9414 v -9.4707 h 5.6465 l 0.4121,-0.0586 0.3535,-0.11719 0.293,-0.17773 0.2949,-0.23438 0.2344,-0.23438 0.1777,-0.35351 0.1172,-0.35352 0.059,-0.35351 v -2.5293 l -0.059,-0.41016 -0.1172,-0.35351 -0.1777,-0.29492 -0.2344,-0.29297 -0.2949,-0.23633 -0.293,-0.17578 -0.3535,-0.11719 -0.4121,-0.0605 h -10.7637 l -0.5293,0.0605 -0.5293,0.11719 -0.4707,0.23437 -0.4707,0.35352 -0.4121,0.35352 -0.2949,0.4707 -0.2344,0.5293 -0.1777,0.52929 v 0.5293 10.76367 H 200.39541 V 301.747 h 15.82422 l 0.5293,-0.0586 0.5293,-0.11719 0.5293,-0.23437 0.4121,-0.35352 0.4121,-0.35351 0.293,-0.47071 0.2363,-0.52929 0.1758,-0.5293 0.059,-0.5293 v -20.29297 l -0.059,-0.35351 -0.1172,-0.35352 -0.1758,-0.35351 -0.2363,-0.29297 -0.293,-0.23633 -0.2949,-0.17578 -0.3535,-0.0586 -0.4102,-0.0586 h -5.6484 l -0.4121,0.0586 -0.3516,0.0586 -0.2949,0.17578 -0.293,0.23633 -0.2363,0.29297 -0.1758,0.35351 -0.1191,0.35352 -0.059,0.35351 v 4.46876 l -9.47072,9.4707 v -65.70508 l -0.0586,-0.41211 -0.11718,-0.35351 -0.17578,-0.29297 -0.23633,-0.29493 -2.58748,-2.64648 2.58789,-2.58789 0.23633,-0.29492 0.17578,-0.29297 0.11718,-0.41211 0.0586,-0.35352 V 135.747 h 12.64842 v 12 l 0.059,0.4121 0.1172,0.35352 0.1758,0.29492 0.2363,0.29297 0.2344,0.23633 0.3535,0.17578 0.3535,0.11719 0.3516,0.0586 h 8.8828 l 0.3535,-0.0586 0.3535,-0.11719 0.3516,-0.17578 0.2949,-0.23633 0.2344,-0.29297 0.1773,-0.29492 0.1172,-0.35352 V 147.747 3.9247327 v -0.5293 l -0.1758,-0.52929 -0.2363,-0.5293 -0.293,-0.41211 -0.4121,-0.4121101 -0.4707,-0.29492 -0.4707,-0.23437999 -0.5293,-0.17578 h -0.5293 -151.999987 z m 4.9414,7.58789009 h 71.587887 71.52929 V 128.1591 h -33.52929 -0.35351 l -0.29492,0.0586 -0.29297,0.17773 -0.29493,0.17578 -0.23437,0.23633 -0.17773,0.29297 -0.17579,0.29492 -0.0586,0.29297 -0.0586,0.35352 v 4.41211 l 0.0586,0.41211 0.11719,0.35156 0.17773,0.29492 0.23438,0.29492 0.29492,0.23438 0.29297,0.17578 0.35351,0.11914 0.41211,0.0586 h 7.58789 v 236.9414 H 146.57315 100.98526 V 136.39543 h 7.58789 l 0.35157,-0.0586 0.35351,-0.11914 0.35352,-0.17578 0.29297,-0.23438 0.23632,-0.29492 0.17578,-0.29492 0.11914,-0.35156 v -0.41211 -4.41211 -0.35352 l -0.11914,-0.41016 -0.17578,-0.29492 -0.23632,-0.29492 -0.29297,-0.23437 -0.35352,-0.17579 -0.35351,-0.11914 h -0.35157 -33.587887 z"
     style="fill:#212830;fill-opacity:1;stroke:#212830;stroke-width:0.0588235px;stroke-linecap:round;stroke-linejoin:round;stroke-miterlimit:4;stroke-dasharray:none;stroke-opacity:1"
     id="path881" />
</svg>
