<?xml version="1.0" encoding="UTF-8" standalone="no"?>
<svg
   xmlns:dc="http://purl.org/dc/elements/1.1/"
   xmlns:cc="http://creativecommons.org/ns#"
   xmlns:rdf="http://www.w3.org/1999/02/22-rdf-syntax-ns#"
   xmlns:svg="http://www.w3.org/2000/svg"
   xmlns="http://www.w3.org/2000/svg"
   id="svg535"
   height="102mm"
   width="102mm"
   version="1.0">
  <metadata
     id="metadata539">
    <rdf:RDF>
      <cc:Work
         rdf:about="">
        <dc:format>image/svg+xml</dc:format>
        <dc:type
           rdf:resource="http://purl.org/dc/dcmitype/StillImage" />
        <dc:title></dc:title>
      </cc:Work>
    </rdf:RDF>
  </metadata>
  <defs
     id="defs3" />
  <path
     id="path533"
     d="m 184.93227,200.43238 h -55.8823 v -24.23529 l -0.1177,-1.11765 -0.2941,-1.05882 -0.4706,-1.05883 -0.5882,-0.88235 -0.8236,-0.76471 -0.88231,-0.64705 -1,-0.47059 -1.11765,-0.29412 -1.05882,-0.11765 H 94.638162 l -0.7647,0.0588 -0.70588,0.23529 -0.64706,0.35294 -0.58824,0.47059 -0.47059,0.58824 -0.35294,0.64705 -0.23529,0.76471 -0.0588,0.70588 v 7.64706 l 0.0588,0.76471 0.23529,0.70588 0.35294,0.64706 0.47059,0.58823 0.58824,0.47059 0.64706,0.35294 0.70588,0.2353 0.7647,0.0588 h 17.823528 v 15.35294 H 18.167582 v -15.35294 h 17.82353 l 0.70588,-0.0588 0.64706,-0.17647 0.58823,-0.2353 0.52941,-0.41176 0.47059,-0.47059 0.41177,-0.52941 0.23529,-0.58824 0.17647,-0.64706 0.0588,-0.70588 v -7.64706 l -0.0588,-0.64706 -0.17647,-0.64706 -0.23529,-0.58823 -0.41177,-0.58824 -0.47059,-0.47058 -0.52941,-0.35295 -0.58823,-0.29411 -0.64706,-0.17647 -0.70588,-0.0588 H 7.9911114 l -1.11765,0.11765 -1.05883,0.29412 -1.05882,0.47059 -0.88235,0.64705 -0.76471,0.76471 -0.64706,0.88235 -0.47058,1.05883 -0.29412,1.05882 -0.11765,1.11765 v 33.11764 l 0.11765,1.11765 0.29412,1.05883 0.47058,1.05882 0.64706,0.88235 0.76471,0.76471 0.88235,0.64706 1.05882,0.47058 1.05883,0.29412 1.11765,0.11765 H 377.57937 l 1.1176,-0.11765 1.0588,-0.29412 1,-0.47058 0.9412,-0.64706 0.7647,-0.76471 0.6471,-0.88235 0.4706,-1.05882 0.2941,-1.05883 0.059,-1.11765 v -33.11764 l -0.059,-1.11765 -0.2941,-1.05882 -0.4706,-1.05883 -0.6471,-0.88235 -0.7647,-0.76471 -0.9412,-0.64705 -1,-0.47059 -1.0588,-0.29412 -1.1176,-0.11765 h -28.0589 l -0.647,0.0588 -0.6471,0.17647 -0.5882,0.29411 -0.5294,0.35295 -0.4706,0.47058 -0.4118,0.58824 -0.2941,0.58823 -0.1765,0.64706 -0.059,0.64706 v 7.64706 l 0.059,0.70588 0.1765,0.64706 0.2941,0.58824 0.4118,0.52941 0.4706,0.47059 0.5294,0.41176 0.5882,0.2353 0.6471,0.17647 0.647,0.0588 h 17.8824 v 15.35294 h -94.3529 v -15.35294 h 17.8823 l 0.7059,-0.0588 0.7647,-0.2353 0.6471,-0.35294 0.5882,-0.47059 0.4706,-0.58823 0.3529,-0.64706 0.1765,-0.70588 0.1176,-0.76471 v -7.64706 l -0.1176,-0.70585 -0.1765,-0.76471 -0.3529,-0.64705 -0.4706,-0.58824 -0.5882,-0.47059 -0.6471,-0.35294 -0.7647,-0.23529 -0.7059,-0.0588 h -28.0588 l -1.1177,0.11765 -1.0588,0.29412 -1,0.47059 -0.9412,0.64705 -0.7647,0.76471 -0.647,0.88235 -0.4706,1.05883 -0.2941,1.05882 -0.059,1.11765 v 24.23529 h -55.647 l -0.7647,0.0588 -0.7059,0.17647 -0.6471,0.35294 -0.5882,0.52941 -5.2353,5.23529 -5.2941,-5.23529 -0.5882,-0.52941 -0.6471,-0.35294 -0.7059,-0.17647 z"
     style="fill:#212830;fill-opacity:1;stroke:#212830;stroke-width:0.0588235px;stroke-linecap:round;stroke-linejoin:round;stroke-miterlimit:4;stroke-dasharray:none;stroke-opacity:1" />
</svg>
