<?xml version="1.0" encoding="UTF-8" standalone="no"?>
<svg
   xmlns:dc="http://purl.org/dc/elements/1.1/"
   xmlns:cc="http://creativecommons.org/ns#"
   xmlns:rdf="http://www.w3.org/1999/02/22-rdf-syntax-ns#"
   xmlns:svg="http://www.w3.org/2000/svg"
   xmlns="http://www.w3.org/2000/svg"
   id="svg861"
   height="89mm"
   width="89mm"
   version="1.0">
  <metadata
     id="metadata865">
    <rdf:RDF>
      <cc:Work
         rdf:about="">
        <dc:format>image/svg+xml</dc:format>
        <dc:type
           rdf:resource="http://purl.org/dc/dcmitype/StillImage" />
        <dc:title></dc:title>
      </cc:Work>
    </rdf:RDF>
  </metadata>
  <defs
     id="defs3" />
  <path
     d="m 126.42509,0.92433226 -0.707,0.0586 -0.7051,0.17773004 -0.7051,0.29297 -0.5898,0.41211 -0.5293,0.5293 -0.4102,0.58789 -0.2949,0.70703 -0.1758,0.70508 -0.059,0.70508 V 27.689962 l 0.059,0.4707 0.1172,0.46876 0.2344,0.4707 0.2949,0.35351 0.4121,0.29493 0.4121,0.23437 0.4707,0.17773 h 0.4688 11.707 0.4707 l 0.4121,-0.11914 0.4102,-0.17578 0.3535,-0.23632 0.2949,-0.35157 0.2344,-0.35351 0.1777,-0.41211 0.1172,-0.41211 0.059,-0.41016 v -15.88281 h 16.7051 V 121.16066 l 0.059,0.46876 0.1191,0.4707 0.2344,0.4707 0.3535,0.35352 3.4121,3.4707 -3.4121,3.41211 -0.2949,0.29297 -0.1758,0.35351 -0.1758,0.35352 -0.061,0.41211 -0.059,0.35156 v 86.82421 l -12.5293,-12.58789 v -5.82422 l -0.059,-0.41211 -0.1172,-0.4707 -0.1758,-0.35156 -0.2363,-0.35352 -0.293,-0.35352 -0.3535,-0.23437 -0.4121,-0.17773 -0.4121,-0.11719 -0.4707,-0.0586 h -7.4707 l -0.5293,0.0586 -0.4707,0.17773 -0.4121,0.17578 -0.4102,0.35352 -0.2949,0.35156 -0.2344,0.4707 -0.1191,0.47071 -0.059,0.4707 v 26.76563 l 0.059,0.70507 0.1777,0.70703 0.293,0.64649 0.4707,0.64648 0.4707,0.47071 0.5879,0.41211 0.707,0.35351 0.7051,0.17578 0.707,0.0586 h 20.8809 v 93.70508 H 77.071087 v -14.23438 l -0.059,-0.76562 -0.1758,-0.64649 -0.2949,-0.70508 -0.4121,-0.58789 -0.5293,-0.5293 -0.5879,-0.4121 -0.6465,-0.29493 -0.707,-0.17578 -0.7637,-0.0586 h -14.1777 l -0.4688,0.0586 -0.4707,0.11719 -0.4707,0.23438 -0.3535,0.29492 -0.3535,0.41211 -0.2344,0.41211 -0.1172,0.4707 -0.06,0.4707 v 3.35156 l 0.06,0.5293 0.1172,0.4707 0.2344,0.41211 0.3535,0.35352 0.3535,0.35351 0.4707,0.23438 0.4707,0.11719 0.4688,0.0586 h 7.5312 v 12.5293 h -50.17771 v -12.5293 h 7.5293 l 0.41211,-0.0586 0.4716,-0.11719 0.35352,-0.17578 0.35156,-0.23633 0.35351,-0.29297 0.23633,-0.35351 0.17578,-0.41211 0.11719,-0.41211 0.0586,-0.47071 v -3.35156 l -0.0586,-0.41211 -0.11719,-0.41211 -0.17578,-0.41211 -0.23633,-0.35351 -0.35351,-0.29297 -0.35156,-0.29492 -0.35352,-0.17578 -0.4707,-0.11719 H 23.600877 9.3664973 l -0.70703,0.0586 -0.70508,0.17578 -0.64648,0.29493 -0.58984,0.4121 -0.5293,0.5293 -0.41016,0.58789 -0.29492,0.70507 -0.17578,0.64649 -0.11914,0.76562 v 20.88281 l 0.11914,0.76367 0.17578,0.70704 0.29492,0.64648 0.41016,0.58789 0.5293,0.5293 0.58984,0.41211 0.64648,0.29492 0.70508,0.17578 0.70703,0.0586 H 327.01299 l 0.7656,-0.0586 0.7051,-0.17578 0.6465,-0.29492 0.5879,-0.41211 0.5312,-0.5293 0.4102,-0.58789 0.2949,-0.64648 0.1758,-0.70704 0.059,-0.76367 v -22.58789 -0.41211 l -0.1172,-0.41211 -0.1758,-0.41211 -0.2949,-0.35351 -0.293,-0.29297 -0.3535,-0.29492 -0.4121,-0.17578 -0.4121,-0.11719 h -0.4121 -11.7051 l -0.5293,0.0586 -0.4707,0.11719 -0.4121,0.23438 -0.3516,0.29492 -0.3535,0.41211 -0.2363,0.41211 -0.1172,0.4707 -0.059,0.4707 v 15.93946 h -16.7051 v -93.70509 h 16.7051 v 14.23632 l 0.059,0.46876 0.1172,0.4707 0.2363,0.41211 0.3535,0.41211 0.3516,0.29492 0.4121,0.23437 0.4707,0.17579 h 0.5293 3.3535 0.4121 l 0.4102,-0.11719 0.4121,-0.17578 0.3535,-0.29493 0.2949,-0.29296 0.234,-0.35352 0.2344,-0.41211 0.1191,-0.41211 v -0.41016 -45.17773 -0.41211 l -0.1191,-0.4707 -0.2344,-0.35156 -0.2344,-0.35352 -0.2949,-0.35352 -0.3535,-0.23437 -0.4121,-0.17773 -0.4102,-0.11719 -0.4121,-0.0586 h -7.5293 l -0.4707,0.0586 -0.4121,0.11719 -0.4121,0.17773 -0.3535,0.23437 -0.293,0.35352 -0.2363,0.35352 -0.1758,0.35156 -0.1172,0.4707 -0.059,0.41211 v 5.82422 l -12.5289,12.58789 v -86.82422 l -0.061,-0.35156 -0.059,-0.41211 -0.1758,-0.35352 -0.1758,-0.35351 -0.2949,-0.29297 -3.4121,-3.41211 3.4121,-3.4707 0.3535,-0.35352 0.2344,-0.4707 0.1172,-0.4707 0.061,-0.46876 V 11.807142 h 16.7055 v 15.88281 l 0.059,0.4707 0.1172,0.46876 0.2363,0.4707 0.3535,0.35351 0.3516,0.29493 0.4121,0.23437 0.4707,0.17773 h 0.5293 11.7051 0.4121 l 0.4121,-0.11914 0.4121,-0.17578 0.3535,-0.23632 0.293,-0.35157 0.2949,-0.35351 0.1758,-0.41211 0.1172,-0.41211 V 27.689952 5.1001123 l -0.059,-0.70508 -0.1758,-0.70508 -0.2949,-0.70703 -0.4102,-0.58789 -0.5312,-0.5293 -0.5879,-0.41211 -0.6465,-0.29297 -0.7051,-0.17773004 -0.7656,-0.0586 z m 40.1172,10.88280974 h 120.3535 V 324.62941 h -120.3535 z"
     style="fill:#212830;fill-opacity:1;stroke:#212830;stroke-width:0.0588235px;stroke-linecap:round;stroke-linejoin:round;stroke-miterlimit:4;stroke-dasharray:none;stroke-opacity:1"
     id="path859" />
</svg>
