<?xml version="1.0" encoding="UTF-8" standalone="no"?>
<svg
   xmlns:dc="http://purl.org/dc/elements/1.1/"
   xmlns:cc="http://creativecommons.org/ns#"
   xmlns:rdf="http://www.w3.org/1999/02/22-rdf-syntax-ns#"
   xmlns:svg="http://www.w3.org/2000/svg"
   xmlns="http://www.w3.org/2000/svg"
   id="svg2053"
   height="209mm"
   width="209mm"
   version="1.0">
  <metadata
     id="metadata2057">
    <rdf:RDF>
      <cc:Work
         rdf:about="">
        <dc:format>image/svg+xml</dc:format>
        <dc:type
           rdf:resource="http://purl.org/dc/dcmitype/StillImage" />
        <dc:title></dc:title>
      </cc:Work>
    </rdf:RDF>
  </metadata>
  <defs
     id="defs3" />
  <path
     d="m 115.01805,237.13641 -0.70508,0.0586 -0.64648,0.17773 -0.64844,0.29297 -0.5293,0.41211 -0.4707,0.4707 -0.41016,0.58789 -0.29492,0.58984 -0.17578,0.64649 -0.0586,0.70508 v 21.29492 0.41211 l 0.11719,0.41016 0.17578,0.35351 0.23633,0.35352 0.29297,0.29297 0.35352,0.23632 0.35351,0.17578 0.41016,0.11914 h 0.41211 11.05859 0.41211 l 0.41211,-0.11914 0.35352,-0.17578 0.35156,-0.23632 0.29492,-0.29297 0.23438,-0.35352 0.17773,-0.35351 0.0586,-0.41016 0.0586,-0.41211 v -15 h 15.76562 v 103.17578 l 0.0586,0.4707 0.11718,0.47071 0.23438,0.41211 0.29492,0.35351 3.23438,3.23438 -3.23438,3.23632 -0.23438,0.29297 -0.23632,0.35352 -0.11719,0.29297 -0.0586,0.35351 -0.0586,0.41211 v 81.88282 l -11.82422,-11.88282 v -5.52929 l -0.0586,-0.41211 -0.11719,-0.47071 -0.23633,-0.41211 -0.29297,-0.35156 -0.3535,-0.29492 -0.41211,-0.23438 -0.41211,-0.11914 -0.4707,-0.0586 h -7.11719 l -0.4707,0.0586 -0.41211,0.11914 -0.41211,0.23438 -0.35156,0.29492 -0.29493,0.35156 -0.23437,0.41211 -0.11914,0.47071 -0.0586,0.41211 v 25.29297 l 0.0586,0.64843 0.17773,0.70508 0.29297,0.58789 0.41211,0.58984 0.4707,0.46876 0.5293,0.4121 0.64649,0.29493 0.64843,0.17578 0.70508,0.0586 h 19.70703 v 88.35352 H 68.488756 v -13.41211 l -0.0586,-0.70508 -0.17578,-0.64649 -0.29493,-0.58984 -0.4121,-0.58789 -0.46876,-0.4707 -0.58984,-0.41211 -0.58789,-0.29297 -0.64648,-0.17773 -0.70703,-0.0586 h -13.41016 l -0.4707,0.0586 -0.41211,0.11914 -0.41211,0.23437 -0.35352,0.29492 -0.29297,0.35157 -0.23633,0.4121 -0.11718,0.41211 -0.0586,0.47071 v 3.17578 l 0.0586,0.4707 0.11718,0.41211 0.23633,0.41211 0.29297,0.35352 0.35352,0.29296 0.41211,0.23633 0.41211,0.11719 0.4707,0.0586 h 7.11719 v 11.82422 h -47.35352 v -11.82422 h 7.11719 0.41211 l 0.41211,-0.11718 0.35351,-0.17579 0.35157,-0.23632 0.29492,-0.29492 0.23632,-0.35157 0.17579,-0.35351 0.11718,-0.41211 v -0.41211 -3.17578 l -0.05858,-0.47073 -0.11719,-0.41211 -0.23633,-0.4121 -0.29296,-0.35157 -0.35352,-0.29492 -0.41211,-0.23437 -0.41211,-0.11914 -0.4707,-0.0586 H 4.6078958 l -0.64844,0.0586 -0.70507,0.17773 -0.58789,0.29297 -0.5879,0.41211 -0.4707,0.4707 -0.41211,0.58789 -0.29492,0.58984 -0.17578,0.64649 -0.0586,0.70508 v 19.70703 l 0.0586,0.70508 0.17578,0.64648 0.29492,0.64844 0.41211,0.58789 0.4707,0.4707 0.5879,0.41211 0.58789,0.23438 0.70507,0.17578 0.64844,0.11914 H 785.25437 l 0.7051,-0.11914 0.6484,-0.17578 0.6465,-0.23438 0.5879,-0.41211 0.4707,-0.4707 0.4121,-0.58789 0.2344,-0.64844 0.2363,-0.64648 0.059,-0.70508 v -2.35352 l -0.059,-0.64648 -0.2363,-0.70703 -0.2344,-0.58789 -0.4121,-0.58789 -0.4707,-0.47071 -0.5879,-0.41211 -0.6465,-0.29297 -0.6484,-0.17773 -0.7051,-0.0586 H 647.31297 V 360.43133 l -0.059,-0.4707 -0.1758,-0.4707 -0.1777,-0.41211 -0.293,-0.35157 -3.2363,-3.23632 3.2363,-3.23438 0.293,-0.35351 0.1777,-0.41211 0.1758,-0.47071 0.059,-0.4707 V 247.37274 h 137.9414 l 0.7051,-0.0586 0.6484,-0.17774 0.6465,-0.29297 0.5879,-0.35351 0.4707,-0.52929 0.4121,-0.5293 0.2344,-0.64648 0.2363,-0.64844 0.059,-0.70508 v -2.35351 l -0.059,-0.70508 -0.2363,-0.64649 -0.2344,-0.58984 -0.4121,-0.58789 -0.4707,-0.4707 -0.5879,-0.41211 -0.6465,-0.29297 -0.6484,-0.17773 -0.7051,-0.0586 z m 37.82422,10.23633 h 29.17578 v 13.41211 l 0.0605,0.4707 0.11719,0.4707 0.23438,0.41016 0.29492,0.35352 0.35351,0.29492 0.41016,0.23437 0.4707,0.11719 0.47071,0.0586 h 5.4707 l 0.4707,-0.0586 0.47071,-0.11719 0.41211,-0.23437 0.35351,-0.29492 0.29297,-0.35352 0.23633,-0.41016 0.11719,-0.4707 0.0586,-0.4707 v -13.41211 h 405.2949 v 13.41211 l 0.059,0.4707 0.1172,0.4707 0.2344,0.41016 0.2949,0.35352 0.3535,0.29492 0.4121,0.23437 0.4102,0.11719 0.4707,0.0586 h 5.5293 l 0.4707,-0.0586 0.4121,-0.11719 0.4121,-0.23437 0.3535,-0.29492 0.3516,-0.35352 0.1777,-0.41016 0.1758,-0.4707 v -0.4707 -13.41211 h 29.1758 v 79.5293 l -0.059,0.70507 -0.1172,0.5879 -0.2949,0.64843 -0.3516,0.5293 -0.4707,0.4707 -0.5293,0.41211 -0.5879,0.29297 -0.5898,0.23633 -0.6465,0.0586 h -0.7051 l -0.6484,-0.11719 -0.5879,-0.23632 -1.6465,-0.70508 -1.7051,-0.58984 -1.707,-0.5293 -1.7637,-0.35156 -1.7656,-0.23633 -1.7637,-0.17578 h -1.8242 l -1.7656,0.0586 -1.8223,0.23438 -1.7656,0.29492 -1.7051,0.41211 -1.707,0.52929 -1.7051,0.70508 -1.5879,0.70703 -1.5879,0.88281 -1.4707,1 -1.4707,1.0586 -1.3535,1.11719 -1.2949,1.23437 -0.5293,0.64844 -0.4707,0.70508 -0.293,0.76562 -0.2363,0.76367 -0.059,0.82422 v 0.82227 l 0.1777,0.82422 0.293,0.76562 0.4121,0.76367 0.4707,0.64649 0.5879,0.58984 0.6465,0.4707 0.7656,0.35157 0.7637,0.29492 0.8242,0.11719 0.8242,0.0586 0.8223,-0.11719 0.7656,-0.23632 0.7637,-0.29297 0.707,-0.47071 0.5879,-0.52929 1.0586,-1 1.1172,-0.88282 1.1777,-0.76367 1.293,-0.70703 1.2949,-0.5293 1.3535,-0.4707 1.4102,-0.29297 1.3535,-0.23633 1.4707,-0.11718 1.4121,0.0586 1.4121,0.17578 1.4121,0.23633 1.3516,0.41211 1.2949,0.5293 1.293,0.58789 1.2363,0.76367 1.1758,0.82422 1.0586,0.9414 1,1 0.8828,1.11719 0.8242,1.17773 0.7051,1.23438 0.5879,1.29492 0.4707,1.35156 0.3535,1.35352 0.2949,1.41211 0.1172,1.41211 v 1.41016 l -0.1172,1.4121 -0.2949,1.41211 -0.3535,1.41211 -0.4707,1.29492 -0.5879,1.29297 -0.7051,1.23633 -0.8242,1.17578 -0.8828,1.11719 -1,1 -1.0586,0.94141 -1.1758,0.82422 -1.2363,0.76367 -1.293,0.58789 -1.2949,0.5293 -1.3516,0.4121 -1.4121,0.29493 -1.4121,0.11718 -1.4121,0.0586 -1.4707,-0.11719 -1.3535,-0.17578 -1.4102,-0.35352 -1.3535,-0.4707 -1.2949,-0.5293 -1.293,-0.70508 -1.1777,-0.76562 -1.1172,-0.88281 -1.0586,-1 -0.5879,-0.5293 -0.707,-0.41211 -0.7637,-0.35156 -0.7656,-0.23633 -0.8223,-0.11719 -0.8242,0.0586 -0.8242,0.11718 -0.7637,0.29493 -0.7656,0.35351 -0.6465,0.4707 -0.5879,0.5879 -0.4707,0.70507 -0.4121,0.70703 -0.293,0.76368 -0.1777,0.82422 v 0.82226 l 0.059,0.82422 0.2363,0.76562 0.293,0.76368 0.4707,0.70508 0.5293,0.64843 1.2949,1.23438 1.3535,1.17773 1.4707,1.0586 1.4707,0.9414 1.5879,0.88086 1.5879,0.76563 1.7051,0.64648 1.707,0.5293 1.7051,0.41211 1.7656,0.35351 1.8223,0.17578 1.7656,0.0586 h 1.8242 l 1.7637,-0.17578 1.7656,-0.23633 1.7637,-0.35156 1.707,-0.5293 1.7051,-0.58984 1.6465,-0.70508 0.5879,-0.23438 0.6484,-0.11914 h 0.7051 l 0.6465,0.0586 0.5898,0.23632 0.5879,0.29492 0.5293,0.41016 0.4707,0.4707 0.3516,0.5293 0.2949,0.64844 0.1172,0.64648 0.059,0.64649 v 158.41207 h -29.1758 v -13.41211 -0.47071 l -0.1758,-0.4121 -0.1777,-0.41016 -0.3516,-0.35352 -0.3535,-0.29492 -0.4121,-0.23437 -0.4121,-0.11719 -0.4707,-0.0586 h -5.5293 l -0.4707,0.0586 -0.4102,0.11719 -0.4121,0.23437 -0.3535,0.29492 -0.2949,0.35352 -0.2344,0.41016 -0.1172,0.4121 -0.059,0.47071 v 13.41211 H 192.31297 v -13.41211 l -0.0586,-0.47071 -0.11719,-0.4121 -0.23633,-0.41016 -0.29297,-0.35352 -0.35351,-0.29492 -0.41211,-0.23437 -0.47071,-0.11719 -0.4707,-0.0586 h -5.4707 l -0.47071,0.0586 -0.4707,0.11719 -0.41016,0.23437 -0.35351,0.29492 -0.29492,0.35352 -0.23438,0.41016 -0.11719,0.4121 -0.0605,0.47071 v 13.41211 H 152.84227 V 384.07782 l 0.0586,-0.64649 0.17773,-0.64648 0.29297,-0.64844 0.35352,-0.5293 0.4707,-0.4707 0.47071,-0.41016 0.58789,-0.29492 0.64648,-0.23632 0.64649,-0.0586 h 0.64843 l 0.64649,0.11914 0.64648,0.23438 1.64844,0.70508 1.70508,0.58984 1.70508,0.5293 1.76562,0.35156 1.76562,0.23633 1.76368,0.17578 h 1.82422 l 1.76367,-0.0586 1.76562,-0.17578 1.76367,-0.35351 1.76563,-0.41211 1.70508,-0.5293 1.64843,-0.64648 1.64649,-0.76563 1.5293,-0.88086 1.52929,-0.9414 1.47071,-1.0586 1.35351,-1.17773 1.29297,-1.23438 0.5293,-0.64843 0.41211,-0.70508 0.35351,-0.76368 0.17578,-0.76562 0.11719,-0.82422 -0.0586,-0.82226 -0.11719,-0.82422 -0.29492,-0.76368 -0.41016,-0.70703 -0.4707,-0.70507 -0.58984,-0.5879 -0.70508,-0.4707 -0.70508,-0.35351 -0.76563,-0.29493 -0.82421,-0.11718 -0.82227,-0.0586 -0.82422,0.11719 -0.82227,0.23633 -0.70703,0.35156 -0.70507,0.41211 -0.64844,0.5293 -1.0586,1 -1.11718,0.88281 -1.17578,0.76562 -1.23633,0.70508 -1.29297,0.5293 -1.35352,0.4707 -1.41211,0.35352 -1.41211,0.17578 -1.4121,0.11719 -1.41016,-0.0586 -1.41211,-0.11718 -1.41211,-0.29493 -1.35352,-0.4121 -1.35156,-0.5293 -1.29492,-0.58789 -1.17578,-0.76367 -1.17774,-0.82422 -1.05859,-0.94141 -1,-1 -0.94141,-1.11719 -0.76367,-1.17578 -0.70703,-1.23633 -0.58789,-1.29297 -0.5293,-1.29492 -0.35351,-1.41211 -0.23438,-1.41211 -0.11718,-1.4121 v -1.41016 l 0.11718,-1.41211 0.23438,-1.41211 0.35351,-1.35352 0.5293,-1.35156 0.58789,-1.29492 0.70703,-1.23438 0.76367,-1.17773 0.94141,-1.11719 1,-1 1.05859,-0.9414 1.17774,-0.82422 1.17578,-0.76367 1.29492,-0.58789 1.35156,-0.5293 1.35352,-0.41211 1.41211,-0.23633 1.41211,-0.17578 1.41016,-0.0586 1.4121,0.11718 1.41211,0.23633 1.41211,0.29297 1.35352,0.4707 1.29297,0.5293 1.23633,0.70703 1.17578,0.76367 1.11718,0.88282 1.0586,1 0.64844,0.52929 0.70507,0.47071 0.70703,0.29297 0.82227,0.23632 0.82422,0.11719 0.82227,-0.0586 0.82421,-0.11719 0.76563,-0.29492 0.70508,-0.35157 0.70508,-0.4707 0.58984,-0.58984 0.4707,-0.64649 0.41016,-0.76367 0.29492,-0.76562 0.11719,-0.82422 0.0586,-0.82227 -0.11719,-0.82422 -0.17578,-0.76367 -0.35351,-0.76562 -0.41211,-0.70508 -0.5293,-0.64844 -1.29297,-1.23437 -1.35351,-1.11719 -1.47071,-1.0586 -1.52929,-1 -1.5293,-0.88281 -1.64649,-0.70703 -1.64843,-0.70508 -1.70508,-0.52929 -1.76563,-0.41211 -1.76367,-0.29492 -1.76562,-0.23438 -1.76367,-0.0586 h -1.82422 l -1.76368,0.17578 -1.76562,0.23633 -1.76562,0.35156 -1.70508,0.5293 -1.70508,0.58984 -1.64844,0.70508 -0.64648,0.23632 -0.64649,0.11719 h -0.64843 l -0.64649,-0.0586 -0.64648,-0.23633 -0.58789,-0.29297 -0.47071,-0.41211 -0.4707,-0.4707 -0.35352,-0.5293 -0.29297,-0.64843 -0.17773,-0.5879 -0.0586,-0.70507 z"
     style="fill:#212830;fill-opacity:1;stroke:#212830;stroke-width:0.0588235px;stroke-linecap:round;stroke-linejoin:round;stroke-miterlimit:4;stroke-dasharray:none;stroke-opacity:1"
     id="path2051" />
</svg>
