<?xml version="1.0" encoding="UTF-8" standalone="no"?>
<svg
   xmlns:dc="http://purl.org/dc/elements/1.1/"
   xmlns:cc="http://creativecommons.org/ns#"
   xmlns:rdf="http://www.w3.org/1999/02/22-rdf-syntax-ns#"
   xmlns:svg="http://www.w3.org/2000/svg"
   xmlns="http://www.w3.org/2000/svg"
   id="svg1969"
   height="88mm"
   width="88mm"
   version="1.0">
  <metadata
     id="metadata1973">
    <rdf:RDF>
      <cc:Work
         rdf:about="">
        <dc:format>image/svg+xml</dc:format>
        <dc:type
           rdf:resource="http://purl.org/dc/dcmitype/StillImage" />
        <dc:title></dc:title>
      </cc:Work>
    </rdf:RDF>
  </metadata>
  <defs
     id="defs3" />
  <path
     id="path1967"
     d="m 49.269789,140.29927 -0.0588,-0.76471 0.0588,-0.70588 0.23529,-0.70588 0.35294,-0.64706 0.47059,-0.52941 0.52941,-0.47059 0.64706,-0.35294 0.70588,-0.23529 0.70589,-0.11765 0.7647,0.0588 0.70588,0.17647 0.70589,0.17647 0.70588,0.0588 0.70588,-0.0588 0.70588,-0.23529 0.64706,-0.35294 0.52941,-0.47059 0.47059,-0.58824 0.35294,-0.64705 0.2353,-0.70589 0.0588,-0.70588 -0.0588,-0.70588 -0.0588,-0.76471 0.0588,-0.70588 0.23529,-0.70588 0.35294,-0.64706 0.47059,-0.58824 0.52941,-0.47058 0.64706,-0.35295 0.70588,-0.17647 0.70589,-0.11764 0.7647,0.0588 0.70588,0.17647 0.70589,0.17647 0.70588,0.0588 0.70588,-0.11765 0.70588,-0.2353 0.64706,-0.35294 0.52941,-0.47059 0.47059,-0.52941 0.35294,-0.64706 0.2353,-0.70588 0.0588,-0.70588 -0.0588,-0.76471 -0.0588,-0.70588 0.11765,-0.7647 0.17647,-0.64706 0.35294,-0.64706 0.47059,-0.58824 0.52941,-0.47059 0.64706,-0.35294 0.70588,-0.23529 0.70589,-0.0588 h 0.7647 l 0.70589,0.23529 0.70585,0.17652 h 0.70588 l 0.70588,-0.0588 0.70588,-0.2353 0.64706,-0.35294 0.52942,-0.47059 0.47058,-0.58823 0.35294,-0.64706 0.2353,-0.64706 0.0588,-0.76471 -0.0588,-0.70588 -0.0588,-0.70588 0.11764,-0.76471 0.17647,-0.70588 0.35294,-0.64706 0.47059,-0.52941 0.52941,-0.47059 0.64706,-0.35294 0.70589,-0.23529 0.70588,-0.11765 0.7647,0.0588 0.70589,0.17647 0.70588,0.17647 0.70588,0.0588 0.70588,-0.0588 0.70589,-0.23529 0.64705,-0.35294 0.58824,-0.47059 0.41176,-0.58823 0.35295,-0.64706 0.23529,-0.70589 0.0588,-0.70588 -0.0588,-0.70588 -0.0588,-0.76471 0.11764,-0.70588 0.17647,-0.70588 0.35294,-0.64706 0.47059,-0.58823 0.58824,-0.47059 0.58823,-0.35294 0.70589,-0.17647 0.70588,-0.11765 0.7647,0.0588 0.70589,0.17647 0.70588,0.17647 0.70588,0.0588 0.76471,-0.11765 0.64706,-0.23529 0.64705,-0.35295 0.58824,-0.47058 0.41176,-0.52942 0.35295,-0.647051 0.235291,-0.70589 0.0588,-0.70588 -0.0588,-0.76471 -0.0588,-0.64705 0.0588,-0.64706 0.17647,-0.64706 0.29412,-0.64706 0.41176,-0.52941 0.47059,-0.47059 1.70588,-1.41177 1.82353,-1.29411 2,-0.941181 2.17647,-0.58823 2.17647,-0.17648 h 7.29412 l 0.64706,0.0588 0.64706,0.17647 0.58823,0.29412 0.58824,0.35294 0.47059,0.470591 0.35294,0.52941 0.47059,0.64706 0.52941,0.47058 0.58823,0.41177 0.64706,0.23529 0.76471,0.17647 h 0.70588 l 0.70588,-0.17647 0.70589,-0.23529 0.58823,-0.41177 0.52941,-0.47058 0.41177,-0.64706 0.47059,-0.58824 0.47058,-0.470591 0.64706,-0.41176 0.64706,-0.29412 0.76471,-0.11765 h 0.70588 l 0.70588,0.11765 0.70589,0.29412 0.58823,0.41176 0.52941,0.470591 0.41177,0.58824 0.41176,0.64706 0.52941,0.47058 0.64706,0.41177 0.64706,0.23529 0.76471,0.17647 h 0.70588 l 0.70588,-0.17647 0.70588,-0.23529 0.58824,-0.41177 0.52941,-0.47058 0.41177,-0.64706 0.41176,-0.52941 0.47059,-0.470591 0.52941,-0.35294 0.58824,-0.29412 0.64705,-0.17647 0.70589,-0.0588 h 13.05882 l 0.58824,0.0588 0.58823,0.11765 0.58824,0.23529 0.47058,0.29412 0.47059,0.411761 5.29412,5.29412 5.23529,-5.29412 0.58824,-0.470591 0.70588,-0.35294 0.70588,-0.23529 0.76471,-0.0588 h 13.05882 l 0.64706,0.0588 0.64706,0.17647 0.64706,0.29412 0.52941,0.35294 0.47059,0.470591 0.35294,0.52941 0.47059,0.64706 0.52941,0.47058 0.58824,0.41177 0.64706,0.23529 0.7647,0.17647 h 0.70588 l 0.70589,-0.17647 0.70588,-0.23529 0.58823,-0.41177 0.52942,-0.47058 0.41176,-0.64706 0.47059,-0.58824 0.52941,-0.470591 0.58824,-0.41176 0.64705,-0.29412 0.76471,-0.11765 h 0.70588 l 0.70589,0.11765 0.70588,0.29412 0.58823,0.41176 0.52941,0.470591 0.41177,0.58824 0.47059,0.64706 0.47059,0.47058 0.64705,0.41177 0.64706,0.23529 0.76471,0.17647 h 0.70588 l 0.70588,-0.17647 0.70589,-0.23529 0.58823,-0.41177 0.52941,-0.47058 0.41177,-0.64706 0.41176,-0.58824 0.52941,-0.470591 0.64706,-0.41176 0.64706,-0.29412 0.76471,-0.11765 h 0.70588 l 0.70588,0.11765 0.70589,0.29412 0.58823,0.41176 0.52941,0.470591 0.41177,0.58824 0.41176,0.64706 0.52941,0.47058 0.64706,0.41177 0.64706,0.23529 0.76471,0.17647 h 0.70588 l 0.70588,-0.17647 0.70588,-0.23529 0.58824,-0.41177 0.52941,-0.47058 0.41177,-0.64706 0.41176,-0.58824 0.52941,-0.470591 0.64706,-0.41176 0.64706,-0.29412 0.76471,-0.11765 h 0.70588 l 0.70588,0.11765 0.70588,0.29412 0.58824,0.41176 0.52941,0.470591 0.41176,0.58824 0.41177,0.64706 0.52941,0.47058 0.64706,0.41177 0.64706,0.23529 0.70588,0.17647 h 0.76471 l 0.70588,-0.17647 0.70588,-0.23529 0.58824,-0.41177 0.52941,-0.47058 0.41174,-0.64706 0.4118,-0.58824 0.5294,-0.470591 0.6471,-0.41176 0.647,-0.29412 0.7059,-0.11765 h 0.7647 l 0.7059,0.11765 0.7059,0.29412 0.5882,0.41176 0.5294,0.470591 0.4118,0.58824 0.4117,0.64706 0.5295,0.47058 0.647,0.41177 0.6471,0.23529 0.7059,0.17647 h 0.7647 l 0.7058,-0.17647 0.7059,-0.23529 0.5883,-0.41177 0.5294,-0.47058 0.4117,-0.64706 0.4118,-0.58824 0.5294,-0.470591 0.6471,-0.41176 0.647,-0.29412 0.7059,-0.11765 h 0.7647 l 0.7059,0.11765 0.7059,0.29412 0.5882,0.41176 0.5294,0.470591 0.4118,0.58824 0.4118,0.64706 0.5294,0.47058 0.647,0.41177 0.6471,0.23529 0.7059,0.17647 h 0.7647 l 0.7059,-0.17647 0.647,-0.23529 0.6471,-0.41177 0.5294,-0.47058 0.4118,-0.64706 0.4117,-0.58824 0.5294,-0.470591 0.6471,-0.41176 0.6471,-0.29412 0.7058,-0.11765 h 0.7647 l 0.7059,0.11765 0.6471,0.29412 0.647,0.41176 0.5295,0.470591 0.4117,0.58824 0.4118,0.64706 0.5294,0.47058 0.6471,0.41177 0.647,0.23529 0.7059,0.17647 h 0.76466 l 0.7059,-0.17647 0.647,-0.23529 0.6471,-0.41177 0.5294,-0.47058 0.4118,-0.64706 0.4117,-0.58824 0.5295,-0.470591 0.647,-0.41176 0.6471,-0.29412 0.7059,-0.11765 h 0.7647 l 0.7058,0.11765 0.6471,0.29412 0.6471,0.41176 0.5294,0.470591 0.4117,0.58824 0.4118,0.64706 0.5294,0.47058 0.6471,0.41177 0.647,0.23529 0.7059,0.17647 h 0.7647 l 0.7059,-0.17647 0.6471,-0.23529 0.647,-0.41177 0.5294,-0.47058 0.4118,-0.64706 0.4118,-0.58824 0.5294,-0.470591 0.647,-0.41176 0.6471,-0.29412 0.7059,-0.11765 h 0.7647 l 0.7059,0.11765 0.647,0.29412 0.6471,0.41176 0.5294,0.470591 0.4118,0.58824 0.4117,0.64706 0.5294,0.47058 0.6471,0.41177 0.647,0.23529 0.7059,0.17647 h 0.7647 l 0.7059,-0.17647 0.6471,-0.23529 0.647,-0.41177 0.5294,-0.47058 0.4118,-0.64706 0.353,-0.52941 0.4705,-0.470591 0.5883,-0.35294 0.5882,-0.29412 0.6471,-0.17647 0.647,-0.0588 h 12.8236 l 2.4705,0.2353 2.4118,0.70588 2.2353,1.176471 1.9412,1.64706 1.5882,1.88235 1.1765,2.2353 0.7059,2.41176 0.2353,2.470591 v 134.41177 l -0.059,1.11764 -0.2941,1.05883 -0.4706,1 -0.647,0.94117 -0.8236,0.76471 -0.8823,0.64706 -1,0.47059 -1.1177,0.29411 -1.0588,0.0588 h -6.4117 l -1.1177,-0.0588 -1.0588,-0.29411 -1.0588,-0.47059 -0.8824,-0.64706 -0.7647,-0.76471 -0.6471,-0.94117 -0.4705,-1 -0.2942,-1.05883 -0.1176,-1.11764 V 112.53456 l -0.059,-0.64705 -0.1765,-0.64706 -0.2941,-0.58824 -0.353,-0.58823 -0.4705,-0.47059 -0.5883,-0.35294 -0.5882,-0.29412 -0.6471,-0.17647 -0.647,-0.0588 h -90.35298 l -2.41176,0.23529 -2.35294,0.70588 -2.17647,1.11765 -1.94118,1.52941 -1.58823,1.88235 -1.17648,2.11765 -0.82352,2.35294 -0.29412,2.41177 0.11764,2.41176 0.64706,2.41177 2,7.7647 0.58824,8 -0.94118,7.94118 -2.35294,7.70588 -3.70588,7.11765 -4.94118,6.29412 -1.35294,1.17647 -1.52941,0.88235 -1.64706,0.58823 -1.76471,0.29412 -1.7647,-0.0588 -1.76471,-0.35294 -1.58823,-0.64706 -1.52941,-1 -1.2353,-1.17647 -1.05882,-1.47059 -0.76471,-1.58824 -0.47059,-1.70588 -0.11764,-1.7647 0.23529,-1.76471 0.52941,-1.70588 0.82353,-1.58824 1.05883,-1.35294 2.88235,-3.70588 2.17647,-4.2353 1.23529,-4.52941 0.41177,-4.70588 -0.52941,-4.70588 -1.47059,-4.47059 -2.2353,-4.11765 -3.05882,-3.64706 -3.64706,-2.94117 -4.17647,-2.2353 -4.47059,-1.35294 -4.70588,-0.41176 -4.70588,0.41176 -4.52941,1.35294 -4.17647,2.2353 -3.64706,2.94117 -3,3.64706 -2.29412,4.11765 -1.41177,4.47059 -0.52941,4.70588 0.35294,4.70588 1.29412,4.52941 2.11765,4.2353 2.88235,3.70588 1.11765,1.35294 0.82353,1.58824 0.52971,1.70584 0.17647,1.76471 -0.11765,1.7647 -0.41176,1.70588 -0.76471,1.58824 -1.05882,1.47059 -1.29412,1.17647 -1.47059,1 -1.64706,0.64706 -1.70588,0.35294 -1.7647,0.0588 -1.76471,-0.29412 -1.64706,-0.58823 -1.52941,-0.88235 -1.35294,-1.17647 -4.52941,-5.70589 -3.52941,-6.35294 -2.47059,-6.82353 -1.2353,-7.17647 -0.0588,-7.23529 1.11765,-7.2353 0.41176,-2.41176 -0.11765,-2.47059 -0.58823,-2.41176 -1.05882,-2.2353 -1.41177,-2 -1.82353,-1.70588 -2.11765,-1.29412 -2.29411,-0.88235 -2.41177,-0.41177 -2.47059,0.0588 -2.41176,0.52941 -2.29412,1 -2,1.35294 -82.882351,69.58824 -0.47059,0.47058 -0.41176,0.58824 -0.29412,0.58823 -0.11765,0.64706 -0.0588,0.64706 v 46.88236 l -0.11769,1.11769 -0.29412,1.05883 -0.47059,1 -0.64705,0.94117 -0.76471,0.76471 -0.94118,0.64706 -1,0.47059 -1.05882,0.29411 -1.11765,0.0588 H 6.4462585 l -1.11765,-0.0588 -1.05882,-0.29411 -1,-0.47059 -0.94118,-0.64706 -0.76471,-0.76471 -0.64705002,-0.94117 -0.47059,-1 -0.29412,-1.05883 -0.11765,-1.11764 v -51.64706 l 0.2353,-2.2353 0.58823,-2.11764 0.94118002,-2.05883 1.23529,-1.82353 1.58824,-1.58823 5.23529,-4.35294 0.5294105,-0.41177 0.64706,-0.29412 0.64706,-0.11764 0.64706,-0.0588 0.64706,0.0588 0.64706,0.11764 0.70588,0.2353 h 0.76471 l 0.70588,-0.0588 0.70588,-0.23532 0.64706,-0.35294 0.52941,-0.47059 0.47059,-0.58823 0.35294,-0.64706 0.17647,-0.64706 0.11765,-0.76471 -0.0588,-0.70588 -0.0588,-0.76471 0.0588,-0.70588 0.23529,-0.70588 0.35294,-0.64706 0.41177,-0.52941 0.58823,-0.47059 0.64706,-0.35294 0.70588,-0.2353 0.70588,-0.11764 0.70589,0.0588 0.70588,0.17647 0.70588,0.17647 0.76471,0.0588 0.70588,-0.11765 0.70588,-0.17647 0.64706,-0.35294 0.52941,-0.47059 0.47059,-0.58824 0.35294,-0.64706 0.17647,-0.70588 0.11765,-0.70588 -0.0588,-0.70588 -0.0588,-0.76471 0.0588,-0.70588 0.23529,-0.70588 0.35294,-0.64706 0.47059,-0.58824 0.52941,-0.47059 0.64706,-0.35294 0.70588,-0.17647 0.70588,-0.11764 0.70589,0.0588 0.70588,0.17647 0.70588,0.17647 0.76471,0.0588 0.70588,-0.11764 0.70588,-0.2353 0.64706,-0.35294 0.52941,-0.47059 0.47059,-0.52941 0.35294,-0.64706 0.2353,-0.70588 0.0588,-0.70588 -0.0588,-0.76471 -0.0588,-0.70588 0.0588,-0.76471 0.23529,-0.64705 0.35294,-0.64706 0.47059,-0.58824 0.52941,-0.47059 0.64706,-0.35294 0.70588,-0.23529 0.70589,-0.0588 h 0.70588 l 0.70588,0.2353 0.70588,0.17647 h 0.76471 l 0.70588,-0.0588 0.70588,-0.2353 0.64706,-0.35294 0.52941,-0.47059 0.47059,-0.58823 0.35294,-0.64706 0.2353,-0.64706 0.0588,-0.76471 z"
     style="fill:#212830;fill-opacity:1;stroke:#212830;stroke-width:0.0588235px;stroke-linecap:round;stroke-linejoin:round;stroke-miterlimit:4;stroke-dasharray:none;stroke-opacity:1" />
</svg>
