<?xml version="1.0" encoding="UTF-8" standalone="no"?>
<svg
   xmlns:dc="http://purl.org/dc/elements/1.1/"
   xmlns:cc="http://creativecommons.org/ns#"
   xmlns:rdf="http://www.w3.org/1999/02/22-rdf-syntax-ns#"
   xmlns:svg="http://www.w3.org/2000/svg"
   xmlns="http://www.w3.org/2000/svg"
   id="svg1017"
   height="159mm"
   width="159mm"
   version="1.0">
  <metadata
     id="metadata1021">
    <rdf:RDF>
      <cc:Work
         rdf:about="">
        <dc:format>image/svg+xml</dc:format>
        <dc:type
           rdf:resource="http://purl.org/dc/dcmitype/StillImage" />
        <dc:title></dc:title>
      </cc:Work>
    </rdf:RDF>
  </metadata>
  <defs
     id="defs3" />
  <path
     d="m 118.11875,138.26639 -0.7051,0.0586 -0.6465,0.17773 -0.6484,0.29297 -0.5879,0.41211 -0.5293,0.5293 -0.3535,0.58789 -0.3516,0.64844 -0.1777,0.64648 -0.059,0.70508 v 21.88281 l 0.059,0.4707 0.1191,0.35352 0.1758,0.41211 0.2344,0.35156 0.2949,0.29492 0.3535,0.23438 0.3516,0.17773 0.4121,0.11719 0.4707,0.0586 h 11.3535 l 0.4121,-0.0586 0.4102,-0.11719 0.3535,-0.17773 0.3535,-0.23438 0.293,-0.29492 0.2363,-0.35156 0.1758,-0.41211 0.1191,-0.35352 0.059,-0.4707 v -15.41211 h 16.1754 v 106.0586 l 0.059,0.4121 0.059,0.35352 0.1777,0.35352 0.1758,0.29296 0.2949,0.29493 3.293,3.35351 -3.293,3.35156 -0.3535,0.35352 -0.1777,0.41211 -0.1758,0.4707 -0.059,0.47071 v 84.17578 l -12.1172,-12.17578 v -5.70704 l -0.059,-0.4707 -0.1191,-0.41016 -0.2344,-0.4707 -0.2949,-0.35351 -0.4102,-0.29493 -0.4121,-0.23437 -0.4707,-0.11719 -0.4707,-0.0605 h -7.2949 l -0.4121,0.0605 -0.4102,0.11719 -0.3535,0.17578 -0.3535,0.23633 -0.293,0.29297 -0.2363,0.35351 -0.1758,0.35352 -0.1172,0.41016 -0.061,0.4121 v 26 l 0.061,0.70704 0.1758,0.64648 0.293,0.64648 0.4121,0.5879 0.5293,0.4707 0.5898,0.41211 0.5879,0.29492 0.7051,0.17578 0.707,0.11719 h 20.2344 v 90.82422 H 70.296472 v -13.82422 l -0.0586,-0.70508 -0.17773,-0.64648 -0.29297,-0.64844 -0.41211,-0.58789 -0.4707,-0.5293 -0.58789,-0.35351 -0.64844,-0.29297 -0.70508,-0.23633 -0.70508,-0.0586 h -13.76562 l -0.41211,0.0586 -0.41211,0.11914 -0.41016,0.17578 -0.29492,0.23438 -0.35351,0.29492 -0.23438,0.35351 -0.17773,0.41211 -0.11719,0.41016 v 0.41211 3.23633 0.4121 l 0.11719,0.41016 0.17773,0.41211 0.23438,0.29492 0.35351,0.35157 0.29492,0.23632 0.41016,0.17578 0.41211,0.11914 h 0.41211 7.29492 v 12.17579 h -48.64844 v -12.17579 h 7.29493 0.4707 l 0.41211,-0.11914 0.35156,-0.17578 0.35352,-0.23632 0.29492,-0.35157 0.23437,-0.29492 0.17579,-0.41211 0.11914,-0.41016 0.0586,-0.4121 v -3.23633 l -0.0586,-0.41211 -0.11914,-0.41016 -0.17579,-0.41211 -0.23437,-0.35351 -0.29492,-0.29492 -0.35352,-0.23438 -0.35156,-0.17578 -0.41211,-0.11914 -0.4707,-0.0586 H 4.6480319 l -0.70508,0.0586 -0.64648,0.23633 -0.64844,0.29297 -0.58789,0.35351 -0.5293001,0.5293 -0.35351,0.58789 -0.35155998,0.64844 -0.17774,0.64648 -0.0586,0.70508 v 20.29492 l 0.0586,0.70508 0.17774,0.70703 0.35155998,0.58789 0.35351,0.58789 0.5293001,0.5293 0.58789,0.41211 0.64844,0.29492 0.64648,0.17578 0.70508,0.0586 H 596.29645 l 0.7051,-0.0586 0.7051,-0.17578 0.6484,-0.29492 0.5879,-0.41211 0.4707,-0.5293 0.4121,-0.58789 0.293,-0.58789 0.1777,-0.70703 0.059,-0.70508 v -20.29492 l -0.059,-0.70508 -0.1777,-0.64648 -0.293,-0.64844 -0.4121,-0.58789 -0.4707,-0.5293 -0.5879,-0.35351 -0.6484,-0.29297 -0.7051,-0.23633 -0.7051,-0.0586 h -13.7656 l -0.4121,0.0586 -0.4121,0.11914 -0.4102,0.17578 -0.3535,0.23438 -0.2949,0.29492 -0.2344,0.35351 -0.1758,0.41211 -0.1191,0.41016 v 0.41211 3.23633 0.4121 l 0.1191,0.41016 0.1758,0.41211 0.2344,0.29492 0.2949,0.35157 0.3535,0.23632 0.4102,0.17578 0.4121,0.11914 h 0.4121 7.2949 v 12.17579 h -48.6484 v -12.17579 h 7.2949 0.4707 l 0.4121,-0.11914 0.3516,-0.17578 0.3535,-0.23632 0.2949,-0.35157 0.2344,-0.29492 0.1777,-0.41211 0.1172,-0.41016 0.059,-0.4121 v -3.23633 l -0.059,-0.41211 -0.1172,-0.41016 -0.1777,-0.41211 -0.2344,-0.35351 -0.2949,-0.29492 -0.3535,-0.23438 -0.3516,-0.17578 -0.4121,-0.11914 -0.4707,-0.0586 h -13.7656 l -0.7051,0.0586 -0.6465,0.23633 -0.6484,0.29297 -0.5879,0.35351 -0.5293,0.5293 -0.4121,0.58789 -0.293,0.64844 -0.1777,0.64648 -0.059,0.70508 v 13.82422 h -27.5293 V 305.56132 l -0.059,-0.47071 -0.1172,-0.4707 -0.2363,-0.41211 -0.293,-0.41211 -3.3535,-3.29297 3.3535,-3.35351 0.293,-0.41211 0.2363,-0.41211 0.1172,-0.41016 0.059,-0.5293 V 207.2078 h 30 l 0.4121,-0.0586 0.4121,-0.0586 0.3535,-0.23632 0.3516,-0.23438 0.2949,-0.29492 0.2344,-0.35156 0.1777,-0.35352 0.1172,-0.41211 0.059,-0.41211 v -7.29297 l -0.0586,-0.47069 -0.1172,-0.41211 -0.1777,-0.35352 -0.2344,-0.35156 -0.2949,-0.29492 -0.3516,-0.23438 -0.3535,-0.17773 -0.4121,-0.11719 -0.4121,-0.0586 h -70.5293 v -52.70703 l -0.059,-0.70508 -0.1758,-0.64648 -0.2949,-0.64844 -0.4121,-0.58789 -0.5293,-0.5293 -0.5879,-0.41211 -0.5879,-0.29297 -0.7051,-0.17773 -0.707,-0.0586 z m 38.9414,10.5293 h 295 v 54.35352 0.41211 l 0.1172,0.41211 0.1777,0.4121 0.2344,0.35157 0.3535,0.29492 0.2949,0.23437 0.4102,0.17774 0.4121,0.11719 h 0.4121 38.1172 V 452.14921 H 157.06015 V 205.56132 h 13.7656 0.4121 l 0.4102,-0.11719 0.3535,-0.17774 0.3535,-0.23437 0.293,-0.29492 0.2949,-0.35157 0.1758,-0.4121 0.059,-0.41211 0.061,-0.41211 v -5.64649 l -0.061,-0.4707 -0.059,-0.41211 -0.1758,-0.35352 -0.2949,-0.35156 -0.293,-0.29492 -0.3535,-0.23438 -0.3535,-0.17773 -0.4102,-0.11719 -0.4121,-0.0586 h -13.7656 z"
     style="fill:#212830;fill-opacity:1;stroke:#212830;stroke-width:0.0588235px;stroke-linecap:round;stroke-linejoin:round;stroke-miterlimit:4;stroke-dasharray:none;stroke-opacity:1"
     id="path1013" />
</svg>
