<?xml version="1.0" encoding="UTF-8" standalone="no"?>
<svg
   xmlns:dc="http://purl.org/dc/elements/1.1/"
   xmlns:cc="http://creativecommons.org/ns#"
   xmlns:rdf="http://www.w3.org/1999/02/22-rdf-syntax-ns#"
   xmlns:svg="http://www.w3.org/2000/svg"
   xmlns="http://www.w3.org/2000/svg"
   id="svg801"
   height="121mm"
   width="121mm"
   version="1.0">
  <metadata
     id="metadata805">
    <rdf:RDF>
      <cc:Work
         rdf:about="">
        <dc:format>image/svg+xml</dc:format>
        <dc:type
           rdf:resource="http://purl.org/dc/dcmitype/StillImage" />
        <dc:title></dc:title>
      </cc:Work>
    </rdf:RDF>
  </metadata>
  <defs
     id="defs3" />
  <path
     d="m 121.13192,63.102818 -0.76562,0.0586 -0.64649,0.17578 -0.64648,0.29492 -0.58984,0.41211 -0.5293,0.5293 -0.41016,0.58789 -0.29492,0.64648 -0.23438,0.70703 -0.0605,0.70508 v 22.35352 l 0.0605,0.4707 0.17579,0.4707 0.17578,0.41211 0.35351,0.41016 0.35352,0.29492 0.41016,0.23438 0.4707,0.11914 0.5293,0.0586 h 11.53124 0.46876 l 0.4121,-0.11719 0.41211,-0.17773 0.35352,-0.29297 0.29297,-0.29492 0.23633,-0.35352 0.17578,-0.41016 0.11719,-0.4121 0.0605,-0.41211 v -2.47071 l -0.0605,-0.4707 -0.11719,-0.41211 -0.17578,-0.35351 -0.23633,-0.35157 -0.29297,-0.35351 -0.35352,-0.23438 -0.41211,-0.17773 -0.4121,-0.1172 h -0.46876 -6.58984 v -14.11719 h 25.64844 v 113.234382 0.41211 l 0.11719,0.35351 0.17578,0.35157 0.17773,0.35351 0.23438,0.29492 1.76562,1.76367 -1.76562,1.70704 -0.23438,0.35156 -0.17773,0.29492 -0.17578,0.35352 -0.11719,0.4121 v 0.35157 87.58789 l -12.41211,-12.41016 v -5.82422 l -0.0586,-0.41211 -0.11914,-0.41211 -0.17579,-0.4121 -0.23437,-0.35157 -0.29492,-0.29492 -0.35352,-0.23437 -0.41016,-0.23633 -0.41209,-0.11719 h -0.41211 -7.47071 l -0.4707,0.0586 -0.4707,0.11719 -0.41211,0.23633 -0.41211,0.29297 -0.29297,0.41211 -0.23633,0.41211 -0.11719,0.47069 -0.0586,0.4707 v 5.23438 l 0.0586,0.41211 0.0586,0.35351 0.17773,0.35352 0.17578,0.35156 0.23438,0.29492 24.11914,24.11719 v 95.5293 H 72.307703 v -17.35157 l -0.05859,-0.70703 -0.17578,-0.70507 -0.35352,-0.64844 -0.41211,-0.58789 -0.4707,-0.5293 -0.58789,-0.41211 -0.64648,-0.29297 -0.70704,-0.23633 -0.70507,-0.0586 h -14.11719 l -0.4707,0.0586 -0.47071,0.17774 -0.41211,0.23437 -0.35351,0.29493 -0.35157,0.35156 -0.17773,0.41211 -0.17578,0.4707 -0.0586,0.5293 v 2.4707 l 0.0586,0.4707 0.17578,0.47071 0.17773,0.41211 0.35157,0.41211 0.35351,0.29296 0.41211,0.23633 0.47071,0.11719 0.4707,0.0586 h 10.76367 v 14.0586 H 8.6026332 v -14.0586 H 19.366303 l 0.41211,-0.0586 0.41211,-0.0586 0.41211,-0.23633 0.35156,-0.23438 0.29492,-0.29492 0.23438,-0.35156 0.17773,-0.41211 0.11719,-0.41211 0.0586,-0.41211 v -2.4707 l -0.0586,-0.47071 -0.11719,-0.4121 -0.17773,-0.35157 -0.23438,-0.4121 -0.29492,-0.29492 -0.35156,-0.23437 -0.41211,-0.17579 -0.41211,-0.11914 -0.41211,-0.0586 H 5.3077032 l -0.76367,0.0586 -0.64844,0.23633 -0.64648,0.29297 -0.64648,0.41211 -0.47071,0.5293 -0.41211,0.58789 -0.29492,0.64844 -0.23437,0.70507 -0.0586,0.70703 v 20.70508 l 0.0586,0.70508 0.23437,0.70703 0.29492,0.64649 0.41211,0.58789 0.47071,0.52929 0.64648,0.41211 0.64648,0.29493 0.64844,0.17578 0.76367,0.0586 H 453.71981 l 0.4707,-0.0586 0.4707,-0.11719 0.4121,-0.23633 0.3516,-0.29297 0.3535,-0.41211 0.2363,-0.41211 0.1172,-0.4707 0.059,-0.4707 v -2.47071 l -0.059,-0.4707 -0.1172,-0.41016 -0.1777,-0.4121 -0.2344,-0.35352 -0.2949,-0.29492 -0.3535,-0.23438 -0.4102,-0.17578 -0.4121,-0.11914 -0.4121,-0.0586 h -29 V 70.514928 h 29 0.4121 l 0.4121,-0.11719 0.4102,-0.17773 0.3535,-0.29297 0.2949,-0.29492 0.2344,-0.35352 0.1777,-0.4121 0.1172,-0.41016 0.059,-0.41211 v -2.4707 l -0.059,-0.47071 -0.1172,-0.41211 -0.1777,-0.35351 -0.2344,-0.35156 -0.2949,-0.35352 -0.3535,-0.23438 -0.4102,-0.17773 -0.4121,-0.11719 h -0.4121 z m 36.41211,7.41211 h 105.05858 v 0.82227 l 0.059,0.5293 0.1172,0.4121 0.2363,0.47071 0.293,0.35351 0.3535,0.29492 0.4707,0.23438 0.4707,0.17578 0.4707,0.0586 h 44.6465 l 0.5293,-0.0586 0.4707,-0.17578 0.4121,-0.23438 0.3516,-0.29492 0.3535,-0.35351 0.1777,-0.47071 0.1758,-0.4121 0.059,-0.5293 v -0.82227 h 105.0586 V 386.74931 h -105.0594 v -0.82227 l -0.059,-0.41211 -0.1172,-0.41211 -0.1777,-0.41211 -0.2344,-0.35351 -0.2949,-0.29297 -0.3516,-0.23633 -0.4121,-0.17578 -0.4121,-0.11719 -0.4707,-0.0586 h -44.6465 l -0.4121,0.0586 -0.4117,0.11719 -0.4121,0.17578 -0.3535,0.23633 -0.293,0.29297 -0.2949,0.35351 -0.1758,0.41211 -0.1172,0.41211 v 0.41211 0.82227 H 157.54403 Z"
     style="fill:#212830;fill-opacity:1;stroke:#212830;stroke-width:0.0588235px;stroke-linecap:round;stroke-linejoin:round;stroke-miterlimit:4;stroke-dasharray:none;stroke-opacity:1"
     id="path799" />
</svg>
