<?xml version="1.0" encoding="UTF-8" standalone="no"?>
<svg
   xmlns:dc="http://purl.org/dc/elements/1.1/"
   xmlns:cc="http://creativecommons.org/ns#"
   xmlns:rdf="http://www.w3.org/1999/02/22-rdf-syntax-ns#"
   xmlns:svg="http://www.w3.org/2000/svg"
   xmlns="http://www.w3.org/2000/svg"
   id="svg671"
   height="160mm"
   width="160mm"
   version="1.0">
  <metadata
     id="metadata675">
    <rdf:RDF>
      <cc:Work
         rdf:about="">
        <dc:format>image/svg+xml</dc:format>
        <dc:type
           rdf:resource="http://purl.org/dc/dcmitype/StillImage" />
        <dc:title></dc:title>
      </cc:Work>
    </rdf:RDF>
  </metadata>
  <defs
     id="defs3" />
  <path
     d="m 213.56706,0.3036156 -0.3516,0.117188 -0.3535,0.175781 -0.2949,0.177734 -0.293,0.292969 -0.1758,0.294922 -0.1777,0.353516 -0.1172,0.351562 v 0.41211 11.6464894 0.17773 l 0.059,0.23437 0.1172,0.23633 0.1191,0.17578 0.1758,0.17579 0.1758,0.11914 0.1777,0.0586 0.2344,0.0586 0.2363,0.0586 h 6.0586 l 0.1758,-0.0586 0.2344,-0.0586 0.2363,-0.0586 0.1758,-0.11914 0.1191,-0.17579 0.1758,-0.17578 0.059,-0.23633 0.059,-0.23437 0.059,-0.17773 V 5.8915066 h 8.5879 V 62.303617 l 0.061,0.29297 0.059,0.23633 0.1172,0.23437 0.1758,0.17774 1.7656,1.76367 -1.7656,1.76562 -0.1758,0.17578 -0.059,0.17579 -0.1172,0.17773 -0.061,0.23437 v 0.17774 44.763663 l -6.4707,-6.4707 v -3 -0.23438 l -0.059,-0.23633 -0.1172,-0.17578 -0.1172,-0.17578 -0.1758,-0.17773 -0.1777,-0.11719 -0.1758,-0.11719 -0.2363,-0.0586 h -0.2344 -3.8828 -0.2344 l -0.2363,0.0586 -0.2344,0.11719 -0.1777,0.17578 -0.1758,0.23633 -0.1172,0.17578 -0.059,0.23633 -0.059,0.29297 v 23.29492 l 0.059,0.23437 0.059,0.23633 0.1172,0.23438 0.1758,0.17773 0.1777,0.17578 0.2344,0.11719 0.2363,0.0586 0.2344,0.0586 h 1.7656 0.1758 l 0.2344,-0.0586 0.2363,-0.11718 0.1758,-0.11719 0.1191,-0.17773 0.1758,-0.17579 0.059,-0.23437 0.059,-0.17774 0.059,-0.23437 v -7.35352 h 8.5879 v 48.35352 h -8.5879 v -8.23633 l -0.061,-0.17579 -0.0586,-0.23438 -0.059,-0.23632 -0.1758,-0.17578 -0.1191,-0.11914 -0.1758,-0.17579 -0.2363,-0.0586 -0.2344,-0.0586 -0.1758,-0.0586 h -6.0586 l -0.2363,0.0586 -0.2344,0.0586 -0.1777,0.0586 -0.1758,0.17579 -0.1758,0.11914 -0.1191,0.17578 -0.1172,0.23632 -0.059,0.23438 v 0.17578 443.17774 0.35156 l 0.1172,0.35351 0.1777,0.35352 0.1758,0.35351 0.293,0.23438 0.2949,0.23438 0.3535,0.11914 0.3516,0.11718 0.4121,0.0586 h 176.76559 l 0.4121,-0.0586 0.3516,-0.11718 0.3535,-0.11914 0.2949,-0.23438 0.2344,-0.23438 0.2363,-0.35351 0.1758,-0.35352 0.059,-0.35351 0.059,-0.35156 V 159.06728 158.8915 l -0.059,-0.23438 -0.1172,-0.23632 -0.1172,-0.17578 -0.1777,-0.11914 -0.1758,-0.17579 -0.2363,-0.0586 -0.1758,-0.0586 -0.2344,-0.0586 h -6.0605 l -0.2344,0.0586 -0.1758,0.0586 -0.2363,0.0586 -0.1758,0.17579 -0.1777,0.11914 -0.1172,0.17578 -0.059,0.23632 -0.0578,0.23438 -0.059,0.17578 v 8.23633 h -8.5879 v -48.35352 h 8.5879 v 7.35352 l 0.059,0.23437 0.059,0.23633 0.1172,0.23438 0.1777,0.17773 0.1758,0.17578 0.2363,0.11719 0.2344,0.0586 0.2344,0.0586 h 1.7656 0.1758 l 0.2363,-0.0586 0.2344,-0.11718 0.1777,-0.11719 0.1172,-0.17773 0.1758,-0.17579 0.059,-0.23437 0.059,-0.17774 0.061,-0.23437 V 103.0087 l -0.061,-0.23438 -0.059,-0.23633 -0.059,-0.17578 -0.1758,-0.17578 -0.1172,-0.17773 -0.1777,-0.11719 -0.2344,-0.11719 -0.2363,-0.0586 h -0.1762 -3.8828 -0.2344 l -0.2363,0.0586 -0.1758,0.11719 -0.2363,0.11719 -0.1172,0.17773 -0.1172,0.17578 -0.1172,0.17578 -0.059,0.23633 v 0.23438 3 l -6.4707,6.4707 V 67.715737 l -0.059,-0.17774 v -0.23437 l -0.1191,-0.17773 -0.1172,-0.17579 -0.1172,-0.17578 -1.7656,-1.76562 1.7656,-1.76367 0.1758,-0.17774 0.1172,-0.23437 0.061,-0.23633 0.059,-0.29297 V 5.8915066 h 8.5879 v 8.2343804 l 0.059,0.23632 0.059,0.23438 0.1172,0.23633 0.1777,0.17578 0.1758,0.17773 0.2363,0.11719 0.2344,0.0586 0.2344,0.0586 h 6.0605 l 0.2344,-0.0586 0.1758,-0.0586 0.2363,-0.0586 0.1758,-0.11914 0.1777,-0.17579 0.1172,-0.17578 0.1172,-0.23633 0.059,-0.23437 V 14.125877 2.4793876 l -0.059,-0.41211 -0.059,-0.351562 -0.1758,-0.353516 -0.2363,-0.294922 -0.2344,-0.292969 -0.2949,-0.177734 -0.3535,-0.175781 -0.3516,-0.117188 h -0.4121 -176.76559 z m 21.0605,5.587891 H 370.03775 V 167.30361 H 234.62756 Z M 218.27406,172.8915 H 386.44985 V 597.95009 H 218.27406 Z"
     style="fill:#212830;fill-opacity:1;stroke:#212830;stroke-width:0.0588235px;stroke-linecap:round;stroke-linejoin:round;stroke-miterlimit:4;stroke-dasharray:none;stroke-opacity:1"
     id="path669" />
</svg>
