<?xml version="1.0" encoding="UTF-8" standalone="no"?>
<svg
   xmlns:dc="http://purl.org/dc/elements/1.1/"
   xmlns:cc="http://creativecommons.org/ns#"
   xmlns:rdf="http://www.w3.org/1999/02/22-rdf-syntax-ns#"
   xmlns:svg="http://www.w3.org/2000/svg"
   xmlns="http://www.w3.org/2000/svg"
   id="svg1069"
   height="155mm"
   width="155mm"
   version="1.0">
  <metadata
     id="metadata1073">
    <rdf:RDF>
      <cc:Work
         rdf:about="">
        <dc:format>image/svg+xml</dc:format>
        <dc:type
           rdf:resource="http://purl.org/dc/dcmitype/StillImage" />
        <dc:title></dc:title>
      </cc:Work>
    </rdf:RDF>
  </metadata>
  <defs
     id="defs3" />
  <path
     d="m 121.5323,125.64873 -0.70703,0.0586 -0.70508,0.17578 -0.64843,0.29492 -0.5879,0.4707 -0.52929,0.47071 -0.41211,0.58789 -0.29297,0.70508 -0.23633,0.70703 -0.0586,0.70507 v 22.5879 l 0.0586,0.4707 0.17774,0.4707 0.23437,0.4707 0.29492,0.35352 0.35157,0.29492 0.4707,0.23438 0.4707,0.17578 0.4707,0.0605 h 11.70704 l 0.4707,-0.0605 0.4707,-0.17578 0.4707,-0.23438 0.35157,-0.29492 0.29492,-0.35352 0.23437,-0.4707 0.17774,-0.4707 0.0586,-0.4707 v -15.88086 h 16.70508 v 109.35156 0.41211 l 0.11719,0.35351 0.11914,0.35352 0.23437,0.35156 0.23633,0.29492 3.4707,3.47071 -3.4707,3.41211 -0.29492,0.4121 -0.23438,0.41016 -0.11914,0.4707 -0.0586,0.5293 v 86.76563 l -12.5293,-12.5293 v -5.88281 l -0.0586,-0.41211 -0.11719,-0.47071 -0.17773,-0.35156 -0.23438,-0.35351 -0.35351,-0.35352 -0.35157,-0.23437 -0.35351,-0.17774 -0.4707,-0.11719 -0.41211,-0.0586 h -7.5293 l -0.4707,0.0586 -0.47071,0.17579 -0.4707,0.23632 -0.35351,0.29492 -0.29297,0.35157 -0.23633,0.4707 -0.17578,0.4707 -0.0586,0.47071 v 26.76562 l 0.0586,0.70508 0.23632,0.70508 0.29297,0.70703 0.41211,0.58789 0.5293,0.4707 0.58789,0.47071 0.64649,0.29297 0.70703,0.17773 0.70507,0.0586 h 20.94141 v 93.70508 H 72.237387 v -14.23437 l -0.0586,-0.70703 -0.17579,-0.70508 -0.35351,-0.70508 -0.41211,-0.58984 -0.4707,-0.5293 -0.64649,-0.41016 -0.64843,-0.29492 -0.70508,-0.17578 -0.70508,-0.0586 h -14.23633 l -0.4707,0.0586 -0.47071,0.11719 -0.4121,0.23437 -0.41016,0.29492 -0.29492,0.41211 -0.23438,0.41211 -0.11914,0.4707 -0.0586,0.46876 v 3.35351 l 0.0586,0.5293 0.11914,0.4707 0.23438,0.41211 0.29492,0.41211 0.41016,0.29297 0.4121,0.23633 0.47071,0.11718 0.4707,0.0586 h 7.5293 v 12.52929 h -50.11718 v -12.52929 h 7.5293 l 0.4707,-0.0586 0.4707,-0.11718 0.41211,-0.23633 0.41211,-0.29297 0.29297,-0.41211 0.23633,-0.41211 0.11719,-0.4707 0.0586,-0.5293 v -3.35351 -0.41016 l -0.11719,-0.41211 -0.23633,-0.41211 -0.23437,-0.35352 -0.29492,-0.29296 -0.35157,-0.23633 -0.4121,-0.23438 -0.41211,-0.11719 H 18.766697 4.5323167 l -0.70703,0.0586 -0.70508,0.17578 -0.70703,0.29492 -0.58789,0.41016 -0.4707,0.5293 -0.47070999,0.58984 -0.29296,0.70508 -0.17774,0.70508 -0.0586,0.70703 v 20.88281 l 0.0586,0.76367 0.17774,0.70703 0.29296,0.64649 0.47070999,0.58789 0.4707,0.52929 0.58789,0.41211 0.70703,0.29492 0.70508,0.17579 0.70703,0.0586 H 581.29599 l 0.707,-0.0586 0.7051,-0.17579 0.6465,-0.29492 0.5879,-0.41211 0.5293,-0.52929 0.4121,-0.58789 0.3535,-0.64649 0.1758,-0.70703 0.059,-0.76367 v -20.88281 l -0.059,-0.70703 -0.1758,-0.70508 -0.3535,-0.70508 -0.4121,-0.58984 -0.5293,-0.5293 -0.5879,-0.41016 -0.6465,-0.29492 -0.7051,-0.17578 -0.707,-0.0586 h -14.2344 -0.4121 l -0.4121,0.11719 -0.4121,0.23438 -0.3535,0.23633 -0.293,0.29296 -0.2949,0.35352 -0.1758,0.41211 -0.1172,0.41211 v 0.41016 3.35351 0.5293 l 0.1758,0.4707 0.2363,0.41211 0.293,0.41211 0.4121,0.29297 0.4121,0.23633 0.4707,0.11718 0.4707,0.0586 h 7.5293 v 12.52929 h -50.1191 v -12.52929 h 7.4707 l 0.5293,-0.0586 0.4707,-0.11718 0.4121,-0.23633 0.4121,-0.29297 0.2949,-0.41211 0.2344,-0.41211 0.1172,-0.4707 0.059,-0.5293 v -3.35351 l -0.059,-0.46876 -0.1172,-0.4707 -0.2344,-0.41211 -0.2949,-0.41211 -0.4121,-0.29492 -0.4121,-0.23437 -0.4707,-0.11719 -0.5293,-0.0586 h -14.1758 l -0.7051,0.0586 -0.707,0.17578 -0.7051,0.29492 -0.5879,0.41016 -0.5293,0.5293 -0.4121,0.58984 -0.2949,0.70508 -0.1758,0.70508 -0.059,0.70703 v 14.23437 h -78.5879 v -93.7051 h 20.8809 l 0.7656,-0.0586 0.7051,-0.17773 0.6484,-0.29297 0.5879,-0.47071 0.5293,-0.4707 0.4121,-0.58789 0.293,-0.70703 0.1777,-0.70508 0.059,-0.70508 v -26.76561 -0.47071 l -0.1777,-0.4707 -0.2344,-0.4707 -0.2949,-0.35157 -0.4121,-0.29492 -0.4102,-0.23632 -0.4707,-0.17579 -0.4707,-0.0586 h -7.5293 l -0.4707,0.0586 -0.4121,0.11719 -0.3535,0.17774 -0.4121,0.23437 -0.293,0.35352 -0.2363,0.35351 -0.1758,0.35156 -0.1172,0.47071 -0.059,0.41211 v 5.88281 l -12.5293,12.5293 V 256.3538 l -0.061,-0.5293 -0.1172,-0.4707 -0.2344,-0.41016 -0.2949,-0.4121 -3.4707,-3.41211 3.4707,-3.47071 0.2363,-0.29492 0.1758,-0.35156 0.1758,-0.35352 0.1191,-0.35351 V 245.8831 136.53154 h 16.7051 v 15.88086 l 0.059,0.4707 0.1758,0.4707 0.1777,0.4707 0.3516,0.35352 0.3535,0.29492 0.4707,0.23438 0.4707,0.17578 0.4707,0.0605 h 11.7051 l 0.4707,-0.0605 0.4707,-0.17578 0.4707,-0.23438 0.3535,-0.29492 0.2949,-0.35352 0.2344,-0.4707 0.1758,-0.4707 v -0.4707 -22.5879 l -0.059,-0.70507 -0.1758,-0.70703 -0.2949,-0.70508 -0.4121,-0.58789 -0.5293,-0.47071 -0.5879,-0.4707 -0.6465,-0.29492 -0.7051,-0.17578 -0.7656,-0.0586 z m 65.23438,8.35352 h 212.2949 v 2.5293 h 25.0586 v 25.05859 h 2.5293 v 76.94141 h -2.5293 v 49.17578 l 0.059,0.4707 0.1758,0.4707 0.2363,0.47071 0.293,0.35351 3.4121,3.4707 -3.4121,3.41016 -0.293,0.41211 -0.2363,0.41211 -0.1758,0.4707 -0.059,0.47071 v 7.35351 h 2.5293 v 143.88086 h -2.5293 -25.0586 v 2.4707 h -212.2949 v -2.4707 h -25.11719 -2.4707 V 305.47295 h 2.4707 v -7.35351 -0.47071 l -0.17773,-0.4707 -0.23438,-0.41211 -0.29492,-0.41211 -3.4707,-3.41016 3.4707,-3.4707 0.29492,-0.35351 0.23438,-0.47071 0.17773,-0.4707 v -0.4707 -49.17578 h -2.4707 v -76.94141 h 2.4707 v -25.05859 h 25.11719 z"
     style="fill:#212830;fill-opacity:1;stroke:#212830;stroke-width:0.0588235px;stroke-linecap:round;stroke-linejoin:round;stroke-miterlimit:4;stroke-dasharray:none;stroke-opacity:1"
     id="path1067" />
</svg>
