<?xml version="1.0" encoding="UTF-8" standalone="no"?>
<svg
   xmlns:dc="http://purl.org/dc/elements/1.1/"
   xmlns:cc="http://creativecommons.org/ns#"
   xmlns:rdf="http://www.w3.org/1999/02/22-rdf-syntax-ns#"
   xmlns:svg="http://www.w3.org/2000/svg"
   xmlns="http://www.w3.org/2000/svg"
   id="svg693"
   height="104mm"
   width="104mm"
   version="1.0">
  <metadata
     id="metadata697">
    <rdf:RDF>
      <cc:Work
         rdf:about="">
        <dc:format>image/svg+xml</dc:format>
        <dc:type
           rdf:resource="http://purl.org/dc/dcmitype/StillImage" />
        <dc:title></dc:title>
      </cc:Work>
    </rdf:RDF>
  </metadata>
  <defs
     id="defs3">
    <pattern
       y="0"
       x="0"
       height="6"
       width="6"
       patternUnits="userSpaceOnUse"
       id="WMFhbasepattern" />
  </defs>
  <path
     d="m 142.088,0.02941175 -0.88281,0.0586 -0.82226,0.23633 -0.76563,0.35156 -0.70508,0.47070005 -0.58789,0.58984 -0.4707,0.70508 -0.41211,0.76368 -0.17773,0.82421 -0.11719,0.88282 V 31.382932 l 0.0586,0.4707 0.11914,0.5293 0.23438,0.4707 0.29492,0.41211 0.35156,0.35156 0.41211,0.29493 0.4707,0.23437 0.5293,0.11914 0.4707,0.0586 h 13.70703 l 0.5293,-0.0586 0.5293,-0.11914 0.41016,-0.23437 0.4707,-0.29493 0.35351,-0.35156 0.29493,-0.41211 0.17578,-0.4707 0.17578,-0.5293 v -0.4707 -18.64649 h 19.58984 V 141.91223 l 0.0586,0.52929 0.11718,0.47071 0.23438,0.4707 0.29492,0.41211 0.35352,0.35156 0.4121,0.29492 0.46876,0.35352 0.4121,0.41016 0.29493,0.4707 0.17578,0.5293 0.11719,0.53124 v 0.5293 l -0.11719,0.58789 -0.17578,0.5293 -0.29493,0.4707 -0.4121,0.35157 -0.46876,0.35351 -0.4121,0.29492 -0.35352,0.35157 -0.29492,0.4121 -0.23438,0.47071 -0.11718,0.52929 -0.0586,0.47071 V 254.79504 L 161.6759,240.1466 v -6.88086 l -0.0586,-0.5293 -0.11719,-0.4707 -0.23632,-0.4707 -0.29297,-0.41211 -0.35352,-0.35352 -0.41211,-0.29297 -0.4707,-0.23632 -0.5293,-0.11719 -0.4707,-0.0586 h -8.82227 l -0.58789,0.0586 -0.5293,0.17578 -0.53124,0.23633 -0.41016,0.41016 -0.41211,0.4121 -0.23633,0.5293 -0.17578,0.5293 -0.0586,0.58984 v 31.35156 l 0.0586,0.82422 0.23438,0.88282 0.35351,0.76367 0.4707,0.70703 0.64649,0.58789 0.64844,0.4707 0.82226,0.35157 0.82422,0.23632 0.82422,0.0586 h 24.4707 V 379.26574 H 84.263792 V 362.6173 l -0.0586,-0.82226 -0.23437,-0.82422 -0.35352,-0.82422 -0.4707,-0.64648 -0.58789,-0.64649 -0.70508,-0.4707 -0.82422,-0.35352 -0.82422,-0.23437 -0.82226,-0.0586 h -16.64844 l -0.58789,0.0586 -0.5293,0.17578 -0.5293,0.23438 -0.41211,0.35351 -0.4121,0.4707 -0.23438,0.5293 -0.17578,0.5293 -0.0586,0.58789 v 3.88281 l 0.0586,0.5293 0.11719,0.52929 0.23437,0.41211 0.29492,0.47071 0.35352,0.35351 0.41016,0.29297 0.4707,0.17774 0.4707,0.17578 h 0.5293 8.82422 v 14.70508 h -58.76368 v -14.70508 h 8.82227 0.4707 l 0.5293,-0.17578 0.4707,-0.17774 0.41211,-0.29297 0.35352,-0.35351 0.29297,-0.47071 0.23633,-0.41211 0.11718,-0.52929 0.0586,-0.5293 v -3.88281 l -0.0586,-0.5293 -0.11718,-0.4707 -0.23633,-0.4707 -0.29297,-0.41016 -0.35352,-0.41211 -0.41211,-0.23633 -0.4707,-0.23437 -0.5293,-0.11719 -0.4707,-0.0586 H 4.9708217 l -0.88282,0.0586 -0.82421,0.23437 -0.76368,0.35352 -0.70508,0.4707 -0.58984,0.64649 -0.52929995,0.64648 -0.35156,0.82422 -0.17773,0.82422 -0.11719,0.82226 v 24.5293 l 0.11719,0.82422 0.17773,0.82422 0.35156,0.76367 0.52929995,0.70703 0.58984,0.58789 0.70508,0.5293 0.76368,0.35351 0.82421,0.23438 0.88282,0.0586 H 377.1466 l 0.82422,-0.0586 0.82421,-0.23438 0.76368,-0.35351 0.70508,-0.5293 0.58984,-0.58789 0.5293,-0.70703 0.35156,-0.76367 0.23633,-0.82422 0.0586,-0.82422 v -31.41016 l -0.0586,-0.4707 -0.11719,-0.5293 -0.23633,-0.4707 -0.29297,-0.41211 -0.35351,-0.35351 -0.41211,-0.29492 -0.47071,-0.17579 -0.4707,-0.17578 h -0.5293 -6.88281 -0.5293 l -0.58789,0.17578 -0.4707,0.29493 -0.4707,0.35156 -0.35157,0.4707 -0.29492,0.4707 -0.17578,0.5879 v 0.53124 23.5293 h -26.4707 V 12.736442 h 26.4707 v 23.5293 0.5293 l 0.17578,0.4707 0.17578,0.4707 0.29493,0.41016 0.35351,0.35352 0.41016,0.29492 0.4707,0.23437 0.5293,0.11719 0.4707,0.0586 h 6.88281 l 0.5293,-0.0586 0.4707,-0.11719 0.47071,-0.23437 0.41211,-0.29492 0.35351,-0.35352 0.29297,-0.41016 0.23633,-0.4707 0.11719,-0.4707 0.0586,-0.5293 V 4.9122318 l -0.0586,-0.88282 -0.23633,-0.82421 -0.35156,-0.76368 -0.5293,-0.70508 -0.58984,-0.58984 -0.70508,-0.47070005 -0.76368,-0.35156 -0.82421,-0.23633 -0.82422,-0.0586 z m 47,12.70703025 h 141 V 379.26574 h -141 z"
     style="fill:#000000;fill-opacity:1;stroke:#212830;stroke-width:0.0588235px;stroke-linecap:round;stroke-linejoin:round;stroke-miterlimit:4;stroke-dasharray:none;stroke-opacity:1"
     id="path691" />
</svg>
