<?xml version="1.0" encoding="UTF-8" standalone="no"?>
<svg
   xmlns:dc="http://purl.org/dc/elements/1.1/"
   xmlns:cc="http://creativecommons.org/ns#"
   xmlns:rdf="http://www.w3.org/1999/02/22-rdf-syntax-ns#"
   xmlns:svg="http://www.w3.org/2000/svg"
   xmlns="http://www.w3.org/2000/svg"
   id="svg407"
   height="117mm"
   width="117mm"
   version="1.0">
  <metadata
     id="metadata411">
    <rdf:RDF>
      <cc:Work
         rdf:about="">
        <dc:format>image/svg+xml</dc:format>
        <dc:type
           rdf:resource="http://purl.org/dc/dcmitype/StillImage" />
        <dc:title></dc:title>
      </cc:Work>
    </rdf:RDF>
  </metadata>
  <defs
     id="defs3" />
  <path
     id="path405"
     d="m 387.13168,329.30826 v -35.23529 l 49.0588,4.29412 h 0.8236 l 0.8823,-0.17647 0.7647,-0.29412 0.7059,-0.47059 0.6471,-0.58823 0.5294,-0.64706 0.3529,-0.76471 0.2353,-0.82353 0.059,-0.88235 V 89.72002 l -0.1176,-1.294117 -0.2941,-1.352942 -0.5883,-1.17647 -0.7647,-1.117647 -0.9411,-0.941177 -1.1177,-0.764706 -1.2353,-0.588235 -1.2941,-0.352941 -1.3529,-0.117647 H 8.7199281 l -1.29411,0.117647 -1.35295,0.352941 -1.17647,0.588235 -1.11764,0.764706 -0.94118,0.941177 -0.76471,1.117647 -0.58823,1.17647 -0.35294,1.352942 -0.11765,1.294117 0.11765,1.352941 0.35294,1.294118 0.58823,1.235294 0.76471,1.117647 0.94118,0.941177 1.11764,0.764705 1.17647,0.58824 1.35295,0.35294 1.29411,0.11764 V 219.19062 l 0.0588,0.70588 0.17647,0.70588 0.29411,0.70588 0.35295,0.58824 0.4705799,0.58823 83.52942,83.52942 -29.41177,42.05882 -0.70588,1.23529 -0.47059,1.35294 -0.17644,1.35295 v 1.47058 l 0.35294,1.35295 0.52941,1.35294 0.82353,1.17647 1,1 1.17647,0.82353 1.29412,0.58823 1.35294,0.35294 1.41177,0.0588 1.41176,-0.17647 1.35294,-0.41177 1.29412,-0.70585 1.11765,-0.88235 0.88235,-1.11765 34.647062,-49.47059 0.35294,-0.64706 0.29412,-0.7647 0.17647,-0.82353 v -0.82353 l -0.17647,-0.76471 -0.29412,-0.7647 -0.35294,-0.70589 -0.52941,-0.58823 -86.764712,-86.82353 V 97.484722 H 425.77878 V 281.95532 l -49,-4.29412 h -0.8824 l -0.8235,0.17648 -0.8235,0.29411 -0.7059,0.47059 -0.6471,0.52941 -0.4706,0.70589 -0.4117,0.7647 -0.2353,0.82353 -0.059,0.82353 v 67.35294 l 0.1176,1.05882 0.2353,1.05883 0.5294,0.94117 0.5882,0.88236 0.8236,0.7647 0.8823,0.58824 1,0.41176 1.0588,0.2353 h 1.1177 l 1.0588,-0.17647 1.0588,-0.35294 0.9412,-0.52942 0.8235,-0.64705 11.5883,-11.58824 0.4706,-0.64706 0.4117,-0.70588 0.2942,-0.76471 0.1176,-0.7647 v -0.82353 l -0.1176,-0.82353 -0.2942,-0.70588 -0.4117,-0.70589 -0.4706,-0.64706 z"
     style="fill:#212830;fill-opacity:1;stroke:#212830;stroke-width:0.0588235px;stroke-linecap:round;stroke-linejoin:round;stroke-miterlimit:4;stroke-dasharray:none;stroke-opacity:1" />
</svg>
