<?xml version="1.0" encoding="UTF-8" standalone="no"?>
<svg
   xmlns:dc="http://purl.org/dc/elements/1.1/"
   xmlns:cc="http://creativecommons.org/ns#"
   xmlns:rdf="http://www.w3.org/1999/02/22-rdf-syntax-ns#"
   xmlns:svg="http://www.w3.org/2000/svg"
   xmlns="http://www.w3.org/2000/svg"
   id="svg1157"
   height="164mm"
   width="164mm"
   version="1.0">
  <metadata
     id="metadata1161">
    <rdf:RDF>
      <cc:Work
         rdf:about="">
        <dc:format>image/svg+xml</dc:format>
        <dc:type
           rdf:resource="http://purl.org/dc/dcmitype/StillImage" />
        <dc:title></dc:title>
      </cc:Work>
    </rdf:RDF>
  </metadata>
  <defs
     id="defs3" />
  <path
     d="m 268.68493,0.56876072 -0.88086,0.117187 -0.88281,0.234375 -0.82422,0.35351598 -0.70508,0.5292971 -0.64843,0.646484 -0.5293,0.707031 -0.35156,0.822266 -0.23633,0.882813 -0.0586,0.882812 v 27.8242202 0.5293 l 0.17579,0.52929 0.23632,0.5293 0.29492,0.41211 0.35157,0.41016 0.4707,0.29492 0.4707,0.23632 0.5293,0.11719 0.5293,0.0586 h 14.41211 l 0.58789,-0.0586 0.4707,-0.11719 0.5293,-0.23632 0.41211,-0.29492 0.41211,-0.41016 0.29297,-0.41211 0.23632,-0.5293 0.11719,-0.52929 0.0586,-0.5293 v -19.58984 h 20.5879 V 148.80313 l 0.0605,0.64649 0.17578,0.5293 0.29492,0.58984 0.41016,0.4707 4.23633,4.23438 -4.23633,4.23632 -0.35156,0.35157 -0.23633,0.41211 -0.17578,0.4707 -0.11719,0.4707 -0.0605,0.47071 v 107 l -15.41017,-15.47071 v -7.23632 l -0.0586,-0.5293 -0.17773,-0.5293 -0.17578,-0.4707 -0.35352,-0.41016 -0.35351,-0.41211 -0.4707,-0.29492 -0.46876,-0.23437 -0.53124,-0.11914 -0.5293,-0.0586 h -9.29297 l -0.5293,0.0586 -0.52929,0.11914 -0.47071,0.23437 -0.41211,0.29492 -0.41211,0.41211 -0.29297,0.41016 -0.23632,0.4707 -0.11719,0.5293 -0.0586,0.5293 v 33 l 0.0586,0.9414 0.23437,0.82422 0.41211,0.82422 0.47071,0.76367 0.64648,0.58789 0.76563,0.5293 0.76367,0.41211 0.88281,0.23633 0.88281,0.0586 h 25.76368 v 118.58788 h -96.82227 v -20.64648 l -0.11719,-0.88282 -0.23633,-0.88281 -0.35351,-0.82227 -0.5293,-0.70703 -0.64648,-0.64648 -0.70508,-0.5293 -0.82422,-0.35351 -0.88281,-0.23438 -0.88281,-0.0605 h -17.5293 l -0.58789,0.0605 -0.58789,0.17578 -0.5293,0.23438 -0.4707,0.41211 -0.35352,0.4707 -0.29297,0.5293 -0.17773,0.58789 -0.0586,0.58984 v 4.11719 l 0.0586,0.5293 0.11914,0.52929 0.23437,0.5293 0.29493,0.41211 0.4121,0.41211 0.41016,0.29297 0.4707,0.23633 0.5293,0.11718 0.5293,0.0586 h 9.29492 v 15.4707 h -61.82422 v -15.4707 h 9.29492 l 0.5293,-0.0586 0.5293,-0.11718 0.4707,-0.23633 0.41211,-0.29297 0.41211,-0.41211 0.29297,-0.41211 0.23633,-0.5293 0.11718,-0.52929 0.0586,-0.5293 v -4.11719 l -0.0586,-0.5293 -0.11718,-0.53124 -0.23633,-0.46876 -0.29297,-0.4707 -0.41211,-0.35351 -0.41211,-0.29493 -0.4707,-0.23437 -0.5293,-0.17773 h -0.5293 -17.52929 l -0.88282,0.0605 -0.88281,0.23438 -0.82226,0.35351 -0.76563,0.5293 -0.58789,0.64648 -0.5293,0.70703 -0.41211,0.82227 -0.23437,0.88281 -0.0586,0.88282 v 25.76367 l 0.0586,0.9414 0.23437,0.82422 0.41211,0.82227 0.5293,0.76562 0.58789,0.64649 0.76563,0.4707 0.82226,0.41211 0.88281,0.23438 0.88282,0.0605 h 180.29297 v 51.58789 l 35.29492,131.70508 2,5.41211 3,4.94141 3.82422,4.35351 4.58789,3.4707 5.17578,2.64649 5.52929,1.58789 5.76563,0.5293 h 125.47069 l 0.8828,-0.0586 0.8809,-0.23632 0.8242,-0.41016 0.7637,-0.5293 0.5898,-0.58984 0.5293,-0.76367 0.4121,-0.82422 0.1758,-0.88281 0.1172,-0.88086 v -9.0586 l -0.059,-0.5293 -0.1172,-0.53124 -0.2363,-0.46876 -0.293,-0.4707 -0.4121,-0.35351 -0.4121,-0.35352 -9.2949,-5.35351 -0.5293,-0.23438 -0.5879,-0.11719 -0.5879,-0.0586 -0.5879,0.11719 -0.5293,0.17578 -0.5293,0.29492 -0.4121,0.41211 -0.4121,0.41016 -0.2344,0.53124 -0.1777,0.5879 -0.059,0.58789 v 9.29297 h -36.0586 v -82.5293 h 36.0586 v 9.29501 l 0.059,0.58789 0.1777,0.58789 0.2344,0.4707 0.4121,0.47071 0.4121,0.41211 0.5293,0.29492 0.5293,0.17578 0.5879,0.11719 0.5879,-0.0586 0.5879,-0.11718 0.5293,-0.23633 9.2949,-5.35156 0.4121,-0.35352 0.4121,-0.35352 0.293,-0.4707 0.2363,-0.4707 0.1172,-0.5293 0.059,-0.5293 v -9.05859 l -0.1172,-0.94141 -0.1758,-0.82226 -0.4121,-0.82422 -0.5293,-0.76562 -0.5898,-0.5879 -0.7637,-0.52929 -0.8242,-0.41211 -0.8809,-0.23438 -0.8828,-0.0586 h -46.3535 v -412.4707 h 46.3535 l 0.8828,-0.0586 0.8809,-0.23633 0.8242,-0.35156 0.7637,-0.5293 0.5898,-0.64843 0.5293,-0.70508 0.4121,-0.82422 0.1758,-0.882808 0.1172,-0.88086 v -9.11914 l -0.059,-0.5293 -0.1172,-0.5293 -0.2363,-0.4707 -0.293,-0.41016 -0.4121,-0.4121 -0.4121,-0.29493 -9.2949,-5.35351 -0.5293,-0.23438 -0.5879,-0.17578 h -0.5879 l -0.5879,0.0586 -0.5293,0.17578 -0.5293,0.29492 -0.4121,0.41016 -0.4121,0.4707 -0.2344,0.5293 -0.1777,0.53124 -0.059,0.5879 v 9.29296 h -36.0586 v -82.4707 h 36.0586 v 9.23633 l 0.059,0.58789 0.1777,0.58789 0.2344,0.5293 0.4121,0.4707 0.4121,0.35352 0.5293,0.29297 0.5293,0.23632 0.5879,0.0586 h 0.5879 l 0.5879,-0.17578 0.5293,-0.23633 9.2949,-5.35157 0.4121,-0.29492 0.4121,-0.41211 0.293,-0.41211 0.2363,-0.52929 0.1172,-0.47071 0.059,-0.58789 V 5.7445418 l -0.1172,-0.882812 -0.1758,-0.882813 -0.4121,-0.822266 -0.5293,-0.707031 -0.5898,-0.646484 -0.7637,-0.5292971 -0.8242,-0.35351598 -0.8809,-0.234375 -0.8828,-0.117187 z m 67,10.35156128 h 82.41212 v 3.0586 h 17.5293 V 451.21524 h -14.4121 l -0.5879,0.0586 -0.5879,0.17578 -0.5293,0.29492 -0.4707,0.35352 -0.4121,0.4707 -0.293,0.5293 -0.1777,0.58789 -0.059,0.58789 v 4.11718 l 0.059,0.5879 0.1777,0.4707 0.1758,0.5293 0.3535,0.4121 0.3516,0.41211 0.4707,0.29493 0.4707,0.23437 0.5293,0.11719 0.5293,0.0605 h 17.5293 v 147.46876 h -68.82229 l -3.82422,-0.35157 -3.70508,-1.11719 -3.4707,-1.70703 -3.05859,-2.35351 -2.5293,-2.88086 -2,-3.29492 -1.35352,-3.58789 -31.82422,-118.88282 v -13.29297 h 14.41211 l 0.58789,-0.0605 0.47071,-0.11719 0.52929,-0.23437 0.41211,-0.29493 0.41211,-0.41211 0.29492,-0.4121 0.23438,-0.5293 0.11719,-0.4707 0.0586,-0.5879 v -4.11718 l -0.0586,-0.58789 -0.17578,-0.58789 -0.29493,-0.5293 -0.35156,-0.4707 -0.4707,-0.35352 -0.58984,-0.29492 -0.5293,-0.17578 -0.64649,-0.0586 h -14.41211 v -48.4707 h -3.05859 V 52.156652 h 3.05859 v -38.17773 h 17.5293 z"
     style="fill:#212830;fill-opacity:1;stroke:#212830;stroke-width:0.0588235px;stroke-linecap:round;stroke-linejoin:round;stroke-miterlimit:4;stroke-dasharray:none;stroke-opacity:1"
     id="path1155" />
</svg>
