<?xml version="1.0" encoding="UTF-8" standalone="no"?>
<svg
   xmlns:dc="http://purl.org/dc/elements/1.1/"
   xmlns:cc="http://creativecommons.org/ns#"
   xmlns:rdf="http://www.w3.org/1999/02/22-rdf-syntax-ns#"
   xmlns:svg="http://www.w3.org/2000/svg"
   xmlns="http://www.w3.org/2000/svg"
   id="svg1601"
   height="112mm"
   width="112mm"
   version="1.0">
  <metadata
     id="metadata1605">
    <rdf:RDF>
      <cc:Work
         rdf:about="">
        <dc:format>image/svg+xml</dc:format>
        <dc:type
           rdf:resource="http://purl.org/dc/dcmitype/StillImage" />
        <dc:title></dc:title>
      </cc:Work>
    </rdf:RDF>
  </metadata>
  <defs
     id="defs3" />
  <path
     d="m 62.242409,0.27073419 -1.82422,0.177734 -1.70508,0.470704 -1.64648,0.76367201 -1.4707,1 -1.23633,1.294921 -1.0586,1.470703 -0.76367,1.587891 -0.4707,1.763672 -0.11914,1.7656248 V 412.74143 l 0.11914,1.76563 0.4707,1.76367 0.76367,1.58984 1.0586,1.4707 1.23633,1.29297 1.4707,1.0586 1.64648,0.70703 1.70508,0.4707 1.82422,0.17578 h 20.58789 l 1.76563,-0.17578 1.76367,-0.4707 1.64843,-0.70703 1.46876,-1.0586 1.23632,-1.29297 1.0586,-1.4707 0.76562,-1.58984 0.4707,-1.76367 0.11719,-1.76563 V 392.09495 H 330.12522 v 20.64648 l 0.17578,1.76563 0.47071,1.76367 0.76562,1.58984 1,1.4707 1.29297,1.29297 1.4707,1.0586 1.64649,0.70703 1.70703,0.4707 1.82227,0.17578 h 20.58984 l 1.76367,-0.17578 1.76563,-0.4707 1.64648,-0.70703 1.4707,-1.0586 1.23438,-1.29297 1.06054,-1.4707 0.76368,-1.58984 0.41211,-1.76367 0.17578,-1.76563 V 10.565656 l -0.17578,-1.7656248 -0.41211,-1.763672 -0.76368,-1.587891 -1.06054,-1.470703 -1.23438,-1.294921 -1.4707,-1 -1.64648,-0.76367201 -1.76563,-0.470704 -1.76367,-0.177734 h -20.58984 l -1.82227,0.177734 -1.70703,0.470704 -1.64649,0.76367201 -1.4707,1 -1.29297,1.294921 -1,1.470703 -0.76562,1.587891 -0.47071,1.763672 -0.17578,1.7656248 V 31.21214 H 93.125219 V 10.565656 l -0.11719,-1.7656248 -0.4707,-1.763672 -0.76562,-1.587891 -1.0586,-1.470703 -1.23632,-1.294921 -1.46876,-1 -1.64843,-0.76367201 -1.76367,-0.470704 -1.76563,-0.177734 z M 112.301,72.448466 l 3.70703,0.29297 3.5879,0.94141 3.35156,1.64843 3,2.29297 2.4707,2.76563 1.94141,3.17578 1.29492,3.5293 0.58789,3.64648 -0.11719,3.76563 v 0.52929 l 0.0586,0.5293 0.17578,0.5293 0.29492,0.52929 0.35351,0.41211 0.41016,0.35352 0.4707,0.29297 0.5293,0.17773 17.82422,4.763664 0.94141,0.17579 h 0.9414 l 0.94141,-0.23438 0.9414,-0.35352 0.76368,-0.52929 0.70508,-0.70508 0.58984,-0.76562 0.35156,-0.941404 0.23633,-0.93946 0.41211,-6.4707 -0.4707,-6.4707 -1.35352,-6.35352 -0.17578,-0.9414 v -0.94141 l 0.17578,-0.94141 0.29492,-0.88086 0.5293,-0.82421 0.64648,-0.70703 0.76368,-0.5879 0.82421,-0.4121 0.94141,-0.23438 0.94141,-0.11719 h 98.9414 l 0.94141,0.11719 0.88086,0.23438 0.88281,0.4121 0.76563,0.5879 0.64648,0.70703 0.4707,0.82421 0.35352,0.88086 0.17578,0.94141 v 0.94141 l -0.17578,0.9414 -1.41211,6.35352 -0.4707,6.4707 0.4707,6.4707 0.17578,0.93946 0.41211,0.941404 0.5293,0.76562 0.70508,0.70508 0.82421,0.52929 0.88282,0.35352 0.9414,0.23438 h 1 l 0.94141,-0.17579 17.82226,-4.763664 0.5293,-0.17773 0.4707,-0.29297 0.41211,-0.35352 0.35352,-0.41211 0.23437,-0.52929 0.17774,-0.5293 0.11719,-0.5293 -0.0586,-0.52929 -0.11719,-3.76563 0.64649,-3.64648 1.29297,-3.5293 1.88281,-3.17578 2.5293,-2.76563 2.9414,-2.29297 3.35352,-1.64843 3.64648,-0.94141 3.70703,-0.29297 3.70508,0.47071 3.5293,1.11718 3.29492,1.76368 2.88086,2.4121 2.35352,2.88282 1.82422,3.23632 1.11718,3.5879 0.41211,3.70507 -0.23633,3.70703 -1,3.5879 -1.64648,3.351554 -2.23438,3 -2.76562,2.5293 -3.17578,1.88281 -3.5293,1.29492 -3.70703,0.58789 -3.70508,-0.0586 -0.52929,-0.0586 -0.5879,0.11719 -0.53124,0.17578 -0.46876,0.23633 -0.4121,0.35351 -0.35352,0.41016 -0.29492,0.4707 -0.17578,0.5293 -4.76368,17.82422 -0.17773,0.94141 v 1 l 0.23633,0.9414 0.35156,0.88281 0.5293,0.82227 0.70703,0.70703 0.76367,0.5293 0.88281,0.41016 0.94141,0.23632 6.4707,0.41211 6.47071,-0.4707 6.35351,-1.41211 0.93946,-0.17578 h 0.9414 l 0.94141,0.17578 0.9414,0.35352 0.76563,0.4707 0.70508,0.64648 0.58789,0.76368 0.41211,0.88281 0.29492,0.88281 0.0586,1 v 140.17578 l -0.0586,1 -0.29492,0.88281 -0.41211,0.88282 -0.58789,0.76367 -0.70508,0.64844 -0.76563,0.4707 -0.9414,0.35156 -0.94141,0.17774 h -0.9414 l -0.93946,-0.17774 -6.35351,-1.41016 -6.47071,-0.4707 -6.4707,0.41016 -0.94141,0.23633 -0.88281,0.41211 -0.76367,0.52929 -0.70703,0.70508 -0.5293,0.82422 -0.35156,0.88281 -0.23633,0.93946 v 1 l 0.17773,0.9414 4.76368,17.82423 0.17578,0.5293 0.29492,0.4707 0.35352,0.41211 0.4121,0.35351 0.46876,0.23438 0.53124,0.17578 0.5879,0.11914 0.52929,-0.0605 3.70508,-0.0586 3.70703,0.58984 3.5293,1.29297 3.17578,1.88282 2.76562,2.52929 2.23438,3 1.64648,3.35352 1,3.58789 0.23633,3.70508 -0.41211,3.70703 -1.11718,3.58789 -1.82422,3.23437 -2.35352,2.88282 -2.88086,2.41211 -3.29492,1.76367 -3.5293,1.11914 -3.70508,0.4707 -3.70703,-0.29492 -3.64648,-0.94141 -3.35352,-1.64648 -2.9414,-2.23633 -2.5293,-2.82226 -1.88281,-3.17774 -1.29297,-3.5293 -0.64649,-3.64648 0.11719,-3.76562 0.0586,-0.5293 -0.11719,-0.5293 -0.17774,-0.5293 -0.23437,-0.52929 -0.35352,-0.41211 -0.41211,-0.35156 -0.4707,-0.29493 -0.5293,-0.17578 -17.82226,-4.76562 -0.94141,-0.17578 h -1 l -0.9414,0.23437 -0.88282,0.35352 -0.82421,0.52929 -0.70508,0.70703 -0.5293,0.76368 -0.41211,0.9414 -0.17578,0.94141 -0.4707,6.4707 0.4707,6.47071 1.41211,6.35156 0.17578,0.9414 v 0.94141 l -0.17578,0.94141 -0.35352,0.88281 -0.4707,0.82227 -0.64648,0.70703 -0.76563,0.58789 -0.88281,0.41211 -0.88086,0.23437 -0.94141,0.11914 h -98.9414 l -0.94141,-0.11918 -0.94141,-0.23437 -0.82421,-0.41211 -0.76368,-0.58789 -0.64648,-0.70703 -0.5293,-0.82227 -0.29492,-0.88281 -0.17578,-0.94141 v -0.94141 l 0.17578,-0.9414 1.35352,-6.35156 0.4707,-6.47071 -0.41211,-6.4707 -0.23633,-0.94141 -0.35156,-0.9414 -0.58984,-0.76368 -0.70508,-0.70703 -0.76368,-0.52929 -0.9414,-0.35352 -0.94141,-0.23437 h -0.9414 l -0.94141,0.17578 -17.82422,4.76562 -0.5293,0.17578 -0.4707,0.29493 -0.41016,0.35156 -0.35351,0.41211 -0.29492,0.52929 -0.17578,0.5293 -0.0586,0.5293 v 0.5293 l 0.11719,3.76562 -0.58789,3.64648 -1.29492,3.5293 -1.94141,3.17774 -2.4707,2.82226 -3,2.23633 -3.35156,1.64648 -3.5879,0.94141 -3.70703,0.29492 -3.70507,-0.4707 -3.5879,-1.11914 -3.23632,-1.76367 -2.882821,-2.41211 -2.4121,-2.88282 -1.76368,-3.23437 -1.11718,-3.58789 -0.47071,-3.70703 0.29297,-3.70508 1,-3.58789 1.58984,-3.35352 2.29297,-3 2.765631,-2.52929 3.17578,-1.88282 3.5293,-1.29297 3.64648,-0.58984 3.76563,0.0586 0.52929,0.0605 0.5293,-0.1191 0.5293,-0.17578 0.4707,-0.23438 0.4707,-0.35351 0.35352,-0.41211 0.29297,-0.4707 0.17773,-0.5293 4.76367,-17.82422 0.17579,-0.9414 -0.0586,-1 -0.17578,-0.93946 -0.35352,-0.88281 -0.58789,-0.82422 -0.64648,-0.70508 -0.82422,-0.52929 -0.88281,-0.41211 -0.93946,-0.23633 -6.4707,-0.41016 -6.4707,0.4707 -6.353521,1.41016 -0.9414,0.17774 h -0.94141 l -0.94141,-0.17774 -0.88086,-0.35156 -0.82421,-0.4707 -0.70703,-0.64844 -0.5879,-0.76367 -0.4121,-0.88282 -0.23438,-0.88281 -0.11719,-1 V 141.56565 l 0.11719,-1 0.23438,-0.88281 0.4121,-0.88281 0.5879,-0.76368 0.70703,-0.64648 0.82421,-0.4707 0.88086,-0.35352 0.94141,-0.17578 h 0.94141 l 0.9414,0.17578 6.353521,1.41211 6.4707,0.4707 6.4707,-0.41211 0.93946,-0.23632 0.88281,-0.41016 0.82422,-0.5293 0.64648,-0.70703 0.58789,-0.82227 0.35352,-0.88281 0.17578,-0.9414 0.0586,-1 -0.17579,-0.94141 -4.76367,-17.82422 -0.17773,-0.5293 -0.29297,-0.4707 -0.35352,-0.41016 -0.4707,-0.35351 -0.4707,-0.23633 -0.5293,-0.17578 -0.5293,-0.11719 -0.52929,0.0586 -3.76563,0.0586 -3.64648,-0.58789 -3.5293,-1.29492 -3.17578,-1.88281 -2.765631,-2.5293 -2.29297,-3 -1.58984,-3.351554 -1,-3.5879 -0.29297,-3.70703 0.47071,-3.70507 1.11718,-3.5879 1.76368,-3.23632 2.4121,-2.88282 2.882821,-2.4121 3.23632,-1.76368 3.5879,-1.11718 z"
     style="fill:#212830;fill-opacity:1;stroke:#212830;stroke-width:0.0588235px;stroke-linecap:round;stroke-linejoin:round;stroke-miterlimit:4;stroke-dasharray:none;stroke-opacity:1"
     id="path1597" />
</svg>
