<?xml version="1.0" encoding="UTF-8" standalone="no"?>
<svg
   xmlns:dc="http://purl.org/dc/elements/1.1/"
   xmlns:cc="http://creativecommons.org/ns#"
   xmlns:rdf="http://www.w3.org/1999/02/22-rdf-syntax-ns#"
   xmlns:svg="http://www.w3.org/2000/svg"
   xmlns="http://www.w3.org/2000/svg"
   id="svg1433"
   height="143mm"
   width="143mm"
   version="1.0">
  <metadata
     id="metadata1437">
    <rdf:RDF>
      <cc:Work
         rdf:about="">
        <dc:format>image/svg+xml</dc:format>
        <dc:type
           rdf:resource="http://purl.org/dc/dcmitype/StillImage" />
        <dc:title></dc:title>
      </cc:Work>
    </rdf:RDF>
  </metadata>
  <defs
     id="defs3" />
  <path
     d="M 92.412986,1.3534064 V 539.11903 h 43.470704 v -14.35352 l -7.70703,-8.58789 -0.35156,-0.29492 -0.35352,-0.23438 -0.41211,-0.17773 -0.41211,-0.0586 h -0.4707 l -0.41016,0.0586 -0.41211,0.17773 -0.35351,0.17578 -0.35352,0.29493 -0.23437,0.35156 -0.23633,0.41211 -0.11719,0.41211 v 0.4707 9.4707 H 104.2958 v -71.17578 h 19.76367 v 9.4707 0.46876 l 0.11719,0.4121 0.23633,0.41211 0.23437,0.35352 0.35352,0.29297 0.35351,0.23633 0.41211,0.11718 0.41016,0.11719 h 0.4707 l 0.41211,-0.11719 0.41211,-0.17578 0.35352,-0.23633 0.35156,-0.29296 7.70703,-8.5879 v -22.23632 h -11.82422 v 7.88281 h -17.41211 v -63.23633 h 4.76563 l 2.82421,-0.29297 2.70508,-0.70703 2.58789,-1.23437 2.29493,-1.70703 1.9414,-2.0586 1.58789,-2.41016 0.17578,-0.35351 0.0586,-0.4707 v -0.41211 l -0.0586,-0.47071 -0.11718,-0.41211 -0.23633,-0.35156 -0.29297,-0.35351 -0.35352,-0.29493 -0.41211,-0.17578 -0.4121,-0.11718 -0.46876,-0.0586 h -16.58984 v -27.64844 h 114.58983 v 27.64844 h -14.23632 l -0.41211,0.0586 -0.41211,0.11718 -0.41016,0.17578 -0.35351,0.29493 -0.29493,0.35351 -0.23437,0.35156 -0.11719,0.41211 -0.11914,0.47071 v 0.41211 l 0.11914,0.4707 0.17578,0.35351 1.5293,2.41016 2,2.0586 2.29492,1.70703 2.5293,1.23437 2.76367,0.70703 2.82422,0.29297 h 37.70508 l 0.41211,-0.0586 0.4707,-0.11718 0.35352,-0.23438 0.35156,-0.23632 0.29492,-0.35352 0.23438,-0.41016 0.17773,-0.4121 0.0586,-0.47071 v -0.41211 l -0.11719,-0.4707 -0.17774,-0.41211 -0.29297,-0.35351 -0.29492,-0.29297 -2.5293,-2.35352 -2.05859,-2.70508 -1.5293,-3.05859 -1,-3.29492 -0.41211,-3.35352 0.11719,-3.41016 -0.88086,-1.23632 -0.64844,-1.35352 -0.35156,-1.4707 -0.11914,-1.5293 0.23633,-1.5293 0.4707,-1.4121 0.76367,-1.35157 1,-1.11719 1.23633,-0.9414 1.35157,-0.70703 1.4707,-0.41211 1.4707,-0.11719 1.5293,0.17773 3.11914,-2 3.4707,-1.35351 3.64649,-0.70703 h 3.70507 l 3.64844,0.70703 3.41016,1.35351 3.17773,2 1.47071,-0.17773 1.52929,0.11719 1.47071,0.41211 1.35156,0.70703 1.17773,0.9414 1,1.11719 0.76367,1.35157 0.5293,1.4121 0.17774,1.5293 -0.0586,1.5293 -0.35351,1.4707 -0.64649,1.35352 -0.9414,1.23632 0.17578,3.41016 -0.41211,3.35352 -1,3.29492 -1.58789,3.05859 -2.0586,2.70508 -2.4707,2.35352 -0.29492,0.29297 -0.29297,0.35351 -0.17773,0.41211 -0.11719,0.4707 v 0.41211 l 0.0586,0.47071 0.11914,0.4121 0.23438,0.41016 0.29492,0.35352 0.35156,0.23632 0.41211,0.23438 0.41211,0.11719 0.4707,0.0586 h 37.70508 l 2.82421,-0.29298 2.70508,-0.70703 2.58984,-1.23437 2.29297,-1.70703 1.94141,-2.0586 1.58789,-2.41016 0.17773,-0.35351 0.0586,-0.4707 v -0.41211 l -0.0586,-0.47071 -0.11914,-0.41211 -0.23437,-0.35156 -0.29493,-0.35351 -0.35156,-0.29493 -0.41211,-0.17578 -0.41211,-0.11718 -0.4707,-0.0586 h -14.23438 v -27.64844 h 114.64649 v 27.64844 h -16.64649 l -0.4121,0.0586 -0.41211,0.11718 -0.41211,0.17578 -0.35352,0.29493 -0.29297,0.35351 -0.23633,0.35156 -0.17578,0.41211 -0.0586,0.47071 v 0.41211 l 0.11719,0.4707 0.17578,0.35351 1.5293,2.41016 2,2.0586 2.29492,1.70703 2.52929,1.23437 2.76563,0.70703 2.82226,0.29297 h 18.94141 v -221.4707 h -18.9414 l -2.82226,0.29492 -2.76563,0.76562 -2.52929,1.23438 -2.29492,1.64648 -2,2.0586 -1.5293,2.41211 -0.17578,0.41211 -0.11719,0.41211 v 0.4707 l 0.0586,0.41211 0.17578,0.41016 0.23633,0.4121 0.29297,0.29493 0.35352,0.29297 0.41211,0.17773 0.41211,0.11719 0.4121,0.0586 h 16.64649 v 27.70703 H 319.23719 V 171.3534 h 14.23438 l 0.4707,-0.0586 0.41211,-0.11719 0.41211,-0.17773 0.35156,-0.29297 0.29493,-0.29493 0.23437,-0.4121 0.11914,-0.41016 0.0586,-0.41211 v -0.4707 l -0.0586,-0.41211 -0.17773,-0.41211 -1.58789,-2.41211 -1.94141,-2.0586 -2.29297,-1.64647 -2.58984,-1.23438 -2.70508,-0.76562 -2.82422,-0.29492 h -37.70508 l -0.4707,0.0605 -0.41211,0.11719 -0.41211,0.23438 -0.35156,0.29492 -0.29492,0.29297 -0.23438,0.41211 -0.11914,0.41211 -0.0586,0.4707 v 0.41211 l 0.11719,0.4707 0.17773,0.41211 0.29297,0.35156 0.29492,0.29493 2.4707,2.35351 2.0586,2.76367 1.58789,3 1,3.29493 0.41211,3.35156 -0.17578,3.41211 0.9414,1.23633 0.64649,1.4121 0.35351,1.46876 0.0586,1.53124 -0.17774,1.46876 -0.5293,1.4707 -0.76367,1.29492 -1,1.17578 -1.17773,0.94141 -1.35156,0.64843 -1.47071,0.41016 -1.52929,0.11914 -1.47071,-0.11914 -3.17773,1.94141 -3.41016,1.35351 -3.64844,0.70508 h -3.70507 l -3.64649,-0.70508 -3.4707,-1.35351 -3.11914,-1.94141 -1.5293,0.11914 -1.4707,-0.11914 -1.4707,-0.41016 -1.35157,-0.64843 -1.23633,-0.94141 -1,-1.17578 -0.76367,-1.29492 -0.4707,-1.4707 -0.23633,-1.46876 0.11914,-1.53124 0.35156,-1.46876 0.64844,-1.4121 0.88086,-1.23633 -0.11719,-3.41211 0.41211,-3.35156 1,-3.29493 1.5293,-3 2.05859,-2.76367 2.5293,-2.35351 0.29492,-0.29493 0.29297,-0.35156 0.17774,-0.41211 0.11718,-0.4707 v -0.41207 l -0.0586,-0.4707 -0.17773,-0.41211 -0.23438,-0.41211 -0.29492,-0.29297 -0.35156,-0.29492 -0.35352,-0.23438 -0.4707,-0.11719 -0.41211,-0.0605 h -37.70506 l -2.82422,0.29488 -2.76367,0.76562 -2.5293,1.23438 -2.29492,1.64648 -2,2.0586 -1.5293,2.41211 -0.17578,0.41211 -0.11914,0.41211 v 0.4707 l 0.11914,0.41211 0.11719,0.41016 0.23437,0.4121 0.29493,0.29493 0.35351,0.29297 0.41016,0.17773 0.41211,0.11719 0.41211,0.0586 h 14.23632 v 27.70703 H 106.64736 v -27.70703 h 16.58984 l 0.46876,-0.0586 0.4121,-0.11719 0.41211,-0.17773 0.35352,-0.29297 0.29297,-0.29493 0.23633,-0.4121 0.11718,-0.41016 0.0586,-0.41211 v -0.4707 l -0.0586,-0.41211 -0.17578,-0.41211 -1.58789,-2.41211 -1.9414,-2.0586 -2.29493,-1.64648 -2.58789,-1.23438 -2.70508,-0.76562 -2.82421,-0.29492 h -4.76563 V 96.236216 h 17.41211 v 7.882814 h 11.82422 V 81.882706 l -7.70703,-8.58789 -0.35156,-0.29492 -0.35352,-0.23438 -0.41211,-0.17578 -0.41211,-0.0586 h -0.4707 l -0.41016,0.0586 -0.41211,0.17578 -0.35351,0.23438 -0.35352,0.29492 -0.23437,0.35351 -0.23633,0.35157 -0.11719,0.4121 v 0.47071 9.4707 H 104.2958 V 13.177625 h 19.76367 v 9.529297 0.41211 l 0.11719,0.412109 0.23633,0.410155 0.23437,0.35352 0.35352,0.29492 0.35351,0.23437 0.41211,0.11719 0.41016,0.11914 h 0.4707 l 0.41211,-0.11914 0.41211,-0.11719 0.35352,-0.23437 0.35156,-0.29492 7.70703,-8.587894 V 1.3534064 Z M 106.64736,210.8827 H 433.88368 V 329.53113 H 106.64736 Z"
     style="fill:#212830;fill-opacity:1;stroke:#212830;stroke-width:0.0588235px;stroke-linecap:round;stroke-linejoin:round;stroke-miterlimit:4;stroke-dasharray:none;stroke-opacity:1"
     id="path1431" />
</svg>
