<?xml version="1.0" encoding="UTF-8" standalone="no"?>
<svg
   xmlns:dc="http://purl.org/dc/elements/1.1/"
   xmlns:cc="http://creativecommons.org/ns#"
   xmlns:rdf="http://www.w3.org/1999/02/22-rdf-syntax-ns#"
   xmlns:svg="http://www.w3.org/2000/svg"
   xmlns="http://www.w3.org/2000/svg"
   id="svg1357"
   height="127mm"
   width="127mm"
   version="1.0">
  <metadata
     id="metadata1361">
    <rdf:RDF>
      <cc:Work
         rdf:about="">
        <dc:format>image/svg+xml</dc:format>
        <dc:type
           rdf:resource="http://purl.org/dc/dcmitype/StillImage" />
        <dc:title></dc:title>
      </cc:Work>
    </rdf:RDF>
  </metadata>
  <defs
     id="defs3" />
  <path
     d="m 243.26565,47.441406 -0.4707,0.0586 -0.4121,0.11719 -0.4121,0.23633 -0.3516,0.23437 -0.3535,0.35352 -0.2363,0.41211 -0.1172,0.4707 -0.059,0.41016 v 0.4707 l 0.1172,0.4707 0.1777,0.41211 0.2344,0.41211 0.3535,0.29492 0.3516,0.29297 0.4121,0.17773 13.0586,4.17579 V 106.44142 H 149.08793 l -0.46876,0.0586 -0.4707,0.11719 -0.41211,0.23633 -0.35351,0.29296 -0.29492,0.41211 -0.23438,0.41211 -0.17578,0.47071 v 0.4707 4.05859 0.52928 l 0.17578,0.41211 0.23438,0.4707 0.29492,0.35157 0.35351,0.29492 0.41211,0.23632 0.4707,0.11719 0.46876,0.0586 h 45.06054 v 82.76366 h -45.06054 l -0.41016,0.0605 -0.41211,0.11719 -0.35352,0.17578 -0.35351,0.23633 -0.35156,0.29297 -0.23633,0.35352 -0.17578,0.41211 -0.11719,0.4121 v 0.41016 25.41211 0.4707 l 0.17578,0.47075 0.23438,0.41211 0.29492,0.35351 0.35351,0.29297 0.41211,0.23633 0.4707,0.17578 0.46876,0.0586 h 5.76562 l 0.41211,-0.0586 0.41211,-0.11719 0.41016,-0.17773 0.35351,-0.23438 0.29492,-0.29492 0.23438,-0.35156 0.17773,-0.41211 0.11719,-0.41211 0.0586,-0.41211 v -18.05859 h 24.52929 v 18.05859 l 0.0586,0.4707 0.11719,0.47071 0.23633,0.41211 0.29297,0.35351 0.41211,0.29297 0.41211,0.23633 0.47069,0.17578 0.4707,0.0586 h 9.82422 v 125.35352 h -9.82422 l -0.4707,0.0586 -0.4707,0.11719 -0.41211,0.23633 -0.41211,0.29297 -0.29297,0.35351 -0.23633,0.47071 -0.11719,0.41211 -0.0586,0.52929 v 18 h -24.5293 v -18 l -0.0586,-0.52929 -0.17773,-0.41211 -0.17579,-0.47071 -0.35351,-0.35351 -0.35156,-0.29297 -0.41211,-0.23633 -0.47071,-0.11719 -0.4707,-0.0586 h -5.76562 l -0.46876,0.0586 -0.4707,0.11719 -0.41211,0.23633 -0.35351,0.29297 -0.29492,0.35351 -0.23438,0.47071 -0.17578,0.41211 v 0.52929 30.29297 0.4707 l 0.17578,0.47071 0.23438,0.41211 0.29492,0.35351 0.35351,0.35157 0.41211,0.23632 0.4707,0.11719 0.46876,0.0586 h 5.76564 l 0.41211,-0.0586 0.41211,-0.11719 0.41016,-0.17578 0.35351,-0.23633 0.29492,-0.29297 0.23438,-0.35351 0.17773,-0.41211 0.11719,-0.41211 0.0586,-0.41211 v -2.4707 h 36.82422 v 38.5293 H 71.324256 v -14.7637 l -0.0586,-0.70508 -0.17773,-0.70703 -0.29297,-0.64648 -0.41211,-0.58789 -0.5293,-0.4707 -0.58789,-0.41211 -0.64649,-0.29493 -0.70703,-0.23437 -0.70507,-0.0586 h -13.88281 l -0.4707,0.0586 -0.4707,0.17578 -0.41211,0.17773 -0.41211,0.35157 -0.29297,0.35351 -0.23633,0.41211 -0.11719,0.47071 -0.0586,0.4707 v 3.29297 l 0.0586,0.4707 0.11719,0.4707 0.23633,0.41211 0.29297,0.35352 0.41211,0.35156 0.41211,0.23633 0.4707,0.11719 0.4707,0.0586 h 7.35352 v 12.29492 h -49.11914 v -12.29492 h 7.35351 l 0.47071,-0.0586 0.4707,-0.11719 0.41211,-0.23633 0.41211,-0.35156 0.29297,-0.35352 0.23633,-0.41211 0.11718,-0.4707 0.0586,-0.4707 v -3.29297 l -0.0586,-0.4707 -0.11718,-0.47071 -0.23633,-0.41211 -0.29297,-0.35351 -0.41211,-0.35157 -0.41211,-0.17773 -0.4707,-0.17578 -0.47071,-0.0586 H 4.9707459 l -0.70508,0.0586 -0.64649,0.23437 -0.64843,0.29493 -0.58789,0.41211 -0.5293,0.4707 -0.41211,0.58789 -0.29297,0.64648 -0.17773002,0.70703 -0.0586,0.70508 v 20.47071 l 0.0586,0.70507 0.17773002,0.70704 0.29297,0.64648 0.41211,0.58789 0.5293,0.5293 0.58789,0.41211 0.64843,0.29492 0.64649,0.17578 0.70508,0.0586 H 360.38285 l 0.7051,-0.0586 0.707,-0.17578 0.6465,-0.29492 0.5879,-0.41211 0.4707,-0.5293 0.4121,-0.58789 0.2949,-0.64648 0.1758,-0.70704 0.1172,-0.70507 v -22.11719 l -0.059,-0.41211 -0.1172,-0.41211 -0.1758,-0.41211 -0.2363,-0.35351 -0.293,-0.29297 -0.3535,-0.23633 -0.4121,-0.17578 -0.4121,-0.11719 -0.4121,-0.0586 h -11.4707 l -0.4707,0.0586 -0.4688,0.17578 -0.4121,0.17773 -0.4121,0.35157 -0.2949,0.35351 -0.2344,0.41211 -0.1172,0.47071 -0.061,0.4707 v 15.58789 h -18 V 314.73437 l -0.059,-0.35157 -0.059,-0.35351 -0.1758,-0.35352 -0.1758,-0.35156 -0.2363,-0.29492 -3.4121,-3.35352 3.4121,-3.41016 0.2949,-0.35351 0.2344,-0.41211 0.1172,-0.4707 0.059,-0.47071 v -86.70507 l 13.9414,13.9414 v 5.76367 0.41211 l 0.1191,0.41211 0.1758,0.41211 0.2344,0.35156 0.2949,0.29493 0.3535,0.23437 0.4121,0.17774 0.4102,0.11718 0.4121,0.0586 h 7.4134 l 0.4121,-0.0586 0.4121,-0.11718 0.3516,-0.17774 0.3535,-0.23437 0.3535,-0.29493 0.2344,-0.35156 0.1777,-0.41211 0.1172,-0.41211 v -0.41211 -26.23437 l -0.059,-0.70703 -0.1777,-0.70508 -0.293,-0.64649 -0.4121,-0.58984 -0.5293,-0.4707 -0.5293,-0.41016 -0.6465,-0.29492 -0.707,-0.23438 -0.7051,-0.0605 h -22.1191 v -96.64648 l -0.059,-0.70507 -0.175,-0.70708 -0.2949,-0.64648 -0.4102,-0.58789 -0.5293,-0.5293 -0.5898,-0.41211 -0.6465,-0.29492 -0.7051,-0.17578 -0.707,-0.0586 h -56.4707 l -0.7051,-0.0586 -0.707,-0.17773 -0.6465,-0.29297 -0.5879,-0.4121 -0.5293,-0.5293 -0.4121,-0.58789 -0.293,-0.64843 -0.1777,-0.70508 -0.059,-0.70508 V 60.558586 l 0.059,-0.70507 0.1777,-0.70704 0.293,-0.64648 0.4121,-0.58789 0.5293,-0.4707 0.5879,-0.41211 0.6465,-0.29492 0.707,-0.23438 0.7051,-0.0586 h 160.4707 l 7.8242,0.76367 7.5293,2.29492 6.9414,3.70508 6.1172,5 4.9414,6.11914 3.7051,6.9414 2.2949,7.5293 0.7637,7.82227 v 8.177734 h -57.293 l -0.707,0.0586 -0.7051,0.17578 -0.6465,0.35351 -0.5879,0.35157 -0.4707,0.53124 -0.4121,0.5879 -0.3535,0.64648 -0.1758,0.70508 -0.059,0.70703 v 20.4707 l 0.059,0.70508 0.1758,0.70703 0.3535,0.64649 0.4121,0.58789 0.4707,0.4707 0.5879,0.41211 0.6465,0.35351 0.7051,0.17579 0.707,0.0586 h 13.9414 l 0.4121,-0.0586 0.4102,-0.11719 0.3535,-0.17774 0.3535,-0.23437 0.3535,-0.29492 0.2344,-0.35157 0.1758,-0.4121 0.1191,-0.41211 v -0.41211 -3.29492 l -0.061,-0.46876 -0.1172,-0.4707 -0.2344,-0.41211 -0.2949,-0.35351 -0.3535,-0.35352 -0.4688,-0.17578 -0.4121,-0.17578 -0.4707,-0.0586 h -7.4121 V 112.9707 h 49.1172 v 12.29492 h -7.3535 l -0.4102,0.0586 -0.4121,0.11719 -0.4121,0.17578 -0.3535,0.23633 -0.293,0.29296 -0.2363,0.35352 -0.1758,0.41211 -0.1172,0.41211 -0.059,0.41016 v 3.29492 l 0.059,0.4707 0.1758,0.4707 0.1758,0.41211 0.3535,0.35157 0.3535,0.35351 0.4121,0.23633 0.4707,0.11719 0.4688,0.0586 h 13.9414 l 0.707,-0.0586 0.7051,-0.17579 0.6465,-0.35351 0.5898,-0.41211 0.4707,-0.4707 0.4102,-0.58789 0.2949,-0.64649 0.1758,-0.70703 0.059,-0.70508 V 96.617186 l -0.7051,-8.5293 -2.2344,-8.29297 -3.5898,-7.76562 -4.9395,-7 -6.0605,-6.0586 -7,-4.9414 -7.7637,-3.58789 -8.2949,-2.23633 -8.5293,-0.76367 z M 203.14847,115.44141 H 321.08795 V 421.9121 H 203.14847 Z"
     style="fill:#212830;fill-opacity:1;stroke:#212830;stroke-width:0.0588235px;stroke-linecap:round;stroke-linejoin:round;stroke-miterlimit:4;stroke-dasharray:none;stroke-opacity:1"
     id="path1353" />
</svg>
