<?xml version="1.0" encoding="UTF-8" standalone="no"?>
<svg
   xmlns:dc="http://purl.org/dc/elements/1.1/"
   xmlns:cc="http://creativecommons.org/ns#"
   xmlns:rdf="http://www.w3.org/1999/02/22-rdf-syntax-ns#"
   xmlns:svg="http://www.w3.org/2000/svg"
   xmlns="http://www.w3.org/2000/svg"
   id="svg5881"
   height="146mm"
   width="146mm"
   version="1.0">
  <metadata
     id="metadata5885">
    <rdf:RDF>
      <cc:Work
         rdf:about="">
        <dc:format>image/svg+xml</dc:format>
        <dc:type
           rdf:resource="http://purl.org/dc/dcmitype/StillImage" />
        <dc:title></dc:title>
      </cc:Work>
    </rdf:RDF>
  </metadata>
  <defs
     id="defs3" />
  <path
     d="m 97.523678,1.0236727 -0.11718,0.05859 h -0.17774 l -0.11719,0.05859 -0.17578,0.05859 -0.11719,0.05859 -0.17773,0.05859 -0.11719,0.05859 -0.17578,0.06055 -0.11914,0.05859 -0.11719,0.05859 -0.11718,0.117214 -0.17579,0.05859 -0.11914,0.117187 -0.11718,0.05859 -0.11719,0.119141 -0.11719,0.117187 -0.11914,0.117188 -0.0586,0.117187 -0.11719,0.119141 -0.11719,0.117187 -0.0586,0.117188 -0.11914,0.117187 -0.0586,0.119141 -0.0586,0.117187 -0.11719,0.175782 -0.0586,0.117187 -0.0586,0.177734 -0.0586,0.117188 -0.0605,0.175781 v 0.119141 l -0.0586,0.175781 -0.0586,0.117188 v 0.177734 0.117187 l -0.0586,0.175782 v 0.175781 0.119141 541.7050753 0.17579 0.17773 l 0.0586,0.11719 v 0.17578 0.11914 l 0.0586,0.17578 0.0586,0.17578 v 0.11914 l 0.0605,0.17578 0.0586,0.11719 0.0586,0.11719 0.0586,0.17773 0.11719,0.11719 0.0586,0.11719 0.0586,0.17773 0.11914,0.11719 0.0586,0.11719 0.11719,0.11718 0.11719,0.11914 0.0586,0.11719 0.11914,0.11719 0.11719,0.11719 0.11719,0.0586 0.11718,0.11914 0.11914,0.11719 0.17579,0.0586 0.11718,0.0586 0.11719,0.11718 0.11914,0.0586 0.17578,0.0605 0.11719,0.0586 0.17773,0.0586 0.11719,0.0586 0.17578,0.0586 h 0.11719 l 0.17774,0.0586 h 0.11718 l 0.17578,0.0586 h 0.17774 0.11719 0.17578 36.353512 0.17578 0.11914 0.17579 l 0.11718,-0.0586 h 0.17579 l 0.17773,-0.0586 h 0.11719 l 0.17578,-0.0586 0.11914,-0.0586 0.17578,-0.0586 0.11719,-0.0586 0.11719,-0.0605 0.17773,-0.0586 0.11719,-0.11718 0.11718,-0.0586 0.17774,-0.0586 0.11719,-0.11719 0.11718,-0.11914 0.11719,-0.0586 0.11914,-0.11719 0.0586,-0.11719 0.11718,-0.11719 0.11719,-0.11914 0.11719,-0.11718 0.0605,-0.11719 0.11719,-0.11719 0.0586,-0.17773 0.0586,-0.11719 0.11719,-0.11719 0.0586,-0.17773 0.0586,-0.11719 0.0605,-0.11719 v -0.17578 l 0.0586,-0.11914 0.0586,-0.17578 v -0.17578 l 0.0586,-0.11914 v -0.17578 -0.11719 l 0.0586,-0.17773 v -0.17579 -11.05859 -0.11719 l -0.0586,-0.11719 v -0.11914 -0.11718 l -0.0586,-0.11719 v -0.11719 l -0.0586,-0.11914 v -0.0586 l -0.0586,-0.11718 -0.0605,-0.11719 -0.0586,-0.11719 -0.0586,-0.0605 -0.0586,-0.11719 -0.0586,-0.11719 -0.11719,-0.0586 -0.0586,-0.11719 -0.11914,-0.0605 -7.23438,-6.70508 -0.11718,-0.11719 -0.0586,-0.0586 -0.11914,-0.0586 -0.11719,-0.0605 -0.11718,-0.0586 -0.0586,-0.0586 -0.11719,-0.0586 -0.11914,-0.0586 -0.11718,-0.0586 h -0.11719 l -0.11719,-0.0586 h -0.11914 -0.11719 -0.11718 -0.17579 -0.11914 -0.11718 -0.11719 l -0.11719,0.0586 h -0.11914 l -0.1172,0.0585 h -0.11718 l -0.11719,0.0586 -0.11914,0.0586 -0.0586,0.0586 -0.11718,0.0586 -0.11719,0.0605 -0.11719,0.0586 -0.0605,0.11718 -0.11719,0.0586 -0.0586,0.11718 -0.11718,0.0586 -0.0586,0.11914 -0.0586,0.11719 -0.0586,0.0586 -0.0605,0.11719 -0.0586,0.11719 -0.0586,0.11914 -0.0586,0.11718 v 0.11719 l -0.0586,0.11719 -0.0586,0.11914 v 0.11719 0.11718 0.11719 0.11914 12.11719 h -22.64649 v -77.58786 h 22.64649 v 12.11719 0.11718 0.11719 0.11914 0.11719 l 0.0586,0.11719 0.0586,0.11718 v 0.11914 l 0.0586,0.11719 0.0586,0.11719 0.0586,0.11719 0.0605,0.0586 0.0586,0.11914 0.0586,0.11719 0.0586,0.11719 0.11718,0.0586 0.0586,0.11719 0.11719,0.0605 0.0605,0.0586 0.11719,0.0586 0.11719,0.11719 0.11718,0.0586 0.0586,0.0586 0.11914,0.0586 h 0.11719 l 0.11718,0.0586 0.11719,0.0605 h 0.11914 0.11719 l 0.11719,0.0586 h 0.11718 0.11914 0.17579 0.11718 0.11719 l 0.11914,-0.0586 h 0.11719 l 0.11719,-0.0605 h 0.11718 l 0.11914,-0.0586 0.11719,-0.0586 0.0586,-0.0586 0.11718,-0.0586 0.11719,-0.0586 0.11914,-0.0586 0.0586,-0.11719 0.11718,-0.0605 7.23438,-6.70508 0.11914,-0.11719 0.0586,-0.0586 0.11719,-0.11914 0.0586,-0.0586 0.0586,-0.11718 0.0586,-0.0586 0.0586,-0.11718 0.0605,-0.11914 0.0586,-0.11719 v -0.11719 l 0.0586,-0.11719 v -0.11719 l 0.0586,-0.11914 v -0.0586 -0.11719 l 0.0586,-0.11718 v -0.11913 -11.11719 -0.11719 l -0.0586,-0.17578 v -0.11914 -0.17578 l -0.0586,-0.17578 v -0.11914 l -0.0586,-0.17579 -0.0586,-0.11718 v -0.17579 l -0.0605,-0.11914 -0.0586,-0.17578 -0.0586,-0.11718 -0.11719,-0.11914 -0.0586,-0.17579 -0.0586,-0.11718 -0.11719,-0.11719 -0.0605,-0.11914 -0.11719,-0.11719 -0.11719,-0.11719 -0.11718,-0.11718 -0.0586,-0.11914 -0.11914,-0.11719 -0.11719,-0.11719 -0.11718,-0.0586 -0.11719,-0.11719 -0.17774,-0.0586 -0.11718,-0.11914 -0.11719,-0.0586 -0.17773,-0.0586 -0.11719,-0.0586 -0.11719,-0.0586 -0.17578,-0.0586 -0.11914,-0.0586 -0.17578,-0.0605 -0.11719,-0.0586 h -0.17773 l -0.17579,-0.0586 h -0.11718 -0.17579 -0.11914 -0.17578 -29.88281 v -64.70508 h 8.88281 0.29492 0.29297 0.35352 l 0.29297,-0.0586 h 0.29487 l 0.35352,-0.0586 h 0.29296 l 0.29493,-0.0605 0.29297,-0.0586 0.35351,-0.0586 0.29492,-0.0586 0.29297,-0.0586 0.29492,-0.11719 0.29492,-0.0586 0.29297,-0.0586 0.29493,-0.11914 0.29296,-0.11718 0.29493,-0.0586 0.29297,-0.11718 0.29492,-0.11914 0.29492,-0.11719 0.29297,-0.11719 0.29492,-0.17578 0.29297,-0.11914 0.23633,-0.11719 0.29297,-0.17578 0.29492,-0.11719 0.23632,-0.17773 0.29297,-0.17578 0.23633,-0.17579 0.29297,-0.17773 0.23633,-0.17578 0.23437,-0.17773 0.23633,-0.17579 0.29297,-0.17578 0.23633,-0.23633 0.23437,-0.17578 0.23633,-0.23632 0.23438,-0.17579 0.23632,-0.23437 0.17579,-0.23633 0.23437,-0.17578 0.23633,-0.23633 0.17578,-0.23437 0.23633,-0.23633 0.17578,-0.23438 0.17578,-0.23632 0.17774,-0.29297 0.23437,-0.23633 0.17773,-0.23438 0.17579,-0.29492 0.17578,-0.23437 0.11719,-0.29493 0.17773,-0.23437 0.17578,-0.29492 0.11719,-0.23438 0.0605,-0.11719 0.0586,-0.11914 0.0586,-0.11718 v -0.11719 l 0.0586,-0.11719 v -0.11914 l 0.0586,-0.11717 v -0.11718 -0.11719 -0.11914 -0.11719 -0.17578 -0.11719 l -0.0586,-0.11914 v -0.11719 l -0.0586,-0.11718 -0.0586,-0.11719 v -0.0586 l -0.0586,-0.11914 -0.0605,-0.11718 -0.0586,-0.11719 -0.0586,-0.11719 -0.11719,-0.0605 -0.0586,-0.11719 -0.0586,-0.0586 -0.11914,-0.11718 -0.0586,-0.0586 -0.11719,-0.11719 -0.11718,-0.0605 -0.0586,-0.0586 -0.11719,-0.0586 -0.11914,-0.0586 -0.11718,-0.0586 -0.11719,-0.0586 h -0.11719 l -0.11914,-0.0586 h -0.11719 l -0.11718,-0.0586 h -0.11719 -0.11914 -0.11719 -19.41211 v -28.29496 h 119.58984 v 28.29492 h -14.53123 -0.11719 -0.11719 -0.11719 l -0.11719,0.0586 h -0.11914 l -0.11718,0.0586 h -0.11719 l -0.11719,0.0586 -0.11914,0.0586 -0.11719,0.0586 -0.11718,0.0586 -0.0586,0.0586 -0.11719,0.0605 -0.11914,0.11719 -0.0586,0.0586 -0.11719,0.11718 -0.0586,0.0586 -0.0586,0.11719 -0.11914,0.0605 -0.0586,0.11719 -0.0586,0.11719 -0.0586,0.11718 -0.0586,0.11914 -0.0586,0.0586 v 0.11719 l -0.0586,0.11718 v 0.11719 l -0.0586,0.11914 v 0.11719 0.17578 0.11719 0.11914 0.11719 0.11718 0.11719 l 0.0586,0.11914 v 0.11719 l 0.0586,0.11719 0.0586,0.11718 0.0586,0.11914 0.0586,0.11719 0.11719,0.23438 0.17773,0.29492 0.11719,0.23437 0.17578,0.29493 0.17773,0.23437 0.17578,0.29492 0.17579,0.23438 0.17773,0.23633 0.23437,0.29297 0.17774,0.23632 0.17578,0.23438 0.23438,0.23633 0.17773,0.23437 0.23437,0.23633 0.23633,0.17578 0.17578,0.23633 0.23633,0.23437 0.23438,0.17579 0.23632,0.23632 0.23438,0.17578 0.23438,0.23633 0.23632,0.17578 0.29492,0.17579 0.23438,0.17773 0.23438,0.17578 0.29492,0.17773 0.23632,0.17579 0.29297,0.17578 0.23633,0.17773 0.29297,0.11719 0.29492,0.17578 0.23438,0.11719 0.29492,0.11914 0.29297,0.17578 0.29492,0.11719 0.29492,0.11719 0.23438,0.11914 0.29492,0.11718 0.29297,0.0586 0.29492,0.11718 0.35351,0.11914 0.29297,0.0586 0.29493,0.0586 0.29296,0.11719 0.29493,0.0586 0.29297,0.0586 0.29492,0.0586 0.35351,0.0586 0.29297,0.0605 h 0.29492 l 0.35352,0.0586 h 0.29297 l 0.29492,0.0586 h 0.29297 0.35351 0.29493 10.52929 0.29297 0.29492 0.29492 l 0.35157,-0.0586 h 0.29492 l 0.29297,-0.0586 h 0.35351 l 0.29493,-0.0605 0.29296,-0.0586 0.29493,-0.0586 0.29297,-0.0586 0.35351,-0.0586 0.29492,-0.11719 0.29297,-0.0586 0.29492,-0.0586 0.29492,-0.11914 0.29297,-0.11718 0.29493,-0.0586 0.29296,-0.11718 0.29493,-0.11914 0.29297,-0.11719 0.29492,-0.11719 0.29492,-0.17578 0.23437,-0.11914 0.29493,-0.11719 0.29296,-0.17578 0.23633,-0.11719 0.29297,-0.17773 0.23633,-0.17578 0.29297,-0.17579 0.23633,-0.17773 0.29297,-0.17578 0.23632,-0.17773 0.23438,-0.17579 0.23633,-0.17578 0.23437,-0.23633 0.23633,-0.17578 0.23437,-0.23632 0.23633,-0.17579 0.23438,-0.23437 0.23633,-0.23633 0.23437,-0.17578 0.17773,-0.23633 0.23438,-0.23437 0.17578,-0.23633 0.23633,-0.23438 0.17578,-0.23632 0.17773,-0.29297 0.17579,-0.23633 0.17578,-0.23438 0.17773,-0.29492 0.17578,-0.23437 0.17578,-0.29493 0.17774,-0.23437 0.11719,-0.29492 0.17578,-0.23438 0.0586,-0.11719 0.0586,-0.11914 v -0.11718 l 0.0605,-0.11719 0.0586,-0.11719 v -0.11914 -0.11719 l 0.0586,-0.11718 v -0.11719 -0.11914 -0.11719 -0.17578 l -0.0586,-0.11719 v -0.11914 l -0.0586,-0.11719 v -0.11718 l -0.0605,-0.11719 -0.0586,-0.0586 -0.0586,-0.11914 -0.0586,-0.11718 -0.0586,-0.11719 -0.0586,-0.11719 -0.0586,-0.0605 -0.0586,-0.11719 -0.11914,-0.0586 -0.0586,-0.11718 -0.11718,-0.0586 -0.0586,-0.11719 -0.11718,-0.0605 -0.11914,-0.0586 -0.11719,-0.0586 -0.0586,-0.0586 -0.11718,-0.0586 -0.11719,-0.0586 h -0.11914 l -0.11719,-0.0586 h -0.11719 l -0.11718,-0.0586 h -0.11907 -0.11719 -0.11719 -9.70508 v -28.29492 h 35.35156 0.17774 0.11719 l 0.11718,-0.0586 h 0.11719 0.11914 l 0.11719,-0.0586 0.11719,-0.0586 h 0.0586 l 0.11719,-0.0586 0.11914,-0.0605 0.11719,-0.0586 0.11718,-0.0586 0.0586,-0.11719 0.11719,-0.0586 0.0605,-0.0586 0.11719,-0.11914 0.0586,-0.0586 0.11719,-0.11719 0.0586,-0.0586 0.0586,-0.11719 0.0605,-0.11719 0.0586,-0.11914 0.0586,-0.0586 0.11719,-0.11719 0.0586,-0.0586 0.0586,-0.11719 0.11719,-0.0605 0.0605,-0.11719 0.11719,-0.0586 0.11719,-0.0586 0.0586,-0.0586 0.11719,-0.0586 0.11914,-0.0586 0.11719,-0.0586 0.11718,-0.0605 0.11719,-0.0586 h 0.11914 l 0.11719,-0.0586 h 0.11719 0.11718 0.11914 0.11719 0.11719 0.11719 0.11719 0.11914 l 0.11718,0.0586 h 0.11719 l 0.11719,0.0586 0.11914,0.0605 0.11719,0.0586 0.11718,0.0586 0.0586,0.0586 0.11719,0.0586 0.11914,0.0586 0.0586,0.0586 0.11719,0.11719 0.0586,0.0605 0.11719,0.11719 0.0605,0.0586 0.0586,0.11719 0.0586,0.0586 0.11719,0.11914 0.0586,0.11719 0.0586,0.11719 0.0586,0.0586 0.0586,0.11719 0.11914,0.0586 0.0586,0.11914 0.11719,0.0586 0.0586,0.0586 0.11719,0.11719 0.11914,0.0586 0.0586,0.0586 0.11719,0.0605 0.11719,0.0586 h 0.11719 l 0.11914,0.0586 0.11718,0.0586 h 0.11719 0.11719 l 0.11916,0.0586 h 0.11719 0.11718 35.41211 v 28.29492 h -9.70508 -0.11914 -0.11718 -0.11719 l -0.11719,0.0586 h -0.11914 l -0.11719,0.0586 h -0.11718 l -0.11719,0.0586 -0.11914,0.0586 -0.11719,0.0586 -0.11719,0.0586 -0.0586,0.0586 -0.11719,0.0605 -0.11914,0.11719 -0.0586,0.0586 -0.11719,0.11718 -0.0586,0.0586 -0.0586,0.11719 -0.11719,0.0605 -0.0605,0.11719 -0.0586,0.11719 -0.0586,0.11718 -0.0586,0.11914 v 0.0586 l -0.0586,0.11719 -0.0586,0.11718 v 0.11719 l -0.0586,0.11914 v 0.11719 0.17578 0.11719 0.11914 0.11719 0.11718 l 0.0586,0.11719 v 0.11914 l 0.0586,0.11719 v 0.11719 l 0.0586,0.11718 0.0586,0.11914 0.0586,0.11719 0.11914,0.23438 0.17579,0.29492 0.17578,0.23437 0.11719,0.29493 0.17773,0.23437 0.17578,0.29492 0.17773,0.23438 0.17579,0.23633 0.23437,0.29297 0.17774,0.23632 0.17578,0.23438 0.23632,0.23633 0.17579,0.23437 0.23437,0.23633 0.23633,0.17578 0.17578,0.23633 0.23633,0.23437 0.23437,0.17579 0.23633,0.23632 0.23438,0.17578 0.23632,0.23633 0.23438,0.17578 0.29492,0.17579 0.23438,0.17773 0.23632,0.17578 0.29297,0.17773 0.23633,0.17579 0.29297,0.17578 0.23633,0.17773 0.29297,0.11719 0.29492,0.17578 0.23437,0.11719 0.29493,0.11914 0.29297,0.17578 0.29492,0.11719 0.29492,0.11719 0.29297,0.11914 0.29492,0.11718 0.29297,0.0586 0.29492,0.11718 0.29492,0.11914 0.29297,0.0586 0.29492,0.0586 0.29297,0.11719 0.29492,0.0586 0.29492,0.0586 0.35157,0.0586 0.29492,0.0586 0.29297,0.0605 h 0.29491 l 0.35352,0.0586 h 0.29296 l 0.29493,0.0586 h 0.35351 0.29297 0.29492 10.5293 0.29297 0.29492 0.35352 l 0.29296,-0.0586 h 0.29493 l 0.29297,-0.0586 h 0.35351 l 0.29492,-0.0605 0.29297,-0.0586 0.29492,-0.0586 0.35352,-0.0586 0.29297,-0.0586 0.29492,-0.11719 0.29297,-0.0586 0.29492,-0.0586 0.29492,-0.11914 0.29297,-0.11718 0.29492,-0.0586 0.29297,-0.11718 0.29492,-0.11914 0.29492,-0.11719 0.29297,-0.11719 0.29493,-0.17578 0.23437,-0.11914 0.29492,-0.11719 0.29297,-0.17578 0.23633,-0.11719 0.29297,-0.17773 0.29492,-0.17578 0.23438,-0.17579 0.23632,-0.17773 0.29492,-0.17578 0.23438,-0.17773 0.23438,-0.17579 0.23632,-0.17578 0.29492,-0.23633 0.23438,-0.17578 0.23438,-0.23632 0.17773,-0.17579 0.23437,-0.23437 0.23633,-0.23633 0.23438,-0.17578 0.17773,-0.23633 0.23438,-0.23437 0.17578,-0.23633 0.23633,-0.23438 0.17578,-0.23632 0.17773,-0.29297 0.17578,-0.23633 0.23438,-0.23438 0.11914,-0.29492 0.17578,-0.23437 0.17578,-0.29493 0.17774,-0.23437 0.17578,-0.29492 0.11718,-0.23438 0.0586,-0.11719 0.0605,-0.11914 0.0586,-0.11718 v -0.11719 l 0.0586,-0.11719 v -0.11914 l 0.0586,-0.11719 v -0.11718 -0.11719 -0.11914 -0.11719 -0.17578 l -0.0586,-0.11719 v -0.11914 -0.11719 l -0.0586,-0.11718 -0.0586,-0.11719 -0.0605,-0.0586 v -0.11914 l -0.0586,-0.11718 -0.0586,-0.11719 -0.11719,-0.11719 -0.0586,-0.0605 -0.0586,-0.11719 -0.11914,-0.0586 -0.0586,-0.11718 -0.11719,-0.0586 -0.0586,-0.11719 -0.11719,-0.0605 -0.11719,-0.0586 -0.0605,-0.0586 -0.11719,-0.0586 -0.11719,-0.0586 -0.11718,-0.0586 h -0.11914 l -0.11719,-0.0586 h -0.11719 l -0.11719,-0.0586 h -0.11719 -0.11914 -0.11718 -14.58789 V 348.67016 H 445.5822 v 28.29492 h -19.3535 -0.1172 -0.1172 -0.1172 l -0.1191,0.0586 h -0.1172 l -0.1172,0.0586 h -0.1172 l -0.1191,0.0586 -0.1172,0.0586 -0.1172,0.0586 -0.1172,0.0586 -0.1172,0.0586 -0.061,0.0605 -0.1172,0.11719 -0.059,0.0586 -0.1172,0.11718 -0.059,0.0586 -0.1191,0.11719 -0.059,0.0605 -0.059,0.11719 -0.059,0.11719 -0.059,0.11718 -0.059,0.11914 -0.059,0.0586 v 0.11719 l -0.059,0.11718 -0.059,0.11719 v 0.11914 0.11719 0.17578 0.11719 0.11914 0.11719 0.11718 0.11719 l 0.059,0.11914 v 0.11719 l 0.059,0.11719 0.059,0.11718 v 0.11914 l 0.059,0.11719 0.1758,0.23438 0.1777,0.29492 0.1172,0.23437 0.1758,0.29493 0.1777,0.23437 0.1758,0.29492 0.1758,0.23438 0.1777,0.23633 0.1758,0.29297 0.2363,0.23632 0.1758,0.23438 0.2344,0.23633 0.1777,0.23437 0.2344,0.23633 0.1777,0.17578 0.2344,0.23633 0.2344,0.23437 0.2363,0.17579 0.2344,0.23632 0.2363,0.17578 0.2344,0.23633 0.2363,0.17578 0.2344,0.17579 0.2949,0.17773 0.2344,0.17578 0.2363,0.17773 0.293,0.17579 0.2363,0.17578 0.293,0.17773 0.2949,0.11719 0.2363,0.17578 0.293,0.11719 0.2949,0.11914 0.293,0.17578 0.2363,0.11719 0.293,0.11719 0.2949,0.11914 0.2949,0.11718 0.293,0.0586 0.2949,0.11718 0.293,0.11914 0.2949,0.0586 0.3535,0.0586 0.293,0.11719 0.2949,0.0586 0.293,0.0586 0.2949,0.0586 0.3535,0.0586 0.293,0.0605 h 0.2949 l 0.293,0.0586 h 0.3535 l 0.2949,0.0586 h 0.293 0.2949 0.3535 15.3516 0.1191 0.1758 0.1758 l 0.1172,-0.0586 h 0.1777 l 0.1172,-0.0586 h 0.1758 l 0.1777,-0.0605 0.1172,-0.0586 0.1172,-0.0586 0.1777,-0.0586 0.1172,-0.0586 0.1758,-0.0586 0.1172,-0.11719 0.1191,-0.0586 0.1172,-0.0605 0.1172,-0.11719 0.1172,-0.11719 0.1191,-0.0586 0.1172,-0.11719 0.1172,-0.11914 0.1172,-0.11719 0.1191,-0.11718 0.059,-0.11719 0.1172,-0.11914 0.059,-0.11719 0.1172,-0.17578 0.059,-0.11719 0.059,-0.11914 0.061,-0.17578 0.059,-0.11719 0.059,-0.11719 0.059,-0.17773 0.059,-0.11719 0.059,-0.17578 v -0.17773 l 0.0574,-0.11718 v -0.17578 -0.11914 -0.17578 -0.17578 -218.29493 -0.11718 -0.17579 -0.17773 -0.11719 l -0.059,-0.17578 v -0.11914 l -0.059,-0.17578 -0.059,-0.11719 -0.059,-0.17773 -0.059,-0.11719 -0.059,-0.17578 -0.061,-0.11719 -0.059,-0.17773 -0.059,-0.11719 -0.1172,-0.11719 -0.059,-0.11719 -0.1172,-0.11914 -0.059,-0.11718 -0.1191,-0.11719 -0.1172,-0.11719 -0.1172,-0.11914 -0.1172,-0.11719 -0.1191,-0.11718 -0.1172,-0.0586 -0.1172,-0.11719 -0.1172,-0.0605 -0.1191,-0.11719 -0.1172,-0.0586 -0.1758,-0.0586 -0.1172,-0.0586 -0.1777,-0.0586 -0.1172,-0.0586 -0.1172,-0.0605 -0.1777,-0.0586 -0.1758,-0.0586 h -0.1172 l -0.1777,-0.0586 h -0.1172 -0.1758 -0.1758 -0.1191 -15.3516 -0.3535 -0.2949 -0.293 -0.2949 l -0.3535,0.0586 h -0.293 l -0.2949,0.0586 -0.293,0.0586 -0.3535,0.0605 -0.2949,0.0586 -0.293,0.0586 -0.2949,0.0586 -0.293,0.0586 -0.3535,0.0586 -0.2949,0.11719 -0.293,0.11914 -0.2949,0.0586 -0.293,0.11719 -0.2949,0.11719 -0.2949,0.11719 -0.293,0.11914 -0.2363,0.11718 -0.293,0.11719 -0.2949,0.11719 -0.293,0.17773 -0.2363,0.11719 -0.2949,0.17578 -0.293,0.17774 -0.2363,0.11718 -0.293,0.17578 -0.2363,0.17774 -0.2344,0.17578 -0.2949,0.17578 -0.2344,0.23633 -0.2363,0.17578 -0.2344,0.17773 -0.2363,0.23438 -0.2344,0.17578 -0.2363,0.23633 -0.2344,0.17578 -0.2344,0.23633 -0.1777,0.23437 -0.2344,0.23633 -0.1777,0.23438 -0.2344,0.23632 -0.1758,0.23438 -0.2363,0.23438 -0.1758,0.23632 -0.1777,0.29492 -0.1713,0.23433 -0.1758,0.23438 -0.1777,0.29492 -0.1758,0.23632 -0.1172,0.29297 -0.1777,0.23633 -0.1758,0.29297 -0.059,0.11719 v 0.11914 l -0.059,0.11719 -0.059,0.11718 v 0.11719 l -0.059,0.11914 v 0.11719 0.11719 0.11718 0.11914 0.11719 0.11719 0.11719 0.11719 l 0.059,0.11914 0.059,0.11718 v 0.11719 l 0.059,0.11719 0.059,0.11914 0.059,0.11719 0.059,0.11718 0.059,0.0586 0.059,0.11719 0.1191,0.11914 0.059,0.0586 0.1172,0.11719 0.059,0.0586 0.1172,0.0586 0.061,0.0586 0.1172,0.11914 0.1172,0.0586 0.1172,0.0586 h 0.1172 l 0.1191,0.0586 0.1172,0.0586 h 0.1172 l 0.1172,0.0586 h 0.1191 0.1172 l 0.1172,0.0586 h 0.1172 19.3535 v 28.29485 H 325.99439 v -28.29492 h 14.58789 0.11718 l 0.11914,-0.0586 h 0.11719 0.11719 l 0.11719,-0.0586 h 0.11719 l 0.11914,-0.0586 0.11718,-0.0586 h 0.11719 l 0.11719,-0.0586 0.0605,-0.0586 0.11719,-0.11914 0.11719,-0.0586 0.0586,-0.0586 0.11719,-0.0586 0.0586,-0.11719 0.11914,-0.0586 0.0586,-0.11914 0.0586,-0.11719 0.11719,-0.0586 0.0586,-0.11718 0.0586,-0.11719 v -0.11914 l 0.0605,-0.11719 0.0586,-0.11719 0.0586,-0.11718 v -0.11914 -0.11719 l 0.0586,-0.11712 v -0.11719 -0.11719 -0.11914 -0.11718 -0.11719 l -0.0586,-0.11719 v -0.11914 l -0.0586,-0.11719 v -0.11718 l -0.0586,-0.11719 -0.0605,-0.11914 -0.0586,-0.11719 -0.11718,-0.29297 -0.17578,-0.23633 -0.17774,-0.29297 -0.17581,-0.23632 -0.17578,-0.29492 -0.11914,-0.23438 -0.23438,-0.23438 -0.17578,-0.29492 -0.17773,-0.23632 -0.17578,-0.23438 -0.23633,-0.23438 -0.17578,-0.23632 -0.23438,-0.23438 -0.17773,-0.23633 -0.23438,-0.23437 -0.23633,-0.23633 -0.23437,-0.17578 -0.17773,-0.23633 -0.23438,-0.17578 -0.23438,-0.23438 -0.29492,-0.17773 -0.23632,-0.17578 -0.23438,-0.23633 -0.23438,-0.17578 -0.29492,-0.17578 -0.23632,-0.17774 -0.23438,-0.17578 -0.29492,-0.11718 -0.29297,-0.17774 -0.23633,-0.17578 -0.29297,-0.11719 -0.29492,-0.17773 -0.23437,-0.11719 -0.29493,-0.11719 -0.29297,-0.11718 -0.29492,-0.11914 -0.29492,-0.11719 -0.29297,-0.11719 -0.29492,-0.11719 -0.29297,-0.0586 -0.29492,-0.11914 -0.29492,-0.11719 -0.29297,-0.0586 -0.29492,-0.0586 -0.29297,-0.0586 -0.35352,-0.0586 -0.29492,-0.0586 -0.29297,-0.0605 -0.29492,-0.0586 -0.35351,-0.0586 h -0.29297 l -0.29493,-0.0586 h -0.29296 -0.35352 -0.29492 -0.29297 -10.5293 -0.29492 -0.29297 -0.35351 -0.29493 l -0.29296,0.0586 h -0.35352 l -0.29492,0.0586 -0.29297,0.0586 -0.29492,0.0605 -0.35157,0.0586 -0.29492,0.0586 -0.29492,0.0586 -0.29297,0.0586 -0.29492,0.0586 -0.29297,0.11719 -0.29492,0.11914 -0.29492,0.0586 -0.29297,0.11719 -0.29492,0.11719 -0.29297,0.11719 -0.29492,0.11914 -0.29492,0.11718 -0.29297,0.11719 -0.29493,0.11719 -0.23437,0.17773 -0.29492,0.11719 -0.29297,0.17578 -0.23633,0.17774 -0.29297,0.11718 -0.23633,0.17578 -0.29297,0.17774 -0.23632,0.17578 -0.23438,0.17578 -0.29492,0.23633 -0.23438,0.17578 -0.23632,0.17773 -0.23438,0.23438 -0.23633,0.17578 -0.23437,0.23633 -0.23633,0.17578 -0.17578,0.23633 -0.23633,0.23437 -0.23437,0.23633 -0.17579,0.23438 -0.23632,0.23632 -0.17578,0.23438 -0.17774,0.23438 -0.23437,0.23632 -0.17579,0.29492 -0.17773,0.23438 -0.17578,0.23438 -0.17773,0.29492 -0.11719,0.23632 -0.17578,0.29297 -0.17579,0.23633 -0.11914,0.29297 -0.0586,0.11719 -0.0586,0.11914 -0.0586,0.11719 v 0.11718 l -0.0586,0.11719 v 0.11914 l -0.0586,0.11719 v 0.11719 0.11718 0.11914 0.11719 0.11719 0.11719 l 0.0586,0.11719 v 0.11914 l 0.0586,0.11718 0.0586,0.11719 v 0.11719 l 0.0586,0.11914 0.0586,0.11719 0.0586,0.11718 0.0605,0.0586 0.11719,0.11719 0.0586,0.11914 0.0586,0.0586 0.11719,0.11719 0.0586,0.0586 0.11914,0.0586 0.11719,0.0586 0.0586,0.11914 0.11719,0.0586 0.11719,0.0586 h 0.11914 l 0.11719,0.0586 0.11718,0.0586 h 0.11719 l 0.11914,0.0586 h 0.11719 0.11719 l 0.11718,0.0586 h 0.11914 9.70508 v 28.29492 h -35.41211 -0.11718 -0.11719 -0.11914 l -0.11719,0.0586 h -0.11719 l -0.11718,0.0586 h -0.11914 l -0.11719,0.0586 -0.11719,0.0586 -0.11719,0.0605 -0.0586,0.0586 -0.11914,0.0586 -0.11719,0.0586 -0.0586,0.0586 -0.11719,0.11719 -0.0586,0.0586 -0.11914,0.11914 -0.0586,0.0586 -0.0586,0.11718 -0.0586,0.11719 -0.0586,0.0586 -0.11719,0.11914 -0.0586,0.11719 -0.0586,0.0586 -0.0605,0.11718 -0.11719,0.11719 -0.0586,0.0586 -0.11719,0.0605 -0.0586,0.11719 -0.11914,0.0586 -0.11719,0.0586 -0.0586,0.0586 -0.11718,0.0586 -0.11719,0.0586 -0.11914,0.0605 h -0.11719 l -0.11719,0.0586 h -0.11718 l -0.11914,0.0586 h -0.11714 -0.11719 -0.11719 -0.11719 -0.11914 -0.11718 l -0.11719,-0.0586 h -0.11719 l -0.11914,-0.0586 h -0.11719 l -0.11718,-0.0605 -0.11719,-0.0586 -0.11914,-0.0586 -0.11719,-0.0586 -0.0586,-0.0586 -0.11719,-0.0586 -0.11719,-0.11719 -0.0605,-0.0605 -0.11719,-0.0586 -0.0586,-0.11719 -0.0586,-0.11718 -0.11719,-0.0586 -0.0586,-0.11719 -0.0586,-0.11914 -0.0605,-0.0586 -0.0586,-0.11719 -0.0586,-0.11718 -0.11719,-0.0586 -0.0586,-0.11914 -0.11719,-0.0586 -0.0605,-0.11719 -0.11719,-0.0586 -0.0586,-0.0586 -0.11718,-0.0586 -0.11719,-0.0586 -0.11914,-0.0605 -0.11719,-0.0586 -0.0586,-0.0586 h -0.11719 l -0.11719,-0.0586 h -0.11914 l -0.11719,-0.0586 h -0.11718 -0.11719 -0.17774 -35.35156 v -28.29499 h 9.70502 0.11719 l 0.11719,-0.0586 h 0.11914 0.11718 l 0.11719,-0.0586 h 0.11719 l 0.11914,-0.0586 0.11719,-0.0586 h 0.11718 l 0.0586,-0.0586 0.11719,-0.0586 0.11914,-0.11914 0.11718,-0.0586 0.0586,-0.0586 0.11718,-0.0586 0.0586,-0.11719 0.11914,-0.0586 0.0586,-0.11914 0.0586,-0.11719 0.0586,-0.0586 0.0586,-0.11718 0.0586,-0.11719 0.0586,-0.11914 0.0586,-0.11719 0.0605,-0.11719 v -0.11718 l 0.0586,-0.11914 v -0.11719 l 0.0586,-0.11712 v -0.11719 -0.11719 -0.11914 -0.11718 l -0.0586,-0.11719 v -0.11719 -0.11914 l -0.0586,-0.11719 -0.0605,-0.11718 v -0.11719 l -0.0586,-0.11914 -0.0586,-0.11719 -0.17578,-0.29297 -0.11719,-0.23633 -0.17774,-0.29297 -0.17578,-0.23632 -0.17578,-0.29492 -0.17773,-0.23438 -0.17578,-0.23438 -0.17579,-0.29492 -0.17773,-0.23632 -0.1758,-0.23438 -0.23633,-0.23438 -0.17578,-0.23632 -0.23438,-0.23438 -0.17773,-0.23633 -0.23437,-0.23437 -0.23633,-0.23633 -0.23438,-0.17578 -0.23633,-0.23633 -0.23437,-0.17578 -0.23633,-0.23438 -0.23437,-0.17773 -0.23633,-0.17578 -0.23438,-0.23633 -0.23632,-0.17578 -0.29297,-0.17578 -0.23633,-0.17774 -0.29297,-0.17578 -0.23633,-0.11718 -0.29297,-0.17774 -0.23633,-0.17578 -0.29296,-0.11719 -0.29493,-0.17773 -0.23437,-0.11719 -0.29492,-0.11719 -0.29492,-0.11718 -0.29297,-0.11914 -0.29493,-0.11719 -0.29296,-0.11719 -0.29493,-0.11719 -0.29297,-0.0586 -0.29492,-0.11914 -0.29492,-0.11719 -0.29297,-0.0586 -0.29492,-0.0586 -0.35351,-0.0586 -0.29297,-0.0586 -0.29493,-0.0586 -0.29296,-0.0605 -0.29493,-0.0586 -0.35351,-0.0586 h -0.29297 l -0.29492,-0.0586 h -0.35157 -0.29492 -0.29492 -0.29297 -10.52929 -0.29493 -0.35351 -0.29297 -0.29492 l -0.29297,0.0586 h -0.35352 l -0.29492,0.0586 -0.29297,0.0586 -0.35351,0.0605 -0.29492,0.0586 -0.29297,0.0586 -0.29493,0.0586 -0.29296,0.0586 -0.29493,0.0586 -0.29297,0.11719 -0.35351,0.11914 -0.29492,0.0586 -0.29297,0.11719 -0.29492,0.11719 -0.23438,0.11719 -0.29492,0.11914 -0.29492,0.11718 -0.29297,0.11719 -0.29492,0.11719 -0.23438,0.17773 -0.29492,0.11719 -0.29297,0.17578 -0.23633,0.17774 -0.29297,0.11718 -0.23632,0.17578 -0.29492,0.17774 -0.23438,0.17578 -0.23438,0.17578 -0.29492,0.23633 -0.23632,0.17578 -0.23438,0.17773 -0.23438,0.23438 -0.23632,0.17578 -0.23438,0.23633 -0.23633,0.17578 -0.17578,0.23633 -0.23633,0.23437 -0.23437,0.23633 -0.17773,0.23438 -0.23438,0.23632 -0.17578,0.23438 -0.17774,0.23438 -0.23437,0.23632 -0.17773,0.29492 -0.17579,0.23438 -0.17578,0.23438 -0.17773,0.29492 -0.17578,0.23632 -0.11719,0.29297 -0.17773,0.23633 -0.11719,0.29297 -0.0586,0.11719 -0.0586,0.11914 -0.0586,0.11719 -0.0586,0.11718 v 0.11719 l -0.0586,0.11914 v 0.11719 0.11719 0.11718 0.11914 0.11719 0.11719 0.11719 l 0.0586,0.11719 v 0.11914 l 0.0586,0.11718 v 0.11719 l 0.0586,0.11719 0.0586,0.11914 0.0586,0.11719 0.0586,0.11718 0.0586,0.0586 0.11914,0.11719 0.0586,0.11914 0.0586,0.0586 0.11719,0.11719 0.0586,0.0586 0.11914,0.0586 0.11719,0.0586 0.0586,0.11914 0.11718,0.0586 0.11719,0.0586 h 0.11914 l 0.11719,0.0586 0.11719,0.0586 h 0.11718 l 0.11914,0.0586 h 0.11715 0.11719 l 0.11719,0.0586 h 0.11719 14.53124 v 28.29485 H 106.22876 v -28.29492 h 19.41211 0.11719 l 0.11914,-0.0586 h 0.11719 0.11718 l 0.11719,-0.0586 h 0.11914 l 0.11719,-0.0586 0.11719,-0.0586 h 0.11718 l 0.11914,-0.0586 0.11719,-0.0586 0.0586,-0.11914 0.11718,-0.0586 0.11719,-0.0586 0.0586,-0.0586 0.11914,-0.11719 0.0586,-0.0586 0.0586,-0.11914 0.11719,-0.11719 0.0586,-0.0586 0.0586,-0.11718 0.0605,-0.11719 0.0586,-0.11914 v -0.11719 l 0.0586,-0.11719 0.0586,-0.11718 v -0.11914 l 0.0586,-0.11712 v -0.11719 -0.11719 -0.11719 -0.11914 -0.11718 -0.11719 l -0.0586,-0.11719 v -0.11914 l -0.0586,-0.11719 v -0.11718 l -0.0586,-0.11719 -0.0586,-0.11914 -0.0605,-0.11719 -0.11719,-0.29297 -0.17578,-0.23633 -0.17773,-0.29297 -0.11719,-0.23632 -0.17578,-0.29492 -0.17579,-0.23438 -0.17773,-0.23438 -0.23437,-0.29492 -0.17774,-0.23632 -0.1758,-0.23438 -0.17578,-0.23438 -0.23633,-0.23632 -0.17578,-0.23438 -0.23633,-0.23633 -0.23437,-0.23437 -0.17579,-0.23633 -0.23632,-0.17578 -0.23438,-0.23633 -0.23633,-0.17578 -0.23437,-0.23438 -0.23633,-0.17773 -0.29297,-0.17578 -0.23633,-0.23633 -0.23437,-0.17578 -0.23633,-0.17578 -0.29297,-0.17774 -0.23633,-0.17578 -0.29297,-0.11718 -0.23632,-0.17774 -0.29492,-0.17578 -0.29297,-0.11719 -0.23633,-0.17773 -0.29297,-0.11719 -0.29492,-0.11719 -0.29297,-0.11718 -0.29492,-0.11914 -0.29492,-0.11719 -0.29297,-0.11719 -0.29493,-0.11719 -0.29296,-0.0586 -0.29493,-0.11914 -0.29297,-0.11719 -0.29492,-0.0586 -0.29492,-0.0586 -0.29297,-0.0586 -0.29492,-0.0586 -0.35351,-0.0586 -0.29297,-0.0605 -0.29493,-0.0586 -0.29296,-0.0586 h -0.35352 l -0.29492,-0.0586 h -0.29297 -0.35352 -0.29297 -0.29492 -8.88281 V 98.023667 h 29.88281 0.17578 0.11914 l 0.17579,-0.0586 h 0.11718 0.17579 l 0.17773,-0.0605 0.11719,-0.0586 h 0.17578 l 0.11914,-0.0586 0.17578,-0.0586 0.11719,-0.0586 0.11719,-0.0586 0.17773,-0.0586 0.11719,-0.11719 0.11718,-0.0605 0.17774,-0.11719 0.11719,-0.0586 0.11718,-0.11719 0.11719,-0.0586 0.11914,-0.11914 0.0586,-0.11719 0.11718,-0.11719 0.11719,-0.11719 0.11719,-0.11719 0.0605,-0.11914 0.11719,-0.11718 0.0586,-0.17578 0.0586,-0.11914 0.11719,-0.11719 0.0586,-0.17578 0.0586,-0.11719 0.0605,-0.17774 v -0.11718 l 0.0586,-0.17578 0.0586,-0.11914 v -0.17579 l 0.0586,-0.11718 v -0.17579 -0.17773 l 0.0586,-0.11719 v -0.17578 -11.06054 -0.11719 l -0.0586,-0.11721 v -0.11719 -0.11719 l -0.0586,-0.11914 v -0.11718 l -0.0586,-0.11719 v -0.11719 l -0.0586,-0.0605 -0.0605,-0.11719 -0.0586,-0.11719 -0.0586,-0.11719 -0.0586,-0.0586 -0.0586,-0.11914 -0.11719,-0.0586 -0.0586,-0.11718 -0.11914,-0.0586 -7.23438,-6.70508 -0.11718,-0.11914 -0.0586,-0.0586 -0.11914,-0.0586 -0.11719,-0.0586 -0.11718,-0.0586 -0.0586,-0.0586 -0.11719,-0.0586 -0.11914,-0.0605 -0.11718,-0.0586 h -0.11719 l -0.11719,-0.0586 h -0.11914 -0.11719 -0.11718 -0.17579 -0.11914 -0.11718 -0.11719 l -0.11719,0.0586 h -0.11914 l -0.11719,0.0586 h -0.11718 l -0.11719,0.0605 -0.11914,0.0586 -0.0586,0.0586 -0.11718,0.0586 -0.11719,0.0586 -0.11719,0.0586 -0.0605,0.11719 -0.11719,0.0605 -0.0586,0.11719 -0.11718,0.0586 -0.0586,0.11718 -0.0586,0.0586 -0.0586,0.11719 -0.0605,0.11914 -0.0586,0.11718 -0.0586,0.11719 -0.0586,0.11719 v 0.11914 l -0.0586,0.11719 -0.0586,0.11718 v 0.11719 0.11914 0.11719 0.11719 12.11718 H 103.8186 v -77.64646 h 22.64649 v 12.17578 0.11914 0.11719 0.11719 0.11718 l 0.0586,0.11914 0.0586,0.11719 v 0.11719 l 0.0586,0.11719 0.0586,0.11719 0.0586,0.11914 0.0605,0.0586 0.0586,0.11719 0.0586,0.11718 0.0586,0.0586 0.11718,0.11914 0.0586,0.0586 0.11719,0.11719 0.0605,0.0586 0.11719,0.0586 0.11719,0.11719 0.11718,0.0605 0.0586,0.0586 h 0.11914 l 0.11719,0.0586 0.11718,0.0586 h 0.11719 l 0.11914,0.0586 h 0.11719 l 0.11719,0.0586 h 0.11718 0.11914 0.17579 0.11718 l 0.11719,-0.0586 h 0.11914 0.11719 l 0.11719,-0.0586 h 0.11718 l 0.11914,-0.0586 0.11719,-0.0586 0.0586,-0.0586 0.11718,-0.0605 0.11719,-0.0586 0.11914,-0.0586 0.0586,-0.11719 0.11718,-0.0586 7.23438,-6.70703 0.11914,-0.11719 0.0586,-0.0586 0.11719,-0.11718 0.0586,-0.0586 0.0586,-0.11719 0.0586,-0.11914 0.0586,-0.0586 0.0605,-0.11719 0.0586,-0.11718 v -0.11914 l 0.0586,-0.11719 v -0.11719 l 0.0586,-0.11719 v -0.11719 -0.11914 l 0.0586,-0.11718 V 16.082267 5.0236727 4.9045317 l -0.0586,-0.175781 v -0.175782 -0.117187 l -0.0586,-0.177734 v -0.117188 l -0.0586,-0.175781 -0.0586,-0.119141 v -0.175781 l -0.0605,-0.117188 -0.0586,-0.177734 -0.0586,-0.117187 -0.11717,-0.175782 -0.0586,-0.117187 -0.0586,-0.119141 -0.11719,-0.117187 -0.0605,-0.117188 -0.11719,-0.117187 -0.11719,-0.119141 -0.11718,-0.117187 -0.0586,-0.117188 -0.11914,-0.117187 -0.11719,-0.119141 -0.11718,-0.05859 -0.11719,-0.117187 -0.17777,-0.058598 -0.11718,-0.117188 -0.11719,-0.05859 -0.17773,-0.05859 -0.11719,-0.06055 -0.11719,-0.05859 -0.17578,-0.05859 -0.11914,-0.05859 -0.17578,-0.05859 -0.11719,-0.05859 h -0.17773 l -0.17579,-0.05859 h -0.11718 -0.17579 -0.11914 -0.17578 -36.353512 -0.17578 -0.11719 -0.17774 z M 104.64087,213.61157 H 447.22878 V 338.14086 H 104.64087 Z"
     style="fill:#212830;fill-opacity:1;stroke:#212830;stroke-width:0.0588235px;stroke-linecap:round;stroke-linejoin:round;stroke-miterlimit:4;stroke-dasharray:none;stroke-opacity:1"
     id="path5877" />
</svg>
