<?xml version="1.0" encoding="UTF-8" standalone="no"?>
<svg
   xmlns:dc="http://purl.org/dc/elements/1.1/"
   xmlns:cc="http://creativecommons.org/ns#"
   xmlns:rdf="http://www.w3.org/1999/02/22-rdf-syntax-ns#"
   xmlns:svg="http://www.w3.org/2000/svg"
   xmlns="http://www.w3.org/2000/svg"
   id="svg3009"
   height="100mm"
   width="100mm"
   version="1.0">
  <metadata
     id="metadata3013">
    <rdf:RDF>
      <cc:Work
         rdf:about="">
        <dc:format>image/svg+xml</dc:format>
        <dc:type
           rdf:resource="http://purl.org/dc/dcmitype/StillImage" />
        <dc:title></dc:title>
      </cc:Work>
    </rdf:RDF>
  </metadata>
  <defs
     id="defs3" />
  <path
     d="m 314.15311,5.6824088 -0.23438,0.05859 -0.23632,0.05859 -0.23438,0.06055 -0.17773,0.05859 -0.23438,0.117187 -0.17773,0.117188 -0.23438,0.117187 -0.17578,0.177734 -0.11914,0.175782 -0.17578,0.1757811 -0.11719,0.177734 -0.11719,0.175782 -0.11914,0.236328 -0.0586,0.175789 -0.11719,0.234375 v 0.236328 l -0.0586,0.234375 v 0.236328 6.2343751 0.177735 l 0.0586,0.234375 v 0.236328 l 0.11719,0.234375 0.0586,0.236328 0.11914,0.175781 0.11719,0.234375 0.11719,0.177734 0.17578,0.175782 0.11914,0.175781 0.17578,0.119141 0.23438,0.175781 0.17773,0.117187 0.23438,0.05859 0.17773,0.119141 0.23438,0.05859 0.23632,0.05859 h 0.23437 0.23438 2.23632 0.17578 0.17774 l 0.17578,-0.05858 0.17578,-0.05859 0.17774,-0.05859 0.11718,-0.119141 0.11719,-0.117187 0.17773,-0.117188 0.0586,-0.117187 0.11719,-0.177734 0.0586,-0.175782 0.11719,-0.117187 v -0.177735 l 0.0586,-0.175781 V 15.86015 11.918744 h 15.76563 v 28.175781 h -15.76562 v -3.941406 -0.175782 l -0.0586,-0.177734 v -0.175788 l -0.1172,-0.175782 -0.0586,-0.177734 -0.11719,-0.117187 -0.0586,-0.117188 -0.17773,-0.175781 -0.11719,-0.06055 -0.11718,-0.117187 -0.17774,-0.05859 -0.17577,-0.0586 -0.17578,-0.05859 -0.17774,-0.05859 h -0.17578 -2.23632 l -0.23438,0.05859 h -0.23438 l -0.23632,0.117188 -0.23438,0.05859 -0.23633,0.117187 -0.17578,0.119141 -0.23633,0.117187 -0.17578,0.175781 -0.17578,0.177735 -0.17773,0.175785 -0.11719,0.175781 -0.17578,0.177735 -0.11914,0.234375 -0.0586,0.236328 -0.11718,0.234375 -0.0586,0.236328 v 0.234375 l -0.0586,0.236328 v 0.234375 7.058594 0.175781 l 0.0586,0.177734 v 0.175782 l 0.0586,0.117187 0.11718,0.177734 0.0586,0.175782 0.11914,0.117187 0.11719,0.119141 0.17578,0.117187 0.11719,0.117188 0.17773,0.05859 0.17578,0.05859 0.17773,0.05859 h 0.17579 0.17578 2.82422 v 3.119152 0.175781 0.175781 l 0.0586,0.119141 0.0586,0.175781 0.0586,0.117188 0.11719,0.117187 0.11914,0.119141 0.11718,0.117187 0.11719,0.05859 0.11719,0.117188 0.17773,0.05859 0.11719,0.05859 h 0.17578 0.17774 2.76367 0.17773 0.17578 l 0.11719,-0.05859 0.17773,-0.05859 0.11717,-0.117184 0.11719,-0.05859 0.11719,-0.117187 0.11719,-0.119141 0.11914,-0.117187 0.0586,-0.117188 0.0586,-0.175781 0.0586,-0.119141 v -0.175781 -0.175781 -3.119141 h 12.41211 v 73.353508 h -12.41213 v -7.05859 -0.17578 -0.11914 l -0.0586,-0.17578 -0.0586,-0.11719 -0.0586,-0.17773 -0.11914,-0.11719 -0.11717,-0.11719 -0.11719,-0.11719 -0.11719,-0.0586 -0.11719,-0.11914 -0.17773,-0.0586 h -0.11719 l -0.17578,-0.0586 h -0.17773 -2.76367 -0.17774 l -0.17578,0.0586 h -0.11719 l -0.17773,0.0586 -0.11719,0.11914 -0.11719,0.0586 -0.11718,0.11719 -0.11914,0.11719 -0.11719,0.11719 -0.0586,0.17773 -0.0586,0.11719 -0.0586,0.17578 v 0.11913 0.17578 17.17578 h -17.47069 v -23.64648 l -0.0586,-0.17578 V 105.741 l -0.0586,-0.17578 -0.0586,-0.17578 -0.0605,-0.17774 -0.11719,-0.11718 -0.11719,-0.11719 -0.11719,-0.17773 -0.11719,-0.0586 -0.17773,-0.11719 -0.11719,-0.0586 -0.17578,-0.11719 h -0.17773 l -0.17578,-0.0586 h -0.17579 -19.17773 -0.17578 l -0.17773,0.0586 h -0.17579 l -0.17582,0.1172 -0.11719,0.0586 -0.17773,0.11719 -0.11719,0.0586 -0.11718,0.17773 -0.11914,0.11719 -0.11719,0.11718 -0.0586,0.17774 -0.0586,0.17577 -0.0586,0.17578 -0.0586,0.17774 v 0.17578 5.05859 0.17773 l 0.0586,0.17579 0.0586,0.17578 0.0586,0.17773 0.0586,0.11719 0.11719,0.17578 0.11914,0.11719 0.11718,0.11914 0.11719,0.11719 0.17773,0.11718 0.11719,0.0586 0.17578,0.0586 0.17579,0.0586 0.17773,0.0605 h 0.17577 12.41211 v 16.88086 H 177.38749 v -16.88086 h 12.4121 0.17774 l 0.17578,-0.0605 0.17578,-0.0586 0.17774,-0.0586 0.17578,-0.0586 0.11718,-0.11718 0.11914,-0.11719 0.17579,-0.11914 0.11718,-0.11719 0.0586,-0.17578 0.11719,-0.11719 0.0605,-0.17773 v -0.17578 l 0.0586,-0.17579 v -0.17773 -5.05859 -0.17578 l -0.0586,-0.17774 v -0.17578 l -0.0605,-0.17578 -0.11719,-0.17774 -0.0586,-0.11718 -0.11718,-0.11719 -0.17579,-0.17773 -0.11914,-0.0586 -0.11718,-0.11719 -0.17578,-0.0586 -0.17774,-0.11719 h -0.17578 l -0.17578,-0.0586 h -0.17774 -19.17578 -0.17578 l -0.17773,0.0586 h -0.11719 l -0.17578,0.1172 -0.17774,0.0586 -0.11718,0.11719 -0.17578,0.0586 -0.11914,0.17773 -0.11719,0.11719 -0.0586,0.11718 -0.11718,0.17774 -0.0586,0.17578 -0.0586,0.17578 v 0.17774 0.17578 23.64648 h -34.94141 v -22.5293 l -0.0586,-0.23437 v -0.23633 l -0.0586,-0.23437 -0.0605,-0.17579 -0.0586,-0.23632 -0.11718,-0.23438 -0.11719,-0.17773 -0.11719,-0.17578 -0.17773,-0.17579 -0.11719,-0.17773 -0.17578,-0.17578 -0.23633,-0.11719 -0.17578,-0.11914 -0.17773,-0.11719 -0.2344,-0.0586 -0.23438,-0.0586 -0.23632,-0.0586 -0.17578,-0.0586 h -0.23633 -0.23438 l -0.23633,0.0586 h -0.23437 l -0.23633,0.0586 -0.17578,0.11718 -0.23438,0.0586 -0.17773,0.11719 -0.23437,0.11914 -0.17774,0.17578 -0.11719,0.11718 -0.17578,0.17774 -0.11719,0.17578 -0.17773,0.23438 -0.0586,0.17773 -0.11719,0.23437 -0.0586,0.17774 -0.0586,0.23437 -0.0605,0.23633 -2.82227,22.88086 H 72.035939 l -0.23633,0.0586 h -0.23437 l -0.23633,0.0605 -0.23437,0.0586 -0.23633,0.11718 -0.17578,0.0586 -0.23438,0.11718 -0.17773,0.17774 -0.17578,0.11719 -0.17579,0.17578 -0.11914,0.17773 -0.11718,0.17578 -0.17578,0.23438 -0.0586,0.17773 -0.11914,0.23438 -0.0586,0.23633 -0.0586,0.23437 v 0.17778 0.23438 42.35352 h -31 -0.23437 -0.23633 l -0.23437,0.0586 -0.23633,0.0586 -0.23438,0.11719 -0.17773,0.0586 -0.23438,0.11914 -0.17578,0.17579 -0.17773,0.11718 -0.17578,0.17579 -0.11719,0.17773 -0.11914,0.17578 -0.11719,0.23633 -0.11719,0.17578 -0.11718,0.23438 -0.0586,0.23632 -0.0605,0.23438 v 0.23633 0.17578 191.76562 0.23438 0.23633 l 0.0605,0.23437 0.0586,0.23633 0.11718,0.23437 0.11719,0.17579 0.11719,0.23632 0.11914,0.17578 0.11719,0.17774 0.17578,0.17578 0.17773,0.11719 0.17578,0.17773 0.23438,0.11719 0.17773,0.0586 0.23438,0.11719 0.23633,0.0586 0.23437,0.0586 h 0.23633 0.23437 25.35352 0.23437 0.23633 l 0.23438,-0.0586 0.17773,-0.0586 0.23438,-0.11719 0.23632,-0.0586 0.17579,-0.11719 0.17578,-0.17773 0.17773,-0.11719 0.17578,-0.17578 0.17578,-0.17774 0.11914,-0.17578 0.11719,-0.23632 0.11719,-0.17579 0.0586,-0.23437 0.0586,-0.23633 0.0586,-0.23437 0.0586,-0.23633 v -0.23441 -7.70703 -0.17578 l -0.0586,-0.17578 -0.0586,-0.17774 -0.0586,-0.11718 -0.0586,-0.17578 -0.11719,-0.11914 -0.0586,-0.17579 -0.11914,-0.11718 -5.11719,-4.70703 -0.11719,-0.11719 -0.17578,-0.0586 -0.11914,-0.11718 -0.17578,-0.0586 -0.17578,-0.0586 h -0.17774 -0.17578 -0.17578 -0.17773 l -0.17578,0.0586 -0.17579,0.0586 -0.11914,0.0586 -0.17578,0.11719 -0.11718,0.11719 -0.11914,0.11914 -0.11719,0.11718 -0.11719,0.17578 -0.0586,0.17774 -0.11718,0.17577 v 0.11719 l -0.0586,0.17773 v 0.17578 6.82422 h -14.06054 v -50.76562 h 14.06054 v 6.76562 0.17578 l 0.0586,0.17578 v 0.17774 l 0.11719,0.11719 0.0586,0.17578 0.11719,0.17773 0.11719,0.11719 0.11914,0.11719 0.11718,0.11718 0.17578,0.11914 0.11914,0.0586 0.17579,0.0586 0.17578,0.0586 h 0.17773 0.17578 0.17578 0.17774 l 0.17578,-0.0586 0.17578,-0.0586 0.11914,-0.11914 0.17578,-0.0586 0.11719,-0.11718 5.11719,-4.70508 0.11914,-0.11914 0.0586,-0.11719 0.11719,-0.17578 0.0586,-0.17773 0.0586,-0.11719 0.0586,-0.17578 0.0586,-0.17579 v -0.17773 -14.4707 -0.17578 l -0.0586,-0.17579 -0.0586,-0.17773 -0.0586,-0.17578 -0.0586,-0.17773 -0.11719,-0.11719 -0.11719,-0.17578 -0.11914,-0.11719 -0.11718,-0.11914 -0.17578,-0.0586 -0.11914,-0.11718 -0.17579,-0.0586 h -0.17578 l -0.17773,-0.0586 h -0.17578 -6.76368 -0.17773 l -0.17578,0.0586 h -0.17773 l -0.17579,0.0586 -0.11718,0.11718 -0.17579,0.0586 -0.11914,0.11914 -0.11718,0.11719 -0.11719,0.17578 -0.11719,0.11719 -0.0605,0.17773 -0.0586,0.17578 -0.0586,0.17773 -0.0586,0.17579 v 0.17578 3.9414 H 43.858239 V 231.2703 h 12.35351 v 6.76562 0.17578 l 0.0586,0.23633 0.0586,0.17578 0.0586,0.11719 0.0605,0.17774 0.11719,0.17578 0.11719,0.11718 0.11718,0.11914 0.17774,0.11719 0.11719,0.11719 0.17578,0.0586 0.17773,0.0586 0.17578,0.0586 h 0.17578 0.17774 0.17576 l 0.17578,-0.0586 0.17774,-0.0586 0.17578,-0.0586 0.41211,-0.23438 0.41211,-0.23632 0.35156,-0.23438 0.41211,-0.29492 0.35351,-0.23438 0.35352,-0.29492 0.35156,-0.35351 0.29492,-0.29297 0.35352,-0.35352 0.29297,-0.35351 0.29492,-0.35157 0.23437,-0.35351 0.29493,-0.41211 0.23437,-0.41211 0.17774,-0.35351 0.23437,-0.41016 0.17773,-0.4707 0.17579,-0.41211 0.17578,-0.41211 0.11719,-0.47071 0.11914,-0.41211 0.11718,-0.4707 0.0586,-0.4707 H 127.2703 v 19.76562 h -10.17578 -0.17579 l -0.17773,0.0586 h -0.17578 l -0.11719,0.0586 -0.17773,0.11719 -0.11719,0.0605 -0.17578,0.11719 -0.11914,0.11719 -0.11719,0.11719 -0.0586,0.17773 -0.11719,0.17578 -0.0586,0.11719 -0.0586,0.17773 v 0.17579 l -0.0605,0.17578 0.0605,0.17773 v 0.17578 l 0.0586,0.17578 0.0586,0.17774 0.0586,0.11719 0.23438,0.41211 0.23633,0.4121 0.23437,0.41016 0.29492,0.35352 0.29492,0.35351 0.29297,0.35157 0.35352,0.35351 0.35351,0.35352 0.29297,0.29297 0.41211,0.29492 0.35352,0.29492 0.41016,0.23437 0.35351,0.23633 0.41211,0.23438 0.41211,0.23632 0.4707,0.17579 0.41211,0.17578 0.41016,0.17773 0.4707,0.17578 0.4707,0.11719 0.41211,0.11719 0.47071,0.0605 0.4707,0.0586 0.4707,0.0586 0.47071,0.0586 h 0.4707 7.29297 0.4707 l 0.4707,-0.0586 0.47071,-0.0586 0.4707,-0.0586 0.4707,-0.0605 0.47071,-0.11719 0.41211,-0.11719 0.4707,-0.17578 0.4707,-0.17773 0.41211,-0.17578 0.41016,-0.17579 0.41211,-0.23632 0.41211,-0.23438 0.41211,-0.23633 0.35351,-0.23437 0.41016,-0.29492 0.35351,-0.29492 0.35352,-0.29297 0.35351,-0.35352 0.29297,-0.35351 0.29493,-0.35157 0.29296,-0.35351 0.29493,-0.35352 0.23437,-0.41016 0.29492,-0.4121 0.23438,-0.41211 0.0605,-0.11719 0.0586,-0.17774 v -0.17578 l 0.0586,-0.17578 v -0.17773 -0.17578 l -0.0586,-0.17579 -0.0586,-0.17773 -0.0605,-0.11719 -0.0586,-0.17578 -0.11718,-0.17773 -0.11719,-0.11719 -0.11719,-0.11719 -0.11914,-0.11719 -0.17578,-0.0605 -0.11719,-0.11719 -0.17773,-0.0586 h -0.17578 l -0.17578,-0.0586 h -0.17774 -5.64648 V 231.2703 h 23.58789 0.17773 0.17578 l 0.17578,-0.0586 0.17774,-0.0586 0.11719,-0.11719 0.17578,-0.0586 0.11719,-0.11719 0.11914,-0.11914 0.11718,-0.17578 0.11719,-0.11719 0.0586,-0.17773 0.11914,-0.11719 0.17579,-0.11719 0.11718,-0.11718 0.11719,-0.11914 0.17774,-0.0586 0.17578,-0.0586 0.17578,-0.0586 h 0.17773 0.17578 0.17579 0.17773 l 0.17578,0.0586 0.11719,0.0586 0.17773,0.0586 0.17578,0.11914 0.11719,0.11718 0.11914,0.11719 0.11719,0.11719 0.11719,0.17773 0.0586,0.11719 0.11719,0.17578 0.11914,0.11914 0.17578,0.11719 0.11719,0.0586 0.17773,0.11719 0.17578,0.0586 0.17578,0.0586 h 0.17772 0.17578 23.5293 v 19.76562 h -5.64649 -0.17773 l -0.17578,0.0586 h -0.11719 l -0.17773,0.0586 -0.17579,0.11719 -0.11718,0.0605 -0.17579,0.11719 -0.11914,0.11719 -0.11718,0.11719 -0.0586,0.17773 -0.11718,0.17578 -0.0586,0.11719 -0.0605,0.17773 v 0.17579 0.17578 0.17773 0.17578 l 0.0605,0.17578 0.0586,0.17774 0.0586,0.11719 0.23437,0.41211 0.23633,0.4121 0.23438,0.41016 0.29492,0.35352 0.29297,0.35351 0.29492,0.35157 0.35352,0.35351 0.35156,0.35352 0.35351,0.29297 0.35352,0.29492 0.35351,0.29492 0.41016,0.23437 0.35352,0.23633 0.41211,0.23438 0.41211,0.23632 0.4707,0.17579 0.41016,0.17578 0.4121,0.17773 0.47071,0.17578 0.4707,0.11719 0.41211,0.11719 0.4707,0.0605 0.47071,0.0586 0.4707,0.0586 0.4707,0.0586 h 0.47071 7.35156 0.4707 l 0.41211,-0.0586 0.4707,-0.0586 0.47071,-0.0586 0.4707,-0.0605 0.4707,-0.11719 0.47071,-0.11719 0.41211,-0.17578 0.4707,-0.17773 0.41016,-0.17578 0.4121,-0.17579 0.41211,-0.23632 0.41211,-0.23438 0.41211,-0.23633 0.35157,-0.23437 0.4121,-0.29492 0.35352,-0.29492 0.35352,-0.29297 0.35156,-0.35352 0.29492,-0.35351 0.29492,-0.35157 0.29297,-0.35351 0.29492,-0.35352 0.29297,-0.41016 0.23633,-0.4121 0.23437,-0.41211 0.0586,-0.11719 0.0605,-0.17774 0.0586,-0.17578 v -0.17578 -0.17773 -0.17578 l -0.0586,-0.17579 -0.0605,-0.17773 -0.0586,-0.11719 -0.0586,-0.17578 -0.11719,-0.17773 -0.11718,-0.11719 -0.11914,-0.11719 -0.11719,-0.11719 -0.17578,-0.0605 -0.11719,-0.11719 -0.17774,-0.0586 h -0.17578 l -0.17578,-0.0586 H 207.2703 197.15311 V 231.2703 h 83.41211 v 19.76562 h -13.5293 -0.17773 l -0.17578,0.0586 h -0.17578 l -0.17774,0.0586 -0.11719,0.11719 -0.17578,0.0605 -0.11719,0.11719 -0.11914,0.11719 -0.11718,0.11719 -0.11719,0.17773 -0.0586,0.17578 -0.0586,0.11719 -0.0605,0.17773 -0.0586,0.17579 v 0.17578 0.17773 l 0.0586,0.17578 v 0.17578 l 0.0605,0.17774 0.11719,0.11719 0.23437,0.41211 0.23633,0.4121 0.23438,0.41016 0.29492,0.35352 0.29297,0.35351 0.29492,0.35157 0.35352,0.35351 0.29296,0.35352 0.35352,0.29297 0.35352,0.29492 0.4121,0.29492 0.35157,0.23437 0.41211,0.23633 0.41211,0.23438 0.41211,0.23632 0.4121,0.17579 0.46876,0.17578 0.4121,0.17773 0.47071,0.17578 0.41211,0.11719 0.4707,0.11719 0.4707,0.0605 0.47071,0.0586 0.4707,0.0586 0.4707,0.0586 h 0.47071 12.76367 0.17773 l 0.23438,-0.0586 h 0.23632 l 0.17579,-0.0586 0.17578,-0.11914 0.23633,-0.0586 0.17578,-0.11718 38.76562,-22.41211 0.64649,-0.35157 0.64648,-0.4121 0.58789,-0.41211 0.58984,-0.41211 0.64649,-0.47071 0.5293,-0.41211 0.58789,-0.4707 0.52929,-0.5293 0.58789,-0.4707 0.5293,-0.5293 0.4707,-0.52929 0.5293,-0.5293 0.4707,-0.58789 0.47071,-0.5293 0.4707,-0.58789 0.41211,-0.58789 0.4707,-0.58984 0.41211,-0.64649 0.35157,-0.58789 0.4121,-0.64648 0.35352,-0.64844 0.35352,-0.64648 0.29296,-0.70508 0.35352,-0.64844 0.29492,-0.64648 0.23438,-0.70508 0.29492,-0.70703 0.23437,-0.70508 0.17579,-0.70703 0.23632,-0.70508 0.17578,-0.70508 0.17774,-0.70703 0.11719,-0.76367 0.11718,-0.70703 0.11719,-0.70508 0.0586,-0.76563 0.11914,-0.70507 v -0.76563 l 0.0586,-0.70508 V 212.2703 8.5066269 8.2702989 l -0.0586,-0.234375 v -0.236328 l -0.11913,-0.234375 -0.0586,-0.175781 -0.11719,-0.236328 -0.11718,-0.175782 -0.11719,-0.177734 -0.17774,-0.1757811 -0.11718,-0.175782 -0.23438,-0.177734 -0.17773,-0.117187 -0.17578,-0.117188 -0.23633,-0.117187 -0.17578,-0.05859 -0.23438,-0.06055 -0.23633,-0.05859 -0.23437,-0.05859 H 339.741 314.38749 Z M 77.623809,137.09452 H 280.56522 v 10.70508 0.17773 l 0.0586,0.17578 v 0.17773 l 0.0586,0.17579 0.11718,0.17578 0.0586,0.11719 0.11914,0.17773 0.11719,0.11719 0.17578,0.11718 0.11719,0.0586 0.17773,0.11914 0.17578,0.0586 h 0.17773 l 0.17579,0.0586 h 0.17578 5.05859 0.17774 l 0.17578,-0.0586 h 0.17578 l 0.17773,-0.0586 0.11719,-0.11914 0.17578,-0.0586 0.11914,-0.11718 0.11719,-0.11719 0.11719,-0.17773 0.11718,-0.11719 0.0586,-0.17578 0.0605,-0.17579 0.0586,-0.17773 0.0586,-0.17578 v -0.17773 -10.70508 h 45.0586 v 75.17578 0.58984 0.64649 l -0.0586,0.58789 -0.0586,0.58789 -0.11914,0.64843 -0.0586,0.5879 -0.17578,0.58789 -0.11718,0.58789 -0.17774,0.58789 -0.17578,0.58789 -0.17578,0.58984 -0.17774,0.5293 -0.23437,0.58789 -0.23633,0.5293 -0.29297,0.58789 -0.29492,0.52929 -0.29297,0.5293 -0.29492,0.5293 -0.35352,0.4707 -0.29296,0.5293 -0.35352,0.4707 -0.41211,0.4707 -0.35351,0.47071 -0.41016,0.4707 -0.41211,0.4707 -0.4707,0.41211 -0.41211,0.41211 -0.47071,0.41016 -0.4707,0.41211 -0.4707,0.35351 -0.47071,0.35352 -0.52929,0.35156 -0.5293,0.29492 -0.4707,0.35352 -31,17.88086 -0.23438,0.11914 -0.23633,0.11719 -0.23437,0.0586 -0.17773,0.0586 h -0.23435 l -0.23438,0.0586 -0.23632,-0.0586 h -0.23438 l -0.23633,-0.0586 -0.23437,-0.0586 -0.23633,-0.0586 -0.23437,-0.11719 -0.17774,-0.11914 -0.17578,-0.11717 -0.17578,-0.17578 -0.17774,-0.17774 -0.17578,-0.17578 -0.11718,-0.17578 -0.11914,-0.17774 -0.11719,-0.23437 -0.11719,-0.23633 -0.0586,-0.17578 -0.0586,-0.23438 v -0.23632 -0.23438 -31.58984 -0.17578 l -0.0586,-0.17578 -0.0586,-0.17774 -0.0605,-0.17578 -0.0586,-0.17578 -0.11718,-0.11914 -0.11719,-0.17578 -0.11719,-0.11719 -0.11914,-0.11719 -0.17578,-0.0605 -0.11719,-0.11719 -0.17773,-0.0586 -0.17581,-0.0586 h -0.17578 -0.17774 -5.05859 -0.17578 -0.17579 l -0.17773,0.0586 -0.17578,0.0586 -0.17773,0.11719 -0.11719,0.0605 -0.17578,0.11719 -0.11719,0.11719 -0.11914,0.17578 -0.0586,0.11914 -0.11718,0.17578 -0.0586,0.17578 v 0.17774 l -0.0586,0.17578 v 0.17578 10.70703 H 43.858189 v -40.64653 h 33.76562 z"
     style="fill:#212830;fill-opacity:1;stroke:#212830;stroke-width:0.0588235px;stroke-linecap:round;stroke-linejoin:round;stroke-miterlimit:4;stroke-dasharray:none;stroke-opacity:1"
     id="path3007" />
</svg>
