<?xml version="1.0" encoding="UTF-8" standalone="no"?>
<svg
   xmlns:dc="http://purl.org/dc/elements/1.1/"
   xmlns:cc="http://creativecommons.org/ns#"
   xmlns:rdf="http://www.w3.org/1999/02/22-rdf-syntax-ns#"
   xmlns:svg="http://www.w3.org/2000/svg"
   xmlns="http://www.w3.org/2000/svg"
   id="svg2133"
   height="120mm"
   width="120mm"
   version="1.0">
  <metadata
     id="metadata2137">
    <rdf:RDF>
      <cc:Work
         rdf:about="">
        <dc:format>image/svg+xml</dc:format>
        <dc:type
           rdf:resource="http://purl.org/dc/dcmitype/StillImage" />
        <dc:title></dc:title>
      </cc:Work>
    </rdf:RDF>
  </metadata>
  <defs
     id="defs3">
    <pattern
       y="0"
       x="0"
       height="6"
       width="6"
       patternUnits="userSpaceOnUse"
       id="WMFhbasepattern" />
  </defs>
  <path
     d="m 22.155419,3.4181594 -0.41211,0.05859 -0.4707,0.05859 -0.47071,0.119141 -0.41211,0.117187 -0.41211,0.234375 -0.4121,0.236328 -0.35157,0.2343761 -0.35351,0.353515 -0.29492,0.294922 -0.23438,0.410156 -0.23438,0.353516 -0.23632,0.412109 -0.11719,0.470703 -0.11719,0.41211 -0.0605,0.470703 -0.0586,0.470703 V 445.47676 l 0.0586,0.41211 0.0605,0.4707 0.11719,0.4707 0.11719,0.41211 0.23632,0.41211 0.23438,0.41016 0.23438,0.35351 0.29492,0.35352 0.35351,0.29297 0.35157,0.23633 0.4121,0.23437 0.41211,0.23633 0.41211,0.11719 0.47071,0.11718 0.4707,0.0586 0.41211,0.0605 H 39.8605 l 0.88281,-0.0605 0.94141,-0.0586 0.88086,-0.11718 0.88281,-0.11719 0.9414,-0.23633 0.88282,-0.23437 0.82421,-0.29493 0.88086,-0.29296 0.82422,-0.41211 0.82422,-0.41211 0.76367,-0.41211 0.82422,-0.5293 0.70508,-0.5293 0.70703,-0.52929 0.70508,-0.58789 0.64648,-0.64649 0.64844,-0.64844 0.58789,-0.70507 0.58789,-0.70703 0.5293,-0.76368 0.4707,-0.76562 0.47071,-0.82227 0.11718,-0.29492 0.11719,-0.29297 0.0586,-0.35351 v -0.35352 -0.35351 l -0.0586,-0.29297 -0.11719,-0.35352 -0.11718,-0.29297 -0.17579,-0.29492 -0.23632,-0.23438 -0.23438,-0.29492 -0.23633,-0.17578 -0.29297,-0.17773 -0.29492,-0.11719 -0.35351,-0.11719 -0.29297,-0.0586 -0.35352,-0.0586 H 31.44839 v -32.53124 h 137.64843 v 32.53124 h -16.70703 l -0.35351,0.0586 -0.35156,0.0586 -0.29493,0.11719 -0.29297,0.11719 -0.29492,0.17773 -0.29492,0.17578 -0.23437,0.29492 -0.17579,0.23438 -0.17773,0.29492 -0.17578,0.29297 -0.0586,0.35352 -0.0586,0.29297 -0.0605,0.35351 0.0605,0.35352 0.0586,0.35351 0.0586,0.29297 0.17578,0.29492 0.41211,0.82227 0.5293,0.76562 0.52929,0.76368 0.5293,0.70703 0.58789,0.70507 0.64844,0.64844 0.64648,0.64649 0.70508,0.58789 0.70703,0.52929 0.76367,0.5293 0.76563,0.5293 0.82227,0.41211 0.82421,0.41211 0.82422,0.41211 0.82227,0.29296 0.88281,0.29493 0.88281,0.23437 0.88282,0.23633 0.88086,0.11719 0.9414,0.11718 0.88281,0.0586 0.94141,0.0605 h 12.05859 l 0.94141,-0.0605 0.88281,-0.0586 0.94141,-0.11718 0.88086,-0.11719 0.88281,-0.23633 0.88281,-0.23437 0.88282,-0.29493 0.82226,-0.29296 0.88281,-0.41211 0.82422,-0.41211 0.76367,-0.41211 0.76563,-0.5293 0.76367,-0.5293 0.70703,-0.52929 0.70508,-0.58789 0.64649,-0.64649 0.64843,-0.64844 0.58789,-0.70507 0.5293,-0.70703 0.5293,-0.76368 0.52929,-0.76562 0.41211,-0.82227 0.17578,-0.29492 0.0586,-0.29297 0.11914,-0.35351 v -0.35352 -0.35351 l -0.0586,-0.29297 -0.11914,-0.35352 -0.11718,-0.29297 -0.17578,-0.29492 -0.23633,-0.23438 -0.23438,-0.29492 -0.23633,-0.17578 -0.29296,-0.17773 -0.35352,-0.11719 -0.29492,-0.11719 -0.35156,-0.0586 -0.35352,-0.0586 h -11.11719 v -32.53123 h 40.70508 l 0.35352,-0.0586 0.29297,-0.0586 0.35351,-0.0586 0.29492,-0.11718 0.23438,-0.17579 0.29492,-0.17773 0.23437,-0.23437 0.17774,-0.23633 0.17578,-0.29297 0.23438,-0.29492 0.17773,-0.23438 0.29297,-0.23633 0.23633,-0.23437 0.35351,-0.11914 0.29297,-0.11719 0.35352,-0.11719 0.35351,-0.0586 h 0.29297 l 0.35352,0.0586 0.35351,0.11719 0.29297,0.11719 0.29492,0.11914 0.29297,0.23437 0.23633,0.23633 0.23437,0.23438 0.23633,0.29492 0.17578,0.29297 0.17579,0.23633 0.23632,0.23437 0.29492,0.17773 0.23438,0.17579 0.29492,0.11718 0.35156,0.0586 0.29493,0.0586 0.35351,0.0586 h 40.70508 v 32.53124 h -11.17578 l -0.29492,0.0586 -0.35352,0.0586 -0.29297,0.11719 -0.35351,0.11719 -0.29492,0.17773 -0.23438,0.17577 -0.23438,0.29492 -0.23632,0.23438 -0.17578,0.29492 -0.11914,0.29297 -0.11719,0.35352 -0.0586,0.29297 v 0.35351 0.35352 l 0.0586,0.35351 0.11719,0.29297 0.17773,0.29492 0.41211,0.82227 0.4707,0.76562 0.5293,0.76368 0.58789,0.70703 0.58789,0.70507 0.64648,0.64844 0.64844,0.64649 0.70508,0.58789 0.70508,0.52929 0.76562,0.5293 0.76368,0.5293 0.76562,0.41211 0.82422,0.41211 0.82226,0.41211 0.88282,0.29296 0.88281,0.29493 0.88281,0.23437 0.88086,0.23633 0.88281,0.11719 0.94141,0.11718 0.88281,0.0586 0.94141,0.0605 h 12.05859 l 0.94141,-0.0605 0.88086,-0.0586 0.88281,-0.11718 0.94141,-0.11719 0.88281,-0.23633 0.88281,-0.23437 0.88086,-0.29493 0.82422,-0.29296 0.82422,-0.41211 0.82226,-0.41211 0.82422,-0.41211 0.76368,-0.5293 0.76562,-0.5293 0.70508,-0.52929 0.70703,-0.58789 0.64648,-0.64649 0.58789,-0.64844 0.64844,-0.70507 0.5293,-0.70703 0.5293,-0.76368 0.4707,-0.76562 0.4707,-0.82227 0.11719,-0.29492 0.11719,-0.29297 0.0586,-0.35351 0.0586,-0.35352 -0.0586,-0.35351 -0.0586,-0.29297 -0.0586,-0.35352 -0.17578,-0.29297 -0.17773,-0.29492 -0.17578,-0.23438 -0.23633,-0.29492 -0.29297,-0.17578 -0.29492,-0.17773 -0.29297,-0.11719 -0.29492,-0.11719 -0.35352,-0.0586 -0.35156,-0.0586 h -16.70703 v -32.53124 h 137.58789 v 32.53124 h -22.29297 l -0.35352,0.0586 -0.29297,0.0586 -0.35351,0.11719 -0.29492,0.11719 -0.29297,0.17773 -0.29492,0.17578 -0.23438,0.29492 -0.17773,0.23438 -0.17578,0.29492 -0.11719,0.29297 -0.11914,0.35352 -0.0586,0.29297 v 0.35351 0.35352 l 0.0586,0.35351 0.11914,0.29297 0.11719,0.29492 0.4707,0.82227 0.4707,0.76562 0.5293,0.76368 0.58789,0.70703 0.58789,0.70507 0.58789,0.64844 0.70703,0.64649 0.64649,0.58789 0.76562,0.52929 0.70508,0.5293 0.76562,0.5293 0.82227,0.41211 0.82422,0.41211 0.82227,0.41211 0.82421,0.29296 0.88282,0.29493 0.88281,0.23437 0.88086,0.23633 0.9414,0.11719 0.88282,0.11718 0.9414,0.0586 0.88282,0.0605 h 17.64648 l 0.4707,-0.0605 0.47071,-0.0586 0.41211,-0.11718 0.4707,-0.11719 0.41016,-0.23633 0.35351,-0.23437 0.41211,-0.23633 0.29492,-0.29297 0.35156,-0.35352 0.23633,-0.35351 0.23438,-0.41016 0.23633,-0.41211 0.11718,-0.41211 0.11719,-0.4707 0.0586,-0.4707 0.0586,-0.41211 V 194.18379 l -0.0586,-0.41211 -0.0586,-0.4707 -0.11719,-0.47071 -0.11718,-0.41211 -0.23633,-0.41211 -0.23438,-0.4121 -0.23633,-0.35157 -0.35156,-0.35351 -0.29492,-0.29492 -0.41211,-0.23438 -0.35351,-0.23438 -0.41016,-0.23632 -0.4707,-0.11719 -0.41211,-0.11719 -0.47071,-0.0605 -0.4707,-0.0586 h -17.64648 l -0.88282,0.0586 -0.9414,0.0605 -0.88282,0.11719 -0.9414,0.11719 -0.88086,0.23632 -0.88281,0.23438 -0.88282,0.29492 -0.82421,0.29297 -0.82227,0.41211 -0.82422,0.41211 -0.82227,0.41211 -0.76562,0.5293 -0.70508,0.52929 -0.76562,0.5293 -0.64649,0.58789 -0.70703,0.64648 -0.58789,0.64844 -0.58789,0.70508 -0.58789,0.70508 -0.5293,0.76562 -0.4707,0.76368 -0.4707,0.82421 -0.11719,0.29493 -0.11914,0.35156 -0.0586,0.29492 v 0.35352 0.35156 l 0.0586,0.29492 0.11914,0.35352 0.11719,0.29296 0.17578,0.29493 0.17773,0.29297 0.23438,0.23632 0.29492,0.17578 0.29297,0.17774 0.29492,0.17578 0.35351,0.0586 0.29297,0.0586 0.35352,0.0586 h 22.29297 v 32.5293 H 284.44839 v -32.5293 h 16.70703 l 0.35156,-0.0586 0.35352,-0.0586 0.29492,-0.0586 0.29297,-0.17578 0.29492,-0.17774 0.29297,-0.17578 0.23633,-0.23632 0.17578,-0.29297 0.17773,-0.29493 0.17578,-0.29296 0.0586,-0.35352 0.0586,-0.29492 0.0586,-0.35156 -0.0586,-0.35352 -0.0586,-0.29492 -0.11719,-0.35156 -0.11719,-0.29493 -0.4707,-0.82421 -0.4707,-0.76368 -0.5293,-0.76562 -0.5293,-0.70508 -0.64844,-0.70508 -0.58789,-0.64844 -0.64648,-0.64648 -0.70703,-0.58789 -0.70508,-0.5293 -0.76562,-0.52929 -0.76368,-0.5293 -0.82422,-0.41211 -0.82226,-0.41211 -0.82422,-0.41211 -0.82422,-0.29297 -0.88086,-0.29492 -0.88281,-0.23438 -0.88281,-0.23632 -0.94141,-0.11719 -0.88281,-0.11719 -0.88086,-0.0605 -0.94141,-0.0586 h -12.05859 l -0.94141,0.0586 -0.88281,0.0605 -0.94141,0.11719 -0.88281,0.11719 -0.88086,0.23632 -0.88281,0.23438 -0.88281,0.29492 -0.88282,0.29297 -0.82226,0.41211 -0.82422,0.41211 -0.76562,0.41211 -0.76368,0.5293 -0.76562,0.52929 -0.70508,0.5293 -0.70508,0.58789 -0.64844,0.64648 -0.64648,0.64844 -0.58789,0.70508 -0.58789,0.70508 -0.5293,0.76562 -0.4707,0.76368 -0.41211,0.82421 -0.17773,0.29493 -0.11719,0.35156 -0.0586,0.29492 v 0.35352 0.35156 l 0.0586,0.29492 0.11719,0.35352 0.11914,0.29296 0.17578,0.29493 0.23632,0.29297 0.23438,0.23632 0.23438,0.17578 0.29492,0.17774 0.35351,0.17578 0.29297,0.0586 0.35352,0.0586 0.29492,0.0586 h 11.17578 v 32.5293 h -40.70508 l -0.35351,0.0605 -0.29493,0.0586 -0.35156,0.0586 -0.29492,0.1172 -0.23438,0.17578 -0.29492,0.17774 -0.23632,0.23437 -0.17579,0.23633 -0.17578,0.29297 -0.23633,0.29492 -0.23437,0.23437 -0.23633,0.23633 -0.29297,0.23438 -0.29492,0.11719 -0.29297,0.17773 -0.35351,0.0586 -0.35352,0.0586 h -0.29297 l -0.35351,-0.0586 -0.35352,-0.0586 -0.29297,-0.17773 -0.35351,-0.11719 -0.23633,-0.23438 -0.29297,-0.23633 -0.17773,-0.23437 -0.23438,-0.29492 -0.17578,-0.29297 -0.17774,-0.23633 -0.23437,-0.23437 -0.29492,-0.17774 -0.23438,-0.17578 -0.29492,-0.11719 -0.35351,-0.0586 -0.29297,-0.0586 -0.35352,-0.0605 h -40.70508 v -32.5293 h 11.11719 l 0.35352,-0.0586 0.35156,-0.0586 0.29492,-0.0586 0.35352,-0.17578 0.29296,-0.17774 0.23633,-0.17578 0.23438,-0.23632 0.23633,-0.29297 0.17578,-0.29493 0.11718,-0.29296 0.11914,-0.35352 0.0586,-0.29492 v -0.35156 -0.35352 l -0.11914,-0.29492 -0.0586,-0.35156 -0.17578,-0.29493 -0.41211,-0.82421 -0.52929,-0.76368 -0.5293,-0.76562 -0.5293,-0.70508 -0.58789,-0.70508 -0.64843,-0.64844 -0.64649,-0.64648 -0.70508,-0.58789 -0.70703,-0.5293 -0.76367,-0.52929 -0.76563,-0.5293 -0.76367,-0.41211 -0.82422,-0.41211 -0.88281,-0.41211 -0.82226,-0.29297 -0.88282,-0.29492 -0.88281,-0.23438 -0.88281,-0.23632 -0.88086,-0.11719 -0.94141,-0.11719 -0.88281,-0.0605 -0.94141,-0.0586 H 166.3312 l -0.94141,0.0586 -0.88281,0.0605 -0.9414,0.11719 -0.88086,0.11719 -0.88282,0.23632 -0.88281,0.23438 -0.88281,0.29492 -0.82227,0.29297 -0.82422,0.41211 -0.82421,0.41211 -0.82227,0.41211 -0.76563,0.5293 -0.76367,0.52929 -0.70703,0.5293 -0.70508,0.58789 -0.64648,0.64648 -0.64844,0.64844 -0.58789,0.70508 -0.5293,0.70508 -0.52929,0.76562 -0.5293,0.76368 -0.41211,0.82421 -0.17578,0.29493 -0.0586,0.35156 -0.0586,0.29492 -0.0605,0.35352 0.0605,0.35156 0.0586,0.29492 0.0586,0.35352 0.17578,0.29296 0.17773,0.29493 0.17579,0.29297 0.23437,0.23632 0.29492,0.17578 0.29492,0.17774 0.29297,0.17578 0.29493,0.0586 0.35156,0.0586 0.35351,0.0586 h 16.70703 v 32.5293 H 31.44839 v -32.5293 H 53.8019 l 0.35352,-0.0586 0.29297,-0.0586 0.35351,-0.0586 0.29492,-0.17578 0.29297,-0.17774 0.23633,-0.17578 0.23438,-0.23632 0.23632,-0.29297 0.17579,-0.29493 0.11718,-0.29296 0.11719,-0.35352 0.0586,-0.29492 v -0.35156 -0.35352 l -0.0586,-0.29492 -0.11719,-0.35156 -0.11718,-0.29493 -0.47071,-0.82421 -0.4707,-0.76368 -0.5293,-0.76562 -0.58789,-0.70508 -0.58789,-0.70508 -0.64844,-0.64844 -0.64648,-0.64648 -0.70508,-0.58789 -0.70703,-0.5293 -0.70508,-0.52929 -0.82422,-0.5293 -0.76367,-0.41211 -0.82422,-0.41211 -0.82422,-0.41211 -0.88086,-0.29297 -0.82421,-0.29492 -0.88282,-0.23438 -0.9414,-0.23632 -0.88281,-0.11719 -0.88086,-0.11719 -0.94141,-0.0605 -0.88281,-0.0586 H 29.62612 v -74.41016 h 34.41016 l 0.4707,-0.0605 0.41211,-0.0586 0.4707,-0.11718 0.41211,-0.11719 0.41211,-0.23633 0.41211,-0.23437 0.35156,-0.23633 0.35352,-0.29297 0.29492,-0.35352 0.29297,-0.35351 0.23633,-0.41016 0.17578,-0.41211 0.11719,-0.41211 0.11719,-0.4707 0.0605,-0.4707 0.0586,-0.41211 v -12.763674 -0.29493 l -0.0586,-0.35351 -0.11914,-0.29297 -0.11719,-0.29492 -0.17578,-0.29297 -0.23633,-0.29492 -0.17578,-0.23438 -8.41211,-7.70703 -0.23437,-0.23437 -0.29492,-0.17774 -0.29492,-0.11719 -0.35157,-0.11718 -0.29492,-0.0586 -0.35351,-0.0586 h -0.35157 l -0.35351,0.0586 -0.29492,0.11719 -0.29297,0.11719 -0.29493,0.17773 -0.29296,0.23438 -0.23633,0.23632 -0.23438,0.23438 -0.17773,0.29492 -0.11719,0.35156 -0.11719,0.29493 -0.0586,0.35351 v 0.35156 13.941414 H 28.68472 V 14.593941 h 26.05859 v 14 0.294922 l 0.0586,0.353515 0.11719,0.351563 0.11719,0.294922 0.17773,0.294922 0.23438,0.234375 0.23633,0.236328 0.29296,0.234375 0.29493,0.175781 0.29297,0.119141 0.29492,0.117187 0.3535,0.05859 h 0.35157 0.35351 l 0.29492,-0.117188 0.35157,-0.05859 0.29492,-0.177735 0.29492,-0.175781 0.23437,-0.236328 8.41211,-7.705078 0.17578,-0.234375 0.23633,-0.294925 0.17578,-0.234375 0.11719,-0.294922 0.11914,-0.353515 0.0586,-0.292969 V 20.830269 8.1251905 l -0.0586,-0.470703 -0.0605,-0.470703 -0.11719,-0.41211 -0.11723,-0.470703 -0.17578,-0.412109 -0.23633,-0.353516 -0.29297,-0.410156 -0.29492,-0.294922 -0.35352,-0.353515 -0.35156,-0.2343761 -0.41211,-0.236328 -0.41211,-0.234375 -0.41211,-0.117187 -0.4707,-0.119141 -0.41211,-0.05859 -0.4707,-0.05859 z M 29.62612,248.18379 H 423.91909 V 391.47676 H 29.62612 Z"
     style="fill:#212830;fill-opacity:1;stroke:#212830;stroke-width:0.0588235px;stroke-linecap:round;stroke-linejoin:round;stroke-miterlimit:4;stroke-dasharray:none;stroke-opacity:1"
     id="path2129" />
</svg>
