<?xml version="1.0" encoding="UTF-8" standalone="no"?>
<svg
   xmlns:dc="http://purl.org/dc/elements/1.1/"
   xmlns:cc="http://creativecommons.org/ns#"
   xmlns:rdf="http://www.w3.org/1999/02/22-rdf-syntax-ns#"
   xmlns:svg="http://www.w3.org/2000/svg"
   xmlns="http://www.w3.org/2000/svg"
   id="svg6201"
   height="142mm"
   width="142mm"
   version="1.0">
  <metadata
     id="metadata6205">
    <rdf:RDF>
      <cc:Work
         rdf:about="">
        <dc:format>image/svg+xml</dc:format>
        <dc:type
           rdf:resource="http://purl.org/dc/dcmitype/StillImage" />
        <dc:title></dc:title>
      </cc:Work>
    </rdf:RDF>
  </metadata>
  <defs
     id="defs3" />
  <path
     d="m 220.49395,1.5232126 -0.35352,0.0586 h -0.29492 l -0.29297,0.0586 -0.35352,0.0586 -0.29297,0.11914 -0.29492,0.0586 -0.29492,0.11719 -0.29297,0.17578 -0.23633,0.17773 -0.29296,0.17578 -0.23633,0.17578 -0.23438,0.17774 -0.23633,0.23437 -0.23437,0.23633 -0.17773,0.23438 -0.17579,0.29492 -0.17578,0.23437 -0.11719,0.29493 -0.17773,0.29296 -21.4707,51.1777404 -108.117192,-49.5898604 -0.58789,-0.23438 -0.58789,-0.23438 -0.58984,-0.23632 -0.5879,-0.23438 -0.58789,-0.17773 -0.64648,-0.11719 -0.58789,-0.17578 -0.64844,-0.11914 -0.58789,-0.11719 -0.64648,-0.0586 -0.58789,-0.0586 -0.64844,-0.0586 -0.64649,-0.0586 h -0.64648 -0.58789 l -0.64844,0.0586 -0.64648,0.0586 -0.58789,0.0586 -0.64649,0.0586 -0.64844,0.11719 -0.58789,0.11914 -0.64648,0.17578 -0.58789,0.17578 -0.58984,0.17774 -0.5879,0.17578 -0.58789,0.23632 -0.58789,0.23438 -0.58789,0.23438 -0.58789,0.29492 -0.5293,0.29492 -0.58984,0.29297 -0.5293,0.35351 -0.52929,0.29492 -0.5293,0.35157 -0.5293,0.41211 -0.4707,0.35351 -0.4707,0.41211 -0.47071,0.41016 -0.4707,0.4707004 -0.4707,0.41211 -0.41016,0.4707 -0.41211,0.47071 -0.41211,0.4707 -0.41211,0.5293 -0.35351,0.52929 -0.35156,0.47071 -0.35352,0.52929 -0.29492,0.58789 -0.29297,0.5293 -0.29492,0.58984 -0.29297,0.5293 -0.23633,0.58789 -0.23437,0.58789 -0.23633,0.58789 -0.17578,0.58789 -0.23633,0.64844 -0.11719,0.58789 -0.17578,0.58789 -0.11719,0.64649 -0.11914,0.64843 -0.0586,0.5879 -0.0586,0.64648 -0.0586,0.64648 -0.0586,0.5879 v 0.64843 242.412107 0.23438 l 0.0586,0.23632 0.0586,0.23438 0.0586,0.23438 0.0586,0.23632 0.11914,0.17578 0.11719,0.23633 0.11719,0.17578 0.17578,0.23633 0.11914,0.17578 0.17578,0.11719 0.23438,0.17773 0.17773,0.11719 0.23437,0.11719 0.17774,0.11719 0.23437,0.0586 0.23633,0.0586 0.23438,0.0605 0.23632,0.0586 h 0.23438 35.94141 0.23437 l 0.23633,0.0586 h 0.23437 l 0.23633,0.0586 0.23438,0.11719 0.17773,0.11719 0.23438,0.11914 0.17578,0.11719 0.23633,0.11718 0.17578,0.17579 0.11719,0.17773 0.17773,0.17578 0.11719,0.23633 0.11718,0.17578 0.11914,0.23438 0.0586,0.23632 0.0586,0.23438 0.0586,0.23633 0.0586,0.23437 v 0.23633 142.64648 0.23633 l -0.0586,0.23438 -0.0586,0.23632 -0.0586,0.23438 -0.0586,0.23438 -0.11914,0.23632 -0.11718,0.17578 -0.11719,0.23633 -0.17773,0.17578 -0.11719,0.17579 -0.17578,0.17773 -0.23633,0.11719 -0.17578,0.17578 -0.23438,0.11914 -0.17773,0.0586 -0.23438,0.11719 -0.23633,0.0586 -0.23437,0.0586 h -0.23633 -0.23437 -33.88282 l -0.23437,0.0586 h -0.23633 l -0.23437,0.0586 -0.23633,0.0605 -0.23438,0.0586 -0.17773,0.11718 -0.23438,0.11719 -0.17578,0.11719 -0.23633,0.17773 -0.17578,0.17578 -0.11719,0.17579 -0.17773,0.17773 -0.11719,0.17578 -0.11718,0.23633 -0.11914,0.23437 -0.0586,0.23633 -0.11719,0.17578 v 0.29492 l -0.05859,0.2344 v 0.23438 56.4121 0.23633 l 0.0586,0.23438 v 0.23633 l 0.11719,0.23437 0.0586,0.23633 0.11914,0.23437 0.11718,0.17579 0.11719,0.23632 0.17773,0.17578 0.11719,0.17774 0.17578,0.17578 0.23633,0.11719 0.17578,0.17773 0.23438,0.11719 0.17773,0.11719 0.23438,0.0586 0.23633,0.0586 0.23437,0.0586 h 0.23633 0.23437 14.9414 l 0.35352,0.0605 h 0.29296 l 0.29493,0.0586 0.29297,0.0586 0.29492,0.0586 0.29492,0.11718 0.29297,0.11719 0.29492,0.11914 0.23437,0.17578 0.29493,0.17578 0.23437,0.17774 0.23633,0.17578 0.23437,0.23438 0.23633,0.23632 0.17578,0.23438 0.17579,0.23633 0.17773,0.29297 0.17578,0.23632 0.11719,0.29492 0.11914,0.29297 0.11719,0.29493 0.0586,0.29296 0.0586,0.29493 0.0586,0.29297 v 0.29492 0.35351 12.29297 0.23633 0.23437 l -0.0586,0.23633 -0.0586,0.23438 -0.0586,0.23633 -0.11719,0.23437 -0.11914,0.17773 -0.17578,0.23438 -0.11719,0.17578 -0.17773,0.17774 -0.17579,0.17578 -0.17578,0.11718 -0.17773,0.17774 -0.23438,0.11719 -0.23632,0.0586 -0.23438,0.11719 -0.23438,0.0586 -0.23632,0.0586 h -0.23438 -0.23633 -17.17578 l -0.23633,0.0605 h -0.23437 l -0.23633,0.0586 -0.23437,0.0586 -0.23633,0.0586 -0.23438,0.11719 -0.17578,0.11719 -0.23633,0.11914 -0.17578,0.17578 -0.17773,0.17578 -0.17578,0.17774 -0.11719,0.17578 -0.11719,0.17578 -0.11914,0.23633 -0.11719,0.23437 -0.11718,0.23633 -0.0586,0.17578 v 0.29492 l -0.0586,0.23438 v 0.23634 26.64648 0.23438 l 0.0586,0.23632 v 0.23438 l 0.0586,0.23633 0.11718,0.23437 0.11719,0.23633 0.11914,0.23437 0.11719,0.17774 0.11719,0.17578 0.17578,0.17578 0.17773,0.17774 0.17578,0.17578 0.23633,0.11718 0.17578,0.11914 0.23438,0.11719 0.23633,0.0586 0.23437,0.0586 0.23633,0.0586 h 0.23437 l 0.23633,0.0586 h 31.88281 l 0.23438,-0.0586 h 0.23438 l 0.23632,-0.0586 0.23438,-0.0586 0.23633,-0.11719 0.23437,-0.0586 0.23633,-0.11914 0.17578,-0.17578 0.23633,-0.17578 0.17578,-0.11914 0.11719,-0.23437 0.17773,-0.17579 0.11719,-0.23632 27.822272,-48.17578 0.17773,-0.29493 0.17578,-0.23437 0.23633,-0.29492 0.17578,-0.23438 0.23438,-0.17773 0.23632,-0.23438 0.23438,-0.17773 0.29492,-0.17578 0.29492,-0.17578 0.23438,-0.11914 0.29492,-0.11719 0.29297,-0.11719 0.29492,-0.0586 0.35351,-0.11719 h 0.29297 l 0.29493,-0.0586 h 0.35156 4.29492 0.35352 l 0.29296,0.0586 h 0.29493 l 0.35351,0.11719 0.29297,0.0586 0.29492,0.11719 0.29297,0.11719 0.29492,0.11914 0.23438,0.17578 0.29492,0.17578 0.23438,0.17773 0.23632,0.23438 0.23438,0.17773 0.23633,0.23438 0.17578,0.29492 0.17773,0.23437 0.17578,0.29493 27.82422,48.17578 0.11719,0.23632 0.17578,0.17579 0.17773,0.23437 0.17579,0.11914 0.17578,0.17578 0.17773,0.17578 0.23438,0.11914 0.23632,0.0586 0.23438,0.11719 0.23438,0.0586 0.23632,0.0586 h 0.23438 l 0.23633,0.0586 h 31.35351 l 0.23438,-0.0586 h 0.23632 l 0.23438,-0.0586 0.23438,-0.0586 0.23632,-0.0586 0.23438,-0.11719 0.23633,-0.11914 0.17578,-0.11718 0.17773,-0.17578 0.17578,-0.17774 0.17578,-0.17578 0.17774,-0.17578 0.11719,-0.17774 0.11718,-0.23437 0.11719,-0.23633 0.0586,-0.23437 0.0605,-0.23633 0.0586,-0.23438 v -0.23632 l 0.0586,-0.23437 v -26.64648 l -0.0586,-0.23633 v -0.23438 l -0.0586,-0.29492 -0.0605,-0.17578 -0.0586,-0.23633 -0.11719,-0.23437 -0.11718,-0.23633 -0.11719,-0.17578 -0.17774,-0.17578 -0.17578,-0.17774 -0.17578,-0.17578 -0.17773,-0.17578 -0.17578,-0.11914 -0.23633,-0.11719 -0.23438,-0.11719 -0.23632,-0.0586 -0.23438,-0.0586 -0.23438,-0.0586 h -0.23632 l -0.23438,-0.0605 h -21.76562 -0.23438 -0.23633 l -0.23437,-0.0586 -0.23633,-0.0586 -0.23437,-0.11719 -0.23633,-0.0586 -0.23438,-0.11719 -0.17773,-0.17774 -0.17578,-0.11718 -0.17578,-0.17578 -0.17774,-0.17774 -0.17581,-0.17578 -0.11719,-0.23438 -0.11719,-0.17773 -0.11914,-0.23437 -0.0586,-0.23633 -0.0586,-0.23438 -0.0586,-0.23633 v -0.23437 -0.23633 -12.29297 -0.35351 -0.29492 l 0.0586,-0.29297 0.0586,-0.29493 0.0586,-0.29296 0.11914,-0.29493 0.11719,-0.29297 0.11719,-0.29492 0.17578,-0.23632 0.17774,-0.29297 0.17578,-0.23633 0.17578,-0.23438 0.23633,-0.23632 0.23437,-0.23438 0.23633,-0.17578 0.23437,-0.17774 0.29493,-0.17578 0.23437,-0.17578 0.29492,-0.11914 0.29492,-0.11719 0.29297,-0.11718 0.29493,-0.0586 0.29296,-0.0586 0.29493,-0.0586 h 0.29297 l 0.35351,-0.0605 h 85.5293 v -0.23438 l 0.0586,-0.23632 0.0586,-0.23438 0.0605,-0.23438 0.0586,-0.23632 0.11718,-0.23438 0.11719,-0.17773 0.17773,-0.23438 0.11719,-0.17773 0.17578,-0.17578 0.17579,-0.17578 0.23632,-0.17774 0.17578,-0.11719 0.23633,-0.11718 0.23438,-0.0586 0.23633,-0.11719 0.23437,-0.0605 h 0.23633 l 0.23437,-0.0586 h 0.29493 l 0.23437,0.0586 h 0.23633 l 0.23437,0.0605 0.23633,0.11719 0.23438,0.0586 0.23632,0.11718 0.17579,0.11719 0.23437,0.17774 0.17774,0.17578 0.17578,0.17578 0.11718,0.17773 0.17774,0.23438 0.11719,0.17773 0.11718,0.23438 0.0586,0.23632 0.0586,0.23438 0.0586,0.23438 0.0605,0.23632 v 0.23438 h 85.5293 l 0.29297,0.0605 h 0.35351 l 0.29492,0.0586 0.29297,0.0586 0.29493,0.0586 0.29296,0.11718 0.29493,0.11719 0.29297,0.11914 0.23632,0.17578 0.29492,0.17578 0.23438,0.17774 0.23438,0.17578 0.23632,0.23438 0.17578,0.23632 0.23633,0.23438 0.17578,0.23633 0.17579,0.29297 0.11914,0.23632 0.17578,0.29492 0.11718,0.29297 0.0586,0.29493 0.11914,0.29296 0.0586,0.29493 0.0586,0.29297 v 0.29492 0.35351 12.29297 0.23633 0.23437 l -0.0586,0.23633 -0.0586,0.23438 -0.11914,0.23633 -0.0586,0.23437 -0.11718,0.17773 -0.17578,0.23438 -0.11914,0.17578 -0.17579,0.17774 -0.17578,0.17578 -0.17773,0.11718 -0.23438,0.17774 -0.17578,0.11719 -0.23633,0.0586 -0.23437,0.11719 -0.23633,0.0586 -0.23437,0.0586 h -0.23633 -0.23438 -21.76562 l -0.23438,0.0605 h -0.29492 l -0.23437,0.0586 -0.23633,0.0586 -0.17578,0.0586 -0.23633,0.11719 -0.23438,0.11719 -0.17578,0.11914 -0.17773,0.17578 -0.17578,0.17578 -0.17579,0.17774 -0.17773,0.17578 -0.11719,0.17578 -0.11718,0.23633 -0.11914,0.23437 -0.0586,0.23633 -0.0586,0.17578 -0.0586,0.29492 -0.0585,0.23438 v 0.23633 26.64648 0.23438 l 0.0586,0.23632 0.0586,0.23438 0.0586,0.23633 0.0586,0.23437 0.11914,0.23633 0.11718,0.23437 0.11719,0.17774 0.17773,0.17578 0.17579,0.17578 0.17578,0.17774 0.17773,0.17578 0.17578,0.11718 0.23438,0.11914 0.23633,0.11719 0.17578,0.0586 0.23633,0.0586 0.23437,0.0586 h 0.29492 l 0.23438,0.0586 h 31.35351 l 0.23438,-0.0586 h 0.23633 l 0.23437,-0.0586 0.23633,-0.0586 0.23437,-0.11719 0.23633,-0.0586 0.23438,-0.11914 0.17773,-0.17578 0.17578,-0.17578 0.17578,-0.11914 0.17774,-0.23437 0.17578,-0.17579 0.11719,-0.23632 27.82422,-48.17578 0.17578,-0.29493 0.17773,-0.23437 0.17578,-0.29492 0.23438,-0.23438 0.23633,-0.17773 0.23437,-0.23438 0.23633,-0.17773 0.29297,-0.17578 0.23633,-0.17578 0.29297,-0.11914 0.29492,-0.11719 0.29492,-0.11719 0.29297,-0.0586 0.29492,-0.11719 h 0.35351 l 0.29297,-0.0586 h 0.29493 4.35156 0.35351 l 0.29493,0.0586 h 0.29296 l 0.29493,0.11719 0.35351,0.0586 0.29297,0.11719 0.29492,0.11719 0.23438,0.11914 0.29492,0.17578 0.29297,0.17578 0.23633,0.17773 0.23437,0.23438 0.23633,0.17773 0.17578,0.23438 0.23633,0.29492 0.17578,0.23437 0.17578,0.29493 27.8242,48.17578 0.11719,0.23632 0.11719,0.17579 0.17773,0.23437 0.17578,0.11914 0.23633,0.17578 0.17578,0.17578 0.23438,0.11914 0.17773,0.0586 0.23437,0.11719 0.23633,0.0586 0.29297,0.0586 h 0.23633 l 0.23437,0.0586 h 31.88282 l 0.23632,-0.0586 h 0.23438 l 0.23438,-0.0586 0.23632,-0.0586 0.23438,-0.0586 0.17773,-0.11719 0.23438,-0.11914 0.17773,-0.11718 0.23438,-0.17578 0.17578,-0.17774 0.11914,-0.17578 0.17578,-0.17578 0.11719,-0.17774 0.11719,-0.23437 0.11914,-0.23633 0.0586,-0.23437 0.11719,-0.23633 v -0.23438 l 0.0586,-0.23632 v -0.23438 -26.64648 -0.23633 l -0.0586,-0.23438 v -0.29492 l -0.11719,-0.17578 -0.0586,-0.23633 -0.11914,-0.23437 -0.11719,-0.23633 -0.11719,-0.17578 -0.17578,-0.17578 -0.11914,-0.17774 -0.17578,-0.17578 -0.23438,-0.17578 -0.17773,-0.11914 -0.23438,-0.11719 -0.17773,-0.11719 -0.23438,-0.0586 -0.23632,-0.0586 -0.23438,-0.0586 h -0.23438 l -0.23632,-0.0605 h -17.17578 -0.23633 -0.23438 l -0.29492,-0.0586 -0.17578,-0.0586 -0.23633,-0.11719 -0.23437,-0.0586 -0.23633,-0.11719 -0.17578,-0.17774 -0.17578,-0.11718 -0.17774,-0.17578 -0.17578,-0.17776 -0.17578,-0.17578 -0.11914,-0.23438 -0.11719,-0.17773 -0.11719,-0.23437 -0.0586,-0.23633 -0.0586,-0.23438 -0.0586,-0.23633 v -0.23437 l -0.0605,-0.23633 v -12.29297 l 0.0605,-0.35351 v -0.29492 l 0.0586,-0.29297 0.0586,-0.29493 0.0586,-0.29296 0.11719,-0.29493 0.11719,-0.29297 0.11914,-0.29492 0.17578,-0.23632 0.17578,-0.29297 0.17774,-0.23633 0.17578,-0.23438 0.23632,-0.23632 0.23438,-0.23438 0.23438,-0.17578 0.23632,-0.17774 0.23438,-0.17578 0.29492,-0.17578 0.29492,-0.11914 0.29297,-0.11719 0.29492,-0.11718 0.29297,-0.0586 0.29492,-0.0586 0.29492,-0.0586 h 0.29297 l 0.35352,-0.0605 h 14.94141 0.23437 0.23633 l 0.23437,-0.0586 0.23633,-0.0586 0.23438,-0.0586 0.17578,-0.11719 0.23633,-0.11719 0.17578,-0.17773 0.23633,-0.11719 0.17578,-0.17578 0.11718,-0.17774 0.17774,-0.17578 0.11719,-0.23632 0.11718,-0.17579 0.11719,-0.23437 0.0586,-0.23633 0.0605,-0.23437 0.0586,-0.23633 0.0586,-0.23438 v -0.23634 -56.4121 -0.23438 l -0.0586,-0.23438 -0.0586,-0.29492 -0.0605,-0.17578 -0.0586,-0.23633 -0.11719,-0.23437 -0.11718,-0.23633 -0.11719,-0.17578 -0.17774,-0.17773 -0.11718,-0.17579 -0.17578,-0.17578 -0.23633,-0.17773 -0.17578,-0.11719 -0.23633,-0.11719 -0.17578,-0.11718 -0.23438,-0.0586 -0.23633,-0.0605 -0.23437,-0.0586 h -0.23633 l -0.23437,-0.0586 h -33.88281 -0.23632 -0.23438 l -0.23438,-0.0586 -0.23632,-0.0586 -0.23438,-0.11719 -0.17773,-0.0586 -0.23438,-0.11914 -0.17773,-0.17578 -0.23438,-0.11719 -0.17578,-0.17773 -0.11914,-0.17579 -0.17578,-0.17578 -0.11719,-0.23633 -0.11719,-0.17578 -0.11914,-0.23632 -0.0586,-0.23438 -0.11719,-0.23438 v -0.23632 l -0.0586,-0.23438 v -0.23633 -142.64648 -0.23633 l 0.0586,-0.23437 v -0.23633 l 0.11719,-0.23438 0.0586,-0.23632 0.11914,-0.23438 0.11719,-0.17578 0.11719,-0.23633 0.17578,-0.17578 0.11914,-0.17773 0.17578,-0.17579 0.23438,-0.11718 0.17773,-0.11719 0.23438,-0.11914 0.17773,-0.11719 0.23438,-0.11719 0.23632,-0.0586 h 0.23438 l 0.23438,-0.0586 h 0.23632 35.88282 0.29296 l 0.23633,-0.0586 0.23438,-0.0605 0.23633,-0.0586 0.17578,-0.0586 0.23632,-0.11721 0.23438,-0.11719 0.17578,-0.11719 0.17774,-0.17773 0.17578,-0.11719 0.17578,-0.17578 0.17773,-0.23633 0.11719,-0.17578 0.11719,-0.23633 0.11719,-0.17578 0.0605,-0.23632 0.0586,-0.23438 0.0586,-0.23438 0.0586,-0.23632 v -0.23438 -242.412107 -0.64843 l -0.0586,-0.5879 -0.0586,-0.64648 -0.0586,-0.64648 -0.0605,-0.5879 -0.11719,-0.64843 -0.11719,-0.64649 -0.17578,-0.58789 -0.17774,-0.58789 -0.17578,-0.64844 -0.17578,-0.58789 -0.23633,-0.58789 -0.23437,-0.58789 -0.23633,-0.58789 -0.29297,-0.5293 -0.29492,-0.58984 -0.29492,-0.5293 -0.29297,-0.58789 -0.35352,-0.52929 -0.35351,-0.47071 -0.41016,-0.52929 -0.35351,-0.5293 -0.41211,-0.4707 -0.41211,-0.47071 -0.41211,-0.4707 -0.4707,-0.41211 -0.46876,-0.4707004 -0.4707,-0.41016 -0.4707,-0.41211 -0.5293,-0.35351 -0.4707,-0.41211 -0.5293,-0.35157 -0.5293,-0.29492 -0.53124,-0.35351 -0.5879,-0.29297 -0.52929,-0.29492 -0.58789,-0.29492 -0.58789,-0.23438 -0.58789,-0.23438 -0.5879,-0.23632 -0.58984,-0.17578 -0.58789,-0.17774 -0.64648,-0.17578 -0.58789,-0.17578 -0.64844,-0.11914 -0.58789,-0.11719 -0.64649,-0.0586 -0.58789,-0.0586 -0.64843,-0.0586 -0.64649,-0.0586 h -0.64648 -0.58789 l -0.64844,0.0586 -0.64649,0.0586 -0.58789,0.0586 -0.64648,0.0586 -0.64844,0.11719 -0.58789,0.11914 -0.64648,0.17578 -0.58789,0.11719 -0.5879,0.17773 -0.58984,0.23438 -0.58789,0.23632 -0.58789,0.23438 -0.58789,0.23438 -108.11719,49.5898404 -21.4707,-51.1777404 -0.17774,-0.29296 -0.11718,-0.29493 -0.17578,-0.23437 -0.17774,-0.29492 -0.17578,-0.23438 -0.23438,-0.23633 -0.23632,-0.23437 -0.23438,-0.17774 -0.23633,-0.17578 -0.29297,-0.17578 -0.23632,-0.17773 -0.29492,-0.17578 -0.29297,-0.11719 -0.29493,-0.0586 -0.29296,-0.11914 -0.35352,-0.0586 -0.29492,-0.0586 h -0.29297 l -0.35352,-0.0586 h -44.76367 v 0.29492 l -0.0605,0.23438 -0.0586,0.23438 -0.0586,0.23632 -0.0586,0.23438 -0.11718,0.23633 -0.11719,0.17578 -0.17774,0.23633 -0.11718,0.17578 -0.17578,0.17578 -0.17774,0.17773 -0.23437,0.11719 -0.17579,0.17578 -0.23632,0.11914 -0.23438,0.0586 -0.23633,0.11718 -0.23437,0.0586 h -0.23633 l -0.23437,0.0586 h -0.29493 l -0.23437,-0.0586 h -0.23633 l -0.23437,-0.0586 -0.23633,-0.11718 -0.23438,-0.0586 -0.23633,-0.11914 -0.17581,-0.17576 -0.23632,-0.11719 -0.17579,-0.17773 -0.17578,-0.17578 -0.11719,-0.17578 -0.17773,-0.23633 -0.11719,-0.17578 -0.11718,-0.23633 -0.0586,-0.23438 -0.0605,-0.23632 -0.0586,-0.23438 -0.0586,-0.23438 v -0.29492 z m 47,35.9414104 h 0.82226 0.88281 l 0.82422,0.0586 0.88281,0.0586 0.82227,0.0586 0.82422,0.0586 0.82227,0.11914 0.88281,0.11719 0.82422,0.17578 0.82421,0.17579 0.82227,0.17773 0.82422,0.17578 0.82227,0.23633 0.76562,0.23437 0.82422,0.29493 0.82226,0.29296 0.76563,0.29493 0.76367,0.29297 0.76563,0.35351 0.76367,0.35352 0.76562,0.35351 0.76368,0.41016 0.76562,0.41211 0.70508,0.41211 0.70703,0.4707 0.70508,0.4707 0.70703,0.47071 0.70508,0.4707 0.64648,0.5293 0.70703,0.52929 0.64649,0.5293 0.58789,0.58789 0.64843,0.5293 0.5879,0.58789 0.58789,0.64844 0.58789,0.58789 0.58789,0.64648 0.52929,0.64649 0.5879,0.64843 0.4707,0.64649 0.5293,0.64648 0.4707,0.70703 0.4707,0.70508 0.4707,0.70703 0.47071,0.76367 0.41211,0.70703 0.41211,0.76368 0.35351,0.70508 0.35156,0.76562 0.35352,0.76562 0.35352,0.82227 0.29296,0.76563 0.29493,0.76367 0.29297,0.82422 0.29492,0.82421 0.23632,0.82227 0.17579,0.76563 0.23437,0.82226 0.17774,0.82422 0.17578,0.88281 0.11718,0.82227 0.11914,0.82422 0.11719,0.82422 0.0586,0.88086 0.0586,0.82421 0.0586,0.82422 0.0586,0.88281 v 0.82227 l -0.0586,0.82422 v 0.88281 l -0.0586,0.82227 -0.11719,0.82422 -0.0586,0.88281 -0.11914,0.82226 -0.11719,0.82422 -0.17578,0.82422 -0.17773,0.82227 -0.17579,0.82422 -0.23437,0.82421 -0.23633,0.82227 -0.23437,0.82422 -0.29493,0.76367 -0.29297,0.82422 -0.29492,0.76562 -0.29492,0.82227 -0.35156,0.76563 -0.35352,0.76367 -0.41211,0.76562 -0.41211,0.70508 -0.4121,0.76563 -0.41016,0.70507 -0.4707,0.70703 -0.47071,0.70508 -0.4707,0.70508 -0.4707,0.70703 -0.5293,0.64649 -0.5293,0.64648 -0.52929,0.64844 -0.5879,0.64648 -0.58984,0.64649 -0.58789,0.58789 -0.58789,0.58984 -0.58789,0.58789 -0.64649,0.529297 -0.64843,0.58789 -0.64649,0.5293 -0.70508,0.4707 -0.64843,0.5293 -0.70508,0.4707 -0.70703,0.4707 -0.29297,0.17578 -0.23633,0.23633 -0.23437,0.17578 -0.23633,0.23633 -0.17578,0.23438 -0.23438,0.29492 -0.17773,0.23437 -0.11719,0.29493 -0.17578,0.29296 -0.11914,0.29493 -0.11719,0.29297 -0.0586,0.29492 -0.0586,0.29492 -0.0586,0.35156 -0.0586,0.29492 v 0.35352 0.29297 l 0.0586,0.29492 0.0586,0.35351 0.0586,0.29297 0.0586,0.29493 0.11719,0.29296 0.11914,0.29493 0.17578,0.29297 0.17578,0.29492 0.17774,0.29492 0.17578,0.23437 0.23632,0.23633 0.17579,0.23438 0.29297,0.17578 0.23632,0.23633 0.23438,0.17578 0.29492,0.17773 0.29492,0.11719 0.29297,0.11719 0.29492,0.11718 0.29297,0.11914 0.29492,0.0586 0.35352,0.0586 h 0.29297 l 0.35351,0.0586 0.29492,-0.0586 h 0.35157 l 0.29492,-0.0586 0.29297,-0.0586 0.29492,-0.0605 0.35352,-0.11719 0.29296,-0.11719 141.5293,-64.941397 0.41211,-0.17578 0.41211,-0.17774 0.41211,-0.11719 0.41211,-0.11718 0.4707,-0.11719 0.41016,-0.0586 0.4707,-0.0605 0.41211,-0.0586 0.4707,-0.0586 h 0.41211 0.47071 l 0.41211,0.0586 0.4707,0.0586 0.41016,0.0605 0.4707,0.11719 0.41211,0.0586 0.4707,0.17578 0.41211,0.11719 0.41211,0.17773 0.41211,0.17578 0.35156,0.17773 0.41211,0.23438 0.41211,0.23438 0.35352,0.23632 0.35156,0.29492 0.35351,0.23438 0.35352,0.29492 0.29297,0.35156 0.29492,0.29493 0.29492,0.35351 0.29297,0.35156 0.23633,0.35352 0.29297,0.35352 0.23633,0.4121 0.17578,0.35157 0.23632,0.41211 0.17579,0.41211 0.11718,0.41211 0.17579,0.4121 0.11914,0.46876 0.11718,0.4121 0.0586,0.47071 0.0586,0.41211 0.0586,0.4707 0.0586,0.41211 v 0.4707 179.587887 0.23438 l -0.0586,0.23633 -0.0586,0.23437 -0.0586,0.23633 -0.0586,0.23437 -0.11718,0.23633 -0.11914,0.23438 -0.11719,0.17773 -0.17578,0.17578 -0.17579,0.17578 -0.17773,0.17774 -0.17578,0.17578 -0.17773,0.11719 -0.23438,0.11719 -0.23438,0.11914 -0.17773,0.0586 -0.23437,0.0586 -0.23633,0.0586 h -0.23438 l -0.29492,0.0586 h -35.88281 -0.23438 -0.23632 l -0.23438,0.0586 -0.23438,0.0586 -0.23632,0.11914 -0.17578,0.0586 -0.23633,0.11719 -0.17578,0.17578 -0.23633,0.11914 -0.17578,0.17578 -0.11719,0.17578 -0.17773,0.17774 -0.11719,0.23437 -0.11719,0.17579 -0.11719,0.23632 -0.0586,0.23438 -0.11914,0.23633 v 0.23437 l -0.0586,0.23633 v 0.23437 207.29493 0.23437 l -0.0586,0.23633 v 0.23437 l -0.11719,0.23633 -0.0586,0.23438 -0.11719,0.17773 -0.11914,0.23438 -0.11719,0.17578 -0.17578,0.23633 -0.11719,0.17578 -0.17773,0.17773 -0.23437,0.11719 -0.17774,0.11719 -0.23437,0.11718 -0.17579,0.11914 -0.23632,0.0586 -0.23438,0.11719 h -0.23633 l -0.23434,0.0585 h -0.23633 -68.70508 -0.29492 l -0.29297,-0.0586 h -0.29492 l -0.29492,-0.0586 -0.29297,-0.11719 -0.29492,-0.11914 -0.29297,-0.11718 -0.29492,-0.11719 -0.29492,-0.17773 -0.23438,-0.11719 -0.23438,-0.23438 -0.23632,-0.17773 -0.23438,-0.17578 -0.23633,-0.23438 -0.17578,-0.23633 -0.17773,-0.29297 -0.17578,-0.23632 -0.17578,-0.29492 -0.11914,-0.23437 -0.11719,-0.29492 -0.11719,-0.29297 -0.0586,-0.29492 -0.0586,-0.29297 -0.0586,-0.35352 -0.0586,-0.29492 v -0.29297 -43.11719 -0.29492 -0.29492 l -0.0605,-0.35156 -0.0586,-0.29492 -0.11718,-0.29492 -0.0586,-0.29297 -0.11718,-0.29493 -0.17774,-0.23437 -0.11719,-0.29492 -0.17578,-0.23438 -0.17773,-0.29492 -0.23438,-0.23437 -0.17578,-0.23633 -0.23633,-0.17578 -0.23437,-0.23633 -0.23633,-0.17578 -0.29297,-0.11719 -0.23633,-0.17773 -0.29297,-0.11719 -0.29494,-0.11719 -0.29492,-0.11719 -0.29297,-0.11719 -0.29492,-0.0605 h -0.29297 l -0.35351,-0.0586 h -0.29493 -53.35156 v 0.23633 l -0.0605,0.23438 -0.0586,0.23633 -0.0586,0.29296 -0.0586,0.17774 -0.11718,0.23437 -0.11719,0.23633 -0.17774,0.17578 -0.11718,0.23438 -0.17578,0.17773 -0.17774,0.11719 -0.23437,0.17578 -0.17579,0.11914 -0.23632,0.11719 -0.23438,0.11719 -0.23633,0.0586 -0.23437,0.0586 -0.23633,0.0586 h -0.23437 -0.29493 -0.23437 l -0.23633,-0.0586 -0.23437,-0.0586 -0.23633,-0.0586 -0.23438,-0.11719 -0.23633,-0.11719 -0.17578,-0.11914 -0.23632,-0.17578 -0.17579,-0.11719 -0.17578,-0.17773 -0.11719,-0.23438 -0.17773,-0.17578 -0.11719,-0.23633 -0.11718,-0.23437 -0.0586,-0.17774 -0.0605,-0.29296 -0.0586,-0.23633 -0.0586,-0.23438 v -0.23633 h -53.35157 -0.35351 l -0.29492,0.0586 h -0.29297 l -0.29492,0.0605 -0.29492,0.11719 -0.29297,0.11719 -0.29493,0.11719 -0.29296,0.11719 -0.23633,0.17773 -0.29297,0.11719 -0.23633,0.17578 -0.23437,0.23633 -0.23633,0.17578 -0.23438,0.23633 -0.17773,0.23437 -0.17578,0.29492 -0.17578,0.23438 -0.11914,0.29492 -0.17579,0.23437 -0.11718,0.29493 -0.0586,0.29297 -0.11719,0.29492 -0.0605,0.29492 -0.0586,0.35156 v 0.29492 0.29492 43.11719 l -0.0586,0.29297 v 0.29492 l -0.0586,0.35352 -0.0586,0.29297 -0.0586,0.29492 -0.11719,0.29297 -0.11914,0.29492 -0.11719,0.23438 -0.17578,0.29492 -0.17773,0.23632 -0.17578,0.29297 -0.17578,0.23633 -0.23633,0.23438 -0.23438,0.17578 -0.23633,0.17773 -0.23437,0.23438 -0.29492,0.11719 -0.23438,0.17773 -0.29492,0.11719 -0.29297,0.11718 -0.29492,0.11914 -0.29492,0.11719 -0.29297,0.0586 h -0.29492 l -0.29304,0.0586 h -0.35352 -68.64648 -0.23633 l -0.23437,-0.0586 h -0.23633 l -0.23438,-0.11719 -0.23633,-0.0586 -0.23437,-0.11914 -0.17773,-0.11718 -0.23438,-0.11719 -0.17578,-0.11719 -0.17774,-0.17773 -0.17578,-0.17578 -0.11718,-0.23633 -0.11914,-0.17578 -0.11719,-0.23438 -0.11719,-0.17773 -0.11719,-0.23438 -0.0586,-0.23633 v -0.23437 l -0.0586,-0.23633 v -0.23437 -207.29493 -0.23437 l -0.0605,-0.23633 -0.0586,-0.23437 -0.0586,-0.23633 -0.0586,-0.23438 -0.11719,-0.23632 -0.11719,-0.17579 -0.11914,-0.23437 -0.17578,-0.17774 -0.11719,-0.17578 -0.17773,-0.17578 -0.23438,-0.11914 -0.17578,-0.17578 -0.23633,-0.11719 -0.17578,-0.0586 -0.23633,-0.11914 -0.23437,-0.0586 -0.23633,-0.0586 h -0.23437 -0.23633 -35.939462 l -0.23632,-0.0586 h -0.23438 l -0.23633,-0.0586 -0.23437,-0.0586 -0.23633,-0.0586 -0.17578,-0.11914 -0.23633,-0.11719 -0.17579,-0.11713 -0.23438,-0.17578 -0.17773,-0.17774 -0.11719,-0.17578 -0.17578,-0.17578 -0.11914,-0.17773 -0.11719,-0.23438 -0.11718,-0.23633 -0.0586,-0.23437 -0.0586,-0.23633 -0.0586,-0.23437 -0.0605,-0.23633 v -0.23438 -179.587887 -0.4707 l 0.0605,-0.41211 0.0586,-0.4707 0.0586,-0.41211 0.0586,-0.47071 0.11718,-0.4121 0.11719,-0.46876 0.17774,-0.4121 0.11718,-0.41211 0.17578,-0.41211 0.23633,-0.41211 0.17578,-0.35157 0.23633,-0.4121 0.23438,-0.35352 0.29492,-0.35352 0.29297,-0.35156 0.29492,-0.35351 0.29297,-0.29493 0.29492,-0.35156 0.35352,-0.29492 0.35156,-0.23438 0.35351,-0.29492 0.35352,-0.23632 0.41211,-0.23438 0.35156,-0.23438 0.41211,-0.17773 0.41211,-0.17578 0.41211,-0.17773 0.41211,-0.11719 0.4707,-0.17578 0.41016,-0.0586 0.41211,-0.11719 0.4707,-0.0605 0.41211,-0.0586 0.4707,-0.0586 h 0.47071 0.41211 l 0.4707,0.0586 0.41016,0.0586 0.4707,0.0605 0.412112,0.0586 0.4707,0.11719 0.41211,0.11718 0.41211,0.11719 0.41211,0.17774 0.41016,0.17578 141.53124,64.941397 0.29297,0.11719 0.29493,0.11719 0.35156,0.0605 0.29492,0.0586 0.29492,0.0586 h 0.35156 l 0.29493,0.0586 0.35351,-0.0586 h 0.29297 l 0.29492,-0.0586 0.35157,-0.0586 0.29492,-0.11914 0.29492,-0.11718 0.29297,-0.11719 0.29492,-0.11719 0.29297,-0.17773 0.23633,-0.17578 0.23437,-0.23633 0.23633,-0.17578 0.23437,-0.23438 0.23633,-0.23633 0.17578,-0.23437 0.17579,-0.29492 0.17773,-0.29492 0.11719,-0.29297 0.17578,-0.29493 0.0605,-0.29296 0.11719,-0.29493 0.0586,-0.29297 0.0586,-0.35351 0.0586,-0.29492 v -0.29297 -0.35352 l -0.0586,-0.29488 -0.0586,-0.35156 -0.0586,-0.29492 -0.0586,-0.29492 -0.11914,-0.29297 -0.11719,-0.29493 -0.17578,-0.29296 -0.17773,-0.29493 -0.17579,-0.23437 -0.17578,-0.29492 -0.17773,-0.23438 -0.23438,-0.23633 -0.23632,-0.17578 -0.29297,-0.23633 -0.23633,-0.17578 -0.70506,-0.4707 -0.70508,-0.4707 -0.64844,-0.5293 -0.70507,-0.4707 -0.64649,-0.5293 -0.64844,-0.58789 -0.64648,-0.529297 -0.58789,-0.58789 -0.58789,-0.58984 -0.58984,-0.58789 -0.5879,-0.64649 -0.58789,-0.64648 -0.52929,-0.64844 -0.5293,-0.64648 -0.5293,-0.64649 -0.4707,-0.70703 -0.5293,-0.70508 -0.41211,-0.70508 -0.4707,-0.70703 -0.41211,-0.70507 -0.41016,-0.76563 -0.4121,-0.70508 -0.41211,-0.76562 -0.35352,-0.76367 -0.35351,-0.76563 -0.29297,-0.82227 -0.35352,-0.76562 -0.23437,-0.82422 -0.29493,-0.76367 -0.23437,-0.82422 -0.23633,-0.82227 -0.23437,-0.82421 -0.17774,-0.82422 -0.17578,-0.82227 -0.17578,-0.82422 -0.11914,-0.82422 -0.11719,-0.82226 -0.11719,-0.88281 -0.0586,-0.82422 -0.0586,-0.82227 v -0.88281 l -0.0586,-0.82422 v -0.82227 l 0.0586,-0.88281 v -0.82422 l 0.11718,-0.82421 0.0586,-0.88086 0.11718,-0.82422 0.11914,-0.82422 0.11719,-0.82227 0.17578,-0.88281 0.17579,-0.82422 0.23632,-0.82226 0.17578,-0.76563 0.23633,-0.82227 0.29297,-0.82421 0.23633,-0.82422 0.29297,-0.76367 0.35351,-0.76563 0.29493,-0.82227 0.35156,-0.76562 0.41211,-0.76562 0.35351,-0.70508 0.41211,-0.76368 0.41211,-0.70703 0.4707,-0.76367 0.46876,-0.70703 0.4707,-0.70508 0.4707,-0.70703 0.5293,-0.64648 0.4707,-0.64649 0.5293,-0.64843 0.58984,-0.64649 0.58789,-0.64648 0.5293,-0.58789 0.64648,-0.64844 0.58789,-0.58789 0.5879,-0.5293 0.64843,-0.58789 0.64649,-0.5293 0.70508,-0.52929 0.64843,-0.5293 0.70508,-0.4707 0.70703,-0.47071 0.7051,-0.4707 0.70508,-0.4707 0.70703,-0.41211 0.76367,-0.41211 0.76563,-0.41016 0.70507,-0.35351 0.76563,-0.35352 0.82227,-0.35351 0.76562,-0.29297 0.76562,-0.29493 0.82227,-0.29296 0.82422,-0.29493 0.76367,-0.23437 0.82422,-0.23633 0.82422,-0.17578 0.82226,-0.17773 0.82422,-0.17579 0.82422,-0.17578 0.88086,-0.11719 0.82422,-0.11914 0.82422,-0.0586 0.82226,-0.0586 0.88282,-0.0586 z"
     style="fill:#212830;fill-opacity:1;stroke:#212830;stroke-width:0.0588235px;stroke-linecap:round;stroke-linejoin:round;stroke-miterlimit:4;stroke-dasharray:none;stroke-opacity:1"
     id="path6197" />
</svg>
