<?xml version="1.0" encoding="UTF-8" standalone="no"?>
<svg
   xmlns:dc="http://purl.org/dc/elements/1.1/"
   xmlns:cc="http://creativecommons.org/ns#"
   xmlns:rdf="http://www.w3.org/1999/02/22-rdf-syntax-ns#"
   xmlns:svg="http://www.w3.org/2000/svg"
   xmlns="http://www.w3.org/2000/svg"
   xmlns:sodipodi="http://sodipodi.sourceforge.net/DTD/sodipodi-0.dtd"
   xmlns:inkscape="http://www.inkscape.org/namespaces/inkscape"
   inkscape:version="1.0 (4035a4fb49, 2020-05-01)"
   sodipodi:docname="KP4525.svg"
   id="svg2629"
   height="280mm"
   width="280mm"
   version="1.0">
  <metadata
     id="metadata2633">
    <rdf:RDF>
      <cc:Work
         rdf:about="">
        <dc:format>image/svg+xml</dc:format>
        <dc:type
           rdf:resource="http://purl.org/dc/dcmitype/StillImage" />
        <dc:title></dc:title>
      </cc:Work>
    </rdf:RDF>
  </metadata>
  <sodipodi:namedview
     inkscape:current-layer="svg2629"
     inkscape:window-maximized="1"
     inkscape:window-y="-8"
     inkscape:window-x="-8"
     inkscape:cy="195.04349"
     inkscape:cx="815.4121"
     inkscape:zoom="1.3744347"
     showgrid="false"
     id="namedview2631"
     inkscape:window-height="1017"
     inkscape:window-width="1920"
     inkscape:pageshadow="2"
     inkscape:pageopacity="0"
     guidetolerance="10"
     gridtolerance="10"
     objecttolerance="10"
     borderopacity="1"
     bordercolor="#666666"
     pagecolor="#ffffff" />
  <defs
     id="defs3" />
  <path
     d="m 249.39829,249.22176 v 29.82422 0.70507 0.70704 l 0.0586,0.64648 0.0586,0.70508 0.11719,0.70703 0.11914,0.64648 0.11719,0.70703 0.11718,0.64649 0.17579,0.70508 0.17773,0.64843 0.17578,0.64649 0.23633,0.64648 0.23437,0.64649 0.23633,0.64844 0.29297,0.64648 0.29492,0.64648 0.29297,0.5879 0.29492,0.58984 0.35352,0.64648 0.35156,0.58789 0.35352,0.58789 0.41211,0.5293 0.41211,0.58984 0.4121,0.5293 0.41016,0.5293 0.4707,0.5293 0.47071,0.52929 0.4707,0.47071 0.4707,0.52929 0.5293,0.47071 0.4707,0.4121 0.5293,0.46876 0.58789,0.4121 0.5293,0.41211 0.58984,0.41211 0.5293,0.41211 0.58789,0.35157 0.58789,0.35351 0.64648,0.29492 0.23633,0.11719 0.23438,0.11719 0.23633,0.0586 0.23437,0.0586 0.29492,0.0605 0.23438,0.0586 h 0.29492 0.23437 l 0.29493,-0.0586 0.23437,-0.0605 0.29492,-0.0586 0.23438,-0.0586 0.23633,-0.11719 0.23437,-0.11719 0.23633,-0.11719 0.23437,-0.17773 0.17774,-0.17578 0.17578,-0.17773 0.17578,-0.17579 0.17774,-0.23437 0.17578,-0.17774 0.11718,-0.23437 0.11914,-0.23633 0.11719,-0.29297 0.0586,-0.23633 0.0586,-0.23437 0.0586,-0.29492 0.0586,-0.23438 v -0.29492 -26.11719 h 43.52929 v 180.41211 h -43.52929 v -22.41211 -0.23632 l -0.0586,-0.29297 -0.0586,-0.23633 -0.0586,-0.29297 -0.0586,-0.23633 -0.11719,-0.23437 -0.11914,-0.23633 -0.11718,-0.23438 -0.17578,-0.23632 -0.17774,-0.17579 -0.17578,-0.23437 -0.17578,-0.17774 -0.17774,-0.11718 -0.23437,-0.17578 -0.23633,-0.11914 -0.23437,-0.11719 -0.23633,-0.11719 -0.23438,-0.11719 -0.29492,-0.0586 -0.23437,-0.0586 h -0.29493 -0.23437 -0.29492 -0.23438 l -0.29492,0.0586 -0.23437,0.0586 -0.23633,0.0586 -0.23438,0.11718 -0.23633,0.11719 -0.64648,0.35352 -0.58789,0.35351 -0.58789,0.35157 -0.5293,0.35351 -0.58984,0.41211 -0.5293,0.41211 -0.58789,0.4707 -0.5293,0.41211 -0.4707,0.4707 -0.5293,0.46876 -0.4707,0.4707 -0.4707,0.5293 -0.47071,0.4707 -0.4707,0.5293 -0.41016,0.53124 -0.4121,0.5879 -0.41211,0.52929 -0.41211,0.58789 -0.35352,0.58789 -0.35156,0.58789 -0.35352,0.5879 -0.29492,0.58984 -0.29297,0.64648 -0.29492,0.64649 -0.29297,0.58789 -0.23633,0.64844 -0.23437,0.64648 -0.23633,0.64648 -0.17578,0.70704 -0.17773,0.64648 -0.17579,0.64648 -0.11718,0.70704 -0.11719,0.64648 -0.11914,0.70508 -0.11719,0.70703 -0.0586,0.64648 -0.0586,0.70703 v 0.70508 0.64649 16.17773 0.70508 0.70508 l 0.0586,0.64844 0.0586,0.70507 0.11719,0.70703 0.11914,0.64649 0.11719,0.70508 0.11718,0.64843 0.17579,0.70508 0.17773,0.64649 0.17578,0.64843 0.23633,0.64649 0.23437,0.64648 0.23633,0.64649 0.29297,0.64844 0.29492,0.64648 0.29297,0.58789 0.29492,0.64649 0.35352,0.58984 0.35156,0.58789 0.35352,0.58789 0.41211,0.58789 0.41211,0.5293 0.4121,0.52929 0.41016,0.5293 0.4707,0.5293 0.47071,0.5293 0.4707,0.53124 0.4707,0.46876 0.5293,0.4707 0.4707,0.4707 0.5293,0.41211 0.58789,0.41211 0.5293,0.41211 0.58984,0.41211 0.5293,0.41016 0.58789,0.35351 0.58789,0.35352 0.64648,0.35351 0.23633,0.0586 0.23438,0.11718 0.23633,0.11719 0.23437,0.0586 h 0.29492 l 0.23438,0.0586 h 0.29492 0.23437 l 0.29493,-0.0586 0.23437,-0.0586 0.29492,-0.0586 0.23438,-0.0586 0.23633,-0.11718 0.23437,-0.11914 0.23633,-0.11719 0.23437,-0.17578 0.17774,-0.17579 0.17578,-0.17773 0.17578,-0.17578 0.17774,-0.23633 0.17578,-0.17578 0.11718,-0.23438 0.11914,-0.23632 0.11719,-0.23438 0.0586,-0.29492 0.0586,-0.23438 0.0586,-0.23632 0.0586,-0.29492 v -0.23437 -12.4707 h 43.52929 v 54.76562 h 0.23633 0.29297 l 0.23633,0.0586 0.29297,0.0586 0.23633,0.11719 0.23437,0.11718 0.29492,0.11914 0.23438,0.11719 0.17773,0.17578 0.23438,0.17579 0.17773,0.17773 0.17578,0.17578 0.17578,0.23633 0.17774,0.23437 0.11719,0.23633 0.11718,0.23438 0.11719,0.29492 0.0586,0.23437 0.0605,0.29493 0.0586,0.23437 v 0.29492 0.23438 0.29492 l -0.0586,0.29297 -0.0605,0.23633 -0.0586,0.29297 -0.11719,0.23632 -0.11718,0.23438 -0.11719,0.23633 -0.17774,0.23437 -0.17578,0.23633 -0.17578,0.17578 -0.17773,0.17773 -0.23438,0.17579 -0.17773,0.17578 -0.23438,0.11719 -0.29492,0.11914 -0.23437,0.11718 -0.23633,0.11719 -0.29297,0.0586 -0.23633,0.0586 h -0.29297 -0.23633 v 54.76562 h -43.52929 v -12.41211 -0.29297 l -0.0586,-0.23634 -0.0586,-0.29492 -0.0586,-0.23438 -0.0586,-0.29492 -0.11719,-0.23438 -0.11914,-0.23632 -0.11718,-0.23438 -0.17578,-0.17578 -0.17774,-0.23633 -0.17578,-0.17578 -0.17578,-0.17773 -0.17774,-0.17579 -0.23437,-0.17578 -0.23633,-0.11719 -0.23437,-0.11914 -0.23633,-0.11718 -0.23438,-0.0586 -0.29492,-0.0586 -0.23437,-0.0586 -0.29493,-0.0586 h -0.23437 -0.29492 l -0.23438,0.0586 h -0.29492 l -0.23437,0.11718 -0.23633,0.0586 -0.23438,0.11718 -0.23633,0.11914 -0.64648,0.29297 -0.58789,0.35352 -0.58789,0.35351 -0.5293,0.41016 -0.58984,0.41211 -0.5293,0.41211 -0.58789,0.41211 -0.5293,0.41211 -0.4707,0.4707 -0.5293,0.4707 -0.4707,0.5293 -0.4707,0.4707 -0.47071,0.5293 -0.4707,0.5293 -0.41016,0.5293 -0.4121,0.52929 -0.41211,0.58789 -0.41211,0.5293 -0.35352,0.58789 -0.35156,0.58789 -0.35352,0.58984 -0.29492,0.64649 -0.29297,0.58789 -0.29492,0.64648 -0.29297,0.64844 -0.23633,0.64649 -0.23437,0.64648 -0.23633,0.64649 -0.17578,0.64843 -0.17773,0.64649 -0.17579,0.70508 -0.11718,0.64843 -0.11719,0.70508 -0.11914,0.64649 -0.11719,0.70703 -0.0586,0.70507 -0.0586,0.64844 v 0.7051 0.70508 16.17773 0.64649 0.70508 l 0.0586,0.70703 0.0586,0.64648 0.11719,0.70703 0.11914,0.70508 0.11719,0.64648 0.11718,0.70704 0.17579,0.64648 0.17773,0.64648 0.17578,0.70704 0.23633,0.64648 0.23437,0.64648 0.23633,0.64844 0.29297,0.64649 0.29492,0.58789 0.29297,0.64648 0.29492,0.58984 0.35352,0.5879 0.35156,0.58789 0.35352,0.58789 0.41211,0.58789 0.41211,0.52929 0.4121,0.5879 0.41016,0.53124 0.4707,0.5293 0.47071,0.4707 0.4707,0.5293 0.4707,0.4707 0.5293,0.46876 0.4707,0.4707 0.5293,0.4707 0.58789,0.41211 0.5293,0.41211 0.58984,0.41211 0.5293,0.35351 0.58789,0.35157 0.58789,0.35351 0.64648,0.35352 0.23633,0.11719 0.23438,0.11718 0.23633,0.0586 0.23437,0.0586 0.29492,0.0586 h 0.23438 0.29492 0.23437 0.29493 l 0.23437,-0.0586 0.29492,-0.0586 0.23438,-0.11719 0.23633,-0.0586 0.23437,-0.17579 0.23633,-0.11914 0.23437,-0.11718 0.17774,-0.17578 0.17578,-0.17774 0.17578,-0.23437 0.17774,-0.17579 0.17578,-0.23632 0.11718,-0.23438 0.11914,-0.23633 0.11719,-0.23437 0.0586,-0.23633 0.0586,-0.29297 0.0586,-0.23633 0.0586,-0.29297 v -0.23632 -22.41211 h 43.52929 v 180.41212 h -43.5293 v -26.11719 -0.29492 l -0.0586,-0.23438 -0.0586,-0.29492 -0.0586,-0.23437 -0.0586,-0.23633 -0.11719,-0.29297 -0.11914,-0.23633 -0.11718,-0.17578 -0.17578,-0.23633 -0.17774,-0.23437 -0.17578,-0.17579 -0.17578,-0.17773 -0.17774,-0.17578 -0.23437,-0.17773 -0.23633,-0.11719 -0.23437,-0.11719 -0.23633,-0.11719 -0.23438,-0.0586 -0.29492,-0.0586 -0.23437,-0.0605 -0.29493,-0.0586 h -0.23437 -0.29492 l -0.23438,0.0586 -0.29492,0.0605 -0.23437,0.0586 -0.23633,0.0586 -0.23438,0.11719 -0.23633,0.11719 -0.64648,0.29492 -0.58789,0.35351 -0.58789,0.41016 -0.5293,0.35352 -0.58984,0.41211 -0.5293,0.41211 -0.58789,0.4121 -0.5293,0.46876 -0.4707,0.4121 -0.5293,0.47071 -0.4707,0.52929 -0.4707,0.47071 -0.47071,0.52929 -0.4707,0.5293 -0.41016,0.5293 -0.4121,0.5293 -0.41211,0.58984 -0.41211,0.5293 -0.35352,0.58789 -0.35156,0.58789 -0.35352,0.64648 -0.29492,0.58984 -0.29297,0.5879 -0.29492,0.64648 -0.29297,0.64648 -0.23633,0.64844 -0.23437,0.64649 -0.23633,0.64648 -0.17578,0.64649 -0.17773,0.70703 -0.17579,0.64648 -0.11718,0.64649 -0.11719,0.70703 -0.11914,0.70507 -0.11719,0.64844 -0.0586,0.70508 -0.0586,0.70508 v 0.64844 0.70507 7.47071 h -99.47069 v -27.35352 h 12.41211 v -18.70508 h -35.64649 -0.23632 l -0.29492,0.0586 -0.23438,0.0586 -0.23438,0.0586 -0.23632,0.0586 -0.23438,0.11914 -0.23633,0.11719 -0.23437,0.11718 -0.23633,0.11719 -0.17578,0.17774 -0.23633,0.17578 -0.17578,0.17578 -10.29492,11.17773 -0.17578,0.23438 -0.17578,0.17773 -0.11914,0.23438 -0.17579,0.23632 -0.0586,0.23436 -0.11719,0.29492 -0.0586,0.23438 -0.0586,0.29492 -0.0605,0.23437 v 0.29493 0.23437 0.29492 l 0.0605,0.23438 0.0586,0.29492 0.11719,0.23437 0.0586,0.29493 0.11719,0.23437 0.17773,0.23633 0.11719,0.17578 0.17578,0.23633 0.17773,0.17578 0.17579,0.23438 0.23437,0.17773 0.23633,0.11719 0.23437,0.17578 0.23633,0.11914 0.23438,0.0586 0.23633,0.11719 0.29296,0.0586 0.23633,0.0586 h 0.29297 l 0.23633,0.0586 h 14.94141 v 31.0586 H 19.398294 v -31.0586 h 14.88282 l 0.29296,-0.0586 h 0.29493 l 0.23437,-0.0586 0.23633,-0.0586 0.29297,-0.11719 0.23633,-0.0586 0.23437,-0.11914 0.23633,-0.17578 0.23437,-0.11719 0.17774,-0.17773 0.23437,-0.23438 0.17579,-0.17578 0.17773,-0.23633 0.11719,-0.17578 0.11718,-0.23633 0.11914,-0.23437 0.11719,-0.29493 0.11719,-0.23437 0.0586,-0.29492 v -0.23438 l 0.0586,-0.29492 v -0.23437 -0.29493 l -0.0586,-0.23437 -0.0586,-0.29492 -0.05859,-0.23438 -0.11719,-0.29492 -0.11914,-0.23438 -0.11719,-0.23632 -0.11719,-0.23438 -0.17578,-0.17773 -0.17773,-0.23438 -10.35157,-11.17773 -0.17773,-0.17578 -0.17578,-0.17578 -0.23633,-0.17774 -0.17578,-0.11719 -0.23438,-0.11718 -0.23632,-0.11719 -0.23438,-0.11914 -0.23633,-0.0586 -0.23437,-0.0586 -0.29492,-0.0586 -0.23438,-0.0586 H 23.986184 0.75181415 v 68.47071 H 783.98618 V 703.28035 h 124.35351 v -22.41016 h -37.2949 V 271.57527 h 37.2949 v 46.0586 h 23.2344 0.2363 l 0.2344,-0.0586 0.2949,-0.0586 0.2344,-0.0586 0.2363,-0.0586 0.2344,-0.11914 0.2363,-0.0586 0.2344,-0.17578 0.1777,-0.11719 0.2344,-0.17774 0.1758,-0.17578 0.1777,-0.17578 10.3516,-11.17773 0.1777,-0.17578 0.1758,-0.23633 0.1172,-0.23438 0.1191,-0.23632 0.1172,-0.23438 0.1172,-0.29492 0.059,-0.23438 0.059,-0.29492 v -0.23437 l 0.059,-0.29493 v -0.23437 l -0.059,-0.29492 -0.059,-0.23438 -0.059,-0.29492 -0.059,-0.23437 -0.1172,-0.23633 -0.1191,-0.29297 -0.1172,-0.23633 -0.1758,-0.17578 -0.1172,-0.23633 -0.1777,-0.17578 -0.2344,-0.23438 -0.1777,-0.11914 -0.2344,-0.17578 -0.2344,-0.17578 -0.2363,-0.11914 -0.2344,-0.0586 -0.2945,-0.11715 -0.2344,-0.0586 -0.2949,-0.0586 h -0.2363 -0.293 -14.8828 V 267.87018 H 1038.869 v 31.11719 h -14.9414 -0.2344 -0.2949 l -0.2363,0.0586 -0.293,0.0586 -0.2363,0.11719 -0.293,0.0586 -0.2363,0.11914 -0.2344,0.17578 -0.1758,0.17578 -0.2363,0.11914 -0.1758,0.23438 -0.1777,0.17578 -0.1758,0.23633 -0.1758,0.17578 -0.1191,0.23633 -0.1172,0.29297 -0.1172,0.23633 -0.059,0.23437 -0.059,0.29492 -0.059,0.23438 v 0.29492 0.23437 0.29493 l 0.059,0.23437 0.059,0.29492 0.059,0.23438 0.059,0.29492 0.1172,0.23438 0.1191,0.23632 0.1758,0.23438 0.1758,0.23633 0.1777,0.17578 10.293,11.17773 0.1777,0.17578 0.2344,0.17578 0.1758,0.17774 0.2363,0.11719 0.2344,0.17578 0.1777,0.0586 0.2344,0.11914 0.2949,0.0586 0.2344,0.0586 0.2363,0.0586 0.293,0.0586 h 0.2363 23.2344 v -68.41215 z m 84.5293,22.35351 h 514.70508 v 409.29492 h -87 V 786.63387 H 333.92759 v -83.35352 h 24.88281 v -22.41016 h -24.88281 z"
     style="fill:#212830;fill-opacity:1;stroke:#212830;stroke-width:0.0588235px;stroke-linecap:round;stroke-linejoin:round;stroke-miterlimit:4;stroke-dasharray:none;stroke-opacity:1"
     id="path2627" />
</svg>
