<?xml version="1.0" encoding="UTF-8" standalone="no"?>
<svg
   xmlns:dc="http://purl.org/dc/elements/1.1/"
   xmlns:cc="http://creativecommons.org/ns#"
   xmlns:rdf="http://www.w3.org/1999/02/22-rdf-syntax-ns#"
   xmlns:svg="http://www.w3.org/2000/svg"
   xmlns="http://www.w3.org/2000/svg"
   id="svg2311"
   height="181mm"
   width="181mm"
   version="1.0">
  <metadata
     id="metadata2315">
    <rdf:RDF>
      <cc:Work
         rdf:about="">
        <dc:format>image/svg+xml</dc:format>
        <dc:type
           rdf:resource="http://purl.org/dc/dcmitype/StillImage" />
        <dc:title></dc:title>
      </cc:Work>
    </rdf:RDF>
  </metadata>
  <defs
     id="defs3" />
  <path
     d="M 0.22340997,95.017965 V 437.01796 H 342.04763 v 152.0586 h 41.76562 v -14.23633 -0.17578 -0.23633 l -0.0605,-0.17578 -0.0586,-0.23438 -0.11719,-0.17773 -0.11718,-0.17578 -0.0586,-0.17579 -0.17773,-0.17773 -0.11719,-0.11719 -6.82227,-6.35351 -0.17773,-0.11719 -0.17578,-0.11719 -0.17773,-0.11719 -0.23438,-0.0605 -0.17578,-0.11719 h -0.17774 l -0.23437,-0.0586 h -0.23637 -0.17578 l -0.23438,0.0586 h -0.17773 l -0.23437,0.0586 -0.17774,0.11914 -0.17578,0.11714 -0.17578,0.11719 -0.17774,0.11719 -0.11718,0.17773 -0.17578,0.11719 -0.11914,0.17578 -0.0586,0.17773 -0.11719,0.23438 -0.0586,0.17578 -0.0586,0.23633 v 0.17578 0.23633 9.11719 h -19 v -68.41211 h 19 v 9.11718 0.17774 0.23437 l 0.0586,0.23633 0.0586,0.17578 0.11719,0.17578 0.0586,0.17774 0.11914,0.17578 0.17578,0.17578 0.11718,0.17774 0.17774,0.11718 0.17578,0.11719 0.17578,0.11719 0.17774,0.0605 0.23437,0.0586 0.17773,0.0586 h 0.23437 l 0.17578,0.0586 0.23633,-0.0586 h 0.23437 l 0.17774,-0.0586 0.17578,-0.0586 0.23438,-0.11914 0.17773,-0.0586 0.17578,-0.11719 0.17773,-0.17578 6.82227,-6.29492 0.11719,-0.17578 0.17773,-0.11914 0.0586,-0.17578 0.11718,-0.17578 0.11719,-0.23633 0.0586,-0.17578 0.0605,-0.17579 v -0.23632 -0.23438 -21.76562 h -11.3535 v 7.58789 h -16.76563 v -60.82227 h 4.58984 0.5293 0.5293 l 0.58789,-0.0605 0.5293,-0.0586 0.52929,-0.11719 0.5293,-0.11718 0.5293,-0.11719 0.52929,-0.11914 0.5293,-0.17578 0.5293,-0.17578 0.52929,-0.23633 0.47071,-0.23438 0.4707,-0.23633 0.5293,-0.23437 0.4707,-0.29492 0.4707,-0.23438 0.41211,-0.35351 0.47071,-0.29492 0.41211,-0.35157 0.4121,-0.35351 0.41016,-0.35352 0.41211,-0.41016 0.35352,-0.35351 0.35351,-0.41211 0.35156,-0.4707 0.35352,-0.41211 0.29492,-0.47071 0.29297,-0.4121 0.29492,-0.46876 0.29297,-0.53124 0.0586,-0.17579 0.11914,-0.17578 v -0.23633 l 0.0586,-0.17578 v -0.23631 -0.23438 -0.17578 l -0.0586,-0.23633 -0.0586,-0.17578 -0.0605,-0.23633 -0.11719,-0.17578 -0.11719,-0.17578 -0.11719,-0.17774 -0.17773,-0.11718 -0.17578,-0.17578 -0.17578,-0.11914 -0.17774,-0.0586 -0.17578,-0.11719 -0.23438,-0.0586 -0.17773,-0.0586 h -0.23437 l -0.17774,-0.0586 h -16 v -26.58788 h 110.17774 v 26.58789 h -13.70704 l -0.17578,0.0586 h -0.23632 l -0.17579,0.0586 -0.23437,0.0586 -0.17774,0.11719 -0.17578,0.0586 -0.17578,0.11914 -0.17773,0.17578 -0.17578,0.11718 -0.11719,0.17774 -0.11914,0.17578 -0.11719,0.17578 -0.0586,0.23633 -0.0586,0.17578 -0.0586,0.23633 v 0.17577 0.23438 0.23632 l 0.0586,0.17578 v 0.23633 l 0.11719,0.17578 0.0586,0.17579 0.29493,0.53124 0.29297,0.46876 0.29492,0.4121 0.29492,0.47071 0.35156,0.41211 0.35352,0.4707 0.35351,0.41211 0.35157,0.35351 0.4121,0.41016 0.41211,0.35352 0.41211,0.35351 0.41211,0.35157 0.47071,0.29492 0.4121,0.35351 0.46876,0.23438 0.4707,0.29492 0.5293,0.23437 0.4707,0.23633 0.4707,0.23438 0.5293,0.23633 0.5293,0.17578 0.53124,0.17578 0.5293,0.11914 0.5293,0.11719 0.5293,0.11718 0.52929,0.11719 0.5293,0.0586 0.58789,0.0605 h 0.5293 0.52929 9.88282 0.52929 0.58789 l 0.5293,-0.0605 0.5293,-0.0586 0.52929,-0.11719 0.5293,-0.11718 0.5293,-0.11719 0.5293,-0.11914 0.53124,-0.17578 0.5293,-0.17578 0.5293,-0.23633 0.4707,-0.23438 0.5293,-0.23633 0.4707,-0.23437 0.4707,-0.29492 0.46876,-0.23438 0.4121,-0.35351 0.47071,-0.29492 0.41211,-0.35157 0.41211,-0.35351 0.41211,-0.35352 0.4121,-0.41016 0.35157,-0.35351 0.35351,-0.41211 0.35352,-0.4707 0.35156,-0.41211 0.29492,-0.47071 0.35352,-0.4121 0.23437,-0.46876 0.29493,-0.53124 0.0586,-0.17579 0.11719,-0.17578 0.0586,-0.23633 v -0.17578 -0.23632 -0.23438 -0.17578 l -0.0586,-0.23633 -0.0586,-0.17578 -0.0586,-0.23633 -0.11719,-0.17578 -0.11914,-0.17578 -0.11719,-0.17774 -0.17578,-0.11718 -0.17773,-0.17578 -0.17578,-0.11914 -0.17578,-0.0586 -0.17774,-0.11719 -0.23437,-0.0586 -0.17579,-0.0586 h -0.23632 l -0.17578,-0.0586 h -7.5879 v -26.58789 h 33.41016 v -0.17773 -0.23438 l 0.0586,-0.17773 0.0605,-0.23438 0.11719,-0.17578 0.11719,-0.17773 0.11718,-0.17578 0.11914,-0.17579 0.11719,-0.11914 0.17578,-0.17578 0.17579,-0.11718 0.17773,-0.11914 0.17578,-0.0586 0.23633,-0.0586 0.17578,-0.0586 h 0.23438 l 0.17773,-0.0586 0.23437,0.0586 h 0.23633 l 0.17578,0.0586 0.17579,0.0586 0.23632,0.0586 0.17578,0.11914 0.17774,0.11718 0.17578,0.17578 0.11719,0.11914 0.11719,0.17579 0.11914,0.17578 0.11718,0.17773 0.11719,0.17578 0.0586,0.23438 0.0586,0.17773 v 0.23438 0.17773 h 33.41212 v 26.58789 h -7.5879 l -0.1758,0.0586 h -0.2363 l -0.17579,0.0586 -0.23633,0.0586 -0.17578,0.11719 -0.17578,0.0586 -0.17774,0.11914 -0.17578,0.17578 -0.17578,0.11718 -0.11914,0.17774 -0.11719,0.17578 -0.11719,0.17578 -0.0586,0.23633 -0.0586,0.17578 -0.0586,0.23633 v 0.17578 0.23438 0.23632 0.17578 l 0.0586,0.23633 0.11718,0.17578 0.0586,0.17579 0.29492,0.53124 0.23437,0.46876 0.35352,0.4121 0.29297,0.47071 0.35352,0.41211 0.2949,0.4707 0.4121,0.41211 0.3516,0.35351 0.4121,0.41016 0.4121,0.35352 0.4121,0.35351 0.4121,0.35157 0.4102,0.29492 0.4707,0.35351 0.4707,0.23438 0.4707,0.29492 0.4707,0.23437 0.5293,0.23633 0.4707,0.23438 0.5293,0.23633 0.5293,0.17578 0.5293,0.17578 0.5293,0.11914 0.5293,0.11719 0.5293,0.11718 0.5312,0.11719 0.5293,0.0586 0.5293,0.0605 h 0.5879 0.5293 9.8828 0.5293 0.5293 l 0.5879,-0.0605 0.5293,-0.0586 0.5293,-0.11719 0.5293,-0.11718 0.5293,-0.11719 0.5293,-0.11914 0.5293,-0.17578 0.5293,-0.17578 0.5293,-0.23633 0.4707,-0.23438 0.4707,-0.23633 0.5293,-0.23437 0.4707,-0.29492 0.4707,-0.23438 0.4121,-0.35351 0.4707,-0.29492 0.4121,-0.35157 0.4121,-0.35351 0.4102,-0.35352 0.4121,-0.41016 0.3535,-0.35351 0.3535,-0.41211 0.3516,-0.4707 0.3535,-0.41211 0.2949,-0.47071 0.293,-0.4121 0.2949,-0.46876 0.293,-0.53124 0.061,-0.17579 0.1172,-0.17578 v -0.23633 l 0.059,-0.17578 v -0.23632 -0.23438 -0.17578 l -0.059,-0.23633 -0.059,-0.17578 -0.1191,-0.23633 -0.059,-0.17578 -0.1172,-0.17578 -0.1758,-0.17774 -0.1172,-0.11718 -0.1777,-0.17578 -0.1758,-0.11914 -0.1777,-0.0586 -0.1758,-0.11719 -0.2344,-0.0586 -0.1777,-0.0586 h -0.2344 l -0.1777,-0.0586 h -13.7051 v -26.58789 h 110.1758 v 26.58789 h -16 l -0.1758,0.0586 h -0.2344 l -0.1777,0.0586 -0.2344,0.0586 -0.1777,0.11719 -0.1758,0.0586 -0.1758,0.11914 -0.1777,0.17578 -0.1758,0.11718 -0.1172,0.17774 -0.1172,0.17578 -0.1191,0.17578 -0.059,0.23633 -0.059,0.17578 -0.059,0.23633 v 0.17578 0.23438 0.23632 0.17578 l 0.059,0.23633 0.1172,0.17578 0.059,0.17579 0.2949,0.53124 0.2949,0.46876 0.293,0.4121 0.2949,0.47071 0.3516,0.41211 0.3535,0.4707 0.3535,0.41211 0.3535,0.35351 0.4102,0.41016 0.4121,0.35352 0.4121,0.35351 0.4121,0.35157 0.4707,0.29492 0.4121,0.35351 0.4707,0.23438 0.4707,0.29492 0.4688,0.23437 0.5312,0.23633 0.4688,0.23438 0.5312,0.23633 0.5293,0.17578 0.5293,0.17578 0.5293,0.11914 0.5293,0.11719 0.5293,0.11718 0.5293,0.11719 0.5293,0.0586 0.5293,0.0605 h 0.5879 0.5293 18.2363 V 95.017925 h -18.2363 -0.5293 -0.58715 l -0.5293,0.0586 -0.5293,0.0586 -0.5293,0.11719 -0.5293,0.11718 -0.5293,0.11914 -0.5293,0.11719 -0.5293,0.17578 -0.5293,0.17579 -0.5312,0.23632 -0.4688,0.17578 -0.5312,0.23633 -0.4688,0.29297 -0.4707,0.23633 -0.4707,0.29297 -0.4121,0.35351 -0.4707,0.29493 -0.4121,0.35156 -0.4121,0.35351 -0.4121,0.35352 -0.4102,0.41211 -0.3535,0.35156 -0.3535,0.412115 -0.3535,0.4707 -0.3516,0.41211 -0.2949,0.47071 -0.293,0.41211 -0.2949,0.4707 -0.2949,0.4707 -0.059,0.23438 -0.1172,0.17578 -0.059,0.23633 v 0.17578 0.23633 0.17578 0.23632 l 0.059,0.23438 0.059,0.17578 0.059,0.17774 0.1191,0.23437 0.1172,0.17773 0.1172,0.11719 0.1758,0.17578 0.1777,0.11719 0.1758,0.11914 0.1758,0.11719 0.1777,0.11719 0.2344,0.0586 0.1777,0.0586 h 0.2344 0.1758 16 v 26.64844 h -110.1758 v -26.64844 h 13.7051 0.1777 0.2344 l 0.1777,-0.0586 0.2344,-0.0586 0.1758,-0.11719 0.1777,-0.11719 0.1758,-0.11914 0.1777,-0.11719 0.1172,-0.17578 0.1758,-0.11719 0.1172,-0.17773 0.059,-0.23437 0.1191,-0.17774 0.059,-0.17578 0.059,-0.23438 v -0.23632 -0.17578 -0.23633 l -0.059,-0.17578 v -0.23633 l -0.1172,-0.17578 -0.061,-0.23438 -0.293,-0.4707 -0.2949,-0.4707 -0.293,-0.41211 -0.2949,-0.47071 -0.3535,-0.41211 -0.3516,-0.4707 -0.3535,-0.412115 -0.3535,-0.35156 -0.4121,-0.41211 -0.4102,-0.35352 -0.4121,-0.35351 -0.4121,-0.35156 -0.4707,-0.29493 -0.4121,-0.35351 -0.4707,-0.29297 -0.4707,-0.23633 -0.5293,-0.29297 -0.4707,-0.23633 -0.4707,-0.17578 -0.5293,-0.23632 -0.5293,-0.17579 -0.5293,-0.17578 -0.5293,-0.11719 -0.5293,-0.11914 -0.5293,-0.11718 -0.5293,-0.11719 -0.5293,-0.0586 -0.5879,-0.0586 h -0.5293 -0.5293 -9.8828 -0.5293 -0.5879 l -0.5293,0.0586 -0.5293,0.0586 -0.5312,0.11719 -0.5293,0.11718 -0.5293,0.11914 -0.5293,0.11719 -0.5293,0.17578 -0.5293,0.17579 -0.5293,0.23632 -0.4707,0.17578 -0.5293,0.23633 -0.4707,0.29297 -0.4707,0.23633 -0.4707,0.29297 -0.4707,0.35351 -0.4102,0.29493 -0.4121,0.35156 -0.4121,0.35351 -0.4121,0.35352 -0.4121,0.41211 -0.3516,0.35156 -0.4121,0.412115 -0.2949,0.4707 -0.35352,0.41211 -0.29297,0.47071 -0.35352,0.41211 -0.23437,0.4707 -0.29492,0.4707 -0.0586,0.23438 -0.11718,0.17578 -0.0586,0.23633 v 0.17578 0.23633 0.17578 0.23632 l 0.0586,0.23438 0.0586,0.17578 0.0586,0.17774 0.11719,0.23437 0.11719,0.17773 0.11914,0.11719 0.17578,0.17578 0.17578,0.11719 0.17774,0.11914 0.17578,0.11719 0.17578,0.11719 0.23633,0.0586 0.17579,0.0586 h 0.2363 0.1758 7.5879 v 26.64844 h -33.41212 v 0.17578 0.23438 l -0.0586,0.17773 -0.0586,0.23438 -0.11719,0.17773 -0.11718,0.17578 -0.11914,0.17578 -0.11719,0.17774 -0.11719,0.11719 -0.17578,0.17578 -0.17774,0.11719 -0.17578,0.0605 -0.23632,0.11719 -0.17579,0.0586 -0.17578,0.0586 h -0.23633 -0.23437 -0.17773 -0.23509 l -0.17578,-0.0586 -0.23633,-0.0586 -0.17578,-0.11719 -0.17773,-0.0605 -0.17579,-0.11719 -0.17578,-0.17578 -0.11719,-0.11719 -0.11914,-0.17774 -0.11718,-0.17578 -0.11719,-0.17578 -0.11719,-0.17773 -0.0605,-0.23438 -0.0586,-0.17773 v -0.23438 -0.17578 h -33.41016 v -26.64844 h 7.5879 0.17578 0.23632 l 0.17579,-0.0586 0.23437,-0.0586 0.17774,-0.11719 0.17578,-0.11719 0.17578,-0.11914 0.17773,-0.11719 0.17578,-0.17578 0.11719,-0.11719 0.11914,-0.17773 0.11719,-0.23437 0.0586,-0.17774 0.0586,-0.17578 0.0586,-0.23438 v -0.23632 -0.17578 -0.23633 -0.17578 l -0.0586,-0.23633 -0.11719,-0.17578 -0.0586,-0.23438 -0.29493,-0.4707 -0.23437,-0.4707 -0.35352,-0.41211 -0.29492,-0.47071 -0.35156,-0.41211 -0.35352,-0.4707 -0.35351,-0.412115 -0.35157,-0.35156 -0.4121,-0.41211 -0.41211,-0.35352 -0.41211,-0.35351 -0.41211,-0.35156 -0.47071,-0.29493 -0.4121,-0.35351 -0.46876,-0.29297 -0.4707,-0.23633 -0.4707,-0.29297 -0.5293,-0.23633 -0.4707,-0.17578 -0.5293,-0.23632 -0.5293,-0.17579 -0.53124,-0.17578 -0.5293,-0.11719 -0.5293,-0.11914 -0.5293,-0.11718 -0.52929,-0.11719 -0.5293,-0.0586 -0.5293,-0.0586 h -0.58793 -0.52929 -9.88282 -0.52929 -0.5293 l -0.58789,0.0586 -0.5293,0.0586 -0.52929,0.11719 -0.5293,0.11718 -0.5293,0.11914 -0.5293,0.11719 -0.53124,0.17578 -0.5293,0.17579 -0.5293,0.23632 -0.4707,0.17578 -0.4707,0.23633 -0.5293,0.29297 -0.4707,0.23633 -0.46876,0.29297 -0.4121,0.35351 -0.47071,0.29493 -0.41211,0.35156 -0.41211,0.35351 -0.41211,0.35352 -0.4121,0.41211 -0.35157,0.35156 -0.35351,0.412115 -0.35352,0.4707 -0.35156,0.41211 -0.29492,0.47071 -0.29492,0.41211 -0.29297,0.4707 -0.29493,0.4707 -0.0586,0.23438 -0.11719,0.17578 v 0.23633 l -0.0586,0.17578 v 0.23633 0.17578 0.23632 l 0.0586,0.23438 0.0586,0.17578 0.0586,0.17774 0.11719,0.23437 0.11914,0.17773 0.11719,0.11719 0.17578,0.17578 0.17773,0.11719 0.17578,0.11914 0.17578,0.11719 0.17774,0.11719 0.23437,0.0586 0.17579,0.0586 h 0.23632 0.17578 13.70704 v 26.64844 H 355.69411 v -26.64844 h 16 0.17774 0.23437 l 0.17773,-0.0586 0.23438,-0.0586 0.17578,-0.11719 0.17774,-0.11719 0.17578,-0.11914 0.17578,-0.11719 0.17773,-0.17578 0.11719,-0.11719 0.11719,-0.17773 0.11719,-0.23437 0.0605,-0.17774 0.0586,-0.17578 0.0586,-0.23438 v -0.23632 -0.17578 -0.23633 l -0.0586,-0.17578 v -0.23633 l -0.11914,-0.17578 -0.0586,-0.23438 -0.29297,-0.4707 -0.29492,-0.4707 -0.29297,-0.41211 -0.29488,-0.47068 -0.35352,-0.41211 -0.35156,-0.4707 -0.35351,-0.412115 -0.35352,-0.35156 -0.41211,-0.41211 -0.41016,-0.35352 -0.4121,-0.35351 -0.41211,-0.35156 -0.47071,-0.29493 -0.41211,-0.35351 -0.4707,-0.29297 -0.4707,-0.23633 -0.5293,-0.29297 -0.4707,-0.23633 -0.47071,-0.17578 -0.52929,-0.23632 -0.5293,-0.17579 -0.5293,-0.17578 -0.52929,-0.11719 -0.5293,-0.11914 -0.5293,-0.11718 -0.52929,-0.11719 -0.5293,-0.0586 -0.58789,-0.0586 h -0.5293 -0.5293 z M 19.22341,108.66446 H 342.04763 V 423.36952 H 19.22341 Z m 336.4707,38 H 670.22343 V 385.36952 H 355.69411 Z"
     style="fill:#212830;fill-opacity:1;stroke:#212830;stroke-width:0.0588235px;stroke-linecap:round;stroke-linejoin:round;stroke-miterlimit:4;stroke-dasharray:none;stroke-opacity:1"
     id="path2305" />
</svg>
