<?xml version="1.0" encoding="UTF-8" standalone="no"?>
<svg
   xmlns:dc="http://purl.org/dc/elements/1.1/"
   xmlns:cc="http://creativecommons.org/ns#"
   xmlns:rdf="http://www.w3.org/1999/02/22-rdf-syntax-ns#"
   xmlns:svg="http://www.w3.org/2000/svg"
   xmlns="http://www.w3.org/2000/svg"
   id="svg1075"
   height="263mm"
   width="263mm"
   version="1.0">
  <metadata
     id="metadata1079">
    <rdf:RDF>
      <cc:Work
         rdf:about="">
        <dc:format>image/svg+xml</dc:format>
        <dc:type
           rdf:resource="http://purl.org/dc/dcmitype/StillImage" />
        <dc:title></dc:title>
      </cc:Work>
    </rdf:RDF>
  </metadata>
  <defs
     id="defs3" />
  <path
     d="m 72.684425,397.68463 -0.4707,0.0586 -0.41211,0.0586 -0.35351,0.23633 -0.35157,0.23437 -0.35351,0.29492 -0.23438,0.35352 -0.17773,0.41016 -0.11719,0.4121 v 0.41211 13.41212 0.29492 l 0.0586,0.23438 0.11719,0.23438 0.11914,0.17773 0.23438,0.23437 0.17578,0.11914 0.23633,0.11719 0.23437,0.0586 h 0.29492 6.94141 0.23437 l 0.29493,-0.0586 0.23437,-0.11719 0.17774,-0.11914 0.17578,-0.23437 0.17578,-0.17773 0.11914,-0.23438 0.0586,-0.23438 v -0.29492 -9.41212 h 9.94141 v 64.94141 l 0.0586,0.29492 0.0586,0.23438 0.11718,0.29492 0.17579,0.23437 2.06054,2 -2.06054,2.0586 -0.11719,0.17773 -0.11719,0.23438 -0.11719,0.17578 -0.0586,0.23633 v 0.23437 51.52929 l -7.4707,-7.4707 v -3.46876 -0.23632 l -0.0586,-0.23438 -0.11914,-0.23633 -0.11719,-0.23437 -0.23437,-0.17774 -0.17774,-0.17578 -0.23437,-0.11718 -0.23633,-0.0586 h -0.29297 -4.4707 -0.29492 l -0.23438,0.11719 -0.29492,0.11719 -0.23437,0.17578 -0.17774,0.23633 -0.11719,0.29297 -0.11718,0.23632 v 0.29492 15.88086 l 0.0586,0.47071 0.0586,0.41211 0.23633,0.41211 0.23438,0.35351 0.29492,0.29297 0.35156,0.23633 0.41211,0.17578 0.41211,0.11719 0.41211,0.0586 h 12.41211 v 54.58984 h -46.64844 v -7.4121 l -0.0586,-0.47071 -0.11722,-0.41212 -0.17578,-0.35351 -0.23633,-0.35157 -0.29297,-0.35351 -0.35351,-0.23633 -0.41211,-0.17578 -0.41211,-0.11719 h -0.41211 -8.4707 -0.29297 l -0.23633,0.0586 -0.29297,0.17578 -0.23633,0.17773 -0.17578,0.23438 -0.11719,0.23632 -0.0586,0.29297 -0.0586,0.29493 v 2 l 0.0586,0.29296 0.0586,0.23633 0.11719,0.29297 0.17578,0.23633 0.23633,0.17578 0.29297,0.11719 0.23633,0.0605 0.29297,0.0586 h 4.4707 v 7.4707 H 7.1551349 v -7.4707 h 4.4707001 0.23437 l 0.29493,-0.11914 0.23437,-0.0586 0.17774,-0.17578 0.17578,-0.17578 0.17578,-0.23633 0.11914,-0.23437 0.0586,-0.23633 v -0.23437 -2 -0.29493 l -0.0586,-0.23437 -0.11914,-0.23633 -0.17578,-0.17578 -0.17578,-0.23633 -0.17774,-0.11719 -0.23437,-0.11718 -0.29493,-0.0586 h -0.23437 -8.4121101 -0.4707 l -0.41211,0.11723 -0.41211,0.17578 -0.35156,0.23633 -0.29493,0.35351 -0.23437,0.35157 -0.17774,0.35351 -0.11718,0.41211 -0.0586,0.47071 v 12.4121 l 0.0586,0.41016 0.11718,0.41211 0.17774,0.41211 0.23437,0.35352 0.29493,0.29296 0.35156,0.23633 0.41211,0.17578 0.41211,0.11719 0.4707,0.0586 H 990.86022 l 0.4121,-0.0586 0.4121,-0.11719 0.4121,-0.17578 0.3516,-0.23633 0.2949,-0.29296 0.2363,-0.35352 0.1758,-0.41211 0.1172,-0.41211 0.059,-0.41016 v -12.4121 l -0.059,-0.47071 -0.1172,-0.41211 -0.1758,-0.35351 -0.2363,-0.35157 -0.2949,-0.35351 -0.3516,-0.23633 -0.4121,-0.17578 -0.4121,-0.11719 h -0.4121 -8.4707 -0.293 l -0.2363,0.0586 -0.293,0.17578 -0.2363,0.17773 -0.1758,0.23438 -0.1172,0.23632 -0.1191,0.29297 v 0.29493 2 0.23437 l 0.061,0.23633 0.1172,0.23437 0.1758,0.23633 0.1758,0.17578 0.2363,0.17578 0.2344,0.0586 0.2363,0.11914 h 0.2344 4.4707 v 7.4707 h -29.7637 v -7.4707 h 4.4707 l 0.293,-0.0586 0.2949,-0.0605 0.2344,-0.11719 0.2363,-0.17578 0.1758,-0.23633 0.1172,-0.29297 0.1191,-0.23633 v -0.29296 -2 -0.29493 l -0.1191,-0.29297 -0.1172,-0.23632 -0.1758,-0.23438 -0.2363,-0.17773 -0.2344,-0.17578 -0.2949,-0.0586 h -0.293 -8.4707 -0.4121 l -0.4121,0.11719 -0.4121,0.17578 -0.3516,0.23633 -0.2949,0.35351 -0.2344,0.35157 -0.1777,0.35351 -0.1172,0.41211 -0.059,0.47071 v 7.4121 h -46.6465 v -54.58984 h 12.4102 l 0.4121,-0.0586 0.4707,-0.11719 0.3535,-0.17578 0.3535,-0.23633 0.293,-0.29297 0.2949,-0.35351 0.1758,-0.41211 0.1172,-0.41211 v -0.47071 -15.88086 -0.29492 l -0.1172,-0.23632 -0.1172,-0.29297 -0.1777,-0.23633 -0.2344,-0.17578 -0.2344,-0.11719 -0.2949,-0.11719 h -0.2949 -4.4707 -0.293 l -0.2949,0.11719 -0.2344,0.11719 -0.2363,0.17578 -0.1758,0.23633 -0.1172,0.29297 -0.1191,0.23632 v 0.29492 3.46876 l -7.4688,7.4707 v -51.52929 -0.29297 l -0.1191,-0.29492 -0.1172,-0.23437 -0.1758,-0.23633 -2.0586,-2.0586 2.0586,-2 0.1758,-0.23437 0.1172,-0.29492 0.1191,-0.23438 v -0.29495 -64.94142 h 9.9395 v 9.41212 0.29492 l 0.061,0.23438 0.1172,0.23438 0.1758,0.17773 0.1758,0.23437 0.2363,0.11914 0.2344,0.11719 0.2363,0.0586 h 0.2344 6.9414 0.2949 l 0.2344,-0.0586 0.2363,-0.11719 0.2344,-0.11914 0.1777,-0.23437 0.1172,-0.17773 0.1172,-0.23438 0.059,-0.23438 0.059,-0.29492 v -13.41212 l -0.059,-0.41211 -0.1172,-0.4121 -0.1758,-0.41016 -0.2363,-0.35352 -0.293,-0.29492 -0.3535,-0.23437 -0.4121,-0.23633 -0.4121,-0.0586 -0.4707,-0.0586 z m 24.82422,7.4707 h 71.470695 v 8.41212 0.29492 l 0.11719,0.29297 0.11719,0.23633 0.17578,0.23438 0.23633,0.17578 0.23437,0.17773 0.29493,0.0586 h 0.29297 4.4707 0.29492 l 0.29492,-0.0586 0.23438,-0.17773 0.23632,-0.17578 0.17579,-0.23438 0.11718,-0.23633 0.11719,-0.29297 v -0.29492 -8.41212 H 493.27232 V 588.86236 H 176.3895 v -8.4121 -0.29493 l -0.11719,-0.29297 -0.11718,-0.23632 -0.17579,-0.23438 -0.23632,-0.17773 -0.23438,-0.17578 -0.29492,-0.0586 h -0.29492 -4.4707 -0.29297 l -0.29493,0.0586 -0.23437,0.17578 -0.23633,0.17773 -0.17578,0.23438 -0.11719,0.23632 -0.11719,0.29297 v 0.29493 8.4121 H 97.508645 Z m 403.234375,0 h 316.8828 v 8.41212 l 0.059,0.29492 0.059,0.29297 0.1172,0.23633 0.2363,0.23438 0.1758,0.17578 0.2949,0.17773 0.2344,0.0586 h 0.2949 4.4707 0.293 l 0.2949,-0.0586 0.2344,-0.17773 0.2363,-0.17578 0.1758,-0.23438 0.1777,-0.23633 0.059,-0.29297 0.059,-0.29492 v -8.41212 h 71.4707 v 183.70703 h -71.4707 v -8.4121 l -0.059,-0.29493 -0.059,-0.29297 -0.1777,-0.23632 -0.1758,-0.23438 -0.2363,-0.17773 -0.2344,-0.17578 -0.2949,-0.0586 h -0.293 -4.4707 -0.2949 l -0.2344,0.0586 -0.2949,0.17578 -0.1758,0.17773 -0.2363,0.23438 -0.1172,0.23632 -0.059,0.29297 -0.059,0.29493 v 8.4121 h -316.8828 z"
     style="fill:#212830;fill-opacity:1;stroke:#212830;stroke-width:0.0588235px;stroke-linecap:round;stroke-linejoin:round;stroke-miterlimit:4;stroke-dasharray:none;stroke-opacity:1"
     id="path1073" />
</svg>
