<?xml version="1.0" encoding="UTF-8" standalone="no"?>
<svg
   xmlns:dc="http://purl.org/dc/elements/1.1/"
   xmlns:cc="http://creativecommons.org/ns#"
   xmlns:rdf="http://www.w3.org/1999/02/22-rdf-syntax-ns#"
   xmlns:svg="http://www.w3.org/2000/svg"
   xmlns="http://www.w3.org/2000/svg"
   id="svg767"
   height="127mm"
   width="127mm"
   version="1.0">
  <metadata
     id="metadata771">
    <rdf:RDF>
      <cc:Work
         rdf:about="">
        <dc:format>image/svg+xml</dc:format>
        <dc:type
           rdf:resource="http://purl.org/dc/dcmitype/StillImage" />
        <dc:title></dc:title>
      </cc:Work>
    </rdf:RDF>
  </metadata>
  <defs
     id="defs3">
    <pattern
       y="0"
       x="0"
       height="6"
       width="6"
       patternUnits="userSpaceOnUse"
       id="WMFhbasepattern" />
  </defs>
  <path
     id="path765"
     d="m 18.558701,210.73527 -2.17647,-1.11764 -2.05882,-1.29412 -1.94118,-1.41176 -1.88235,-1.58824 -1.7058801,-1.70588 -1.58824,-1.88236 -1.47059,-1.94117 -1.29411,-2.05883 -1.11765,-2.17647 -1,-2.23529 -0.76471,-2.29412 -0.58823002,-2.35294 -0.47059,-2.41176 -0.23529,-2.41177 -0.0588,-2.47059 0.11765,-2.41176 0.29412,-2.41177 0.52941002,-2.41176 0.64706,-2.35294 0.82353,-2.29412 1.05882,-2.17647 1.17647,-2.11765 1.35294,-2.05882 1.47059,-1.94118 1.64706,-1.82353 1.7647101,-1.64706 1.88235,-1.52941 v -25.58823 l 0.0588,-0.70588 0.17647,-0.64706 0.29412,-0.58824 0.41177,-0.52941 0.47058,-0.47059 0.52942,-0.41176 0.58823,-0.29412 0.64706,-0.17647 0.70588,-0.0588 H 473.38222 l 1.1177,0.11765 1.0588,0.29412 1.0588,0.47059 0.8824,0.64706 0.8235,0.7647 0.5882,0.94118 0.4706,1 0.2941,1.05882 0.1177,1.11765 v 2.82353 l -0.059,1 -0.2353,0.94118 -0.4118,0.94117 -0.5294,0.82353 -0.6471,0.76471 -6.9411,6.94117 -0.5295,0.47059 -0.5882,0.35294 -0.647,0.17647 -0.7059,0.11765 h -0.7059 l -0.64691,-0.1765 -0.647,-0.23529 -0.5883,-0.41177 -0.4706,-0.47059 -0.4117,-0.52941 -0.353,-0.64706 -0.1764,-0.64706 -0.059,-0.70588 v -2.52941 h -44.7647 v 44.76471 h 44.7647 v -2.58824 l 0.059,-0.64706 0.1764,-0.70588 0.353,-0.58824 0.4117,-0.58823 0.4706,-0.47059 0.5883,-0.35294 0.647,-0.29412 0.6471,-0.11765 0.7059,-0.0588 0.7059,0.11765 0.647,0.23529 0.5882,0.35294 0.5295,0.41177 6.9411,6.94117 0.6471,0.76471 0.5294,0.88235 0.4118,0.88236 0.2353,1 0.059,1 v 108.99999 l -0.059,0.70588 -0.1765,0.64706 -0.3529,0.64706 -0.4118,0.58823 -0.5294,0.47059 -0.5883,0.35294 -0.647,0.29412 -0.7059,0.11765 h -0.7059 l -40.5882,-3.52942 v 29.11765 l 5.2941,5.29412 0.4118,0.52941 0.3529,0.58824 0.2353,0.58823 0.1176,0.64706 v 0.70588 l -0.1176,0.64706 -0.2353,0.64706 -0.3529,0.58823 -0.4118,0.47059 -9.5882,9.58824 -0.7059,0.58823 -0.7647,0.47059 -0.8824,0.29412 -0.8823,0.11765 h -0.8824 l -0.8823,-0.2353 -0.8236,-0.29412 -0.7647,-0.52941 -0.647,-0.58823 -0.5294,-0.76471 -0.4118,-0.7647 -0.2353,-0.88238 -0.0588,-0.88235 v -55.76471 l 0.059,-0.70588 0.1765,-0.64706 0.2941,-0.64706 0.4706,-0.52941 0.4706,-0.52941 0.647,-0.35294 0.6471,-0.23529 0.7059,-0.17648 h 0.7058 l 40.5881,3.58824 v -90.05881 h -56.2941 l -1.1177,-0.11765 -1.0588,-0.29412 -1,-0.47059 -0.9412,-0.58823 -0.7647,-0.82353 -0.647,-0.88235 -0.4706,-1.05883 -0.2942,-1.05882 -0.1176,-1.11765 V 139.5588 H 25.794001 v 21.58824 l -0.0588,0.70588 -0.23529,0.70588 -0.29412,0.64706 -0.41176,0.52941 -0.52941,0.47059 -0.58824,0.41177 -1.70588,0.94117 -1.58824,1.11765 -1.47058,1.2353 -1.35295,1.41176 -1.17647,1.52941 -1,1.64706 -0.82353,1.76471 -0.70588,1.82353 -0.47059,1.88235 -0.29411,1.88235 -0.11765,1.94118 0.11765,1.94117 0.29411,1.88236 0.47059,1.88235 0.70588,1.82353 0.82353,1.76471 1,1.64705 1.17647,1.52942 1.35295,1.41176 1.47058,1.2353 1.58824,1.11764 1.70588,0.94118 0.58824,0.41176 0.52941,0.47059 0.41176,0.52941 0.29412,0.64706 0.23529,0.70588 0.0588,0.70589 v 3.70588 l -0.11765,0.94118 -0.23529,0.88235 -0.41177,0.82353 -0.52941,0.7647 -0.70588,0.58824 -0.76471,0.52941 -0.88235,0.35294 -0.88235,0.17647 h -0.94118 l -0.88235,-0.11764 z"
     style="fill:#212830;fill-opacity:1;stroke:#212830;stroke-width:0.0588235px;stroke-linecap:round;stroke-linejoin:round;stroke-miterlimit:4;stroke-dasharray:none;stroke-opacity:1" />
</svg>
