<?xml version="1.0" encoding="UTF-8" standalone="no"?>
<svg
   xmlns:dc="http://purl.org/dc/elements/1.1/"
   xmlns:cc="http://creativecommons.org/ns#"
   xmlns:rdf="http://www.w3.org/1999/02/22-rdf-syntax-ns#"
   xmlns:svg="http://www.w3.org/2000/svg"
   xmlns="http://www.w3.org/2000/svg"
   id="svg975"
   height="149mm"
   width="149mm"
   version="1.0">
  <metadata
     id="metadata979">
    <rdf:RDF>
      <cc:Work
         rdf:about="">
        <dc:format>image/svg+xml</dc:format>
        <dc:type
           rdf:resource="http://purl.org/dc/dcmitype/StillImage" />
        <dc:title></dc:title>
      </cc:Work>
    </rdf:RDF>
  </metadata>
  <defs
     id="defs3" />
  <path
     d="m 199.898,0.69197903 -0.5879,0.05859 -0.5898,0.177735 -0.5293,0.23437497 -0.4707,0.353515 -0.4102,0.4121101 -0.3535,0.470703 -0.2363,0.529297 -0.1758,0.58789 -0.059,0.587891 V 22.4576 l 0.059,0.351563 0.059,0.353516 0.1758,0.353515 0.1777,0.292969 0.293,0.236328 0.2363,0.234375 0.3535,0.119141 0.3516,0.117187 h 0.3535 9.5293 0.3535 l 0.3516,-0.117187 0.2949,-0.119141 0.2949,-0.234375 0.2344,-0.236328 0.2363,-0.292969 0.1172,-0.353515 0.1172,-0.353516 V 22.457603 9.5747911 h 13.6465 v 88.9999999 0.41211 l 0.1191,0.35351 0.2344,0.35157 0.2363,0.353509 2.8223,2.76368 -2.8223,2.82421 -0.2363,0.23633 -0.1172,0.29297 -0.1172,0.29492 -0.1191,0.29297 v 0.35352 70.64648 L 213.4863,167.5162 v -4.76563 -0.35156 l -0.1172,-0.35352 -0.1191,-0.29492 -0.2344,-0.29297 -0.2363,-0.29492 -0.293,-0.17578 -0.3535,-0.17773 -0.293,-0.0586 -0.3535,-0.0586 h -6.1758 l -0.3535,0.0586 -0.4121,0.11914 -0.3535,0.17578 -0.293,0.23438 -0.2363,0.35351 -0.2344,0.35352 -0.1172,0.35351 v 0.41016 21.76563 l 0.059,0.58789 0.1172,0.58789 0.293,0.52929 0.2949,0.5293 0.4121,0.41211 0.5293,0.29492 0.5293,0.29297 0.5879,0.11914 0.5879,0.0586 h 17 v 76.29296 h -64 v -11.58789 -0.58789 l -0.1758,-0.58789 -0.2344,-0.52929 -0.3535,-0.47071 -0.4121,-0.41211 -0.4707,-0.35351 -0.5879,-0.23438 -0.5293,-0.17773 -0.5879,-0.0586 h -11.5898 l -0.4102,0.0586 -0.3535,0.11914 -0.3535,0.17578 -0.3516,0.23438 -0.2363,0.29492 -0.1758,0.35351 -0.1191,0.41211 -0.059,0.41016 v 2.70703 l 0.059,0.41211 0.1191,0.35156 0.1758,0.35352 0.2363,0.35351 0.3516,0.23438 0.3535,0.17773 0.3535,0.11719 0.4102,0.0586 h 6.1191 v 10.17578 h -40.8242 v -10.17579 h 6.1172 l 0.3535,-0.0586 0.3535,-0.0586 0.293,-0.17774 0.2949,-0.17578 0.293,-0.29492 0.1777,-0.29297 0.1758,-0.29492 0.059,-0.35157 0.059,-0.35351 v -2.70703 l -0.059,-0.35156 -0.059,-0.35352 -0.1758,-0.35352 -0.1777,-0.29296 -0.293,-0.23633 -0.2949,-0.17578 -0.293,-0.17579 -0.3535,-0.0605 -0.3535,-0.0586 h -11.5879 l -0.5879,0.0586 -0.5293,0.17773 -0.5293,0.23438 -0.5293,0.35351 -0.4121,0.41211 -0.3535,0.47071 -0.2344,0.52929 -0.1777,0.58789 v 0.58789 306.41211 0.58789 l 0.1777,0.58789 0.2344,0.5293 0.3535,0.4707 0.4121,0.41211 0.5293,0.35352 0.5293,0.23437 0.5293,0.17774 0.5879,0.0586 h 353.8828 l 0.5879,-0.0586 0.5879,-0.17774 0.5293,-0.23437 0.4707,-0.35352 0.4121,-0.41211 0.3535,-0.4707 0.2344,-0.5293 0.1777,-0.58789 0.059,-0.58789 V 252.63338 l -0.059,-0.58789 -0.1777,-0.58789 -0.2344,-0.52929 -0.3535,-0.47071 -0.4121,-0.41211 -0.4707,-0.35351 -0.5293,-0.23438 -0.5879,-0.17773 -0.5879,-0.0586 h -11.5879 l -0.3535,0.0586 -0.3535,0.0605 -0.293,0.17579 -0.2949,0.17578 -0.2344,0.23633 -0.2363,0.29296 -0.1758,0.35352 -0.059,0.35352 -0.059,0.35156 v 2.70703 l 0.059,0.41211 0.1172,0.35156 0.1758,0.35352 0.2949,0.35351 0.293,0.23438 0.3535,0.17773 0.3535,0.11719 0.4121,0.0586 h 6.1172 v 10.17578 h -40.8242 v -10.17575 h 6.1191 l 0.4102,-0.0586 0.4121,-0.11719 0.3535,-0.17773 0.293,-0.23438 0.2363,-0.35351 0.1758,-0.35352 0.1191,-0.35156 0.059,-0.41211 v -2.70703 l -0.059,-0.35156 -0.061,-0.35352 -0.1758,-0.35352 -0.1758,-0.29296 -0.2363,-0.23633 -0.293,-0.17578 -0.3535,-0.17579 -0.3535,-0.0605 -0.3516,-0.0586 h -11.5312 l -0.5879,0.0586 -0.5879,0.17773 -0.5293,0.23438 -0.5293,0.35351 -0.4121,0.41211 -0.293,0.47071 -0.2949,0.52929 -0.1172,0.58789 -0.059,0.58789 v 11.58789 h -64 v -76.29296 h 17.0586 l 0.5879,-0.0586 0.5293,-0.11914 0.5293,-0.29297 0.5293,-0.29492 0.4121,-0.41211 0.3535,-0.5293 0.2344,-0.52929 0.1758,-0.58789 v -0.58789 -21.76563 -0.35156 l -0.1172,-0.35352 -0.1172,-0.29492 -0.2344,-0.29297 -0.2363,-0.29492 -0.2949,-0.17578 -0.293,-0.17773 -0.3535,-0.0586 -0.3535,-0.0586 h -6.1172 l -0.3516,0.0586 -0.3535,0.0586 -0.3535,0.17773 -0.293,0.17578 -0.2363,0.29492 -0.1758,0.29297 -0.1777,0.29492 -0.1172,0.35352 v 0.35156 4.76563 l -10.2344,10.23437 v -70.64648 -0.35352 l -0.059,-0.29297 -0.1191,-0.29492 -0.1758,-0.29297 -0.2363,-0.23633 -2.7637,-2.82421 2.7637,-2.76368 0.2949,-0.353509 0.1758,-0.35157 0.1191,-0.35351 V 98.574791 9.5747911 h 13.6465 v 12.8828119 0.41211 l 0.1172,0.410156 0.2363,0.353516 0.2344,0.294922 0.2949,0.234375 0.3516,0.236328 0.4121,0.117187 h 0.3535 9.5293 0.3535 l 0.3516,-0.117187 0.3535,-0.119141 0.2949,-0.234375 0.2344,-0.236328 0.1777,-0.292969 0.1758,-0.353515 0.1172,-0.353516 V 22.457603 4.1040881 l -0.059,-0.587891 -0.1172,-0.58789 -0.2949,-0.529297 -0.293,-0.470703 -0.4707,-0.4121101 -0.4707,-0.353515 -0.5293,-0.23437497 -0.5898,-0.177735 -0.5879,-0.05859 z m 32.6465,8.88281207 h 98 V 264.22127 h -98 z M 111.4273,273.04549 H 451.6617 V 545.39901 H 111.4273 Z"
     style="fill:#212830;fill-opacity:1;stroke:#212830;stroke-width:0.0588235px;stroke-linecap:round;stroke-linejoin:round;stroke-miterlimit:4;stroke-dasharray:none;stroke-opacity:1"
     id="path971" />
</svg>
