<?xml version="1.0" encoding="UTF-8" standalone="no"?>
<svg
   xmlns:dc="http://purl.org/dc/elements/1.1/"
   xmlns:cc="http://creativecommons.org/ns#"
   xmlns:rdf="http://www.w3.org/1999/02/22-rdf-syntax-ns#"
   xmlns:svg="http://www.w3.org/2000/svg"
   xmlns="http://www.w3.org/2000/svg"
   id="svg987"
   height="166mm"
   width="166mm"
   version="1.0">
  <metadata
     id="metadata991">
    <rdf:RDF>
      <cc:Work
         rdf:about="">
        <dc:format>image/svg+xml</dc:format>
        <dc:type
           rdf:resource="http://purl.org/dc/dcmitype/StillImage" />
        <dc:title></dc:title>
      </cc:Work>
    </rdf:RDF>
  </metadata>
  <defs
     id="defs3" />
  <path
     d="m 222.20104,1.1119183 -0.4121,0.0586 -0.3535,0.11914 -0.3516,0.17578 -0.2949,0.17578 -0.2949,0.29492 -0.2344,0.29492 -0.1758,0.35157 -0.061,0.41211 -0.059,0.35351 v 12.0586007 0.23437 l 0.059,0.23633 0.1191,0.23437 0.1172,0.17774 0.1758,0.17578 0.1777,0.11719 0.2344,0.11719 0.2363,0.0605 h 0.2344 6.2344 0.2363 l 0.2344,-0.0605 0.1777,-0.11719 0.2344,-0.11719 0.1172,-0.17578 0.1777,-0.17774 0.059,-0.23437 0.059,-0.23633 0.059,-0.23437 V 6.9361383 h 8.9414 v 58.4121107 0.23438 l 0.059,0.23633 0.1172,0.23437 0.1777,0.23633 1.8223,1.82226 -1.8223,1.82422 -0.1172,0.17578 -0.1191,0.17774 -0.059,0.17578 -0.059,0.23438 v 0.23632 46.294921 l -6.7051,-6.70703 v -3.11718 l -0.059,-0.23633 -0.061,-0.23438 -0.059,-0.17578 -0.1758,-0.17773 -0.1172,-0.17578 -0.2363,-0.17579 -0.1758,-0.0605 -0.2363,-0.0586 -0.2344,-0.0586 h -4 l -0.2949,0.0586 -0.2344,0.0586 -0.2363,0.11914 -0.1758,0.17578 -0.1758,0.23438 -0.1191,0.17773 -0.1172,0.29297 v 0.23633 14.29297 l 0.059,0.4121 0.059,0.35352 0.1777,0.35352 0.2344,0.29296 0.2363,0.29493 0.3516,0.23437 0.3535,0.17774 0.3535,0.0586 0.4121,0.0586 h 11.1758 v 50 h -42 v -7.58789 -0.35351 l -0.1172,-0.41211 -0.1777,-0.35157 -0.1758,-0.29492 -0.293,-0.29492 -0.3535,-0.23437 -0.3535,-0.11719 -0.3535,-0.11914 -0.4102,-0.0586 h -7.5293 l -0.2949,0.0586 -0.2363,0.0605 -0.2344,0.11719 -0.2344,0.17578 -0.1191,0.17579 -0.1758,0.23632 -0.059,0.29492 v 0.23436 1.76562 0.29297 l 0.059,0.23633 0.1758,0.23438 0.1191,0.23632 0.2344,0.11719 0.2344,0.11719 0.2363,0.11719 h 0.2949 4 v 6.70703 h -26.7654 v -6.70703 h 4 0.2344 l 0.2363,-0.0586 0.1758,-0.11718 0.2363,-0.11719 0.1172,-0.17774 0.1758,-0.17578 0.059,-0.23632 0.06,-0.23438 0.059,-0.23438 v -1.76562 l -0.059,-0.23438 -0.06,-0.23632 -0.059,-0.17578 -0.1758,-0.23633 -0.1172,-0.11719 -0.2363,-0.17578 -0.1758,-0.0586 -0.2363,-0.0605 -0.2344,-0.0586 h -7.5879 l -0.4121,0.0586 -0.3535,0.11914 -0.3516,0.11719 -0.2949,0.23437 -0.2949,0.29492 -0.2344,0.29492 -0.1758,0.35157 -0.06,0.41211 -0.059,0.35351 v 11.17578 l 0.059,0.41211 0.06,0.35352 0.1758,0.35156 0.2344,0.29492 0.2949,0.29492 0.2949,0.23438 0.3516,0.17578 0.3535,0.0586 0.4121,0.0605 h 60.2344 v 444.29297 l 0.059,0.41211 0.061,0.35352 0.1758,0.35156 0.2344,0.35351 0.2949,0.23633 0.2949,0.23438 0.3516,0.17578 0.3535,0.11914 h 0.4121 183 0.3516 l 0.3535,-0.11914 0.3535,-0.17578 0.3535,-0.23438 0.293,-0.23633 0.1777,-0.35351 0.1758,-0.35156 0.1172,-0.35352 v -0.41211 -444.29297 h 60.2949 l 0.3516,-0.0605 0.4121,-0.0586 0.3535,-0.17578 0.2949,-0.23438 0.293,-0.29492 0.1758,-0.29492 0.1777,-0.35156 0.1172,-0.35352 0.059,-0.41211 v -11.17578 l -0.059,-0.35351 -0.1172,-0.41211 -0.1777,-0.35157 -0.1758,-0.29492 -0.293,-0.29492 -0.2949,-0.23437 -0.3535,-0.11719 -0.4121,-0.11914 -0.3516,-0.0586 h -7.5879 l -0.2949,0.0586 -0.2363,0.0605 -0.2344,0.11719 -0.1758,0.17578 -0.1777,0.17579 -0.1172,0.23632 -0.1172,0.29492 v 0.23438 1.76562 0.23438 l 0.059,0.23438 0.1172,0.23632 0.1172,0.17578 0.1777,0.17774 0.1758,0.11719 0.2363,0.11718 0.2344,0.0586 h 0.2363 4 v 6.70703 h -26.7669 v -6.70703 h 4 0.2344 l 0.2949,-0.11719 0.2363,-0.11719 0.1758,-0.11719 0.1758,-0.23632 0.1172,-0.23438 0.061,-0.23633 0.059,-0.29297 v -1.76562 l -0.059,-0.23438 -0.061,-0.23632 -0.059,-0.17578 -0.1754,-0.23633 -0.1172,-0.11719 -0.2363,-0.17578 -0.1758,-0.0586 -0.2363,-0.0605 -0.2344,-0.0586 h -7.5879 l -0.4121,0.0586 -0.3535,0.11914 -0.3516,0.11719 -0.2949,0.23437 -0.2949,0.29492 -0.2344,0.29492 -0.1758,0.35157 -0.061,0.41211 -0.059,0.35351 v 7.58789 h -41.9414 v -50 h 11.1777 l 0.3535,-0.0586 0.4102,-0.0586 0.3535,-0.17774 0.2949,-0.23437 0.293,-0.29493 0.1777,-0.29296 0.1758,-0.35352 0.1172,-0.35352 0.059,-0.4121 v -14.29297 l -0.059,-0.23633 -0.059,-0.23438 -0.059,-0.17578 -0.1758,-0.17773 -0.1777,-0.17578 -0.1758,-0.17579 -0.1758,-0.0605 -0.2363,-0.0586 -0.2344,-0.0586 h -4 l -0.2363,0.0586 -0.2344,0.0586 -0.2363,0.0605 -0.1758,0.17579 -0.1777,0.17578 -0.1172,0.17773 -0.1172,0.17578 -0.059,0.23438 v 0.23633 3.11718 l -6.707,6.70703 v -46.294921 -0.23632 l -0.059,-0.23438 -0.1172,-0.17578 -0.059,-0.17774 -0.1758,-0.17578 -1.8242,-1.82422 1.8242,-1.82226 0.1758,-0.23633 0.1172,-0.23437 0.1172,-0.23633 V 65.348269 6.9361583 h 8.9414 v 8.4707107 0.23437 l 0.059,0.23633 0.1191,0.23437 0.1172,0.17774 0.1758,0.17578 0.1777,0.11719 0.2344,0.11719 0.2363,0.0605 h 0.1758 6.2949 0.2344 l 0.1758,-0.0605 0.2363,-0.11719 0.1758,-0.11719 0.1777,-0.17578 0.1172,-0.17774 0.1172,-0.23437 0.059,-0.23633 v -0.23437 -12.0586007 -0.35351 l -0.1172,-0.41211 -0.1758,-0.35157 -0.1777,-0.29492 -0.293,-0.29492 -0.3535,-0.17578 -0.3535,-0.17578 -0.3535,-0.11914 -0.3516,-0.0586 z m 21.4121,5.82422 h 140.1172 V 173.93614 H 243.61314 Z M 226.67174,179.76036 h 174.0586 v 439.82227 h -174.0586 z"
     style="fill:#212830;fill-opacity:1;stroke:#212830;stroke-width:0.0588235px;stroke-linecap:round;stroke-linejoin:round;stroke-miterlimit:4;stroke-dasharray:none;stroke-opacity:1"
     id="path985" />
</svg>
