<?xml version="1.0" encoding="UTF-8" standalone="no"?>
<svg
   xmlns:dc="http://purl.org/dc/elements/1.1/"
   xmlns:cc="http://creativecommons.org/ns#"
   xmlns:rdf="http://www.w3.org/1999/02/22-rdf-syntax-ns#"
   xmlns:svg="http://www.w3.org/2000/svg"
   xmlns="http://www.w3.org/2000/svg"
   id="svg1039"
   height="193mm"
   width="193mm"
   version="1.0">
  <metadata
     id="metadata1043">
    <rdf:RDF>
      <cc:Work
         rdf:about="">
        <dc:format>image/svg+xml</dc:format>
        <dc:type
           rdf:resource="http://purl.org/dc/dcmitype/StillImage" />
        <dc:title></dc:title>
      </cc:Work>
    </rdf:RDF>
  </metadata>
  <defs
     id="defs3" />
  <path
     d="m 151.31232,52.1951 -0.9414,0.05859 -0.8809,0.234375 -0.8242,0.41211 -0.7051,0.529296 -0.6484,0.589844 -0.5293,0.763672 -0.4121,0.824219 -0.2344,0.880859 -0.059,0.882813 v 28.177735 l 0.059,0.58789 0.1758,0.587891 0.2949,0.529297 0.4121,0.470703 0.4707,0.412109 0.5293,0.292969 0.5879,0.177735 0.5879,0.05859 h 14.5879 l 0.5293,-0.05859 0.5293,-0.177735 0.5293,-0.175781 0.4121,-0.353516 0.4121,-0.351562 0.2949,-0.470703 0.2344,-0.470703 0.1172,-0.529297 0.059,-0.529297 V 65.724398 h 20.8242 V 201.95878 l 0.059,0.4707 0.1172,0.4707 0.1777,0.47071 0.2344,0.41211 0.3535,0.35351 4.2949,4.29297 -4.2949,4.29492 -0.3535,0.41211 -0.2344,0.41211 -0.1777,0.4707 -0.1172,0.46876 -0.059,0.4707 v 108.11914 l -15.5879,-15.64844 v -7.29297 l -0.059,-0.58789 -0.1777,-0.58984 -0.293,-0.58789 -0.4121,-0.47071 -0.4707,-0.35156 -0.5293,-0.29492 -0.5879,-0.17578 -0.6465,-0.0586 h -9.3535 l -0.5293,0.0586 -0.5293,0.11719 -0.4707,0.23437 -0.4707,0.29492 -0.3535,0.41211 -0.3535,0.41211 -0.2344,0.5293 -0.1172,0.5293 -0.059,0.52929 v 33.35157 l 0.059,0.88281 0.2344,0.88281 0.4121,0.82422 0.5293,0.76367 0.6465,0.58789 0.707,0.5293 0.8223,0.41211 0.8828,0.23633 0.9414,0.0586 h 26 V 455.3709 H 89.841601 v -17.70508 l -0.0586,-0.94141 -0.23438,-0.88281 -0.41211,-0.82227 -0.4707,-0.70703 -0.64648,-0.64648 -0.76563,-0.5293 -0.82227,-0.41211 -0.88281,-0.23632 -0.8828,-0.0586 h -17.70508 l -0.5293,0.0586 -0.53124,0.11914 -0.5293,0.23437 -0.41016,0.35352 -0.41211,0.35351 -0.29492,0.4707 -0.23437,0.46876 -0.11914,0.53124 -0.0586,0.5293 v 4.17578 l 0.0586,0.58789 0.17773,0.58789 0.29297,0.5879 0.35351,0.4707 0.47071,0.35351 0.58789,0.29493 0.58789,0.17578 0.58984,0.0586 h 9.35156 v 15.64649 h -62.4707 v -15.64649 h 9.41211 l 0.5293,-0.0586 0.52929,-0.11719 0.47071,-0.23633 0.4707,-0.29297 0.35352,-0.41211 0.35351,-0.41211 0.17578,-0.52929 0.17578,-0.5293 0.0586,-0.5293 v -4.17578 l -0.0586,-0.58984 -0.17578,-0.58789 -0.29492,-0.5293 -0.41016,-0.4707 -0.4707,-0.41211 -0.5293,-0.29297 -0.58984,-0.17773 -0.58789,-0.0586 H 5.5486304 l -0.9414,0.0586 -0.88282,0.23632 -0.82421,0.41211 -0.70508,0.5293 -0.64649,0.64648 -0.5292901,0.70703 -0.35351997,0.82227 -0.23438,0.88281 -0.11914,0.94141 v 234.41211 l 0.11914,0.88086 0.23438,0.88281 0.35351997,0.82422 0.5292901,0.70508 0.64649,0.64843 0.70508,0.5293 0.82421,0.41016 0.88282,0.23633 0.9414,0.0586 H 723.90022 l 0.9414,-0.0586 0.8242,-0.23633 0.8242,-0.41016 0.7637,-0.5293 0.6465,-0.64843 0.5312,-0.70508 0.3516,-0.82422 0.2363,-0.88281 0.1172,-0.88086 V 437.66581 l -0.1172,-0.94141 -0.2363,-0.88281 -0.3516,-0.82227 -0.5312,-0.70703 -0.6465,-0.64648 -0.7637,-0.5293 -0.8242,-0.41211 -0.8242,-0.23632 -0.9414,-0.0586 h -17.7051 l -0.5879,0.0586 -0.5879,0.17773 -0.5293,0.29297 -0.4707,0.41211 -0.4121,0.4707 -0.2949,0.5293 -0.1758,0.58789 -0.059,0.58984 v 4.17578 l 0.059,0.5293 0.1172,0.5293 0.2363,0.52929 0.3516,0.41211 0.3535,0.41211 0.4707,0.29297 0.4707,0.23633 0.5293,0.11719 0.5293,0.0586 h 9.4121 v 15.64649 h -62.4707 V 442.8416 h 9.3535 l 0.5293,-0.0586 0.5293,-0.11719 0.4707,-0.23633 0.4707,-0.29297 0.4102,-0.41211 0.2949,-0.41211 0.2363,-0.52929 0.1172,-0.5293 0.059,-0.5293 v -4.17578 l -0.059,-0.58984 -0.1777,-0.58789 -0.293,-0.5293 -0.4121,-0.4707 -0.4707,-0.41211 -0.5293,-0.29297 -0.5879,-0.17773 -0.5879,-0.0586 h -17.707 l -0.8828,0.0586 -0.8809,0.23632 -0.8242,0.41211 -0.7637,0.5293 -0.6484,0.64648 -0.5293,0.70703 -0.3535,0.82227 -0.2344,0.88281 -0.059,0.94141 v 17.70508 h -97.8828 V 338.66581 h 26 l 0.9414,-0.0586 0.8828,-0.23633 0.8223,-0.41211 0.707,-0.5293 0.6465,-0.58789 0.5293,-0.76367 0.3535,-0.82422 0.2344,-0.88281 0.1191,-0.88281 V 300.1365 l -0.061,-0.52929 -0.1172,-0.5293 -0.2344,-0.5293 -0.3535,-0.41211 -0.3535,-0.41211 -0.4707,-0.29492 -0.4707,-0.23437 -0.5293,-0.11719 -0.5293,-0.0586 h -9.4102 l -0.5898,0.0586 -0.5879,0.17578 -0.5293,0.29492 -0.4707,0.35156 -0.4121,0.47071 -0.293,0.58789 -0.1777,0.58984 -0.059,0.58789 v 7.29297 l -15.5879,15.64844 V 214.95878 l -0.059,-0.58789 -0.1758,-0.58789 -0.2949,-0.58789 -0.4121,-0.47071 -4.293,-4.29492 4.293,-4.29297 0.3535,-0.35351 0.2344,-0.41211 0.1777,-0.47071 0.1172,-0.4707 0.059,-0.4707 V 65.724398 h 20.8242 v 19.824219 l 0.059,0.58789 0.1758,0.587891 0.2949,0.529297 0.3535,0.470703 0.4688,0.412109 0.5898,0.292969 0.5879,0.177735 0.5879,0.05859 h 14.5879 l 0.5293,-0.05859 0.5293,-0.177735 0.4707,-0.175781 0.4707,-0.353516 0.3535,-0.351562 0.3535,-0.470703 0.2344,-0.470703 0.1172,-0.529297 0.059,-0.529297 V 57.370882 l -0.1172,-0.882813 -0.2344,-0.880859 -0.353,-0.824219 -0.5293,-0.763672 -0.6465,-0.589844 -0.707,-0.529296 -0.8223,-0.41211 -0.8828,-0.234375 -0.9414,-0.05859 z m 49.9414,13.529298 h 326.9414 V 455.37089 H 201.25372 Z M 13.841601,468.90018 H 715.60722 V 663.7244 H 13.841601 Z"
     style="fill:#212830;fill-opacity:1;stroke:#212830;stroke-width:0.0588235px;stroke-linecap:round;stroke-linejoin:round;stroke-miterlimit:4;stroke-dasharray:none;stroke-opacity:1"
     id="path1035" />
</svg>
