<?xml version="1.0" encoding="UTF-8" standalone="no"?>
<svg
   xmlns:dc="http://purl.org/dc/elements/1.1/"
   xmlns:cc="http://creativecommons.org/ns#"
   xmlns:rdf="http://www.w3.org/1999/02/22-rdf-syntax-ns#"
   xmlns:svg="http://www.w3.org/2000/svg"
   xmlns="http://www.w3.org/2000/svg"
   id="svg1109"
   height="92mm"
   width="92mm"
   version="1.0">
  <metadata
     id="metadata1113">
    <rdf:RDF>
      <cc:Work
         rdf:about="">
        <dc:format>image/svg+xml</dc:format>
        <dc:type
           rdf:resource="http://purl.org/dc/dcmitype/StillImage" />
        <dc:title></dc:title>
      </cc:Work>
    </rdf:RDF>
  </metadata>
  <defs
     id="defs3" />
  <path
     id="path1107"
     d="m 150.29934,223.50532 -12.4117,-12.41177 v -5.7647 l -0.059,-0.47059 -0.1176,-0.41177 -0.1765,-0.35294 -0.2353,-0.35294 -0.2941,-0.35294 -0.3529,-0.23529 -0.4118,-0.17648 -0.4118,-0.11764 h -0.4117 -7.4706 -0.4118 l -0.4118,0.11764 -0.4117,0.17648 -0.353,0.23529 -0.2941,0.35294 -0.2941,0.35294 -0.1765,0.35294 -0.1176,0.41177 v 0.47059 26.47058 l 0.059,0.70589 0.1765,0.70588 0.2941,0.64706 0.4118,0.58823 0.5294,0.52941 0.5882,0.41177 0.6471,0.29412 0.7059,0.17647 0.7058,0.11764 h 20.7059 v 92.70589 H 72.534749 v -14.05883 l -0.0588,-0.7647 -0.2353,-0.70588 -0.29411,-0.64706 -0.41177,-0.58824 -0.47059,-0.47059 -0.64706,-0.41176 -0.64705,-0.35294 -0.64706,-0.17647 -0.76471,-0.0588 h -14.05882 l -0.41177,0.0588 -0.41176,0.11764 -0.41177,0.17647 -0.35294,0.2353 -0.29412,0.29412 -0.23529,0.35294 -0.17647,0.41176 -0.11765,0.41177 -0.0588,0.41176 v 3.35294 l 0.0588,0.47059 0.11765,0.47059 0.23529,0.41176 0.29412,0.41177 0.41177,0.29412 0.41176,0.23529 0.47059,0.11765 0.47059,0.0588 h 7.47059 v 12.41177 h -49.64706 v -12.41177 h 7.47059 l 0.41164,-0.0588 0.41176,-0.11765 0.41177,-0.17647 0.35294,-0.23529 0.29412,-0.29412 0.23529,-0.35294 0.17647,-0.41177 0.11765,-0.41176 0.0588,-0.41177 v -3.35294 l -0.0588,-0.41176 -0.11765,-0.41177 -0.17647,-0.41176 -0.23529,-0.35294 -0.29412,-0.29412 -0.35294,-0.2353 -0.41177,-0.17647 -0.41176,-0.11764 -0.41176,-0.0588 H 5.4758286 l -0.70588,0.0588 -0.70589,0.17647 -0.64706,0.35294 -0.58823,0.41176 -0.47059,0.47059 -0.41176,0.58824 -0.35294,0.64706 -0.17648,0.70588 -0.0588,0.7647 v 20.64706 l 0.0588,0.76471 0.17648,0.64706 0.35294,0.70588 0.41176,0.58823 0.47059,0.47059 0.58823,0.41177 0.64706,0.29412 0.70589,0.23529 0.70588,0.0588 H 313.24054 l 0.4706,-0.0588 0.4706,-0.11765 0.4117,-0.23529 0.353,-0.2353 0.2941,-0.35294 0.2353,-0.41176 0.1765,-0.41177 0.059,-0.41176 v -0.47059 l -2.2941,-26.29412 h 18.8823 l 3.4118,3.41177 0.2941,0.29412 0.4118,0.23529 0.4117,0.11765 0.4118,0.0588 h 0.4118 l 0.4705,-0.0588 0.4118,-0.11765 0.353,-0.23529 0.3529,-0.29412 6.1765,-6.17647 0.3529,-0.47059 0.2941,-0.52941 0.1765,-0.52941 0.1176,-0.58824 v -0.58824 l -0.1176,-0.52941 -0.2353,-0.52941 -0.3529,-0.52941 -0.353,-0.41177 -0.4706,-0.35294 -0.5294,-0.23529 -0.5882,-0.17647 -0.5883,-0.0588 h -36 l -0.4705,0.0588 -0.4118,0.11765 -0.4118,0.23529 -0.3529,0.23529 -0.353,0.35295 -0.2352,0.41176 -0.1765,0.41176 -0.059,0.47059 v 0.41177 l 2.0588,23.82353 h -144 V 144.85826 h 158.8235 0.4118 l 0.4117,-0.11765 0.4118,-0.17647 0.3529,-0.23529 0.2942,-0.35295 0.2941,-0.35294 0.1765,-0.35294 0.1176,-0.41176 v -0.47059 -28.11765 l -0.059,-0.47059 -0.1177,-0.47058 -0.2353,-0.47059 -0.2941,-0.35294 -0.4117,-0.29412 -0.4118,-0.2353 -0.4706,-0.17647 h -0.4706 -7.4706 -0.4117 l -0.4118,0.11765 -0.4118,0.17647 -0.3529,0.2353 -0.2941,0.35294 -0.2353,0.35294 -0.1765,0.35294 -0.1176,0.41176 -0.059,0.47059 v 18.17647 h -148.882 V 45.564139 h 59.4706 l 0.4117,-0.0588 0.4706,-0.11765 0.4118,-0.23529 0.3529,-0.2353 0.2941,-0.35294 0.2353,-0.41176 0.7647,-1.29412 0.9412,-1.2353 1.0588,-1.11764 1.1765,-0.94118 1.2941,-0.82353 1.4118,-0.64706 1.4706,-0.47059 1.4706,-0.23529 1.5294,-0.11765 1.5294,0.11765 1.5294,0.23529 1.4706,0.47059 1.3529,0.64706 1.2942,0.82353 1.2353,0.94118 1.0588,1.11764 0.8823,1.2353 0.7647,1.29412 0.2353,0.41176 0.353,0.35294 0.3529,0.2353 0.4118,0.23529 0.4117,0.11765 0.4706,0.0588 h 2.4118 l 0.5882,-0.0588 0.5883,-0.17647 0.5294,-0.2353 0.4706,-0.41176 0.4117,-0.41177 0.353,-0.52941 0.1764,-0.52941 0.1177,-0.58824 0.059,-0.58823 -0.1176,-0.58824 -0.1765,-0.58823 -1,-1.76471 -1.1177,-1.70588 -1.2352,-1.58824 -1.4706,-1.41176 -1.5294,-1.29412 -1.7059,-1.11765 -1.7647,-1 -1.8824,-0.7647 -1.9412,-0.58824 -2,-0.41176 -2,-0.17647 h -2 l -2.0588,0.17647 -2,0.35294 -1.9412,0.58824 -1.8823,0.7647 -1.7647,0.94118 -1.7059,1.11764 -1.5294,1.29412 -1.4706,1.41177 -1.2941,1.58823 h -35.5883 v -16.58823 h 14.0589 0.4706 l 0.4117,-0.11765 0.353,-0.17647 0.3529,-0.23529 0.3529,-0.35295 0.2353,-0.35294 0.1765,-0.35294 0.1177,-0.41176 0.059,-0.47059 v -5.76471 l -0.1177,-0.70588 -0.1764,-0.70588 -0.2942,-0.64706 -0.4117,-0.6470604 -0.5294,-0.47059 -0.5883,-0.41176 -0.647,-0.29412 -0.7059,-0.23529 -0.7059,-0.0588 h -74.4706 l -0.7647,0.11765 -0.7647,0.23529 -0.7647,0.35294 -0.5882,0.52942 -0.5294,0.6470604 -0.4118,0.70588 -0.2353,0.7647 -0.059,0.82353 v 22.35294 l 0.059,0.47059 0.1176,0.47059 0.2353,0.41177 0.2942,0.41176 0.4117,0.29412 0.4118,0.23529 0.4706,0.11765 0.4706,0.0588 h 11.5882 l 0.4706,-0.0588 0.4117,-0.11765 0.353,-0.17647 0.3529,-0.23529 0.353,-0.29412 0.2353,-0.35294 0.1764,-0.41177 0.1177,-0.41176 v -0.41177 -15.7647 h 16.5882 v 141.352941 0.41176 l 0.1177,0.35295 0.1176,0.41176 0.2353,0.29412 0.2353,0.29412 3.4118,3.41176 -3.4118,3.41176 -0.2941,0.41177 -0.2353,0.41176 -0.1177,0.47059 -0.059,0.47059 z"
     style="fill:#212830;fill-opacity:1;stroke:#212830;stroke-width:0.0588235px;stroke-linecap:round;stroke-linejoin:round;stroke-miterlimit:4;stroke-dasharray:none;stroke-opacity:1" />
</svg>
