<?xml version="1.0" encoding="UTF-8" standalone="no"?>
<svg
   xmlns:dc="http://purl.org/dc/elements/1.1/"
   xmlns:cc="http://creativecommons.org/ns#"
   xmlns:rdf="http://www.w3.org/1999/02/22-rdf-syntax-ns#"
   xmlns:svg="http://www.w3.org/2000/svg"
   xmlns="http://www.w3.org/2000/svg"
   id="svg1003"
   height="137mm"
   width="137mm"
   version="1.0">
  <metadata
     id="metadata1007">
    <rdf:RDF>
      <cc:Work
         rdf:about="">
        <dc:format>image/svg+xml</dc:format>
        <dc:type
           rdf:resource="http://purl.org/dc/dcmitype/StillImage" />
        <dc:title></dc:title>
      </cc:Work>
    </rdf:RDF>
  </metadata>
  <defs
     id="defs3" />
  <path
     d="m 130.4267,0.22185368 -0.5293,0.05859 -0.5293,0.117187 -0.5293,0.234375 -0.4121,0.353516 -0.4121,0.35351502 -0.293,0.470704 -0.2363,0.470703 -0.1172,0.529297 -0.059,0.529296 v 263.4121033 20.0586 0.35156 l 0.1172,0.35351 0.1758,0.35352 0.2363,0.29297 0.293,0.23633 0.3535,0.17578 0.3535,0.11719 h 0.3516 8.7656 0.2949 l 0.3516,-0.11719 0.2949,-0.11719 0.2344,-0.17578 0.2363,-0.23633 0.2344,-0.29297 0.1191,-0.29492 0.059,-0.29492 0.059,-0.35156 v -11.88281 h 12.5293 v 82 l 0.059,0.35352 0.059,0.35156 0.1758,0.29492 0.2363,0.29492 2.5879,2.5879 -2.5879,2.58789 -0.1758,0.23437 -0.1777,0.23633 -0.059,0.29297 -0.1172,0.29492 v 0.29492 65.0586 l -9.4129,-9.41211 v -4.41211 -0.29492 l -0.1172,-0.35157 -0.1172,-0.29492 -0.1777,-0.23437 -0.2344,-0.23633 -0.2949,-0.17578 -0.293,-0.17579 -0.2949,-0.0605 -0.3535,-0.0586 h -5.6465 l -0.3535,0.0586 -0.3516,0.11914 -0.2949,0.17578 -0.2949,0.23438 -0.2344,0.29492 -0.1758,0.29492 -0.1191,0.35156 -0.059,0.35352 v 20.05859 l 0.059,0.58789 0.1777,0.5293 0.1758,0.4707 0.3535,0.4707 0.3516,0.35352 0.4707,0.35352 0.4707,0.23437 0.5293,0.11719 0.5898,0.0605 h 15.6465 v 70.23438 H 93.426699 v -10.64648 -0.5879 l -0.17578,-0.53124 -0.23633,-0.46876 -0.29297,-0.4707 -0.4121,-0.35351 -0.41211,-0.35352 -0.5293,-0.23437 -0.5293,-0.11914 -0.52929,-0.0586 h -10.64844 l -0.35156,0.0586 -0.35352,0.11914 -0.35352,0.17578 -0.29296,0.23632 -0.17774,0.23438 -0.17578,0.35352 -0.11719,0.35156 -0.0586,0.35351 v 2.5293 l 0.0586,0.35352 0.11719,0.35351 0.17578,0.35156 0.17774,0.23633 0.29296,0.23438 0.35352,0.17773 0.35352,0.11719 0.35156,0.0586 h 5.64844 v 9.41211 h -37.5879 v -9.41211 h 5.64649 l 0.29297,-0.0586 0.35351,-0.0586 0.29493,-0.11914 0.23437,-0.23438 0.23633,-0.23438 0.17578,-0.23632 0.17578,-0.29492 0.0586,-0.35157 0.0605,-0.29492 v -2.5293 l -0.0605,-0.35351 -0.11719,-0.35156 -0.17578,-0.35352 -0.23633,-0.23438 -0.29297,-0.23632 -0.29492,-0.17578 -0.35157,-0.11914 -0.35351,-0.0586 h -10.70703 l -0.5293,0.0586 -0.5293,0.11914 -0.4707,0.23437 -0.4707,0.35352 -0.35156,0.35351 -0.35352,0.4707 -0.23438,0.46876 -0.11914,0.53124 -0.0586,0.5879 v 15.64649 l 0.0586,0.5293 0.11914,0.52929 0.23438,0.5293 0.35352,0.41211 0.35156,0.41211 0.4707,0.29297 0.4707,0.23633 0.5293,0.17578 h 0.5293 432.470721 0.5293 l 0.5293,-0.17578 0.5312,-0.23633 0.4102,-0.29297 0.4121,-0.41211 0.2949,-0.41211 0.2344,-0.5293 0.1172,-0.52929 0.061,-0.5293 v -15.64648 l -0.061,-0.5879 -0.1172,-0.53124 -0.2344,-0.46876 -0.2949,-0.4707 -0.4121,-0.35351 -0.4102,-0.35352 -0.5312,-0.23437 -0.5293,-0.11914 -0.5293,-0.0586 h -10.6465 l -0.3535,0.0586 -0.3516,0.11914 -0.3535,0.17578 -0.2949,0.23632 -0.2344,0.23438 -0.1758,0.35352 -0.1191,0.35156 v 0.35351 2.5293 0.29492 l 0.1191,0.35157 0.1172,0.29492 0.1758,0.23632 0.2363,0.23438 0.293,0.23438 0.2949,0.11914 0.293,0.0586 0.3535,0.0586 h 5.6465 v 9.41211 h -37.6465 v -9.41211 h 5.6465 l 0.3535,-0.0586 0.2949,-0.0586 0.293,-0.11914 0.2949,-0.23438 0.2344,-0.23438 0.1777,-0.23632 0.1172,-0.29492 0.1172,-0.35157 v -0.29492 -2.5293 -0.29297 l -0.1172,-0.35351 -0.1172,-0.29492 -0.1777,-0.23438 -0.2344,-0.23633 -0.2949,-0.17578 -0.293,-0.17578 -0.2949,-0.0605 -0.3535,-0.0586 h -10.6465 l -0.5293,0.0586 -0.5293,0.11914 -0.4707,0.23437 -0.4707,0.35352 -0.4121,0.35351 -0.293,0.4707 -0.2363,0.46876 -0.1172,0.53124 -0.059,0.5879 v 10.64644 h -58.9414 v -70.23438 h 15.7051 l 0.5293,-0.0605 0.5293,-0.11719 0.4707,-0.23437 0.4707,-0.35352 0.4121,-0.35352 0.2949,-0.4707 0.2344,-0.4707 0.1172,-0.5293 0.061,-0.58789 v -20.05859 -0.29492 l -0.1191,-0.35157 -0.1172,-0.29492 -0.1758,-0.23437 -0.2363,-0.23633 -0.293,-0.17578 -0.2949,-0.17579 -0.293,-0.0605 -0.3535,-0.0586 h -5.6465 l -0.3535,0.0586 -0.3535,0.11914 -0.3535,0.17578 -0.2344,0.23438 -0.2363,0.29492 -0.1758,0.29492 -0.1172,0.35156 -0.059,0.35352 v 4.41211 l -9.4121,9.41211 v -65.05868 -0.29492 l -0.059,-0.29492 -0.1172,-0.29297 -0.1777,-0.23633 -0.1758,-0.23437 -2.5879,-2.58789 2.5879,-2.5879 0.2344,-0.29492 0.1777,-0.29492 0.1172,-0.35156 v -0.35352 -82 h 12.53 v 11.88282 l 0.059,0.35156 0.059,0.29492 0.1777,0.29492 0.1758,0.29297 0.2344,0.23633 0.2363,0.17578 0.3535,0.11719 0.293,0.11719 h 0.2949 8.8223 0.2949 l 0.3535,-0.11719 0.293,-0.11719 0.2363,-0.17578 0.2344,-0.23633 0.1777,-0.29297 0.1758,-0.29492 0.059,-0.29492 0.059,-0.35156 V 266.75115 3.3390407 l -0.059,-0.529296 -0.1758,-0.529297 -0.2363,-0.470703 -0.293,-0.470704 -0.3535,-0.35351502 -0.4707,-0.353516 -0.4707,-0.234375 -0.5293,-0.117187 -0.5879,-0.05859 z m 5,8.17578102 H 382.3681 V 266.75115 H 135.4267 Z M 160.4853,274.92693 h 196.8242 v 234.5293 H 160.4853 Z"
     style="fill:#212830;fill-opacity:1;stroke:#212830;stroke-width:0.0588235px;stroke-linecap:round;stroke-linejoin:round;stroke-miterlimit:4;stroke-dasharray:none;stroke-opacity:1"
     id="path999" />
</svg>
