<?xml version="1.0" encoding="UTF-8" standalone="no"?>
<svg
   xmlns:dc="http://purl.org/dc/elements/1.1/"
   xmlns:cc="http://creativecommons.org/ns#"
   xmlns:rdf="http://www.w3.org/1999/02/22-rdf-syntax-ns#"
   xmlns:svg="http://www.w3.org/2000/svg"
   xmlns="http://www.w3.org/2000/svg"
   id="svg1387"
   height="122mm"
   width="122mm"
   version="1.0">
  <metadata
     id="metadata1391">
    <rdf:RDF>
      <cc:Work
         rdf:about="">
        <dc:format>image/svg+xml</dc:format>
        <dc:type
           rdf:resource="http://purl.org/dc/dcmitype/StillImage" />
        <dc:title></dc:title>
      </cc:Work>
    </rdf:RDF>
  </metadata>
  <defs
     id="defs3" />
  <path
     d="m 152.16915,0.93399198 -0.35352,0.05859 -0.29297,0.05859 -0.35351,0.175782 -0.23633,0.177734 -0.23437,0.234382 -0.17579,0.234375 -0.17773,0.353516 -0.0586,0.294921 -0.0586,0.351563 V 319.34415 l 0.0586,0.23633 v 0.17578 l 0.11718,0.17773 0.11914,0.17578 0.11719,0.11719 0.17578,0.11719 0.17579,0.11914 h 0.17773 l 0.23437,0.0586 h 5.35353 l 0.23438,-0.0586 0.17773,-0.0586 0.23437,-0.11914 0.17774,-0.11718 0.11719,-0.17578 0.11718,-0.17774 0.0586,-0.23437 v -0.23633 -7.23438 h 7.64843 v 50 l 0.0586,0.17578 v 0.17774 l 0.0586,0.17578 0.11719,0.17578 0.11719,0.11914 1.58789,1.58789 -1.58789,1.58789 -0.11719,0.11719 -0.11719,0.17773 -0.0586,0.17579 v 0.17578 l -0.0586,0.17773 v 39.70508 l -5.70703,-5.76562 v -2.70508 l -0.0586,-0.17578 -0.0586,-0.23633 -0.11719,-0.17578 -0.11914,-0.17579 -0.17578,-0.17773 -0.17578,-0.11719 -0.23633,-0.0586 h -0.23438 -3.41211 -0.23632 l -0.17579,0.0586 -0.17578,0.11719 -0.17773,0.11719 -0.11719,0.11914 -0.11719,0.17578 -0.11718,0.17578 v 0.17774 l -0.0586,0.17578 v 20.70508 l 0.0586,0.23632 0.0586,0.17578 0.11719,0.23633 0.11718,0.17578 0.17774,0.11719 0.17578,0.11914 0.23438,0.0586 h 0.23632 1.5293 0.23438 l 0.17773,-0.0586 0.23437,-0.11914 0.17774,-0.11719 0.11719,-0.17578 0.11718,-0.23633 0.0586,-0.17578 v -0.23632 -6.5293 h 7.64843 v 42.88281 h -7.64843 v -7.29297 -0.17773 l -0.0586,-0.17578 -0.0586,-0.17579 -0.11719,-0.17773 -0.17773,-0.17578 -0.17578,-0.11719 -0.17578,-0.0605 -0.17774,-0.0586 h -0.17577 -5.35352 -0.23437 l -0.17773,0.0586 -0.17579,0.0605 -0.17578,0.11719 -0.11719,0.17578 -0.11914,0.17773 -0.11718,0.17579 v 0.17578 l -0.0586,0.17773 v 10.35156 l 0.0586,0.35352 0.0586,0.29492 0.17773,0.29297 0.17579,0.29492 0.23437,0.23438 0.23633,0.17773 0.35351,0.11719 0.29297,0.11719 h 0.35352 156.82229 0.2949 l 0.3535,-0.11719 0.293,-0.11719 0.2363,-0.17773 0.2344,-0.23438 0.2363,-0.29492 0.11719,-0.29297 0.1172,-0.29492 v -0.35352 -10.35156 -0.17773 l -0.059,-0.17578 -0.1172,-0.17579 -0.1172,-0.17773 -0.1191,-0.17578 -0.1758,-0.11719 -0.1758,-0.0605 -0.1777,-0.0586 h -0.1754 -5.4121 -0.1758 l -0.1777,0.0586 -0.1758,0.0605 -0.1758,0.11719 -0.1172,0.17578 -0.1191,0.17773 -0.1172,0.17579 -0.059,0.17578 v 0.17773 7.29297 h -7.6465 v -42.88281 h 7.6465 v 6.5293 0.23632 l 0.059,0.17578 0.1172,0.23633 0.1777,0.17578 0.1758,0.11719 0.1758,0.11914 0.2363,0.0586 h 0.1758 1.5293 0.2363 l 0.2344,-0.0586 0.1777,-0.11914 0.1758,-0.11719 0.1758,-0.17578 0.1172,-0.23633 0.061,-0.17578 v -0.23632 -20.70508 -0.17578 l -0.061,-0.17774 -0.1172,-0.17578 -0.1172,-0.17578 -0.1172,-0.11914 -0.1777,-0.11719 -0.1758,-0.11719 -0.1758,-0.0586 h -0.2363 -3.4121 -0.2344 l -0.1758,0.0586 -0.2363,0.11719 -0.1758,0.17773 -0.1172,0.17579 -0.1191,0.17578 -0.059,0.23633 -0.059,0.17578 v 2.70508 l -5.7043,5.76562 v -39.70508 -0.17773 l -0.059,-0.17578 -0.061,-0.17579 -0.1172,-0.17773 -0.1172,-0.11719 -1.5879,-1.58789 1.5879,-1.58789 0.1172,-0.11914 0.1172,-0.17578 0.061,-0.17578 0.059,-0.17774 v -0.17578 -50 h 7.6465 v 7.23438 0.23633 l 0.059,0.17578 0.1172,0.17773 0.1191,0.17578 0.1172,0.11719 0.1758,0.11719 0.1758,0.11914 h 0.1777 l 0.1758,0.0586 h 5.4117 l 0.1758,-0.0586 h 0.1777 l 0.1758,-0.11914 0.1758,-0.11719 0.1191,-0.11719 0.1172,-0.17578 0.1172,-0.17773 0.059,-0.17578 V 319.34415 2.873445 2.521882 l -0.1176,-0.294921 -0.1172,-0.353516 -0.2363,-0.234375 -0.2344,-0.234375 -0.2363,-0.177734 -0.293,-0.175782 -0.3535,-0.05859 -0.2949,-0.05859 z m 3.05859,5.00000002 h 59.23438 0.35351 l 0.35352,0.117187 0.35351,0.175782 0.29297,0.236328 0.23633,0.292969 0.17578,0.294921 0.11719,0.353516 0.0586,0.410156 -0.0586,0.353516 -0.0586,0.353515 -0.82422,2.763672 -0.17578,2.941407 0.29492,2.882809 0.88086,2.76368 1.35351,2.53124 1.82422,2.29297 2.23438,1.82422 0.17773,0.11719 0.17578,0.0586 0.23438,0.0586 h 0.17773 l 0.23438,-0.0586 0.17773,-0.0586 0.17578,-0.11719 0.17578,-0.17773 0.11914,-0.17578 2.46878,-4.29492 0.1191,-0.23438 0.059,-0.17578 v -0.23633 l -0.059,-0.17578 -0.059,-0.17773 -0.06,-0.23438 -0.1172,-0.11719 -0.1758,-0.17773 -1.1172,-1 -0.94139,-1.29297 -0.64843,-1.35352 -0.35157,-1.529293 -0.11728,-1.529297 0.23438,-1.529297 0.4707,-1.412109 0.7637,-1.353516 1,-1.175781 1.1777,-0.941406 1.4121,-0.705079 1.4707,-0.470703 1.5293,-0.117187 1.5293,0.117187 1.4707,0.470703 1.3516,0.705079 1.1777,0.941406 1,1.175781 0.7637,1.353516 0.5293,1.412109 0.1777,1.529297 -0.059,1.529297 -0.4121,1.529293 -0.6484,1.35352 -0.9395,1.29297 -1.1191,1 -0.1172,0.17773 -0.1758,0.11719 -0.059,0.23438 -0.06,0.17773 -0.059,0.17578 0.059,0.23633 0.06,0.17578 0.059,0.23438 2.5293,4.29492 0.1172,0.17578 0.1172,0.17773 0.1777,0.11719 0.1758,0.0586 0.2344,0.0586 h 0.1777 l 0.2344,-0.0586 0.1777,-0.0586 0.1758,-0.11719 2.2344,-1.82422 1.8242,-2.29297 1.4121,-2.53124 0.8242,-2.76368 0.3516,-2.882809 -0.2344,-2.941407 -0.7656,-2.763672 -0.1168,-0.353515 V 7.814851 7.404695 l 0.1172,-0.353516 0.1777,-0.294921 0.2344,-0.292969 0.2949,-0.236328 0.3516,-0.175782 0.3535,-0.117187 h 0.3535 59.2344 V 307.10977 h -59.2344 l -0.3535,-0.0586 -0.3535,-0.0586 -0.3516,-0.17774 -0.2949,-0.23437 -0.2344,-0.29493 -0.1777,-0.35156 -0.1172,-0.2949 v -0.41211 -0.35351 l 0.1172,-0.35157 0.7656,-2.82422 0.2344,-2.88281 -0.3516,-2.88086 -0.8242,-2.76562 -1.4121,-2.58789 -1.8242,-2.23633 -2.2344,-1.88086 -0.1758,-0.0586 -0.1777,-0.11914 h -0.2344 -0.1777 l -0.2344,0.0586 -0.1758,0.0605 -0.1777,0.11719 -0.1172,0.17578 -0.1172,0.17579 -2.5293,4.29492 -0.059,0.17578 -0.06,0.23633 -0.059,0.17578 0.059,0.23633 0.06,0.17578 0.059,0.17578 0.1758,0.17773 0.1172,0.17578 1.1191,1 0.9395,1.23633 0.6484,1.41016 0.4121,1.4707 0.059,1.5293 -0.1777,1.5293 -0.5293,1.4707 -0.7637,1.35351 -1,1.17579 -1.1777,0.9414 -1.3516,0.70703 -1.4707,0.47071 -1.5293,0.11718 -1.5293,-0.11718 -1.4707,-0.47071 -1.4121,-0.70703 -1.1777,-0.9414 -1,-1.17579 -0.7637,-1.35351 -0.4707,-1.4707 -0.23438,-1.5293 0.11719,-1.5293 0.35157,-1.4707 0.64843,-1.41016 0.94139,-1.23633 1.1172,-1 0.1758,-0.17578 0.1172,-0.17773 0.06,-0.17578 0.059,-0.17578 0.059,-0.23633 v -0.17578 l -0.059,-0.23633 -0.1191,-0.17578 -2.46878,-4.29492 -0.11914,-0.17579 -0.17578,-0.17578 -0.17578,-0.11719 -0.17773,-0.0605 -0.23438,-0.0586 h -0.17773 -0.23438 l -0.17578,0.11914 -0.17773,0.0586 -2.23438,1.88086 -1.82422,2.23633 -1.35351,2.58789 -0.88086,2.76562 -0.29492,2.88086 0.17578,2.88281 0.82422,2.82422 0.0586,0.35157 0.0586,0.35351 -0.0586,0.41211 -0.11719,0.29492 -0.17578,0.35156 -0.23633,0.29493 -0.29297,0.23437 -0.35351,0.17774 -0.35352,0.0586 -0.35351,0.0586 H 155.22774 Z M 170.52266,312.10977 H 290.58124 V 455.22696 H 170.52266 Z"
     style="fill:#212830;fill-opacity:1;stroke:#212830;stroke-width:0.0588235px;stroke-linecap:round;stroke-linejoin:round;stroke-miterlimit:4;stroke-dasharray:none;stroke-opacity:1"
     id="path1383" />
</svg>
