<?xml version="1.0" encoding="UTF-8" standalone="no"?>
<svg
   xmlns:dc="http://purl.org/dc/elements/1.1/"
   xmlns:cc="http://creativecommons.org/ns#"
   xmlns:rdf="http://www.w3.org/1999/02/22-rdf-syntax-ns#"
   xmlns:svg="http://www.w3.org/2000/svg"
   xmlns="http://www.w3.org/2000/svg"
   id="svg787"
   height="79mm"
   width="79mm"
   version="1.0">
  <metadata
     id="metadata791">
    <rdf:RDF>
      <cc:Work
         rdf:about="">
        <dc:format>image/svg+xml</dc:format>
        <dc:type
           rdf:resource="http://purl.org/dc/dcmitype/StillImage" />
        <dc:title></dc:title>
      </cc:Work>
    </rdf:RDF>
  </metadata>
  <defs
     id="defs3" />
  <path
     id="path785"
     d="m 96.61494,268.93841 h 70.5294 l 0.4117,-0.0588 0.4118,-0.11765 0.3529,-0.17647 0.353,-0.23529 0.2941,-0.29412 0.2353,-0.35294 0.2353,-0.41177 0.059,-0.41176 0.059,-0.41177 v -7.29411 l -0.059,-0.47059 -0.1176,-0.47059 -0.2353,-0.41177 -0.2941,-0.35294 -0.353,-0.29411 -0.4706,-0.2353 -0.4117,-0.11765 -0.4706,-0.0588 h -30 v -88.23529 l -0.059,-0.47059 -0.1177,-0.41177 -0.2353,-0.47058 -0.2941,-0.35295 -3.3529,-3.35294 3.3529,-3.29411 0.2941,-0.41177 0.2353,-0.41176 0.1177,-0.47059 0.059,-0.47059 V 11.82076 h 27.5294 v 13.82353 l 0.059,0.70589 0.1765,0.64705 0.3529,0.64706 0.353,0.58824 0.5294,0.47059 0.5882,0.41176 0.6471,0.29412 0.647,0.17647 0.7059,0.11765 h 13.7647 l 0.5294,-0.0588 0.4118,-0.17647 0.4118,-0.17647 0.4117,-0.35294 0.2941,-0.35294 0.2353,-0.41176 0.1177,-0.47059 0.059,-0.47059 v -3.2353 l -0.059,-0.47058 -0.1177,-0.47059 -0.2353,-0.41177 -0.2941,-0.35294 -0.4117,-0.29412 -0.4118,-0.23529 -0.4122,-0.1765 h -0.5294 -7.2941 V 9.4089995 h 48.6471 V 21.58547 h -7.2942 -0.4705 l -0.4706,0.17647 -0.4118,0.23529 -0.3529,0.29412 -0.2942,0.35294 -0.2353,0.41177 -0.1176,0.47059 -0.059,0.47058 v 3.2353 l 0.059,0.47059 0.1176,0.47059 0.2353,0.41176 0.2942,0.35294 0.3529,0.35294 0.4118,0.17647 0.4706,0.17647 0.4705,0.0588 h 13.7647 l 0.7059,-0.11765 0.7059,-0.17647 0.6471,-0.29412 0.5882,-0.41176 0.4706,-0.47059 0.4118,-0.58824 0.2941,-0.64706 0.1764,-0.64705 0.059,-0.70589 V 5.3501495 l -0.059,-0.70589 -0.1764,-0.70588 -0.2941,-0.64706 -0.4118,-0.52941 -0.4706,-0.52941 -0.5882,-0.41177 -0.6471,-0.29411 -0.7059,-0.17647 -0.7059,-0.0588 H 99.02664 l -0.4117,0.0588 -0.4118,0.0588 -0.3529,0.23529 -0.353,0.2353 -0.2941,0.29412 -0.2353,0.35294 -0.2353,0.35294 -0.059,0.41176 -0.059,0.41177 v 5.70588 l 0.059,0.41176 0.059,0.4117705 0.2353,0.41176 0.2353,0.29412 0.2941,0.35294 0.353,0.2353 0.3529,0.17647 0.4118,0.11764 h 0.4117 27.5883 v 21.88236 h -43.7647 l -0.4706,0.0588 -0.4706,0.17647 -0.4118,0.17647 -0.3529,0.35294 -0.353,0.35294 -0.1764,0.41177 -0.1765,0.47059 -0.059,0.47059 v 7.29411 l 0.059,0.47059 0.1765,0.47059 0.1764,0.41176 0.353,0.35295 0.3529,0.29411 0.4118,0.2353 0.4706,0.11764 0.4706,0.0588 h 43.7647 v 56.7647 h -35.6471 l -0.4706,0.0588 -0.4117,0.11764 -0.353,0.17647 -0.3529,0.2353 -0.2941,0.29412 -0.2353,0.35294 -0.1765,0.41176 -0.1177,0.41177 -0.059,0.41176 v 7.29412 l 0.059,0.47059 0.1177,0.47059 0.2353,0.41176 0.2941,0.35294 0.4118,0.29412 0.4117,0.23529 0.4118,0.11765 0.5294,0.0588 h 35.6471 v 97.35295 h -35.6471 -0.4706 l -0.4117,0.11764 -0.353,0.17647 -0.3529,0.2353 -0.2941,0.29411 -0.2353,0.35295 -0.1765,0.41176 -0.1177,0.41177 -0.059,0.41176 v 7.29412 l 0.059,0.47059 0.1177,0.47058 0.2353,0.41177 0.2941,0.35309 0.4118,0.29412 0.4117,0.23529 0.4118,0.17647 h 0.5294 35.6471 v 32.47059 h -39.7059 -0.4706 l -0.3529,0.11765 -0.4118,0.17647 -0.353,0.29412 -0.2941,0.29411 -0.2353,0.35294 -0.1764,0.35295 -0.1177,0.41176 -0.059,0.41177 v 25.94117 h -17.8235 l -0.4118,0.0588 -0.4118,0.11764 -0.3529,0.17647 -0.352901,0.2353 -0.2942,0.29411 -0.2941,0.35295 -0.1765,0.41176 -0.1176,0.41177 v 0.41179 7.29412 l 0.059,0.47059 0.1177,0.47058 0.2353,0.41177 0.2941,0.35294 0.352901,0.29412 0.4118,0.23529 0.4706,0.11765 0.4706,0.0588 h 27.5882 l 0.4706,-0.0588 0.4118,-0.11765 0.4705,-0.23529 0.353,-0.29412 0.2941,-0.35294 0.2353,-0.41177 0.1176,-0.47058 0.059,-0.47059 z"
     style="fill:#212830;fill-opacity:1;stroke:#212830;stroke-width:0.0588235px;stroke-linecap:round;stroke-linejoin:round;stroke-miterlimit:4;stroke-dasharray:none;stroke-opacity:1" />
</svg>
