<?xml version="1.0" encoding="UTF-8" standalone="no"?>
<svg
   xmlns:dc="http://purl.org/dc/elements/1.1/"
   xmlns:cc="http://creativecommons.org/ns#"
   xmlns:rdf="http://www.w3.org/1999/02/22-rdf-syntax-ns#"
   xmlns:svg="http://www.w3.org/2000/svg"
   xmlns="http://www.w3.org/2000/svg"
   id="svg1379"
   height="161mm"
   width="161mm"
   version="1.0">
  <metadata
     id="metadata1383">
    <rdf:RDF>
      <cc:Work
         rdf:about="">
        <dc:format>image/svg+xml</dc:format>
        <dc:type
           rdf:resource="http://purl.org/dc/dcmitype/StillImage" />
        <dc:title></dc:title>
      </cc:Work>
    </rdf:RDF>
  </metadata>
  <defs
     id="defs3" />
  <path
     d="m 179.16328,0.22171438 -0.52929,0.177734 -0.47071,0.234375 -0.41211,0.294922 -0.41211,0.35351602 -0.29297,0.470703 -0.23632,0.46875 -0.11719,0.470703 -0.0586,0.529297 V 384.51664 l 0.0586,0.29492 0.0586,0.29297 0.11719,0.29492 0.17773,0.29297 0.23438,0.17773 0.29492,0.23438 0.29297,0.11719 0.29492,0.0605 0.29297,0.0586 h 8.5293 l 0.35351,-0.0586 0.35352,-0.11914 0.29296,-0.17574 0.29492,-0.17578 0.23438,-0.29492 0.11914,-0.29492 0.11718,-0.35157 0.0586,-0.35351 v -11.58789 h 12.11718 v 79.52929 l 0.0586,0.29492 0.0605,0.29297 0.11719,0.23633 0.11719,0.23438 0.17578,0.23632 2.5293,2.46876 -2.5293,2.53124 -0.17574,0.23438 -0.11719,0.23438 -0.11719,0.23632 -0.0605,0.29492 -0.0586,0.29297 v 63.11719 l -9.11722,-9.17578 v -4.23438 -0.35351 l -0.11719,-0.35352 -0.17773,-0.29297 -0.23438,-0.29492 -0.23438,-0.23632 -0.35351,-0.17579 -0.35352,-0.0586 -0.35351,-0.0586 h -5.4707 l -0.29297,0.0586 -0.29493,0.0586 -0.29296,0.11719 -0.29493,0.17774 -0.17578,0.23437 -0.17773,0.29492 -0.17578,0.23438 -0.0586,0.35351 -0.0586,0.29492 v 32.82227 l 0.0586,0.35352 0.11719,0.35351 0.17773,0.35156 0.17579,0.23633 0.29297,0.23438 0.35351,0.17773 0.29492,0.11719 h 0.35157 2.4707 0.35351 l 0.35352,-0.11719 0.29297,-0.17773 0.29492,-0.23438 0.23438,-0.23633 0.11914,-0.35156 0.11718,-0.35351 0.0586,-0.35352 v -10.29297 h 12.11718 v 68.0586 h -12.11718 v -11.5293 l -0.0586,-0.29492 -0.0586,-0.35352 -0.11719,-0.29297 -0.23633,-0.23633 -0.17578,-0.23437 -0.29492,-0.17773 -0.29297,-0.11719 -0.29491,-0.11719 h -0.29492 -8.5293 -0.29297 l -0.29492,0.11719 -0.29297,0.11719 -0.29492,0.17773 -0.23438,0.23437 -0.17773,0.23633 -0.11719,0.29297 -0.0586,0.35352 -0.0586,0.29492 v 16.41016 l 0.0586,0.53124 0.11719,0.5293 0.23632,0.4707 0.29297,0.41016 0.41211,0.41211 0.41211,0.29492 0.47071,0.23438 0.52929,0.11719 0.5293,0.0605 h 249.11719 l 0.5293,-0.0605 0.5293,-0.11719 0.4707,-0.23438 0.4121,-0.29492 0.4121,-0.41211 0.293,-0.41016 0.2363,-0.4707 0.1172,-0.5293 0.059,-0.53124 v -16.41016 l -0.059,-0.29492 -0.059,-0.35352 -0.1172,-0.29297 -0.1777,-0.23633 -0.2344,-0.23437 -0.2949,-0.17773 -0.2344,-0.11719 -0.35309,-0.11719 h -0.293 -8.5312 -0.293 l -0.2949,0.11719 -0.293,0.11719 -0.2949,0.17773 -0.1758,0.23437 -0.2363,0.23633 -0.1172,0.29297 -0.059,0.35352 -0.059,0.29492 v 11.5293 h -12.1172 v -68.0586 h 12.1172 v 10.29297 l 0.059,0.35352 0.1172,0.35351 0.1777,0.35156 0.1758,0.23633 0.293,0.23438 0.2949,0.17773 0.3535,0.11719 h 0.3516 2.4707 0.3535 l 0.2949,-0.11719 0.3516,-0.17773 0.2949,-0.23438 0.1758,-0.23633 0.1777,-0.35156 0.1172,-0.35351 0.059,-0.35352 v -32.82227 l -0.059,-0.29492 -0.059,-0.35351 -0.1777,-0.23438 -0.1758,-0.29492 -0.1758,-0.23437 -0.2949,-0.17774 -0.293,-0.11719 -0.2941,-0.0586 -0.2949,-0.0586 h -5.4707 l -0.3516,0.0586 -0.3535,0.0586 -0.3535,0.17579 -0.2344,0.23632 -0.2363,0.29492 -0.1758,0.29297 -0.1172,0.35352 v 0.3535 4.23438 l -9.1172,9.17578 v -63.11719 l -0.061,-0.29297 -0.059,-0.29492 -0.1172,-0.23632 -0.1172,-0.23438 -0.1758,-0.23438 -2.5312,-2.53124 2.5312,-2.46876 0.1758,-0.23632 0.1172,-0.23438 0.1172,-0.23633 0.059,-0.29297 0.061,-0.29492 v -79.52929 h 12.1172 v 11.58789 l 0.059,0.29492 0.059,0.29297 0.1172,0.29492 0.2363,0.29297 0.1758,0.17773 0.2949,0.23438 0.293,0.11719 0.2949,0.0605 0.293,0.0586 h 8.5312 l 0.293,-0.0586 0.3535,-0.0605 0.2344,-0.11719 0.2949,-0.23438 0.2344,-0.17773 0.1777,-0.29297 0.1172,-0.29492 0.059,-0.29297 0.059,-0.29492 V 3.2217144 l -0.059,-0.529297 -0.1172,-0.470703 -0.2363,-0.46875 -0.293,-0.470703 -0.4121,-0.35351602 -0.4121,-0.294922 -0.4707,-0.234375 -0.5293,-0.177734 h -0.5293 -249.11719 z m 5.35157,7.88281302 h 94.17773 l 0.58789,0.05859 0.58789,0.177735 0.4707,0.292968 0.47071,0.353519 0.41211,0.412109 0.23439,0.529297 0.1777,0.5878916 0.1172,0.587891 -0.059,0.58789 -0.1777,0.529297 -1.17581,4.470703 -0.41211,4.589842 0.5293,4.58789 1.35352,4.41211 2.1758,4.0586 2.9414,3.58789 3.5293,2.9414 0.2949,0.17578 0.2949,0.11719 0.3516,0.0586 h 0.2949 l 0.3535,-0.11719 0.293,-0.11719 0.2949,-0.17578 0.2344,-0.23633 0.1777,-0.29297 4,-6.88281 0.1172,-0.29492 0.059,-0.29297 0.059,-0.35352 -0.059,-0.29492 -0.1172,-0.35156 -0.1191,-0.29492 -0.1758,-0.23438 -0.2949,-0.23633 -1.7637,-1.64648 -1.4707,-2 -1.0586,-2.17773 -0.5879,-2.35157 -0.1191,-2.470701 0.2949,-2.412109 0.7656,-2.294922 1.2344,-2.175781 1.5879,-1.824219 1.8828,-1.529298 2.1758,-1.1171866 2.3535,-0.705078 2.4707,-0.236328 2.4121,0.236328 2.3535,0.705078 2.1758,1.1171866 1.8828,1.529298 1.5879,1.824219 1.2344,2.175781 0.7656,2.294922 0.293,2.412109 -0.1172,2.470701 -0.5879,2.35157 -1.0586,2.17773 -1.4707,2 -1.7656,1.64648 -0.293,0.23633 -0.1777,0.23438 -0.1172,0.29492 -0.1172,0.35156 -0.059,0.29492 0.059,0.35352 0.059,0.29297 0.1758,0.29492 3.9414,6.88281 0.1777,0.29297 0.2344,0.23633 0.2949,0.17578 0.293,0.11719 0.3535,0.11719 h 0.3535 l 0.293,-0.0586 0.3535,-0.11719 0.2363,-0.17578 3.5293,-2.9414 2.9395,-3.58789 2.1777,-4.0586 1.3535,-4.41211 0.5293,-4.58789 -0.3535,-4.589842 -1.2363,-4.470703 -0.1758,-0.529297 -0.059,-0.58789 0.1172,-0.587891 0.1777,-0.5878916 0.2344,-0.529297 0.4121,-0.412109 0.4707,-0.353516 0.5293,-0.292968 0.5293,-0.177735 0.5879,-0.05859 h 94.1758 V 365.04593 h -94.1758 l -0.5879,-0.0586 -0.5293,-0.17578 -0.5293,-0.29492 -0.4707,-0.35352 -0.4121,-0.41016 -0.2344,-0.53124 -0.1777,-0.5879 -0.1172,-0.58789 0.059,-0.58789 0.1758,-0.52929 1.2363,-4.47071 0.3535,-4.58789 -0.5293,-4.58789 -1.3535,-4.41211 -2.1777,-4.05859 -2.9395,-3.58984 -3.5293,-2.93946 -0.2363,-0.17773 -0.3535,-0.11719 -0.293,-0.0586 h -0.3535 l -0.3535,0.11718 -0.293,0.11719 -0.2949,0.17774 -0.2344,0.23437 -0.1777,0.29492 -3.9414,6.88281 -0.1758,0.29297 -0.059,0.29493 -0.059,0.35156 0.059,0.29494 0.1172,0.35352 0.1172,0.29296 0.1777,0.23633 0.293,0.23438 1.7656,1.64843 1.4707,2 1.0586,2.17579 0.5879,2.35351 0.1172,2.4707 -0.293,2.41016 -0.7656,2.29492 -1.2344,2.17578 -1.5879,1.82422 -1.8828,1.5293 -2.1758,1.11719 -2.3535,0.70703 -2.4121,0.23437 -2.4707,-0.23437 -2.3535,-0.70703 -2.1758,-1.11719 -1.8828,-1.5293 -1.5879,-1.82422 -1.2344,-2.17578 -0.7656,-2.29492 -0.2949,-2.41016 0.1191,-2.4707 0.5879,-2.35351 1.0586,-2.17579 1.4707,-2 1.7637,-1.64843 0.2949,-0.23438 0.1758,-0.23633 0.1191,-0.29296 0.1172,-0.35352 0.059,-0.29492 -0.059,-0.35156 -0.059,-0.29493 -0.1172,-0.29297 -4,-6.88281 -0.1777,-0.29492 -0.2344,-0.23437 -0.2949,-0.17774 -0.293,-0.11719 -0.3535,-0.11718 h -0.2949 l -0.3516,0.0586 -0.2949,0.11719 -0.2949,0.17773 -3.5293,2.93946 -2.9414,3.58984 -2.1758,4.05859 -1.35352,4.41211 -0.5293,4.58789 0.41211,4.58789 1.17581,4.47071 0.1777,0.52929 0.059,0.58789 -0.1172,0.58789 -0.1777,0.5879 -0.23439,0.53124 -0.41211,0.41016 -0.47071,0.35352 -0.4707,0.29492 -0.58789,0.17577 -0.58789,0.0586 H 184.51485 Z M 208.86836,372.92875 H 399.63397 V 600.34086 H 208.86836 Z"
     style="fill:#212830;fill-opacity:1;stroke:#212830;stroke-width:0.0588235px;stroke-linecap:round;stroke-linejoin:round;stroke-miterlimit:4;stroke-dasharray:none;stroke-opacity:1"
     id="path1377" />
</svg>
