<?xml version="1.0" encoding="UTF-8" standalone="no"?>
<svg
   xmlns:dc="http://purl.org/dc/elements/1.1/"
   xmlns:cc="http://creativecommons.org/ns#"
   xmlns:rdf="http://www.w3.org/1999/02/22-rdf-syntax-ns#"
   xmlns:svg="http://www.w3.org/2000/svg"
   xmlns="http://www.w3.org/2000/svg"
   id="svg1449"
   height="164mm"
   width="164mm"
   version="1.0">
  <metadata
     id="metadata1453">
    <rdf:RDF>
      <cc:Work
         rdf:about="">
        <dc:format>image/svg+xml</dc:format>
        <dc:type
           rdf:resource="http://purl.org/dc/dcmitype/StillImage" />
        <dc:title></dc:title>
      </cc:Work>
    </rdf:RDF>
  </metadata>
  <defs
     id="defs3" />
  <path
     d="m 236.21655,117.36267 -0.4707,0.0586 -0.4121,0.11719 -0.4121,0.23633 -0.4121,0.29296 -0.293,0.35352 -0.2363,0.41211 -0.1172,0.4707 -0.059,0.47071 v 0.4707 l 0.1758,0.4707 0.1758,0.41016 0.2949,0.41211 0.3535,0.29492 0.4121,0.23437 13.293,5.94141 v 46.70703 h -99.0586 l -0.41211,0.0586 -0.41211,0.11718 -0.41016,0.17578 -0.35351,0.23633 -0.29493,0.29297 -0.23437,0.35352 -0.17773,0.41211 -0.11719,0.41211 -0.0586,0.4121 v 5.70508 l 0.0586,0.47071 0.11719,0.41211 0.17773,0.35156 0.23437,0.35351 0.29493,0.29493 0.35351,0.29296 0.41016,0.17774 0.41211,0.0586 0.41211,0.0586 h 43.41211 v 81.94139 h -43.41171 l -0.41211,0.0586 -0.41211,0.11718 -0.41016,0.17579 -0.35351,0.23632 -0.29493,0.29492 -0.23437,0.35157 -0.17773,0.41211 -0.11719,0.41211 -0.0586,0.41211 v 26.23437 l 0.0586,0.41211 0.11719,0.41211 0.17773,0.35351 0.23437,0.35157 0.29493,0.35351 0.35351,0.23438 0.41016,0.17773 0.41211,0.11719 h 0.41211 5.70508 0.4707 l 0.41211,-0.11719 0.35351,-0.17773 0.35352,-0.23438 0.29297,-0.35351 0.29492,-0.35157 0.17578,-0.35351 0.0586,-0.41211 0.0586,-0.41211 v -18.05861 h 24.58984 v 18.05859 0.41211 l 0.11719,0.41211 0.17578,0.35351 0.29492,0.35157 0.29297,0.35351 0.35352,0.23438 0.35351,0.17773 0.41211,0.11719 h 0.4707 8.17579 v 125.41211 h -8.17579 -0.53124 l -0.41016,0.17578 -0.4707,0.23633 -0.35352,0.29297 -0.29492,0.35351 -0.23438,0.41211 -0.11718,0.47071 -0.0586,0.4707 v 18.05859 h -24.58984 v -18.05859 l -0.0586,-0.4707 -0.11718,-0.47071 -0.23438,-0.41211 -0.29492,-0.35351 -0.35352,-0.29297 -0.4707,-0.23633 -0.41016,-0.17578 h -0.53124 -5.70508 -0.47071 l -0.4707,0.17578 -0.41211,0.23633 -0.41016,0.29297 -0.29492,0.35351 -0.23632,0.41211 -0.11719,0.47071 -0.0586,0.4707 v 30.35156 l 0.0586,0.41211 0.11719,0.41211 0.17773,0.41211 0.23437,0.35351 0.29493,0.29297 0.35351,0.23633 0.41016,0.17578 0.41211,0.11719 0.41211,0.0586 h 5.70508 l 0.4707,-0.0586 0.41211,-0.11719 0.35351,-0.17578 0.35352,-0.23633 0.29297,-0.29297 0.29492,-0.35351 0.17578,-0.41211 0.0586,-0.41211 0.0586,-0.41211 v -1.64648 h 35.23633 v 36.88281 H 71.626731 v -13.94141 l -0.0586,-0.70508 -0.17578,-0.70703 -0.29492,-0.64648 -0.41016,-0.58789 -0.4707,-0.4707 -0.58984,-0.41211 -0.64649,-0.35352 -0.70507,-0.17578 -0.70704,-0.0586 h -13.9414 l -0.41016,0.0586 -0.41211,0.11719 -0.41211,0.17578 -0.35351,0.23633 -0.29297,0.29297 -0.23633,0.35351 -0.17578,0.41211 -0.11719,0.41211 -0.0605,0.41211 v 3.29297 l 0.0605,0.41211 0.11719,0.41211 0.17578,0.41211 0.23633,0.35156 0.29297,0.29492 0.35351,0.23438 0.41211,0.17773 0.41211,0.11719 0.41016,0.0586 h 7.35351 v 12.29492 h -49.11718 v -12.29492 h 7.41211 l 0.4121,-0.0586 0.41016,-0.11719 0.35352,-0.17773 0.35351,-0.23438 0.35157,-0.29492 0.23632,-0.35156 0.17578,-0.41211 0.11914,-0.41211 v -0.41211 -3.29297 -0.41211 l -0.11914,-0.41211 -0.17578,-0.41211 -0.23632,-0.35351 -0.35157,-0.29297 -0.35351,-0.23633 -0.35352,-0.17578 -0.41016,-0.11719 -0.4121,-0.0586 H 5.3337608 l -0.70703,0.0586 -0.70508,0.17578 -0.64648,0.35352 -0.5879,0.41211 -0.4707,0.4707 -0.4121101,0.58789 -0.35351,0.64648 -0.17578,0.70703 -0.0586,0.70508 v 20.47071 l 0.0586,0.70507 0.17578,0.70704 0.35351,0.64648 0.4121101,0.58789 0.4707,0.5293 0.5879,0.35351 0.64648,0.35352 0.70508,0.17578 0.70703,0.0586 H 499.92165 l 0.7051,-0.0586 0.707,-0.17578 0.6465,-0.35352 0.5879,-0.35351 0.4707,-0.5293 0.4121,-0.58789 0.2949,-0.64648 0.1758,-0.70704 0.1172,-0.70507 v -22.11719 l -0.059,-0.41211 -0.1172,-0.41211 -0.1758,-0.41211 -0.2363,-0.35351 -0.2949,-0.29297 -0.3516,-0.23633 -0.4121,-0.17578 -0.4121,-0.11719 -0.4121,-0.0586 h -11.4707 l -0.4102,0.0586 -0.4121,0.11719 -0.4121,0.17578 -0.3535,0.23633 -0.293,0.29297 -0.2363,0.35351 -0.1758,0.41211 -0.1172,0.41211 -0.061,0.41211 v 15.58789 h -16.3516 V 384.65563 l -0.059,-0.46876 -0.1191,-0.4707 -0.2344,-0.41211 -0.3535,-0.35351 -3.3535,-3.41211 3.3535,-3.35157 0.3535,-0.35351 0.2344,-0.4707 0.1191,-0.41211 0.059,-0.5293 v -85 l 12.293,12.29492 v 5.76367 0.47071 l 0.1777,0.4707 0.2344,0.41211 0.2949,0.35351 0.3516,0.29297 0.4121,0.23633 0.4707,0.17578 h 0.4707 7.4121 0.4121 l 0.4121,-0.11718 0.3516,-0.17774 0.3535,-0.23437 0.3535,-0.35352 0.2344,-0.29297 0.1777,-0.41211 0.1172,-0.41211 v -0.41211 -26.23437 l -0.059,-0.70703 -0.1777,-0.70508 -0.293,-0.64649 -0.4121,-0.58984 -0.5293,-0.4707 -0.5293,-0.41016 -0.6484,-0.35351 -0.7051,-0.17579 -0.7051,-0.0605 h -20.4707 v -98.29296 l -0.059,-0.70703 -0.1777,-0.70508 -0.3516,-0.64648 -0.4121,-0.5879 -0.4707,-0.53124 -0.5879,-0.41016 -0.6484,-0.29492 -0.7051,-0.17578 -0.707,-0.0586 h -57.293 l -0.707,-0.0605 -0.7051,-0.17579 -0.6465,-0.29297 -0.5879,-0.4121 -0.5293,-0.5293 -0.4121,-0.58984 -0.2949,-0.64649 -0.1758,-0.70508 -0.059,-0.70703 v -38.4707 l 0.059,-0.70508 0.1758,-0.70508 0.2949,-0.64844 0.4121,-0.58789 0.5293,-0.52929 0.5879,-0.41211 0.6465,-0.29297 0.7051,-0.17774 0.707,-0.0586 h 159.6465 l 6.707,0.58789 6.4707,1.76563 6.0586,2.82421 5.5293,3.82227 4.7051,4.76563 3.8828,5.4707 2.8242,6.11719 1.7637,6.4707 0.5293,6.70508 v 8.17773 h -55.6465 l -0.707,0.0586 -0.7051,0.17578 -0.6465,0.29492 -0.5879,0.41016 -0.4707,0.53124 -0.4121,0.5879 -0.3535,0.64648 -0.1758,0.70508 -0.059,0.70703 v 20.4707 l 0.059,0.70508 0.1758,0.70703 0.3535,0.64649 0.4121,0.58789 0.4707,0.4707 0.5879,0.41211 0.6465,0.29297 0.7051,0.23633 0.707,0.0586 h 13.9414 l 0.4707,-0.0586 0.4102,-0.17579 0.4707,-0.17773 0.3535,-0.35351 0.2949,-0.35157 0.2344,-0.41211 0.1172,-0.4707 0.061,-0.4707 v -3.29492 -0.41016 l -0.1191,-0.41211 -0.1758,-0.41211 -0.2949,-0.35352 -0.293,-0.29296 -0.3535,-0.23633 -0.3535,-0.17578 -0.4102,-0.11719 -0.4121,-0.0586 h -7.4121 v -12.29499 h 49.1172 v 12.29492 h -7.3535 l -0.4707,0.0586 -0.4688,0.11719 -0.4121,0.23437 -0.3535,0.35352 -0.3535,0.35351 -0.1758,0.41211 -0.1758,0.4707 -0.061,0.46876 v 3.29492 l 0.061,0.4707 0.1758,0.4707 0.1758,0.41211 0.3535,0.35157 0.3535,0.35351 0.4121,0.17773 0.4688,0.17579 0.4707,0.0586 h 13.9414 l 0.707,-0.0586 0.7051,-0.23633 0.6465,-0.29297 0.5898,-0.41211 0.4707,-0.4707 0.4102,-0.58789 0.2949,-0.64649 0.1758,-0.70703 0.059,-0.70508 v -32.76562 l -0.9395,-9.58789 -2.7656,-9.23438 -4.5293,-8.5293 -6.1172,-7.4121 -7.4707,-6.11914 -8.4707,-4.5293 -9.2363,-2.82227 -9.5879,-0.9414 z m 22.9395,10.64648 h 135.9414 v 46.70703 h -13.9414 l -0.4688,0.0586 -0.4707,0.11718 -0.4121,0.23438 -0.3535,0.29492 -0.2949,0.41211 -0.2344,0.41211 -0.1758,0.4707 v 0.4707 5.70508 0.47071 l 0.1758,0.4707 0.2344,0.4707 0.2949,0.35157 0.3535,0.29492 0.4121,0.23632 0.4707,0.11719 0.4688,0.0586 h 79.4707 V 491.83336 H 203.50954 V 185.36267 h 69.58791 l 0.4707,-0.0586 0.4707,-0.11719 0.4121,-0.23632 0.3535,-0.29492 0.3516,-0.35157 0.2363,-0.4707 0.1172,-0.4707 0.059,-0.47071 v -5.70508 l -0.059,-0.4707 -0.1172,-0.4707 -0.2363,-0.41211 -0.3516,-0.41211 -0.3535,-0.29492 -0.4121,-0.23438 -0.4707,-0.11718 -0.4707,-0.0586 h -13.9414 z"
     style="fill:#212830;fill-opacity:1;stroke:#212830;stroke-width:0.0588235px;stroke-linecap:round;stroke-linejoin:round;stroke-miterlimit:4;stroke-dasharray:none;stroke-opacity:1"
     id="path1445" />
</svg>
