<?xml version="1.0" encoding="UTF-8" standalone="no"?>
<svg
   xmlns:dc="http://purl.org/dc/elements/1.1/"
   xmlns:cc="http://creativecommons.org/ns#"
   xmlns:rdf="http://www.w3.org/1999/02/22-rdf-syntax-ns#"
   xmlns:svg="http://www.w3.org/2000/svg"
   xmlns="http://www.w3.org/2000/svg"
   id="svg887"
   height="176mm"
   width="176mm"
   version="1.0">
  <metadata
     id="metadata891">
    <rdf:RDF>
      <cc:Work
         rdf:about="">
        <dc:format>image/svg+xml</dc:format>
        <dc:type
           rdf:resource="http://purl.org/dc/dcmitype/StillImage" />
        <dc:title></dc:title>
      </cc:Work>
    </rdf:RDF>
  </metadata>
  <defs
     id="defs3" />
  <path
     d="m 243.21618,1.3630861 -0.5879,0.05859 -0.5293,0.117188 -0.5293,0.294922 -0.4707,0.292968 -0.4121,0.41211 -0.3535,0.470703 -0.2344,0.529297 -0.1777,0.58789 v 0.529297 17.8828129 0.353515 l 0.1172,0.353516 0.1191,0.292969 0.1758,0.294922 0.2949,0.234375 0.2344,0.236328 0.3535,0.117187 0.293,0.117188 h 0.3535 9.29489 0.3516 l 0.2949,-0.117188 0.3535,-0.117187 0.293,-0.236328 0.2363,-0.234375 0.1758,-0.294922 0.1758,-0.292969 0.061,-0.353516 0.059,-0.353515 V 9.9509771 h 13.2344 v 86.6464869 0.41211 l 0.1172,0.35351 0.1777,0.35157 0.293,0.29492 2.707,2.705076 -2.707,2.76562 -0.2344,0.23438 -0.1758,0.23632 -0.1191,0.29492 -0.059,0.29297 v 0.35352 68.70508 l -9.9414,-9.94141 v -4.64648 l -0.059,-0.29492 -0.059,-0.35157 -0.1758,-0.35351 -0.1777,-0.23438 -0.2344,-0.29492 -0.2949,-0.17578 -0.293,-0.11914 -0.3535,-0.11719 h -0.3535 -5.9414 -0.3516 l -0.3535,0.11719 -0.2949,0.11914 -0.293,0.17578 -0.23629,0.29492 -0.1758,0.23438 -0.1758,0.35351 -0.059,0.35157 -0.061,0.29492 v 21.23632 l 0.061,0.5879 0.1758,0.52929 0.2344,0.5293 0.29489,0.4707 0.4121,0.41211 0.4707,0.35156 0.5293,0.23633 0.5879,0.11719 0.5293,0.0586 h 16.5879 v 74.17579 h -62.23439 v -11.23439 l -0.059,-0.58789 -0.1777,-0.5293 -0.2344,-0.52929 -0.2949,-0.47071 -0.4121,-0.41211 -0.4707,-0.35351 -0.5293,-0.23438 -0.5879,-0.11719 -0.5293,-0.0605 h -11.293 -0.3535 l -0.411,0.1191 -0.3535,0.17578 -0.293,0.29492 -0.2363,0.29297 -0.1758,0.35352 -0.1172,0.35351 -0.059,0.35156 v 2.64844 l 0.059,0.41016 0.1172,0.35351 0.1758,0.35352 0.2363,0.29297 0.293,0.29492 0.3535,0.17578 0.4121,0.11914 h 0.3535 5.9395 v 9.93946 h -39.7051 v -9.93946 h 5.9414 0.3535 l 0.3516,-0.11914 0.2949,-0.11719 0.293,-0.23437 0.2363,-0.23633 0.2344,-0.29297 0.1191,-0.29492 0.1172,-0.35352 v -0.35156 -2.64844 -0.35156 l -0.1172,-0.35351 -0.1777,-0.35352 -0.293,-0.29297 -0.2949,-0.29492 -0.3535,-0.17578 -0.3516,-0.11914 h -0.4121 -11.2363 l -0.5879,0.0605 -0.5293,0.11719 -0.5293,0.23438 -0.4707,0.35351 -0.4121,0.41211 -0.3516,0.47071 -0.2363,0.52929 -0.1172,0.5293 -0.059,0.58789 v 16.58789 l 0.059,0.5293 0.1172,0.58789 0.2363,0.5293 0.3516,0.4707 0.4121,0.41211 0.4707,0.29492 0.5293,0.23437 0.5293,0.17774 0.5879,0.0586 h 145.64839 v 394.17578 l 0.059,0.58789 0.1758,0.5293 0.2363,0.5293 0.293,0.4707 0.4121,0.41211 0.4707,0.35352 0.5293,0.23437 0.5879,0.11914 0.5879,0.0586 h 158.8828 l 0.5293,-0.0586 0.5879,-0.11914 0.5293,-0.23437 0.4707,-0.35352 0.4121,-0.41211 0.2949,-0.4707 0.293,-0.5293 0.1191,-0.5293 0.059,-0.58789 V 266.36308 h 52.9414 l 0.5879,-0.0586 0.5879,-0.17774 0.4707,-0.23437 0.5293,-0.29492 0.3535,-0.41211 0.3516,-0.4707 0.2363,-0.5293 0.1758,-0.58789 0.059,-0.5293 v -17.94141 l -0.059,-0.29296 -0.059,-0.35352 -0.1758,-0.29492 -0.1777,-0.29297 -0.2344,-0.23633 -0.2949,-0.23437 -0.3516,-0.11719 -0.2949,-0.11914 h -0.3535 -9.293 -0.3535 l -0.4121,0.11914 -0.293,0.17578 -0.3535,0.29492 -0.2363,0.29297 -0.1758,0.35352 -0.1172,0.35351 v 0.35156 12.5879 h -13.2949 v -74.17579 h 13.2949 v 11.29493 0.35156 l 0.1172,0.35351 0.1758,0.35352 0.2363,0.29297 0.3535,0.29492 0.293,0.17578 0.4121,0.11914 h 0.3535 2.6465 0.3535 l 0.3516,-0.11914 0.2949,-0.11719 0.2949,-0.23437 0.2344,-0.23633 0.2363,-0.29297 0.1172,-0.29492 0.1172,-0.35352 v -0.29296 -35.82422 -0.29492 l -0.1172,-0.35157 -0.1172,-0.35351 -0.2363,-0.23438 -0.2344,-0.29492 -0.2949,-0.17578 -0.2949,-0.11914 -0.3516,-0.11719 h -0.3535 -5.9414 -0.4121 l -0.3516,0.11719 -0.3535,0.17773 -0.2949,0.23438 -0.2344,0.35351 -0.1758,0.29492 -0.1191,0.41016 -0.059,0.35352 v 4.64648 l -9.9414,9.94141 v -68.70508 -0.35352 l -0.059,-0.29297 -0.1172,-0.29492 -0.1758,-0.23632 -0.1777,-0.23438 -2.7637,-2.76562 2.7637,-2.705076 0.2363,-0.29492 0.1758,-0.35157 0.1172,-0.35351 V 96.597454 9.9509671 h 13.2949 v 12.5878909 0.412109 l 0.1172,0.353516 0.1758,0.351562 0.2363,0.294922 0.3535,0.234375 0.293,0.236328 0.4121,0.117188 h 0.3535 9.293 0.3535 l 0.2949,-0.117188 0.3516,-0.117187 0.2949,-0.236328 0.2344,-0.234375 0.1777,-0.294922 0.1758,-0.292969 0.059,-0.353516 0.059,-0.353515 V 4.6560551 l -0.059,-0.529297 -0.1758,-0.58789 -0.2363,-0.529297 -0.3516,-0.470703 -0.3535,-0.41211 -0.5293,-0.292968 -0.4707,-0.294922 -0.5879,-0.117188 -0.5879,-0.05859 z m 31.76369,8.587891 h 207.8828 V 257.71465 h -207.8828 z m 29.8242,256.4121029 h 148.2949 v 388.88281 h -148.2949 z"
     style="fill:#212830;fill-opacity:1;stroke:#212830;stroke-width:0.0588235px;stroke-linecap:round;stroke-linejoin:round;stroke-miterlimit:4;stroke-dasharray:none;stroke-opacity:1"
     id="path881" />
</svg>
