<?xml version="1.0" encoding="UTF-8" standalone="no"?>
<svg
   xmlns:dc="http://purl.org/dc/elements/1.1/"
   xmlns:cc="http://creativecommons.org/ns#"
   xmlns:rdf="http://www.w3.org/1999/02/22-rdf-syntax-ns#"
   xmlns:svg="http://www.w3.org/2000/svg"
   xmlns="http://www.w3.org/2000/svg"
   id="svg859"
   height="122mm"
   width="122mm"
   version="1.0">
  <metadata
     id="metadata863">
    <rdf:RDF>
      <cc:Work
         rdf:about="">
        <dc:format>image/svg+xml</dc:format>
        <dc:type
           rdf:resource="http://purl.org/dc/dcmitype/StillImage" />
        <dc:title></dc:title>
      </cc:Work>
    </rdf:RDF>
  </metadata>
  <defs
     id="defs3" />
  <path
     d="m 103.55178,0.28652698 -0.3535,0.11719 -0.3535,0.17578 -0.3516,0.23633 -0.2949,0.23437002 -0.2344,0.35352 -0.1777,0.35352 -0.059,0.4121 -0.059,0.41016 v 12.41211 0.23633 l 0.059,0.23437 0.1172,0.23633 0.1191,0.17578 0.1758,0.17578 0.2363,0.11914 0.1758,0.11719 0.2344,0.0586 0.2363,0.0586 h 6.4707 l 0.2344,-0.0586 0.2363,-0.0586 0.2344,-0.11719 0.1777,-0.11914 0.1758,-0.17578 0.1172,-0.17578 0.1172,-0.23633 0.059,-0.23437 v -0.23633 -8.76367 h 9.2363 v 60.23437 0.29493 l 0.1172,0.23437 0.1172,0.23633 0.1777,0.23437 1.8828,1.88282 -1.8828,1.88281 -0.1777,0.23437 -0.1172,0.23633 -0.1172,0.23438 v 0.29492 47.763673 l -6.8828,-6.88281 v -3.23438 l -0.059,-0.23632 -0.059,-0.23438 -0.1172,-0.23438 -0.1191,-0.17773 -0.1758,-0.17578 -0.1758,-0.11719 -0.2363,-0.11914 -0.2344,-0.0586 -0.2363,-0.0586 h -4.1172 l -0.293,0.0586 -0.2363,0.0586 -0.2344,0.11914 -0.2363,0.17578 -0.1758,0.23438 -0.1172,0.23633 -0.061,0.23437 -0.059,0.29492 v 24.88282 l 0.059,0.23437 0.061,0.29492 0.1172,0.23438 0.1758,0.17773 0.2363,0.17578 0.2344,0.11719 0.2363,0.11719 h 0.293 1.8242 0.2344 l 0.2363,-0.0586 0.2344,-0.11718 0.1777,-0.11719 0.1758,-0.17773 0.1172,-0.23438 0.1172,-0.17578 0.059,-0.23633 v -0.23437 -7.82422 h 9.2363 v 51.52929 h -9.2363 v -8.70507 -0.23633 l -0.059,-0.23438 -0.1172,-0.23633 -0.1172,-0.17578 -0.1758,-0.17578 -0.1777,-0.17773 -0.2344,-0.0586 -0.2363,-0.0586 -0.2344,-0.0586 h -6.4707 l -0.2363,0.0586 -0.2344,0.0586 -0.1758,0.0586 -0.2363,0.17773 -0.1758,0.17578 -0.1191,0.17578 -0.1172,0.23633 -0.059,0.23438 v 0.23633 288.76367 l 0.059,0.35351 0.059,0.41211 0.1777,0.35157 0.2344,0.35351 0.2949,0.29492 0.3516,0.23438 0.3535,0.11719 0.3535,0.11914 0.4121,0.0586 h 188.7051 l 0.4121,-0.0586 0.3535,-0.11914 0.4102,-0.11719 0.2949,-0.23438 0.2949,-0.29492 0.2344,-0.35351 0.1758,-0.35157 0.1191,-0.41211 v -0.35351 -274.0586 h 62.1172 0.4121 l 0.4121,-0.11718 0.3516,-0.17579 0.3535,-0.23632 0.2344,-0.29492 0.2363,-0.29297 0.1758,-0.41211 0.1191,-0.35352 0.059,-0.41016 V 170.6381 l -0.059,-0.35157 -0.1191,-0.41211 -0.1758,-0.35351 -0.2363,-0.35157 -0.2344,-0.29492 -0.3535,-0.23632 -0.3516,-0.11719 -0.4121,-0.11719 -0.4121,-0.0586 h -7.8242 l -0.2344,0.0586 -0.2363,0.0586 -0.1758,0.0586 -0.2344,0.17773 -0.1777,0.17578 -0.1172,0.17578 -0.1172,0.23633 -0.059,0.23438 v 0.23633 1.82226 0.23633 l 0.059,0.23437 0.1172,0.23633 0.1172,0.17578 0.1777,0.17579 0.2344,0.11914 0.1758,0.11718 0.2363,0.0586 h 0.2344 4.1777 v 6.9414 h -27.6484 v -6.9414 h 4.1777 0.2344 l 0.2363,-0.0586 0.2344,-0.11718 0.1758,-0.11914 0.1777,-0.17579 0.1172,-0.17578 0.1172,-0.23633 0.059,-0.23437 v -0.23633 -1.82226 -0.23633 l -0.059,-0.23438 -0.1172,-0.23633 -0.1172,-0.17578 -0.1777,-0.17578 -0.1758,-0.17773 -0.2344,-0.0586 -0.2363,-0.0586 -0.2344,-0.0586 h -7.8242 l -0.4121,0.0586 -0.4121,0.11719 -0.3516,0.11719 -0.2949,0.23632 -0.293,0.29492 -0.2363,0.35157 -0.1758,0.35351 -0.1191,0.41211 v 0.35157 7.82421 h -43.293 v -51.52929 h 11.5293 l 0.4121,-0.0586 0.3516,-0.11718 0.3535,-0.17774 0.3535,-0.23437 0.293,-0.23633 0.2363,-0.35156 0.1758,-0.35352 0.059,-0.41211 0.061,-0.41211 v -14.70508 -0.23632 l -0.061,-0.23438 -0.1172,-0.23438 -0.1758,-0.17773 -0.1172,-0.17578 -0.2363,-0.11719 -0.2344,-0.11914 -0.1777,-0.0586 -0.293,-0.0586 h -4.1191 l -0.2344,0.0586 -0.2344,0.0586 -0.2363,0.11914 -0.1758,0.11719 -0.1777,0.17578 -0.1172,0.17773 -0.1172,0.23438 -0.059,0.23438 v 0.23632 3.23438 l -6.9414,6.88281 v -47.763673 -0.29492 l -0.1172,-0.23438 -0.1191,-0.23633 -0.1758,-0.23437 -1.8828,-1.88281 1.8828,-1.88282 0.1758,-0.23437 0.1191,-0.23633 0.1172,-0.23437 v -0.29493 -60.23437 h 9.2344 v 8.76367 0.29492 l 0.059,0.23438 0.1777,0.23633 0.1758,0.23437 0.1777,0.17773 0.2344,0.11719 0.2949,0.0586 0.2344,0.0586 h 6.4707 l 0.2344,-0.0586 0.2363,-0.0586 0.1758,-0.11719 0.2363,-0.11914 0.1758,-0.17578 0.1172,-0.17578 0.1191,-0.23633 0.059,-0.23437 v -0.23633 -12.41211 -0.41016 l -0.1191,-0.4121 -0.1758,-0.35352 -0.2344,-0.35352 -0.2949,-0.23437002 -0.2949,-0.23633 -0.4102,-0.17578 -0.3535,-0.11719 h -0.4121 -188.7051 z m 22.5293,5.94141002 h 144.4707 V 178.46231 h -144.4707 z m -17.5293,178.234373 h 179.5293 v 264.82422 h -179.5293 z"
     style="fill:#212830;fill-opacity:1;stroke:#212830;stroke-width:0.0588235px;stroke-linecap:round;stroke-linejoin:round;stroke-miterlimit:4;stroke-dasharray:none;stroke-opacity:1"
     id="path853" />
</svg>
