<?xml version="1.0" encoding="UTF-8" standalone="no"?>
<svg
   xmlns:dc="http://purl.org/dc/elements/1.1/"
   xmlns:cc="http://creativecommons.org/ns#"
   xmlns:rdf="http://www.w3.org/1999/02/22-rdf-syntax-ns#"
   xmlns:svg="http://www.w3.org/2000/svg"
   xmlns="http://www.w3.org/2000/svg"
   id="svg1293"
   height="138mm"
   width="138mm"
   version="1.0">
  <metadata
     id="metadata1297">
    <rdf:RDF>
      <cc:Work
         rdf:about="">
        <dc:format>image/svg+xml</dc:format>
        <dc:type
           rdf:resource="http://purl.org/dc/dcmitype/StillImage" />
        <dc:title></dc:title>
      </cc:Work>
    </rdf:RDF>
  </metadata>
  <defs
     id="defs3" />
  <path
     d="m 118.96295,98.581347 -0.70508,0.0605 -0.70703,0.23438 -0.64649,0.29492 -0.52929,0.35156 -0.5293,0.529303 -0.41211,0.58984 -0.29297,0.64649 -0.17773,0.64648 -0.0586,0.70703 v 21.93946 l 0.0586,0.41211 0.0586,0.41211 0.17774,0.35351 0.29296,0.35157 0.29493,0.29492 0.35351,0.23632 0.35156,0.17579 0.41211,0.11718 0.41211,0.0586 h 11.35352 l 0.41016,-0.0586 0.4121,-0.11718 0.41211,-0.17579 0.35352,-0.23632 0.29297,-0.29492 0.23633,-0.35157 0.17578,-0.35351 0.11719,-0.41211 v -0.41211 -15.41016 h 16.23632 v 106 l 0.059,0.4707 0.1172,0.46876 0.2363,0.4121 0.293,0.41211 3.3535,3.29493 -3.3535,3.35156 -0.2344,0.29492 -0.1758,0.35352 -0.1777,0.35156 -0.059,0.35351 -0.059,0.35352 v 84.17578 l -12.1758,-12.17578 v -5.64649 -0.4707 l -0.1191,-0.41211 -0.1758,-0.35351 -0.23438,-0.35352 -0.29492,-0.29297 -0.35351,-0.23633 -0.41211,-0.17578 -0.41016,-0.11718 -0.41211,-0.0586 h -7.29492 l -0.4707,0.0586 -0.47071,0.11718 -0.4121,0.23438 -0.35157,0.29492 -0.29492,0.41211 -0.23437,0.41211 -0.17774,0.4707 v 0.4707 25.93946 l 0.0586,0.70703 0.17773,0.64648 0.29297,0.64649 0.41211,0.58984 0.4707,0.5293 0.58789,0.41016 0.64844,0.29492 0.70508,0.17578 0.70508,0.0605 h 20.23632 v 90.82227 H 71.140293 v -13.82227 l -0.0605,-0.64843 -0.17579,-0.70508 -0.29297,-0.64649 -0.4121,-0.58984 -0.5293,-0.4707 -0.58984,-0.41016 -0.5879,-0.29492 -0.70507,-0.17578 -0.70703,-0.0586 h -13.76368 -0.41211 l -0.41211,0.11719 -0.4121,0.17578 -0.35157,0.23633 -0.29492,0.29297 -0.23437,0.35352 -0.17774,0.41211 -0.11719,0.4121 -0.0586,0.41016 v 3.23633 l 0.0586,0.41211 0.11719,0.41016 0.17774,0.4121 0.23437,0.35352 0.29492,0.29492 0.35157,0.23438 0.4121,0.17578 0.41211,0.11914 h 0.41211 7.29492 v 12.17586 h -48.64843 v -12.17578 h 7.29492 0.41211 l 0.41016,-0.11914 0.4121,-0.17578 0.35387,-0.23438 0.29492,-0.29492 0.23438,-0.35352 0.17578,-0.4121 0.11914,-0.41016 v -0.41211 -3.23633 -0.41016 l -0.11914,-0.4121 -0.17578,-0.41211 -0.23438,-0.35352 -0.29492,-0.29297 -0.35352,-0.23633 -0.4121,-0.17578 -0.41016,-0.11719 H 19.257873 5.4922425 l -0.82226,0.0586 -0.70703,0.23437 -0.70508,0.35352 -0.64649,0.5293 -0.4707,0.58789 -0.41211,0.70508 -0.23633,0.76562 -0.0586,0.76562 v 20.29297 l 0.0586,0.82422 0.23633,0.76367 0.41211,0.64844 0.4707,0.64649 0.64649,0.4707 0.70508,0.41211 0.70703,0.23437 0.82226,0.0586 H 516.08016 l 0.8242,-0.0586 0.707,-0.23437 0.7051,-0.41211 0.6465,-0.4707 0.4707,-0.64649 0.4121,-0.64844 0.2344,-0.76367 0.061,-0.82422 v -16.35351 l -0.061,-0.76367 -0.2344,-0.76563 -0.4121,-0.70508 -0.4707,-0.64648 -4.4121,-4.35352 -0.293,-0.29492 -0.2949,-0.17578 -0.3516,-0.11719 -0.4121,-0.11719 h -0.3535 -6.4707 -0.4121 l -0.4121,0.11719 -0.4102,0.17578 -0.3535,0.23633 -0.2949,0.29297 -0.2344,0.35352 -0.1777,0.41211 -0.1172,0.4121 -0.059,0.41016 v 11.35352 h -12.1172 v -7.29492 l -0.059,-0.41016 -0.1172,-0.41211 -0.1777,-0.41211 -0.2344,-0.35352 -0.2949,-0.29296 -0.3535,-0.23633 -0.3516,-0.17578 -0.4121,-0.11719 -0.4707,-0.0586 h -13.7656 v -28.35351 h 28.3535 v 1.64648 l 0.059,0.41211 0.1172,0.41211 0.1777,0.35157 0.2344,0.35351 0.2949,0.29492 0.3535,0.23438 0.4102,0.17773 0.4121,0.11719 0.4121,0.0586 h 6.4711 l 0.3535,-0.0586 0.4121,-0.0586 0.3516,-0.17774 0.2949,-0.17578 0.293,-0.23438 4.4121,-4.4121 0.4707,-0.5879 0.4121,-0.70703 0.2344,-0.76367 0.061,-0.82422 v -0.11718 l -0.061,-0.70704 -0.1758,-0.70507 -0.293,-0.58789 -0.4121,-0.5879 -0.5293,-0.53124 -0.5293,-0.41016 -0.6484,-0.29492 -0.7051,-0.17578 -0.707,-0.0586 h -8.1172 v -96.29491 -0.4707 l -0.1758,-0.47071 -0.2363,-0.41211 -0.293,-0.35156 -3.3535,-3.35351 3.3535,-3.35352 0.2344,-0.29297 0.2363,-0.35351 0.1172,-0.35352 0.1172,-0.35351 v -0.35157 -96.35351 h 8.1172 l 0.707,-0.0586 0.7051,-0.17578 0.6484,-0.29492 0.5293,-0.41211 0.5293,-0.4707 0.4121,-0.58789 0.293,-0.64649 0.1758,-0.70703 0.061,-0.70508 v -0.11718 l -0.061,-0.76563 -0.2344,-0.76367 -0.4121,-0.70703 -0.4707,-0.64649 -4.4121,-4.35351 -0.293,-0.29297 -0.2949,-0.17774 -0.3516,-0.11718 -0.4121,-0.11719 h -0.3535 -6.4707 -0.4121 l -0.4121,0.11719 -0.4102,0.17578 -0.3535,0.23633 -0.2949,0.29297 -0.2344,0.35351 -0.1777,0.41211 -0.1172,0.41211 -0.059,0.41211 v 1.64648 h -28.3535 v -28.41211 h 13.7656 l 0.4707,-0.0586 0.4121,-0.11719 0.3516,-0.17773 0.3535,-0.23438 0.2949,-0.29492 0.2344,-0.35156 0.1777,-0.35352 0.1172,-0.41211 0.059,-0.41211 v -7.29296 h 12.1172 v 11.35156 l 0.059,0.41211 0.1172,0.41211 0.1777,0.35351 0.2344,0.35157 0.2949,0.29492 0.3535,0.23632 0.4102,0.17579 0.4121,0.11718 0.4121,0.0586 h 6.4703 l 0.3535,-0.0586 0.4121,-0.0586 0.3516,-0.17578 0.2949,-0.17774 0.293,-0.23437 4.4121,-4.41211 0.4707,-0.58789 0.4121,-0.70703 0.2344,-0.76367 0.061,-0.82422 v -16.35157 l -0.061,-0.70703 -0.1758,-0.64648 -0.293,-0.64649 -0.4121,-0.58984 -0.5293,-0.529303 -0.5293,-0.35156 -0.6484,-0.29492 -0.7051,-0.23438 -0.707,-0.0605 z m 38.88281,10.589843 h 307.1758 v 50.23438 l 0.059,0.4707 0.1191,0.41211 0.1758,0.35351 0.2363,0.35157 0.293,0.29492 0.3535,0.23437 0.3535,0.17774 0.4102,0.11719 0.4121,0.0586 h 24.3535 v 197.88281 h -24.3535 -0.4121 l -0.4102,0.11719 -0.3535,0.17578 -0.3535,0.23633 -0.293,0.35351 -0.2363,0.29297 -0.1758,0.41211 -0.1191,0.41211 -0.059,0.41211 v 50.29297 h -307.1758 v -42.17578 h 13.7656 l 0.4688,-0.0586 0.4707,-0.11914 0.4121,-0.23438 0.4121,-0.29492 0.2949,-0.35156 0.2344,-0.47071 0.1172,-0.41211 0.059,-0.4707 v -5.70508 l -0.059,-0.4707 -0.1172,-0.4707 -0.2344,-0.41211 -0.2949,-0.35352 -0.4121,-0.29297 -0.4121,-0.23633 -0.4707,-0.11718 -0.4688,-0.0586 h -13.7656 V 161.87627 h 13.7656 l 0.4688,-0.0586 0.4707,-0.11719 0.4121,-0.23633 0.4121,-0.29297 0.2949,-0.41211 0.2344,-0.41211 0.1172,-0.4707 0.059,-0.4707 v -5.64649 l -0.059,-0.4707 -0.1172,-0.4707 -0.2344,-0.41211 -0.2949,-0.35352 -0.4121,-0.35156 -0.4121,-0.17774 -0.4707,-0.17578 h -0.4688 -13.7656 z"
     style="fill:#212830;fill-opacity:1;stroke:#212830;stroke-width:0.0588235px;stroke-linecap:round;stroke-linejoin:round;stroke-miterlimit:4;stroke-dasharray:none;stroke-opacity:1"
     id="path1289" />
</svg>
