<?xml version="1.0" encoding="UTF-8" standalone="no"?>
<svg
   xmlns:dc="http://purl.org/dc/elements/1.1/"
   xmlns:cc="http://creativecommons.org/ns#"
   xmlns:rdf="http://www.w3.org/1999/02/22-rdf-syntax-ns#"
   xmlns:svg="http://www.w3.org/2000/svg"
   xmlns="http://www.w3.org/2000/svg"
   id="svg645"
   height="93mm"
   width="93mm"
   version="1.0">
  <metadata
     id="metadata649">
    <rdf:RDF>
      <cc:Work
         rdf:about="">
        <dc:format>image/svg+xml</dc:format>
        <dc:type
           rdf:resource="http://purl.org/dc/dcmitype/StillImage" />
        <dc:title></dc:title>
      </cc:Work>
    </rdf:RDF>
  </metadata>
  <defs
     id="defs3" />
  <path
     d="m 4.3943224,8.4540824 -0.70508,0.0586 -0.70703,0.17578 -0.64648,0.35351 -0.64649,0.41211 -0.4707,0.5293 -0.41211002,0.5878896 -0.35352,0.64649 -0.17578,0.70703 -0.0586,0.70507 v 22.587901 l 0.0586,0.4707 0.11719,0.4707 0.23633,0.4707 0.35156,0.35352 0.35352002,0.35352 0.41211,0.23437 0.4707,0.11719 0.5293,0.0605 H 14.452913 l 0.41211,-0.0605 0.41211,-0.11719 0.41211,-0.17578 0.35157,-0.23633 0.29492,-0.29297 0.29492,-0.41211 0.17578,-0.35351 0.11719,-0.41211 v -0.4707 -15.88086 h 16.70703 V 128.68846 l 0.0586,0.5293 0.17578,0.4707 0.23633,0.41211 0.29297,0.35351 3.4707,3.47071 -3.4707,3.4707 -0.29297,0.35351 -0.23633,0.41016 -0.17578,0.4707 -0.0586,0.5293 v 86.76563 l -12.5293,-12.5293 v -5.88281 -0.41211 l -0.11914,-0.41211 -0.17578,-0.41016 -0.29492,-0.35351 -0.29297,-0.29493 -0.35352,-0.29296 -0.41211,-0.17774 -0.4121,-0.11719 h -0.41016 -7.5293 -0.4707 l -0.41211,0.11719 -0.4121106,0.17774 -0.35352,0.29296 -0.29296,0.29493 -0.23633,0.35351 -0.17578,0.41016 -0.11719,0.41211 -0.0586,0.41211 v 45.17578 l 0.0586,0.41211 0.11719,0.4707 0.17578,0.35352 0.23633,0.35351 0.29296,0.35156 0.35352,0.23633 0.4121106,0.17578 0.41211,0.11719 0.4707,0.0586 h 3.35156 l 0.41211,-0.0586 0.41211,-0.11719 0.41211,-0.17578 0.35157,-0.23633 0.29492,-0.35156 0.29492,-0.35351 0.17578,-0.35352 0.11719,-0.4707 v -0.41211 -14.23438 h 16.70703 v 93.70508 H 16.923623 V 316.2783 l -0.0586,-0.5293 -0.11718,-0.4707 -0.23633,-0.41211 -0.29297,-0.41211 -0.41211,-0.29492 -0.41211,-0.23437 -0.4707,-0.11719 -0.47071,-0.0586 H 2.7478424 l -0.47071,0.0586 -0.41211,0.11719 -0.41211,0.17578 -0.35156,0.23633 -0.29492002,0.29296 -0.23438,0.35352 -0.17773,0.41211 -0.11719,0.41211 -0.0586,0.4707 v 22.58789 l 0.0586,0.70508 0.17578,0.70703 0.35352,0.64649 0.41211002,0.58789 0.4707,0.52929 0.64649,0.41211 0.64648,0.29492 0.70703,0.23438 0.70508,0.0586 H 347.10133 l 0.7637,-0.0586 0.6465,-0.23438 0.707,-0.29492 0.5879,-0.41211 0.5293,-0.52929 0.4121,-0.58789 0.293,-0.64649 0.1777,-0.70703 0.059,-0.70508 v -22.58789 -0.4707 l -0.1172,-0.41211 -0.1777,-0.41211 -0.293,-0.35352 -0.2949,-0.29296 -0.3535,-0.23633 -0.4102,-0.17578 -0.4121,-0.11719 -0.4121,-0.0586 h -11.7051 l -0.5293,0.0586 -0.4707,0.11719 -0.4121,0.23437 -0.3535,0.29492 -0.3535,0.41211 -0.2344,0.41211 -0.1172,0.4707 -0.059,0.5293 v 15.88086 h -16.707 v -93.70508 h 16.707 v 14.23438 l 0.059,0.4707 0.1172,0.4707 0.2344,0.47071 0.3535,0.35351 0.3535,0.29492 0.4121,0.23438 0.4707,0.17578 0.5293,0.0586 h 3.293 l 0.4707,-0.0586 0.4121,-0.11719 0.4121,-0.17578 0.3516,-0.23633 0.2949,-0.35156 0.2363,-0.35351 0.2344,-0.35352 0.059,-0.4707 0.059,-0.41211 v -45.17578 l -0.059,-0.41211 -0.059,-0.41211 -0.2344,-0.41016 -0.2363,-0.35351 -0.2949,-0.29493 -0.3516,-0.29296 -0.4121,-0.17774 -0.4121,-0.11719 h -0.4707 -7.4707 -0.4707 l -0.4121,0.11719 -0.4102,0.17774 -0.3535,0.29296 -0.2949,0.29493 -0.2344,0.35351 -0.1758,0.41016 -0.1191,0.41211 -0.059,0.41211 v 5.88281 l -12.5293,12.5293 v -86.76563 l -0.059,-0.41016 -0.059,-0.35351 -0.1758,-0.41211 -0.1777,-0.29492 -0.293,-0.29297 -3.4121,-3.4707 3.4121,-3.47071 0.3516,-0.35351 0.2363,-0.41211 0.1172,-0.4707 0.059,-0.5293 V 19.336903 h 16.707 v 15.88086 l 0.059,0.4707 0.1172,0.41211 0.1758,0.35351 0.2363,0.41211 0.293,0.29297 0.3535,0.23633 0.4121,0.17578 0.4121,0.11719 0.4707,0.0605 h 11.7051 l 0.4121,-0.0605 0.4121,-0.11719 0.4102,-0.17578 0.3535,-0.23633 0.2949,-0.29297 0.293,-0.41211 0.1777,-0.35351 0.1172,-0.41211 v -0.4707 -22.587901 l -0.059,-0.70507 -0.1777,-0.70703 -0.293,-0.64649 -0.4117,-0.5878896 -0.5293,-0.5293 -0.5879,-0.41211 -0.707,-0.35351 -0.6465,-0.17578 -0.7637,-0.0586 z M 44.511513,19.336903 H 306.98223 V 332.15916 H 44.511513 Z"
     style="fill:#212830;fill-opacity:1;stroke:#212830;stroke-width:0.0588235px;stroke-linecap:round;stroke-linejoin:round;stroke-miterlimit:4;stroke-dasharray:none;stroke-opacity:1"
     id="path641" />
</svg>
