<?xml version="1.0" encoding="UTF-8" standalone="no"?>
<svg
   xmlns:dc="http://purl.org/dc/elements/1.1/"
   xmlns:cc="http://creativecommons.org/ns#"
   xmlns:rdf="http://www.w3.org/1999/02/22-rdf-syntax-ns#"
   xmlns:svg="http://www.w3.org/2000/svg"
   xmlns="http://www.w3.org/2000/svg"
   id="svg1053"
   height="159mm"
   width="159mm"
   version="1.0">
  <metadata
     id="metadata1057">
    <rdf:RDF>
      <cc:Work
         rdf:about="">
        <dc:format>image/svg+xml</dc:format>
        <dc:type
           rdf:resource="http://purl.org/dc/dcmitype/StillImage" />
        <dc:title></dc:title>
      </cc:Work>
    </rdf:RDF>
  </metadata>
  <defs
     id="defs3" />
  <path
     d="m 118.12148,138.26639 -0.707,0.0605 -0.7051,0.17579 -0.6484,0.29297 -0.5879,0.4121 -0.4707,0.47071 -0.4121,0.58789 -0.293,0.64844 -0.1758,0.70507 -0.061,0.70703 v 21.88086 0.47071 l 0.1777,0.4707 0.2344,0.41211 0.2949,0.35352 0.3535,0.29296 0.4102,0.23633 0.4707,0.17578 h 0.4707 11.3535 0.4121 l 0.4121,-0.11718 0.4102,-0.17579 0.2949,-0.23632 0.3535,-0.29492 0.2344,-0.35157 0.1777,-0.41211 0.1172,-0.41211 v -0.41211 -15.4121 h 16.2344 v 106.06054 l 0.059,0.4707 0.1191,0.46876 0.2344,0.4121 0.2949,0.35352 3.3516,3.35352 -3.3516,3.35156 -0.2363,0.29492 -0.2344,0.29492 -0.1191,0.35156 -0.1172,0.35352 v 0.41211 84.11719 l -12.1758,-12.11719 v -5.70703 l -0.059,-0.41016 -0.059,-0.41211 -0.1777,-0.41211 -0.293,-0.29492 -0.2949,-0.35156 -0.3535,-0.23633 -0.3516,-0.17578 -0.4121,-0.11719 h -0.4121 -7.2949 l -0.4688,0.0586 -0.4707,0.11718 -0.4121,0.23438 -0.3535,0.29492 -0.3535,0.35352 -0.1758,0.4121 -0.1758,0.46876 -0.059,0.4707 v 25.9414 l 0.059,0.70704 0.2344,0.70507 0.2949,0.64649 0.4121,0.58984 0.4688,0.4707 0.5898,0.41016 0.6465,0.29492 0.6465,0.17578 0.707,0.0586 h 20.293 v 90.82422 H 70.296382 v -13.76368 l -0.059,-0.70703 -0.2363,-0.70507 -0.293,-0.64844 -0.4121,-0.5293 -0.4707,-0.5293 -0.5879,-0.4121 -0.6484,-0.29297 -0.6465,-0.17579 -0.7051,-0.0605 h -13.8242 l -0.4121,0.0605 -0.4121,0.11719 -0.3516,0.17578 -0.3535,0.23633 -0.2949,0.29297 -0.2344,0.35352 -0.1758,0.35351 -0.1191,0.41016 -0.059,0.41211 v 3.29492 l 0.059,0.41211 0.1191,0.41016 0.1758,0.35351 0.2344,0.35352 0.2949,0.29297 0.3535,0.23632 0.3516,0.17578 0.4121,0.11914 0.4121,0.0586 h 7.2949 v 12.17582 h -48.58788 v -12.17578 h 7.29297 l 0.41211,-0.0586 0.41211,-0.11914 0.35157,-0.17578 0.35351,-0.23632 0.29492,-0.29297 0.29297,-0.35352 0.17774,-0.35351 0.11718,-0.41016 v -0.41211 -3.29492 -0.41211 l -0.11718,-0.41016 -0.17774,-0.35351 -0.29297,-0.35352 -0.29492,-0.29297 -0.35351,-0.23633 -0.35157,-0.17578 -0.41211,-0.11719 -0.41211,-0.0605 H 4.6495019 l -0.70703,0.0605 -0.70508,0.17579 -0.64843,0.29297 -0.5879,0.4121 -0.4707001,0.5293 -0.41016,0.5293 -0.29491998,0.64844 -0.17578,0.70507 -0.0605,0.70703 v 20.29297 l 0.0605,0.70703 0.17578,0.64649 0.29491998,0.64648 0.41016,0.58789 0.4707001,0.47071 0.5879,0.41211 0.64843,0.29492 0.70508,0.23437 0.70703,0.0586 H 458.47178 l 0.707,-0.0586 0.7051,-0.23437 0.6465,-0.29492 0.5898,-0.41211 0.4688,-0.47071 0.4121,-0.58789 0.2949,-0.64648 0.1758,-0.64649 0.059,-0.70703 v -52.76367 h 70.5293 0.4121 l 0.4121,-0.11914 0.4121,-0.17578 0.3535,-0.23438 0.293,-0.29492 0.2363,-0.35351 0.1758,-0.41211 0.1172,-0.41016 v -0.41211 -7.29492 -0.41211 l -0.1172,-0.41016 -0.1758,-0.4121 -0.2363,-0.35352 -0.293,-0.29492 -0.3535,-0.23438 -0.4121,-0.17578 -0.4121,-0.11914 h -0.4121 -30 v -88.23437 -0.35352 l -0.1172,-0.41211 -0.1172,-0.35156 -0.2363,-0.29492 -0.2344,-0.29492 -3.3535,-3.35157 3.3535,-3.35351 0.2949,-0.35352 0.2344,-0.41016 0.1172,-0.4707 0.059,-0.4707 V 148.79569 h 27.5898 v 13.76562 l 0.059,0.70508 0.1758,0.70703 0.2949,0.64648 0.4102,0.58789 0.4707,0.47071 0.5898,0.41211 0.6465,0.29492 0.7051,0.17578 0.6484,0.0586 h 13.8223 0.4121 l 0.4121,-0.11718 0.3535,-0.17579 0.3516,-0.23632 0.2949,-0.29492 0.293,-0.35157 0.1777,-0.41211 0.059,-0.41211 0.059,-0.41211 v -3.23437 l -0.059,-0.41211 -0.059,-0.41211 -0.1777,-0.41211 -0.293,-0.35156 -0.2949,-0.29492 -0.3516,-0.23438 -0.3535,-0.17773 -0.4121,-0.11719 -0.4121,-0.0586 h -7.293 v -12.11719 h 48.5879 v 12.11719 h -7.2949 l -0.4121,0.0586 -0.4102,0.11719 -0.3535,0.17773 -0.3535,0.23438 -0.293,0.29492 -0.2363,0.35156 -0.1758,0.41211 -0.1172,0.41211 -0.061,0.41211 v 3.23437 l 0.061,0.41211 0.1172,0.41211 0.1758,0.41211 0.2363,0.35157 0.293,0.29492 0.3535,0.23632 0.3535,0.17579 0.4102,0.11718 h 0.4121 13.8242 l 0.7051,-0.0586 0.6484,-0.17578 0.6465,-0.29492 0.5879,-0.41211 0.4707,-0.47071 0.4121,-0.58789 0.293,-0.64648 0.1777,-0.70703 0.1173,-0.70508 v -20.23438 l -0.1172,-0.70703 -0.1777,-0.70507 -0.293,-0.64844 -0.4121,-0.58789 -0.4707,-0.47071 -0.5879,-0.4121 -0.6465,-0.29297 -0.6484,-0.17579 -0.7051,-0.0605 z m 38.8809,10.5293 h 335.5293 v 246.53124 h -38.1172 l -0.4121,0.0586 -0.4121,0.11719 -0.3516,0.17578 -0.3535,0.23633 -0.2949,0.29296 -0.2344,0.35352 -0.1758,0.35352 -0.1191,0.4121 -0.059,0.46876 v 54.29492 h -295 v -46.23438 h 13.7656 0.4121 l 0.4102,-0.11914 0.4121,-0.17578 0.3535,-0.23438 0.2949,-0.29492 0.2344,-0.35351 0.1758,-0.41211 0.1191,-0.41016 v -0.41211 -5.64843 -0.46876 l -0.1191,-0.4121 -0.1758,-0.35352 -0.2344,-0.35352 -0.2949,-0.29296 -0.3535,-0.23633 -0.4121,-0.17578 -0.4102,-0.11719 -0.4121,-0.0586 h -13.7656 z"
     style="fill:#212830;fill-opacity:1;stroke:#212830;stroke-width:0.0588235px;stroke-linecap:round;stroke-linejoin:round;stroke-miterlimit:4;stroke-dasharray:none;stroke-opacity:1"
     id="path1049" />
</svg>
