<?xml version="1.0" encoding="UTF-8" standalone="no"?>
<svg
   xmlns:dc="http://purl.org/dc/elements/1.1/"
   xmlns:cc="http://creativecommons.org/ns#"
   xmlns:rdf="http://www.w3.org/1999/02/22-rdf-syntax-ns#"
   xmlns:svg="http://www.w3.org/2000/svg"
   xmlns="http://www.w3.org/2000/svg"
   id="svg1005"
   height="118mm"
   width="118mm"
   version="1.0">
  <metadata
     id="metadata1009">
    <rdf:RDF>
      <cc:Work
         rdf:about="">
        <dc:format>image/svg+xml</dc:format>
        <dc:type
           rdf:resource="http://purl.org/dc/dcmitype/StillImage" />
        <dc:title></dc:title>
      </cc:Work>
    </rdf:RDF>
  </metadata>
  <defs
     id="defs3" />
  <path
     d="m 122.72632,55.698177 -0.7637,0.0586 -0.707,0.23632 -0.6465,0.29297 -0.5879,0.41211 -0.5293,0.5293 -0.4121,0.58789 -0.2949,0.64649 -0.1758,0.70703 -0.059,0.70507 v 22.5879 0.53124 l 0.1758,0.46876 0.2363,0.4121 0.293,0.35352 0.3535,0.35352 0.4707,0.23437 0.4707,0.11719 0.4707,0.0605 h 11.7051 l 0.4121,-0.0605 0.4707,-0.11719 0.3535,-0.17578 0.3516,-0.23633 0.3535,-0.29297 0.2363,-0.35351 0.1758,-0.41211 0.1172,-0.41211 0.059,-0.4707 v -15.88086 h 16.707 v 109.351563 0.41211 l 0.1172,0.41211 0.1758,0.35351 0.1777,0.29297 0.2344,0.35352 3.4707,3.41211 -3.4707,3.4707 -0.2344,0.29297 -0.1777,0.35351 -0.1758,0.35352 -0.1172,0.35351 v 0.41016 86.76563 l -12.5293,-12.5293 v -5.88281 l -0.059,-0.41211 -0.1191,-0.41211 -0.1758,-0.41016 -0.2363,-0.35351 -0.293,-0.29493 -0.4121,-0.29296 -0.3535,-0.17774 -0.4102,-0.11719 h -0.4707 -7.5293 -0.4121 l -0.4121,0.11719 -0.4121,0.17774 -0.3535,0.29296 -0.293,0.29493 -0.2949,0.35351 -0.1758,0.41016 -0.1172,0.41211 v 0.41211 26.76562 l 0.059,0.76367 0.1758,0.70703 0.2949,0.64649 0.4102,0.58789 0.5312,0.5293 0.5879,0.41211 0.6465,0.29297 0.7051,0.17773 0.7656,0.0586 h 20.8828 v 93.70508 H 73.374742 V 365.1689 l -0.0605,-0.70703 -0.17578,-0.70508 -0.29492,-0.64649 -0.41016,-0.58789 -0.5293,-0.5293 -0.58984,-0.4121 -0.70512,-0.35353 -0.70508,-0.17578 -0.70703,-0.0586 h -14.17578 l -0.4707,0.0586 -0.41211,0.11719 -0.41211,0.17578 -0.35157,0.23633 -0.29492,0.29296 -0.23632,0.41211 -0.17579,0.35352 -0.11718,0.41211 -0.0586,0.4707 v 3.35156 l 0.0586,0.47071 0.11718,0.4707 0.23633,0.41211 0.29297,0.41211 0.41211,0.29297 0.41211,0.23633 0.4707,0.17578 h 0.5293 7.4707 v 12.58789 h -50.11719 v -12.58789 h 7.5293 0.41016 l 0.41211,-0.11719 0.41211,-0.17578 0.35351,-0.29492 0.29297,-0.29492 0.29492,-0.35157 0.17578,-0.41211 0.11914,-0.41211 v -0.41211 -3.35156 -0.4707 l -0.11914,-0.41211 -0.17578,-0.35352 -0.29492,-0.41211 -0.29297,-0.29296 -0.35351,-0.23633 -0.41211,-0.17578 -0.41211,-0.11719 -0.41016,-0.0586 H 5.6677119 l -0.70507,0.0586 -0.70704,0.17578 -0.64648,0.35352 -0.58789,0.4121 -0.5293,0.5293 -0.41211,0.58789 -0.35351,0.64649 -0.17578,0.70508 -0.0586,0.70703 v 20.9414 l 0.0586,0.70508 0.17578,0.70703 0.35351,0.64649 0.41211,0.58789 0.5293,0.52929 0.58789,0.41211 0.64648,0.35352 0.70704,0.17578 0.70507,0.0586 H 323.31422 l 0.707,-0.0586 0.7051,-0.17578 0.6484,-0.35352 0.6465,-0.41211 0.4707,-0.52929 0.4121,-0.58789 0.3516,-0.64649 0.1777,-0.70703 0.059,-0.70508 V 363.5224 l -0.059,-0.4707 -0.1191,-0.41211 -0.1758,-0.35352 -0.2344,-0.41211 -0.2949,-0.29296 -0.3535,-0.23633 -0.4121,-0.17578 -0.4102,-0.11719 -0.4707,-0.0586 h -11.707 l -0.4707,0.0586 -0.4707,0.11719 -0.4102,0.23437 -0.4121,0.35352 -0.2949,0.35351 -0.2344,0.47071 -0.1191,0.4707 -0.059,0.4707 v 15.88086 h -16.7051 V 270.0517 l -0.059,-0.5293 -0.1777,-0.4707 -0.2344,-0.41211 -0.2949,-0.35352 -3.4102,-3.4707 3.4102,-3.4707 0.2363,-0.29297 0.2344,-0.29492 0.1777,-0.41211 0.059,-0.35157 0.059,-0.4121 v -86.76563 l 12.5293,12.5293 v 5.88281 l 0.059,0.4707 0.1172,0.47071 0.2363,0.41211 0.293,0.4121 0.4121,0.29297 0.4121,0.23633 0.4707,0.17578 h 0.4707 7.5293 0.4707 l 0.4121,-0.11718 0.4121,-0.17774 0.3516,-0.29297 0.2949,-0.29492 0.2344,-0.35351 0.1777,-0.41016 0.1172,-0.41211 0.059,-0.41211 v -26.76562 l -0.059,-0.76368 -0.1758,-0.70508 -0.3535,-0.64843 -0.4121,-0.58789 -0.4707,-0.5293 -0.6465,-0.41211 -0.6465,-0.29297 -0.707,-0.17773 -0.7051,-0.0586 h -20.8828 V 66.580997 h 78.5289 v 14.23437 l 0.059,0.70703 0.2363,0.70508 0.293,0.64648 0.4121,0.64844 0.5293,0.4707 0.5879,0.41016 0.6484,0.35352 0.7051,0.17578 0.7051,0.0605 h 14.2363 l 0.4121,-0.0605 0.4707,-0.11719 0.3516,-0.17578 0.3535,-0.23633 0.3535,-0.29297 0.2344,-0.35351 0.1777,-0.41211 0.1172,-0.41211 0.059,-0.4707 v -3.35157 l -0.059,-0.41211 -0.1172,-0.41211 -0.1777,-0.41211 -0.2344,-0.35156 -0.3539,-0.29492 -0.3535,-0.29492 -0.3516,-0.17578 -0.4707,-0.11719 h -0.4121 -7.5293 v -12.58789 h 50.1758 v 12.58789 h -7.5293 l -0.5293,0.0586 -0.4707,0.11719 -0.4121,0.23633 -0.3516,0.29297 -0.3535,0.41211 -0.2363,0.41211 -0.1172,0.4707 -0.059,0.4707 v 3.35157 l 0.059,0.53124 0.1172,0.46876 0.2363,0.4121 0.3535,0.35352 0.3516,0.35352 0.4121,0.23437 0.4707,0.11719 0.5293,0.0605 h 14.1758 l 0.7656,-0.0605 0.7051,-0.17578 0.6484,-0.35352 0.5879,-0.41016 0.5293,-0.4707 0.4121,-0.64844 0.293,-0.64648 0.1777,-0.70508 0.059,-0.70703 v -20.94141 l -0.059,-0.70507 -0.1777,-0.70703 -0.293,-0.64649 -0.4121,-0.58789 -0.5293,-0.5293 -0.5879,-0.41211 -0.6484,-0.29297 -0.7051,-0.23632 -0.7656,-0.0586 z m 40.1172,10.88282 h 120.3535 V 379.40326 h -120.3535 z"
     style="fill:#212830;fill-opacity:1;stroke:#212830;stroke-width:0.0588235px;stroke-linecap:round;stroke-linejoin:round;stroke-miterlimit:4;stroke-dasharray:none;stroke-opacity:1"
     id="path1003" />
</svg>
