<?xml version="1.0" encoding="UTF-8" standalone="no"?>
<svg
   xmlns:dc="http://purl.org/dc/elements/1.1/"
   xmlns:cc="http://creativecommons.org/ns#"
   xmlns:rdf="http://www.w3.org/1999/02/22-rdf-syntax-ns#"
   xmlns:svg="http://www.w3.org/2000/svg"
   xmlns="http://www.w3.org/2000/svg"
   id="svg851"
   height="139mm"
   width="139mm"
   version="1.0">
  <metadata
     id="metadata855">
    <rdf:RDF>
      <cc:Work
         rdf:about="">
        <dc:format>image/svg+xml</dc:format>
        <dc:type
           rdf:resource="http://purl.org/dc/dcmitype/StillImage" />
        <dc:title></dc:title>
      </cc:Work>
    </rdf:RDF>
  </metadata>
  <defs
     id="defs3" />
  <path
     d="m 177.20647,1.3236512 -0.5879,0.0586 -0.5293,0.17773 -0.4707,0.17578 -0.4707,0.35352 -0.4121,0.3535101 -0.293,0.4707 -0.2363,0.5293 -0.1172,0.5293 -0.059,0.5293 v 266.1171787 20.29492 0.29297 l 0.1172,0.35352 0.1172,0.29297 0.1777,0.23633 0.2344,0.23437 0.2949,0.23633 0.293,0.11719 0.3535,0.0586 0.2949,0.0586 h 8.8809 l 0.2949,-0.0586 0.35349,-0.0586 0.293,-0.11719 0.2949,-0.23633 0.2344,-0.23437 0.1777,-0.23633 0.1172,-0.29297 0.1172,-0.35352 v -0.29297 -12.06054 h 12.6465 v 82.82422 l 0.061,0.41211 0.1172,0.35351 0.1758,0.29297 0.2363,0.29492 2.5879,2.64649 -2.5879,2.58789 -0.1777,0.23633 -0.1758,0.23437 -0.1172,0.29492 -0.059,0.29297 -0.061,0.29492 v 65.70508 l -9.4707,-9.4707 v -4.41016 l -0.059,-0.35351 -0.059,-0.35352 -0.1172,-0.29297 -0.2344,-0.23633 -0.2363,-0.23437 -0.2344,-0.17774 -0.2949,-0.17578 -0.3535,-0.0586 -0.293,-0.0586 h -5.70699 l -0.3516,0.0586 -0.2949,0.0586 -0.2949,0.17578 -0.293,0.17774 -0.2363,0.23437 -0.1758,0.23633 -0.1758,0.29297 -0.059,0.35352 -0.061,0.35351 v 20.23438 l 0.061,0.58789 0.1758,0.52929 0.2344,0.47071 0.2949,0.4707 0.4121,0.35352 0.4121,0.35351 0.5293,0.23438 0.5293,0.11718 0.5293,0.0586 h 15.82229 v 70.9414 h -59.47069 v -10.76367 l -0.059,-0.52929 -0.1758,-0.5293 -0.2344,-0.5293 -0.2949,-0.41211 -0.4121,-0.41211 -0.4121,-0.29492 -0.5293,-0.23437 -0.5293,-0.17579 -0.5293,-0.0605 h -10.7637 l -0.4121,0.0605 -0.3535,0.11719 -0.2949,0.17578 -0.293,0.23633 -0.2363,0.29297 -0.1758,0.29492 -0.1172,0.35157 -0.059,0.4121 v 2.5293 l 0.059,0.35352 0.1172,0.35351 0.1758,0.35157 0.2363,0.29492 0.293,0.23632 0.2949,0.17579 0.3535,0.11718 h 0.4121 5.7051 v 9.5293 H 93.616166 v -9.5293 h 5.7051 0.2949 l 0.3535,-0.11718 0.293004,-0.11719 0.2363,-0.17774 0.2344,-0.23437 0.2363,-0.29492 0.1172,-0.29297 0.059,-0.35352 0.059,-0.29492 v -2.5293 l -0.059,-0.4121 -0.1172,-0.35157 -0.1777,-0.29492 -0.2344,-0.29297 -0.2344,-0.23633 -0.3535,-0.17578 -0.353504,-0.11719 -0.3535,-0.0605 h -10.7637 l -0.5879,0.0605 -0.5293,0.17579 -0.4707,0.23437 -0.4707,0.29492 -0.4121,0.41211 -0.2949,0.41211 -0.2344,0.5293 -0.1172,0.5293 -0.059,0.52929 v 15.88281 l 0.059,0.5293 0.1172,0.5293 0.2344,0.5293 0.2949,0.4121 0.4121,0.41016 0.4707,0.29492 0.4707,0.23438 0.5293,0.17773 h 0.5879 348.234394 0.5293 l 0.5293,-0.17773 0.5312,-0.23438 0.4688,-0.29492 0.3535,-0.41016 0.3535,-0.4121 0.2344,-0.5293 0.1191,-0.5293 0.059,-0.5293 v -17.11914 l -0.059,-0.35156 -0.061,-0.29492 -0.1172,-0.29492 -0.2344,-0.29297 -0.2363,-0.23633 -0.2344,-0.17578 -0.2949,-0.17578 -0.3516,-0.0586 -0.2949,-0.0605 h -8.8828 l -0.3535,0.0605 -0.3516,0.11719 -0.3535,0.17578 -0.2949,0.23633 -0.2344,0.29297 -0.1758,0.29492 -0.1191,0.35157 v 0.4121 12 h -12.7026 v -70.9414 h 12.7051 v 10.76562 0.35352 l 0.1191,0.41016 0.1758,0.29492 0.2344,0.29492 0.2949,0.23437 0.3535,0.17579 0.3516,0.11914 h 0.3535 2.5293 0.3535 l 0.2949,-0.0586 0.293,-0.17773 0.2949,-0.17578 0.2344,-0.23633 0.1777,-0.29297 0.1172,-0.29492 0.1172,-0.29297 v -0.35352 -34.17578 -0.35351 l -0.1172,-0.35352 -0.1172,-0.29297 -0.1777,-0.23633 -0.2344,-0.23437 -0.2949,-0.17774 -0.293,-0.17578 -0.2949,-0.0586 -0.3535,-0.0586 h -5.7051 l -0.3535,0.0586 -0.3535,0.11719 -0.3516,0.17578 -0.2949,0.23633 -0.2344,0.29297 -0.1777,0.29492 -0.1172,0.35351 v 0.41211 4.41016 l -9.5293,9.4707 v -65.70508 -0.29492 l -0.059,-0.29297 -0.1172,-0.29492 -0.1777,-0.23437 -0.1758,-0.23633 -2.6465,-2.58789 2.6465,-2.64649 0.2344,-0.29492 0.1777,-0.29297 0.1172,-0.35351 v -0.41211 -82.82422 h 12.7051 v 12.06054 0.35157 l 0.1191,0.35351 0.1758,0.35352 0.2344,0.29297 0.2949,0.23633 0.3535,0.17578 0.3516,0.0586 0.3535,0.0586 h 8.8828 l 0.2949,-0.0586 0.3516,-0.0586 0.2949,-0.11719 0.2344,-0.23633 0.2363,-0.23437 0.2344,-0.23633 0.1172,-0.29297 0.061,-0.35352 0.059,-0.29297 V 270.61857 4.5013913 l -0.059,-0.5293 -0.1191,-0.5293 -0.2344,-0.5293 -0.3535,-0.4707 -0.3535,-0.3535101 -0.4688,-0.35352 -0.5312,-0.17578 -0.5293,-0.17773 -0.5293,-0.0586 z m 5.0586,8.2363301 H 431.73576 V 270.61857 H 182.26507 Z M 207.55996,278.85295 h 198.8242 v 236.9414 h -198.8242 z"
     style="fill:#212830;fill-opacity:1;stroke:#212830;stroke-width:0.0588235px;stroke-linecap:round;stroke-linejoin:round;stroke-miterlimit:4;stroke-dasharray:none;stroke-opacity:1"
     id="path849" />
</svg>
