<?xml version="1.0" encoding="UTF-8" standalone="no"?>
<svg
   xmlns:dc="http://purl.org/dc/elements/1.1/"
   xmlns:cc="http://creativecommons.org/ns#"
   xmlns:rdf="http://www.w3.org/1999/02/22-rdf-syntax-ns#"
   xmlns:svg="http://www.w3.org/2000/svg"
   xmlns="http://www.w3.org/2000/svg"
   id="svg1429"
   height="144mm"
   width="144mm"
   version="1.0">
  <metadata
     id="metadata1433">
    <rdf:RDF>
      <cc:Work
         rdf:about="">
        <dc:format>image/svg+xml</dc:format>
        <dc:type
           rdf:resource="http://purl.org/dc/dcmitype/StillImage" />
        <dc:title></dc:title>
      </cc:Work>
    </rdf:RDF>
  </metadata>
  <defs
     id="defs3" />
  <path
     d="m 192.27183,0.53712013 -0.29297,0.119141 -0.29492,0.117187 -0.29492,0.23437497 -0.23438,0.236328 -0.17578,0.234375 -0.17773,0.3535161 -0.0586,0.294922 -0.0586,0.351562 v 398.4707038 0.17773 l 0.0586,0.23438 0.11719,0.17578 0.11914,0.17773 0.11719,0.11719 0.17578,0.11719 0.17773,0.0586 0.17579,0.0586 0.23437,0.0605 h 5.41211 l 0.23633,-0.0605 0.23437,-0.0586 0.17579,-0.11719 0.17773,-0.11718 0.17578,-0.17579 0.0586,-0.23632 0.11914,-0.17578 v -0.23633 -7.35157 h 7.76368 v 50.70508 0.17578 l 0.0586,0.17774 0.0586,0.17578 0.11914,0.17578 0.11719,0.11914 1.58789,1.58789 -1.58789,1.58789 -0.11719,0.17578 -0.11914,0.11914 -0.0586,0.17579 -0.0586,0.17578 v 0.17773 40.29297 l -5.82422,-5.82227 v -2.70703 -0.23437 l -0.11719,-0.23633 -0.0586,-0.17578 -0.17578,-0.17773 -0.17774,-0.17579 -0.17578,-0.11718 -0.23438,-0.0586 h -0.23632 -3.47071 -0.23437 l -0.17774,0.0586 -0.17578,0.0586 -0.17578,0.11719 -0.11914,0.17773 -0.11719,0.17578 -0.11718,0.17578 -0.0586,0.17774 v 0.23435 20.94141 0.23438 l 0.11719,0.17773 0.0586,0.23437 0.17579,0.17774 0.17773,0.11719 0.17578,0.11718 0.23633,0.0586 0.23437,0.0586 h 1.5293 l 0.23633,-0.0586 0.23437,-0.0586 0.17579,-0.11718 0.17773,-0.11719 0.17578,-0.17774 0.0586,-0.23437 0.11914,-0.17773 v -0.23438 -6.58789 h 7.76368 v 43.41211 h -7.76368 v -7.35352 -0.17578 l -0.0605,-0.23633 -0.11719,-0.17578 -0.11719,-0.17773 -0.11718,-0.11719 -0.17774,-0.11719 -0.17585,-0.11718 h -0.17578 l -0.23633,-0.0586 h -5.41211 l -0.23437,0.0586 h -0.17579 l -0.17773,0.11718 -0.17578,0.11719 -0.11719,0.11719 -0.11914,0.17773 -0.11719,0.17578 -0.0586,0.23633 v 0.17578 10.47071 l 0.0586,0.35351 0.0586,0.29297 0.17773,0.35352 0.17578,0.23437 0.23438,0.23633 0.29492,0.23437 0.29492,0.11914 0.29297,0.11719 h 0.35352 158.99999 0.293 l 0.3535,-0.11719 0.2949,-0.11914 0.293,-0.23437 0.2363,-0.23633 0.1758,-0.23437 0.1777,-0.35352 0.059,-0.29297 0.059,-0.35351 v -10.47071 l -0.059,-0.17578 -0.059,-0.23633 -0.061,-0.17578 -0.1172,-0.17773 -0.1172,-0.11719 -0.1758,-0.11719 -0.1777,-0.11718 h -0.2344 l -0.1777,-0.0586 h -5.4102 l -0.2363,0.0586 h -0.1758 l -0.1777,0.11718 -0.1758,0.11719 -0.1758,0.11719 -0.1191,0.17773 -0.059,0.17578 -0.059,0.23633 v 0.17578 7.35352 h -7.7637 v -43.41211 h 7.7637 v 6.58789 0.23438 l 0.059,0.17773 0.1191,0.23437 0.1758,0.17774 0.1758,0.11719 0.1777,0.11718 0.2344,0.0586 0.2363,0.0586 h 1.5293 l 0.2344,-0.0586 0.2363,-0.0586 0.1758,-0.11718 0.1758,-0.11719 0.1191,-0.17774 0.1172,-0.23437 0.059,-0.17773 0.0591,-0.23438 v -20.94141 l -0.059,-0.23437 v -0.17774 l -0.1172,-0.17578 -0.1191,-0.17578 -0.1172,-0.17773 -0.1758,-0.11719 -0.1777,-0.0586 -0.2344,-0.0586 h -0.1758 -3.4707 -0.2363 l -0.2344,0.0586 -0.1777,0.11718 -0.1758,0.17579 -0.1758,0.17773 -0.1191,0.17578 -0.059,0.23633 v 0.23437 2.70703 l -5.8223,5.82227 v -40.29297 -0.17773 l -0.059,-0.17578 -0.061,-0.17579 -0.1172,-0.11914 -0.1172,-0.17578 -1.5879,-1.58789 1.5879,-1.58789 0.1172,-0.11914 0.1172,-0.17578 0.061,-0.17578 0.059,-0.17774 v -0.17578 -50.70508 h 7.7637 v 7.35157 0.17773 l 0.059,0.23438 0.059,0.17578 0.1191,0.17773 0.1758,0.11719 0.1758,0.11719 0.1777,0.0586 0.1758,0.0586 0.2363,0.0605 h 5.4102 l 0.1777,-0.0605 0.2344,-0.0586 0.1777,-0.0586 0.1758,-0.11719 0.1172,-0.11719 0.1172,-0.17773 0.061,-0.17578 0.059,-0.23438 0.059,-0.17773 V 2.4785262 l -0.059,-0.351562 -0.059,-0.294922 -0.1777,-0.3535161 -0.1758,-0.234375 -0.2363,-0.236328 -0.293,-0.23437497 -0.2949,-0.117187 -0.3535,-0.119141 h -0.293 -158.99999 z m 79.82421,7.35351607 1.5879,0.175781 1.4707,0.412109 1.4121,0.707032 1.1758,0.9999998 1.0586,1.175781 0.7656,1.353515 0.4707,1.470704 0.2344,1.58789 -0.1172,1.529297 -0.3535,1.529297 -0.7051,1.412109 -0.8828,1.234375 -1.1758,1.058594 -0.1777,0.119141 -0.1172,0.175781 -0.0586,0.234375 -0.059,0.177734 -0.059,0.175782 0.059,0.236328 v 0.175781 l 0.1172,0.234375 2.5293,4.353515 0.1172,0.17773 0.1777,0.17579 0.1758,0.11718 0.1758,0.0586 0.2363,0.0586 h 0.1758 0.2363 l 0.1758,-0.0586 0.1758,-0.11719 2.2363,-1.882812 1.8242,-2.234376 1.4102,-2.529296 0.8828,-2.765625 0.3535,-2.882813 -0.1758,-2.880859 -0.707,-2.765625 -0.1172,-0.353516 v -0.410156 l 0.059,-0.3535158 0.1172,-0.353515 0.1777,-0.292969 0.2344,-0.294922 0.2949,-0.234375 0.3516,-0.177734 0.3535,-0.117188 h 0.3535 59.9414 V 168.12696 H 195.74253 V 8.3027452 h 59.94141 0.3535 l 0.3516,0.117188 0.3535,0.177734 0.2949,0.234375 0.2344,0.294922 0.1777,0.292969 0.1172,0.353515 0.059,0.3535158 -0.059,0.410156 -0.059,0.353516 -0.707,2.765625 -0.1758,2.880859 0.3535,2.882813 0.8809,2.765625 1.4121,2.529296 1.8242,2.234376 2.2344,1.882812 0.1777,0.11719 0.1758,0.0586 h 0.2344 0.1777 l 0.2344,-0.0586 0.1777,-0.0586 0.1758,-0.11718 0.1758,-0.17579 0.1191,-0.17773 2.5293,-4.353515 0.059,-0.234375 0.059,-0.175781 0.059,-0.236328 -0.059,-0.175782 -0.059,-0.177734 -0.059,-0.234375 -0.1777,-0.175781 -0.1172,-0.119141 -1.1758,-1.058594 -0.8828,-1.234375 -0.7047,-1.412109 -0.3535,-1.529297 -0.1172,-1.529297 0.2344,-1.58789 0.4707,-1.470704 0.7656,-1.353515 1,-1.175781 1.2344,-0.9999998 1.4121,-0.707032 1.4707,-0.412109 z M 195.74253,175.89063 h 152.76561 v 207.17579 h -59.4707 -0.3535 l -0.3535,-0.11719 -0.293,-0.11719 -0.2949,-0.23438 -0.2344,-0.23632 -0.1777,-0.29492 -0.1172,-0.35157 -0.1172,-0.35351 v -0.35352 l 0.059,-0.35156 0.4121,-2.64844 v -2.64648 l -0.5293,-2.64649 -0.9414,-2.52929 -1.3535,-2.29493 -1.7637,-2.05859 -2.0605,-1.70508 -0.1758,-0.11914 -0.1758,-0.0586 -0.2363,-0.0586 -0.1758,0.0586 h -0.2363 l -0.1758,0.11719 -0.1758,0.11914 -0.1777,0.11718 -0.1172,0.17578 -2.5293,4.41211 -0.1172,0.17579 v 0.23632 l -0.059,0.17578 0.059,0.23633 0.059,0.17578 0.059,0.17579 0.1172,0.17773 0.1777,0.17578 1.1758,1.05859 0.8828,1.23633 0.7051,1.41211 0.3535,1.5293 0.1172,1.5293 -0.2344,1.52929 -0.4707,1.47071 -0.7656,1.35156 -1.0586,1.23633 -1.1758,0.9414 -1.4121,0.70508 -1.4707,0.4707 -1.5879,0.11719 -1.5293,-0.11719 -1.4707,-0.4707 -1.4121,-0.70508 -1.2344,-0.9414 -1,-1.23633 -0.7656,-1.35156 -0.4707,-1.47071 -0.2344,-1.52929 0.1172,-1.5293 0.3535,-1.5293 0.7051,-1.41211 0.8828,-1.23633 1.1758,-1.05859 0.1172,-0.17578 0.1777,-0.17773 0.059,-0.17579 0.059,-0.17578 0.059,-0.23633 -0.059,-0.17578 -0.059,-0.23632 -0.059,-0.17579 -2.5293,-4.41211 -0.1191,-0.17578 -0.1758,-0.11718 -0.1758,-0.11914 -0.1777,-0.11719 h -0.2344 l -0.1777,-0.0586 -0.2344,0.0586 -0.1758,0.0586 -0.1777,0.11914 -2.1172,1.70508 -1.7051,2.05859 -1.3535,2.29493 -0.9414,2.52929 -0.5293,2.64649 -0.059,2.64648 0.4707,2.64844 0.059,0.35156 v 0.35352 l -0.1172,0.35351 -0.1191,0.35157 -0.1758,0.29492 -0.2344,0.23632 -0.2949,0.23438 -0.2949,0.11719 -0.3516,0.11719 h -0.3535 -59.47071 z m 15.52931,214.94141 h 121.707 v 145.11719 h -121.707 z"
     style="fill:#212830;fill-opacity:1;stroke:#212830;stroke-width:0.0588235px;stroke-linecap:round;stroke-linejoin:round;stroke-miterlimit:4;stroke-dasharray:none;stroke-opacity:1"
     id="path1425" />
</svg>
