<?xml version="1.0" encoding="UTF-8" standalone="no"?>
<svg
   xmlns:dc="http://purl.org/dc/elements/1.1/"
   xmlns:cc="http://creativecommons.org/ns#"
   xmlns:rdf="http://www.w3.org/1999/02/22-rdf-syntax-ns#"
   xmlns:svg="http://www.w3.org/2000/svg"
   xmlns="http://www.w3.org/2000/svg"
   id="svg809"
   height="100mm"
   width="100mm"
   version="1.0">
  <metadata
     id="metadata813">
    <rdf:RDF>
      <cc:Work
         rdf:about="">
        <dc:format>image/svg+xml</dc:format>
        <dc:type
           rdf:resource="http://purl.org/dc/dcmitype/StillImage" />
        <dc:title></dc:title>
      </cc:Work>
    </rdf:RDF>
  </metadata>
  <defs
     id="defs3" />
  <path
     d="m 139.53403,0.29961883 -3.5879,0.29493 -3.4707,0.94140007 -3.293,1.4707 -2.9414,2.11719 -2.5293,2.5293 -2.0586,2.9414101 -1.5293,3.23437 -0.8828,3.4707 -0.3535,3.58789 V 130.94611 l 0.059,0.64844 0.1777,0.58789 0.293,0.52929 0.4121,0.47071 4.2363,4.23437 -4.2363,4.23633 -0.4121,0.4707 -0.293,0.5293 -0.1777,0.58789 -0.059,0.58789 v 90.23633 l 0.059,0.64648 0.1777,0.58789 0.293,0.5293 0.4121,0.4707 4.2363,4.23633 -4.2363,4.23438 -0.4121,0.4707 -0.293,0.5293 -0.1777,0.58789 -0.059,0.58789 v 110.11914 l 0.4121,4 1.1758,3.88086 1.8828,3.5293 2.5879,3.17773 3.1191,2.5293 3.5879,1.9414 3.8223,1.11719 4.0586,0.41211 h 43 l 0.5898,-0.0586 0.5879,-0.17774 0.5293,-0.29297 0.4707,-0.35351 4.2344,-4.23438 4.2949,4.23438 0.3535,0.29492 0.4102,0.23437 0.4707,0.23633 0.4707,0.11719 h 0.4707 43 l 3.5879,-0.29492 3.4707,-0.94141 3.2949,-1.5293 2.9414,-2.05859 2.5293,-2.5293 2.0586,-2.9414 1.5293,-3.23438 0.8828,-3.52929 0.3535,-3.5293 V 246.94611 l -0.061,-0.4707 -0.1172,-0.46876 -0.1758,-0.4707 -0.2363,-0.41211 -0.3516,-0.35351 -4.2363,-4.23438 4.2363,-4.23633 0.4102,-0.4707 0.2949,-0.5293 0.1758,-0.58789 0.061,-0.64648 v -90.23633 l -0.061,-0.4707 -0.1172,-0.47071 -0.1758,-0.4707 -0.2363,-0.41016 -0.3516,-0.35351 -4.2363,-4.23633 4.2363,-4.23437 0.4102,-0.47071 0.2949,-0.52929 0.1758,-0.58789 0.061,-0.64844 V 20.887509 l -0.3535,-3.58789 -0.8828,-3.4707 -1.5293,-3.23437 -2.0586,-2.9414101 -2.5293,-2.5293 -2.9414,-2.11719 -3.2949,-1.4707 -3.4707,-0.94140007 -3.5879,-0.29493 h -43 -0.4707 l -0.4707,0.11719 -0.4707,0.17774 -0.4102,0.29296 -0.3535,0.29492997 -4.2949,4.2343701 -4.2344,-4.2343701 -0.4707,-0.41210997 -0.5293,-0.23438 -0.5879,-0.17773 -0.5898,-0.0586 z m 49.4121,14.41211017 3.707,0.35352 3.5293,1 3.293,1.70508 2.8828,2.23632 2.4707,2.76368 1.8828,3.17578 1.2344,3.4707 0.5879,3.64844 -0.1172,3.64648 -0.8223,3.64649 -1.4707,3.35351 -2.0586,3.0586 -0.2949,0.4707 -0.2363,0.5293 -0.1172,0.58789 -0.059,0.58789 0.1172,0.58984 0.1777,0.5293 0.293,0.4707 0.4121,0.4707 0.4707,0.35157 0.4707,0.23633 0.5879,0.17578 0.5879,0.0586 h 31.9414 V 326.12385 h -31.9414 l -0.5879,0.0586 -0.5879,0.11718 -0.4707,0.29493 -0.4707,0.35156 -0.4121,0.41211 -0.293,0.52929 -0.1777,0.5293 -0.1172,0.58984 0.059,0.5879 0.1172,0.58789 0.2363,0.52929 0.2949,0.47071 2.0586,3.05859 1.4707,3.35352 0.8223,3.58789 0.1172,3.70507 -0.5879,3.64844 -1.2344,3.4707 -1.8828,3.17579 -2.4707,2.76367 -2.8828,2.23633 -3.293,1.64648 -3.5293,1.05859 -3.707,0.35352 -3.6465,-0.35352 -3.5293,-1.05859 -3.2949,-1.64648 -2.8809,-2.23633 -2.4707,-2.76367 -1.8828,-3.17579 -1.2363,-3.4707 -0.5879,-3.64844 0.1172,-3.70507 0.8242,-3.58789 1.4707,-3.35352 2.0586,-3.05859 0.2949,-0.47071 0.2344,-0.52929 0.1172,-0.58789 0.061,-0.5879 -0.1191,-0.58984 -0.1758,-0.5293 -0.2949,-0.52929 -0.4102,-0.41211 -0.4707,-0.35156 -0.4707,-0.29493 -0.5879,-0.11718 -0.5898,-0.0586 h -31.9414 V 51.828919 h 31.9414 l 0.5898,-0.0586 0.5879,-0.17578 0.4707,-0.23633 0.4707,-0.35157 0.4102,-0.4707 0.2949,-0.4707 0.1758,-0.5293 0.1191,-0.58984 -0.061,-0.58789 -0.1172,-0.58789 -0.2344,-0.5293 -0.2949,-0.4707 -2.0586,-3.0586 -1.4707,-3.35351 -0.8242,-3.64649 -0.1172,-3.64648 0.5879,-3.64844 1.2363,-3.4707 1.8828,-3.17578 2.4707,-2.76368 2.8809,-2.23632 3.2949,-1.70508 3.5293,-1 z"
     style="fill:#212830;fill-opacity:1;stroke:#212830;stroke-width:0.0588235px;stroke-linecap:round;stroke-linejoin:round;stroke-miterlimit:4;stroke-dasharray:none;stroke-opacity:1"
     id="path807" />
</svg>
