<?xml version="1.0" encoding="UTF-8" standalone="no"?>
<svg
   xmlns:dc="http://purl.org/dc/elements/1.1/"
   xmlns:cc="http://creativecommons.org/ns#"
   xmlns:rdf="http://www.w3.org/1999/02/22-rdf-syntax-ns#"
   xmlns:svg="http://www.w3.org/2000/svg"
   xmlns="http://www.w3.org/2000/svg"
   id="svg851"
   height="146mm"
   width="146mm"
   version="1.0">
  <metadata
     id="metadata855">
    <rdf:RDF>
      <cc:Work
         rdf:about="">
        <dc:format>image/svg+xml</dc:format>
        <dc:type
           rdf:resource="http://purl.org/dc/dcmitype/StillImage" />
        <dc:title></dc:title>
      </cc:Work>
    </rdf:RDF>
  </metadata>
  <defs
     id="defs3" />
  <path
     d="m 186.23046,1.6994627 -0.5879,0.0586 -0.5293,0.11719 -0.5293,0.23633 -0.4707,0.35351 -0.4121,0.41016 -0.3535,0.4707 -0.2344,0.5293 -0.1777,0.5293 -0.059,0.58984 V 22.935793 l 0.059,0.35157 0.059,0.35351 0.1777,0.29492 0.1758,0.29297 0.2949,0.23633 0.2344,0.23438 0.3535,0.11718 0.2949,0.11914 h 0.3516 9.2949 0.3535 l 0.3516,-0.11914 0.2949,-0.11718 0.293,-0.23438 0.2363,-0.23633 0.2344,-0.29297 0.1191,-0.29492 0.1172,-0.35351 v -0.35157 -12.58984 h 13.293 v 86.88281 l 0.061,0.41211 0.1172,0.35352 0.1758,0.35156 0.2363,0.29492 2.7637,2.763677 -2.7637,2.70703 -0.1777,0.23437 -0.1758,0.29492 -0.1172,0.29492 -0.059,0.29297 -0.061,0.29493 v 69 l -9.9395,-10 v -4.64844 l -0.061,-0.35156 -0.059,-0.29493 -0.1758,-0.35351 -0.1758,-0.29297 -0.2363,-0.23633 -0.293,-0.17578 -0.3535,-0.17578 -0.2949,-0.0586 -0.3516,-0.0605 h -6 l -0.3535,0.0605 -0.2949,0.0586 -0.3516,0.17578 -0.2949,0.17578 -0.2363,0.23633 -0.1758,0.29297 -0.1758,0.35351 -0.059,0.29493 -0.059,0.35156 v 21.29491 l 0.059,0.58789 0.1758,0.5293 0.2344,0.52929 0.3535,0.47071 0.4121,0.41211 0.4707,0.35351 0.5293,0.23438 0.5293,0.17773 h 0.5879 16.5879 v 74.4707 h -62.4102 v -11.29492 l -0.061,-0.58789 -0.1758,-0.52929 -0.2344,-0.5293 -0.3535,-0.4707 -0.4121,-0.41211 -0.4707,-0.35352 -0.5293,-0.23437 -0.5293,-0.17774 -0.5879,-0.0586 h -11.2949 l -0.3516,0.0586 -0.4121,0.11914 -0.3535,0.17578 -0.2949,0.23438 -0.2344,0.35351 -0.1758,0.29493 -0.1191,0.4121 -0.059,0.35157 v 2.70703 l 0.059,0.35156 0.1191,0.41211 0.1758,0.29492 0.2344,0.35157 0.2949,0.23632 0.3535,0.17578 0.4121,0.11914 h 0.3516 6 v 10 H 98.523563 v -10 h 5.999997 0.3516 l 0.2949,-0.11914 0.3535,-0.11718 0.293,-0.17578 0.2363,-0.29493 0.1758,-0.23437 0.1758,-0.35352 0.059,-0.35351 0.061,-0.29297 v -2.70703 l -0.061,-0.35157 -0.1172,-0.4121 -0.1758,-0.29493 -0.2363,-0.35351 -0.293,-0.23438 -0.3535,-0.17578 -0.4121,-0.11914 -0.3516,-0.0586 H 93.229063 l -0.5879,0.0586 -0.5879,0.17774 -0.4707,0.23437 -0.5293,0.35352 -0.3535,0.41211 -0.3535,0.4707 -0.2344,0.5293 -0.1777,0.52929 -0.059,0.58789 v 16.58789 l 0.059,0.58789 0.1777,0.5879 0.2344,0.53124 0.3535,0.46876 0.3535,0.4121 0.5293,0.29493 0.4707,0.29297 0.5879,0.11914 0.5879,0.0586 H 209.46346 v 279.17578 l 0.061,0.58789 0.1758,0.58984 0.2344,0.5293 0.2949,0.4707 0.4121,0.41016 0.4707,0.29492 0.5293,0.23438 0.5879,0.17773 0.5879,0.0586 h 219.2363 l 0.5293,-0.0586 0.5879,-0.17773 0.5293,-0.23438 0.4707,-0.29492 0.4121,-0.41016 0.293,-0.4707 0.2949,-0.5293 0.1172,-0.58984 0.059,-0.58789 V 267.58227 h 23.2363 l 0.5879,-0.0586 0.5879,-0.11914 0.5293,-0.29297 0.4707,-0.29493 0.4121,-0.4121 0.293,-0.46876 0.2363,-0.53124 0.1758,-0.5879 0.059,-0.58789 v -17.9414 l -0.059,-0.35157 -0.059,-0.29492 -0.1758,-0.35351 -0.1777,-0.23438 -0.2344,-0.29492 -0.2949,-0.17578 -0.3516,-0.11719 -0.2949,-0.11914 -0.3535,-0.0586 h -9.293 l -0.4121,0.0586 -0.3535,0.11914 -0.3516,0.17578 -0.2949,0.23438 -0.2363,0.35351 -0.2344,0.29493 -0.059,0.4121 -0.059,0.35157 v 12.64843 h -13.2949 v -74.4707 h 13.2949 v 11.35156 l 0.059,0.35352 0.059,0.35352 0.2344,0.35156 0.2363,0.29492 0.2949,0.29492 0.3516,0.17578 0.3535,0.11719 h 0.4121 2.6465 0.3535 l 0.3516,-0.11719 0.2949,-0.11718 0.2949,-0.23633 0.2344,-0.23438 0.1758,-0.29492 0.1777,-0.29297 0.059,-0.35351 0.059,-0.29493 v -35.9414 l -0.059,-0.35156 -0.059,-0.29493 -0.1777,-0.35351 -0.1758,-0.29297 -0.2344,-0.23633 -0.2949,-0.17578 -0.2949,-0.17578 -0.3516,-0.0586 -0.3535,-0.0605 h -6 l -0.3535,0.0605 -0.293,0.0586 -0.3535,0.17578 -0.2949,0.17578 -0.2344,0.23633 -0.1758,0.29297 -0.1777,0.35351 -0.059,0.29493 -0.059,0.35156 v 4.64844 l -9.9414,10 v -69 -0.29493 l -0.1172,-0.29297 -0.1172,-0.29492 -0.1191,-0.29492 -0.2344,-0.23437 -2.7051,-2.70703 2.7051,-2.763677 0.2344,-0.29492 0.1777,-0.35156 0.1172,-0.35352 0.059,-0.41211 v -86.88281 h 13.2949 v 12.58984 l 0.059,0.41016 0.059,0.35352 0.2344,0.35351 0.2363,0.29297 0.2949,0.29492 0.3516,0.17578 0.3535,0.11914 h 0.4121 9.293 0.3535 l 0.2949,-0.11914 0.3516,-0.11718 0.2949,-0.23438 0.2344,-0.23633 0.1777,-0.29297 0.1758,-0.29492 0.059,-0.35351 0.059,-0.35157 V 4.9943727 l -0.059,-0.58984 -0.1758,-0.5293 -0.2363,-0.5293 -0.293,-0.4707 -0.4121,-0.41016 -0.4707,-0.35351 -0.5293,-0.23633 -0.5879,-0.11719 -0.5879,-0.0586 z m 31.8828,8.6464803 h 208.5879 V 258.93578 h -208.5879 z m 0,257.236327 h 208.5879 v 273.88281 h -208.5879 z"
     style="fill:#212830;fill-opacity:1;stroke:#212830;stroke-width:0.0588235px;stroke-linecap:round;stroke-linejoin:round;stroke-miterlimit:4;stroke-dasharray:none;stroke-opacity:1"
     id="path847" />
</svg>
