<?xml version="1.0" encoding="UTF-8" standalone="no"?>
<svg
   xmlns:dc="http://purl.org/dc/elements/1.1/"
   xmlns:cc="http://creativecommons.org/ns#"
   xmlns:rdf="http://www.w3.org/1999/02/22-rdf-syntax-ns#"
   xmlns:svg="http://www.w3.org/2000/svg"
   xmlns="http://www.w3.org/2000/svg"
   id="svg915"
   height="80mm"
   width="80mm"
   version="1.0">
  <metadata
     id="metadata919">
    <rdf:RDF>
      <cc:Work
         rdf:about="">
        <dc:format>image/svg+xml</dc:format>
        <dc:type
           rdf:resource="http://purl.org/dc/dcmitype/StillImage" />
        <dc:title></dc:title>
      </cc:Work>
    </rdf:RDF>
  </metadata>
  <defs
     id="defs3" />
  <path
     id="path913"
     d="m 203.82818,266.32818 v 0.47059 l -0.1177,0.41176 -0.1764,0.35294 -0.2353,0.35294 -0.353,0.29412 -0.2941,0.2353 -0.4118,0.17647 -0.4117,0.11764 -0.4118,0.0588 h -70.5294 v 24.29412 l -0.059,0.70588 -0.1765,0.70588 -0.2941,0.64706 -0.4118,0.58823 -0.4706,0.47059 -0.5882,0.41177 -0.6471,0.29411 -0.7058,0.17648 -0.7059,0.0588 H 57.122283 l -0.0588,0.70588 -0.17647,0.70588 -0.29412,0.64706 -0.41177,0.58824 -0.47058,0.47059 -0.58824,0.41176 -0.64706,0.29412 -0.70588,0.17647 -0.64706,0.0588 h -15.41176 l -0.82353,-0.0588 -0.76471,-0.2353 -0.70588,-0.35294 -0.58824,-0.52941 -0.52941,-0.58823 -0.35294,-0.70589 -0.23529,-0.7647 -0.0588,-0.82353 v -6.47059 l 0.0588,-0.70588 0.17647,-0.70588 0.29411,-0.58824 0.41177,-0.58823 0.47059,-0.52942 0.58823,-0.41176 0.64706,-0.29412 0.70588,-0.17647 0.70589,-0.0588 H 120.3576 v -25.94118 l 0.059,-0.41176 0.1177,-0.41177 0.1764,-0.41176 0.2353,-0.35294 0.2941,-0.29412 0.353,-0.2353 0.3529,-0.17647 0.4118,-0.11764 h 0.4118 38.1176 V 11.681118 H 44.181103 v 33.29412 h 17.41177 l 1.88235,0.0588 1.82353,0.29412 1.82353,0.47059 1.76471,0.58823 1.70588,0.82353 1.58823,0.94118 1.52942,1.11765 1.35294,1.29411 1.23529,1.35294 1.11765,1.52942 1,1.58823 0.7647,1.70588 0.64706,1.76471 0.47059,1.76471 0.23529,1.88235 0.11765,1.88235 -0.11765,1.82353 -0.23529,1.88235 -0.47059,1.82353 -0.64706,1.76471 -0.7647,1.64706 -1,1.64706 -1.11765,1.47059 -1.23529,1.41176 -1.35294,1.23529 -1.52942,1.11765 -1.58823,0.94118 -1.70588,0.82353 -1.76471,0.64706 -1.82353,0.41176 -1.82353,0.29412 -1.88235,0.11765 h -22.70588 l -0.88236,-0.11765 -0.88235,-0.2353 -0.82353,-0.35294 -0.76471,-0.52941 -0.64705,-0.64706 -0.52942,-0.7647 -0.41176,-0.82353 -0.23529,-0.88236 -0.0588,-0.94117 0.0588,-0.94118 0.23529,-0.88235 0.41176,-0.82353 0.52942,-0.76471 0.64705,-0.64706 0.76471,-0.52941 0.82353,-0.35292 0.88235,-0.23529 0.88236,-0.11765 h 22.70588 l 1.23529,-0.0588 1.17647,-0.2353 1.11765,-0.47059 1.05882,-0.58823 1,-0.70588 0.88236,-0.88236 0.70588,-0.94117 0.58823,-1.05883 0.41177,-1.17647 0.23529,-1.17647 0.11765,-1.17647 -0.11765,-1.23529 -0.23529,-1.17647 -0.41177,-1.17647 -0.58823,-1.05883 -0.70588,-0.94117 -0.88236,-0.88236 -1,-0.70588 -1.05882,-0.58825 -1.11765,-0.41177 -1.17647,-0.29412 -1.23529,-0.05882 h -23.88235 l -0.70589,-0.0588 -0.70588,-0.17647 -0.64706,-0.29412 -0.58823,-0.41177 -0.47059,-0.52941 -0.41177,-0.58823 -0.29411,-0.64706 -0.17647,-0.64706 -0.0588,-0.70588 V 5.2105483 l 0.0588,-0.70588 0.17647,-0.70588 0.29411,-0.58824 0.41177,-0.58823 0.47059,-0.5294101 0.58823,-0.41177 0.64706,-0.29412 0.70588,-0.17647 0.70589,-0.0588 H 264.65168 l 0.7059,0.0588 0.6471,0.17647 0.647,0.29412 0.5882,0.41177 0.4706,0.5294101 0.4118,0.58823 0.2941,0.58824 0.1765,0.70588 0.1176,0.70588 V 25.504648 l -0.1176,0.70588 -0.1765,0.64706 -0.2941,0.64706 -0.4118,0.58824 -0.4706,0.52941 -0.5882,0.35294 -0.647,0.35294 -0.6471,0.17647 -0.7059,0.0588 h -13.8235 l -0.4118,-0.0588 -0.4117,-0.11765 -0.353,-0.17647 -0.3529,-0.23529 -0.2941,-0.29412 -0.2353,-0.35294 -0.1765,-0.41177 -0.1177,-0.41176 -0.059,-0.41176 v -3.2353 l 0.059,-0.41176 0.1177,-0.41177 0.1765,-0.41176 0.2353,-0.29412 0.2941,-0.35294 0.3529,-0.2353 0.353,-0.17647 0.4117,-0.11764 h 0.4118 7.2941 V 9.2693583 h -48.5882 V 21.445828 h 7.2941 0.4117 l 0.4118,0.11764 0.353,0.17647 0.3529,0.2353 0.2941,0.35294 0.2353,0.29412 0.2353,0.41176 0.059,0.41177 0.059,0.41176 v 3.2353 l -0.059,0.41176 -0.059,0.41176 -0.2353,0.41177 -0.2353,0.35294 -0.2941,0.29412 -0.3529,0.23529 -0.353,0.17647 -0.4118,0.11765 -0.4117,0.0588 h -13.8235 l -0.6471,-0.0588 -0.7059,-0.17647 -0.647,-0.35294 -0.5883,-0.35294 -0.4706,-0.52941 -0.4117,-0.58824 -0.2942,-0.64706 -0.1764,-0.64706 -0.059,-0.70588 v -13.82353 h -27.5883 V 158.26936 l -0.059,0.52941 -0.1177,0.41176 -0.2352,0.41177 -0.2942,0.41176 -3.3529,3.35294 3.3529,3.29412 0.2942,0.41177 0.2352,0.41176 0.1177,0.47059 0.059,0.47059 v 88.17647 h 30 l 0.4118,0.0588 0.4117,0.0588 0.4118,0.2353 0.2941,0.23529 0.353,0.29412 0.2353,0.35294 0.1764,0.35294 0.1177,0.41177 v 0.41176 z"
     style="fill:#212830;fill-opacity:1;stroke:#212830;stroke-width:0.0588235px;stroke-linecap:round;stroke-linejoin:round;stroke-miterlimit:4;stroke-dasharray:none;stroke-opacity:1" />
</svg>
