<?xml version="1.0" encoding="UTF-8" standalone="no"?>
<svg
   xmlns:dc="http://purl.org/dc/elements/1.1/"
   xmlns:cc="http://creativecommons.org/ns#"
   xmlns:rdf="http://www.w3.org/1999/02/22-rdf-syntax-ns#"
   xmlns:svg="http://www.w3.org/2000/svg"
   xmlns="http://www.w3.org/2000/svg"
   id="svg831"
   height="152mm"
   width="152mm"
   version="1.0">
  <metadata
     id="metadata835">
    <rdf:RDF>
      <cc:Work
         rdf:about="">
        <dc:format>image/svg+xml</dc:format>
        <dc:type
           rdf:resource="http://purl.org/dc/dcmitype/StillImage" />
        <dc:title></dc:title>
      </cc:Work>
    </rdf:RDF>
  </metadata>
  <defs
     id="defs3" />
  <path
     d="m 155.8611,1.3036654 -0.41211,0.11718 -0.35156,0.17578 -0.35351,0.23633 -0.29493,0.29297 -0.23437,0.35352 -0.17773,0.35351 -0.11719,0.41211 -0.0586,0.41016 V 16.538036 l 0.0586,0.23633 0.0586,0.23437 0.11914,0.23633 0.11719,0.17578 0.17578,0.17578 0.17773,0.17774 0.23437,0.11719 0.23438,0.05859 h 0.29492 6.64648 0.23633 l 0.23437,-0.0586 0.23633,-0.11719 0.23439,-0.17774 0.1777,-0.17578 0.1172,-0.17578 0.1172,-0.23633 0.059,-0.23437 v -0.23633 -9.0585906 h 9.5293 V 69.774356 l 0.059,0.29297 0.059,0.29492 0.1191,0.23437 0.1758,0.17774 2,2 -2,1.9414 -0.1758,0.23438 -0.1191,0.23438 -0.059,0.29492 -0.059,0.23632 v 49.468754 l -7.1176,-7.11718 v -3.35157 l -0.059,-0.23632 -0.059,-0.23438 -0.1172,-0.23633 -0.1191,-0.23437 -0.1758,-0.17774 -0.1758,-0.11718 -0.2363,-0.11719 -0.2344,-0.0586 h -0.2949 -4.23438 -0.29412 l -0.29492,0.0586 -0.23438,0.17578 -0.23632,0.17773 -0.17579,0.17579 -0.11718,0.29297 -0.0586,0.23632 -0.0586,0.29492 v 25.70508 l 0.0586,0.29492 0.0586,0.29297 0.11718,0.23633 0.17579,0.23438 0.23632,0.17578 0.23438,0.11914 0.29492,0.0586 0.29492,0.0586 h 1.88086 l 0.23633,-0.0586 0.23437,-0.0586 0.23633,-0.11914 0.23439,-0.11719 0.1777,-0.17578 0.1172,-0.17773 0.1172,-0.23438 0.059,-0.23438 v -0.29492 -8.05859 h 9.5293 v 53.35351 h -9.5293 v -9.06054 -0.23438 l -0.059,-0.23632 -0.1172,-0.23438 -0.1172,-0.17578 -0.1777,-0.17774 -0.23439,-0.17578 -0.23633,-0.11718 -0.23437,-0.0586 h -0.23633 -6.64648 -0.29492 l -0.23438,0.0586 -0.23438,0.11718 -0.17773,0.17578 -0.17578,0.17774 -0.11719,0.17578 -0.11914,0.23438 -0.0586,0.23632 -0.0586,0.23438 v 394.17773 l 0.0586,0.41211 0.11719,0.41016 0.17773,0.35351 0.23437,0.35352 0.29493,0.29297 0.35351,0.23633 0.35156,0.17578 0.41211,0.11719 h 0.41211 195.2949 0.4102 l 0.3535,-0.11719 0.4121,-0.17578 0.3535,-0.23633 0.293,-0.29297 0.2363,-0.35352 0.1758,-0.35351 0.1172,-0.41016 v -0.41211 -378.9414 h 64.2949 0.4121 l 0.4102,-0.11719 0.3535,-0.17774 0.3535,-0.23437 0.293,-0.29492 0.2363,-0.35157 0.1758,-0.35351 0.1191,-0.41211 0.059,-0.41211 v -11.94141 l -0.059,-0.4121 -0.1191,-0.35157 -0.1758,-0.41211 -0.2363,-0.35351 -0.293,-0.29297 -0.3535,-0.23633 -0.3535,-0.17578 -0.4102,-0.11719 h -0.4121 -8.0586 -0.2949 l -0.2344,0.0586 -0.2363,0.11718 -0.1758,0.17578 -0.1777,0.17774 -0.1172,0.17578 -0.1172,0.23438 -0.059,0.23632 -0.059,0.23438 v 1.9414 l 0.059,0.23633 0.059,0.23438 0.1172,0.23633 0.1172,0.17578 0.1777,0.17578 0.1758,0.17773 0.2363,0.0586 0.2344,0.11718 h 0.2949 4.2344 v 7.11719 h -28.5293 v -7.11719 h 4.2949 0.2344 l 0.2363,-0.11718 0.2344,-0.0586 0.1758,-0.17773 0.1777,-0.17578 0.1758,-0.17578 0.059,-0.23633 0.059,-0.23438 0.061,-0.23633 v -1.9414 l -0.061,-0.23438 -0.059,-0.23632 -0.059,-0.23438 -0.1758,-0.17578 -0.1777,-0.17774 -0.1758,-0.17578 -0.2344,-0.11718 -0.2363,-0.0586 h -0.2344 -8.1191 -0.4102 l -0.4121,0.11719 -0.3535,0.17578 -0.3535,0.23633 -0.293,0.29297 -0.2363,0.35351 -0.1758,0.41211 -0.1172,0.35157 -0.059,0.4121 v 8.11914 h -44.7656 v -53.35351 h 11.94181 l 0.4121,-0.0586 0.4121,-0.11914 0.3516,-0.17579 0.3535,-0.23437 0.2949,-0.29492 0.2344,-0.35352 0.1758,-0.35156 0.1191,-0.41211 v -0.4121 -15.23438 -0.23632 l -0.059,-0.23438 -0.1191,-0.23633 -0.1758,-0.23437 -0.1758,-0.17774 -0.1777,-0.11718 -0.2344,-0.11719 -0.2363,-0.0586 h -0.2344 -4.2949 -0.2344 l -0.2363,0.0586 -0.2344,0.11719 -0.2363,0.11718 -0.1758,0.17774 -0.1172,0.23437 -0.1172,0.23633 -0.061,0.23438 v 0.23632 3.35157 l -7.1758,7.11719 v -49.468754 -0.23632 l -0.1172,-0.29492 -0.1172,-0.23438 -0.1777,-0.23438 -1.9414,-1.9414 1.9414,-2 0.1777,-0.17774 0.1172,-0.23437 0.1172,-0.29492 V 69.774366 7.4794454 h 9.5293 v 9.0585906 l 0.059,0.23633 0.059,0.23437 0.061,0.23633 0.1758,0.17578 0.1758,0.17578 0.1777,0.17774 0.2344,0.11719 0.2363,0.0586 h 0.2344 6.7051 0.2363 l 0.2344,-0.0586 0.2363,-0.11719 0.1758,-0.17774 0.1777,-0.17578 0.1758,-0.17578 0.1172,-0.23633 0.059,-0.23437 v -0.23633 -12.8828106 -0.41016 l -0.1172,-0.41211 -0.1758,-0.35351 -0.2363,-0.35352 -0.293,-0.29297 -0.3535,-0.23633 -0.4121,-0.17578 -0.3535,-0.11718 h -0.4102 -195.2949 z m 23.23631,6.17578 h 149.5879 V 185.71576 H 179.09741 Z M 161.03689,191.89155 H 346.80251 V 561.30366 H 161.03689 Z"
     style="fill:#212830;fill-opacity:1;stroke:#212830;stroke-width:0.0588235px;stroke-linecap:round;stroke-linejoin:round;stroke-miterlimit:4;stroke-dasharray:none;stroke-opacity:1"
     id="path825" />
</svg>
