<?xml version="1.0" encoding="UTF-8" standalone="no"?>
<svg
   xmlns:dc="http://purl.org/dc/elements/1.1/"
   xmlns:cc="http://creativecommons.org/ns#"
   xmlns:rdf="http://www.w3.org/1999/02/22-rdf-syntax-ns#"
   xmlns:svg="http://www.w3.org/2000/svg"
   xmlns="http://www.w3.org/2000/svg"
   id="svg519"
   height="92mm"
   width="92mm"
   version="1.0">
  <metadata
     id="metadata523">
    <rdf:RDF>
      <cc:Work
         rdf:about="">
        <dc:format>image/svg+xml</dc:format>
        <dc:type
           rdf:resource="http://purl.org/dc/dcmitype/StillImage" />
        <dc:title></dc:title>
      </cc:Work>
    </rdf:RDF>
  </metadata>
  <defs
     id="defs3" />
  <path
     id="path517"
     d="m 231.41705,120.71125 0.1177,1.11764 0.2941,1.05883 0.4706,1.05882 0.5882,0.88235 0.8236,0.82353 0.8823,0.58824 1.0588,0.47059 1.0589,0.29412 1.1176,0.11764 h 26.8235 l 0.7647,-0.0588 0.7059,-0.2353 0.6471,-0.35294 0.5882,-0.47058 0.4706,-0.58826 0.4118,-0.64706 0.1764,-0.7647 0.059,-0.70589 v -5.11764 l -0.059,-0.76471 -0.1764,-0.70588 -0.4118,-0.70588 -0.4706,-0.52942 -0.5882,-0.52941 -0.6471,-0.35294 -0.7059,-0.17647 -0.7647,-0.11765 h -16.5882 V 95.123009 h 81.8235 v 19.176471 h -11.5294 l -0.647,0.0588 -0.6471,0.17647 -0.5882,0.29411 -0.5883,0.41177 -0.4706,0.47059 -0.3529,0.52941 -0.2941,0.58823 -0.1765,0.64706 -0.059,0.70589 v 5.11764 l 0.059,0.64706 0.1765,0.64706 0.2941,0.58824 0.3529,0.58823 0.4706,0.47059 0.5883,0.35294 0.5882,0.29412 0.6471,0.17647 0.647,0.0588 h 21.7647 l 1.1177,-0.11764 1.0588,-0.29412 1,-0.47059 0.9412,-0.58824 0.7647,-0.82353 0.647,-0.88235 0.4706,-1.05882 0.2941,-1.05883 0.1177,-1.11764 V 88.711199 l -0.1177,-1.11765 -0.2941,-1.05882 -0.4706,-1 -0.647,-0.94118 -0.7647,-0.76471 -0.9412,-0.64705 -1,-0.47059 -1.0588,-0.29412 -1.1177,-0.0588 h -102.2941 l -1.1176,0.0588 -1.0589,0.29412 -1.0588,0.47059 -0.8823,0.64705 -0.8236,0.76471 -0.5882,0.94118 -0.4706,1 -0.2941,1.05882 -0.1177,1.11765 v 10.23529 H 7.5935585 l -1.11765,0.11765 -1.05882,0.29412 -1,0.47058 -0.94118,0.647061 -0.76471,0.76471 -0.6470599,0.94118 -0.47058,1 -0.29412,1.05882 -0.11765,1.11765 0.11765,1.11764 0.29412,1.05883 0.47058,1.05882 0.6470599,0.88235 0.76471,0.82353 0.94118,0.58824 1,0.47059 1.05882,0.29411 1.11765,0.11765 v 140.76471 l -1.11765,0.11764 -1.05882,0.29412 -1,0.47059 -0.94118,0.58824 -0.76471,0.82352 -0.6470599,0.88236 -0.47058,1.05882 -0.29412,1.05882 -0.11765,1.11765 0.11765,1.11765 0.29412,1.05882 0.47058,1 0.6470599,0.94118 0.76471,0.7647 0.94118,0.64706 1,0.47059 1.05882,0.29412 1.11765,0.11765 H 17.828849 l 1.11765,-0.11765 1.05882,-0.29412 1,-0.47059 0.94118,-0.64706 0.7647,-0.7647 0.64706,-0.94118 0.47059,-1 0.29412,-1.05882 0.11764,-1.11765 v -62.41176 l -0.0588,-0.76471 -0.23529,-0.70588 -0.35296,-0.64701 -0.47059,-0.58824 -5.29412,-5.29411 5.29412,-5.2353 0.47059,-0.58823 0.35294,-0.70588 0.23529,-0.70589 0.0588,-0.7647 v -53.41177 l 0.0588,-1.52941 0.29412,-1.52941 0.47058,-1.47059 0.64706,-1.41176 0.76471,-1.35295 1,-1.17647 1.05882,-1.11764 1.2353,-0.94118 1.29411,-0.82353 1.41177,-0.58823 1.47059,-0.47059 1.52941,-0.29412 1.52941,-0.11765 H 231.417 Z"
     style="fill:#212830;fill-opacity:1;stroke:#212830;stroke-width:0.0588235px;stroke-linecap:round;stroke-linejoin:round;stroke-miterlimit:4;stroke-dasharray:none;stroke-opacity:1" />
</svg>
