<?xml version="1.0" encoding="UTF-8" standalone="no"?>
<svg
   xmlns:dc="http://purl.org/dc/elements/1.1/"
   xmlns:cc="http://creativecommons.org/ns#"
   xmlns:rdf="http://www.w3.org/1999/02/22-rdf-syntax-ns#"
   xmlns:svg="http://www.w3.org/2000/svg"
   xmlns="http://www.w3.org/2000/svg"
   id="svg1063"
   height="53mm"
   width="53mm"
   version="1.0">
  <metadata
     id="metadata1067">
    <rdf:RDF>
      <cc:Work
         rdf:about="">
        <dc:format>image/svg+xml</dc:format>
        <dc:type
           rdf:resource="http://purl.org/dc/dcmitype/StillImage" />
        <dc:title></dc:title>
      </cc:Work>
    </rdf:RDF>
  </metadata>
  <defs
     id="defs3" />
  <path
     id="path1061"
     d="m 6.0397161,177.12806 -0.35294,0.0588 -0.35294,0.11767 -0.3529399,0.17647 -0.29412,0.23529 -0.23529,0.29412 -0.17647,0.35294 -0.11765,0.35294 -0.0588,0.35295 0.0588,0.35294 0.11765,0.41176 0.17647,0.29412 0.23529,0.29412 3.7058799,3.7647 0.2353,0.11765 0.17647,0.17647 0.29412,0.0588 0.23529,0.0588 h 0.2353 l 0.29411,-0.0588 0.2352999,-0.0588 0.23529,-0.17647 0.17647,-0.11765 2.05883,-2.05882 h 11.29411 l -1.35294,15.76471 v 0.23529 l 0.0588,0.29412 0.0588,0.23529 0.17647,0.2353 0.17647,0.23529 0.23529,0.11765 0.2353,0.17647 0.23529,0.0588 h 0.29417 169.705894 0.4706 l 0.4117,-0.11765 0.4118,-0.17647 0.3529,-0.29411 0.2942,-0.29412 0.2353,-0.35294 0.1764,-0.41177 0.1177,-0.41176 0.059,-0.41177 v -10 l -0.059,-0.52941 -0.1765,-0.41176 -0.1765,-0.47059 -0.3529,-0.35294 -2.6471,-2.70589 -0.1764,-0.11764 -0.2353,-0.11765 -0.1765,-0.11765 -0.2353,-0.0588 h -0.2353 -4 -0.2353 l -0.2353,0.0588 -0.2353,0.11765 -0.2353,0.17647 -0.1764,0.17647 -0.1765,0.17647 -0.1177,0.2353 -0.059,0.29411 v 0.2353 6.94117 h -7.4706 v -4.47058 -0.2353 l -0.059,-0.23529 -0.1176,-0.2353 -0.1765,-0.23529 -0.1765,-0.17647 -0.1765,-0.17647 -0.2352,-0.11765 -0.2942,-0.0588 h -0.2353 -8.4117 v -17.41177 h 17.3529 v 1 0.29412 l 0.059,0.23529 0.1177,0.2353 0.1765,0.23529 0.1764,0.17647 0.2353,0.11765 0.2353,0.11765 0.2353,0.0588 0.2353,0.0588 h 4 l 0.2941,-0.0588 0.2353,-0.0588 0.2941,-0.17647 0.2353,-0.17647 2.6471,-2.64706 0.3529,-0.41177 0.1765,-0.41176 0.1765,-0.47059 0.059,-0.47059 v -0.11765 l -0.059,-0.41176 -0.1177,-0.41176 -0.1764,-0.41177 -0.2353,-0.35294 -0.2942,-0.29412 -0.3529,-0.23529 -0.4118,-0.17647 -0.4117,-0.11765 -0.4706,-0.0588 h -4.9412 v -59 -0.29412 l -0.1176,-0.2353 -0.1177,-0.29411 -0.1765,-0.17647 -2.0588,-2.05882 2.0588,-2.058824 0.1765,-0.23529 0.1177,-0.2353 0.1176,-0.29412 v -0.29411 -59 h 4.9412 0.4706 l 0.4117,-0.11765 0.4118,-0.17647 0.3529,-0.2353 0.2942,-0.35294 0.2353,-0.35294 0.1764,-0.35294 0.1177,-0.41176 0.059,-0.47059 v -0.0588 l -0.059,-0.52941 -0.1765,-0.41176 -0.1765,-0.47059 -0.3529,-0.35294 -2.6471,-2.70588 -0.1764,-0.11765 -0.2353,-0.11765 -0.1765,-0.11765 -0.2353,-0.0588 h -0.2353 -4 -0.2353 l -0.2353,0.0588 -0.2353,0.11765 -0.2353,0.17647 -0.1764,0.17647 -0.1765,0.17647 -0.1177,0.2353 -0.059,0.29412 v 0.23529 1 h -17.3529 v -17.41177 h 8.4117 0.2353 l 0.2942,-0.0588 0.2352,-0.11765 0.1765,-0.11764 0.1765,-0.2353 0.1765,-0.17647 0.1176,-0.23529 0.059,-0.2353 v -0.29411 -4.4705898 h 7.4706 v 6.9411698 0.29412 l 0.059,0.2353 0.1177,0.23529 0.1765,0.23529 0.1764,0.17648 0.2353,0.11764 0.2353,0.11765 0.2353,0.0588 0.2353,0.0588 h 4 l 0.2941,-0.0588 0.2353,-0.0588 0.2941,-0.17647 0.2353,-0.17647 2.6471,-2.64706 0.3529,-0.41177 0.1765,-0.41183 0.1765,-0.47059 0.059,-0.47059 V 3.3045362 l -0.059,-0.47059 -0.1765,-0.47059 -0.1765,-0.41176 -0.3529,-0.35294 -0.353,-0.35294 -0.4117,-0.2353 -0.4706,-0.11764001 -0.5294,-0.0588 H 23.980896 l -0.29412,0.0588 -0.23529,0.0588 -0.2353,0.11765001 -0.23529,0.17647 -0.17647,0.17647 -0.17647,0.23529 -0.0588,0.2353 -0.0588,0.29411 v 0.29412 l 1.35294,15.7647098 h -11.29411 l -2.05883,-2.05883 -0.17647,-0.17647 -0.23529,-0.11764 -0.2352999,-0.11765 h -0.29411 -0.2353 -0.23529 l -0.29412,0.11765 -0.17647,0.11764 -0.2353,0.17647 -3.7058799,3.70589 -0.23529,0.29411 -0.17647,0.29412 -0.11765,0.35294 -0.0588,0.29412 0.0588,0.35294 0.0588,0.35294 0.11765,0.35294 0.17647,0.29412 0.2353,0.23529 0.29411,0.17648 0.3529399,0.17647 0.29412,0.11764 h 0.35294 21.6470599 0.2353 l 0.29411,-0.11764 0.2353,-0.11765 0.23529,-0.11765 0.17647,-0.23529 0.11765,-0.2353 0.11765,-0.23529 0.0588,-0.29412 v -0.23529 L 27.863256,6.8339262 H 157.5103 l 0.8235,0.0588 0.8236,0.23529 0.8235,0.35294 0.7059,0.47059 0.5882,0.64706 0.5294,0.70588 0.353,0.7647098 0.2353,0.82353 0.059,0.88235 v 26.29412 0.29411 l 0.059,0.2353 0.1177,0.23529 0.1764,0.2353 0.1765,0.17647 0.2353,0.11764 0.2353,0.11765 0.2353,0.0588 0.2353,0.0588 h 14.8823 V 160.77502 h -14.8823 -0.2353 l -0.2353,0.0588 -0.2353,0.11765 -0.2353,0.17647 -0.1765,0.17647 -0.1764,0.17647 -0.1177,0.23529 -0.059,0.29412 v 0.2353 26.29411 l -0.059,0.88236 -0.2353,0.82353 -0.353,0.82353 -0.5294,0.70588 -0.5882,0.58823 -0.7059,0.52942 -0.8235,0.35294 -0.8236,0.23529 -0.8235,0.0588 H 27.863246 l 1.29412,-14.7647 v -0.29412 l -0.0588,-0.23529 -0.11765,-0.29412 -0.11765,-0.2353 -0.17647,-0.17647 -0.23529,-0.17647 -0.2353,-0.11764 -0.29411,-0.0588 -0.2353,-0.0588 z"
     style="fill:#212830;fill-opacity:1;stroke:#212830;stroke-width:0.0588235px;stroke-linecap:round;stroke-linejoin:round;stroke-miterlimit:4;stroke-dasharray:none;stroke-opacity:1" />
</svg>
