<?xml version="1.0" encoding="UTF-8" standalone="no"?>
<svg
   xmlns:dc="http://purl.org/dc/elements/1.1/"
   xmlns:cc="http://creativecommons.org/ns#"
   xmlns:rdf="http://www.w3.org/1999/02/22-rdf-syntax-ns#"
   xmlns:svg="http://www.w3.org/2000/svg"
   xmlns="http://www.w3.org/2000/svg"
   id="svg1281"
   height="128mm"
   width="128mm"
   version="1.0">
  <metadata
     id="metadata1285">
    <rdf:RDF>
      <cc:Work
         rdf:about="">
        <dc:format>image/svg+xml</dc:format>
        <dc:type
           rdf:resource="http://purl.org/dc/dcmitype/StillImage" />
        <dc:title></dc:title>
      </cc:Work>
    </rdf:RDF>
  </metadata>
  <defs
     id="defs3" />
  <path
     d="m 198.88882,47.331175 -0.7051,0.0586 -0.7051,0.23438 -0.6484,0.29492 -0.5879,0.41211 -0.5293,0.4707 -0.4121,0.58789 -0.293,0.70508 -0.1777,0.64649 -0.1172,0.76562 v 53.765615 h -44.6465 l -0.4707,0.0586 -0.4707,0.17578 -0.4121,0.23438 -0.4121,0.29492 -0.293,0.35351 -0.2363,0.41211 -0.1172,0.4707 -0.059,0.5293 v 5.76367 l 0.059,0.47071 0.1172,0.4707 0.2363,0.4707 0.293,0.35352 0.4121,0.29297 0.4121,0.23633 0.4707,0.17578 h 0.4707 43.8223 v 82.82422 h -43.8223 -0.4121 l -0.4121,0.11718 -0.4121,0.17578 -0.3516,0.29493 -0.2949,0.29297 -0.2949,0.35351 -0.1758,0.41211 -0.1172,0.41211 v 0.41211 26.4707 0.4707 l 0.1172,0.41016 0.1758,0.35352 0.2949,0.35351 0.2949,0.35157 0.3516,0.23632 0.4121,0.17578 0.4121,0.11914 0.4121,0.0586 h 5.7637 l 0.4707,-0.0586 0.4121,-0.11914 0.4121,-0.17578 0.3535,-0.23632 0.293,-0.35157 0.2363,-0.35351 0.1758,-0.35352 0.1172,-0.41016 0.059,-0.4707 v -18.17773 h 24.8242 v 18.17773 0.5293 l 0.1758,0.41016 0.2363,0.4707 0.293,0.35351 0.3535,0.29493 0.4707,0.23437 0.4707,0.17773 0.4707,0.0586 h 8.2344 v 126.64647 h -8.2348 l -0.4707,0.0586 -0.4707,0.11718 -0.4707,0.23633 -0.3535,0.29297 -0.293,0.41211 -0.2363,0.41211 -0.1758,0.4707 v 0.47071 18.23437 h -24.8242 v -18.23437 l -0.059,-0.41211 -0.1172,-0.41211 -0.1758,-0.41211 -0.2363,-0.35156 -0.293,-0.29493 -0.3535,-0.29297 -0.4121,-0.17773 -0.4121,-0.11719 h -0.4707 -5.7637 l -0.4707,0.0586 -0.4707,0.11718 -0.4121,0.23633 -0.4121,0.29297 -0.293,0.41211 -0.2363,0.41211 -0.1172,0.4707 -0.059,0.47071 v 30.64648 l 0.059,0.4707 0.1172,0.47071 0.2363,0.41211 0.293,0.41211 0.4121,0.29296 0.4121,0.23633 0.4707,0.11719 0.4707,0.0586 h 5.7637 l 0.4707,-0.0586 0.4121,-0.11719 0.4121,-0.17773 0.3535,-0.23438 0.293,-0.29492 0.2363,-0.35156 0.1758,-0.41211 0.1172,-0.41211 0.059,-0.41211 v -1.64648 h 35.5293 v 37.23437 H 71.478645 v -14.05859 l -0.0586,-0.76367 -0.17773,-0.64844 -0.35351,-0.70508 -0.41016,-0.58789 -0.4707,-0.4707 -0.5879,-0.41211 -0.64843,-0.35352 -0.70508,-0.17578 -0.70703,-0.0586 h -14.11719 l -0.4707,0.0586 -0.47071,0.11719 -0.4121,0.23633 -0.35157,0.35156 -0.35351,0.35351 -0.23438,0.41211 -0.11914,0.47071 -0.0586,0.4707 v 3.35351 l 0.0586,0.46876 0.11914,0.4707 0.23438,0.41211 0.35351,0.41211 0.35157,0.29492 0.4121,0.23437 0.47071,0.11719 0.4707,0.0586 h 7.4707 v 12.4121 h -49.64648 v -12.4121 h 7.4707 l 0.41211,-0.0586 0.41016,-0.11719 0.41211,-0.17578 0.35351,-0.23633 0.29492,-0.29296 0.23438,-0.35352 0.17578,-0.41211 0.11914,-0.41211 0.0586,-0.41016 v -3.35351 l -0.0586,-0.41211 -0.11914,-0.41211 -0.17578,-0.41211 -0.23438,-0.35156 -0.29492,-0.29492 -0.35351,-0.23438 -0.41211,-0.17773 -0.41016,-0.11719 -0.41211,-0.0586 H 4.4786447 l -0.76563,0.0586 -0.64648,0.17578 -0.70703,0.35352 -0.58789,0.41211 -0.47071,0.4707 -0.41210004,0.58789 -0.29297,0.70508 -0.23633,0.64844 -0.0586,0.76367 v 20.64843 l 0.0586,0.76368 0.23633,0.64648 0.29297,0.70703 0.41210004,0.58789 0.47071,0.47071 0.58789,0.41211 0.70703,0.35156 0.64648,0.17773 0.76563,0.0586 H 433.83022 l 8.6484,-0.76563 8.3516,-2.23437 7.8242,-3.64649 7.1172,-5 6.1172,-6.11914 4.9414,-7.05859 3.6484,-7.88281 2.2344,-8.35157 0.7656,-8.64843 v -33.11719 l -0.059,-0.70508 -0.1777,-0.70703 -0.293,-0.64649 -0.4121,-0.58789 -0.5293,-0.4707 -0.5879,-0.41211 -0.6484,-0.35351 -0.7051,-0.17579 -0.707,-0.0586 h -14.0586 l -0.4707,0.0586 -0.4102,0.11719 -0.4121,0.17774 -0.3535,0.23437 -0.2949,0.29492 -0.2344,0.35157 -0.1758,0.4121 -0.1191,0.41211 -0.059,0.41211 v 3.35352 l 0.059,0.4707 0.1777,0.4707 0.1758,0.41016 0.3535,0.35352 0.3516,0.35351 0.4121,0.23438 0.4707,0.11719 0.5293,0.0605 h 7.4121 v 12.41016 h -49.6465 v -12.41016 h 7.4707 l 0.4121,-0.0605 0.4102,-0.11719 0.4121,-0.17578 0.3535,-0.23633 0.2949,-0.29297 0.2344,-0.35352 0.2344,-0.41211 0.061,-0.4121 0.059,-0.41016 v -3.35352 l -0.059,-0.41211 -0.061,-0.41211 -0.2344,-0.4121 -0.2344,-0.35157 -0.2949,-0.29492 -0.3535,-0.23437 -0.4121,-0.17774 -0.4102,-0.11719 -0.4121,-0.0586 h -14.0586 l -0.707,0.0586 -0.7051,0.17579 -0.6465,0.35351 -0.5898,0.41211 -0.5293,0.4707 -0.4121,0.58789 -0.293,0.64649 -0.1758,0.70703 -0.1191,0.70508 v 20.70703 l 0.1191,0.76367 0.1758,0.64649 0.293,0.64843 0.4121,0.64649 0.5293,0.4707 0.5898,0.41211 0.6465,0.29297 0.7051,0.23633 0.707,0.0586 h 56.2344 v 8.23438 l -0.5879,6.76562 -1.7656,6.58789 -2.8223,6.11719 -3.8828,5.58984 -4.8242,4.76367 -5.5293,3.88282 -6.1758,2.88281 -6.5293,1.76367 -6.7656,0.58789 h -99.293 V 274.97765 h 20.7051 l 0.707,-0.0586 0.7051,-0.17773 0.6465,-0.29297 0.5879,-0.41211 0.5312,-0.5293 0.4102,-0.58789 0.2949,-0.64649 0.1758,-0.70703 0.059,-0.70507 v -26.47071 -0.4707 l -0.1172,-0.4121 -0.1758,-0.35352 -0.2949,-0.35156 -0.293,-0.35351 -0.3535,-0.23633 -0.3535,-0.17578 -0.4707,-0.11719 h -0.4121 -7.4102 -0.4707 l -0.4121,0.11719 -0.4121,0.17578 -0.3535,0.23633 -0.293,0.35351 -0.2363,0.35156 -0.1758,0.35352 -0.1172,0.41211 -0.059,0.4707 v 5.76367 l -12.4121,12.41211 v -85.88281 -0.4707 l -0.1777,-0.4707 -0.2344,-0.41016 -0.2949,-0.41211 -3.4102,-3.41211 3.4102,-3.41211 0.2363,-0.29297 0.2344,-0.29492 0.1191,-0.41211 0.1172,-0.35351 V 166.33117 58.094845 h 16.5879 v 15.76563 0.4707 l 0.1758,0.4707 0.2363,0.41016 0.293,0.35351 0.3535,0.35352 0.4707,0.23437 0.4707,0.11914 0.4707,0.0586 h 11.5879 l 0.4121,-0.0586 0.4121,-0.11914 0.4121,-0.17578 0.3516,-0.23632 0.2949,-0.29297 0.2344,-0.35352 0.1777,-0.41211 0.1172,-0.41016 0.059,-0.4121 v -22.35352 l -0.059,-0.76562 -0.1758,-0.64649 -0.2949,-0.70508 -0.4121,-0.58789 -0.5293,-0.4707 -0.5879,-0.41211 -0.6465,-0.29492 -0.707,-0.23438 -0.7051,-0.0586 z m 5.7656,10.76367 h 46.3535 v 22.35352 l 0.059,0.4707 0.059,0.41211 0.2344,0.35156 0.2363,0.35352 0.293,0.35351 0.3535,0.23438 0.4121,0.17773 0.4121,0.11719 h 0.4121 5.8223 0.4121 l 0.4121,-0.11719 0.4121,-0.17773 0.3516,-0.23438 0.2949,-0.35351 0.2363,-0.35352 0.1758,-0.35156 0.1172,-0.41211 0.059,-0.4707 v -22.35352 h 62.0586 V 425.68273 h -119.177 z"
     style="fill:#212830;fill-opacity:1;stroke:#212830;stroke-width:0.0588235px;stroke-linecap:round;stroke-linejoin:round;stroke-miterlimit:4;stroke-dasharray:none;stroke-opacity:1"
     id="path1279" />
</svg>
