<?xml version="1.0" encoding="UTF-8" standalone="no"?>
<svg
   xmlns:dc="http://purl.org/dc/elements/1.1/"
   xmlns:cc="http://creativecommons.org/ns#"
   xmlns:rdf="http://www.w3.org/1999/02/22-rdf-syntax-ns#"
   xmlns:svg="http://www.w3.org/2000/svg"
   xmlns="http://www.w3.org/2000/svg"
   id="svg1385"
   height="163mm"
   width="163mm"
   version="1.0">
  <metadata
     id="metadata1389">
    <rdf:RDF>
      <cc:Work
         rdf:about="">
        <dc:format>image/svg+xml</dc:format>
        <dc:type
           rdf:resource="http://purl.org/dc/dcmitype/StillImage" />
        <dc:title></dc:title>
      </cc:Work>
    </rdf:RDF>
  </metadata>
  <defs
     id="defs3" />
  <path
     d="m 204.03176,115.4729 -0.4707,0.0586 -0.4102,0.11719 -0.4121,0.23633 -0.4121,0.23437 -0.2949,0.35352 -0.2344,0.41211 -0.1172,0.4121 -0.1191,0.46876 0.061,0.4707 0.059,0.4707 0.2344,0.41211 0.2363,0.35352 0.3516,0.35351 0.3535,0.23438 0.4121,0.23632 13.0586,4.17579 v 48.35351 h -67.1758 l -0.4121,0.0586 -0.4121,0.11718 -0.3535,0.17578 -0.35158,0.23633 -0.35351,0.29297 -0.23633,0.35352 -0.17578,0.41211 -0.11719,0.41211 v 0.4121 4.0586 0.4707 l 0.11719,0.41016 0.17578,0.35351 0.23633,0.35352 0.35351,0.29297 0.35158,0.29492 0.3535,0.17578 0.4121,0.11914 h 0.4121 43.4102 v 83.58789 h -43.4102 l -0.4121,0.0586 -0.4121,0.11718 -0.3535,0.17579 -0.35158,0.23632 -0.35351,0.29492 -0.23633,0.35157 -0.17578,0.41211 -0.11719,0.41211 v 0.41211 26.23437 0.4121 l 0.11719,0.41211 0.17578,0.35351 0.23633,0.35157 0.35351,0.35351 0.35158,0.23438 0.3535,0.17773 0.4121,0.11719 h 0.4121 5.7637 0.4121 l 0.4121,-0.11719 0.4121,-0.17773 0.3516,-0.23438 0.2949,-0.35351 0.2344,-0.35157 0.1777,-0.35351 0.1172,-0.41211 0.059,-0.41211 v -18.05859 h 24.5293 v 18.05859 l 0.059,0.41211 0.1172,0.41211 0.1777,0.35351 0.2344,0.35157 0.2949,0.35351 0.3535,0.23438 0.4102,0.17773 0.4121,0.11719 h 0.4121 8.1758 V 421.9436 h -8.1758 -0.4707 l -0.4707,0.17578 -0.4121,0.23633 -0.4102,0.29297 -0.2949,0.35351 -0.2363,0.41211 -0.1172,0.47071 -0.059,0.4707 v 18.05859 h -24.5293 v -18.05859 l -0.059,-0.41211 -0.1172,-0.41211 -0.1777,-0.41211 -0.2344,-0.29297 -0.2949,-0.35351 -0.3516,-0.23633 -0.4121,-0.17578 -0.4121,-0.11719 h -0.4121 -5.7637 -0.4707 l -0.4707,0.17578 -0.41209,0.23633 -0.35352,0.29297 -0.29297,0.35351 -0.23633,0.41211 -0.17578,0.47071 v 0.4707 30.35156 0.4707 l 0.17578,0.47071 0.23633,0.41211 0.29297,0.35351 0.35352,0.35157 0.41209,0.17773 0.4707,0.17578 0.4707,0.0586 h 5.7637 l 0.4121,-0.0586 0.4121,-0.11719 0.4121,-0.17578 0.3516,-0.23633 0.2949,-0.29297 0.2344,-0.35351 0.1777,-0.41211 0.1172,-0.41211 0.059,-0.41211 v -1.64648 h 35.1758 v 38.52929 H 71.385257 v -15.58789 l -0.0586,-0.70508 -0.17578,-0.70703 -0.29492,-0.64648 -0.41211,-0.58789 -0.5293,-0.4707 -0.58789,-0.41211 -0.64648,-0.35352 -0.70703,-0.17578 -0.70508,-0.0586 h -13.88281 l -0.47071,0.0586 -0.41211,0.11719 -0.35156,0.17578 -0.35351,0.23633 -0.29493,0.29297 -0.23437,0.35351 -0.23633,0.41211 -0.0586,0.41211 -0.0586,0.41211 v 3.29297 l 0.0586,0.41211 0.0586,0.41211 0.23633,0.41211 0.23437,0.35156 0.29493,0.29492 0.35351,0.23438 0.35156,0.17773 0.41211,0.11719 0.47071,0.0586 h 9 v 12.29492 H 9.973147 v -12.29492 h 9 l 0.41211,-0.0586 0.41211,-0.11719 0.41211,-0.17773 0.35156,-0.23438 0.29492,-0.29492 0.23438,-0.35156 0.17773,-0.41211 0.11719,-0.41211 0.0586,-0.41211 v -3.29297 l -0.0586,-0.41211 -0.11719,-0.41211 -0.17773,-0.41211 -0.23438,-0.35351 -0.29492,-0.29297 -0.35156,-0.23633 -0.41211,-0.17578 -0.41211,-0.11719 -0.41211,-0.0586 H 5.031737 l -0.70508,0.0586 -0.64648,0.17578 -0.64844,0.35352 -0.58789,0.41211 -0.5293001,0.4707 -0.41211,0.58789 -0.29296,0.64648 -0.17774,0.70703 -0.0586,0.70508 v 20.47071 l 0.0586,0.70507 0.17774,0.70704 0.29296,0.64648 0.41211,0.58789 0.5293001,0.5293 0.58789,0.35351 0.64844,0.35352 0.64648,0.17578 0.70508,0.0586 H 496.38526 l 0.7051,-0.0586 0.707,-0.17578 0.6465,-0.35352 0.5293,-0.35351 0.5293,-0.5293 0.4121,-0.58789 0.2949,-0.64648 0.1758,-0.70704 0.059,-0.70507 v -22.11719 -0.41211 l -0.1176,-0.41211 -0.1758,-0.41211 -0.2363,-0.35351 -0.3535,-0.29297 -0.3516,-0.23633 -0.3535,-0.17578 -0.4121,-0.11719 -0.4121,-0.0586 h -11.4707 l -0.4707,0.0586 -0.4102,0.11719 -0.3535,0.17578 -0.3535,0.23633 -0.293,0.29297 -0.2363,0.35351 -0.2344,0.41211 -0.059,0.41211 -0.061,0.41211 v 17.23437 h -16.3516 v -110.4707 l -0.059,-0.4707 -0.1777,-0.41211 -0.2344,-0.4707 -0.2949,-0.35157 -1.7051,-1.76562 1.7051,-1.70508 0.2949,-0.35352 0.2344,-0.4707 0.1777,-0.4707 0.059,-0.47071 v -86.64648 l 12.2344,12.29492 v 5.76367 l 0.059,0.41211 0.1191,0.41211 0.1758,0.41211 0.2344,0.29297 0.2949,0.35352 0.3535,0.23437 0.4121,0.17774 0.4102,0.11718 h 0.4121 7.3535 0.4707 l 0.4121,-0.11718 0.3516,-0.17774 0.3535,-0.23437 0.2949,-0.35352 0.293,-0.29297 0.1777,-0.41211 0.1172,-0.41211 v -0.41211 -26.23437 l -0.059,-0.70703 -0.1777,-0.70508 -0.293,-0.64649 -0.4121,-0.58984 -0.5293,-0.4707 -0.5879,-0.41016 -0.6484,-0.35351 -0.6465,-0.17579 -0.7051,-0.0605 h -20.4707 V 124.4729 h 98.2344 l 6.9414,0.64648 6.7656,1.76563 6.3516,3 5.707,4 5,4.9414 4,5.70508 2.9414,6.35352 1.8223,6.76367 0.5879,7 v 8.17773 h -57.293 l -0.707,0.0586 -0.7051,0.17578 -0.6465,0.29492 -0.5879,0.41016 -0.5293,0.53124 -0.4121,0.5879 -0.2949,0.64648 -0.1758,0.70508 -0.059,0.70703 v 20.4707 l 0.059,0.70508 0.1758,0.70703 0.2949,0.64649 0.4121,0.58789 0.5293,0.4707 0.5879,0.41211 0.6465,0.29297 0.7051,0.23633 0.707,0.0586 h 13.8828 l 0.4707,-0.0586 0.4102,-0.11719 0.3535,-0.17774 0.3535,-0.23437 0.293,-0.29492 0.2363,-0.35157 0.2344,-0.4121 0.059,-0.41211 0.061,-0.41211 v -3.29492 l -0.061,-0.41016 -0.059,-0.41211 -0.2344,-0.41211 -0.2363,-0.35352 -0.293,-0.29296 -0.3535,-0.23633 -0.3535,-0.17578 -0.4102,-0.11719 -0.4707,-0.0586 h -9 v -12.29492 h 52.4102 v 12.29492 h -9 l -0.4102,0.0586 -0.4121,0.11719 -0.4121,0.17578 -0.3535,0.23633 -0.293,0.29296 -0.2363,0.35352 -0.1758,0.41211 -0.1172,0.41211 -0.059,0.41016 v 3.29492 l 0.059,0.41211 0.1172,0.41211 0.1758,0.4121 0.2363,0.35157 0.293,0.29492 0.3535,0.23437 0.4121,0.17774 0.4121,0.11719 0.4102,0.0586 h 13.9414 l 0.707,-0.0586 0.6465,-0.23633 0.6465,-0.29297 0.5898,-0.41211 0.5293,-0.4707 0.4102,-0.58789 0.2949,-0.64649 0.1758,-0.70703 0.059,-0.70508 v -32.76562 l -0.7051,-8.5293 -2.2344,-8.29297 -3.6484,-7.76562 -4.8809,-7 -6.0605,-6.0586 -7,-4.9414 -7.7637,-3.64649 -8.2949,-2.17773 -8.5293,-0.76367 z m 21.2949,9 h 233.3535 v 51.64648 h -9.8242 -0.4121 l -0.4121,0.11719 -0.4102,0.17773 -0.2949,0.29297 -0.3535,0.29492 -0.2344,0.35352 -0.1777,0.35156 -0.1172,0.41211 v 0.4707 4.0586 0.41211 l 0.1172,0.41211 0.1777,0.41211 0.2344,0.35156 0.3535,0.29492 0.2949,0.23438 0.4102,0.17773 0.4121,0.11719 0.4121,0.0586 h 9.8242 v 306.4707 H 201.56106 V 181.82641 h 14.7656 v 0.82227 l 0.059,0.41211 0.059,0.41211 0.1777,0.41211 0.293,0.35156 0.2949,0.29492 0.3516,0.23438 0.3535,0.17773 0.4121,0.11719 0.4707,0.0586 h 4.0578 l 0.4707,-0.0586 0.4121,-0.11719 0.3516,-0.17773 0.3535,-0.23438 0.2949,-0.29492 0.2344,-0.35156 0.2363,-0.41211 0.059,-0.41211 0.059,-0.41211 z"
     style="fill:#212830;fill-opacity:1;stroke:#212830;stroke-width:0.0588235px;stroke-linecap:round;stroke-linejoin:round;stroke-miterlimit:4;stroke-dasharray:none;stroke-opacity:1"
     id="path1381" />
</svg>
