<?xml version="1.0" encoding="UTF-8" standalone="no"?>
<svg
   xmlns:dc="http://purl.org/dc/elements/1.1/"
   xmlns:cc="http://creativecommons.org/ns#"
   xmlns:rdf="http://www.w3.org/1999/02/22-rdf-syntax-ns#"
   xmlns:svg="http://www.w3.org/2000/svg"
   xmlns="http://www.w3.org/2000/svg"
   id="svg1037"
   height="101mm"
   width="101mm"
   version="1.0">
  <metadata
     id="metadata1041">
    <rdf:RDF>
      <cc:Work
         rdf:about="">
        <dc:format>image/svg+xml</dc:format>
        <dc:type
           rdf:resource="http://purl.org/dc/dcmitype/StillImage" />
        <dc:title></dc:title>
      </cc:Work>
    </rdf:RDF>
  </metadata>
  <defs
     id="defs3" />
  <path
     d="m 114.36539,0.80754261 -0.5293,0.17578 -0.5293,0.23437999 -0.4707,0.29492 -0.3516,0.4121101 -0.3535,0.41211 -0.2363,0.5293 -0.1172,0.52929 -0.059,0.5293 V 147.747 l 0.059,0.4121 0.1172,0.35352 0.1777,0.29492 0.2344,0.29297 0.2363,0.23633 0.3516,0.17578 0.3535,0.11719 0.3535,0.0586 h 8.8828 l 0.3516,-0.0586 0.3535,-0.11719 0.3535,-0.17578 0.293,-0.23633 0.2363,-0.29297 0.1758,-0.29492 0.1172,-0.35352 v -0.4121 -12 h 12.707 v 82.82421 0.35352 l 0.1172,0.41211 0.1758,0.29297 0.2363,0.29492 2.5879,2.58789 -2.5879,2.64648 -0.1758,0.23633 -0.1777,0.23438 -0.1172,0.29492 -0.059,0.29297 v 0.29492 65.70508 l -9.5293,-9.4707 v -4.46876 -0.35351 l -0.1172,-0.35352 -0.1777,-0.35351 -0.2344,-0.29297 -0.2949,-0.23633 -0.3535,-0.17578 -0.3516,-0.0586 -0.3535,-0.0586 h -5.7051 l -0.3535,0.0586 -0.3535,0.0586 -0.3535,0.17578 -0.293,0.23633 -0.2363,0.29297 -0.1758,0.35351 -0.1172,0.35352 v 0.35351 20.29297 l 0.059,0.5293 0.1172,0.5293 0.2363,0.52929 0.293,0.47071 0.4121,0.35351 0.4707,0.35352 0.4707,0.23437 0.5293,0.11719 0.5879,0.0586 h 15.8242 v 70.9414 H 77.543093 v -10.76367 l -0.059,-0.5293 -0.1191,-0.52929 -0.2344,-0.5293 -0.3535,-0.4707 -0.3516,-0.35352 -0.4707,-0.35352 -0.5293,-0.23437 -0.5312,-0.11719 -0.5293,-0.0605 h -10.7637 l -0.3535,0.0605 -0.3535,0.11719 -0.3516,0.17578 -0.2949,0.23633 -0.2344,0.29297 -0.1777,0.29492 -0.1172,0.35351 v 0.41016 2.5293 0.35351 l 0.1172,0.35352 0.1777,0.35351 0.2344,0.23438 0.2949,0.23438 0.3516,0.17773 0.3535,0.11719 0.3535,0.0586 h 5.7051 v 9.4707 h -38 v -9.4707 h 5.707 l 0.3516,-0.0586 0.3535,-0.11719 0.3535,-0.17773 0.293,-0.23438 0.2363,-0.23438 0.1758,-0.35351 0.1172,-0.35352 v -0.35351 -2.5293 -0.41016 l -0.1172,-0.35351 -0.1758,-0.29492 -0.2363,-0.29297 -0.293,-0.23633 -0.3535,-0.17578 -0.3535,-0.11719 -0.3516,-0.0605 h -10.7656 l -0.5293,0.0605 -0.5293,0.11719 -0.5293,0.23437 -0.4707,0.35352 -0.3535,0.35352 -0.3516,0.4707 -0.2363,0.5293 -0.1172,0.52929 -0.059,0.5293 V 377.747 l 0.059,0.58984 0.1172,0.5293 0.2363,0.4707 0.3516,0.4707 0.3535,0.41016 0.4711,0.29492 0.5293,0.23438 0.5293,0.11914 0.5293,0.0586 h 164.646497 164.5898 l 0.5879,-0.0586 0.5293,-0.11914 0.4707,-0.23438 0.4707,-0.29492 0.4121,-0.41016 0.293,-0.4707 0.2363,-0.4707 0.1172,-0.5293 0.059,-0.58984 v -15.82227 l -0.059,-0.5293 -0.1172,-0.52929 -0.2363,-0.5293 -0.293,-0.4707 -0.4121,-0.35352 -0.4707,-0.35352 -0.4707,-0.23437 -0.5293,-0.11719 -0.5879,-0.0605 h -10.7656 l -0.3535,0.0605 -0.3516,0.11719 -0.3535,0.17578 -0.2344,0.23633 -0.2363,0.29297 -0.1758,0.29492 -0.1191,0.35351 -0.059,0.41016 v 2.5293 l 0.059,0.35351 0.1191,0.35352 0.1758,0.35351 0.2363,0.23438 0.2344,0.23438 0.3535,0.17773 0.3516,0.11719 0.3535,0.0586 h 5.707 v 9.4707 h -38 v -9.4707 h 5.7051 l 0.4121,-0.0586 0.3516,-0.11719 0.2949,-0.17773 0.2949,-0.23438 0.2344,-0.23438 0.1758,-0.35351 0.1191,-0.35352 0.059,-0.35351 v -2.5293 l -0.059,-0.41016 -0.1191,-0.35351 -0.1758,-0.29492 -0.2344,-0.29297 -0.2949,-0.23633 -0.2949,-0.17578 -0.3516,-0.11719 -0.4121,-0.0605 h -10.7656 l -0.5293,0.0605 -0.5293,0.11719 -0.5293,0.23437 -0.4121,0.35352 -0.4102,0.35352 -0.2949,0.4707 -0.2344,0.5293 -0.1777,0.52929 -0.059,0.5293 v 10.76367 h -59.4707 V 301.747 h 15.8242 l 0.5293,-0.0586 0.5293,-0.11719 0.5293,-0.23437 0.4121,-0.35352 0.4121,-0.35351 0.293,-0.47071 0.2363,-0.52929 0.1758,-0.5293 0.059,-0.5293 v -20.29297 l -0.059,-0.35351 -0.1172,-0.35352 -0.1777,-0.35351 -0.2344,-0.29297 -0.2949,-0.23633 -0.293,-0.17578 -0.3535,-0.0586 -0.4121,-0.0586 h -5.7051 l -0.3535,0.0586 -0.3535,0.0586 -0.3516,0.17578 -0.2363,0.23633 -0.2344,0.29297 -0.1777,0.35351 -0.1172,0.35352 -0.059,0.35351 v 4.46876 l -9.4707,9.4707 v -65.70508 l -0.059,-0.29492 -0.059,-0.29297 -0.1172,-0.29492 -0.1777,-0.23438 -0.1758,-0.23633 -2.5879,-2.64648 2.5879,-2.58789 0.2344,-0.29492 0.1777,-0.29297 0.1172,-0.41211 0.059,-0.35352 V 135.747 h 12.6465 v 12 l 0.061,0.4121 0.059,0.35352 0.1758,0.29492 0.2344,0.29297 0.2949,0.23633 0.3535,0.17578 0.3516,0.11719 0.3535,0.0586 h 8.8828 l 0.3535,-0.0586 0.3516,-0.11719 0.3535,-0.17578 0.2949,-0.23633 0.2344,-0.29297 0.1758,-0.29492 0.1191,-0.35352 V 147.747 3.9247327 l -0.059,-0.5293 -0.1191,-0.52929 -0.2344,-0.5293 -0.2949,-0.41211 -0.4121,-0.4121101 -0.4688,-0.29492 -0.4707,-0.23437999 -0.5293,-0.17578 h -0.5898 -75.9414 -76 z m 4.9414,7.58789009 h 71.5879 71.5312 V 128.1591 h -33.5312 -0.3516 l -0.3535,0.0586 -0.2949,0.17773 -0.2344,0.17578 -0.2344,0.23633 -0.1777,0.29297 -0.1758,0.29492 -0.059,0.29297 -0.059,0.35352 v 4.41211 l 0.059,0.41211 0.1172,0.35156 0.1758,0.29492 0.2363,0.29492 0.293,0.23438 0.2949,0.17578 0.3535,0.11914 0.4102,0.0586 h 7.5898 v 236.94141 h -45.5898 -45.5879 V 136.39543 h 7.5879 l 0.3535,-0.0586 0.3535,-0.11914 0.3535,-0.17578 0.293,-0.23438 0.2363,-0.29492 0.1758,-0.29492 0.059,-0.35156 0.059,-0.41211 v -4.41211 -0.35352 l -0.1172,-0.29297 -0.1172,-0.29492 -0.1777,-0.29297 -0.2344,-0.23633 -0.2949,-0.17578 -0.293,-0.17773 -0.3535,-0.0586 h -0.2949 -33.5879 z"
     style="fill:#212830;fill-opacity:1;stroke:#212830;stroke-width:0.0588235px;stroke-linecap:round;stroke-linejoin:round;stroke-miterlimit:4;stroke-dasharray:none;stroke-opacity:1"
     id="path1035" />
</svg>
