<?xml version="1.0" encoding="UTF-8" standalone="no"?>
<svg
   xmlns:dc="http://purl.org/dc/elements/1.1/"
   xmlns:cc="http://creativecommons.org/ns#"
   xmlns:rdf="http://www.w3.org/1999/02/22-rdf-syntax-ns#"
   xmlns:svg="http://www.w3.org/2000/svg"
   xmlns="http://www.w3.org/2000/svg"
   id="svg975"
   height="123mm"
   width="123mm"
   version="1.0">
  <metadata
     id="metadata979">
    <rdf:RDF>
      <cc:Work
         rdf:about="">
        <dc:format>image/svg+xml</dc:format>
        <dc:type
           rdf:resource="http://purl.org/dc/dcmitype/StillImage" />
        <dc:title></dc:title>
      </cc:Work>
    </rdf:RDF>
  </metadata>
  <defs
     id="defs3" />
  <path
     d="m 137.44321,0.58742076 -0.4121,0.0586 -0.3535,0.11914 -0.4121,0.11719 -0.293,0.23437004 -0.2949,0.29492 -0.2344,0.35352 -0.1777,0.35156 -0.1172,0.41211 v 0.41211 12.4707002 0.29492 l 0.059,0.17579 0.1191,0.23437 0.1172,0.23633 0.1758,0.17578 0.1777,0.11719 0.2344,0.11914 0.2344,0.0586 h 0.2363 6.5293 0.2344 l 0.2363,-0.0586 0.1758,-0.11914 0.2363,-0.11719 0.1758,-0.17578 0.1172,-0.23633 0.1191,-0.23437 0.059,-0.17579 v -0.29492 -8.7656202 h 9.293 v 60.5898402 0.29297 l 0.1191,0.23633 0.1172,0.29297 0.1758,0.17773 1.8828,1.93946 -1.8828,1.88281 -0.1758,0.17773 -0.1172,0.17578 -0.061,0.23438 -0.059,0.17773 v 0.23438 48.117189 l -6.9414,-6.93946 v -3.29492 l -0.059,-0.23438 -0.059,-0.23632 -0.1172,-0.23438 -0.1172,-0.17773 -0.1777,-0.17578 -0.1758,-0.11719 -0.2344,-0.11914 -0.2363,-0.0586 h -0.2344 -4.1777 -0.2344 l -0.2363,0.0586 -0.2344,0.11914 -0.1777,0.11719 -0.1758,0.17578 -0.1172,0.17773 -0.1172,0.23438 -0.059,0.23632 -0.06,0.23438 v 14.88281 l 0.06,0.35157 0.1172,0.4121 0.1758,0.35352 0.2363,0.35352 0.2344,0.29296 0.3535,0.23633 0.3516,0.17578 0.4121,0.0586 0.4121,0.0586 h 11.5879 v 51.94141 H 110.0884 v -7.88281 -0.41016 l -0.11718,-0.41211 -0.17579,-0.35352 -0.23632,-0.29297 -0.29492,-0.29492 -0.35157,-0.23632 -0.35351,-0.17579 -0.35352,-0.11718 -0.41016,-0.0586 h -7.882814 l -0.23633,0.0586 -0.23437,0.0586 -0.23633,0.11719 -0.17578,0.11719 -0.17578,0.17773 -0.17774,0.17578 -0.0586,0.23633 -0.0586,0.23437 -0.0586,0.23633 v 1.88086 l 0.0586,0.23633 0.0586,0.23437 0.0586,0.17774 0.17774,0.23437 0.17578,0.17579 0.17578,0.11914 0.23633,0.11718 0.23437,0.0586 h 0.23633 4.175784 v 7 H 76.264186 v -7 h 4.17773 0.23437 l 0.23633,-0.0586 0.23438,-0.11718 0.17773,-0.11914 0.17578,-0.17579 0.11719,-0.23437 0.11719,-0.17774 0.0605,-0.23437 0.0586,-0.23633 v -1.88086 l -0.0586,-0.23633 -0.0605,-0.29297 -0.11719,-0.23632 -0.17578,-0.23438 -0.23633,-0.17773 -0.23437,-0.11719 -0.23633,-0.0586 -0.29297,-0.0586 h -7.88281 l -0.41211,0.0586 -0.35157,0.11718 -0.4121,0.17579 -0.29493,0.23632 -0.29297,0.29492 -0.23632,0.29297 -0.17578,0.35352 -0.11914,0.41211 v 0.41016 11.58984 0.41016 l 0.11914,0.35351 0.17578,0.41211 0.23632,0.29492 0.29297,0.29297 0.29493,0.23633 0.4121,0.17578 0.35157,0.11719 h 0.41211 81.117204 v 275.9414 0.41211 l 0.1191,0.35352 0.1758,0.41016 0.2344,0.29492 0.2949,0.29492 0.2949,0.23437 0.4102,0.17579 0.3535,0.11914 h 0.4121 152.94139 0.4121 l 0.3516,-0.11914 0.4121,-0.17579 0.2949,-0.23437 0.293,-0.29492 0.2363,-0.29492 0.1758,-0.41016 0.1172,-0.35352 v -0.41211 -275.9414 h 81.1191 0.4102 l 0.3535,-0.11719 0.4121,-0.17578 0.2949,-0.23633 0.293,-0.29297 0.2363,-0.29492 0.1758,-0.41211 0.1172,-0.35351 v -0.41016 -11.58984 -0.41016 l -0.1172,-0.41211 -0.1758,-0.35352 -0.2363,-0.29297 -0.293,-0.29492 -0.2949,-0.23632 -0.4121,-0.17579 -0.3535,-0.11718 -0.4102,-0.0586 h -7.8828 l -0.2363,0.0586 -0.2344,0.0586 -0.2363,0.11719 -0.1758,0.11719 -0.1758,0.17773 -0.1191,0.17578 -0.1172,0.23633 -0.059,0.23437 -0.059,0.23633 v 1.88086 l 0.059,0.23633 0.059,0.23437 0.1172,0.17774 0.1191,0.23437 0.1758,0.17579 0.1758,0.11914 0.2363,0.11718 0.2344,0.0586 h 0.2363 4.1758 v 7 h -27.8223 v -7 h 4.1758 0.2344 l 0.2363,-0.0586 0.2344,-0.11718 0.1777,-0.11914 0.1758,-0.17579 0.1758,-0.23437 0.059,-0.17774 0.061,-0.23437 0.059,-0.23633 v -1.88086 l -0.059,-0.23633 -0.061,-0.23437 -0.059,-0.23633 -0.1758,-0.17578 -0.1758,-0.17773 -0.1777,-0.11719 -0.2344,-0.11719 -0.2363,-0.0586 -0.2344,-0.0586 h -7.8828 l -0.4121,0.0586 -0.3516,0.11718 -0.3535,0.17579 -0.3535,0.23632 -0.293,0.29492 -0.2363,0.29297 -0.1758,0.35352 -0.1172,0.41211 v 0.41016 7.88281 h -43.5898 v -51.94141 h 11.5898 l 0.4102,-0.0586 0.4121,-0.0586 0.3535,-0.17578 0.3535,-0.23633 0.2344,-0.29296 0.2363,-0.35352 0.1758,-0.35352 0.1172,-0.4121 0.059,-0.35157 v -14.88281 l -0.059,-0.23438 -0.059,-0.23632 -0.1172,-0.23438 -0.1172,-0.17773 -0.1777,-0.17578 -0.1758,-0.11719 -0.2363,-0.11914 -0.2344,-0.0586 h -0.2363 -4.1758 -0.2344 l -0.2363,0.0586 -0.2344,0.11914 -0.1777,0.11719 -0.1758,0.17578 -0.1172,0.17773 -0.1191,0.23438 -0.059,0.23632 -0.059,0.23438 v 3.29492 l -6.9414,6.93946 v -48.117189 -0.23438 l -0.059,-0.17773 -0.059,-0.23438 -0.1172,-0.17578 -0.1758,-0.17773 -1.8828,-1.88281 1.8828,-1.93946 0.1758,-0.17773 0.1172,-0.29297 0.1172,-0.23633 V 67.235861 6.6460208 h 9.2949 v 8.7656202 0.29492 l 0.059,0.17579 0.1172,0.23437 0.1191,0.23633 0.1758,0.17578 0.2344,0.11719 0.1777,0.11914 0.2344,0.0586 h 0.2363 6.5293 0.2344 l 0.2363,-0.0586 0.2344,-0.11914 0.1758,-0.11719 0.1777,-0.17578 0.1172,-0.23633 0.1172,-0.23437 0.059,-0.17579 v -0.29492 -12.4707002 -0.41211 l -0.1172,-0.41211 -0.1758,-0.35156 -0.2363,-0.35352 -0.293,-0.29492 -0.2949,-0.23437004 -0.3535,-0.11719 -0.4102,-0.11914 -0.4121,-0.0586 z m 22.2344,6.05860004 H 305.2069 V 180.05813 H 159.67761 Z m 0.9414,180.3535092 H 304.2655 V 450.41164 H 160.61901 Z"
     style="fill:#212830;fill-opacity:1;stroke:#212830;stroke-width:0.0588235px;stroke-linecap:round;stroke-linejoin:round;stroke-miterlimit:4;stroke-dasharray:none;stroke-opacity:1"
     id="path969" />
</svg>
