<?xml version="1.0" encoding="UTF-8" standalone="no"?>
<svg
   xmlns:dc="http://purl.org/dc/elements/1.1/"
   xmlns:cc="http://creativecommons.org/ns#"
   xmlns:rdf="http://www.w3.org/1999/02/22-rdf-syntax-ns#"
   xmlns:svg="http://www.w3.org/2000/svg"
   xmlns="http://www.w3.org/2000/svg"
   id="svg1081"
   height="155mm"
   width="155mm"
   version="1.0">
  <metadata
     id="metadata1085">
    <rdf:RDF>
      <cc:Work
         rdf:about="">
        <dc:format>image/svg+xml</dc:format>
        <dc:type
           rdf:resource="http://purl.org/dc/dcmitype/StillImage" />
        <dc:title></dc:title>
      </cc:Work>
    </rdf:RDF>
  </metadata>
  <defs
     id="defs3" />
  <path
     d="m 121.53053,125.61944 -0.7051,0.0586 -0.7051,0.17578 -0.6484,0.35351 -0.6465,0.41211 -0.4707,0.47071 -0.4121,0.64648 -0.3516,0.64649 -0.1777,0.70703 -0.059,0.70507 v 22.5879 l 0.059,0.4707 0.1172,0.4707 0.2363,0.4707 0.3535,0.35352 0.3516,0.35352 0.4121,0.17578 0.4707,0.17578 0.5293,0.0605 h 11.707 l 0.4707,-0.0605 0.4688,-0.17578 0.4121,-0.17578 0.4121,-0.35352 0.2949,-0.35352 0.2344,-0.4707 0.1172,-0.4707 0.061,-0.4707 v -15.88086 h 16.7051 v 109.35156 l 0.059,0.41211 0.1172,0.35351 0.1191,0.35352 0.2344,0.35156 0.2344,0.29492 3.4121,3.47071 -3.4121,3.41211 -0.293,0.4121 -0.2363,0.41016 -0.1758,0.4707 -0.059,0.5293 v 86.76563 l -12.5293,-12.5293 v -5.88281 -0.41211 l -0.1172,-0.41211 -0.1777,-0.41016 -0.293,-0.35351 -0.2949,-0.35352 -0.3535,-0.23437 -0.4102,-0.17774 -0.4121,-0.11719 -0.4121,-0.0586 h -7.5293 l -0.5293,0.0586 -0.4707,0.17579 -0.4121,0.23632 -0.3535,0.29492 -0.3516,0.35157 -0.2363,0.4707 -0.1172,0.4707 -0.059,0.47071 v 26.76562 l 0.059,0.76367 0.1758,0.64649 0.3535,0.70703 0.4121,0.58789 0.5293,0.5293 0.5879,0.41211 0.6465,0.29297 0.707,0.17773 0.7051,0.0586 h 20.8828 v 93.70508 H 72.238039 v -14.23437 l -0.059,-0.70703 -0.2363,-0.70508 -0.293,-0.70508 -0.4121,-0.58984 -0.5293,-0.46876 -0.5879,-0.4707 -0.6484,-0.29492 -0.7051,-0.17578 -0.7051,-0.0586 h -14.2363 l -0.4707,0.0586 -0.4707,0.11719 -0.4707,0.23437 -0.3516,0.29492 -0.2949,0.41211 -0.2363,0.41211 -0.1758,0.4707 -0.059,0.5293 v 3.29297 l 0.059,0.5293 0.1758,0.4707 0.2363,0.41211 0.2949,0.41211 0.3516,0.29297 0.4707,0.23633 0.4707,0.11718 0.4707,0.0586 h 7.5293 v 12.52929 h -50.1758 v -12.52929 h 7.5293 l 0.5293,-0.0586 0.4707,-0.11718 0.4121,-0.23633 0.3516,-0.29297 0.3535,-0.41211 0.2363,-0.41211 0.1172,-0.4707 0.059,-0.5293 v -3.29297 l -0.059,-0.4707 -0.1172,-0.41211 -0.1777,-0.41211 -0.2344,-0.35352 -0.2949,-0.29296 -0.3535,-0.23633 -0.4102,-0.17578 -0.4121,-0.11719 -0.4707,-0.0586 H 4.5306392 l -0.7637,0.0586 -0.7051,0.17578 -0.6484,0.29492 -0.5879,0.4707 -0.5293,0.46876 -0.41210002,0.58984 -0.293,0.70508 -0.1777,0.70508 -0.059,0.70703 v 20.9414 l 0.059,0.70508 0.1777,0.70703 0.293,0.64649 0.41210002,0.58789 0.5293,0.52929 0.5879,0.41211 0.6484,0.29492 0.7051,0.23438 0.7637,0.0586 H 464.23763 l 0.7051,-0.0586 0.707,-0.23438 0.7051,-0.29492 0.5879,-0.41211 0.5293,-0.52929 0.4121,-0.58789 0.2949,-0.64649 0.1758,-0.70703 0.059,-0.70508 v -22.58789 l -0.059,-0.5293 -0.1172,-0.4707 -0.2363,-0.41211 -0.293,-0.41211 -0.4121,-0.29492 -0.4121,-0.23437 -0.4707,-0.11719 -0.4707,-0.0586 h -11.7051 l -0.5293,0.0586 -0.4707,0.11719 -0.4121,0.23437 -0.4121,0.29492 -0.293,0.41211 -0.2363,0.41211 -0.1172,0.4707 -0.059,0.5293 v 15.88086 h -16.707 V 339.97296 l -0.059,-0.41211 -0.059,-0.41211 -0.1758,-0.35352 -0.1777,-0.35156 -0.293,-0.29492 -3.4121,-3.41211 3.4121,-3.4707 0.3535,-0.35157 0.2344,-0.4707 0.1172,-0.4707 0.059,-0.4707 v -86.76563 l 12.5293,12.5293 v 5.88281 l 0.061,0.41211 0.1172,0.41211 0.1758,0.41016 0.2363,0.35351 0.293,0.29492 0.3535,0.23438 0.4121,0.23633 0.4121,0.11718 h 0.4707 7.4688 l 0.5312,-0.0586 0.4688,-0.11719 0.4121,-0.23633 0.4121,-0.29297 0.2949,-0.4121 0.2344,-0.41211 0.1172,-0.47071 0.061,-0.4707 v -26.76562 l -0.061,-0.76368 -0.1758,-0.70508 -0.2949,-0.64843 -0.4688,-0.58789 -0.4707,-0.5293 -0.5898,-0.41211 -0.7051,-0.29297 -0.7051,-0.23633 -0.707,-0.0586 h -20.8828 v -93.64648 h 78.5898 v 14.23437 l 0.059,0.70703 0.1758,0.70508 0.2949,0.64648 0.4102,0.5879 0.5312,0.53124 0.5879,0.41016 0.6465,0.29492 0.7051,0.23438 0.7656,0.0605 h 14.1758 l 0.4707,-0.0605 0.4707,-0.17578 0.4707,-0.17578 0.3535,-0.35352 0.3535,-0.35352 0.2344,-0.4707 0.1172,-0.4707 0.059,-0.4707 v -3.35157 l -0.059,-0.4707 -0.1172,-0.4707 -0.2344,-0.47071 -0.3535,-0.35351 -0.3535,-0.29297 -0.4707,-0.23633 -0.4707,-0.17578 h -0.4707 -7.5293 v -12.58789 h 50.1777 v 12.58789 h -7.5293 -0.4707 l -0.4707,0.17578 -0.4707,0.23633 -0.3535,0.29297 -0.2949,0.35351 -0.2344,0.47071 -0.1758,0.4707 -0.061,0.4707 v 3.35157 l 0.061,0.4121 0.1172,0.47071 0.1758,0.35351 0.2363,0.35352 0.3516,0.35156 0.3535,0.23633 0.3535,0.17578 0.4707,0.11719 0.4121,0.0605 h 14.2342 l 0.7051,-0.0605 0.707,-0.23438 0.6465,-0.29492 0.5879,-0.41016 0.5293,-0.53124 0.4121,-0.5879 0.2949,-0.64648 0.2344,-0.70508 0.059,-0.70703 V 129.7952 l -0.059,-0.70507 -0.2344,-0.70703 -0.2949,-0.64649 -0.4121,-0.64648 -0.5293,-0.47071 -0.5879,-0.41211 -0.6465,-0.35351 -0.707,-0.17578 -0.7051,-0.0586 z m 65.1777,8.35352 h 212.3535 v 2.5293 h 25.0586 v 25.05859 h 2.5293 v 118.82227 h -2.5293 v 7.29492 l 0.059,0.4707 0.1172,0.4707 0.2344,0.47071 0.3535,0.35351 3.4121,3.4707 -3.4121,3.41016 -0.3535,0.41211 -0.2348,0.41211 -0.1172,0.4707 -0.059,0.5293 v 49.11719 h 2.5293 v 76.9414 h -2.5293 v 25.11719 h -25.0586 v 2.4707 h -212.3535 v -2.4707 h -25.0586 v -25.11719 h -2.4707 V 305.44366 h 2.4707 v -7.29492 l -0.059,-0.5293 -0.1191,-0.4707 -0.2344,-0.41211 -0.2949,-0.41211 -3.4707,-3.41016 3.4707,-3.4707 0.2949,-0.35351 0.2344,-0.47071 0.1191,-0.4707 0.059,-0.4707 v -49.11719 h -2.4707 v -77 h 2.4707 v -25.05859 h 25.0586 z"
     style="fill:#212830;fill-opacity:1;stroke:#212830;stroke-width:0.0588235px;stroke-linecap:round;stroke-linejoin:round;stroke-miterlimit:4;stroke-dasharray:none;stroke-opacity:1"
     id="path1079" />
</svg>
