<?xml version="1.0" encoding="UTF-8" standalone="no"?>
<svg
   xmlns:dc="http://purl.org/dc/elements/1.1/"
   xmlns:cc="http://creativecommons.org/ns#"
   xmlns:rdf="http://www.w3.org/1999/02/22-rdf-syntax-ns#"
   xmlns:svg="http://www.w3.org/2000/svg"
   xmlns="http://www.w3.org/2000/svg"
   id="svg1105"
   height="152mm"
   width="152mm"
   version="1.0">
  <metadata
     id="metadata1109">
    <rdf:RDF>
      <cc:Work
         rdf:about="">
        <dc:format>image/svg+xml</dc:format>
        <dc:type
           rdf:resource="http://purl.org/dc/dcmitype/StillImage" />
        <dc:title></dc:title>
      </cc:Work>
    </rdf:RDF>
  </metadata>
  <defs
     id="defs3" />
  <path
     d="m 121.77414,121.6562 -0.707,0.0586 -0.7051,0.23438 -0.6484,0.29492 -0.5879,0.41211 -0.5293,0.5293 -0.4121,0.58789 -0.293,0.64648 -0.1777,0.70703 -0.059,0.70508 v 22.35352 0.4707 l 0.1777,0.4707 0.2344,0.41211 0.2949,0.41016 0.3516,0.29492 0.4707,0.23438 0.4707,0.11914 0.4707,0.0586 h 11.5879 l 0.4121,-0.0586 0.4121,-0.11914 0.4121,-0.17579 0.3535,-0.23437 0.293,-0.29492 0.2363,-0.35352 0.1758,-0.41016 0.1172,-0.4121 0.059,-0.41211 v -2.47071 l -0.059,-0.4707 -0.1172,-0.41211 -0.1758,-0.41211 -0.2363,-0.35156 -0.293,-0.29492 -0.3535,-0.23438 -0.4121,-0.17773 -0.4121,-0.11719 -0.4121,-0.0586 h -6.6465 v -14.0586 h 24.8242 v 113.23438 l 0.059,0.35351 0.059,0.41211 0.1758,0.35157 0.1777,0.29492 0.2344,0.35351 1.7656,1.70508 -1.7656,1.76563 -0.2344,0.29296 -0.1777,0.35352 -0.1758,0.35352 -0.059,0.35156 -0.059,0.41211 v 87.52929 l -12.4117,-12.4121 v -5.76368 l -0.059,-0.41211 -0.059,-0.4707 -0.2363,-0.35351 -0.2344,-0.35157 -0.2949,-0.29492 -0.3516,-0.29297 -0.4121,-0.17773 -0.4113,-0.11719 h -0.4121 -7.4707 -0.4707 l -0.4707,0.17578 -0.4121,0.23633 -0.3516,0.29297 -0.3535,0.35351 -0.2344,0.47071 -0.1191,0.4707 -0.059,0.4707 v 5.23438 l 0.059,0.4707 0.1191,0.4707 0.2344,0.41211 0.3535,0.41211 24.0586,24.0586 v 95.58789 H 72.125721 v -17.35157 l -0.05859,-0.76562 -0.17578,-0.70508 -0.29492,-0.64844 -0.41211,-0.58789 -0.5293,-0.4707 -0.58789,-0.41211 -0.64648,-0.35156 -0.70703,-0.17774 -0.70508,-0.0586 h -14.0586 l -0.52929,0.0586 -0.47071,0.11914 -0.41211,0.23438 -0.35351,0.35352 -0.29297,0.35156 -0.23633,0.41211 -0.17578,0.4707 -0.0586,0.4707 v 2.5293 l 0.0586,0.4707 0.17578,0.47071 0.23633,0.41211 0.29297,0.35351 0.35351,0.35156 0.41211,0.23633 0.47071,0.11719 0.52929,0.0586 h 10.70508 v 14.0586 H 9.2448604 v -14.0586 H 20.008541 l 0.41211,-0.0586 0.41211,-0.11719 0.4121,-0.17773 0.35157,-0.23438 0.29492,-0.29492 0.29297,-0.35156 0.17773,-0.41211 0.11719,-0.41211 v -0.41211 -2.5293 -0.41211 l -0.11719,-0.4121 -0.17773,-0.41016 -0.29297,-0.35352 -0.29492,-0.29492 -0.35157,-0.23437 -0.4121,-0.17579 -0.41211,-0.11914 -0.41211,-0.0586 H 5.9499404 l -0.70508,0.0586 -0.70703,0.17774 -0.64648,0.35156 -0.58789,0.41211 -0.5293,0.4707 -0.41211,0.58789 -0.29492,0.64844 -0.17578,0.70508 -0.0586,0.76562 v 20.64649 l 0.0586,0.76367 0.17578,0.64844 0.29492,0.70508 0.41211,0.58789 0.5293,0.4707 0.58789,0.41211 0.64648,0.29492 0.70703,0.23438 0.70508,0.0586 H 568.53784 l 0.707,-0.0586 0.7051,-0.23438 0.6465,-0.29492 0.5879,-0.41211 0.5293,-0.4707 0.4121,-0.58789 0.2949,-0.70508 0.1758,-0.64844 0.059,-0.76367 v -20.64649 l -0.059,-0.76562 -0.1758,-0.70508 -0.2949,-0.64844 -0.4121,-0.58789 -0.5293,-0.4707 -0.5879,-0.41211 -0.6465,-0.35156 -0.7051,-0.17774 -0.707,-0.0586 h -14.0586 l -0.5293,0.0586 -0.4121,0.11914 -0.4707,0.23438 -0.3535,0.35352 -0.293,0.35156 -0.2363,0.41211 -0.1758,0.4707 -0.059,0.4707 v 2.5293 l 0.059,0.4707 0.1758,0.47071 0.2363,0.41211 0.293,0.35351 0.3535,0.35156 0.4707,0.23633 0.4121,0.11719 0.5293,0.0586 h 10.7051 v 14.0586 h -55.4102 v -14.0586 h 10.7637 l 0.4707,-0.0586 0.4707,-0.11719 0.4121,-0.23633 0.4121,-0.35156 0.293,-0.35351 0.2363,-0.41211 0.1172,-0.47071 0.059,-0.4707 v -2.5293 l -0.059,-0.4707 -0.1172,-0.4707 -0.2363,-0.41211 -0.293,-0.35156 -0.4121,-0.35352 -0.4121,-0.23438 -0.4707,-0.11914 -0.4707,-0.0586 h -14.0586 l -0.7051,0.0586 -0.707,0.17774 -0.6465,0.35156 -0.5879,0.41211 -0.5293,0.4707 -0.4121,0.58789 -0.2949,0.64844 -0.1758,0.70508 -0.059,0.76562 v 17.35157 h -77.7656 v -95.58789 l 24.0586,-24.0586 0.2949,-0.41211 0.2344,-0.41211 0.1777,-0.4707 v -0.4707 -5.23438 -0.4707 l -0.1777,-0.4707 -0.2344,-0.47071 -0.2949,-0.35351 -0.3516,-0.29297 -0.4707,-0.23633 -0.4117,-0.17578 h -0.5293 -7.4121 -0.5293 l -0.4121,0.17578 -0.4707,0.23633 -0.3535,0.29297 -0.293,0.35351 -0.2363,0.47071 -0.1758,0.4707 -0.059,0.4707 v 5.76368 l -12.3535,12.4121 v -87.52929 l -0.059,-0.41211 -0.1172,-0.35156 -0.1172,-0.35352 -0.2363,-0.35352 -0.2344,-0.29296 -1.7656,-1.76563 1.7656,-1.70508 0.2344,-0.35351 0.2363,-0.29492 0.1172,-0.35157 0.1172,-0.41211 0.059,-0.35351 V 129.1269 h 24.7656 v 14.0586 h -6.5879 l -0.4121,0.0586 -0.4121,0.11719 -0.4121,0.17773 -0.3535,0.23438 -0.293,0.29492 -0.2949,0.35156 -0.1758,0.41211 -0.1172,0.41211 v 0.4707 2.47071 l 0.059,0.4707 0.1172,0.4707 0.2344,0.41211 0.2949,0.41016 0.4121,0.29492 0.4121,0.23438 0.4707,0.11914 0.4707,0.0586 h 11.5879 l 0.4121,-0.0586 0.4102,-0.11914 0.4121,-0.17579 0.3535,-0.23437 0.2949,-0.29492 0.2344,-0.35352 0.1758,-0.41016 0.1191,-0.4121 0.059,-0.41211 v -22.35352 l -0.059,-0.70508 -0.1777,-0.70703 -0.293,-0.64648 -0.4121,-0.58789 -0.5293,-0.5293 -0.5879,-0.41211 -0.6484,-0.29492 -0.7051,-0.23438 -0.707,-0.0586 z m 35.5879,7.4707 h 105.0586 v 0.82227 l 0.059,0.41211 0.059,0.4707 0.2363,0.35352 0.2344,0.35351 0.2949,0.29297 0.3516,0.29492 0.4121,0.17578 0.4121,0.11719 h 0.4121 44.7051 0.4121 l 0.4121,-0.11719 0.4121,-0.17578 0.3516,-0.29492 0.2949,-0.29297 0.2344,-0.35351 0.1777,-0.35352 0.1172,-0.4707 0.059,-0.41211 v -0.82227 h 105.0586 v 316.23438 h -105.0586 v -0.82227 l -0.059,-0.41211 -0.1172,-0.41211 -0.1777,-0.41211 -0.2344,-0.35351 -0.2949,-0.29297 -0.3516,-0.29492 -0.4121,-0.17578 -0.4121,-0.11719 h -0.4121 -44.7051 -0.4129 l -0.4121,0.11719 -0.4121,0.17578 -0.3516,0.29492 -0.2949,0.29297 -0.2344,0.35351 -0.2363,0.41211 -0.059,0.41211 -0.059,0.41211 v 0.82227 h -105.0586 z"
     style="fill:#212830;fill-opacity:1;stroke:#212830;stroke-width:0.0588235px;stroke-linecap:round;stroke-linejoin:round;stroke-miterlimit:4;stroke-dasharray:none;stroke-opacity:1"
     id="path1103" />
</svg>
