<?xml version="1.0" encoding="UTF-8" standalone="no"?>
<svg
   xmlns:dc="http://purl.org/dc/elements/1.1/"
   xmlns:cc="http://creativecommons.org/ns#"
   xmlns:rdf="http://www.w3.org/1999/02/22-rdf-syntax-ns#"
   xmlns:svg="http://www.w3.org/2000/svg"
   xmlns="http://www.w3.org/2000/svg"
   id="svg961"
   height="124mm"
   width="124mm"
   version="1.0">
  <metadata
     id="metadata965">
    <rdf:RDF>
      <cc:Work
         rdf:about="">
        <dc:format>image/svg+xml</dc:format>
        <dc:type
           rdf:resource="http://purl.org/dc/dcmitype/StillImage" />
        <dc:title></dc:title>
      </cc:Work>
    </rdf:RDF>
  </metadata>
  <defs
     id="defs3" />
  <path
     d="m 121.47894,67.036765 -0.64843,0.0586 -0.64649,0.17578 -0.58789,0.23633 -0.58789,0.35351 -0.4707,0.41016 -0.41211,0.4707 -0.35352,0.58984 -0.23437,0.5879 -0.17774,0.64648 -0.0586,0.64648 v 22.5879 l 0.0586,0.4121 0.11914,0.47071 0.17579,0.35351 0.23437,0.35352 0.29492,0.35156 0.35352,0.23633 0.41016,0.17578 0.4121,0.11719 0.47071,0.0605 h 11.70703 l 0.41016,-0.0605 0.4121,-0.11719 0.41211,-0.17578 0.35352,-0.23633 0.29297,-0.35156 0.29492,-0.35352 0.17578,-0.35351 0.11914,-0.47071 v -0.4121 -15.88086 h 16.70508 V 187.27114 l 0.0586,0.4707 0.17579,0.4707 0.23632,0.47071 0.29492,0.35351 3.46876,3.47071 -3.46876,3.41211 -0.23632,0.35156 -0.23438,0.29492 -0.11914,0.35352 -0.11719,0.4121 -0.0586,0.41016 v 86.76563 l -12.5293,-12.5293 v -5.88281 -0.41211 l -0.11718,-0.41211 -0.17774,-0.41016 -0.29297,-0.35351 -0.29492,-0.35352 -0.35351,-0.23437 -0.41016,-0.17774 -0.41211,-0.11719 -0.41211,-0.0586 h -7.5293 l -0.52929,0.0586 -0.41211,0.17579 -0.47071,0.23632 -0.35351,0.29492 -0.35156,0.35157 -0.23633,0.4707 -0.11719,0.4707 -0.0586,0.47071 v 26.76562 l 0.0586,0.64649 0.17578,0.64648 0.23633,0.58789 0.35351,0.58984 0.41016,0.46876 0.4707,0.4707 0.5879,0.29492 0.58984,0.29492 0.64648,0.11719 0.64649,0.0586 h 20.88281 v 95.35352 h -53.4707 v -1.64844 h -25.0586 v -14.23437 l -0.0586,-0.64649 -0.17773,-0.64844 -0.23437,-0.58791 -0.35352,-0.58789 -0.4121,-0.4707 -0.5293,-0.41211 -0.5293,-0.35351 -0.58789,-0.29297 -0.64648,-0.11719 -0.64649,-0.0586 H 53.77191 l -0.4707,0.0586 -0.4707,0.11719 -0.47071,0.23437 -0.35156,0.29492 -0.29492,0.41211 -0.23438,0.41211 -0.17773,0.4707 v 0.5293 3.29297 0.5293 l 0.17773,0.4707 0.23438,0.41211 0.29492,0.41211 0.35156,0.29297 0.47071,0.23633 0.4707,0.11718 0.4707,0.0586 h 7.5293 v 12.52929 H 11.12543 v -12.52928 h 7.5293 l 0.4707,-0.0586 0.41211,-0.0586 0.41016,-0.23438 0.35351,-0.23632 0.29492,-0.29492 0.23438,-0.35157 0.17773,-0.41211 0.11719,-0.41211 0.0586,-0.4707 v -3.29297 l -0.0586,-0.4707 -0.11719,-0.41211 -0.17773,-0.41211 -0.23438,-0.35352 -0.29492,-0.29296 -0.35351,-0.23633 -0.41016,-0.17578 -0.41211,-0.11719 -0.4707,-0.0586 H 4.4789396 l -0.64843,0.0586 -0.64649,0.11719 -0.64648,0.29297 -0.5293,0.35351 -0.4707,0.41211 -0.4707001,0.4707 -0.35351996,0.58789 -0.23438,0.58789 -0.11914,0.64844 -0.0586,0.64649 v 20.9414 l 0.0586,0.64649 0.11914,0.58789 0.23438,0.64843 0.35351996,0.5293 0.4707001,0.5293 0.4707,0.41016 0.5293,0.35351 0.64648,0.23633 0.64649,0.17578 0.64843,0.0586 H 464.18402 l 0.6465,-0.0586 0.6484,-0.17578 0.5879,-0.23633 0.5879,-0.35351 0.4707,-0.41016 0.4707,-0.5293 0.3516,-0.5293 0.2363,-0.64843 0.1172,-0.58789 0.059,-0.64649 v -22.58789 -0.4707 l -0.1172,-0.41211 -0.1758,-0.41211 -0.2949,-0.35352 -0.293,-0.29296 -0.3535,-0.23633 -0.4121,-0.17578 -0.4121,-0.11719 -0.4121,-0.0586 h -11.7051 l -0.5293,0.0586 -0.4707,0.11719 -0.4121,0.23437 -0.3535,0.29492 -0.3516,0.41211 -0.2363,0.41211 -0.1172,0.4707 -0.059,0.5293 v 15.88086 h -16.707 v -93.70507 h 16.707 v 14.23438 l 0.059,0.4707 0.1172,0.4707 0.2363,0.47071 0.3516,0.35351 0.3535,0.29492 0.4121,0.23438 0.4707,0.17578 0.5293,0.0586 h 3.3535 l 0.4102,-0.0586 0.4121,-0.11719 0.4121,-0.17578 0.3535,-0.23633 0.293,-0.35156 0.2363,-0.35351 0.2344,-0.35352 0.1191,-0.4707 v -0.41211 -45.17578 -0.41211 l -0.1191,-0.41211 -0.2344,-0.41016 -0.2363,-0.35351 -0.293,-0.35352 -0.3535,-0.23437 -0.4121,-0.17774 -0.4121,-0.11719 -0.4102,-0.0586 h -7.5293 l -0.4707,0.0586 -0.4121,0.11719 -0.4121,0.17774 -0.3535,0.23437 -0.293,0.35352 -0.2363,0.35351 -0.1758,0.41016 -0.1172,0.41211 -0.059,0.41211 v 5.88281 l -12.5312,12.5293 v -86.76563 l -0.059,-0.41016 -0.059,-0.4121 -0.1758,-0.35352 -0.1758,-0.29492 -0.2949,-0.35156 -3.4121,-3.41211 3.4121,-3.47071 0.3535,-0.35351 0.2344,-0.47071 0.1172,-0.4707 0.059,-0.4707 V 77.919585 h 16.707 v 15.88086 l 0.059,0.4121 0.1172,0.47071 0.1777,0.35351 0.2344,0.35352 0.2949,0.35156 0.3516,0.23633 0.4121,0.17578 0.4121,0.11719 0.4707,0.0605 h 11.7051 l 0.4121,-0.0605 0.4121,-0.11719 0.4121,-0.17578 0.3535,-0.23633 0.293,-0.35156 0.2949,-0.35352 0.1758,-0.35351 0.1172,-0.47071 v -0.4121 -22.5879 l -0.059,-0.64648 -0.1172,-0.64648 -0.2363,-0.5879 -0.3516,-0.58984 -0.4707,-0.4707 -0.4707,-0.41016 -0.5879,-0.35351 -0.5879,-0.23633 -0.6484,-0.17578 -0.6465,-0.0586 z m 65.23438,8.35352 h 212.2949 v 2.5293 h 25.0586 v 25.058585 h 2.5293 v 77 h -2.5293 v 49.11719 l 0.059,0.4707 0.1172,0.4707 0.2363,0.47071 0.3516,0.35351 3.4121,3.4707 -3.4121,3.41016 -0.3516,0.41211 -0.2363,0.41211 -0.1172,0.4707 -0.059,0.5293 v 7.29492 h 2.5293 v 143.88086 h -27.5879 v 2.4707 h -212.2949 v -2.4707 H 159.12543 V 246.86098 h 2.4707 v -7.29492 l -0.0586,-0.5293 -0.11914,-0.4707 -0.23438,-0.41211 -0.29492,-0.41211 -3.4707,-3.41016 3.4707,-3.4707 0.29492,-0.35351 0.23438,-0.47071 0.11914,-0.4707 0.0586,-0.4707 v -49.11719 h -2.4707 v -77 h 2.4707 V 77.919585 h 25.11719 z"
     style="fill:#212830;fill-opacity:1;stroke:#212830;stroke-width:0.0588235px;stroke-linecap:round;stroke-linejoin:round;stroke-miterlimit:4;stroke-dasharray:none;stroke-opacity:1"
     id="path959" />
</svg>
