<?xml version="1.0" encoding="UTF-8" standalone="no"?>
<svg
   xmlns:dc="http://purl.org/dc/elements/1.1/"
   xmlns:cc="http://creativecommons.org/ns#"
   xmlns:rdf="http://www.w3.org/1999/02/22-rdf-syntax-ns#"
   xmlns:svg="http://www.w3.org/2000/svg"
   xmlns="http://www.w3.org/2000/svg"
   id="svg807"
   height="184mm"
   width="184mm"
   version="1.0">
  <metadata
     id="metadata811">
    <rdf:RDF>
      <cc:Work
         rdf:about="">
        <dc:format>image/svg+xml</dc:format>
        <dc:type
           rdf:resource="http://purl.org/dc/dcmitype/StillImage" />
        <dc:title></dc:title>
      </cc:Work>
    </rdf:RDF>
  </metadata>
  <defs
     id="defs3" />
  <path
     d="m 231.89354,0.15793631 -0.3516,0.05859 -0.3535,0.117188 -0.2949,0.117187 -0.3516,0.236328 -0.2363,0.234375 -0.2344,0.29492209 -0.1191,0.353516 -0.1172,0.351562 v 0.353516 11.4121096 0.175782 l 0.059,0.236328 0.059,0.175781 0.1777,0.175781 0.1172,0.177734 0.1758,0.117188 0.2363,0.117188 0.1758,0.05859 h 0.2363 5.8809 0.2363 l 0.2344,-0.05859 0.1769,-0.117184 0.1758,-0.117188 0.1758,-0.177734 0.1191,-0.175781 0.059,-0.175781 0.059,-0.236328 0.059,-0.175782 V 5.6286394 h 8.4121 v 55.1171886 0.23438 l 0.1172,0.23632 0.1172,0.23438 0.1172,0.17773 1.7656,1.76367 -1.7656,1.70704 -0.1172,0.17578 -0.1184,0.23632 -0.1172,0.23438 v 0.23438 43.707022 l -6.2949,-6.29493 v -2.9414 l -0.059,-0.23438 -0.059,-0.236312 -0.059,-0.17579 -0.1172,-0.17578 -0.1777,-0.17773 -0.1758,-0.11719 -0.2363,-0.0586 -0.1758,-0.0586 -0.2344,-0.0586 h -3.7656 l -0.2344,0.0586 -0.2363,0.0586 -0.1758,0.0586 -0.1777,0.11719 -0.1758,0.17773 -0.1172,0.17578 -0.1172,0.17579 v 0.236312 l -0.061,0.23438 v 22.76562 l 0.061,0.23438 0.059,0.23633 0.1172,0.17578 0.1172,0.23633 0.2363,0.11718 0.1758,0.11719 0.2344,0.11719 h 0.2949 1.6465 0.2363 l 0.2344,-0.0586 0.1777,-0.11718 0.1758,-0.11719 0.1758,-0.17773 0.1191,-0.17579 0.059,-0.17578 0.059,-0.23633 0.059,-0.17578 v -7.17578 h 8.4121 v 47.17578 h -8.4121 v -8 l -0.059,-0.23632 -0.059,-0.23438 -0.059,-0.17578 -0.1191,-0.17774 -0.1758,-0.17578 -0.1758,-0.11718 -0.1777,-0.0586 -0.2344,-0.0605 -0.2363,-0.0586 h -5.8809 l -0.2363,0.0586 -0.1758,0.0605 -0.2363,0.0586 -0.1758,0.11718 -0.1172,0.17578 -0.1777,0.17774 -0.059,0.17578 -0.059,0.23438 v 0.23632 537.94141 0.35351 l 0.1172,0.35157 0.1191,0.35351 0.2344,0.29492 0.2363,0.29297 0.3516,0.17579 0.2949,0.17773 0.3535,0.0586 0.3516,0.0586 h 172.64839 l 0.3516,-0.0586 0.3535,-0.0586 0.3535,-0.17773 0.293,-0.17579 0.2363,-0.29297 0.2344,-0.29492 0.1172,-0.35351 0.1191,-0.35157 0.059,-0.35351 v -524.4707 h 56.8223 l 0.3535,-0.0586 0.3535,-0.0586 0.3535,-0.17774 0.293,-0.17578 0.2363,-0.29492 0.2344,-0.29297 0.1172,-0.35351 0.1191,-0.35352 0.059,-0.35156 v -10.5293 l -0.059,-0.35351 -0.1191,-0.35352 -0.1172,-0.35351 -0.2344,-0.29297 -0.2363,-0.23633 -0.293,-0.23438 -0.3535,-0.17578 -0.3535,-0.0605 -0.3535,-0.0586 h -7.1758 l -0.2344,0.0586 -0.1777,0.0605 -0.2344,0.0586 -0.1777,0.11718 -0.1172,0.17578 -0.1172,0.17774 -0.1172,0.17578 -0.059,0.23438 v 0.23632 1.64649 0.23633 l 0.059,0.23437 0.1172,0.17773 0.1172,0.17579 0.1172,0.17578 0.1777,0.11719 0.2344,0.11914 0.1777,0.0586 h 0.2344 3.8242 v 6.29297 h -25.2949 v -6.29297 h 3.8242 0.1758 l 0.2363,-0.0586 0.1758,-0.11914 0.1758,-0.11719 0.1777,-0.17578 0.1172,-0.17579 0.1172,-0.17773 0.059,-0.23437 v -0.23633 -1.64649 -0.23632 l -0.059,-0.23438 -0.1172,-0.17578 -0.1172,-0.17774 -0.1777,-0.17578 -0.1758,-0.11718 -0.1758,-0.0586 -0.2363,-0.0605 -0.1758,-0.0586 h -7.1777 l -0.3516,0.0586 -0.3535,0.0605 -0.3535,0.17578 -0.293,0.23438 -0.2949,0.23633 -0.1758,0.29297 -0.1777,0.35351 -0.059,0.35352 -0.059,0.35351 v 7.17578 h -39.5859 v -47.17578 h 10.5293 l 0.3535,-0.0605 0.3516,-0.0586 0.3535,-0.17578 0.2949,-0.23438 0.293,-0.23632 0.1777,-0.29492 0.1758,-0.35157 0.059,-0.35351 0.059,-0.35352 v -13.4707 -0.23438 l -0.059,-0.236312 -0.1172,-0.17579 -0.1172,-0.17578 -0.1777,-0.17773 -0.1758,-0.11719 -0.1758,-0.0586 -0.2363,-0.0586 -0.1758,-0.0586 h -3.8242 l -0.2344,0.0586 -0.1777,0.0586 -0.2344,0.0586 -0.1758,0.11719 -0.1191,0.17773 -0.1172,0.17578 -0.1172,0.17579 -0.059,0.236312 v 0.23438 2.9414 l -6.3535,6.2949 v -43.707022 -0.23438 l -0.059,-0.23438 -0.1172,-0.23632 -0.1777,-0.17578 -1.7051,-1.70704 1.7051,-1.76367 0.1777,-0.17773 0.1172,-0.23438 0.059,-0.23632 V 60.745828 5.6286394 h 8.4121 v 8.0585946 l 0.059,0.175782 0.059,0.236328 0.059,0.175781 0.1172,0.175781 0.1777,0.177734 0.1758,0.117188 0.2363,0.117188 0.1758,0.05859 h 0.2344 5.8828 0.2363 l 0.1746,-0.05859 0.2344,-0.117188 0.1777,-0.117188 0.1758,-0.177734 0.1172,-0.175781 0.061,-0.175781 0.059,-0.236328 0.059,-0.175782 V 2.2751244 l -0.059,-0.353516 -0.1191,-0.351562 -0.1172,-0.353516 -0.2344,-0.29492209 -0.2363,-0.234375 -0.293,-0.236328 -0.3535,-0.117187 -0.3535,-0.117188 -0.3516,-0.05859 z m 20.2363,5.47070309 H 384.30563 V 163.21652 H 252.12984 Z m -16,163.0585906 H 400.30563 V 688.9216 H 236.12984 Z"
     style="fill:#212830;fill-opacity:1;stroke:#212830;stroke-width:0.0588235px;stroke-linecap:round;stroke-linejoin:round;stroke-miterlimit:4;stroke-dasharray:none;stroke-opacity:1"
     id="path803" />
</svg>
