<?xml version="1.0" encoding="UTF-8" standalone="no"?>
<svg
   xmlns:dc="http://purl.org/dc/elements/1.1/"
   xmlns:cc="http://creativecommons.org/ns#"
   xmlns:rdf="http://www.w3.org/1999/02/22-rdf-syntax-ns#"
   xmlns:svg="http://www.w3.org/2000/svg"
   xmlns="http://www.w3.org/2000/svg"
   id="svg1109"
   height="152mm"
   width="152mm"
   version="1.0">
  <metadata
     id="metadata1113">
    <rdf:RDF>
      <cc:Work
         rdf:about="">
        <dc:format>image/svg+xml</dc:format>
        <dc:type
           rdf:resource="http://purl.org/dc/dcmitype/StillImage" />
        <dc:title></dc:title>
      </cc:Work>
    </rdf:RDF>
  </metadata>
  <defs
     id="defs3" />
  <path
     d="m 121.7732,121.6562 -0.7051,0.0586 -0.707,0.17578 -0.6465,0.35351 -0.5879,0.41211 -0.5293,0.47071 -0.4121,0.58789 -0.2949,0.70508 -0.1758,0.64843 -0.059,0.76367 v 22.35352 l 0.059,0.4707 0.1172,0.47071 0.2363,0.41211 0.293,0.35156 0.3535,0.35351 0.4707,0.23633 0.4707,0.11719 0.4707,0.0586 h 11.5879 l 0.4121,-0.0586 0.4121,-0.11719 0.4102,-0.17773 0.3535,-0.23438 0.2949,-0.29492 0.2344,-0.35351 0.1758,-0.41016 0.1191,-0.41211 0.059,-0.41211 v -2.5293 l -0.059,-0.4707 -0.1191,-0.4707 -0.2344,-0.41211 -0.2949,-0.35157 -0.4102,-0.35351 -0.4121,-0.23633 -0.4707,-0.11719 -0.4707,-0.0586 h -6.6465 V 129.1269 h 24.8223 v 113.23437 l 0.059,0.35352 0.059,0.41211 0.1777,0.35351 0.1758,0.29297 0.2949,0.29492 1.7051,1.76367 -1.7051,1.76563 -0.2949,0.29297 -0.1758,0.35351 -0.1777,0.35352 -0.059,0.35351 -0.059,0.41016 v 87.5293 l -12.4121,-12.41016 v -5.76562 -0.47071 l -0.1172,-0.41211 -0.1758,-0.35156 -0.2949,-0.35351 -0.293,-0.35352 -0.3535,-0.23437 -0.4121,-0.17774 -0.4121,-0.11719 h -0.4121 -7.4688 -0.4707 l -0.4707,0.17579 -0.4121,0.23632 -0.3535,0.29492 -0.3535,0.35157 -0.2344,0.4707 -0.1172,0.41211 -0.059,0.5293 v 5.23632 l 0.059,0.46876 0.1172,0.4707 0.2344,0.41211 0.3535,0.35351 24.0586,24.11719 v 95.58789 H 72.126721 v -17.41016 l -0.0586,-0.70703 -0.17773,-0.70507 -0.29297,-0.64844 -0.41211,-0.58789 -0.5293,-0.47071 -0.58789,-0.4707 -0.64844,-0.29297 -0.70507,-0.17773 -0.70703,-0.0586 h -14.0586 l -0.5293,0.0586 -0.4121,0.11914 -0.46876,0.23437 -0.35351,0.29493 -0.29492,0.4121 -0.23438,0.41016 -0.17773,0.4707 v 0.47071 2.4707 0.5293 l 0.17773,0.4707 0.23438,0.41211 0.29492,0.35352 0.35351,0.35156 0.46876,0.17773 0.4121,0.17578 0.5293,0.0586 h 10.76563 v 14.05859 H 9.2439004 V 431.30268 H 20.007581 l 0.4121,-0.0586 0.47071,-0.11718 0.35351,-0.17579 0.35352,-0.23632 0.29297,-0.29492 0.29492,-0.35157 0.17578,-0.41211 0.11719,-0.41211 v -0.4707 -2.4707 -0.41211 l -0.11719,-0.41016 -0.17578,-0.41211 -0.29492,-0.35351 -0.29297,-0.29492 -0.35352,-0.23437 -0.35351,-0.17578 -0.47071,-0.11914 -0.4121,-0.0586 H 5.9489804 l -0.70508,0.0586 -0.70508,0.17773 -0.64843,0.29297 -0.58789,0.4707 -0.5293,0.47071 -0.41211,0.58789 -0.29297,0.64844 -0.17773,0.70507 -0.0586,0.70703 v 20.70508 l 0.0586,0.70508 0.17773,0.70703 0.29297,0.64649 0.41211,0.58789 0.5293,0.52929 0.58789,0.41211 0.64843,0.29493 0.70508,0.23437 0.70508,0.0586 H 452.7146 l 0.7051,-0.0586 0.707,-0.23437 0.6465,-0.29493 0.5879,-0.41211 0.5293,-0.52929 0.4121,-0.58789 0.2949,-0.64649 0.1758,-0.70703 0.059,-0.70508 v -22.35351 -0.41211 l -0.1172,-0.41016 -0.1758,-0.41211 -0.2949,-0.35351 -0.2949,-0.29492 -0.3516,-0.23438 -0.4121,-0.17578 -0.4121,-0.11914 -0.4121,-0.0586 h -11.5883 l -0.4121,0.0586 -0.4121,0.11914 -0.4102,0.17578 -0.3535,0.23438 -0.2949,0.29492 -0.2344,0.35351 -0.2363,0.41211 -0.059,0.41016 -0.059,0.41211 v 2.4707 l 0.059,0.4707 0.059,0.41211 0.2363,0.41211 0.2344,0.35157 0.2949,0.29492 0.3535,0.23632 0.4102,0.17579 0.4121,0.11718 0.4121,0.0586 h 6.6465 v 14.05859 H 424.5974 V 332.12691 l -0.059,-0.35352 -0.061,-0.41211 -0.1758,-0.35156 -0.1758,-0.35352 -0.2949,-0.29492 -1.7637,-1.70508 1.7637,-1.76562 0.2949,-0.29297 0.1758,-0.35352 0.1758,-0.35351 0.061,-0.35156 0.059,-0.41211 v -87.5293 l 12.4102,12.41211 v 5.76367 0.4707 l 0.1777,0.47071 0.2344,0.4707 0.2949,0.35352 0.3535,0.29296 0.4707,0.23633 0.4688,0.17578 h 0.4707 7.4121 0.5293 l 0.4707,-0.17578 0.4121,-0.23633 0.3535,-0.29296 0.293,-0.35352 0.2363,-0.4707 0.1758,-0.47071 0.059,-0.4707 v -5.23437 l -0.059,-0.35352 -0.059,-0.41211 -0.1758,-0.35351 -0.1777,-0.35157 -0.293,-0.29492 -24.0586,-24.05859 v -95.58789 h 77.7637 v 17.35351 l 0.059,0.76367 0.1777,0.70703 0.293,0.64649 0.4121,0.58789 0.5293,0.4707 0.5879,0.41211 0.6484,0.35157 0.7051,0.17773 0.7051,0.0586 h 14.0605 l 0.4688,-0.0586 0.4707,-0.11719 0.4707,-0.23633 0.3535,-0.35351 0.2949,-0.35156 0.2344,-0.41211 0.1758,-0.47071 v -0.4707 -2.5293 -0.4707 l -0.1758,-0.4707 -0.2344,-0.41211 -0.2949,-0.35157 -0.3535,-0.35351 -0.4707,-0.23633 -0.4707,-0.11719 -0.4688,-0.0586 h -10.7656 v -14.05859 h 55.4707 v 14.05859 h -10.7656 l -0.4707,0.0586 -0.4102,0.11719 -0.3535,0.17774 -0.3535,0.23437 -0.3516,0.29492 -0.2363,0.35157 -0.1758,0.4121 -0.1191,0.41211 v 0.41211 2.5293 0.4707 l 0.1777,0.47071 0.2344,0.41211 0.2949,0.35156 0.3535,0.35351 0.4707,0.23633 0.4688,0.11719 0.4707,0.0586 h 14.0605 l 0.7051,-0.0586 0.7051,-0.17773 0.6484,-0.35157 0.5879,-0.41211 0.5293,-0.4707 0.4121,-0.58789 0.293,-0.64649 0.1777,-0.70703 0.059,-0.76367 v -20.64844 l -0.059,-0.76367 -0.1777,-0.64843 -0.293,-0.70508 -0.4121,-0.58789 -0.5293,-0.47071 -0.5879,-0.41211 -0.6484,-0.35351 -0.7051,-0.17578 -0.7051,-0.0586 z m 35.5879,7.47071 h 105.0586 v 0.82421 l 0.059,0.41016 0.1191,0.41211 0.1754,0.41211 0.2344,0.35352 0.2949,0.29296 0.3535,0.29493 0.4121,0.17578 0.4102,0.11719 h 0.4121 44.707 l 0.4707,-0.0586 0.4707,-0.11719 0.4102,-0.23437 0.4121,-0.29492 0.2949,-0.41211 0.2344,-0.41211 0.1172,-0.4707 0.061,-0.46876 v -0.82421 H 417.1272 V 445.36128 H 312.0686 v -0.82226 l -0.061,-0.41211 -0.1172,-0.47071 -0.1758,-0.35351 -0.2363,-0.35157 -0.293,-0.29492 -0.3535,-0.29492 -0.4121,-0.17578 -0.4121,-0.11719 h -0.4102 -44.707 -0.4121 l -0.4102,0.11719 -0.4121,0.17578 -0.3535,0.29492 -0.2949,0.29492 -0.2344,0.35157 -0.1758,0.35351 -0.1191,0.47071 -0.059,0.41211 v 0.82226 H 157.3607 Z"
     style="fill:#212830;fill-opacity:1;stroke:#212830;stroke-width:0.0588235px;stroke-linecap:round;stroke-linejoin:round;stroke-miterlimit:4;stroke-dasharray:none;stroke-opacity:1"
     id="path1107" />
</svg>
