<?xml version="1.0" encoding="UTF-8" standalone="no"?>
<svg
   xmlns:dc="http://purl.org/dc/elements/1.1/"
   xmlns:cc="http://creativecommons.org/ns#"
   xmlns:rdf="http://www.w3.org/1999/02/22-rdf-syntax-ns#"
   xmlns:svg="http://www.w3.org/2000/svg"
   xmlns="http://www.w3.org/2000/svg"
   id="svg2497"
   height="101mm"
   width="101mm"
   version="1.0">
  <metadata
     id="metadata2501">
    <rdf:RDF>
      <cc:Work
         rdf:about="">
        <dc:format>image/svg+xml</dc:format>
        <dc:type
           rdf:resource="http://purl.org/dc/dcmitype/StillImage" />
        <dc:title></dc:title>
      </cc:Work>
    </rdf:RDF>
  </metadata>
  <defs
     id="defs3" />
  <path
     d="m 36.277078,0.10052261 -0.88086,0.0605 -0.88281,0.23438 -0.82422,0.41211 -0.70507,0.47070009 -0.64844,0.64648 -0.5293,0.76563 -0.35156,0.76367 -0.23633,0.88281 -0.0586,0.88282 v 127.6465173 0.4707 l 0.11718,0.47071 0.17774,0.4707 0.29297,0.41211 0.29492,0.35156 4.23437,4.23633 -4.23437,4.23437 -0.41211,0.47071 -0.23438,0.58789 -0.17773,0.5293 -0.0586,0.64843 v 90.23438 0.4707 l 0.11718,0.4707 0.17774,0.47071 0.29297,0.41211 0.29492,0.35351 4.23437,4.23438 -4.23437,4.23632 -0.41211,0.46876 -0.23438,0.53124 -0.17773,0.5879 -0.05857,0.64648 v 127.58789 l 0.0586,0.88281 0.23633,0.88282 0.35156,0.82226 0.5293,0.70703 0.64844,0.64649 0.70507,0.52929 0.82422,0.35352 0.88281,0.23437 0.88086,0.11914 h 96.648442 l 0.4707,-0.0605 0.46876,-0.11719 0.4121,-0.17578 0.41211,-0.23633 0.41211,-0.35156 4.23438,-4.23633 4.23633,4.23633 0.4707,0.41016 0.5293,0.29492 0.58789,0.17578 0.58789,0.0605 h 90.17773 l 0.64649,-0.0605 0.52929,-0.17578 0.58789,-0.29492 0.47071,-0.41016 4.23632,-4.23633 4.23438,4.23633 0.35352,0.35156 0.4121,0.23633 0.46876,0.17578 0.4707,0.11719 0.4707,0.0605 h 96.64842 l 0.8809,-0.11914 0.8242,-0.23437 0.8242,-0.35352 0.7637,-0.52929 0.6484,-0.64649 0.4688,-0.70703 0.4121,-0.82226 0.2363,-0.88282 0.059,-0.88281 V 248.86614 l -0.059,-0.5293 -0.059,-0.4707 -0.2363,-0.41211 -0.2344,-0.41211 -0.2949,-0.41016 -4.2344,-4.23632 4.2344,-4.23438 0.3535,-0.4707 0.293,-0.5293 0.1777,-0.58984 0.059,-0.58789 v -90.23438 l -0.059,-0.52929 -0.059,-0.47071 -0.2363,-0.41211 -0.2344,-0.41211 -0.2949,-0.41211 -4.2344,-4.23437 4.2344,-4.23633 0.3535,-0.4707 0.293,-0.5293 0.1777,-0.58789 0.059,-0.58789 V 5.2196627 l -0.059,-0.88282 -0.2363,-0.88281 -0.4121,-0.76367 -0.4688,-0.76563 -0.6484,-0.64648 -0.7637,-0.47070009 -0.8242,-0.41211 -0.8242,-0.23438 -0.8809,-0.0605 h -96.64842 -0.4707 l -0.4707,0.11914 -0.46876,0.17578 -0.4121,0.29492 -0.35352,0.29297 -4.23438,4.23633009 -4.23632,-4.23633009 -0.47071,-0.35157 -0.58789,-0.29492 -0.52929,-0.17578 -0.64649,-0.0605 H 145.747 l -0.58789,0.0605 -0.58789,0.17578 -0.5293,0.29492 -0.4707,0.35157 -4.23633,4.23633009 -4.23438,-4.23633009 -0.41211,-0.29297 -0.41211,-0.29492 -0.4121,-0.17578 -0.46876,-0.11914 h -0.4707 z M 109.1599,31.041923 h 163.41211 l 1,0.0586 0.9414,0.29492 0.88281,0.4707 0.82227,0.64648 0.58789,0.76563 0.5293,0.88281 0.29492,1 0.0586,1 -0.0586,1 -0.29492,0.93946 -0.4707,0.88281 -0.64649,0.82422 -2,2.17578 -1.88281,2.35351 -1.76367,2.5293 -1.58789,2.5293 -1.41211,2.70508 -1.17579,2.76562 -1.06054,2.82422 -0.88086,2.88086 -0.64844,2.9414 -0.4707,3 -0.29297,3 -0.0586,3.0586 0.11718,3 0.29492,3 0.23438,0.9414 0.41211,0.88282 0.5293,0.82422 0.70507,0.64648 0.82422,0.5293 0.88282,0.41211 0.9414,0.17578 1,0.0586 0.93947,-0.17579 17.82421,-4.76562 0.47071,-0.23438 0.52929,-0.23438 0.41211,-0.35351 0.35352,-0.4707 0.23437,-0.47071 0.17579,-0.52929 0.0605,-0.5293 v -0.58789 l -0.11914,-1.94141 v -1.9414 l 0.29492,-1.88282 0.41211,-1.9414 0.58789,-1.82227 0.82422,-1.76562 0.93946,-1.70508 1.11914,-1.58984 1.29296,-1.46876 1.41211,-1.29492 1.5293,-1.17578 1.64649,-1.06054 1.76562,-0.82227 1.82422,-0.70703 1.88086,-0.4707 1.9414,-0.29297 1.94141,-0.11719 1.94141,0.0586 1.88281,0.29297 1.88281,0.4707 1.82227,0.64844 1.76562,0.82227 1.70508,0.9414 1.5293,1.17579 1.4707,1.29492 1.29492,1.4707 1.17578,1.5293 0.94141,1.70508 0.82422,1.76562 0.64648,1.82422 0.47071,1.88086 0.29297,1.9414 0.0605,1.94141 -0.11914,1.94141 -0.29297,1.88281 -0.4707,1.88281 -0.70703,1.82227 -0.82227,1.76562 -1.05859,1.64649 -1.17774,1.52929 -1.29296,1.41211 -1.47071,1.29492 -1.58789,1.11719 -1.70703,1 -1.76367,0.76367 -1.82422,0.64844 -1.88281,0.41016 -1.94141,0.23633 -1.9414,0.0586 -1.93946,-0.17578 h -0.58984 l -0.5293,0.0586 -0.5293,0.17578 -0.4707,0.29493 -0.41016,0.35156 -0.35351,0.41211 -0.29492,0.4707 -0.17578,0.5293 -4.82422,17.824217 -0.11719,0.9414 v 1 l 0.17578,0.94141 0.41211,0.88086 0.5293,0.82422 0.70703,0.64648 0.76367,0.58984 0.88281,0.41016 0.94141,0.17774 2.76367,0.29296 2.70703,0.11914 h 2.76367 l 2.70704,-0.17773 h 0.9414 l 0.93946,0.11719 0.9414,0.35351 0.76563,0.5293 0.76367,0.64649 0.5293,0.76562 0.4707,0.82422 0.23633,0.9414 0.11718,0.93946 v 67.29489 67.23438 l -0.11718,1 -0.23633,0.88281 -0.4707,0.88281 -0.5293,0.76562 -0.76367,0.64649 -0.76563,0.4707 -0.9414,0.35157 -0.93946,0.17773 h -0.9414 l -2.70704,-0.23633 h -2.76367 l -2.70703,0.11914 -2.76367,0.29297 -0.94141,0.23633 -0.88281,0.41016 -0.76367,0.53124 -0.70703,0.70508 -0.5293,0.76368 -0.41211,0.9414 -0.1757,0.94141 v 0.9414 l 0.11719,1 4.82422,17.76563 0.17578,0.5293 0.29492,0.4707 0.35351,0.4707 0.41016,0.35156 0.4707,0.23633 0.5293,0.17578 0.5293,0.0586 h 0.58984 l 1.93946,-0.11719 h 1.9414 l 1.94141,0.23438 1.88281,0.4707 1.82422,0.58984 1.76367,0.82227 1.70703,0.9414 1.58789,1.11719 1.47071,1.29492 1.29296,1.41211 1.17774,1.5293 1.05859,1.64648 0.82227,1.76563 0.70703,1.82226 0.4707,1.88282 0.29297,1.9414 0.11914,1.94141 -0.0605,1.94141 -0.29297,1.88086 -0.47071,1.88281 -0.64652,1.88281 -0.82422,1.76562 -0.94141,1.64649 -1.17578,1.58789 -1.29492,1.41211 -1.4707,1.29297 -1.5293,1.17773 -1.70508,1 -1.76562,0.82227 -1.82227,0.64844 -1.88281,0.4707 -1.88281,0.23437 -1.94141,0.11719 -1.94141,-0.11719 -1.9414,-0.35351 -1.88086,-0.4707 -1.82422,-0.64649 -1.76562,-0.88281 -1.64649,-1 -1.5293,-1.17578 -1.41211,-1.35352 -1.29296,-1.4707 -1.11914,-1.58789 -0.93946,-1.70508 -0.82422,-1.76563 -0.58789,-1.82226 -0.41211,-1.88281 -0.29492,-1.94141 v -1.94141 l 0.11914,-1.9414 v -0.5293 l -0.0605,-0.58789 -0.17579,-0.5293 -0.23437,-0.4707 -0.35352,-0.41211 -0.41211,-0.35351 -0.52929,-0.29297 -0.47071,-0.17579 -17.82421,-4.82421 -0.93946,-0.11719 h -1 l -0.9414,0.17578 -0.88282,0.41211 -0.82422,0.5293 -0.70507,0.70507 -0.5293,0.76563 -0.41211,0.88281 -0.23438,0.93946 -0.29492,3 -0.11718,3.06054 0.0586,3 0.29297,3 0.4707,3 0.64844,2.93946 0.88086,2.88281 1.06054,2.82422 1.17579,2.76367 1.41211,2.70703 1.58789,2.58789 1.76367,2.4707 1.88281,2.35352 2,2.23437 0.64649,0.76563 0.4707,0.88086 0.29492,1 0.0586,1 -0.0586,1 -0.29492,0.9414 -0.5293,0.88282 -0.58789,0.76562 -0.82227,0.64649 -0.88281,0.4707 -0.9414,0.29297 -1,0.11914 H 109.1599 l -1,-0.11914 -1,-0.29297 -0.88282,-0.4707 -0.76367,-0.64649 -0.64843,-0.76562 -0.46876,-0.88282 -0.29492,-0.9414 -0.11718,-1 0.11718,-1 0.29492,-1 0.41016,-0.88086 0.64844,-0.76563 2.05859,-2.23437 1.88281,-2.35352 1.76368,-2.4707 1.52929,-2.58789 1.41211,-2.70703 1.23438,-2.76367 1.06054,-2.82422 0.82227,-2.88281 0.64649,-2.93946 0.4707,-3 0.29492,-3 0.11719,-3 -0.11719,-3.06054 -0.35352,-3 -0.23437,-0.93946 -0.35352,-0.88281 -0.58789,-0.76563 -0.64648,-0.70507 -0.82422,-0.5293 -0.88281,-0.41211 -0.94141,-0.17578 h -1 l -0.9414,0.11719 -17.822272,4.82421 -0.5293,0.17579 -0.4707,0.29297 -0.41211,0.35351 -0.35352,0.41211 -0.29296,0.4707 -0.17774,0.5293 -0.0586,0.58789 v 0.5293 l 0.17773,1.9414 -0.06053,1.94141 -0.23438,1.94141 -0.41211,1.88281 -0.64648,1.82226 -0.76563,1.76563 -0.9414,1.70508 -1.17579,1.58789 -1.23437,1.4707 -1.41211,1.35352 -1.58789,1.17578 -1.64844,1 -1.70508,0.88281 -1.82422,0.64649 -1.88086,0.4707 -1.9414,0.35351 -1.94141,0.11719 -1.9414,-0.11719 -1.94141,-0.23437 -1.88281,-0.4707 -1.82227,-0.64844 -1.76562,-0.82227 -1.64649,-1 -1.58789,-1.17773 -1.41211,-1.29297 -1.29492,-1.41211 -1.17578,-1.58789 -1,-1.64649 -0.82422,-1.76562 -0.64648,-1.88281 -0.47071,-1.88281 -0.23632,-1.88086 -0.11719,-1.94141 0.11719,-1.94141 0.35351,-1.9414 0.4707,-1.88282 0.64649,-1.82226 0.88281,-1.76563 1,-1.64648 1.17773,-1.5293 1.35157,-1.41211 1.4707,-1.29492 1.58789,-1.11719 1.64844,-0.9414 1.76367,-0.82227 1.88281,-0.58984 1.88282,-0.4707 1.9414,-0.23438 h 1.93946 l 1.9414,0.11719 h 0.5293 l 0.5293,-0.0586 0.53124,-0.17578 0.5293,-0.23633 0.41016,-0.35156 0.35351,-0.4707 0.29493,-0.4707 0.17578,-0.5293 4.76562,-17.76563 0.17578,-1 v -0.9414 l -0.23632,-0.94141 -0.35157,-0.9414 -0.52929,-0.76368 -0.70704,-0.70508 -0.76367,-0.53124 -0.88281,-0.41016 -1,-0.23633 -2.70508,-0.29297 -2.70703,-0.11914 h -2.76367 l -2.76563,0.23633 h -0.9414 l -0.94141,-0.17773 -0.88086,-0.35157 -0.82422,-0.4707 -0.70508,-0.64649 -0.58984,-0.76562 -0.41016,-0.88281 -0.23632,-0.88281 -0.11719,-1 v -67.23438 -67.29492 l 0.11719,-0.93946 0.23632,-0.9414 0.41016,-0.82422 0.58984,-0.76562 0.70508,-0.64649 0.82422,-0.5293 0.88086,-0.35351 0.94141,-0.11719 h 0.9414 l 2.76563,0.17773 h 2.76367 l 2.70703,-0.11914 2.70508,-0.29296 1,-0.17774 0.88281,-0.41016 0.76367,-0.58984 0.70704,-0.64648 0.52929,-0.82422 0.35157,-0.88086 0.23632,-0.94141 v -1 l -0.17578,-0.9414 -4.76562,-17.824217 -0.17578,-0.5293 -0.29493,-0.4707 -0.35351,-0.41211 -0.41016,-0.35156 -0.5293,-0.29493 -0.53124,-0.17578 -0.5293,-0.0586 h -0.5293 l -1.9414,0.17578 -1.93946,-0.0586 -1.9414,-0.23633 -1.88282,-0.41016 -1.88281,-0.64844 -1.76367,-0.76367 -1.64844,-1 -1.58789,-1.11719 -1.4707,-1.29492 -1.35157,-1.41211 -1.17773,-1.52929 -1,-1.64649 -0.88281,-1.76562 -0.64649,-1.82227 -0.4707,-1.88281 -0.35351,-1.88281 -0.11719,-1.94141 0.11719,-1.94141 0.23632,-1.9414 0.47071,-1.88086 0.64648,-1.82422 0.82422,-1.76562 1,-1.70508 1.17578,-1.5293 1.29492,-1.4707 1.41211,-1.29492 1.58789,-1.17579 1.64649,-0.9414 1.76562,-0.82227 1.82227,-0.64844 1.88281,-0.4707 1.94141,-0.29297 1.9414,-0.0586 1.94141,0.11719 1.9414,0.29297 1.88086,0.4707 1.82422,0.70703 1.70508,0.82227 1.64844,1.06054 1.58789,1.17578 1.41211,1.29492 1.23437,1.46876 1.17579,1.58984 0.9414,1.70508 0.76563,1.76562 0.64648,1.82227 0.41211,1.9414 0.23438,1.88282 0.0605,1.9414 -0.17773,1.94141 v 0.58789 l 0.0586,0.5293 0.17774,0.52929 0.29296,0.47071 0.35352,0.4707 0.41211,0.35351 0.4707,0.23438 0.5293,0.23438 17.822272,4.76562 0.9414,0.17578 1,-0.0586 0.94141,-0.17578 0.88284,-0.41207 0.82422,-0.5293 0.64648,-0.64648 0.58789,-0.82422 0.35352,-0.88282 0.23437,-0.9414 0.35352,-3 0.11719,-3 -0.11719,-3.0586 -0.29492,-3 -0.4707,-3 -0.64649,-2.9414 -0.82227,-2.88086 -1.06054,-2.82422 -1.23438,-2.76562 -1.41211,-2.70508 -1.52929,-2.5293 -1.76368,-2.5293 -1.88281,-2.35351 -2.05859,-2.17578 -0.64844,-0.82422 -0.41016,-0.88281 -0.29492,-0.93946 -0.11718,-1 0.11718,-1 0.29492,-1 0.46876,-0.88281 0.64843,-0.76563 0.76367,-0.64648 0.88282,-0.4707 1,-0.29492 z"
     style="fill:#212830;fill-opacity:1;stroke:#212830;stroke-width:0.0588235px;stroke-linecap:round;stroke-linejoin:round;stroke-miterlimit:4;stroke-dasharray:none;stroke-opacity:1"
     id="path2493" />
</svg>
