<?xml version="1.0" encoding="UTF-8" standalone="no"?>
<svg
   xmlns:dc="http://purl.org/dc/elements/1.1/"
   xmlns:cc="http://creativecommons.org/ns#"
   xmlns:rdf="http://www.w3.org/1999/02/22-rdf-syntax-ns#"
   xmlns:svg="http://www.w3.org/2000/svg"
   xmlns="http://www.w3.org/2000/svg"
   id="svg777"
   height="101mm"
   width="101mm"
   version="1.0">
  <metadata
     id="metadata781">
    <rdf:RDF>
      <cc:Work
         rdf:about="">
        <dc:format>image/svg+xml</dc:format>
        <dc:type
           rdf:resource="http://purl.org/dc/dcmitype/StillImage" />
        <dc:title></dc:title>
      </cc:Work>
    </rdf:RDF>
  </metadata>
  <defs
     id="defs3" />
  <path
     d="m 61.070788,0.77824761 -0.58789,0.0586 -0.5293,0.11718 -0.4707,0.23437999 -0.47071,0.35351 -0.41211,0.3535201 -0.29297,0.4707 -0.23632,0.5293 -0.11719,0.5293 -0.0586,0.52929 v 143.8242223 0.35156 l 0.11718,0.29493 0.11719,0.29297 0.17773,0.29492 0.23438,0.23632 0.29492,0.17579 0.29297,0.11718 0.35352,0.11719 h 0.29297 8.88281 0.35351 l 0.35352,-0.11719 0.35156,-0.17578 0.29492,-0.23633 0.23438,-0.29296 0.17774,-0.35352 0.11719,-0.35352 v -0.35156 -12.06054 h 12.64648 v 82.88281 l 0.0586,0.29492 0.0605,0.29297 0.11719,0.23633 0.17578,0.29297 0.17579,0.23632 2.58984,2.58789 -2.58984,2.58789 -0.17579,0.23633 -0.17578,0.29297 -0.11719,0.23633 -0.0605,0.29297 -0.0586,0.29492 v 65.76562 l -9.4707,-9.53124 v -4.41016 l -0.0586,-0.35352 -0.0586,-0.41211 -0.17578,-0.29297 -0.23633,-0.29492 -0.29296,-0.23632 -0.35352,-0.17579 -0.35352,-0.11718 h -0.35156 -5.70703 -0.35351 l -0.29297,0.0586 -0.29493,0.17578 -0.29296,0.17774 -0.23633,0.23437 -0.17578,0.29492 -0.17579,0.29297 -0.0605,0.29492 v 0.35351 34.17578 0.41211 l 0.11914,0.35351 0.17578,0.29297 0.23438,0.29493 0.29492,0.23437 0.29492,0.17773 0.41016,0.11719 0.35351,0.0586 h 2.5293 l 0.35351,-0.0586 0.35352,-0.11719 0.35156,-0.17773 0.29492,-0.23437 0.23438,-0.29493 0.17773,-0.29297 0.11716,-0.35351 v -0.41211 -10.76562 h 12.64648 v 71 h -12.64648 v -12.0586 -0.35156 l -0.11719,-0.29492 -0.11719,-0.29492 -0.17773,-0.29297 -0.23437,-0.23633 -0.29493,-0.17578 -0.29297,-0.11719 -0.35351,-0.11719 h -0.29492 -8.88281 -0.29297 l -0.35352,0.11719 -0.29297,0.11719 -0.29492,0.17578 -0.23438,0.23633 -0.17773,0.29297 -0.11719,0.29492 -0.11718,0.29492 v 0.35156 17.11914 l 0.0586,0.5293 0.11719,0.5293 0.23632,0.52929 0.29297,0.47071 0.41211,0.35156 0.47071,0.35351 0.4707,0.23633 0.5293,0.11719 0.58789,0.0586 H 320.6587 l 0.5293,-0.0586 0.5293,-0.11719 0.5293,-0.23633 0.4707,-0.35351 0.3535,-0.35156 0.3535,-0.47071 0.2344,-0.52929 0.1172,-0.5293 0.061,-0.5293 v -17.11914 l -0.061,-0.35156 -0.059,-0.29492 -0.1172,-0.29492 -0.2344,-0.29297 -0.2363,-0.23633 -0.2344,-0.17578 -0.2949,-0.11719 -0.3535,-0.11719 h -0.293 -8.8828 -0.3535 l -0.293,0.11719 -0.2949,0.11719 -0.293,0.17578 -0.2363,0.23633 -0.1758,0.29297 -0.1172,0.29492 -0.1191,0.29492 v 0.35156 12.0586 h -12.7051 v -71 h 12.7051 v 10.76562 0.41211 l 0.1191,0.35351 0.1758,0.29297 0.2344,0.29493 0.2949,0.23437 0.3535,0.17773 0.3516,0.11719 0.3535,0.0586 h 2.5293 l 0.3535,-0.0586 0.3535,-0.11719 0.3516,-0.17773 0.2949,-0.23437 0.2344,-0.29493 0.1777,-0.29297 0.1172,-0.35351 v -0.41211 -34.17578 -0.35352 l -0.1172,-0.29492 -0.1191,-0.29297 -0.1758,-0.29492 -0.2344,-0.23437 -0.29451,-0.17774 -0.2949,-0.17578 -0.293,-0.0586 h -0.3535 -5.7051 -0.3535 l -0.3535,0.11718 -0.3516,0.17579 -0.2949,0.23632 -0.2344,0.29492 -0.1777,0.29297 -0.1172,0.41211 v 0.35352 4.41016 l -9.5293,9.53124 v -65.76561 -0.29492 l -0.059,-0.29297 -0.1172,-0.23633 -0.1777,-0.29297 -0.1758,-0.23633 -2.6465,-2.58789 2.6465,-2.58789 0.1758,-0.23632 0.1777,-0.29297 0.1172,-0.23633 0.059,-0.29297 v -0.29492 -82.88281 h 12.7051 v 12.06054 0.35156 l 0.1191,0.29493 0.1172,0.29297 0.1758,0.29492 0.2363,0.23632 0.293,0.17579 0.2949,0.11718 0.293,0.11719 h 0.3535 8.8828 0.293 l 0.3535,-0.11719 0.2949,-0.11718 0.2344,-0.17579 0.2363,-0.23632 0.2344,-0.29492 0.1172,-0.29297 0.059,-0.29493 0.061,-0.35156 V 3.9540277 l -0.061,-0.52929 -0.1172,-0.5293 -0.2344,-0.5293 -0.3535,-0.4707 -0.3535,-0.3535201 -0.4707,-0.35351 -0.5293,-0.23437999 -0.5293,-0.11718 -0.5293,-0.0586 z M 66.129378,16.600518 H 315.60009 V 119.89544 h -42.4121 l -0.4121,0.0586 -0.3516,0.11719 -0.2949,0.11719 -0.293,0.29492 -0.2363,0.23438 -0.1758,0.35351 -0.1172,0.35352 -0.061,0.35351 v 12.0586 l 0.061,0.35156 0.059,0.29492 0.1758,0.29492 0.1758,0.29297 0.2363,0.23633 0.293,0.17578 0.2949,0.11719 0.2949,0.11719 h 0.3516 17.0586 v 237 H 91.424298 v -237 h 17.117192 0.35352 l 0.29296,-0.11719 0.29493,-0.11719 0.29297,-0.17578 0.23632,-0.23633 0.17578,-0.29297 0.11914,-0.29492 0.11719,-0.29492 v -0.35157 -12.0586 -0.29492 l -0.11719,-0.35352 -0.11914,-0.29296 -0.17578,-0.23633 -0.23632,-0.23438 -0.29297,-0.23633 -0.29493,-0.11718 -0.29296,-0.0586 -0.35352,-0.0586 H 66.129378 Z"
     style="fill:#212830;fill-opacity:1;stroke:#212830;stroke-width:0.0588235px;stroke-linecap:round;stroke-linejoin:round;stroke-miterlimit:4;stroke-dasharray:none;stroke-opacity:1"
     id="path775" />
</svg>
