<?xml version="1.0" encoding="UTF-8" standalone="no"?>
<svg
   xmlns:dc="http://purl.org/dc/elements/1.1/"
   xmlns:cc="http://creativecommons.org/ns#"
   xmlns:rdf="http://www.w3.org/1999/02/22-rdf-syntax-ns#"
   xmlns:svg="http://www.w3.org/2000/svg"
   xmlns="http://www.w3.org/2000/svg"
   id="svg1545"
   height="143mm"
   width="143mm"
   version="1.0">
  <metadata
     id="metadata1549">
    <rdf:RDF>
      <cc:Work
         rdf:about="">
        <dc:format>image/svg+xml</dc:format>
        <dc:type
           rdf:resource="http://purl.org/dc/dcmitype/StillImage" />
        <dc:title></dc:title>
      </cc:Work>
    </rdf:RDF>
  </metadata>
  <defs
     id="defs3" />
  <path
     d="m 243.70596,61.206921 -0.4707,0.05859 -0.4707,0.117187 -0.4102,0.236328 -0.3535,0.292969 -0.2949,0.353516 -0.2344,0.412109 -0.1758,0.470703 -0.061,0.470703 0.061,0.470703 0.1172,0.470703 0.2344,0.470704 0.2949,0.351562 0.3535,0.294922 0.4102,0.294922 12.9414,5.763673 0.3535,0.117187 0.3535,0.05859 0.293,0.06055 h 52.4707 l 0.707,0.05859 0.7051,0.175781 0.6465,0.294922 0.5879,0.410156 0.4707,0.53125 0.4121,0.587891 0.3535,0.646484 0.1758,0.705078 0.059,0.707031 v 43.058595 l -0.059,0.70508 -0.1758,0.70703 -0.3535,0.64649 -0.4121,0.58789 -0.4707,0.52929 -0.5879,0.41211 -0.6465,0.29493 -0.7051,0.17578 -0.707,0.0586 h -160.5293 l -0.4707,0.0586 -0.4707,0.11914 -0.4121,0.23438 -0.4102,0.35352 -0.2949,0.35156 -0.2344,0.41211 -0.1191,0.4707 -0.059,0.4707 v 5.82422 l 0.059,0.47071 0.1191,0.4707 0.2344,0.41016 0.2949,0.4121 0.4102,0.29493 0.4121,0.23437 0.4707,0.11914 0.4707,0.0586 h 43.8242 v 89.4121 h -25.6484 l -0.4102,0.0586 -0.4121,0.11719 -0.4121,0.17578 -0.3535,0.23633 -0.293,0.29296 -0.2363,0.35352 -0.1758,0.41211 -0.1172,0.41211 -0.059,0.41016 v 14.11914 h -18.1777 -0.4121 l -0.4707,0.11718 -0.3516,0.17578 -0.3535,0.23633 -0.2949,0.35157 -0.293,0.35351 -0.1777,0.35352 -0.1172,0.4707 v 0.41211 5.76367 0.5293 l 0.1777,0.4707 0.2344,0.41211 0.2949,0.35352 0.3516,0.29296 0.4707,0.23633 0.4707,0.17578 0.4707,0.0586 h 18.1777 v 14.05859 l 0.059,0.4707 0.1758,0.47071 0.1758,0.41211 0.3535,0.41211 0.3535,0.29297 0.4121,0.23632 0.4707,0.11719 0.4688,0.0586 h 9.9414 l 0.4707,-0.0586 0.4707,-0.11719 0.4707,-0.23632 0.3535,-0.29297 0.293,-0.41211 0.2363,-0.41211 0.1758,-0.47071 v -0.4707 -30.64648 h 62.0586 v 78.47068 l 0.061,0.4707 0.1758,0.47071 0.1758,0.41211 0.3535,0.4121 3.4121,3.41016 -3.4121,3.41211 -0.3535,0.35352 -0.1758,0.41211 -0.1758,0.4707 -0.061,0.4707 v 61.88086 h -62.0586 v -14.05859 -0.41211 l -0.1172,-0.41016 -0.1758,-0.41211 -0.2363,-0.35351 -0.3516,-0.29492 -0.3535,-0.23438 -0.3535,-0.17578 -0.4121,-0.11914 -0.4707,-0.0586 h -9.9414 l -0.4688,0.0586 -0.4707,0.11914 -0.4121,0.23437 -0.3535,0.29493 -0.3535,0.4121 -0.1758,0.41016 -0.1758,0.4707 -0.059,0.47071 v 14.05859 h -18.1777 l -0.4121,0.0586 -0.4707,0.11914 -0.3516,0.17578 -0.3535,0.23632 -0.2949,0.35157 -0.293,0.35351 -0.1777,0.35352 -0.1172,0.41016 v 0.4707 5.76562 0.47071 l 0.1172,0.41211 0.1777,0.35156 0.293,0.35351 0.2949,0.35352 0.3535,0.23437 0.3516,0.17774 0.4707,0.11719 h 0.4121 22.3535 v 43.88281 h -9.941 l -0.4121,0.0586 -0.4707,0.11719 -0.3516,0.17578 -0.3535,0.23633 -0.2949,0.29297 -0.293,0.35351 -0.1777,0.41211 -0.1172,0.41211 v 0.47071 5.76367 0.41211 l 0.1172,0.41211 0.1777,0.41211 0.293,0.35156 0.2949,0.29492 0.3535,0.29492 0.3516,0.17578 0.4707,0.11719 h 0.4121 9.9414 v 18.23633 H 60.883687 v -18.23633 h 5.82226 0.41211 l 0.41211,-0.1172 0.41211,-0.17578 0.35351,-0.29492 0.29297,-0.29492 0.23633,-0.35156 0.17578,-0.41211 0.11719,-0.41211 0.0586,-0.41211 v -7.47071 l -0.0586,-0.4121 -0.11719,-0.41016 -0.17578,-0.41211 -0.23633,-0.35352 -0.29297,-0.29297 -0.35351,-0.23632 -0.41211,-0.17578 -0.41211,-0.11914 -0.41211,-0.0586 h -19.05859 l -0.82227,0.11914 -0.76562,0.23438 -0.70508,0.35351 -0.64844,0.5293 -0.4707,0.58789 -0.41016,0.76562 -0.23633,0.76368 -0.0586,0.82422 v 3.29296 l 0.0586,0.41211 0.0586,0.41211 0.23633,0.41211 0.23437,0.35157 0.29492,0.29492 0.35157,0.23632 0.4121,0.17579 0.41211,0.11718 0.41211,0.0586 h 5.82422 v 23.17773 H 10.412976 v -23.17773 h 5.822271 l 0.4707,-0.0586 0.4707,-0.11718 0.41211,-0.23633 0.41211,-0.29297 0.29492,-0.41211 0.23438,-0.41211 0.11719,-0.4707 0.0586,-0.47071 v -3.29296 l -0.0586,-0.76563 -0.17578,-0.70508 -0.29493,-0.64843 -0.4707,-0.5879 -0.4707,-0.4707 -0.58789,-0.41016 -0.64649,-0.35351 -0.70508,-0.17773 -0.70703,-0.0586 H 5.4715764 l -0.70703,0.0586 -0.70508,0.17773 -0.64649,0.35351 -0.58789,0.41016 -0.5293,0.4707 -0.4121,0.5879 -0.29493,0.64843 -0.17578,0.70508 -0.0586,0.76563 v 33.05859 l 0.0586,0.76367 0.17578,0.70703 0.29493,0.64649 0.4121,0.58789 0.5293,0.4707 0.58789,0.41211 0.64649,0.35352 0.70508,0.17578 0.70703,0.0586 H 419.11806 l 0.707,-0.0586 0.7051,-0.17578 0.6465,-0.35352 0.5879,-0.41211 0.5312,-0.4707 0.4102,-0.58789 0.2949,-0.64649 0.1758,-0.70703 0.059,-0.76367 v -22.35352 -0.41211 l -0.1172,-0.4121 -0.1758,-0.41016 -0.2363,-0.35352 -0.3516,-0.29492 -0.3535,-0.23437 -0.3535,-0.17579 -0.4121,-0.11914 -0.4707,-0.0586 h -11.5879 l -0.4707,0.0586 -0.4707,0.11914 -0.4102,0.23438 -0.3535,0.35352 -0.3535,0.35156 -0.2344,0.41211 -0.1191,0.4707 -0.059,0.4707 v 15.76563 h -16.5293 V 360.26551 l -0.059,-0.41211 -0.059,-0.35156 -0.1758,-0.35352 -0.1777,-0.35351 -0.2344,-0.29297 -3.4121,-3.41211 3.4121,-3.41211 0.2344,-0.29492 0.1777,-0.35156 0.1758,-0.35352 0.059,-0.35352 0.059,-0.4121 v -85.88086 l 12.4121,12.4121 v 5.76368 l 0.059,0.52929 0.1172,0.47071 0.2363,0.41211 0.2949,0.35351 0.4102,0.29297 0.4121,0.23633 0.4707,0.17578 0.4707,0.0586 h 7.4703 l 0.4121,-0.0586 0.4121,-0.11719 0.4102,-0.17773 0.3535,-0.23438 0.2949,-0.35351 0.2344,-0.35157 0.1777,-0.35351 0.1172,-0.41211 0.059,-0.4707 v -26.47071 l -0.059,-0.70507 -0.1777,-0.70704 -0.3516,-0.64648 -0.4121,-0.58789 -0.4707,-0.5293 -0.5879,-0.41211 -0.6465,-0.29492 -0.707,-0.17578 -0.7051,-0.0586 h -20.707 V 127.44324 l -0.059,-0.76562 -0.1758,-0.64648 -0.3535,-0.70704 -0.4121,-0.58789 -0.4707,-0.4707 -0.5879,-0.41211 -0.6465,-0.29297 -0.707,-0.23633 -0.7051,-0.0586 h -57.9414 l -0.7051,-0.0586 -0.707,-0.17578 -0.6465,-0.29493 -0.5879,-0.41211 -0.5293,-0.52929 -0.4121,-0.58789 -0.2949,-0.64649 -0.1758,-0.70703 -0.059,-0.70508 V 76.089734 l 0.059,-0.707031 0.1762,-0.705078 0.2949,-0.646484 0.4121,-0.587891 0.5293,-0.53125 0.5879,-0.410156 0.6465,-0.294922 0.707,-0.175781 0.7051,-0.05859 h 161.3535 l 6.7051,0.58789 6.5879,1.763672 6.1191,2.824219 5.5879,3.882813 4.7637,4.822265 3.8828,5.529297 2.8828,6.177734 1.7637,6.529299 0.5898,6.76367 v 37.23633 h -56.2949 l -0.7051,0.11719 -0.707,0.17578 -0.6465,0.29492 -0.5879,0.41211 -0.5293,0.5293 -0.4121,0.58789 -0.2949,0.64648 -0.1758,0.70703 -0.059,0.70508 v 20.70703 l 0.059,0.70508 0.1758,0.70508 0.2949,0.64844 0.4121,0.58789 0.5293,0.52929 0.5879,0.41211 0.6465,0.29297 0.707,0.17774 0.7051,0.0586 h 14.0586 l 0.4707,-0.0586 0.4121,-0.11914 0.3535,-0.17579 0.4102,-0.23437 0.2949,-0.29492 0.2363,-0.35352 0.1758,-0.41016 0.1172,-0.4121 0.059,-0.41211 v -3.29493 l -0.059,-0.4707 -0.1172,-0.41016 -0.1758,-0.4121 -0.2363,-0.35352 -0.2949,-0.29492 -0.4102,-0.23438 -0.3535,-0.17578 -0.4121,-0.11914 -0.4707,-0.0586 h -7.4121 V 156.3827 h 49.6484 v 12.41211 h -7.4707 l -0.4707,0.0586 -0.4707,0.17774 -0.4121,0.17578 -0.4121,0.35351 -0.293,0.35157 -0.2363,0.4121 -0.1172,0.47071 -0.059,0.52929 v 3.29493 l 0.059,0.4707 0.1172,0.4707 0.2363,0.41211 0.293,0.41016 0.4121,0.29491 0.4121,0.23438 0.4707,0.11914 0.4707,0.0586 h 14.0586 l 0.7051,-0.0586 0.707,-0.17774 0.6465,-0.29297 0.5879,-0.41211 0.5293,-0.52929 0.4121,-0.58789 0.2949,-0.64844 0.1758,-0.70508 0.1172,-0.70508 V 110.8534 l -0.7637,-8.58788 -2.2363,-8.412114 -3.7051,-7.822265 -4.9414,-7.119141 -6.1172,-6.117187 -7.0586,-4.941408 -7.8828,-3.646484 -8.3535,-2.234375 -8.5879,-0.765625 z m -40.5293,72.824219 h 176.2363 v 334.4707 h -200.2363 v -72.88281 h 70.3535 0.4121 l 0.4121,-0.11719 0.4102,-0.17774 0.3535,-0.23437 0.2949,-0.35352 0.2344,-0.35351 0.2363,-0.35156 0.059,-0.41211 0.059,-0.47071 V 225.912 l -0.059,-0.41016 -0.059,-0.41211 -0.2363,-0.41211 -0.2344,-0.35352 -0.2949,-0.29296 -0.3535,-0.23633 -0.4102,-0.17578 -0.4121,-0.11719 -0.4121,-0.0586 h -46.3535 z"
     style="fill:#212830;fill-opacity:1;stroke:#212830;stroke-width:0.0588235px;stroke-linecap:round;stroke-linejoin:round;stroke-miterlimit:4;stroke-dasharray:none;stroke-opacity:1"
     id="path1541" />
</svg>
