<?xml version="1.0" encoding="UTF-8" standalone="no"?>
<svg
   xmlns:dc="http://purl.org/dc/elements/1.1/"
   xmlns:cc="http://creativecommons.org/ns#"
   xmlns:rdf="http://www.w3.org/1999/02/22-rdf-syntax-ns#"
   xmlns:svg="http://www.w3.org/2000/svg"
   xmlns="http://www.w3.org/2000/svg"
   id="svg1159"
   height="194mm"
   width="194mm"
   version="1.0">
  <metadata
     id="metadata1163">
    <rdf:RDF>
      <cc:Work
         rdf:about="">
        <dc:format>image/svg+xml</dc:format>
        <dc:type
           rdf:resource="http://purl.org/dc/dcmitype/StillImage" />
        <dc:title></dc:title>
      </cc:Work>
    </rdf:RDF>
  </metadata>
  <defs
     id="defs3" />
  <path
     d="m 242.05441,1.7606593 -0.5293,0.058594 -0.5293,0.1191407 -0.4707,0.234375 -0.4707,0.2949218 -0.35157,0.4121094 -0.29492,0.4101562 -0.23437,0.4707032 -0.11914,0.5292968 -0.0586,0.5292969 v 483.4121167 19.4707 l 0.0586,0.35352 0.0605,0.29297 0.17578,0.35351 0.23438,0.29492 0.29492,0.17578 0.29492,0.17579 0.35156,0.11914 0.35352,0.0586 h 8.5293 l 0.29492,-0.0586 0.29297,-0.0586 0.29492,-0.17773 0.23437,-0.17578 0.23633,-0.17579 0.17578,-0.29492 0.17579,-0.29492 0.0605,-0.29297 0.0586,-0.29492 v -11.58789 h 12.11718 v 79.5293 l 0.059,0.35351 0.1172,0.35157 0.1191,0.29492 0.2344,0.29492 2.5293,2.4707 -2.5293,2.5293 -0.1758,0.23437 -0.1191,0.23633 -0.1172,0.23438 -0.059,0.29492 -0.059,0.29297 v 63.05859 l -9.11718,-9.11719 v -4.23437 -0.29492 l -0.11914,-0.35352 -0.11719,-0.23437 -0.17578,-0.29493 -0.23633,-0.23437 -0.23438,-0.17773 -0.29492,-0.11719 -0.29297,-0.0586 -0.35303,-0.0586 h -5.47071 l -0.29297,0.0586 -0.29492,0.0586 -0.29492,0.11719 -0.29297,0.17773 -0.23633,0.23437 -0.17578,0.29493 -0.11718,0.23437 -0.0586,0.35352 -0.0605,0.29492 v 19.4707 l 0.0605,0.5293 0.11719,0.5293 0.23437,0.4707 0.29493,0.41016 0.41211,0.35351 0.4121,0.35352 0.46876,0.17578 0.53124,0.17773 0.5293,0.0586 h 15.17578 v 68.05859 h -57.11718 v -10.29492 l -0.0586,-0.5293 -0.11914,-0.5293 -0.23437,-0.4707 -0.29493,-0.4707 -0.35156,-0.35157 -0.4707,-0.29492 -0.4707,-0.23632 -0.5293,-0.11719 -0.5293,-0.0586 h -10.29492 -0.35352 l -0.35156,0.11719 -0.29492,0.17774 -0.29492,0.23437 -0.23438,0.29492 -0.17578,0.29297 -0.11914,0.35352 v 0.35351 2.41211 0.35156 l 0.11914,0.29493 0.11719,0.29297 0.17578,0.23632 0.23633,0.23438 0.23437,0.17773 0.29493,0.11719 0.29296,0.11719 h 0.35352 5.4707 v 9.11719 h -36.4707 v -9.11719 h 5.4707 0.29492 l 0.35157,-0.1172 0.23633,-0.11719 0.29296,-0.17773 0.23633,-0.23438 0.17578,-0.23632 0.11719,-0.29297 0.0586,-0.29493 0.0605,-0.35156 v -2.41211 l -0.0605,-0.35351 -0.0586,-0.29492 -0.11719,-0.29297 -0.17578,-0.23633 -0.23633,-0.23438 -0.29296,-0.17578 -0.23633,-0.11914 -0.35157,-0.11719 h -0.29492 -10.35351 l -0.5293,0.0586 -0.4707,0.11719 -0.5293,0.23632 -0.41211,0.29492 -0.35156,0.35157 -0.29492,0.4707 -0.23438,0.4707 -0.17773,0.5293 v 0.5293 15.17773 0.5293 l 0.17773,0.5293 0.23438,0.4707 0.29492,0.41016 0.35156,0.4121 0.41211,0.29493 0.5293,0.23437 0.4707,0.11914 0.5293,0.0586 h 419.29491 l 0.5293,-0.0586 0.5293,-0.11914 0.4707,-0.23437 0.4707,-0.29493 0.3535,-0.4121 0.293,-0.41016 0.2363,-0.4707 0.1172,-0.5293 0.059,-0.5293 v -15.17773 l -0.059,-0.5293 -0.1172,-0.5293 -0.2363,-0.4707 -0.293,-0.4707 -0.3535,-0.35157 -0.4707,-0.29492 -0.4707,-0.23632 -0.5293,-0.11719 -0.5293,-0.0586 h -10.2949 -0.3516 l -0.3535,0.11719 -0.3535,0.17774 -0.2344,0.23437 -0.2363,0.29492 -0.1758,0.29297 -0.1172,0.35352 v 0.35351 2.41211 0.35156 l 0.1172,0.29493 0.1172,0.29297 0.1758,0.23632 0.2363,0.23438 0.2344,0.17773 0.2949,0.11719 0.2949,0.11719 h 0.3516 5.4707 v 9.11719 h -36.4707 v -9.11719 h 5.4707 0.3535 l 0.3535,-0.11719 0.293,-0.17578 0.2949,-0.23633 0.2344,-0.29297 0.1172,-0.29492 0.1191,-0.35352 0.059,-0.35156 v -2.41211 l -0.059,-0.35351 -0.059,-0.29492 -0.1191,-0.29297 -0.1758,-0.23633 -0.2344,-0.23438 -0.2949,-0.17578 -0.2949,-0.11914 -0.293,-0.11719 h -0.2949 -10.3535 l -0.5293,0.0586 -0.4707,0.11719 -0.5293,0.23632 -0.4102,0.29492 -0.3535,0.35157 -0.3535,0.4707 -0.1758,0.4707 -0.1777,0.5293 v 0.5293 10.29492 h -57.1172 v -68.05859 h 15.1777 l 0.5293,-0.0586 0.4707,-0.17773 0.5293,-0.17578 0.4102,-0.35352 0.3535,-0.35351 0.2949,-0.41016 0.2344,-0.4707 0.1777,-0.5293 v -0.5293 -19.4707 -0.29492 l -0.061,-0.35352 -0.1758,-0.23437 -0.1758,-0.29493 -0.2363,-0.23437 -0.2344,-0.17773 -0.2949,-0.11719 -0.293,-0.0586 -0.3526,-0.0586 h -5.4707 l -0.3535,0.0586 -0.293,0.0586 -0.3535,0.17773 -0.2344,0.23438 -0.2363,0.29492 -0.1758,0.29297 -0.1191,0.35351 -0.059,0.35352 v 4.23437 l -9.0586,9.11719 v -63.05859 l -0.059,-0.29297 -0.059,-0.29492 -0.1172,-0.23438 -0.1172,-0.23633 -0.2363,-0.23437 -2.4707,-2.5293 2.4707,-2.4707 0.2363,-0.29492 0.1758,-0.29492 0.1172,-0.35157 0.059,-0.35351 v -79.52931 h 12.1172 v 11.58789 l 0.061,0.29492 0.059,0.29297 0.1172,0.29492 0.1758,0.29492 0.2363,0.17579 0.293,0.17578 0.2949,0.17773 0.2949,0.0586 0.293,0.0586 h 8.5293 l 0.3535,-0.0586 0.3535,-0.11914 0.293,-0.17579 0.2949,-0.17578 0.2344,-0.29492 0.1172,-0.35351 0.1191,-0.29297 0.059,-0.35352 V 488.23137 4.819253 l -0.059,-0.5292969 -0.1191,-0.5292968 -0.2344,-0.4707032 -0.2949,-0.4101562 -0.4102,-0.4121094 -0.4121,-0.2949218 -0.4707,-0.234375 -0.5293,-0.1191407 -0.5293,-0.058594 z m 4.82421,7.9414066 H 486.29073 V 260.17277 h -11.5293 l -0.3535,0.0586 -0.3535,0.11719 -0.293,0.17773 -0.2949,0.23437 -0.2344,0.23633 -0.1172,0.35157 -0.1191,0.29492 -0.059,0.35351 v 4.29297 l 0.059,0.35352 0.1191,0.35351 0.1172,0.29297 0.2344,0.29492 0.2949,0.23438 0.293,0.11914 0.3535,0.11719 0.3535,0.0586 h 11.5293 V 488.23137 H 246.87862 V 268.11418 h 11.58791 l 0.2949,-0.0586 0.293,-0.0586 0.2949,-0.11719 0.2363,-0.17773 0.2344,-0.23437 0.1758,-0.29493 0.1777,-0.29297 0.059,-0.29492 v -0.29492 -4.29297 -0.29492 l -0.059,-0.29297 -0.1777,-0.29491 -0.1758,-0.23438 -0.2344,-0.23632 -0.2363,-0.17578 -0.2949,-0.17774 -0.293,-0.0586 -0.2949,-0.0586 H 246.87862 Z M 271.17353,496.11418 h 190.8223 v 227.41211 h -190.8223 z"
     style="fill:#212830;fill-opacity:1;stroke:#212830;stroke-width:0.0588235px;stroke-linecap:round;stroke-linejoin:round;stroke-miterlimit:4;stroke-dasharray:none;stroke-opacity:1"
     id="path1153" />
</svg>
