<?xml version="1.0" encoding="UTF-8" standalone="no"?>
<svg
   xmlns:dc="http://purl.org/dc/elements/1.1/"
   xmlns:cc="http://creativecommons.org/ns#"
   xmlns:rdf="http://www.w3.org/1999/02/22-rdf-syntax-ns#"
   xmlns:svg="http://www.w3.org/2000/svg"
   xmlns="http://www.w3.org/2000/svg"
   id="svg693"
   height="88mm"
   width="88mm"
   version="1.0">
  <metadata
     id="metadata697">
    <rdf:RDF>
      <cc:Work
         rdf:about="">
        <dc:format>image/svg+xml</dc:format>
        <dc:type
           rdf:resource="http://purl.org/dc/dcmitype/StillImage" />
        <dc:title></dc:title>
      </cc:Work>
    </rdf:RDF>
  </metadata>
  <defs
     id="defs3" />
  <path
     d="m 155.65081,0.38709348 -0.7051,0.11914 -0.7051,0.29297 -0.6484,0.41211002 -0.5879,0.4707 -0.4707,0.64649 -0.293,0.64843 -0.2363,0.70508 -0.059,0.76368 V 54.445694 l 0.1172,1.4121 0.3535,1.41211 0.6465,1.29493 0.8242,1.17578 1,1 1.1758,0.82422 1.2949,0.58789 1.3535,0.35351 1.4102,0.11719 h 44.2363 v 34.41211 h -43.4121 l -0.4121,0.0586 -0.4121,0.11719 -0.4102,0.17578 -0.3535,0.23633 -0.2949,0.29297 -0.2344,0.35351 -0.1777,0.41211 -0.1172,0.41211 -0.059,0.41211 v 26.234376 l 0.059,0.41211 0.1172,0.41211 0.1777,0.4121 0.2344,0.35157 0.2949,0.29492 0.3535,0.23437 0.4102,0.17774 0.4121,0.11719 0.4121,0.0586 h 5.7656 l 0.4102,-0.0586 0.4121,-0.11719 0.3535,-0.17774 0.3535,-0.23437 0.3516,-0.29492 0.2363,-0.35157 0.1758,-0.4121 0.1172,-0.41211 v -0.41211 -18.0586 h 24.5898 v 18.0586 l 0.059,0.4707 0.1172,0.4707 0.2344,0.41211 0.2949,0.35157 0.4121,0.35351 0.4121,0.17773 0.4707,0.17579 0.4707,0.0586 h 8.1758 v 125.35352 h -8.1758 l -0.4707,0.0586 -0.4707,0.11719 -0.4121,0.23632 -0.4121,0.29297 -0.2949,0.35352 -0.2344,0.4707 -0.1172,0.41211 -0.059,0.5293 v 18 h -24.5898 v -18 -0.4707 l -0.1172,-0.41211 -0.1758,-0.35352 -0.2363,-0.35351 -0.3516,-0.29297 -0.3535,-0.29493 -0.3535,-0.17578 -0.4121,-0.11718 h -0.4102 -5.7656 l -0.4707,0.0586 -0.4707,0.11719 -0.4121,0.23632 -0.3516,0.29297 -0.3535,0.35352 -0.1758,0.4707 -0.1777,0.41211 -0.059,0.5293 v 30.29297 l 0.059,0.41211 0.1172,0.41211 0.1777,0.41211 0.2344,0.35156 0.2949,0.29492 0.3535,0.23438 0.4102,0.17773 0.4121,0.11719 0.4121,0.0586 h 5.7656 l 0.4707,-0.0586 0.4688,-0.11719 0.4121,-0.23633 0.3535,-0.29297 0.2949,-0.41211 0.2344,-0.41211 0.1758,-0.4707 v -0.4707 -1.64649 h 35.2363 v 36.88282 H 83.181614 v -13.94141 l -0.061,-0.70703 -0.1758,-0.70508 -0.3535,-0.64648 -0.4102,-0.5879 -0.4707,-0.4707 -0.5898,-0.41211 -0.6465,-0.29492 -0.7051,-0.17578 -0.707,-0.0586 h -13.9414 -0.4707 l -0.4688,0.17578 -0.4121,0.23632 -0.3535,0.29297 -0.2949,0.35352 -0.2344,0.41211 -0.1758,0.4707 v 0.4707 3.29297 0.47071 l 0.1758,0.4707 0.2344,0.41211 0.2949,0.41211 0.3535,0.29297 0.4121,0.23633 0.4688,0.11718 0.4707,0.0586 h 7.4121 v 12.29492 h -49.1163 v -12.29495 h 7.3535 l 0.4707,-0.0586 0.4707,-0.11718 0.4102,-0.23633 0.3535,-0.29297 0.3535,-0.41211 0.1758,-0.41211 0.1777,-0.4707 0.059,-0.47071 v -3.29297 l -0.059,-0.4121 -0.1191,-0.41211 -0.1758,-0.41211 -0.2363,-0.35352 -0.293,-0.29297 -0.3535,-0.23633 -0.4121,-0.17578 -0.4102,-0.11718 h -0.4121 -13.9414 l -0.707,0.0586 -0.7051,0.17578 -0.6465,0.29492 -0.5879,0.41211 -0.470701,0.4707 -0.4121,0.5879 -0.2949,0.64648 -0.1758,0.70508 -0.059,0.70703 v 20.4707 l 0.059,0.70508 0.1758,0.70703 0.2949,0.64649 0.4121,0.58789 0.470701,0.52929 0.5879,0.41211 0.6465,0.29492 0.7051,0.17579 0.707,0.0586 H 315.71131 l 0.7051,-0.0586 0.7051,-0.17579 0.6484,-0.29492 0.5879,-0.41211 0.4707,-0.52929 0.4121,-0.58789 0.3516,-0.64649 0.1777,-0.70703 0.059,-0.70508 V 56.094134 l -0.059,-0.70703 -0.1777,-0.70508 -0.3516,-0.64648 -0.4121,-0.58984 -0.4707,-0.5293 -0.5879,-0.35156 -0.6484,-0.35353 -0.7051,-0.17578 -0.7051,-0.0586 H 160.12151 V 4.4456935 l -0.059,-0.76368 -0.1758,-0.70508 -0.3535,-0.64843 -0.4707,-0.64649 -0.5293,-0.4707 -0.6465,-0.41211002 -0.7051,-0.29297 -0.7656,-0.11914 z m 59.3535,62.23633052 h 94.1777 V 321.56483 h -94.1777 z"
     style="fill:#212830;fill-opacity:1;stroke:#212830;stroke-width:0.0588235px;stroke-linecap:round;stroke-linejoin:round;stroke-miterlimit:4;stroke-dasharray:none;stroke-opacity:1"
     id="path689" />
</svg>
