<?xml version="1.0" encoding="UTF-8" standalone="no"?>
<svg
   xmlns:dc="http://purl.org/dc/elements/1.1/"
   xmlns:cc="http://creativecommons.org/ns#"
   xmlns:rdf="http://www.w3.org/1999/02/22-rdf-syntax-ns#"
   xmlns:svg="http://www.w3.org/2000/svg"
   xmlns="http://www.w3.org/2000/svg"
   id="svg3635"
   height="100mm"
   width="100mm"
   version="1.0">
  <metadata
     id="metadata3639">
    <rdf:RDF>
      <cc:Work
         rdf:about="">
        <dc:format>image/svg+xml</dc:format>
        <dc:type
           rdf:resource="http://purl.org/dc/dcmitype/StillImage" />
        <dc:title></dc:title>
      </cc:Work>
    </rdf:RDF>
  </metadata>
  <defs
     id="defs3" />
  <path
     d="m 41.653134,0.27129383 -1.82422,0.11719 -1.70507,0.4707 -1.64844,0.76367007 -1.4707,1.0586 -1.29297,1.23633 -1,1.4707 -0.76563,1.64648 -0.4707,1.76563 -0.17578,1.7636701 V 130.97637 l 0.0586,0.58789 0.17773,0.58789 0.29297,0.5293 0.41211,0.4707 4.23438,4.23633 -4.23438,4.23437 -0.41211,0.47071 -0.29297,0.58789 -0.17773,0.5293 -0.0586,0.64843 v 90.23438 l 0.0586,0.4707 0.11719,0.4707 0.17773,0.47071 0.23438,0.41211 0.35351,0.35351 4.23438,4.23438 -4.23438,4.23632 -0.41211,0.46876 -0.29297,0.53124 -0.17773,0.5879 -0.0586,0.64648 v 120.35352 l 0.17578,1.82226 0.4707,1.70703 0.76563,1.64649 1,1.4707 1.29297,1.23438 1.4707,1.06054 1.64844,0.76367 1.70507,0.47071 1.82422,0.17578 H 144.18243 l 0.5293,-0.0586 0.52929,-0.17578 0.47071,-0.23632 0.41211,-0.29297 0.4121,-0.35352 0.29297,-0.4707 0.23633,-0.47071 0.11719,-0.52929 0.0586,-0.5293 v -1.35351 l 0.0586,-0.5293 0.11718,-0.5293 0.23633,-0.4707 0.29297,-0.41016 0.41211,-0.41211 0.41211,-0.29492 5.70508,-3.29297 v -3.4707 l -6.76367,-3.88281 -0.11719,-0.11719 -0.17774,-0.11914 -0.0586,-0.17578 -0.0586,-0.17578 -0.0586,-0.17774 v -0.17578 l 0.0586,-0.11719 0.0586,-0.17773 0.0586,-0.17578 0.17774,-0.11719 0.11719,-0.11719 6.76367,-3.88281 v -3.4707 l -6.76367,-3.88282 -0.11719,-0.11718 -0.17774,-0.11719 -0.0586,-0.17774 -0.0586,-0.17578 -0.0586,-0.17578 v -0.17773 l 0.0586,-0.17578 0.0586,-0.11719 0.0586,-0.17774 0.17774,-0.11718 0.11719,-0.11719 6.76367,-3.88281 v -3.47071 l -6.76367,-3.9414 -0.11719,-0.0586 -0.17774,-0.11718 -0.0586,-0.17579 -0.0586,-0.17773 -0.0586,-0.17578 v -0.17773 l 0.0586,-0.17579 0.0586,-0.11718 0.0586,-0.17579 0.17774,-0.11914 0.11719,-0.11718 6.76367,-3.88282 v -3.4707 l -6.76367,-3.9414 -0.11719,-0.0586 -0.17774,-0.17578 -0.0586,-0.11719 -0.0586,-0.17773 -0.0586,-0.17578 v -0.17578 l 0.0586,-0.17774 0.0586,-0.17578 0.0586,-0.11719 0.17774,-0.11719 0.11719,-0.11914 6.76367,-3.88086 v -3.53124 l -6.76367,-3.88086 -0.11719,-0.11914 -0.17774,-0.11719 -0.0586,-0.11719 -0.0586,-0.17578 -0.0586,-0.17774 v -0.17578 l 0.0586,-0.17578 0.0586,-0.17773 0.0586,-0.11719 0.17774,-0.11719 0.11719,-0.11719 6.76367,-3.88281 v -3.52929 l -6.76367,-3.88282 -0.11719,-0.11718 -0.17774,-0.11914 -0.0586,-0.11719 -0.0586,-0.17578 -0.0586,-0.17579 v -0.17773 l 0.0586,-0.17578 0.0586,-0.17773 0.0586,-0.11719 0.17774,-0.17578 0.11719,-0.0586 6.76367,-3.9414 v -3.47071 l -6.76367,-3.88281 -0.11719,-0.11719 -0.17774,-0.11718 -0.0586,-0.11914 -0.0586,-0.17579 -0.0586,-0.17578 v -0.17773 l 0.0586,-0.17578 0.0586,-0.17578 0.0586,-0.11914 0.17774,-0.17579 0.11719,-0.0586 6.76367,-3.94141 v -3.4707 l -6.76367,-3.88281 -0.11719,-0.11719 -0.17774,-0.11719 -0.0586,-0.17578 -0.0586,-0.11914 -0.0586,-0.17577 v -0.17578 l 0.0586,-0.17774 0.0586,-0.17578 0.0586,-0.17578 0.17774,-0.11914 0.11719,-0.11719 6.76367,-3.88281 v -3.4707 l -6.76367,-3.88086 -0.11719,-0.11914 -0.17774,-0.11719 -0.0586,-0.17578 -0.0586,-0.11719 -0.0586,-0.17773 v -0.17578 l 0.0586,-0.17579 0.0586,-0.17773 0.0586,-0.17578 0.17774,-0.11719 0.11719,-0.11914 6.76367,-3.88086 v -3.4707 l -6.76367,-3.88281 -0.11719,-0.11719 -0.17774,-0.11914 -0.0586,-0.17578 -0.0586,-0.17578 -0.0586,-0.17774 v -0.17578 l 0.0586,-0.17578 0.0586,-0.11914 0.0586,-0.17578 0.17774,-0.11719 0.11719,-0.11719 6.76367,-3.88281 v -3.4707 l -6.76367,-3.88282 -0.11719,-0.11718 -0.17774,-0.11719 -0.0586,-0.17774 -0.0586,-0.17578 -0.0586,-0.17578 v -0.17773 l 0.0586,-0.17578 0.0586,-0.11719 0.0586,-0.17774 0.17774,-0.11718 0.11719,-0.11719 6.76367,-3.88281 v -3.47071 l -6.76367,-3.9414 -0.11719,-0.0586 -0.17774,-0.17578 -0.0586,-0.11719 -0.0586,-0.17773 -0.0586,-0.17578 v -0.17773 l 0.0586,-0.17579 0.0586,-0.17578 0.0586,-0.11719 0.17774,-0.11914 0.11719,-0.11718 6.76367,-3.88282 v -8.17578 h 66 l 9.76562,5.58789 0.17578,0.11719 0.11914,0.11914 0.0586,0.17578 0.0586,0.17578 0.0586,0.17774 v 0.17578 l -0.0586,0.17578 -0.0586,0.11914 -0.0586,0.17578 -0.11914,0.11719 -0.17578,0.11719 -6.76562,3.88281 v 3.4707 l 6.7656,3.94141 0.17578,0.0586 0.11914,0.17579 0.0586,0.11914 0.0586,0.17578 0.0586,0.17578 v 0.17773 l -0.0586,0.17578 -0.0586,0.17579 -0.0586,0.11914 -0.11914,0.11718 -0.17578,0.11719 -6.76562,3.88281 v 3.47071 l 6.76562,3.9414 0.17578,0.0586 0.11914,0.17578 0.0586,0.11719 0.0586,0.17773 0.0586,0.17578 v 0.17773 l -0.0586,0.17579 -0.0586,0.17578 -0.0586,0.11719 -0.11914,0.11914 -0.17578,0.11718 -6.76562,3.88282 v 3.52929 l 6.76562,3.88281 0.17578,0.11719 0.11914,0.11719 0.0586,0.11719 0.0586,0.17773 0.0586,0.17578 v 0.17578 l -0.0586,0.17774 -0.0586,0.17578 -0.0586,0.11719 -0.11914,0.11719 -0.17578,0.11914 -6.76562,3.88086 v 3.53124 l 6.76562,3.88086 0.17578,0.11914 0.11914,0.11719 0.0586,0.11719 0.0586,0.17578 0.0586,0.17774 v 0.17578 l -0.0586,0.17578 -0.0586,0.17773 -0.0586,0.11719 -0.11914,0.17578 -0.17578,0.0586 -6.76562,3.9414 v 3.4707 l 6.76562,3.88282 0.17578,0.11718 0.11914,0.11914 0.0586,0.11719 0.0586,0.17578 0.0586,0.17579 v 0.17773 l -0.0586,0.17578 -0.0586,0.17773 -0.0586,0.17579 -0.11914,0.11718 -0.17578,0.0586 -6.76562,3.9414 v 3.47071 l 6.76562,3.88281 0.17578,0.11719 0.11914,0.11718 0.0586,0.17774 0.0586,0.11719 0.0586,0.17578 v 0.17773 l -0.0586,0.17578 -0.0586,0.17578 -0.0586,0.17774 -0.11914,0.11719 -0.17578,0.11718 -6.76562,3.88282 v 3.4707 l 6.76562,3.88281 0.17578,0.11719 0.11914,0.11719 0.0586,0.17578 0.0586,0.17773 0.0586,0.11719 v 0.17578 l -0.0586,0.17774 -0.0586,0.17578 -0.0586,0.17578 -0.11914,0.11914 -0.17578,0.11719 -6.76562,3.88281 v 3.4707 l 6.76562,3.88086 0.17578,0.11914 0.11914,0.11719 0.0586,0.17578 0.0586,0.17773 0.0586,0.17579 v 0.17578 l -0.0586,0.17773 -0.0586,0.11719 -0.0586,0.17578 -0.11914,0.11719 -0.17578,0.11914 -6.76562,3.88086 v 3.4707 l 6.76562,3.88281 0.17578,0.11719 0.11914,0.11914 0.0586,0.17578 0.0586,0.17578 0.0586,0.17774 v 0.17577 l -0.0586,0.17578 -0.0586,0.11914 -0.0586,0.17578 -0.11914,0.11719 -0.17578,0.11719 -6.76562,3.88281 v 3.4707 l 6.76562,3.94141 0.17578,0.0586 0.11914,0.17579 0.0586,0.11914 0.0586,0.17578 0.0586,0.17578 v 0.17773 l -0.0586,0.17578 -0.0586,0.17579 -0.0586,0.11914 -0.11914,0.11718 -0.17578,0.11719 -6.76562,3.88281 v 3.47071 l 6.76562,3.9414 0.17578,0.0586 0.11914,0.17578 0.0586,0.11719 0.0586,0.17773 0.0586,0.17578 v 0.17773 l -0.0586,0.17579 -0.0586,0.17578 -0.0586,0.11719 -0.11914,0.11914 -0.17578,0.11718 -6.76562,3.88282 v 3.52929 l 6.76562,3.88281 0.17578,0.11719 0.11914,0.11719 0.0586,0.11719 0.0586,0.17773 0.0586,0.17578 v 0.17578 l -0.0586,0.17774 -0.0586,0.17578 -0.0586,0.11719 -0.11914,0.11719 -0.17578,0.11914 -6.76562,3.9414 v 3.4707 l 6.11914,3.46876 0.4707,0.23632 0.5293,0.17578 0.5293,0.0586 h 105.23438 l 1.76563,-0.17578 1.76367,-0.47071 1.58789,-0.76367 1.4707,-1.06054 1.29492,-1.23438 1,-1.4707 0.76368,-1.64649 0.4707,-1.70703 0.17773,-1.82226 V 246.97637 l -0.0586,-0.64648 -0.17774,-0.5879 -0.29296,-0.53124 -0.41211,-0.46876 -4.23633,-4.23632 4.23633,-4.23438 0.35351,-0.35351 0.23438,-0.41211 0.17578,-0.47071 0.11914,-0.4707 0.0586,-0.4707 v -90.23438 l -0.0586,-0.52929 -0.11914,-0.47071 -0.17578,-0.41211 -0.23438,-0.41211 -0.35351,-0.41211 -4.23633,-4.23437 4.23633,-4.23633 0.41211,-0.4707 0.29296,-0.5293 0.17774,-0.58789 0.0586,-0.58789 V 10.564264 l -0.17773,-1.7636701 -0.4707,-1.76563 -0.76368,-1.64648 -1,-1.4707 -1.29492,-1.23633 -1.4707,-1.0586 -1.58789,-0.76367007 -1.76367,-0.4707 -1.76563,-0.11719 H 231.12384 l -0.5293,0.0586 -0.5293,0.11718 -0.4707,0.23438 -6.11914,3.52930007 v 3.4707 l 6.76562,3.8828101 0.17578,0.11719 0.11914,0.11914 0.0586,0.17578 0.0586,0.11719 0.0586,0.17773 v 0.17578 l -0.0586,0.17578 -0.0586,0.17774 -0.0586,0.17578 -0.11914,0.11719 -0.17578,0.0586 -6.76562,3.94141 v 3.4707 l 6.76562,3.88281 0.17578,0.11719 0.11914,0.11719 0.0586,0.17773 0.0586,0.11719 0.0586,0.17578 v 0.17774 l -0.0586,0.17578 -0.0586,0.17578 -0.0586,0.17773 -0.11914,0.11718 -0.17578,0.11719 -6.76562,3.88281 v 3.4707 l 6.76562,3.88282 0.17578,0.11718 0.11914,0.11719 0.0586,0.17773 0.0586,0.17579 0.0586,0.17578 v 0.17773 l -0.0586,0.11719 -0.0586,0.17578 -0.0586,0.17773 -0.11914,0.11719 -0.17578,0.11719 -6.76562,3.88281 v 3.47071 l 6.76562,3.88086 0.17578,0.11914 0.11914,0.11718 0.0586,0.17578 0.0586,0.17774 0.0586,0.17578 v 0.17578 l -0.0586,0.17774 -0.0586,0.11718 -0.0586,0.17578 -0.11914,0.11914 -0.17578,0.11719 -6.76562,3.88281 v 3.46876 l 6.76562,3.9414 0.17578,0.0586 0.11914,0.11914 0.0586,0.17578 0.0586,0.17578 0.0586,0.17773 v 0.17578 l -0.0586,0.17579 -0.0586,0.17773 -0.0586,0.11719 -0.11914,0.11718 -0.17578,0.11914 -6.76562,3.88086 v 3.47071 l 6.76562,3.9414 0.17578,0.0586 0.11914,0.17773 0.0586,0.11719 0.0586,0.17578 0.0586,0.17773 v 0.17579 l -0.0586,0.17578 -0.0586,0.17773 -0.0586,0.11719 -0.11914,0.11719 -0.17578,0.11718 -6.76562,3.88282 v 3.52929 l 6.76562,3.88282 0.17578,0.11718 0.11914,0.11719 0.0586,0.11914 0.0586,0.17578 0.0586,0.17578 v 0.17774 l -0.0586,0.17578 -0.0586,0.17578 -0.0586,0.11914 -0.11914,0.11719 -0.17578,0.11719 -6.76562,3.88281 v 3.5293 l 6.76562,3.882806 0.17578,0.11719 0.11914,0.11718 0.0586,0.11719 0.0586,0.17774 0.0586,0.17578 v 0.17578 l -0.0586,0.17773 -0.0586,0.17578 -0.0586,0.11719 -0.11914,0.17774 -0.17578,0.0586 -6.76562,3.94141 v 3.4707 l 6.76562,3.88086 0.17578,0.11914 0.11914,0.11719 0.0586,0.11718 0.0586,0.17579 0.0586,0.17773 v 0.17578 l -0.0586,0.17773 -0.0586,0.17579 -0.0586,0.11718 -0.11914,0.17579 -0.17578,0.0605 -6.76562,3.93946 v 3.4707 l 6.76562,3.88281 0.17578,0.11719 0.11914,0.11914 0.0586,0.17578 0.0586,0.11719 0.0586,0.17773 v 0.17578 l -0.0586,0.17578 -0.0586,0.17774 -0.0586,0.17578 -0.11914,0.11719 -0.17578,0.11719 -6.76562,3.88281 v 3.4707 l 6.76562,3.88281 0.17578,0.11719 0.11914,0.11719 0.0586,0.17773 0.0586,0.11719 0.0586,0.17578 v 0.17774 l -0.0586,0.17578 -0.0586,0.17578 -0.0586,0.17773 -0.11914,0.11722 -0.17578,0.11719 -6.76562,3.88281 v 3.4707 l 6.76562,3.88282 0.17578,0.11718 0.11914,0.11719 0.0586,0.17773 0.0586,0.17579 0.0586,0.17578 v 0.17773 l -0.0586,0.17578 -0.0586,0.11719 -0.0586,0.17773 -0.11914,0.11719 -0.17578,0.11719 -6.76562,3.88281 v 3.47071 l 6.76562,3.88086 0.17578,0.11914 0.11914,0.11718 0.0586,0.17578 0.0586,0.17774 0.0586,0.17578 v 0.17578 l -0.0586,0.17774 -0.0586,0.11718 -0.0586,0.17578 -0.11914,0.11914 -0.17578,0.11719 -9.76562,5.64649 h -66 v -8.17578 l -6.76367,-3.94141 -0.11719,-0.0586 -0.17774,-0.17774 -0.0586,-0.11719 -0.0586,-0.17578 -0.0586,-0.17773 v -0.17578 l 0.0586,-0.17578 0.0586,-0.17774 0.0586,-0.11719 0.17774,-0.11718 0.11719,-0.11719 6.76367,-3.88281 v -3.5293 l -6.76367,-3.88281 -0.11719,-0.11719 -0.17774,-0.11719 -0.0586,-0.11914 -0.0586,-0.17578 -0.0586,-0.17578 v -0.17774 l 0.0586,-0.17578 0.0586,-0.17578 0.0586,-0.11914 0.17774,-0.11719 0.11719,-0.11718 6.76367,-3.88282 v -3.52929 l -6.76367,-3.88282 -0.11719,-0.11718 -0.17774,-0.11719 -0.0586,-0.11719 -0.0586,-0.17773 -0.0586,-0.17578 v -0.17579 l 0.0586,-0.17773 0.0586,-0.17578 0.0586,-0.11719 0.17774,-0.17773 0.11719,-0.0586 6.76367,-3.9414 v -3.47071 l -6.76367,-3.88086 -0.11719,-0.11914 -0.17774,-0.11718 -0.0586,-0.11719 -0.0586,-0.17773 -0.0586,-0.17579 v -0.17578 l 0.0586,-0.17773 0.0586,-0.17578 0.0586,-0.17578 0.17774,-0.11914 0.11719,-0.0586 6.76367,-3.9414 v -3.46876 l -6.76367,-3.88281 -0.11719,-0.11719 -0.17774,-0.11914 -0.0586,-0.17578 -0.0586,-0.11718 -0.0586,-0.17774 v -0.17577 l 0.0586,-0.17578 0.0586,-0.17774 0.0586,-0.17578 0.17774,-0.11718 0.11719,-0.11914 6.76367,-3.88086 v -3.47071 l -6.76367,-3.882806 -0.11719,-0.11719 -0.17774,-0.11719 -0.0586,-0.17773 -0.0586,-0.17578 -0.0586,-0.11719 v -0.17773 l 0.0586,-0.17578 0.0586,-0.17579 0.0586,-0.17773 0.17774,-0.11719 0.11719,-0.11718 6.76367,-3.88282 v -3.4707 l -6.76367,-3.88281 -0.11719,-0.11719 -0.17774,-0.11719 -0.0586,-0.17773 -0.0586,-0.17578 -0.0586,-0.17578 v -0.17774 l 0.0586,-0.17578 0.0586,-0.11719 0.0586,-0.17773 0.17774,-0.11719 0.11719,-0.11719 6.76367,-3.88281 v -3.4707 l -6.76367,-3.88281 -0.11719,-0.11719 -0.17774,-0.11719 -0.0586,-0.17578 -0.0586,-0.17774 -0.0586,-0.17578 v -0.17578 l 0.0586,-0.17773 0.0586,-0.11719 0.0586,-0.17578 0.17774,-0.11914 0.11719,-0.11719 6.76367,-3.88281 v -3.4707 l -6.76367,-3.93946 -0.11719,-0.0605 -0.17774,-0.17579 -0.0586,-0.11718 -0.0586,-0.17579 -0.0586,-0.17773 v -0.17578 l 0.0586,-0.17773 0.0586,-0.17579 0.0586,-0.11718 0.17774,-0.11719 0.11719,-0.11914 6.76367,-3.88086 v -3.4707 l -6.76367,-3.94141 -0.11719,-0.0586 -0.17774,-0.17774 -0.0586,-0.11719 -0.0586,-0.17578 -0.0586,-0.17773 v -0.17578 l 0.0586,-0.17578 0.0586,-0.17774 0.0586,-0.11719 0.17774,-0.11718 0.11719,-0.11719 6.76367,-3.88281 v -3.5293 l -6.76367,-3.88281 -0.11719,-0.11719 -0.17774,-0.11719 -0.0586,-0.11914 -0.0586,-0.17578 -0.0586,-0.17578 v -0.17774 l 0.0586,-0.17578 0.0586,-0.17578 0.0586,-0.11914 0.17774,-0.11719 0.11719,-0.11718 6.76365,-3.94144 v -3.4707 l -6.76367,-3.88282 -0.11719,-0.11718 -0.17774,-0.11719 -0.0586,-0.11719 -0.0586,-0.17773 -0.0586,-0.17578 v -0.17579 l 0.0586,-0.17773 0.0586,-0.17578 0.0586,-0.11719 0.17774,-0.17773 0.11719,-0.0586 6.76367,-3.9414 v -3.47071 l -5.70508,-3.2343701 -0.41211,-0.35352 -0.41211,-0.35351 -0.29297,-0.4707 -0.23633,-0.46876 -0.11718,-0.53124 -0.0586,-0.5293 v -1.35156 l -0.0586,-0.5293 -0.11719,-0.5293 -0.23633,-0.4707 -0.29297,-0.41211 -0.4121,-0.41211007 -0.41211,-0.29492 -0.47071,-0.23438 -0.52929,-0.11718 -0.5293,-0.0586 z M 57.065244,15.741994 h 71.646486 l 0.88281,0.0586 0.88086,0.23437 0.82422,0.41211 0.70508,0.47071 0.64843,0.64648 0.5293,0.76563 0.35351,0.76367 0.23438,0.88281 0.0586,0.88281 V 357.03496 l -0.0586,0.88282 -0.23438,0.88281 -0.35351,0.82226 -0.5293,0.70704 -0.64843,0.64648 -0.70508,0.5293 -0.82422,0.35351 -0.88086,0.23438 -0.88281,0.11719 H 57.065244 l -0.88281,-0.11719 -0.88281,-0.23438 -0.82422,-0.35351 -0.70508,-0.5293 -0.64648,-0.64648 -0.5293,-0.70704 -0.35352,-0.82226 -0.23632,-0.88281 -0.0586,-0.88282 V 20.859184 l 0.0586,-0.88281 0.23632,-0.88281 0.35352,-0.76367 0.5293,-0.76563 0.64648,-0.64648 0.70508,-0.47071 0.82422,-0.41211 0.88281,-0.23437 z m 192.175776,0 h 71.64649 l 0.88281,0.0586 0.88281,0.23437 0.82227,0.41211 0.70703,0.47071 0.64648,0.64648 0.5293,0.76563 0.35352,0.76367 0.23437,0.88281 0.11914,0.88281 V 357.03496 l -0.11914,0.88282 -0.23437,0.88281 -0.35352,0.82226 -0.5293,0.70704 -0.64648,0.64648 -0.70703,0.5293 -0.82227,0.35351 -0.88281,0.23438 -0.88281,0.11719 h -71.64649 l -0.88281,-0.11719 -0.88281,-0.23438 -0.76367,-0.35351 -0.76563,-0.5293 -0.64648,-0.64648 -0.47071,-0.70704 -0.41211,-0.82226 -0.23437,-0.88281 -0.0586,-0.88282 V 20.859184 l 0.0586,-0.88281 0.23437,-0.88281 0.41211,-0.76367 0.47071,-0.76563 0.64648,-0.64648 0.76563,-0.47071 0.76367,-0.41211 0.88281,-0.23437 z"
     style="fill:#212830;fill-opacity:1;stroke:#212830;stroke-width:0.0588235px;stroke-linecap:round;stroke-linejoin:round;stroke-miterlimit:4;stroke-dasharray:none;stroke-opacity:1"
     id="path3633" />
</svg>
